<?xml version="1.0" encoding="UTF-8" standalone="no"?>
<!-- Creator: fig2dev Version 3.2.6a -->

<!-- CreationDate: 2019-01-02 18:36:01 -->

<!-- Magnification: 1 -->

<svg
   xmlns:dc="http://purl.org/dc/elements/1.1/"
   xmlns:cc="http://creativecommons.org/ns#"
   xmlns:rdf="http://www.w3.org/1999/02/22-rdf-syntax-ns#"
   xmlns:svg="http://www.w3.org/2000/svg"
   xmlns="http://www.w3.org/2000/svg"
   xmlns:sodipodi="http://sodipodi.sourceforge.net/DTD/sodipodi-0.dtd"
   xmlns:inkscape="http://www.inkscape.org/namespaces/inkscape"
   width="337.33334"
   height="113.33334"
   viewBox="2858 19497 4214 1413"
   version="1.1"
   id="svg90"
   sodipodi:docname="edt-logo.svg"
   inkscape:version="0.92.3 (2405546, 2018-03-11)">
  <metadata
     id="metadata96">
    <rdf:RDF>
      <cc:Work
         rdf:about="">
        <dc:format>image/svg+xml</dc:format>
        <dc:type
           rdf:resource="http://purl.org/dc/dcmitype/StillImage" />
        <dc:title></dc:title>
      </cc:Work>
    </rdf:RDF>
  </metadata>
  <defs
     id="defs94" />
  <sodipodi:namedview
     pagecolor="#ffffff"
     bordercolor="#666666"
     borderopacity="1"
     objecttolerance="10"
     gridtolerance="10"
     guidetolerance="10"
     inkscape:pageopacity="0"
     inkscape:pageshadow="2"
     inkscape:window-width="1869"
     inkscape:window-height="1172"
     id="namedview92"
     showgrid="false"
     inkscape:zoom="2.4367589"
     inkscape:cx="124.64931"
     inkscape:cy="109.88102"
     inkscape:window-x="51"
     inkscape:window-y="28"
     inkscape:window-maximized="1"
     inkscape:current-layer="g88"
     units="px" />
  <g
     id="g88"
     style="fill:none">
    <path
       style="fill:#000000;stroke-width:0.08005062"
       d="m 209.73242,39.015625 v 0.08008 0.240235 0.720703 1.201171 1.759766 2.16211 2.40039 2.482422 2.162109 1.759766 1.201172 0.720703 0.240234 0.08008 h 0.0801 0.24023 0.48047 0.24024 0.0801 v -0.08008 -0.640625 -1.361328 -1.839843 -1.921876 -1.361328 -0.640625 -0.08008 h 0.16015 0.56055 0.96094 0.56054 0.15821 0.0801 0.16016 0.0801 0.0801 0.0801 0.0801 0.0801 0.0801 0.0801 0.0801 0.0801 0.0801 0.0801 0.0801 0.0801 0.0801 0.0801 v 0.08008 h 0.0801 0.0801 0.0801 0.0801 0.0801 v 0.08008 h 0.0801 0.0801 0.0801 0.0801 v 0.08008 h 0.0801 0.0801 v 0.08008 h 0.0801 0.0801 v 0.08008 h 0.0801 0.0801 v 0.08008 h 0.0801 0.0801 v 0.08008 h 0.0801 v 0.08008 h 0.0801 v 0.08008 l 0.0801,0.08008 0.0801,0.08008 v 0.08008 h 0.0801 v 0.08008 l 0.0801,0.08008 v 0.08008 l 0.0801,0.08008 v 0.08008 h 0.0801 v 0.08008 0.08008 h 0.0801 v 0.08008 l 0.0801,0.08008 v 0.08008 l 0.0801,0.08008 v 0.08008 l 0.0801,0.08008 v 0.08008 l 0.0801,0.08008 v 0.08008 0.08008 l 0.0801,0.08008 0.0801,0.08008 v 0.160156 h 0.0801 v 0.08008 l 0.0801,0.08008 v 0.160156 l 0.0801,0.08008 v 0.08008 l 0.16015,0.400391 0.40039,0.800781 0.48047,1.199219 0.47852,1.121093 0.40039,0.800782 0.16015,0.40039 v 0.08008 h 0.0801 0.32032 0.40039 0.32031 0.0801 v -0.08008 l -0.16016,-0.40039 -0.40039,-0.800782 -0.48047,-1.201171 -0.56055,-1.199219 -0.39843,-0.800781 -0.16016,-0.400391 v -0.08008 -0.08008 l -0.0801,-0.160156 -0.0801,-0.160157 -0.0801,-0.240234 -0.0801,-0.160156 v -0.08008 h -0.0801 v -0.08008 l -0.0801,-0.160156 -0.0801,-0.160156 v -0.08008 h -0.0801 v -0.08008 l -0.0801,-0.160157 -0.0801,-0.160156 -0.0801,-0.08008 -0.0801,-0.08008 v -0.08008 l -0.0801,-0.08008 v -0.160157 l -0.0801,-0.08008 v -0.08008 l -0.0801,-0.08008 -0.0801,-0.08008 -0.0801,-0.08008 -0.0801,-0.08008 v -0.08008 h -0.0801 l -0.0801,-0.08008 -0.0801,-0.08008 h -0.0801 l -0.0801,-0.08008 -0.0801,-0.08008 h -0.0801 l -0.0801,-0.08008 -0.0801,-0.08008 h -0.0801 l -0.0801,-0.08008 v -0.08008 h 0.0801 l 0.16016,-0.08008 h 0.32031 l 0.40039,-0.160156 0.48047,-0.160156 0.40039,-0.238281 0.16016,-0.08008 h 0.0801 l 0.16015,-0.160156 0.32032,-0.240234 0.31835,-0.320313 0.0801,-0.08008 0.0801,-0.08008 0.0801,-0.160156 0.24023,-0.320313 0.24024,-0.40039 0.0801,-0.320313 0.0801,-0.320312 0.0801,-0.160157 v -0.08008 l 0.0801,-0.40039 v -0.480469 l 0.0801,-0.400391 v -0.08008 -0.240234 -0.320313 l -0.0801,-0.40039 -0.16016,-0.480469 -0.24023,-0.398438 -0.0801,-0.240234 -0.0801,-0.08008 -0.16015,-0.160156 -0.32032,-0.320313 -0.39843,-0.320312 -0.16016,-0.160157 h -0.0801 l -0.16015,-0.08008 -0.56055,-0.240234 -0.64063,-0.240234 -0.56054,-0.08008 -0.48047,-0.08008 -0.24024,-0.08008 h -0.0801 -0.16016 l -0.64063,-0.08008 h -0.88085 l -0.64063,-0.08008 h -0.16016 -0.0801 -0.63868 -1.04101 -1.1211 -0.64062 z m 1.1211,0.960937 h 0.16015 0.64063 0.96093 0.63868 0.16015 0.16016 0.24023 l 0.32032,0.08008 h 0.40039 0.32031 0.16015 0.0801 l 0.16016,0.08008 h 0.32031 l 0.32031,0.08008 h 0.16016 0.16016 l 0.24023,0.08008 0.32031,0.08008 0.16016,0.08008 h 0.16016 l 0.0801,0.08008 0.16016,0.08008 0.32031,0.08008 0.16016,0.08008 0.0801,0.08008 0.0801,0.08008 0.16015,0.08008 0.16016,0.160156 0.16015,0.160157 h 0.0801 v 0.08008 h 0.0801 l 0.0801,0.158203 0.0801,0.160156 0.0801,0.08008 v 0.08008 l 0.0781,0.160157 0.0801,0.160156 v 0.160156 l 0.0801,0.160156 v 0.08008 0.160156 l 0.0801,0.240234 v 0.160156 0.160157 0.160156 l -0.0801,0.160156 v 0.320313 l -0.0801,0.240234 v 0.08008 0.08008 0.08008 l -0.0801,0.240235 -0.0781,0.240234 v 0.08008 l -0.0801,0.160157 -0.0801,0.160156 -0.16016,0.160156 -0.0801,0.160156 -0.0801,0.08008 -0.0801,0.08008 -0.16016,0.160157 -0.24023,0.160156 -0.16016,0.160156 -0.0801,0.08008 h -0.0801 l -0.16015,0.160157 -0.24024,0.08008 -0.24023,0.08008 -0.0801,0.08008 h -0.0801 l -0.0801,0.08008 -0.32032,0.08008 -0.32031,0.08008 h -0.0801 -0.0801 -0.0801 l -0.32032,0.08008 -0.32031,0.08008 h -0.32031 l -0.24024,0.07813 h -0.16015 -0.0801 -0.32031 -0.40039 -0.32032 -0.0801 -0.15821 -0.56054 -0.96094 -0.56055 -0.16015 v -0.07813 -0.560547 -1.28125 -1.681641 -1.761719 -1.279296 -0.560547 z"
       id="polyline16"
       transform="matrix(12.492094,0,0,12.492094,2858,19495.615)"
       inkscape:connector-curvature="0" />
    <!-- Line -->
    <!--  polyline  -->
    <polyline
       points=" 3332,19498 3096,19498 3096,19734 3332,19734 3332,19498"
       id="polyline2"
       style="fill:#00b4cd;fill-opacity:1" />
    <!-- Line -->
    <!--  spline  -->
    <polyline
       points=" 3568,19500 3568,19501 3568,19505 3568,19514 3568,19531 3568,19555 3568,19585  3568,19618 3568,19651 3568,19681 3568,19705 3568,19722 3568,19731 3568,19735  3568,19736 3569,19736 3574,19737 3585,19739 3602,19742 3624,19745 3646,19748  3663,19751 3674,19753 3679,19754 3680,19754 3683,19755 3688,19757 3696,19760  3706,19764 3718,19769 3730,19775 3744,19783 3760,19792 3777,19804 3793,19816  3805,19826 3813,19833 3817,19836 3819,19839 3821,19841 3824,19845 3831,19853  3841,19865 3853,19881 3865,19898 3873,19911 3879,19919 3882,19924 3883,19927  3885,19929 3887,19934 3891,19944 3897,19958 3904,19978 3910,19998 3914,20017  3917,20033 3919,20047 3921,20060 3921,20071 3922,20080 3922,20086 3922,20089  3922,20090 3921,20095 3919,20106 3916,20123 3913,20145 3910,20167 3907,20184  3905,20195 3904,20200 3904,20201 3903,20204 3901,20209 3898,20217 3894,20227  3888,20239 3882,20251 3875,20265 3865,20281 3853,20298 3841,20314 3831,20326  3824,20334 3821,20338 3819,20340 3817,20343 3813,20346 3805,20353 3793,20363  3777,20375 3760,20387 3747,20395 3739,20401 3734,20403 3731,20405 3729,20406  3724,20408 3714,20412 3700,20418 3680,20425 3659,20431 3641,20435 3625,20438  3610,20440 3597,20442 3586,20442 3577,20443 3571,20443 3568,20443 3567,20443  3562,20443 3550,20443 3532,20443 3509,20443 3486,20443 3468,20443 3456,20443  3451,20443 3450,20443 3450,20444 3450,20448 3450,20457 3450,20474 3450,20498  3450,20528 3450,20561 3450,20594 3450,20624 3450,20648 3450,20665 3450,20674  3450,20678 3450,20679 3451,20679 3456,20679 3468,20679 3486,20679 3509,20679  3532,20679 3550,20679 3562,20679 3567,20679 3568,20679 3569,20679 3574,20678  3585,20676 3605,20673 3631,20669 3661,20664 3691,20659 3717,20655 3737,20652  3748,20650 3753,20649 3754,20649 3757,20648 3762,20646 3771,20643 3783,20638  3798,20632 3814,20625 3831,20617 3849,20608 3869,20596 3892,20582 3916,20565  3939,20547 3957,20532 3971,20522 3979,20514 3984,20510 3987,20507 3989,20504  3993,20500 4001,20491 4011,20478 4026,20460 4044,20437 4061,20413 4074,20394  4083,20379 4089,20370 4092,20365 4094,20361 4096,20358 4099,20352 4103,20342  4110,20326 4118,20304 4128,20276 4137,20247 4143,20221 4148,20197 4151,20176  4154,20156 4156,20138 4157,20122 4157,20108 4158,20098 4158,20092 4158,20089  4158,20088 4157,20083 4155,20072 4152,20052 4148,20026 4143,19996 4138,19966  4134,19940 4131,19920 4129,19909 4128,19904 4128,19903 4127,19900 4125,19895  4122,19886 4117,19874 4111,19859 4104,19843 4096,19826 4087,19808 4075,19787  4061,19765 4044,19741 4026,19718 4011,19700 4001,19687 3993,19679 3989,19674  3986,19671 3984,19668 3979,19664 3971,19657 3957,19646 3939,19631 3916,19614  3892,19597 3872,19584 3858,19575 3849,19569 3843,19566 3840,19564 3836,19562  3830,19559 3820,19555 3804,19548 3782,19540 3754,19530 3725,19521 3699,19515  3675,19510 3654,19507 3635,19504 3617,19502 3601,19501 3587,19501 3577,19500  3571,19500 3568,19500"
       id="polyline4"
       style="fill:#00b4cd;fill-opacity:1" />
    <!-- Line -->
    <!--  polyline  -->
    <polyline
       points=" 3568,20206 3568,19970 3096,19970 3096,19734 2859,19734 2859,20679 3214,20679  3214,20443 3096,20443 3096,20206 3568,20206"
       id="polyline6"
       style="fill:#00b4cd;fill-opacity:1" />
    <!-- Line -->
    <!--  polyline  -->
    <polyline
       points=" 4160,19498 4160,19734 4396,19734 4396,20206 4633,20206 4633,19734 4869,19734  4869,19498 4160,19498"
       id="polyline8"
       style="fill:#00b4cd;fill-opacity:1" />
    <!-- Line -->
    <!--  polyline  -->
    <polyline
       points=" 4396,20679 4633,20679 4633,20443 4396,20443 4396,20679"
       id="polyline10"
       style="fill:#00b4cd;fill-opacity:1" />
    <!-- Line -->
    <!--  polyline  -->
    <polyline
       points=" 5123,19995 5123,20075 5224,20075 5224,20087 5123,20087 5123,20185 5230,20185  5230,20198 5108,20198 5108,19983 5230,19983 5230,19995 5123,19995"
       id="polyline12"
       style="fill:#000000" />
    <!-- Line -->
    <!--  spline  -->
    <polyline
       points=" 5353,20188 5354,20188 5360,20187 5368,20186 5374,20185 5375,20185 5378,20184  5382,20183 5386,20181 5392,20177 5397,20173 5398,20171 5399,20170 5401,20168  5404,20162 5407,20156 5409,20153 5409,20152 5410,20149 5412,20142 5413,20133  5414,20126 5414,20120 5414,20117 5414,20116 5414,20115 5414,20109 5414,20096  5414,20075 5414,20049 5414,20024 5414,20003 5414,19990 5414,19984 5414,19983  5415,19983 5419,19983 5424,19983 5428,19983 5429,19983 5429,19984 5429,19990  5429,20003 5429,20024 5429,20050 5429,20075 5429,20096 5429,20109 5429,20115  5429,20116 5429,20117 5429,20121 5428,20127 5428,20131 5428,20132 5428,20134  5428,20137 5427,20141 5426,20146 5425,20150 5424,20152 5424,20153 5424,20155  5422,20159 5420,20163 5419,20165 5418,20167 5416,20170 5414,20174 5412,20176  5410,20178 5409,20179 5406,20181 5403,20185 5400,20187 5399,20188 5396,20189  5394,20191 5390,20193 5386,20195 5385,20196 5384,20196 5383,20197 5379,20198  5375,20199 5373,20199 5372,20199 5370,20199 5366,20200 5361,20200 5357,20201  5354,20201 5352,20201 5351,20201 5348,20201 5342,20200 5339,20200 5338,20200  5336,20200 5334,20200 5330,20199 5326,20198 5322,20197 5320,20196 5319,20196  5318,20195 5314,20193 5310,20191 5309,20190 5308,20190 5307,20189 5304,20187  5301,20184 5299,20182 5297,20180 5296,20179 5294,20176 5291,20173 5289,20170  5288,20168 5287,20166 5285,20163 5283,20159 5281,20155 5281,20153 5281,20152  5280,20150 5279,20146 5278,20141 5278,20140 5278,20139 5278,20137 5277,20132  5277,20126 5276,20122 5276,20119 5276,20116 5276,20115 5276,20109 5276,20096  5276,20075 5276,20049 5276,20024 5276,20003 5276,19990 5276,19984 5276,19983  5277,19983 5281,19983 5286,19983 5290,19983 5291,19983 5291,19984 5291,19990  5291,20003 5291,20024 5291,20050 5291,20075 5291,20096 5291,20109 5291,20115  5291,20116 5291,20117 5292,20124 5293,20134 5294,20141 5294,20142 5294,20143  5295,20145 5296,20150 5298,20155 5301,20162 5304,20168 5306,20170 5306,20171  5308,20173 5313,20177 5318,20181 5321,20182 5322,20182 5324,20183 5331,20185  5339,20187 5345,20188 5349,20188 5352,20188 5353,20188"
       id="polyline14"
       style="fill:#000000" />
    <!-- Line -->
    <!--  spline  -->
    <!-- Line -->
    <!--  spline  -->
    <!-- Line -->
    <!--  spline  -->
    <path
       style="fill:#000000;stroke-width:0.08005062"
       d="m 230.06641,38.775391 -0.48047,0.08008 -0.48047,0.08008 h -0.16016 l -0.0801,0.08008 h -0.16015 l -0.40039,0.160156 -0.40039,0.160157 -0.16016,0.08008 h -0.0801 l -0.16015,0.08008 -0.40039,0.160156 -0.4004,0.240234 -0.32031,0.160157 -0.24023,0.160156 -0.16016,0.08008 -0.0801,0.08008 -0.24023,0.160156 -0.32031,0.400391 -0.24024,0.160156 -0.0801,0.08008 -0.16015,0.160157 -0.16016,0.160156 -0.23828,0.318359 -0.32031,0.400391 -0.24024,0.400391 -0.0801,0.160156 -0.0801,0.08008 -0.0801,0.160156 -0.16016,0.400391 -0.16015,0.40039 -0.0801,0.160157 v 0.08008 0.240234 l -0.16016,0.400391 -0.16015,0.480469 -0.0801,0.40039 v 0.240234 l -0.0801,0.240235 v 0.08008 0.400391 l -0.0801,0.560546 V 47.5 v 0.08008 0.08008 0.160156 0.400391 0.400391 l 0.0801,0.560547 0.0801,0.480468 0.0801,0.160157 v 0.08008 l 0.0801,0.160156 0.0801,0.480469 0.16016,0.40039 v 0.240235 0.08008 l 0.0801,0.160156 0.16015,0.400391 0.24024,0.480469 0.16015,0.320312 0.16016,0.240234 0.0801,0.158204 0.0801,0.08008 0.16015,0.240234 0.39844,0.400391 0.16016,0.240234 0.0801,0.08008 0.16016,0.160156 0.16016,0.160157 0.24023,0.240234 0.40039,0.320312 0.32031,0.240235 0.16016,0.08008 0.0801,0.08008 0.16015,0.08008 0.4004,0.160157 0.40039,0.160156 0.16015,0.08008 h 0.0801 l 0.16016,0.08008 0.40039,0.160156 0.48047,0.160156 0.32031,0.08008 0.32031,0.08008 h 0.16016 0.0801 0.40039 l 0.47851,0.08008 h 0.40039 0.0801 0.24023 0.32032 0.40039 l 0.48047,-0.08008 0.48047,-0.08008 h 0.16015 l 0.0801,-0.08008 h 0.24023 l 0.40039,-0.160156 0.4004,-0.160156 0.16015,-0.08008 h 0.0801 l 0.16016,-0.08008 0.40039,-0.160156 0.40039,-0.240235 0.32031,-0.160156 0.23828,-0.160156 0.16016,-0.08008 0.0801,-0.08008 0.24023,-0.160156 0.32031,-0.40039 0.24024,-0.160157 0.0801,-0.08008 0.16015,-0.160156 0.16016,-0.160156 0.24023,-0.320313 0.24024,-0.40039 0.24023,-0.398438 0.0801,-0.160156 0.0801,-0.08008 0.0801,-0.160157 0.16016,-0.40039 0.16016,-0.400391 0.0801,-0.160156 v -0.08008 l 0.0801,-0.240235 0.16016,-0.40039 0.16016,-0.480469 0.0801,-0.400391 0.0801,-0.240234 v -0.240234 -0.08008 -0.40039 l 0.0801,-0.640625 V 47.660156 47.580078 47.5 v -0.160156 -0.31836 -0.40039 l -0.0801,-0.560547 -0.0801,-0.480469 v -0.160156 l -0.0801,-0.08008 v -0.160156 l -0.16016,-0.480469 -0.16016,-0.400391 -0.0801,-0.240234 v -0.08008 l -0.0801,-0.160157 -0.16016,-0.40039 -0.24023,-0.480469 -0.16016,-0.320312 -0.16016,-0.240235 -0.0801,-0.160156 -0.0801,-0.08008 -0.16016,-0.240235 -0.32031,-0.398437 -0.16016,-0.240235 -0.0801,-0.08008 -0.16016,-0.160156 -0.16016,-0.160156 -0.24023,-0.240234 -0.40039,-0.320313 -0.31836,-0.240234 -0.16016,-0.08008 -0.0801,-0.08008 -0.16015,-0.08008 -0.40039,-0.160156 -0.40039,-0.160156 -0.16016,-0.08008 h -0.0801 l -0.16015,-0.08008 -0.4004,-0.160157 -0.48046,-0.160156 -0.40039,-0.08008 -0.24024,-0.08008 h -0.24023 -0.0801 -0.40039 l -0.48047,-0.08008 h -0.40039 -0.0801 -0.24023 -0.32032 z m 0.55859,0.960937 h 0.32031 0.0801 0.24023 0.24024 0.32031 l 0.48047,0.08008 0.40039,0.08008 0.16016,0.08008 h 0.0801 l 0.0801,0.08008 0.40039,0.08008 0.32032,0.160156 h 0.16015 0.0801 l 0.16016,0.08008 0.32031,0.160156 0.32031,0.240235 0.32032,0.160156 0.16015,0.160156 0.16016,0.08008 h 0.0801 l 0.16015,0.240235 0.31836,0.238281 0.16016,0.240234 h 0.0801 l 0.0801,0.160157 0.24024,0.160156 0.16015,0.320312 0.24024,0.320313 0.24023,0.320312 0.0801,0.160157 v 0.08008 l 0.0801,0.160156 0.16016,0.320313 0.16015,0.40039 0.0801,0.08008 v 0.08008 l 0.0801,0.160157 0.0801,0.40039 0.0801,0.400391 0.0801,0.320312 0.0801,0.320313 v 0.160156 0.08008 0.320313 l 0.0801,0.560547 V 47.5 v 0.08008 0.240234 0.240235 0.400391 l -0.0801,0.480468 -0.0801,0.480469 v 0.160156 0.08008 l -0.0801,0.160157 -0.0801,0.40039 -0.0801,0.400391 -0.0801,0.160156 v 0.08008 l -0.0801,0.08008 -0.16015,0.400391 -0.16016,0.400391 -0.16016,0.240234 -0.16015,0.240234 -0.0801,0.160157 v 0.08008 l -0.24024,0.240234 -0.24023,0.31836 -0.24023,0.240234 v 0.08008 l -0.0801,0.08008 -0.16016,0.160156 -0.23828,0.240235 -0.32031,0.240234 -0.32031,0.240235 -0.0801,0.08008 -0.0801,0.08008 -0.16016,0.08008 -0.32031,0.160156 -0.32031,0.160156 -0.16016,0.08008 h -0.0801 l -0.16015,0.08008 -0.32032,0.08008 -0.40039,0.08008 -0.32031,0.08008 -0.24023,0.08008 h -0.16016 -0.0801 -0.32031 l -0.48047,0.08008 h -0.32031 -0.0801 -0.16016 -0.32031 -0.31836 l -0.40039,-0.08008 -0.40039,-0.08008 h -0.16016 -0.0801 l -0.0801,-0.08008 -0.40039,-0.08008 -0.32031,-0.08008 -0.16016,-0.08008 h -0.0801 l -0.16015,-0.08008 -0.32032,-0.160156 -0.32031,-0.240234 -0.32031,-0.160156 -0.16016,-0.160157 -0.16016,-0.08008 h -0.0801 l -0.16016,-0.240234 -0.32031,-0.240235 -0.16016,-0.240234 h -0.0801 l -0.0801,-0.160156 -0.24024,-0.160156 -0.16015,-0.31836 -0.24024,-0.320312 -0.24023,-0.320313 -0.0801,-0.160156 v -0.08008 l -0.0801,-0.160157 -0.16016,-0.320312 -0.1582,-0.400391 -0.0801,-0.08008 v -0.08008 l -0.0801,-0.160156 -0.0801,-0.400391 -0.0801,-0.480468 -0.0801,-0.320313 -0.0801,-0.240234 v -0.240235 -0.08008 -0.320312 l -0.0801,-0.560547 v -0.320313 -0.08008 -0.240234 -0.238282 -0.40039 l 0.0801,-0.480469 0.0801,-0.400391 v -0.160156 -0.08008 l 0.0801,-0.160156 0.0801,-0.400391 0.0801,-0.40039 0.0801,-0.160157 v -0.08008 l 0.0801,-0.08008 0.1582,-0.40039 0.16016,-0.400391 0.16016,-0.240235 0.16015,-0.240234 0.0801,-0.160156 v -0.08008 l 0.24024,-0.240235 0.24023,-0.320312 0.24023,-0.240235 v -0.08008 l 0.0801,-0.08008 0.16016,-0.160156 0.24023,-0.238281 0.32031,-0.240235 0.32032,-0.240234 0.0801,-0.08008 0.0801,-0.08008 0.16016,-0.08008 0.32031,-0.160157 0.32032,-0.160156 0.16015,-0.08008 h 0.0801 0.16016 l 0.32031,-0.160156 0.40039,-0.160157 0.32031,-0.08008 h 0.24024 l 0.16015,-0.08008 h 0.0801 0.32031 z"
       id="polyline20"
       transform="matrix(12.492094,0,0,12.492094,2858,19495.615)"
       inkscape:connector-curvature="0" />
    <!-- Line -->
    <!--  spline  -->
    <!-- Line -->
    <!--  spline  -->
    <path
       style="fill:#000000;stroke-width:0.08005062"
       d="m 242.47266,39.015625 v 0.08008 0.240235 0.720703 1.201171 1.759766 2.16211 2.40039 2.482422 2.162109 1.759766 1.201172 0.720703 0.240234 0.08008 h 0.0801 0.32032 0.40039 0.32031 0.0801 v -0.08008 -0.560546 -1.28125 -1.679688 -1.681641 -1.28125 -0.560547 -0.08008 h 0.0801 0.48047 0.96093 0.96094 0.48047 0.0801 0.24023 0.24024 l 0.31835,-0.08008 h 0.48047 l 0.40039,-0.08008 h 0.16016 0.0801 0.0801 l 0.40039,-0.08008 0.32031,-0.08008 h 0.16016 0.0801 l 0.16016,-0.08008 0.32031,-0.08008 0.32032,-0.08008 0.24023,-0.08008 0.16016,-0.08008 0.16015,-0.08008 0.24024,-0.160156 0.24023,-0.160156 0.24024,-0.160157 0.0801,-0.08008 0.16016,-0.08008 0.16016,-0.160156 0.16015,-0.238281 0.16016,-0.240235 0.0801,-0.08008 v -0.08008 l 0.0801,-0.08008 0.16016,-0.240234 0.16016,-0.240235 v -0.160156 l 0.0781,-0.160156 0.0801,-0.240235 0.0801,-0.320312 0.0801,-0.240235 v -0.160156 -0.160156 -0.08008 -0.240235 l 0.0801,-0.40039 v -0.240235 -0.08008 -0.160156 -0.240234 l -0.0801,-0.240235 v -0.320312 l -0.0801,-0.320313 v -0.08008 -0.160156 l -0.0801,-0.240235 -0.0801,-0.240234 -0.0781,-0.08008 v -0.08008 -0.07813 l -0.16016,-0.240235 -0.16016,-0.240234 -0.16015,-0.160156 -0.0801,-0.160156 -0.0801,-0.08008 -0.16015,-0.160157 -0.32032,-0.160156 -0.16015,-0.160156 -0.0801,-0.08008 -0.16016,-0.08008 -0.16015,-0.08008 -0.32032,-0.160156 -0.24023,-0.08008 -0.16016,-0.08008 -0.16015,-0.08008 -0.32032,-0.08008 -0.32031,-0.08008 -0.16015,-0.08008 h -0.0801 -0.0801 l -0.40039,-0.08008 -0.40039,-0.08008 h -0.32031 l -0.32032,-0.08008 h -0.16015 -0.0801 -0.40039 -0.47852 -0.40039 -0.0801 -0.0801 -0.72071 -1.12109 -1.20117 -0.72071 z m 1.20117,0.960937 h 0.16015 0.72071 1.04101 0.72071 0.16015 0.16016 0.32031 l 0.32031,0.08008 h 0.39844 0.40039 0.16016 0.0801 0.16015 l 0.32032,0.08008 0.32031,0.08008 h 0.16015 l 0.16016,0.08008 0.24023,0.08008 0.32032,0.08008 0.16015,0.08008 0.16016,0.08008 h 0.0801 l 0.16015,0.08008 0.24024,0.160156 0.16015,0.08008 0.0801,0.08008 0.0801,0.08008 0.16016,0.160156 0.16015,0.160157 0.16016,0.158203 v 0.08008 l 0.0801,0.08008 0.0801,0.160156 0.0801,0.160157 0.0801,0.08008 v 0.08008 0.08008 l 0.0801,0.160156 0.0801,0.240235 v 0.160156 l 0.0801,0.160156 v 0.08008 0.240235 0.240234 0.240234 0.160157 0.160156 0.160156 0.320313 0.240234 l -0.0801,0.08008 v 0.08008 0.08008 L 252,45.339844 l -0.0801,0.240234 -0.0801,0.08008 -0.0801,0.08008 -0.0801,0.240235 -0.0801,0.240234 -0.16016,0.160156 v 0.08008 l -0.0801,0.08008 -0.16016,0.160156 -0.16016,0.160156 -0.16015,0.160156 -0.0801,0.08008 h -0.16016 l -0.16015,0.158204 -0.24024,0.08008 -0.24023,0.08008 -0.0801,0.08008 h -0.0801 l -0.0801,0.08008 -0.24023,0.08008 -0.24024,0.08008 -0.16015,0.08008 h -0.0801 l -0.32031,0.08008 -0.32032,0.08008 h -0.24023 -0.24023 -0.16016 -0.0801 -0.24023 l -0.47852,0.08008 h -0.24023 -0.0801 -0.0801 -0.48047 -0.88086 -0.96093 -0.48047 -0.0801 v -0.08008 -0.320313 -0.798828 -1.28125 -1.521484 -1.601563 -1.279297 -0.800781 -0.320312 z"
       id="polyline24"
       transform="matrix(12.492094,0,0,12.492094,2858,19495.615)"
       inkscape:connector-curvature="0" />
    <!-- Line -->
    <!--  spline  -->
    <!-- Line -->
    <!--  polyline  -->
    <polyline
       points=" 6075,19995 6075,20075 6176,20075 6176,20087 6075,20087 6075,20185 6182,20185  6182,20198 6060,20198 6060,19983 6182,19983 6182,19995 6075,19995"
       id="polyline28"
       style="fill:#000000" />
    <!-- Line -->
    <!--  spline  -->
    <polyline
       points=" 6335,19983 6335,19984 6335,19990 6335,20003 6335,20024 6335,20051 6335,20077  6335,20098 6335,20111 6335,20117 6335,20118 6335,20120 6334,20127 6333,20139  6332,20146 6332,20148 6332,20149 6331,20152 6329,20157 6327,20163 6323,20171  6319,20177 6317,20180 6316,20181 6314,20183 6308,20188 6302,20192 6299,20194  6297,20194 6294,20196 6286,20198 6277,20200 6269,20201 6263,20201 6259,20201  6258,20201 6255,20201 6252,20201 6249,20201 6247,20201 6245,20200 6243,20200  6239,20199 6236,20199 6235,20199 6234,20199 6233,20199 6230,20198 6227,20197  6226,20197 6225,20197 6224,20196 6221,20195 6218,20194 6216,20193 6214,20192  6213,20191 6213,20190 6214,20187 6216,20183 6217,20180 6217,20179 6220,20180  6223,20181 6226,20182 6227,20183 6229,20183 6231,20184 6234,20185 6237,20186  6238,20186 6239,20186 6242,20187 6245,20187 6246,20188 6247,20188 6250,20188  6253,20188 6255,20188 6257,20188 6258,20188 6259,20188 6265,20187 6274,20186  6280,20185 6281,20185 6284,20184 6288,20183 6292,20181 6298,20177 6303,20173  6304,20171 6305,20170 6307,20168 6310,20162 6313,20156 6315,20153 6315,20152  6316,20149 6318,20142 6319,20133 6320,20126 6320,20120 6320,20117 6320,20116  6320,20115 6320,20109 6320,20096 6320,20075 6320,20049 6320,20024 6320,20003  6320,19990 6320,19984 6320,19983 6321,19983 6325,19983 6330,19983 6334,19983  6335,19983"
       id="polyline30"
       style="fill:#000000" />
    <!-- Line -->
    <!--  spline  -->
    <polyline
       points=" 6438,19992 6436,19992 6432,19993 6430,19993 6429,19993 6427,19993 6425,19994  6422,19994 6420,19995 6419,19995 6418,19995 6417,19995 6415,19996 6413,19997  6412,19997 6411,19998 6410,19998 6408,19999 6406,20000 6405,20001 6404,20002  6403,20002 6401,20004 6400,20005 6398,20007 6397,20008 6396,20009 6395,20011  6394,20013 6393,20014 6393,20015 6392,20017 6391,20019 6391,20020 6391,20021  6391,20023 6391,20025 6390,20027 6390,20029 6390,20030 6390,20031 6391,20034  6391,20038 6392,20041 6392,20042 6393,20044 6394,20046 6395,20049 6398,20053  6401,20056 6402,20058 6403,20058 6404,20059 6408,20062 6412,20065 6414,20066  6416,20067 6421,20070 6427,20073 6431,20075 6435,20076 6438,20077 6439,20077  6442,20078 6447,20080 6450,20081 6451,20081 6453,20082 6456,20083 6459,20084  6463,20086 6467,20088 6468,20088 6469,20089 6470,20089 6473,20091 6476,20093  6477,20094 6478,20095 6481,20097 6484,20099 6486,20101 6487,20102 6488,20103  6490,20105 6491,20108 6493,20110 6494,20111 6495,20112 6496,20114 6497,20117  6498,20120 6499,20121 6499,20122 6500,20125 6501,20128 6501,20129 6501,20130  6501,20131 6502,20134 6502,20137 6503,20140 6503,20142 6503,20143 6503,20144  6503,20146 6502,20151 6502,20153 6502,20154 6502,20156 6501,20158 6501,20161  6500,20164 6499,20167 6499,20168 6498,20169 6497,20172 6496,20175 6495,20176  6494,20178 6492,20180 6490,20182 6488,20184 6487,20185 6486,20186 6484,20188  6480,20190 6478,20192 6477,20193 6475,20194 6473,20195 6470,20196 6467,20197  6466,20198 6465,20198 6463,20198 6460,20199 6456,20200 6455,20200 6454,20200  6453,20200 6449,20200 6445,20200 6441,20201 6439,20201 6437,20201 6436,20201  6433,20201 6427,20200 6424,20200 6423,20200 6421,20200 6418,20200 6415,20199  6410,20198 6406,20197 6404,20196 6403,20196 6401,20196 6397,20194 6393,20192  6391,20191 6389,20190 6385,20188 6381,20186 6378,20184 6376,20182 6374,20181  6374,20180 6376,20177 6377,20173 6379,20170 6379,20169 6380,20169 6382,20171  6387,20174 6389,20176 6390,20176 6392,20177 6394,20179 6397,20180 6401,20182  6405,20183 6406,20184 6407,20184 6408,20184 6412,20185 6416,20186 6418,20187  6419,20187 6421,20187 6425,20188 6429,20188 6433,20188 6435,20188 6437,20188  6438,20188 6440,20188 6444,20188 6446,20188 6447,20188 6448,20188 6450,20188  6452,20188 6455,20187 6458,20186 6459,20186 6461,20185 6463,20184 6465,20183  6466,20183 6467,20182 6469,20181 6471,20180 6473,20179 6474,20178 6475,20177  6477,20175 6478,20174 6480,20172 6480,20171 6481,20170 6482,20168 6483,20166  6484,20164 6484,20163 6485,20162 6485,20161 6486,20159 6487,20157 6487,20156  6488,20155 6488,20152 6488,20149 6488,20147 6488,20144 6488,20143 6488,20141  6488,20138 6488,20136 6488,20135 6487,20133 6487,20132 6486,20129 6485,20127  6485,20126 6485,20125 6485,20124 6484,20122 6483,20120 6483,20119 6482,20119  6481,20117 6479,20115 6478,20113 6477,20112 6476,20111 6474,20110 6473,20108  6471,20107 6470,20106 6469,20105 6467,20104 6465,20102 6463,20101 6461,20100  6460,20099 6457,20098 6454,20097 6453,20096 6451,20095 6448,20094 6444,20093  6441,20092 6439,20091 6437,20091 6436,20091 6430,20088 6422,20085 6416,20082  6415,20082 6412,20081 6408,20079 6404,20076 6398,20072 6393,20068 6392,20067  6391,20066 6389,20064 6386,20060 6383,20056 6381,20054 6381,20053 6380,20051  6378,20046 6377,20040 6376,20036 6376,20033 6376,20030 6376,20027 6377,20024  6377,20021 6377,20020 6378,20018 6378,20016 6379,20013 6380,20011 6380,20010  6380,20009 6381,20008 6382,20006 6383,20004 6384,20003 6384,20002 6384,20001  6386,19999 6388,19997 6390,19995 6391,19994 6392,19993 6394,19991 6397,19990  6399,19988 6400,19988 6402,19987 6405,19986 6408,19985 6411,19984 6412,19984  6413,19983 6414,19983 6417,19982 6420,19981 6422,19981 6424,19980 6427,19980  6431,19980 6434,19980 6436,19980 6438,19980 6439,19980 6442,19980 6447,19980  6450,19980 6451,19980 6453,19980 6456,19981 6459,19981 6464,19982 6468,19983  6470,19983 6472,19984 6476,19985 6480,19986 6481,19987 6482,19987 6483,19988  6487,19989 6491,19991 6495,19992 6497,19993 6499,19994 6499,19995 6498,19998  6496,20002 6495,20005 6495,20006 6494,20006 6492,20004 6487,20003 6485,20001  6484,20001 6483,20000 6481,19999 6478,19998 6474,19997 6470,19996 6468,19996  6466,19996 6462,19995 6458,19994 6457,19994 6456,19994 6455,19994 6451,19993  6447,19993 6443,19992 6440,19992 6438,19992"
       id="polyline32"
       style="fill:#000000" />
    <!-- Line -->
    <!--  polyline  -->
    <polyline
       points=" 6562,19983 6562,20080 6669,19983 6688,19983 6575,20086 6691,20198 6672,20198  6562,20092 6562,20198 6547,20198 6547,19983 6562,19983"
       id="polyline34"
       style="fill:#000000" />
    <!-- Line -->
    <!--  polyline  -->
    <polyline
       points=" 6738,20198 6738,19983 6754,19983 6754,20198 6738,20198"
       id="polyline36"
       style="fill:#000000" />
    <!-- Line -->
    <!--  polyline  -->
    <polyline
       points=" 6831,19995 6831,20075 6932,20075 6932,20087 6831,20087 6831,20185 6938,20185  6938,20198 6816,20198 6816,19983 6938,19983 6938,19995 6831,19995"
       id="polyline38"
       style="fill:#000000" />
    <!-- Line -->
    <!--  spline  -->
    <path
       style="fill:#000000;stroke-width:0.08005062"
       d="m 180.11328,67.353516 v 0.08008 0.240234 0.720703 1.201172 1.759766 2.162109 2.400391 2.482422 2.162109 1.759766 1.201172 0.720703 0.240234 0.08008 h 0.0801 0.64062 1.20118 1.20117 0.64062 0.0801 0.0801 0.16016 0.32031 0.47851 l 0.56055,-0.08008 0.56055,-0.08008 h 0.16015 0.0801 l 0.24024,-0.08008 0.48046,-0.08008 0.48047,-0.160157 h 0.16016 l 0.0801,-0.08008 0.24023,-0.08008 0.40039,-0.160156 0.48047,-0.240234 0.32031,-0.160157 0.24024,-0.160156 0.16015,-0.08008 0.0801,-0.08008 0.24024,-0.160157 0.32031,-0.320312 0.23828,-0.160156 0.0801,-0.08008 0.16016,-0.160157 0.16015,-0.160156 0.24024,-0.240234 0.32031,-0.400391 0.24023,-0.398437 0.0801,-0.160157 0.0801,-0.08008 0.0801,-0.160156 0.16015,-0.400391 0.16016,-0.40039 0.0801,-0.160157 0.0801,-0.08008 v -0.160156 l 0.16015,-0.480469 0.0801,-0.560547 0.0801,-0.40039 0.0801,-0.320313 v -0.160156 -0.08008 -0.08008 l 0.0801,-0.400391 v -0.640625 l 0.0801,-0.40039 v -0.08008 -0.08008 -0.158203 l -0.0801,-0.320312 V 74.71875 l -0.0801,-0.560547 -0.0801,-0.480469 V 73.4375 73.357422 l -0.0801,-0.160156 -0.0801,-0.480469 -0.16015,-0.400391 V 72.15625 l -0.0801,-0.08008 -0.0801,-0.160156 -0.16016,-0.400391 -0.24023,-0.400391 -0.16016,-0.320312 -0.16015,-0.240234 -0.0801,-0.160157 -0.0801,-0.08008 -0.16016,-0.160156 -0.32031,-0.398438 -0.16015,-0.160156 -0.0801,-0.08008 -0.16016,-0.160156 -0.23828,-0.160157 -0.24023,-0.240234 -0.4004,-0.240234 -0.40039,-0.240235 -0.0801,-0.08008 -0.0801,-0.08008 -0.16016,-0.08008 -0.40039,-0.160156 -0.40039,-0.160157 -0.24023,-0.08008 h -0.0801 l -0.16016,-0.08008 -0.48047,-0.08008 -0.56054,-0.08008 -0.40039,-0.08008 -0.32032,-0.08008 h -0.16015 -0.0801 -0.0801 -0.40039 l -0.71875,-0.08008 h -0.40039 -0.0801 -0.0801 -0.64062 -1.20117 -1.20118 -0.64062 z m 1.20117,1.041015 h 0.16016 0.64062 1.04102 0.64063 0.16015 0.0801 0.24023 0.48047 0.5586 l 0.7207,0.08008 0.80078,0.160157 0.80078,0.240234 0.32031,0.08008 h 0.0801 l 0.32032,0.160156 0.64062,0.400391 0.64062,0.400391 0.24024,0.238281 0.0801,0.08008 0.16015,0.240234 0.47852,0.560547 0.40039,0.640625 0.24023,0.560547 0.16016,0.480469 0.0801,0.240234 v 0.08008 0.160157 l 0.0801,0.640625 0.16015,1.121093 0.0801,0.640625 v 0.158203 0.08008 0.40039 l -0.0801,0.640625 -0.0801,0.720703 -0.16015,0.960938 -0.24024,0.800781 -0.0801,0.320313 v 0.08008 L 191,80.082031 l -0.40039,0.640625 -0.47852,0.638672 -0.16015,0.240234 -0.0801,0.08008 -0.24024,0.160156 -0.64062,0.480469 -0.7207,0.40039 -0.56055,0.320313 -0.48047,0.160156 -0.32031,0.08008 h -0.0801 -0.0801 l -0.48047,0.08008 -0.88086,0.08008 -0.8789,0.08008 -0.48047,0.08008 h -0.0801 -0.16015 -0.64063 -1.04102 -0.64062 -0.16016 V 83.523438 83.123047 82.162109 80.642578 78.480469 75.998047 73.517578 71.355469 69.835938 68.875 68.474609 Z"
       id="polyline40"
       transform="matrix(12.492094,0,0,12.492094,2858,19495.615)"
       inkscape:connector-curvature="0" />
    <!-- Line -->
    <!--  spline  -->
    <!-- Line -->
    <!--  polyline  -->
    <polyline
       points=" 5298,20337 5438,20337 5438,20350 5316,20539 5316,20540 5438,20540 5438,20552  5298,20552 5298,20540 5421,20350 5298,20350 5298,20337"
       id="polyline44"
       style="fill:#000000" />
    <!-- Line -->
    <!--  polyline  -->
    <polyline
       points=" 5497,20552 5497,20337 5513,20337 5513,20552 5497,20552"
       id="polyline46"
       style="fill:#000000" />
    <!-- Line -->
    <!--  polyline  -->
    <polyline
       points=" 5590,20350 5590,20429 5691,20429 5691,20442 5590,20442 5590,20540 5697,20540  5697,20552 5575,20552 5575,20337 5697,20337 5697,20350 5590,20350"
       id="polyline48"
       style="fill:#000000" />
    <!-- Line -->
    <!--  spline  -->
    <path
       style="fill:#000000;stroke-width:0.08005062"
       d="m 231.18555,67.353516 v 0.08008 0.240234 0.720703 1.201172 1.759766 2.162109 2.400391 2.482422 2.162109 1.759766 1.201172 0.720703 0.240234 0.08008 h 0.0801 0.64063 1.12109 1.20118 0.64062 0.0801 0.0801 0.16015 0.40039 0.47852 l 0.56055,-0.08008 0.56054,-0.08008 h 0.16016 0.0801 l 0.24023,-0.08008 0.48047,-0.08008 0.48047,-0.160157 h 0.16016 l 0.0801,-0.08008 0.24024,-0.08008 0.40039,-0.160156 0.48047,-0.240234 0.32031,-0.160157 0.24023,-0.160156 0.16016,-0.08008 0.0801,-0.08008 0.24023,-0.160157 0.32032,-0.320312 0.24023,-0.160156 0.0781,-0.08008 0.16015,-0.160157 0.16016,-0.160156 0.24023,-0.240234 0.32031,-0.400391 0.24024,-0.398437 0.0801,-0.160157 0.0801,-0.08008 0.0801,-0.160156 0.16016,-0.400391 0.16016,-0.40039 0.0801,-0.160157 0.0801,-0.08008 v -0.160156 l 0.16016,-0.480469 0.0801,-0.560547 0.0801,-0.40039 0.0801,-0.320313 v -0.160156 -0.08008 -0.08008 -0.400391 l 0.0801,-0.640625 v -0.40039 -0.08008 -0.08008 -0.158203 -0.320312 -0.480469 l -0.0801,-0.560547 -0.0801,-0.480469 V 73.4375 73.357422 l -0.0801,-0.160156 -0.0801,-0.480469 -0.16016,-0.400391 V 72.15625 l -0.0801,-0.08008 -0.0801,-0.160156 -0.16016,-0.400391 -0.24024,-0.400391 -0.16015,-0.320312 -0.16016,-0.240234 -0.0801,-0.160157 -0.0801,-0.08008 -0.16016,-0.160156 -0.32031,-0.398438 -0.16016,-0.160156 -0.0801,-0.08008 -0.1582,-0.160156 -0.24023,-0.160157 -0.24024,-0.240234 -0.40039,-0.240234 -0.40039,-0.240235 -0.0801,-0.08008 -0.0801,-0.08008 -0.16015,-0.08008 -0.40039,-0.160156 -0.40039,-0.160157 -0.24024,-0.08008 h -0.0801 l -0.16015,-0.08008 -0.48047,-0.08008 -0.56055,-0.08008 -0.40039,-0.08008 -0.32031,-0.08008 h -0.16016 -0.0801 -0.0801 -0.48047 l -0.63867,-0.08008 h -0.48047 -0.0801 -0.0801 -0.64062 -1.1211 -1.20117 -0.64063 z m 1.20117,1.041015 h 0.16016 0.64062 1.04102 0.64062 0.16016 0.0801 0.40039 0.63867 l 0.7207,0.08008 0.96094,0.160157 0.80078,0.240234 0.32031,0.08008 h 0.16016 l 0.32031,0.160156 0.64063,0.400391 0.64062,0.400391 0.24023,0.238281 0.0801,0.08008 0.16016,0.240234 0.47852,0.560547 0.40039,0.640625 0.24023,0.560547 0.16016,0.480469 0.0801,0.240234 v 0.08008 0.160157 l 0.0801,0.640625 0.16016,1.121093 0.0801,0.640625 v 0.158203 0.08008 0.40039 l -0.0801,0.640625 -0.0801,0.720703 -0.16016,0.960938 -0.24023,0.800781 -0.0801,0.320313 v 0.08008 l -0.16015,0.320312 -0.40039,0.640625 -0.47852,0.638672 -0.16016,0.240234 -0.0801,0.08008 -0.24023,0.160156 -0.64062,0.480469 -0.72071,0.40039 -0.64062,0.320313 -0.48047,0.160156 -0.32031,0.08008 h -0.0801 -0.16016 l -0.7207,0.08008 -1.03906,0.160157 -0.72071,0.08008 h -0.16015 -0.16016 -0.64062 -1.04102 -0.64062 -0.16016 V 83.523438 83.123047 82.162109 80.642578 78.480469 75.998047 73.517578 71.355469 69.835938 68.875 68.474609 Z"
       id="polyline50"
       transform="matrix(12.492094,0,0,12.492094,2858,19495.615)"
       inkscape:connector-curvature="0" />
    <!-- Line -->
    <!--  spline  -->
    <!-- Line -->
    <!--  polyline  -->
    <polyline
       points=" 5936,20337 6076,20337 6076,20350 5954,20539 5954,20540 6076,20540 6076,20552  5936,20552 5936,20540 6058,20350 5936,20350 5936,20337"
       id="polyline54"
       style="fill:#000000" />
    <!-- Line -->
    <!--  polyline  -->
    <polyline
       points=" 6135,20552 6135,20337 6151,20337 6151,20552 6135,20552"
       id="polyline56"
       style="fill:#000000" />
    <!-- Line -->
    <!--  spline  -->
    <polyline
       points=" 6306,20347 6305,20347 6301,20347 6295,20348 6291,20348 6290,20348 6288,20348  6284,20349 6280,20350 6275,20351 6270,20352 6269,20353 6268,20353 6266,20354  6262,20356 6258,20358 6256,20359 6256,20360 6254,20361 6250,20364 6246,20367  6243,20370 6241,20372 6239,20373 6239,20374 6237,20376 6233,20381 6231,20383  6231,20384 6230,20386 6228,20388 6226,20392 6224,20397 6222,20402 6221,20404  6221,20405 6220,20407 6219,20412 6218,20417 6217,20419 6217,20420 6217,20422  6216,20427 6215,20433 6215,20438 6215,20442 6215,20445 6215,20446 6215,20450  6216,20457 6216,20461 6216,20462 6216,20464 6217,20467 6218,20472 6219,20477  6220,20482 6221,20484 6221,20485 6222,20487 6224,20492 6226,20496 6227,20498  6228,20500 6231,20504 6234,20508 6236,20512 6239,20514 6240,20516 6241,20516  6243,20519 6248,20522 6250,20525 6251,20525 6253,20526 6255,20528 6259,20530  6263,20533 6267,20535 6269,20536 6270,20536 6272,20536 6276,20538 6281,20539  6282,20540 6283,20540 6285,20541 6290,20542 6296,20543 6300,20543 6303,20543  6306,20543 6307,20543 6310,20543 6315,20542 6318,20542 6319,20542 6321,20542  6323,20542 6327,20541 6331,20540 6335,20539 6337,20538 6339,20537 6343,20536  6347,20534 6348,20534 6349,20534 6350,20533 6354,20531 6358,20529 6361,20527  6363,20526 6365,20525 6365,20526 6367,20528 6369,20533 6371,20535 6371,20536  6370,20536 6367,20538 6363,20541 6360,20543 6359,20543 6357,20544 6355,20545  6351,20546 6347,20548 6343,20549 6341,20550 6340,20550 6338,20551 6334,20552  6329,20553 6328,20554 6327,20554 6325,20554 6320,20555 6315,20555 6311,20555  6307,20555 6305,20555 6304,20555 6299,20555 6293,20554 6288,20554 6287,20554  6284,20554 6281,20553 6276,20552 6270,20550 6265,20548 6263,20547 6262,20547  6260,20546 6255,20544 6250,20542 6248,20541 6247,20540 6245,20539 6241,20536  6236,20532 6233,20529 6231,20527 6229,20525 6228,20524 6226,20521 6221,20516  6219,20513 6218,20512 6217,20510 6215,20507 6213,20503 6210,20498 6208,20493  6207,20491 6206,20490 6206,20488 6204,20482 6203,20476 6202,20474 6202,20473  6202,20470 6201,20464 6200,20457 6200,20452 6200,20448 6200,20445 6200,20444  6200,20439 6201,20431 6201,20426 6201,20425 6201,20422 6202,20418 6203,20413  6204,20407 6206,20401 6206,20399 6207,20398 6208,20396 6210,20391 6212,20386  6213,20384 6214,20383 6215,20381 6218,20376 6221,20371 6224,20368 6226,20366  6228,20364 6229,20363 6232,20361 6236,20356 6239,20354 6240,20353 6242,20352  6245,20350 6249,20348 6254,20345 6259,20343 6261,20342 6262,20342 6264,20341  6270,20339 6276,20337 6278,20337 6279,20336 6281,20336 6287,20335 6293,20334  6298,20334 6302,20334 6305,20334 6306,20334 6310,20334 6315,20335 6319,20335  6320,20335 6322,20335 6325,20335 6329,20336 6334,20337 6338,20338 6340,20339  6341,20339 6343,20340 6347,20341 6351,20343 6353,20343 6355,20344 6359,20346  6363,20348 6367,20350 6369,20352 6371,20353 6371,20354 6369,20356 6367,20361  6365,20363 6365,20364 6364,20364 6362,20362 6357,20360 6355,20358 6354,20358  6352,20357 6350,20356 6347,20355 6343,20353 6339,20352 6337,20351 6335,20350  6331,20349 6327,20348 6325,20348 6323,20347 6319,20347 6314,20347 6311,20347  6308,20347 6306,20347"
       id="polyline58"
       style="fill:#000000" />
    <!-- Line -->
    <!--  polyline  -->
    <polyline
       points=" 6404,20337 6559,20337 6559,20350 6489,20350 6489,20552 6474,20552 6474,20350  6404,20350 6404,20337"
       id="polyline60"
       style="fill:#000000" />
    <!-- Line -->
    <!--  polyline  -->
    <polyline
       points=" 6607,20337 6655,20537 6656,20537 6707,20337 6727,20337 6778,20537 6827,20337  6842,20337 6787,20552 6768,20552 6717,20352 6716,20352 6666,20552 6646,20552  6592,20337 6607,20337"
       id="polyline62"
       style="fill:#000000" />
    <!-- Line -->
    <!--  spline  -->
    <path
       style="fill:#000000;stroke-width:0.08005062"
       d="m 327.9668,67.113281 -0.56055,0.08008 -0.47852,0.08008 h -0.16015 l -0.0801,0.08008 h -0.16016 l -0.40039,0.160156 -0.40039,0.160156 -0.16015,0.08008 h -0.0801 l -0.16016,0.08008 -0.40039,0.160157 -0.40039,0.240234 -0.32031,0.160156 -0.24024,0.160157 -0.16015,0.08008 -0.0801,0.08008 -0.24023,0.160156 -0.32032,0.400391 -0.24023,0.160156 -0.0801,0.08008 -0.16016,0.160156 -0.16015,0.160157 -0.24024,0.318359 -0.24023,0.400391 -0.24024,0.40039 -0.0801,0.160156 -0.0801,0.08008 -0.0801,0.160157 -0.16016,0.40039 -0.1582,0.400391 -0.0801,0.160156 -0.0801,0.08008 v 0.240235 l -0.16015,0.40039 -0.0801,0.480469 -0.0801,0.400391 -0.0801,0.240234 v 0.240235 0.08008 l -0.0801,0.40039 v 0.640625 l -0.0801,0.398438 v 0.08008 0.08008 0.160156 l 0.0801,0.320313 v 0.40039 l 0.0801,0.560547 L 320.76367,78 v 0.160156 0.08008 l 0.0801,0.160157 0.0801,0.480468 0.16015,0.400391 v 0.240234 l 0.0801,0.08008 0.0801,0.160157 0.1582,0.40039 0.24024,0.480469 0.16015,0.320313 0.16016,0.240234 0.0801,0.158203 0.0801,0.08008 0.16015,0.240235 0.32032,0.40039 0.16015,0.240235 0.0801,0.08008 0.16016,0.160156 0.16015,0.160156 0.24024,0.240235 0.40039,0.320312 0.32031,0.240235 0.16016,0.08008 0.0801,0.08008 0.16016,0.08008 0.40039,0.160156 0.40039,0.160156 0.16016,0.08008 h 0.0801 l 0.16015,0.08008 0.40039,0.160156 0.48047,0.160156 0.32031,0.08008 0.31836,0.08008 h 0.16016 0.0801 0.40039 l 0.56055,0.08008 h 0.40039 0.0801 0.24024 0.32031 0.40039 l 0.48047,-0.08008 0.48047,-0.08008 h 0.16016 l 0.0801,-0.08008 H 331.25 l 0.40039,-0.160156 0.40039,-0.160156 0.16016,-0.08008 h 0.0801 l 0.16015,-0.08008 0.39844,-0.160156 0.40039,-0.240234 0.32031,-0.160156 0.24024,-0.160157 0.16015,-0.08008 0.0801,-0.08008 0.24024,-0.160156 0.32031,-0.400391 0.24023,-0.160156 0.0801,-0.08008 0.16016,-0.160156 0.16015,-0.160157 0.24024,-0.320312 0.32031,-0.400391 0.24023,-0.398437 0.0801,-0.160157 0.0801,-0.08008 0.0801,-0.160156 0.16015,-0.400391 0.16016,-0.40039 0.0801,-0.160157 v -0.08008 -0.240234 l 0.16016,-0.400391 0.16015,-0.480468 L 337.09375,78 v -0.240234 l 0.0801,-0.240235 v -0.08008 -0.400391 l 0.0801,-0.560546 v -0.400391 -0.08008 -0.08008 -0.160157 -0.398437 -0.400391 l -0.0801,-0.560546 -0.0801,-0.480469 -0.0801,-0.160157 v -0.08008 l -0.0801,-0.160156 -0.0801,-0.480469 -0.16016,-0.40039 v -0.240235 -0.08008 l -0.0801,-0.160156 -0.16016,-0.400391 -0.24023,-0.480468 -0.16016,-0.320313 -0.16015,-0.240234 -0.0801,-0.160156 -0.0801,-0.08008 -0.16015,-0.240234 -0.40039,-0.398437 -0.16016,-0.240235 -0.0801,-0.08008 -0.16016,-0.160156 -0.16015,-0.160157 -0.24024,-0.240234 -0.40039,-0.320312 -0.32031,-0.240235 -0.16016,-0.08008 -0.0801,-0.08008 -0.16016,-0.08008 -0.40039,-0.160156 -0.39844,-0.160157 -0.16015,-0.08008 h -0.0801 l -0.16016,-0.08008 -0.40039,-0.160156 -0.48047,-0.160156 -0.32031,-0.08008 -0.32031,-0.08008 h -0.16016 -0.0801 -0.40039 l -0.48047,-0.08008 h -0.40039 -0.0801 -0.0801 -0.16016 -0.32031 z m 0.56054,1.041016 h 0.32032 0.0801 0.16016 0.32031 0.32032 l 0.40039,0.08008 0.40039,0.08008 h 0.16015 0.0801 l 0.0801,0.08008 0.40039,0.08008 0.32031,0.08008 0.16016,0.08008 h 0.0801 l 0.16015,0.08008 0.32032,0.160156 0.32031,0.240234 0.31836,0.160157 0.16015,0.160156 0.16016,0.08008 h 0.0801 l 0.16015,0.240234 0.32032,0.238282 0.16015,0.240234 h 0.0801 l 0.0801,0.160156 0.24023,0.160157 0.16016,0.320312 0.24023,0.320312 0.24024,0.320313 0.0801,0.160156 v 0.08008 l 0.0801,0.160157 0.16015,0.320312 0.16016,0.400391 0.0801,0.08008 v 0.08008 l 0.0801,0.160156 0.0801,0.400391 0.0801,0.480469 0.0801,0.320312 0.0801,0.240235 v 0.240234 0.08008 0.320312 l 0.0801,0.560547 v 0.31836 0.08008 0.240234 0.240235 0.40039 l -0.0801,0.480469 -0.0801,0.400391 V 77.919922 78 l -0.0801,0.160156 -0.0801,0.400391 -0.0801,0.400391 -0.0801,0.160156 v 0.08008 l -0.0801,0.08008 -0.16016,0.400391 -0.16015,0.40039 -0.16016,0.240235 -0.16016,0.240234 -0.0801,0.160156 v 0.08008 l -0.24023,0.240235 -0.24023,0.318359 -0.24024,0.240234 v 0.08008 l -0.0801,0.08008 -0.16015,0.160156 -0.24024,0.240234 -0.32031,0.240235 -0.32031,0.240234 -0.0801,0.08008 -0.0801,0.08008 -0.1582,0.08008 -0.32031,0.160157 -0.32032,0.160156 -0.16015,0.08008 h -0.0801 -0.16016 l -0.32031,0.160156 -0.40039,0.160157 -0.32031,0.08008 h -0.24024 l -0.16015,0.08008 h -0.0801 -0.32031 l -0.4004,0.08008 h -0.32031 -0.0801 -0.24023 -0.24023 -0.32032 l -0.48047,-0.08008 -0.40039,-0.08008 -0.16015,-0.08008 h -0.0801 l -0.0781,-0.08008 -0.40039,-0.08008 -0.32031,-0.160156 h -0.16015 -0.0801 l -0.16016,-0.08008 -0.32031,-0.160156 -0.32031,-0.240235 -0.32032,-0.160156 -0.16015,-0.160156 -0.16016,-0.08008 h -0.0801 l -0.16015,-0.240235 -0.32032,-0.240234 -0.16015,-0.240234 h -0.0801 l -0.0801,-0.160157 -0.24023,-0.160156 -0.16016,-0.318359 -0.24023,-0.320313 -0.24024,-0.320312 -0.0801,-0.160156 v -0.08008 l -0.0801,-0.160156 -0.16016,-0.320312 -0.16016,-0.400391 -0.0801,-0.08008 v -0.08008 l -0.0801,-0.160156 -0.0801,-0.400391 -0.0801,-0.400391 -0.0801,-0.320312 -0.0801,-0.320313 v -0.160156 -0.08008 -0.320313 l -0.0801,-0.560546 v -0.320313 -0.08008 -0.240235 -0.238281 -0.40039 l 0.0801,-0.480469 0.0801,-0.480469 v -0.160156 -0.08008 l 0.0801,-0.160157 0.0801,-0.40039 0.0801,-0.400391 0.0801,-0.160156 v -0.08008 l 0.0801,-0.08008 0.16016,-0.400391 0.16016,-0.40039 0.16015,-0.240235 0.16016,-0.240234 0.0801,-0.160157 v -0.08008 l 0.24023,-0.240234 0.24024,-0.320312 0.24023,-0.240235 v -0.08008 l 0.0801,-0.08008 0.16015,-0.160156 0.24024,-0.238282 0.32031,-0.240234 0.32031,-0.240234 0.0801,-0.08008 0.0801,-0.08008 0.16016,-0.08008 0.32031,-0.160156 0.32031,-0.160156 0.16016,-0.08008 h 0.0801 l 0.16015,-0.08008 0.32031,-0.08008 0.40039,-0.08008 0.31836,-0.08008 0.24024,-0.08008 h 0.16015 0.0801 0.32032 z"
       id="polyline64"
       transform="matrix(12.492094,0,0,12.492094,2858,19495.615)"
       inkscape:connector-curvature="0" />
    <!-- Line -->
    <!--  spline  -->
    <!-- Line -->
    <!--  polyline  -->
    <polyline
       points=" 5101,20691 5256,20691 5256,20704 5186,20704 5186,20906 5171,20906 5171,20704  5101,20704 5101,20691"
       id="polyline68"
       style="fill:#000000" />
    <!-- Line -->
    <!--  polyline  -->
    <polyline
       points=" 5315,20704 5315,20783 5417,20783 5417,20796 5315,20796 5315,20894 5423,20894  5423,20906 5301,20906 5301,20691 5423,20691 5423,20704 5315,20704"
       id="polyline70"
       style="fill:#000000" />
    <!-- Line -->
    <!--  spline  -->
    <polyline
       points=" 5562,20701 5561,20701 5557,20701 5551,20702 5547,20702 5546,20702 5544,20702  5540,20703 5536,20704 5531,20705 5526,20706 5525,20707 5524,20707 5522,20708  5518,20710 5514,20712 5512,20713 5512,20714 5510,20715 5506,20718 5502,20721  5499,20724 5497,20726 5495,20727 5495,20728 5492,20731 5489,20735 5486,20738  5486,20739 5485,20741 5483,20744 5481,20747 5479,20752 5477,20757 5476,20758  5476,20759 5475,20761 5474,20766 5473,20771 5472,20773 5472,20774 5472,20776  5471,20782 5470,20788 5470,20793 5470,20796 5470,20799 5470,20800 5470,20804  5471,20811 5471,20815 5471,20816 5471,20819 5472,20822 5473,20826 5474,20832  5475,20837 5476,20839 5476,20840 5477,20841 5479,20846 5481,20850 5482,20852  5482,20853 5483,20855 5486,20859 5489,20863 5492,20866 5494,20868 5496,20870  5497,20871 5499,20873 5503,20877 5505,20879 5506,20880 5508,20881 5510,20883  5514,20885 5518,20887 5522,20889 5524,20890 5525,20890 5526,20890 5531,20892  5536,20893 5538,20894 5539,20894 5541,20895 5546,20896 5552,20897 5556,20897  5560,20897 5562,20897 5563,20897 5566,20897 5570,20896 5573,20896 5574,20896  5576,20896 5579,20896 5583,20895 5587,20894 5591,20893 5592,20892 5593,20892  5594,20891 5598,20890 5602,20888 5604,20888 5606,20887 5610,20885 5614,20883  5617,20881 5619,20880 5621,20879 5621,20880 5623,20883 5625,20887 5627,20890  5627,20891 5626,20891 5623,20893 5619,20895 5616,20897 5615,20897 5613,20898  5611,20900 5608,20901 5603,20903 5599,20904 5597,20905 5596,20905 5594,20905  5589,20906 5584,20907 5582,20908 5580,20908 5575,20909 5570,20909 5566,20909  5563,20909 5561,20909 5560,20909 5555,20909 5548,20908 5543,20908 5542,20908  5540,20908 5536,20907 5532,20906 5526,20905 5521,20903 5518,20903 5517,20902  5515,20901 5510,20899 5505,20896 5503,20895 5502,20895 5500,20893 5496,20890  5491,20886 5488,20883 5486,20881 5484,20879 5483,20878 5481,20875 5477,20870  5475,20867 5474,20866 5473,20864 5471,20861 5469,20857 5466,20852 5464,20847  5463,20845 5462,20844 5462,20842 5460,20836 5459,20830 5458,20828 5458,20827  5458,20824 5457,20818 5456,20811 5456,20806 5455,20802 5455,20799 5455,20798  5456,20793 5456,20785 5457,20780 5457,20779 5457,20776 5458,20772 5459,20767  5460,20761 5462,20755 5462,20753 5463,20752 5464,20750 5466,20745 5468,20740  5469,20738 5470,20737 5471,20736 5474,20731 5477,20726 5480,20723 5482,20720  5484,20718 5485,20717 5488,20715 5492,20710 5495,20708 5496,20707 5498,20706  5501,20704 5505,20702 5510,20699 5515,20697 5517,20696 5518,20696 5520,20695  5525,20693 5530,20691 5533,20691 5534,20690 5536,20690 5542,20689 5549,20688  5554,20688 5558,20688 5560,20688 5561,20688 5562,20688 5565,20688 5571,20689  5574,20689 5575,20689 5577,20689 5580,20689 5584,20690 5589,20691 5594,20692  5596,20693 5597,20693 5599,20694 5603,20695 5607,20697 5609,20697 5611,20698  5615,20700 5619,20702 5623,20704 5625,20706 5627,20707 5627,20708 5625,20710  5623,20715 5621,20717 5621,20718 5620,20718 5618,20716 5613,20714 5611,20712  5610,20712 5608,20711 5606,20710 5603,20709 5599,20707 5595,20706 5593,20705  5591,20705 5587,20704 5583,20703 5581,20702 5580,20702 5578,20702 5574,20701  5570,20701 5566,20701 5564,20701 5562,20701"
       id="polyline72"
       style="fill:#000000" />
    <!-- Line -->
    <!--  polyline  -->
    <polyline
       points=" 5687,20691 5687,20783 5811,20783 5811,20691 5826,20691 5826,20906 5811,20906  5811,20796 5687,20796 5687,20906 5673,20906 5673,20691 5687,20691"
       id="polyline74"
       style="fill:#000000" />
    <!-- Line -->
    <!--  polyline  -->
    <polyline
       points=" 5878,20906 5878,20691 5895,20691 6018,20884 6019,20884 6019,20691 6034,20691  6034,20906 6016,20906 5893,20713 5892,20713 5892,20906 5878,20906"
       id="polyline76"
       style="fill:#000000" />
    <!-- Line -->
    <!--  polyline  -->
    <polyline
       points=" 6096,20906 6096,20691 6111,20691 6111,20906 6096,20906"
       id="polyline78"
       style="fill:#000000" />
    <!-- Line -->
    <!--  spline  -->
    <polyline
       points=" 6266,20701 6265,20701 6261,20701 6255,20702 6251,20702 6250,20702 6248,20702  6245,20703 6241,20704 6236,20705 6231,20706 6229,20707 6228,20707 6226,20708  6222,20710 6218,20712 6216,20713 6215,20714 6214,20715 6210,20718 6206,20721  6203,20724 6201,20726 6200,20727 6200,20728 6197,20731 6194,20735 6191,20738  6191,20739 6190,20741 6188,20744 6186,20747 6184,20752 6182,20757 6181,20758  6181,20759 6180,20761 6179,20766 6178,20771 6177,20773 6177,20774 6177,20776  6176,20782 6175,20788 6175,20793 6175,20796 6175,20799 6175,20800 6175,20804  6176,20811 6176,20815 6176,20816 6176,20819 6177,20822 6178,20826 6179,20832  6180,20837 6181,20839 6181,20840 6182,20841 6184,20846 6186,20850 6187,20852  6187,20853 6188,20855 6191,20859 6194,20863 6196,20866 6199,20868 6200,20870  6201,20871 6203,20873 6208,20877 6210,20879 6211,20880 6213,20881 6215,20883  6219,20885 6223,20887 6227,20889 6229,20890 6230,20890 6231,20890 6236,20892  6241,20893 6243,20894 6244,20894 6246,20895 6251,20896 6256,20897 6261,20897  6264,20897 6266,20897 6267,20897 6270,20897 6275,20896 6278,20896 6279,20896  6281,20896 6283,20896 6287,20895 6291,20894 6295,20893 6297,20892 6299,20891  6303,20890 6307,20888 6309,20888 6311,20887 6315,20885 6319,20883 6322,20881  6324,20880 6326,20879 6326,20880 6328,20883 6329,20887 6331,20890 6331,20891  6330,20891 6328,20893 6323,20895 6321,20897 6320,20897 6318,20898 6315,20900  6312,20901 6307,20903 6303,20904 6301,20905 6300,20905 6298,20905 6294,20906  6289,20907 6287,20908 6285,20908 6280,20909 6275,20909 6271,20909 6268,20909  6266,20909 6265,20909 6260,20909 6253,20908 6248,20908 6247,20908 6244,20908  6241,20907 6236,20906 6230,20905 6225,20903 6223,20903 6222,20902 6220,20901  6215,20899 6210,20896 6208,20895 6207,20895 6205,20893 6201,20890 6196,20886  6193,20883 6191,20881 6189,20879 6188,20878 6186,20875 6182,20870 6180,20867  6179,20866 6178,20864 6176,20861 6174,20857 6171,20852 6169,20847 6168,20845  6168,20844 6167,20842 6165,20836 6163,20830 6163,20828 6162,20827 6162,20824  6161,20818 6160,20811 6160,20806 6160,20802 6160,20799 6160,20798 6160,20793  6161,20785 6161,20780 6161,20779 6162,20776 6162,20772 6163,20767 6165,20761  6167,20755 6167,20753 6167,20752 6168,20750 6170,20745 6172,20740 6173,20738  6174,20737 6175,20736 6178,20731 6182,20726 6185,20723 6187,20720 6189,20718  6190,20717 6193,20715 6197,20710 6200,20708 6201,20707 6203,20706 6206,20704  6210,20702 6215,20699 6220,20697 6222,20696 6223,20696 6225,20695 6230,20693  6235,20691 6238,20691 6239,20690 6241,20690 6247,20689 6254,20688 6259,20688  6263,20688 6265,20688 6266,20688 6267,20688 6270,20688 6276,20689 6279,20689  6280,20689 6282,20689 6285,20689 6289,20690 6294,20691 6298,20692 6300,20693  6301,20693 6303,20694 6307,20695 6311,20697 6313,20697 6314,20697 6316,20698  6320,20700 6324,20702 6327,20704 6329,20706 6331,20707 6331,20708 6329,20710  6328,20715 6326,20717 6326,20718 6325,20718 6323,20716 6318,20714 6316,20712  6315,20712 6313,20711 6311,20710 6308,20709 6304,20707 6300,20706 6298,20705  6296,20705 6292,20704 6288,20703 6286,20702 6285,20702 6283,20702 6279,20701  6274,20701 6271,20701 6268,20701 6266,20701"
       id="polyline80"
       style="fill:#000000" />
    <!-- Line -->
    <!--  polyline  -->
    <polyline
       points=" 6371,20691 6511,20691 6511,20704 6389,20893 6389,20894 6511,20894 6511,20906  6371,20906 6371,20894 6494,20704 6371,20704 6371,20691"
       id="polyline82"
       style="fill:#000000" />
    <!-- Line -->
    <!--  polyline  -->
    <polyline
       points=" 6560,20906 6560,20691 6577,20691 6700,20884 6701,20884 6701,20691 6716,20691  6716,20906 6699,20906 6575,20713 6575,20906 6560,20906"
       id="polyline84"
       style="fill:#000000" />
    <!-- Line -->
    <!--  polyline  -->
    <polyline
       points=" 6782,20704 6782,20783 6883,20783 6883,20796 6782,20796 6782,20894 6889,20894  6889,20906 6767,20906 6767,20691 6889,20691 6889,20704 6782,20704"
       id="polyline86"
       style="fill:#000000" />
  </g>
</svg>
