<?xml version="1.0" encoding="UTF-8" standalone="no"?>
<!-- Created with Inkscape (http://www.inkscape.org/) -->

<svg
   xmlns:dc="http://purl.org/dc/elements/1.1/"
   xmlns:cc="http://creativecommons.org/ns#"
   xmlns:rdf="http://www.w3.org/1999/02/22-rdf-syntax-ns#"
   xmlns:svg="http://www.w3.org/2000/svg"
   xmlns="http://www.w3.org/2000/svg"
   xmlns:sodipodi="http://sodipodi.sourceforge.net/DTD/sodipodi-0.dtd"
   xmlns:inkscape="http://www.inkscape.org/namespaces/inkscape"
   width="40.767002mm"
   height="42.0116mm"
   viewBox="0 0 40.767002 42.0116"
   version="1.1"
   id="svg4560"
   inkscape:version="0.92.0 r15299"
   sodipodi:docname="pk-logo.svg">
  <defs
     id="defs4554" />
  <sodipodi:namedview
     id="base"
     pagecolor="#ffffff"
     bordercolor="#666666"
     borderopacity="1.0"
     inkscape:pageopacity="0.0"
     inkscape:pageshadow="2"
     inkscape:zoom="2.8"
     inkscape:cx="59.585316"
     inkscape:cy="82.955625"
     inkscape:document-units="mm"
     inkscape:current-layer="layer1"
     showgrid="false"
     fit-margin-top="0"
     fit-margin-left="0"
     fit-margin-right="0"
     fit-margin-bottom="0"
     inkscape:window-width="1600"
     inkscape:window-height="837"
     inkscape:window-x="1912"
     inkscape:window-y="138"
     inkscape:window-maximized="1" />
  <metadata
     id="metadata4557">
    <rdf:RDF>
      <cc:Work
         rdf:about="">
        <dc:format>image/svg+xml</dc:format>
        <dc:type
           rdf:resource="http://purl.org/dc/dcmitype/StillImage" />
        <dc:title></dc:title>
      </cc:Work>
    </rdf:RDF>
  </metadata>
  <g
     inkscape:label="Layer 1"
     inkscape:groupmode="layer"
     id="layer1"
     transform="translate(-96.789119,-176.96444)">
    <path
       d="m 101.99612,217.29964 h -3.530601 v -12.64885 h 3.530601 z m 0,-28.0162 c -1.4224,-1.6256 -3.149601,-2.7686 -5.207001,-3.4036 v 33.0962 h 5.207001 v -1.1176 h -4.089401 v -13.7668 h 4.089401 v -1.09185 h -4.089401 v -15.494 c 1.3208,0.68545 2.438401,1.54905 3.403601,2.69205 0.254,0.3048 0.4826,0.5842 0.6858,0.889 z m 0,-1.52435 c -1.397,-1.32045 -3.175001,-2.3107 -5.207001,-3.12385 v -7.6708 h 5.207001 z m 5.715,31.21695 h -5.715 v -1.1176 h 5.715 z m 0,-14.3256 v 1.1938 c -0.6858,-0.22825 -1.4478,-0.3302 -2.2606,-0.3302 v 6.858 c 0.8128,0 1.6002,-0.15276 2.2606,-0.4572 v 2.1336 h -2.2606 v 3.2512 h -3.4544 v -12.6492 z m 0,-6.32425 c -0.2794,1.1176 -0.5334,2.3107 -0.7366,3.556 -0.8636,-5.43595 -2.4384,-9.75395 -4.9784,-12.59875 v 1.8034 c 1.4224,1.9812 2.286,4.2418 2.9464,6.604 0.4826,1.7272 0.8382,3.5306 1.143,5.30895 h -4.0894 v 1.09185 h 5.715 z m 0,-3.75955 c -0.254,0.66005 -0.4826,1.397 -0.7112,2.08315 -0.4064,-1.27035 -0.8382,-2.5407 -1.397,-3.70875 -0.8382,-1.82915 -1.9304,-3.5306 -3.3274,-4.9276 -0.1016,-0.0765 -0.1778,-0.1778 -0.2794,-0.25435 v -10.79465 h 2.794 v 4.82565 h 2.921 z m 3.81,24.4094 h -3.81 v -1.1176 h 3.81 z m 0,-14.1224 v 8.9662 c -0.8636,0.1524 -1.7526,0.2286 -2.5908,0.2286 h -1.2192 v -2.1336 c 1.2954,-0.5588 2.1844,-1.54976 2.2606,-2.667 0.1524,-1.905 -0.8382,-2.9464 -2.2606,-3.4036 v -1.1938 h 1.2192 c 0.9398,0 1.8034,0.0508 2.5908,0.2032 m 0,-14.7574 c -1.7018,2.08315 -2.9464,4.8514 -3.81,8.22995 v 5.76545 h 3.81 v -1.09185 h -3.6068 l 0.2794,-1.70215 c 0.3048,-1.5494 0.6604,-3.1242 1.1684,-4.6228 h 2.159 v -1.1176 h -1.778 c 0.4826,-1.2446 1.0414,-2.4384 1.778,-3.556 z m 0,-1.6002 c -0.4318,0.4318 -0.8382,0.86395 -1.1938,1.3462 -1.0668,1.3462 -1.905,2.921 -2.5654,4.57235 0,0.0504 -0.0254,0.10125 -0.0508,0.15205 v -12.77655 h 3.81 z m 3.9624,30.48 h -3.9624 v -1.1176 h 3.9624 z m 0,-12.2682 v 5.207 c -0.9398,0.99095 -2.413,1.6002 -3.9624,1.905 v -8.9662 c 1.8034,0.3048 3.14925,0.9652 3.9624,1.8542 m 0,-2.6162 h -3.9624 v -1.0922 h 3.9624 z m 0,-17.1958 c -1.5494,0.7366 -2.8448,1.8288 -3.9624,3.2004 v 1.905 c 0.1524,-0.2286 0.3048,-0.4572 0.4572,-0.68615 0.4064,-0.50765 0.8128,-1.0153 1.2954,-1.4986 v 0.0258 5.71499 h -1.7526 v 1.1176 h 1.7526 v 2.66665 l 0.5334,0.66075 0.5588,-0.66075 v -2.66664 h 1.1176 v -1.1176 h -1.1176 v -6.68056 c 0.3556,-0.27904 0.7366,-0.53304 1.1176,-0.7366 z m 0,-1.143 c -1.5494,0.7366 -2.8448,1.651 -3.9624,2.7432 v -6.70595 h 1.27 v -4.82565 h 2.6924 z m 0,26.162 v -5.207 c 0.68545,0.7366 1.016,1.651 1.016,2.64195 0,1.04105 -0.381,1.8796 -1.016,2.56505 m 1.6764,7.0612 h -1.6764 v -1.1176 h 1.6764 z m 0,-14.8844 h -1.6764 v -1.0922 h 1.6764 z m 0,-17.83115 v 13.71635 l -0.0254,0.0254 -0.5334,-0.73625 v -2.59115 h -1.1176 v -1.1176 h 1.1176 v -7.9502 c -0.381,0.15205 -0.762,0.32985 -1.1176,0.53305 v -1.24425 c 0.5334,-0.25435 1.0922,-0.4572 1.651,-0.63535 z m 0,-1.1931 c 0,0 0,-0.0257 -0.0254,-0.0257 -0.5588,0.2286 -1.1176,0.4572 -1.651,0.7112 v -8.7884 h 1.6764 z m 1.651,33.90865 h -1.651 v -1.1176 h 1.651 z m 0,-1.6764 h -1.59985 v -12.64885 h 1.59985 z m 0,-13.208 h -1.651 v -1.0922 h 1.651 z m 0,-17.1958 v 1.27 c -0.3556,-0.2032 -0.7366,-0.381 -1.1176,-0.5588 v 7.9502 h 1.1176 v 1.1176 h -1.1176 v 2.59115 l -0.5334,0.71085 v -13.71635 c 0.5842,0.17815 1.143,0.381 1.651,0.63535 m 0,-1.143 c -0.508,-0.254 -1.0668,-0.4826 -1.651,-0.68545 v -8.10295 h 1.651 z m 3.9878,33.2232 h -3.98815 v -1.1176 h 3.98815 z m 0,-1.6764 h -3.98815 v -12.64885 h 3.98815 z m 0,-13.208 h -3.98815 v -1.0922 h 3.98815 z m 0,-13.9954 c -1.1176,-1.3716 -2.4384,-2.4384 -3.9878,-3.2004 v 1.27 c 0.4064,0.2286 0.762,0.45755 1.1176,0.71085 v 6.68055 h -1.1176 v 1.1176 h 1.1176 v 2.6924 l 0.5588,0.635 0.5588,-0.635 v -2.6924 h 1.7526 v -1.1176 h -1.7526 v -5.74075 c 0.6604,0.66075 1.2446,1.39735 1.7526,2.18475 z m 0,-1.5748 c -1.1176,-1.0922 -2.4384,-2.032 -3.9878,-2.7686 v -8.7884 h 2.69275 v 4.82565 h 1.29505 z m 3.7338,30.4546 h -3.7338 v -1.1176 h 3.7338 z m 0,-11.2014 v 6.5532 l -2.59045,-2.9718 v 5.9436 h -1.14335 v -12.6492 h 1.14335 v 6.45124 z m 0,-9.7028 c -0.83856,-3.2512 -2.0828,-5.9436 -3.7338,-7.9756 v 1.905 c 0.7366,1.1176 1.2954,2.3368 1.77764,3.556 h -1.77764 v 1.1176 h 2.159 c 0.0508,0.1524 0.10195,0.3302 0.1524,0.4826 0.58384,1.905 0.9906,3.86045 1.3462,5.84235 h -3.6576 v 1.09185 h 3.7338 z m 0,-3.6322 v -0.025 c -0.66076,-1.6764 -1.524,-3.27695 -2.59045,-4.59811 -0.35595,-0.45649 -0.73695,-0.88864 -1.14335,-1.29504 v -6.73135 h 3.7338 z m 5.7912,24.5364 h -5.7912 v -1.1176 h 5.7912 z m 0,-14.3256 v 4.572 l -1.651,2.159 1.651,1.8796 v 4.0386 h -3.14925 l -2.64195,-2.9718 v -6.5532 l 2.4638,-3.1242 z m 0,-15.367 c -2.54,2.8448 -4.1148,7.1628 -4.9784,12.573 -0.22825,-1.3208 -0.4826,-2.59045 -0.8128,-3.7846 v 6.0198 h 5.7912 v -1.1176 h -4.08905 c 0.53305,-3.07375 1.19309,-6.1468 2.43805,-8.9662 0.4572,-1.01635 0.99024,-2.03165 1.651,-2.9464 z m 0,-1.5748 c -0.10196,0.1016 -0.2286,0.22825 -0.3302,0.3302 -2.3114,2.286 -3.6576,5.334 -4.6736,8.61095 -0.254,-0.7366 -0.4826,-1.47355 -0.7874,-2.21015 v -12.64955 h 2.99755 v -4.82565 h 2.79365 z m 0,21.5138 v -4.572 h 3.55635 z m 0,8.0772 v -4.0386 l 3.55635,4.0386 z m 0,1.6764 h 5.207 v -33.0962 c -2.0574,0.635 -3.7846,1.778 -5.207,3.4036 v 1.778 c 0.1016,-0.1524 0.2286,-0.3048 0.3556,-0.4572 1.0668,-1.34655 2.2098,-2.28635 3.7338,-3.09845 v 15.494 l -4.0894,-0.0257 v 1.1176 h 4.0894 v 13.7668 h -4.0894 z m 5.2324,-34.3662 c -2.03165,0.8128 -3.81,1.8034 -5.2324,3.0988 v -10.7442 h 5.207 z"
       style="fill:#003572;fill-opacity:1;fill-rule:evenodd;stroke:none;stroke-width:0.35277775"
       id="path20"
       inkscape:connector-curvature="0" />
  </g>
</svg>
