<?xml version="1.0" encoding="UTF-8" standalone="no"?>
<!-- Created with Inkscape (http://www.inkscape.org/) -->

<svg
   xmlns:dc="http://purl.org/dc/elements/1.1/"
   xmlns:cc="http://creativecommons.org/ns#"
   xmlns:rdf="http://www.w3.org/1999/02/22-rdf-syntax-ns#"
   xmlns:svg="http://www.w3.org/2000/svg"
   xmlns="http://www.w3.org/2000/svg"
   xmlns:sodipodi="http://sodipodi.sourceforge.net/DTD/sodipodi-0.dtd"
   xmlns:inkscape="http://www.inkscape.org/namespaces/inkscape"
   width="310.4082"
   height="68.024696"
   viewBox="0 0 82.128834 17.998198"
   version="1.1"
   id="svg8852"
   sodipodi:docname="powered-by-redo-with-additional-right-margin.svg"
   inkscape:version="0.92.3 (2405546, 2018-03-11)">
  <defs
     id="defs8846" />
  <sodipodi:namedview
     id="base"
     pagecolor="#ffffff"
     bordercolor="#666666"
     borderopacity="1.0"
     inkscape:pageopacity="0.0"
     inkscape:pageshadow="2"
     inkscape:zoom="2"
     inkscape:cx="68.43326"
     inkscape:cy="-0.609989"
     inkscape:document-units="mm"
     inkscape:current-layer="layer1"
     showgrid="false"
     inkscape:window-width="1315"
     inkscape:window-height="740"
     inkscape:window-x="1651"
     inkscape:window-y="0"
     inkscape:window-maximized="1"
     fit-margin-top="0"
     fit-margin-left="0"
     fit-margin-right="0"
     fit-margin-bottom="0"
     units="px"
     showguides="false" />
  <metadata
     id="metadata8849">
    <rdf:RDF>
      <cc:Work
         rdf:about="">
        <dc:format>image/svg+xml</dc:format>
        <dc:type
           rdf:resource="http://purl.org/dc/dcmitype/StillImage" />
        <dc:title />
      </cc:Work>
    </rdf:RDF>
  </metadata>
  <g
     inkscape:label="Layer 1"
     inkscape:groupmode="layer"
     id="layer1"
     transform="translate(-59.852419,-112.05429)">
    <g
       transform="matrix(1.5080186,0,0,1.5080186,-133.74843,-74.890267)"
       id="layer1-8"
       inkscape:label="Layer 1"
       style="fill:#f9aa00;fill-opacity:1">
      <path
         inkscape:connector-curvature="0"
         id="path16"
         style="fill:#f9aa00;fill-opacity:1;fill-rule:nonzero;stroke:none;stroke-width:0.35277775"
         d="m 155.46299,126.94482 h -1.48731 v -1.48731 h 1.48731 z" />
      <path
         inkscape:connector-curvature="0"
         id="path18"
         style="fill:#f9aa00;fill-opacity:1;fill-rule:nonzero;stroke:none;stroke-width:0.35277775"
         d="m 158.44079,128.43178 h -1.48731 v -1.48696 h 1.48731 z" />
      <path
         inkscape:connector-curvature="0"
         id="path20"
         style="fill:#f9aa00;fill-opacity:1;fill-rule:nonzero;stroke:none;stroke-width:0.35277775"
         d="m 156.94818,125.45433 h -1.48731 v -1.48731 h 1.48731 z" />
      <path
         inkscape:connector-curvature="0"
         id="path22"
         style="fill:#f9aa00;fill-opacity:1;fill-rule:nonzero;stroke:none;stroke-width:0.35277775"
         d="m 159.9348,126.94482 h -1.48696 v -1.48731 h 1.48696 z" />
      <path
         d="m 158.44745,128.43195 v 1.49049 h -1.49013 v -1.49049 h -1.49013 v 1.49049 h -1.49049 v -1.49049 h -1.49048 v 3.72569 c 2.00483,3.4e-4 3.63043,1.62525 3.63043,3.63008 v 0.0744 h 0.1898 l 10e-4,-0.0744 c 0,-2.00483 1.62524,-3.63008 3.62972,-3.63008 v -3.72569 z"
         style="fill:#f9aa00;fill-opacity:1;fill-rule:nonzero;stroke:none;stroke-width:0.35277775"
         id="path34"
         inkscape:connector-curvature="0" />
      <path
         d="m 161.61737,133.78871 v 0.49036 h 0.008 c 0.10619,-0.16722 0.24836,-0.29775 0.42616,-0.39088 0.17815,-0.0928 0.38029,-0.13935 0.60642,-0.13935 v 0.16369 c -0.29774,0 -0.54504,0.0843 -0.74153,0.25294 -0.19685,0.16898 -0.29528,0.37959 -0.29528,0.63218 v 1.06433 h -0.1873 v -2.07327 z"
         style="fill:#f9aa00;fill-opacity:1;fill-rule:nonzero;stroke:none;stroke-width:0.35277775"
         id="path38"
         inkscape:connector-curvature="0" />
      <path
         d="m 163.16826,134.73362 h 1.43157 c -0.005,-0.26846 -0.0674,-0.47378 -0.18556,-0.61595 -0.11818,-0.14217 -0.28505,-0.21343 -0.50024,-0.21343 -0.2286,0 -0.40817,0.0727 -0.53834,0.21731 -0.13018,0.14499 -0.19932,0.3489 -0.20743,0.61207 m -0.004,0.15946 c 0.002,0.26599 0.0762,0.47448 0.22119,0.62618 0.14499,0.15134 0.33831,0.22719 0.57996,0.22719 0.22084,0 0.42968,-0.0557 0.62618,-0.16757 l 0.06,0.14746 c -0.21555,0.11712 -0.44803,0.17568 -0.69779,0.17568 -0.29775,0 -0.53517,-0.0963 -0.71191,-0.28928 -0.17674,-0.19261 -0.26493,-0.45508 -0.26493,-0.7874 0,-0.33478 0.0836,-0.59795 0.25117,-0.78951 0.16722,-0.19121 0.39582,-0.28716 0.6858,-0.28716 0.27623,0 0.49036,0.0921 0.64206,0.27516 0.15134,0.18345 0.22719,0.44415 0.22719,0.78176 v 0.0875 z"
         style="fill:#f9aa00;fill-opacity:1;fill-rule:nonzero;stroke:none;stroke-width:0.35277775"
         id="path42"
         inkscape:connector-curvature="0" />
      <path
         d="m 165.53264,134.82534 c 0,0.24448 0.0497,0.43216 0.14958,0.56233 0.0998,0.13018 0.23178,0.19544 0.39688,0.19544 0.15663,0 0.28575,-0.0653 0.38664,-0.19544 0.1009,-0.13017 0.15134,-0.31115 0.15134,-0.54222 v -0.0399 c 0,-0.2286 -0.0504,-0.40887 -0.15134,-0.54045 -0.10089,-0.13159 -0.23001,-0.1972 -0.38664,-0.1972 -0.17286,0 -0.30692,0.0632 -0.40288,0.18908 -0.0956,0.12665 -0.14358,0.31574 -0.14358,0.56833 m 1.48343,-1.95368 v 2.99049 h -0.37888 l -0.008,-0.29915 h -0.008 c -0.15169,0.22578 -0.36548,0.33902 -0.64205,0.33902 -0.25259,0 -0.45509,-0.0924 -0.60819,-0.27729 -0.15276,-0.1845 -0.22931,-0.4512 -0.22931,-0.79939 0,-0.35348 0.0737,-0.62124 0.22155,-0.80328 0.14746,-0.18203 0.35277,-0.2734 0.61595,-0.2734 0.26564,0 0.47589,0.10654 0.63006,0.31927 h 0.008 v -1.19628 z"
         style="fill:#f9aa00;fill-opacity:1;fill-rule:nonzero;stroke:none;stroke-width:0.35277775"
         id="path46"
         inkscape:connector-curvature="0" />
      <path
         d="m 168.03662,135.38362 c 0.10654,0.13299 0.24977,0.19932 0.43074,0.19932 0.18063,0 0.32421,-0.0663 0.43039,-0.19932 0.10619,-0.133 0.15981,-0.31892 0.15981,-0.55845 0,-0.23883 -0.0536,-0.4251 -0.15981,-0.5581 -0.10618,-0.13264 -0.24976,-0.19932 -0.43039,-0.19932 -0.18097,0 -0.3242,0.0667 -0.43074,0.19932 -0.10653,0.133 -0.15945,0.31927 -0.15945,0.5581 0,0.23953 0.0529,0.42545 0.15945,0.55845 m -0.29316,-1.34373 c 0.18239,-0.19403 0.42334,-0.29105 0.7239,-0.29105 0.30022,0 0.54152,0.097 0.72355,0.29105 0.18204,0.19402 0.2734,0.45578 0.2734,0.78528 0,0.32985 -0.0914,0.59161 -0.2734,0.78563 -0.18203,0.19403 -0.42333,0.29105 -0.72355,0.29105 -0.30056,0 -0.54151,-0.097 -0.7239,-0.29105 -0.18203,-0.19402 -0.27269,-0.45578 -0.27269,-0.78563 0,-0.3295 0.0907,-0.59126 0.27269,-0.78528"
         style="fill:#f9aa00;fill-opacity:1;fill-rule:nonzero;stroke:none;stroke-width:0.35277775"
         id="path50"
         inkscape:connector-curvature="0" />
      <g
         id="text54"
         style="font-variant:normal;font-weight:normal;font-stretch:normal;font-size:4.08509588px;font-family:Lato;-inkscape-font-specification:Lato-Regular;writing-mode:lr-tb;fill:#f9aa00;fill-opacity:1;fill-rule:nonzero;stroke:none;stroke-width:0.35277775"
         aria-label="Powered by">
        <path
           id="path4493"
           style="stroke-width:0.35277775;fill:#f9aa00;fill-opacity:1"
           d="m 130.32374,129.80832 q 0,0.19747 -0.0698,0.36702 -0.0678,0.16755 -0.19149,0.29122 -0.15359,0.15359 -0.36303,0.23138 -0.20944,0.0758 -0.52859,0.0758 h -0.39494 v 1.10704 h -0.39495 v -2.97007 h 0.80585 q 0.26729,0 0.45279,0.0459 0.18551,0.0439 0.32912,0.13963 0.16955,0.11369 0.26131,0.28324 0.0937,0.16955 0.0937,0.42886 z m -0.41091,0.01 q 0,-0.15359 -0.0539,-0.26729 -0.0539,-0.11369 -0.16357,-0.1855 -0.0957,-0.0618 -0.21941,-0.0878 -0.12168,-0.0279 -0.30918,-0.0279 h -0.39095 v 1.18683 h 0.33311 q 0.23936,0 0.38896,-0.0419 0.1496,-0.0439 0.24335,-0.13763 0.0937,-0.0957 0.13165,-0.20147 0.0399,-0.10571 0.0399,-0.23736 z"
           inkscape:connector-curvature="0" />
        <path
           id="path4495"
           style="stroke-width:0.35277775;fill:#f9aa00;fill-opacity:1"
           d="m 132.68465,130.76775 q 0,0.54455 -0.27926,0.85971 -0.27925,0.31516 -0.748,0.31516 -0.47274,0 -0.75199,-0.31516 -0.27726,-0.31516 -0.27726,-0.85971 0,-0.54454 0.27726,-0.8597 0.27925,-0.31715 0.75199,-0.31715 0.46875,0 0.748,0.31715 0.27926,0.31516 0.27926,0.8597 z m -0.38697,0 q 0,-0.43284 -0.16955,-0.64228 -0.16954,-0.21144 -0.47074,-0.21144 -0.30518,0 -0.47473,0.21144 -0.16756,0.20944 -0.16756,0.64228 0,0.41889 0.16955,0.63631 0.16955,0.21542 0.47274,0.21542 0.2992,0 0.46875,-0.21343 0.17154,-0.21542 0.17154,-0.6383 z"
           inkscape:connector-curvature="0" />
        <path
           id="path4497"
           style="stroke-width:0.35277775;fill:#f9aa00;fill-opacity:1"
           d="m 135.85955,129.65273 -0.58045,2.22805 h -0.34707 l -0.57247,-1.71741 -0.56849,1.71741 H 133.446 l -0.58644,-2.22805 h 0.39096 l 0.40891,1.72539 0.55651,-1.72539 h 0.30918 l 0.57047,1.72539 0.38697,-1.72539 z"
           inkscape:connector-curvature="0" />
        <path
           id="path4499"
           style="stroke-width:0.35277775;fill:#f9aa00;fill-opacity:1"
           d="m 138.05124,130.80565 h -1.64162 q 0,0.20545 0.0618,0.35904 0.0618,0.1516 0.16955,0.24934 0.10372,0.0957 0.24535,0.14362 0.14361,0.0479 0.31515,0.0479 0.2274,0 0.45679,-0.0898 0.23138,-0.0918 0.32912,-0.17952 h 0.0199 v 0.40891 q -0.18949,0.0798 -0.38696,0.13364 -0.19748,0.0538 -0.4149,0.0538 -0.55452,0 -0.86569,-0.2992 -0.31116,-0.30119 -0.31116,-0.85372 0,-0.54654 0.2972,-0.86768 0.2992,-0.32114 0.7859,-0.32114 0.4508,0 0.69415,0.26329 0.24535,0.2633 0.24535,0.74801 z m -0.36503,-0.28723 q -0.002,-0.29521 -0.1496,-0.45678 -0.14561,-0.16157 -0.44481,-0.16157 -0.3012,0 -0.48072,0.17753 -0.17753,0.17752 -0.20146,0.44082 z"
           inkscape:connector-curvature="0" />
        <path
           id="path4501"
           style="stroke-width:0.35277775;fill:#f9aa00;fill-opacity:1"
           d="m 139.7171,130.06164 h -0.0199 q -0.0838,-0.02 -0.16356,-0.0279 -0.0778,-0.01 -0.18551,-0.01 -0.17353,0 -0.3351,0.0778 -0.16157,0.0758 -0.31117,0.19748 v 1.58177 h -0.375 v -2.22805 h 0.375 v 0.32912 q 0.2234,-0.17952 0.39295,-0.25332 0.17154,-0.0758 0.34907,-0.0758 0.0977,0 0.14162,0.006 0.0439,0.004 0.13165,0.018 z"
           inkscape:connector-curvature="0" />
        <path
           id="path4503"
           style="stroke-width:0.35277775;fill:#f9aa00;fill-opacity:1"
           d="m 141.83812,130.80565 h -1.64162 q 0,0.20545 0.0618,0.35904 0.0618,0.1516 0.16955,0.24934 0.10372,0.0957 0.24535,0.14362 0.14361,0.0479 0.31516,0.0479 0.22739,0 0.45678,-0.0898 0.23138,-0.0918 0.32912,-0.17952 h 0.0199 v 0.40891 q -0.18949,0.0798 -0.38696,0.13364 -0.19748,0.0538 -0.4149,0.0538 -0.55452,0 -0.86568,-0.2992 -0.31117,-0.30119 -0.31117,-0.85372 0,-0.54654 0.2972,-0.86768 0.2992,-0.32114 0.7859,-0.32114 0.4508,0 0.69415,0.26329 0.24535,0.2633 0.24535,0.74801 z m -0.36503,-0.28723 q -0.002,-0.29521 -0.1496,-0.45678 -0.14561,-0.16157 -0.44481,-0.16157 -0.3012,0 -0.48072,0.17753 -0.17753,0.17752 -0.20146,0.44082 z"
           inkscape:connector-curvature="0" />
        <path
           id="path4505"
           style="stroke-width:0.35277775;fill:#f9aa00;fill-opacity:1"
           d="m 143.92087,131.88078 h -0.375 v -0.23337 q -0.16157,0.13962 -0.3371,0.21742 -0.17553,0.0778 -0.38099,0.0778 -0.39893,0 -0.6343,-0.30718 -0.23338,-0.30718 -0.23338,-0.85173 0,-0.28324 0.0798,-0.50465 0.0818,-0.22141 0.21941,-0.377 0.13564,-0.15159 0.31516,-0.23138 0.18152,-0.0798 0.375,-0.0798 0.17553,0 0.31117,0.0379 0.13564,0.0359 0.28524,0.1137 v -0.96542 h 0.375 z m -0.375,-0.54853 v -1.27859 q -0.1516,-0.0678 -0.27128,-0.0937 -0.11968,-0.0259 -0.2613,-0.0259 -0.31516,0 -0.49069,0.21941 -0.17553,0.21942 -0.17553,0.62234 0,0.39694 0.13563,0.60439 0.13564,0.20545 0.43484,0.20545 0.15958,0 0.32314,-0.0698 0.16356,-0.0718 0.30519,-0.18351 z"
           inkscape:connector-curvature="0" />
        <path
           id="path4507"
           style="stroke-width:0.35277775;fill:#f9aa00;fill-opacity:1"
           d="m 147.14645,130.7498 q 0,0.27926 -0.0798,0.50266 -0.0778,0.2234 -0.21144,0.375 -0.14162,0.15758 -0.31117,0.23737 -0.16954,0.0778 -0.373,0.0778 -0.18949,0 -0.33112,-0.0459 -0.14162,-0.0439 -0.27925,-0.11968 l -0.0239,0.10372 h -0.35106 v -3.10371 h 0.375 v 1.10904 q 0.15758,-0.12966 0.33511,-0.21144 0.17752,-0.0838 0.39893,-0.0838 0.39495,0 0.62234,0.30319 0.22939,0.30319 0.22939,0.85571 z m -0.38697,0.01 q 0,-0.39894 -0.13165,-0.60439 -0.13165,-0.20745 -0.42486,-0.20745 -0.16357,0 -0.33112,0.0718 -0.16755,0.0698 -0.31117,0.18152 v 1.27659 q 0.15957,0.0718 0.27327,0.0997 0.11569,0.0279 0.2613,0.0279 0.31117,0 0.4867,-0.20346 0.17753,-0.20545 0.17753,-0.64228 z"
           inkscape:connector-curvature="0" />
        <path
           id="path4509"
           style="stroke-width:0.35277775;fill:#f9aa00;fill-opacity:1"
           d="m 149.34301,129.65273 -1.30053,3.04986 h -0.40093 l 0.41489,-0.92952 -0.88763,-2.12034 h 0.40691 l 0.68418,1.65159 0.69016,-1.65159 z"
           inkscape:connector-curvature="0" />
      </g>
    </g>
  </g>
</svg>
