<?xml version="1.0" encoding="UTF-8" standalone="no"?>
<!-- Created with Inkscape (http://www.inkscape.org/) -->

<svg
   xmlns:dc="http://purl.org/dc/elements/1.1/"
   xmlns:cc="http://creativecommons.org/ns#"
   xmlns:rdf="http://www.w3.org/1999/02/22-rdf-syntax-ns#"
   xmlns:svg="http://www.w3.org/2000/svg"
   xmlns="http://www.w3.org/2000/svg"
   xmlns:sodipodi="http://sodipodi.sourceforge.net/DTD/sodipodi-0.dtd"
   xmlns:inkscape="http://www.inkscape.org/namespaces/inkscape"
   width="572.20886"
   height="90.708702"
   viewBox="0 0 151.39693 24.000006"
   version="1.1"
   id="svg8852"
   sodipodi:docname="fe-and-ue-logos-without-required-margins-2.svg"
   inkscape:version="0.92.0 r15299">
  <defs
     id="defs8846" />
  <sodipodi:namedview
     id="base"
     pagecolor="#ffffff"
     bordercolor="#666666"
     borderopacity="1.0"
     inkscape:pageopacity="0.0"
     inkscape:pageshadow="2"
     inkscape:zoom="0.99999999"
     inkscape:cx="170.65767"
     inkscape:cy="55.045302"
     inkscape:document-units="mm"
     inkscape:current-layer="layer1"
     showgrid="false"
     inkscape:window-width="1600"
     inkscape:window-height="837"
     inkscape:window-x="1592"
     inkscape:window-y="32"
     inkscape:window-maximized="1"
     fit-margin-top="0"
     fit-margin-left="0"
     fit-margin-right="0"
     fit-margin-bottom="0"
     units="px" />
  <metadata
     id="metadata8849">
    <rdf:RDF>
      <cc:Work
         rdf:about="">
        <dc:format>image/svg+xml</dc:format>
        <dc:type
           rdf:resource="http://purl.org/dc/dcmitype/StillImage" />
        <dc:title></dc:title>
      </cc:Work>
    </rdf:RDF>
  </metadata>
  <g
     inkscape:label="Layer 1"
     inkscape:groupmode="layer"
     id="layer1"
     transform="translate(5.4292397,-43.063341)">
    <g
       id="g1775">
      <g
         transform="matrix(0.26458333,0,0,0.26458333,53.99929,34.813315)"
         id="Layer1000">
        <g
           id="Layer1001">
          <path
             inkscape:connector-curvature="0"
             id="path503"
             style="fill:#004394;fill-rule:evenodd"
             d="M 347.5971,113.3792 H 245.5609 V 45.3545 h 102.0362 z" />
          <path
             inkscape:connector-curvature="0"
             id="path505"
             style="fill:#ffec00;fill-rule:evenodd"
             d="m 294.4046,60.1811 2.1575,-1.5729 2.1512,1.5729 -0.8223,-2.541 2.1892,-1.5709 h -2.6955 l -0.8226,-2.5713 -0.8223,2.5713 h -2.704 l 2.1827,1.5709 z" />
          <path
             inkscape:connector-curvature="0"
             id="path507"
             style="fill:#ffec00;fill-rule:evenodd"
             d="m 283.2605,63.1708 2.1578,-1.5729 2.1512,1.5729 -0.8209,-2.5396 2.188,-1.5723 h -2.6957 l -0.8277,-2.5781 -0.8227,2.5846 -2.6903,-0.0065 2.1829,1.5723 z" />
          <path
             inkscape:connector-curvature="0"
             id="path509"
             style="fill:#ffec00;fill-rule:evenodd"
             d="m 277.2596,64.6564 -0.8226,2.5796 -2.6955,-0.0051 2.1827,1.5729 -0.8158,2.5393 2.1512,-1.5664 2.158,1.5664 -0.8209,-2.5393 2.1897,-1.5729 h -2.6974 z" />
          <path
             inkscape:connector-curvature="0"
             id="path511"
             style="fill:#ffec00;fill-rule:evenodd"
             d="m 274.2758,80.8916 2.1442,1.5795 -0.8159,-2.541 2.1898,-1.571 h -2.6957 l -0.8224,-2.5778 -0.8362,2.5843 -2.6906,-0.0065 2.1829,1.571 -0.8141,2.541 z" />
          <path
             inkscape:connector-curvature="0"
             id="path513"
             style="fill:#ffec00;fill-rule:evenodd"
             d="m 278.0879,89.5183 -0.8292,-2.5711 -0.8209,2.5711 h -2.6972 l 2.1827,1.5794 -0.8158,2.5325 2.1512,-1.5727 2.1578,1.5727 -0.821,-2.5325 2.1898,-1.5794 z" />
          <path
             inkscape:connector-curvature="0"
             id="path515"
             style="fill:#ffec00;fill-rule:evenodd"
             d="m 286.2525,97.6871 -0.8226,-2.571 -0.8292,2.5779 -2.6957,-0.0069 2.1898,1.573 -0.8159,2.5393 2.151,-1.5727 2.1577,1.5727 -0.8209,-2.5393 2.1895,-1.573 z" />
          <path
             inkscape:connector-curvature="0"
             id="path517"
             style="fill:#ffec00;fill-rule:evenodd"
             d="m 297.383,100.6468 -0.8223,-2.5778 -0.8226,2.5778 h -2.7023 l 2.1895,1.5678 -0.8224,2.5441 2.1578,-1.5726 2.1577,1.5726 -0.8291,-2.5441 2.1977,-1.5678 z" />
          <path
             inkscape:connector-curvature="0"
             id="path519"
             style="fill:#ffec00;fill-rule:evenodd"
             d="m 308.5138,97.6871 -0.8291,-2.571 -0.8294,2.5779 -2.6839,-0.0069 2.1779,1.573 -0.8155,2.5393 2.1509,-1.5727 2.1577,1.5727 -0.8223,-2.5393 2.198,-1.573 z" />
          <path
             inkscape:connector-curvature="0"
             id="path521"
             style="fill:#ffec00;fill-rule:evenodd"
             d="m 316.6847,89.5183 -0.8294,-2.5711 -0.8209,2.5711 h -2.6921 l 2.1846,1.5794 -0.8291,2.5325 2.1575,-1.5727 2.158,1.5727 -0.8226,-2.5325 2.1914,-1.5794 z" />
          <path
             inkscape:connector-curvature="0"
             id="path523"
             style="fill:#ffec00;fill-rule:evenodd"
             d="m 322.3344,78.3274 h -2.6972 l -0.816,-2.5776 -0.8343,2.5776 h -2.6872 l 2.1863,1.5729 -0.8294,2.5393 2.1646,-1.573 2.1509,1.573 -0.8206,-2.5393 z" />
          <path
             inkscape:connector-curvature="0"
             id="path525"
             style="fill:#ffec00;fill-rule:evenodd"
             d="m 313.6992,71.3045 2.1578,-1.5641 2.1577,1.5641 -0.8226,-2.539 2.1897,-1.5644 h -2.6957 l -0.8291,-2.5829 -0.8209,2.5894 -2.6924,-0.0065 2.1844,1.5644 z" />
          <path
             inkscape:connector-curvature="0"
             id="path527"
             style="fill:#ffec00;fill-rule:evenodd"
             d="m 307.7167,56.4816 -0.8141,2.5844 -2.704,-0.0069 2.1898,1.573 -0.8161,2.5444 2.158,-1.5798 2.1444,1.5798 -0.8158,-2.5444 2.183,-1.573 h -2.6958 z" />
        </g>
        <g
           id="Layer1002">
          <g
             id="Layer1003">
            <path
               inkscape:connector-curvature="0"
               id="path530"
               style="fill:#1b1918;fill-rule:evenodd"
               d="M 85.4459,89.6351 V 78.4084 h 6.8525 v 1.3448 h -5.2807 v 3.3369 h 4.6979 v 1.3125 h -4.6979 v 3.8877 h 5.686 v 1.3448 z" />
            <path
               inkscape:connector-curvature="0"
               id="path532"
               style="fill:#1b1918;fill-rule:evenodd"
               d="m 100.9171,89.2138 c -0.3458,0.0868 -0.8022,0.178 -1.3691,0.2753 -0.5669,0.0972 -1.2232,0.146 -1.9684,0.146 -0.6477,0 -1.1931,-0.0942 -1.6361,-0.2835 -0.4428,-0.1885 -0.7994,-0.4561 -1.0693,-0.8019 -0.2701,-0.3459 -0.4643,-0.7535 -0.5831,-1.2232 -0.119,-0.4697 -0.1783,-0.9907 -0.1783,-1.563 V 81.033 h 1.5069 v 4.4065 c 0,1.0261 0.1616,1.76 0.4859,2.2031 0.3243,0.4428 0.8691,0.6639 1.6362,0.6639 0.1621,0 0.3291,-0.0049 0.502,-0.0162 0.1729,-0.0105 0.335,-0.0244 0.4864,-0.0405 0.1508,-0.0159 0.2886,-0.0321 0.413,-0.0482 0.1239,-0.0162 0.2129,-0.0352 0.267,-0.0567 V 81.033 h 1.5069 z" />
            <path
               inkscape:connector-curvature="0"
               id="path534"
               style="fill:#1b1918;fill-rule:evenodd"
               d="m 106.5382,81.033 c 0.1299,0 0.2784,0.008 0.4459,0.0238 0.167,0.0168 0.332,0.0383 0.4941,0.0652 0.1616,0.0273 0.3101,0.0542 0.4453,0.0808 0.1347,0.0275 0.2347,0.0513 0.2999,0.0729 l -0.2593,1.3127 c -0.1191,-0.0431 -0.3161,-0.095 -0.5914,-0.1539 -0.2755,-0.0595 -0.6292,-0.0893 -1.061,-0.0893 -0.2812,0 -0.559,0.0298 -0.8345,0.0893 -0.2755,0.0589 -0.4566,0.0995 -0.5425,0.121 v 7.0796 h -1.5066 v -8.0674 c 0.3563,-0.1299 0.799,-0.2515 1.3285,-0.3649 0.5287,-0.1131 1.1229,-0.1698 1.7816,-0.1698 z" />
            <path
               inkscape:connector-curvature="0"
               id="path536"
               style="fill:#1b1918;fill-rule:evenodd"
               d="m 117.0358,85.2289 c 0,0.6692 -0.0973,1.2744 -0.2914,1.8144 -0.1951,0.54 -0.4675,1.0044 -0.8184,1.393 -0.3512,0.3889 -0.7696,0.6885 -1.2555,0.8991 -0.4864,0.2109 -1.0156,0.3158 -1.5879,0.3158 -0.5721,0 -1.1016,-0.1049 -1.5874,-0.3158 -0.4859,-0.2106 -0.9046,-0.5102 -1.2552,-0.8991 -0.3512,-0.3886 -0.6242,-0.853 -0.8184,-1.393 -0.1944,-0.54 -0.2917,-1.1452 -0.2917,-1.8144 0,-0.6588 0.0973,-1.2609 0.2917,-1.8065 0.1942,-0.5451 0.4672,-1.0123 0.8184,-1.4009 0.3506,-0.3892 0.7693,-0.6891 1.2552,-0.8995 0.4858,-0.2106 1.0153,-0.316 1.5874,-0.316 0.5723,0 1.1015,0.1054 1.5879,0.316 0.4859,0.2104 0.9043,0.5103 1.2555,0.8995 0.3509,0.3886 0.6233,0.8558 0.8184,1.4009 0.1941,0.5456 0.2914,1.1477 0.2914,1.8065 z m -1.5718,0 v 0 c 0,-0.9502 -0.2135,-1.7036 -0.6398,-2.2604 -0.4266,-0.5561 -1.0072,-0.8339 -1.7416,-0.8339 -0.7342,0 -1.315,0.2778 -1.7411,0.8339 -0.4269,0.5568 -0.6403,1.3102 -0.6403,2.2604 0,0.9502 0.2134,1.7036 0.6403,2.2598 0.4261,0.5561 1.0069,0.8345 1.7411,0.8345 0.7344,0 1.315,-0.2784 1.7416,-0.8345 0.4263,-0.5562 0.6398,-1.3096 0.6398,-2.2598 z" />
            <path
               inkscape:connector-curvature="0"
               id="path538"
               style="fill:#1b1918;fill-rule:evenodd"
               d="m 126.4967,85.4395 c 0,0.6369 -0.0839,1.226 -0.2515,1.7654 -0.1675,0.5406 -0.413,1.0043 -0.7367,1.3935 -0.3243,0.3887 -0.7214,0.6911 -1.1911,0.9074 -0.4697,0.2157 -1.0071,0.3237 -1.6118,0.3237 -0.4855,0 -0.9153,-0.0649 -1.288,-0.1944 -0.3725,-0.1293 -0.6503,-0.2535 -0.834,-0.3725 v 3.3695 h -1.5069 v -11.162 c 0.3566,-0.0858 0.8019,-0.1805 1.3365,-0.2831 0.5347,-0.1027 1.1529,-0.154 1.855,-0.154 0.648,0 1.2314,0.1027 1.7496,0.3076 0.5184,0.2052 0.9612,0.4972 1.3286,0.8751 0.3671,0.3781 0.6502,0.8399 0.8504,1.3847 0.1998,0.5454 0.2999,1.1588 0.2999,1.8391 z m -1.5718,0 v 0 c 0,-0.9825 -0.2427,-1.7391 -0.7291,-2.2683 -0.4856,-0.5286 -1.1336,-0.794 -1.9437,-0.794 -0.4536,0 -0.8076,0.0168 -1.061,0.0491 -0.254,0.032 -0.4567,0.0703 -0.6075,0.1131 v 5.3135 c 0.1837,0.1514 0.4479,0.2974 0.7934,0.4374 0.3459,0.1409 0.7237,0.2112 1.1345,0.2112 0.4314,0 0.8016,-0.0788 1.1097,-0.2356 0.3076,-0.1562 0.5587,-0.3725 0.7529,-0.6477 0.1945,-0.2755 0.3351,-0.5992 0.4215,-0.9717 0.0865,-0.3728 0.1293,-0.775 0.1293,-1.207 z" />
            <path
               inkscape:connector-curvature="0"
               id="path540"
               style="fill:#1b1918;fill-rule:evenodd"
               d="m 128.0676,85.245 c 0,-0.7452 0.1078,-1.396 0.324,-1.9522 0.216,-0.5561 0.5021,-1.0179 0.8584,-1.3853 0.3566,-0.3665 0.7667,-0.642 1.2316,-0.826 0.4638,-0.1837 0.9394,-0.2755 1.4253,-0.2755 1.1341,0 2.0035,0.354 2.6084,1.061 0.6044,0.7075 0.9071,1.7853 0.9071,3.2321 0,0.0649 0,0.1488 0,0.2514 0,0.1026 -0.006,0.1967 -0.0159,0.2832 h -5.7676 c 0.0649,0.875 0.3183,1.5392 0.7617,1.9927 0.4424,0.4536 1.1338,0.6801 2.0732,0.6801 0.5292,0 0.9746,-0.0454 1.3368,-0.1375 0.3615,-0.0916 0.6344,-0.1809 0.8178,-0.2673 l 0.2106,1.2637 c -0.1836,0.0972 -0.5048,0.1998 -0.964,0.3078 -0.4589,0.1083 -0.98,0.1619 -1.5628,0.1619 -0.735,0 -1.3691,-0.1109 -1.904,-0.332 -0.5346,-0.2214 -0.9745,-0.5264 -1.3201,-0.9156 -0.3458,-0.3886 -0.6021,-0.8501 -0.7696,-1.3847 -0.1675,-0.5346 -0.2509,-1.1205 -0.2509,-1.7578 z m 5.783,-0.8263 v 0 c 0.0108,-0.6806 -0.159,-1.2393 -0.51,-1.6767 -0.3512,-0.4373 -0.8342,-0.6562 -1.4499,-0.6562 -0.3458,0 -0.6508,0.0678 -0.9156,0.2027 -0.2644,0.1352 -0.4887,0.3104 -0.6718,0.5264 -0.1839,0.2163 -0.3271,0.4643 -0.4297,0.7449 -0.1026,0.2812 -0.1698,0.5675 -0.2021,0.8589 z" />
            <path
               inkscape:connector-curvature="0"
               id="path542"
               style="fill:#1b1918;fill-rule:evenodd"
               d="m 136.135,92.6644 c -0.1295,0 -0.297,-0.0161 -0.502,-0.0484 -0.2052,-0.0326 -0.3781,-0.0757 -0.5187,-0.1299 l 0.1944,-1.2308 c 0.108,0.0321 0.2325,0.059 0.3725,0.0811 0.1406,0.0213 0.2702,0.032 0.3886,0.032 0.5188,0 0.8884,-0.1596 1.1101,-0.4779 0.2211,-0.3183 0.3319,-0.7857 0.3319,-1.4014 v -8.2778 h 1.5069 v 8.2619 c 0,1.08 -0.246,1.8816 -0.7373,2.4055 -0.4918,0.5241 -1.207,0.7857 -2.1464,0.7857 z m 2.1221,-12.9761 v 0 c -0.2702,0 -0.4998,-0.0893 -0.6886,-0.267 -0.189,-0.1783 -0.2832,-0.4184 -0.2832,-0.7212 0,-0.3021 0.0942,-0.5425 0.2832,-0.7208 0.1888,-0.178 0.4184,-0.2676 0.6886,-0.2676 0.2698,0 0.4994,0.0896 0.6882,0.2676 0.1891,0.1783 0.2838,0.4187 0.2838,0.7208 0,0.3028 -0.0947,0.5429 -0.2838,0.7212 -0.1888,0.1777 -0.4184,0.267 -0.6882,0.267 z" />
            <path
               inkscape:connector-curvature="0"
               id="path544"
               style="fill:#1b1918;fill-rule:evenodd"
               d="m 143.4898,88.3555 c 0.6154,0 1.0718,-0.0814 1.3686,-0.2432 0.2971,-0.1616 0.4459,-0.421 0.4459,-0.7776 0,-0.367 -0.146,-0.6584 -0.4374,-0.8747 -0.2917,-0.216 -0.7725,-0.4592 -1.442,-0.7291 -0.3243,-0.1295 -0.6347,-0.2619 -0.9315,-0.3971 -0.297,-0.1347 -0.5533,-0.294 -0.7696,-0.4774 -0.216,-0.1837 -0.3886,-0.4053 -0.5181,-0.6647 -0.1299,-0.2591 -0.1942,-0.5774 -0.1942,-0.9556 0,-0.7449 0.2752,-1.3362 0.826,-1.7739 0.5508,-0.4374 1.3014,-0.6562 2.2516,-0.6562 0.2378,0 0.475,0.0136 0.7129,0.0405 0.2372,0.0272 0.4589,0.0595 0.6638,0.0972 0.2053,0.038 0.3864,0.0786 0.5432,0.1217 0.1562,0.0433 0.2778,0.081 0.3642,0.1131 l -0.2755,1.2965 c -0.1616,-0.0864 -0.4153,-0.1757 -0.7611,-0.2676 -0.3458,-0.0918 -0.7614,-0.1377 -1.2475,-0.1377 -0.421,0 -0.7886,0.0839 -1.1016,0.2508 -0.3135,0.1676 -0.4697,0.4298 -0.4697,0.7858 0,0.184 0.0352,0.3461 0.1055,0.4864 0.0697,0.1401 0.178,0.267 0.3237,0.3804 0.146,0.1137 0.3265,0.2186 0.5428,0.3158 0.216,0.0972 0.4751,0.2001 0.7773,0.3081 0.3994,0.1514 0.756,0.2999 1.0695,0.4454 0.3129,0.1459 0.5805,0.3157 0.8016,0.5102 0.2214,0.1945 0.3918,0.4292 0.5105,0.7047 0.1185,0.2752 0.1781,0.6131 0.1781,1.0125 0,0.7779 -0.2892,1.3663 -0.8666,1.7657 -0.5777,0.4 -1.4014,0.5996 -2.4704,0.5996 -0.7449,0 -1.3286,-0.0621 -1.7495,-0.1866 -0.4213,-0.1238 -0.7076,-0.2182 -0.8589,-0.2831 l 0.2755,-1.296 c 0.1729,0.0646 0.4482,0.1618 0.826,0.2916 0.3782,0.1293 0.8805,0.1945 1.5069,0.1945 z" />
            <path
               inkscape:connector-curvature="0"
               id="path546"
               style="fill:#1b1918;fill-rule:evenodd"
               d="m 151.7194,85.0018 c 0.3237,0.2486 0.6664,0.5568 1.0284,0.9233 0.3617,0.3679 0.718,0.7642 1.0692,1.1911 0.3512,0.4266 0.6831,0.8583 0.9967,1.2957 0.3129,0.4377 0.5774,0.8453 0.7934,1.2232 h -1.7657 c -0.2271,-0.3779 -0.4887,-0.7643 -0.7855,-1.158 -0.2974,-0.3943 -0.6075,-0.7722 -0.9318,-1.1344 -0.3242,-0.3614 -0.6533,-0.6939 -0.9881,-0.9961 -0.3351,-0.3022 -0.6534,-0.5562 -0.9556,-0.7611 v 4.0496 h -1.5069 v -12.312 l 1.5069,-0.2591 v 7.6785 c 0.2591,-0.2588 0.5448,-0.5449 0.8584,-0.8584 0.3129,-0.3129 0.621,-0.6318 0.9232,-0.9561 0.3022,-0.3237 0.589,-0.6341 0.8589,-0.9309 0.2696,-0.2971 0.502,-0.5593 0.6962,-0.7858 h 1.7663 c -0.2486,0.2702 -0.5185,0.567 -0.8102,0.8907 -0.2914,0.3243 -0.5941,0.6508 -0.9071,0.9805 -0.3135,0.3294 -0.6295,0.6585 -0.9479,0.9876 -0.3189,0.3296 -0.6182,0.6403 -0.8988,0.9317 z" />
            <path
               inkscape:connector-curvature="0"
               id="path548"
               style="fill:#1b1918;fill-rule:evenodd"
               d="m 157.794,79.6883 c -0.2699,0 -0.4995,-0.0893 -0.6882,-0.267 -0.1891,-0.1783 -0.2835,-0.4184 -0.2835,-0.7212 0,-0.3021 0.0944,-0.5425 0.2835,-0.7208 0.1887,-0.178 0.4183,-0.2676 0.6882,-0.2676 0.2701,0 0.4998,0.0896 0.6885,0.2676 0.1891,0.1783 0.2838,0.4187 0.2838,0.7208 0,0.3028 -0.0947,0.5429 -0.2838,0.7212 -0.1887,0.1777 -0.4184,0.267 -0.6885,0.267 z m 0.7617,9.9468 v 0 h -1.5066 v -8.4238 h 1.5066 z" />
            <path
               inkscape:connector-curvature="0"
               id="path550"
               style="fill:#1b1918;fill-rule:evenodd"
               d="M 164.8242,89.6351 V 78.4084 h 6.772 v 1.3448 h -5.2002 v 3.386 h 4.6168 v 1.328 h -4.6168 v 5.1679 z" />
            <path
               inkscape:connector-curvature="0"
               id="path552"
               style="fill:#1b1918;fill-rule:evenodd"
               d="m 179.6477,89.2138 c -0.3458,0.0868 -0.8025,0.178 -1.3694,0.2753 -0.5667,0.0972 -1.2229,0.146 -1.9681,0.146 -0.648,0 -1.1934,-0.0942 -1.6362,-0.2835 -0.443,-0.1885 -0.7993,-0.4561 -1.0695,-0.8019 -0.2698,-0.3459 -0.4643,-0.7535 -0.5828,-1.2232 -0.1193,-0.4697 -0.1783,-0.9907 -0.1783,-1.563 V 81.033 h 1.5069 v 4.4065 c 0,1.0261 0.1616,1.76 0.4859,2.2031 0.324,0.4428 0.8691,0.6639 1.6361,0.6639 0.1622,0 0.3291,-0.0049 0.5021,-0.0162 0.1726,-0.0105 0.3347,-0.0244 0.4861,-0.0405 0.1511,-0.0159 0.2886,-0.0321 0.4133,-0.0482 0.1239,-0.0162 0.2129,-0.0352 0.267,-0.0567 V 81.033 h 1.5069 z" />
            <path
               inkscape:connector-curvature="0"
               id="path554"
               style="fill:#1b1918;fill-rule:evenodd"
               d="m 182.1584,81.454 c 0.3455,-0.0859 0.8047,-0.1783 1.377,-0.2755 0.5721,-0.097 1.2314,-0.1455 1.9763,-0.1455 0.6696,0 1.2257,0.0947 1.6685,0.2832 0.4431,0.1897 0.7965,0.4536 1.061,0.794 0.2648,0.3404 0.4513,0.7481 0.5593,1.2232 0.1077,0.475 0.1621,0.9989 0.1621,1.5712 v 4.7305 h -1.5069 v -4.4062 c 0,-0.5185 -0.0351,-0.9615 -0.1051,-1.3286 -0.0703,-0.3671 -0.1863,-0.6642 -0.3484,-0.8912 -0.1616,-0.2265 -0.3781,-0.3909 -0.648,-0.4941 -0.2701,-0.1026 -0.6052,-0.1539 -1.0046,-0.1539 -0.1619,0 -0.3294,0.0059 -0.5017,0.0161 -0.173,0.0114 -0.3379,0.0247 -0.4944,0.0406 -0.1565,0.0167 -0.2971,0.0351 -0.4212,0.0572 -0.1242,0.0216 -0.2135,0.0374 -0.2671,0.0482 v 7.1119 h -1.5068 z" />
            <path
               inkscape:connector-curvature="0"
               id="path556"
               style="fill:#1b1918;fill-rule:evenodd"
               d="m 196.8191,77.1289 1.5061,-0.2594 v 12.3282 c -0.3456,0.0972 -0.788,0.1941 -1.328,0.2914 -0.54,0.0972 -1.1611,0.146 -1.8633,0.146 -0.648,0 -1.2308,-0.1027 -1.7495,-0.3076 -0.5182,-0.2049 -0.9615,-0.4966 -1.328,-0.8751 -0.3677,-0.3778 -0.6509,-0.8393 -0.8507,-1.3853 -0.2001,-0.5448 -0.2999,-1.1579 -0.2999,-1.8382 0,-0.648 0.0836,-1.2422 0.2511,-1.7822 0.1673,-0.5402 0.413,-1.0046 0.7373,-1.3932 0.3237,-0.3886 0.7206,-0.6908 1.1903,-0.9071 0.4703,-0.2157 1.0074,-0.3243 1.6123,-0.3243 0.4859,0 0.9151,0.065 1.2878,0.1948 0.3725,0.1295 0.6509,0.2534 0.8345,0.3727 z m 0,5.6698 v 0 c -0.1836,-0.1508 -0.4484,-0.2967 -0.7942,-0.4376 -0.3456,-0.1401 -0.7234,-0.2104 -1.1336,-0.2104 -0.4323,0 -0.8022,0.0786 -1.1098,0.2347 -0.3078,0.1571 -0.5592,0.3728 -0.7534,0.648 -0.1945,0.2756 -0.3351,0.6021 -0.421,0.9803 -0.087,0.3784 -0.1298,0.7832 -0.1298,1.2152 0,0.9828 0.2429,1.7413 0.7288,2.2759 0.4864,0.5346 1.1344,0.8017 1.9443,0.8017 0.4104,0 0.7531,-0.0185 1.0284,-0.0567 0.2755,-0.0375 0.4887,-0.078 0.6403,-0.1216 z" />
            <path
               inkscape:connector-curvature="0"
               id="path558"
               style="fill:#1b1918;fill-rule:evenodd"
               d="m 207.5437,89.2138 c -0.3458,0.0868 -0.8025,0.178 -1.3694,0.2753 -0.5669,0.0972 -1.2228,0.146 -1.9681,0.146 -0.648,0 -1.1934,-0.0942 -1.6364,-0.2835 -0.4428,-0.1885 -0.7991,-0.4561 -1.0692,-0.8019 -0.2699,-0.3459 -0.4644,-0.7535 -0.5828,-1.2232 -0.1194,-0.4697 -0.1783,-0.9907 -0.1783,-1.563 V 81.033 h 1.5069 v 4.4065 c 0,1.0261 0.1615,1.76 0.4858,2.2031 0.324,0.4428 0.8691,0.6639 1.6362,0.6639 0.1621,0 0.3291,-0.0049 0.5017,-0.0162 0.1729,-0.0105 0.3351,-0.0244 0.4864,-0.0405 0.1508,-0.0159 0.2886,-0.0321 0.4133,-0.0482 0.1239,-0.0162 0.2126,-0.0352 0.267,-0.0567 V 81.033 h 1.5069 z" />
            <path
               inkscape:connector-curvature="0"
               id="path560"
               style="fill:#1b1918;fill-rule:evenodd"
               d="m 212.0143,88.3555 c 0.6151,0 1.0717,-0.0814 1.3685,-0.2432 0.2971,-0.1616 0.4459,-0.421 0.4459,-0.7776 0,-0.367 -0.146,-0.6584 -0.4374,-0.8747 -0.2917,-0.216 -0.7724,-0.4592 -1.442,-0.7291 -0.3242,-0.1295 -0.6346,-0.2619 -0.9317,-0.3971 -0.2968,-0.1347 -0.553,-0.294 -0.7693,-0.4774 -0.216,-0.1837 -0.3887,-0.4053 -0.5182,-0.6647 -0.1298,-0.2591 -0.1942,-0.5774 -0.1942,-0.9556 0,-0.7449 0.2753,-1.3362 0.826,-1.7739 0.5508,-0.4374 1.3014,-0.6562 2.2516,-0.6562 0.2378,0 0.4751,0.0136 0.7129,0.0405 0.2373,0.0272 0.4589,0.0595 0.6639,0.0972 0.2052,0.038 0.3863,0.0786 0.5431,0.1217 0.1562,0.0433 0.2778,0.081 0.3643,0.1131 l -0.2756,1.2965 c -0.1615,-0.0864 -0.4155,-0.1757 -0.7611,-0.2676 -0.3458,-0.0918 -0.7614,-0.1377 -1.2475,-0.1377 -0.4209,0 -0.7886,0.0839 -1.1018,0.2508 -0.3133,0.1676 -0.4697,0.4298 -0.4697,0.7858 0,0.184 0.0354,0.3461 0.1057,0.4864 0.0697,0.1401 0.178,0.267 0.3237,0.3804 0.146,0.1137 0.3266,0.2186 0.5429,0.3158 0.2157,0.0972 0.475,0.2001 0.7772,0.3081 0.3994,0.1514 0.756,0.2999 1.0695,0.4454 0.313,0.1459 0.5806,0.3157 0.8017,0.5102 0.2214,0.1945 0.3917,0.4292 0.5102,0.7047 0.1188,0.2752 0.1783,0.6131 0.1783,1.0125 0,0.7779 -0.2891,1.3663 -0.8666,1.7657 -0.5777,0.4 -1.4014,0.5996 -2.4703,0.5996 -0.745,0 -1.3286,-0.0621 -1.7496,-0.1866 -0.4212,-0.1238 -0.7075,-0.2182 -0.8589,-0.2831 l 0.2755,-1.296 c 0.1727,0.0646 0.4482,0.1618 0.8261,0.2916 0.3781,0.1293 0.8804,0.1945 1.5069,0.1945 z" />
            <path
               inkscape:connector-curvature="0"
               id="path562"
               style="fill:#1b1918;fill-rule:evenodd"
               d="m 222.7873,82.3452 c -0.2265,0.2486 -0.5264,0.5995 -0.8991,1.0531 -0.3725,0.4538 -0.7725,0.9555 -1.1985,1.5063 -0.4269,0.5508 -0.8535,1.129 -1.2799,1.7334 -0.4269,0.6052 -0.8019,1.1826 -1.1259,1.7334 h 4.6333 v 1.2637 h -6.4316 v -1.0044 c 0.2591,-0.475 0.5774,-0.9992 0.9559,-1.5712 0.3781,-0.5723 0.775,-1.1421 1.1905,-1.709 0.4161,-0.5675 0.8209,-1.1021 1.2152,-1.6041 0.394,-0.5023 0.737,-0.9258 1.029,-1.2714 h -4.1638 v -1.2637 h 6.0749 z" />
            <path
               inkscape:connector-curvature="0"
               id="path564"
               style="fill:#1b1918;fill-rule:evenodd"
               d="m 64.0939,104.7871 c 0.1727,0.2163 0.3915,0.4997 0.6563,0.8504 0.2647,0.3512 0.5371,0.7404 0.8183,1.1664 0.2807,0.4269 0.5587,0.8728 0.834,1.3366 0.2755,0.4649 0.5102,0.913 0.705,1.3447 h -1.7173 c -0.2163,-0.4101 -0.451,-0.8263 -0.705,-1.2475 -0.2534,-0.4209 -0.5102,-0.8232 -0.769,-1.2064 -0.2594,-0.3836 -0.5162,-0.7427 -0.7696,-1.0778 -0.254,-0.3344 -0.4839,-0.6261 -0.6885,-0.8744 -0.1406,0.0107 -0.2838,0.0158 -0.4298,0.0158 -0.1454,0 -0.2942,0 -0.4453,0 h -1.4091 v 4.3903 H 58.6021 V 98.4208 c 0.4428,-0.108 0.9371,-0.1806 1.4825,-0.2186 0.5454,-0.0377 1.0449,-0.057 1.4984,-0.057 1.5769,0 2.7785,0.2971 3.6045,0.8907 0.8263,0.5944 1.2394,1.4799 1.2394,2.6575 0,0.7449 -0.1973,1.3821 -0.5914,1.9114 -0.3945,0.5295 -0.9745,0.9235 -1.7416,1.1823 z m -2.3813,-5.2648 v 0 c -0.6696,0 -1.1827,0.0162 -1.5387,0.0485 v 4.2284 h 1.1177 c 0.54,0 1.0259,-0.0269 1.4582,-0.0811 0.4314,-0.0541 0.7962,-0.1567 1.093,-0.3081 0.2971,-0.1508 0.5264,-0.3642 0.6885,-0.6398 0.1622,-0.2752 0.2432,-0.64 0.2432,-1.0936 0,-0.4209 -0.081,-0.7718 -0.2432,-1.0528 -0.1621,-0.2806 -0.3804,-0.5023 -0.6556,-0.6638 -0.2756,-0.1622 -0.5996,-0.2756 -0.9723,-0.3405 -0.3725,-0.0649 -0.7696,-0.0972 -1.1908,-0.0972 z" />
            <path
               inkscape:connector-curvature="0"
               id="path566"
               style="fill:#1b1918;fill-rule:evenodd"
               d="m 76.0499,105.0791 c 0,0.6692 -0.0972,1.2741 -0.2914,1.8144 -0.195,0.54 -0.4674,1.0043 -0.8184,1.393 -0.3512,0.3886 -0.7696,0.6885 -1.2554,0.8991 -0.4862,0.2109 -1.0157,0.3158 -1.588,0.3158 -0.5723,0 -1.1015,-0.1049 -1.5874,-0.3158 -0.4856,-0.2106 -0.9048,-0.5105 -1.2552,-0.8991 -0.3512,-0.3887 -0.6242,-0.853 -0.8183,-1.393 -0.1945,-0.5403 -0.2917,-1.1452 -0.2917,-1.8144 0,-0.6588 0.0972,-1.2609 0.2917,-1.8068 0.1941,-0.5449 0.4671,-1.012 0.8183,-1.4009 0.3504,-0.3892 0.7696,-0.6888 1.2552,-0.8995 0.4859,-0.2103 1.0151,-0.3157 1.5874,-0.3157 0.5723,0 1.1018,0.1054 1.588,0.3157 0.4858,0.2107 0.9042,0.5103 1.2554,0.8995 0.351,0.3889 0.6234,0.856 0.8184,1.4009 0.1942,0.5459 0.2914,1.148 0.2914,1.8068 z m -1.5718,0 v 0 c 0,-0.9502 -0.2132,-1.7037 -0.6395,-2.2604 -0.4269,-0.5561 -1.0074,-0.8339 -1.7419,-0.8339 -0.7342,0 -1.3147,0.2778 -1.741,0.8339 -0.4269,0.5567 -0.6401,1.3102 -0.6401,2.2604 0,0.9501 0.2132,1.7036 0.6401,2.2597 0.4263,0.5562 1.0068,0.8343 1.741,0.8343 0.7345,0 1.315,-0.2781 1.7419,-0.8343 0.4263,-0.5561 0.6395,-1.3096 0.6395,-2.2597 z" />
            <path
               inkscape:connector-curvature="0"
               id="path568"
               style="fill:#1b1918;fill-rule:evenodd"
               d="m 83.3556,102.1951 c -0.2267,0.2486 -0.5264,0.5998 -0.8988,1.0533 -0.3728,0.4536 -0.7725,0.9556 -1.1988,1.5064 -0.4269,0.5507 -0.8535,1.129 -1.2798,1.7334 -0.4267,0.6049 -0.8017,1.1826 -1.126,1.7333 h 4.6333 v 1.2637 h -6.4316 v -1.0043 c 0.2591,-0.4751 0.5777,-0.9992 0.9559,-1.5712 0.3781,-0.5723 0.775,-1.1421 1.1905,-1.709 0.4159,-0.5675 0.8209,-1.1021 1.2155,-1.6042 0.394,-0.5025 0.7368,-0.9258 1.0287,-1.2713 H 77.281 v -1.264 h 6.0746 z" />
            <path
               inkscape:connector-curvature="0"
               id="path570"
               style="fill:#1b1918;fill-rule:evenodd"
               d="m 92.2014,109.4852 c -0.3027,-0.7778 -0.6242,-1.6659 -0.964,-2.6651 -0.3402,-0.9984 -0.6509,-2.0381 -0.9315,-3.1181 -0.2815,1.08 -0.589,2.1197 -0.9235,3.1181 -0.3348,0.9992 -0.6537,1.8873 -0.9559,2.6651 h -1.3121 c -0.4972,-1.1123 -0.9828,-2.3814 -1.4579,-3.8072 -0.4756,-1.4252 -0.9235,-2.9642 -1.345,-4.6168 h 1.6203 c 0.108,0.508 0.2372,1.0588 0.3886,1.6526 0.1514,0.5936 0.3107,1.188 0.4782,1.7816 0.1672,0.5944 0.3427,1.1665 0.5261,1.7172 0.1837,0.5511 0.3566,1.0318 0.5188,1.442 0.1836,-0.5071 0.3642,-1.0448 0.5425,-1.6118 0.178,-0.5669 0.3484,-1.1395 0.5102,-1.7172 0.1619,-0.5777 0.3158,-1.1446 0.4618,-1.7013 0.146,-0.5559 0.2724,-1.0769 0.381,-1.5631 h 1.2469 c 0.0973,0.4862 0.2163,1.0072 0.3566,1.5631 0.1401,0.5567 0.2914,1.1236 0.4536,1.7013 0.1621,0.5777 0.3319,1.1503 0.5102,1.7172 0.1783,0.567 0.3589,1.1047 0.5429,1.6118 0.1621,-0.4102 0.3322,-0.8909 0.5102,-1.442 0.1783,-0.5507 0.3535,-1.1228 0.5264,-1.7172 0.1729,-0.5936 0.3345,-1.188 0.4858,-1.7816 0.1514,-0.5938 0.281,-1.1446 0.3892,-1.6526 h 1.5551 c -0.4212,1.6526 -0.8694,3.1916 -1.3444,4.6168 -0.4754,1.4258 -0.9616,2.6949 -1.4582,3.8072 z" />
            <path
               inkscape:connector-curvature="0"
               id="path572"
               style="fill:#1b1918;fill-rule:evenodd"
               d="m 105.0642,105.0791 c 0,0.6692 -0.0972,1.2741 -0.2917,1.8144 -0.1947,0.54 -0.4671,1.0043 -0.8183,1.393 -0.351,0.3886 -0.7694,0.6885 -1.2552,0.8991 -0.4864,0.2109 -1.0157,0.3158 -1.588,0.3158 -0.5723,0 -1.1015,-0.1049 -1.5874,-0.3158 -0.4858,-0.2106 -0.9048,-0.5105 -1.2555,-0.8991 -0.3509,-0.3887 -0.6239,-0.853 -0.8183,-1.393 -0.1942,-0.5403 -0.2914,-1.1452 -0.2914,-1.8144 0,-0.6588 0.0972,-1.2609 0.2914,-1.8068 0.1944,-0.5449 0.4674,-1.012 0.8183,-1.4009 0.3507,-0.3892 0.7697,-0.6888 1.2555,-0.8995 0.4859,-0.2103 1.0151,-0.3157 1.5874,-0.3157 0.5723,0 1.1016,0.1054 1.588,0.3157 0.4858,0.2107 0.9042,0.5103 1.2552,0.8995 0.3512,0.3889 0.6236,0.856 0.8183,1.4009 0.1945,0.5459 0.2917,1.148 0.2917,1.8068 z m -1.5718,0 v 0 c 0,-0.9502 -0.2135,-1.7037 -0.6398,-2.2604 -0.4266,-0.5561 -1.0074,-0.8339 -1.7416,-0.8339 -0.7344,0 -1.315,0.2778 -1.7413,0.8339 -0.4266,0.5567 -0.6401,1.3102 -0.6401,2.2604 0,0.9501 0.2135,1.7036 0.6401,2.2597 0.4263,0.5562 1.0069,0.8343 1.7413,0.8343 0.7342,0 1.315,-0.2781 1.7416,-0.8343 0.4263,-0.5561 0.6398,-1.3096 0.6398,-2.2597 z" />
            <path
               inkscape:connector-curvature="0"
               id="path574"
               style="fill:#1b1918;fill-rule:evenodd"
               d="m 105.7281,112.5146 c -0.1293,0 -0.2968,-0.0161 -0.5017,-0.0485 -0.2053,-0.0326 -0.3782,-0.0756 -0.5188,-0.1298 l 0.1945,-1.2311 c 0.1077,0.0323 0.2324,0.0593 0.3724,0.0811 0.1406,0.0215 0.2702,0.0323 0.3887,0.0323 0.5187,0 0.8883,-0.1596 1.11,-0.4779 0.2211,-0.3183 0.332,-0.7858 0.332,-1.4015 v -8.278 h 1.5069 v 8.2619 c 0,1.08 -0.2464,1.8819 -0.7376,2.4057 -0.4916,0.5239 -1.207,0.7858 -2.1464,0.7858 z m 2.122,-12.9761 v 0 c -0.2699,0 -0.4995,-0.0893 -0.6883,-0.2671 -0.189,-0.1783 -0.2834,-0.4186 -0.2834,-0.7211 0,-0.3025 0.0944,-0.5426 0.2834,-0.7209 0.1888,-0.1783 0.4184,-0.2675 0.6883,-0.2675 0.2701,0 0.4997,0.0892 0.6885,0.2675 0.1891,0.1783 0.2838,0.4184 0.2838,0.7209 0,0.3025 -0.0947,0.5428 -0.2838,0.7211 -0.1888,0.1778 -0.4184,0.2671 -0.6885,0.2671 z" />
            <path
               inkscape:connector-curvature="0"
               id="path576"
               style="fill:#1b1918;fill-rule:evenodd"
               d="m 117.8292,109.064 c -0.3456,0.0867 -0.8022,0.178 -1.3691,0.2752 -0.567,0.0973 -1.2232,0.146 -1.9684,0.146 -0.6477,0 -1.1931,-0.0944 -1.6362,-0.2837 -0.4428,-0.1885 -0.7991,-0.4561 -1.0692,-0.8017 -0.2702,-0.3458 -0.4643,-0.7534 -0.5831,-1.2231 -0.1191,-0.4697 -0.1783,-0.9907 -0.1783,-1.563 v -4.7305 h 1.5069 v 4.4062 c 0,1.0264 0.1616,1.7603 0.4859,2.2031 0.3242,0.443 0.8691,0.6641 1.6361,0.6641 0.1622,0 0.3291,-0.005 0.502,-0.0161 0.1729,-0.0108 0.3351,-0.0244 0.4865,-0.0406 0.1508,-0.0161 0.2885,-0.032 0.413,-0.0482 0.1241,-0.0161 0.2128,-0.0351 0.267,-0.0566 v -7.1119 h 1.5069 z" />
            <path
               inkscape:connector-curvature="0"
               id="path578"
               style="fill:#1b1918;fill-rule:evenodd"
               d="m 129.5901,104.7871 c 0.1727,0.2163 0.3915,0.4997 0.6563,0.8504 0.2644,0.3512 0.5368,0.7404 0.8183,1.1664 0.2806,0.4269 0.5584,0.8728 0.834,1.3366 0.2752,0.4649 0.5102,0.913 0.7049,1.3447 h -1.7172 c -0.2163,-0.4101 -0.4513,-0.8263 -0.705,-1.2475 -0.2534,-0.4209 -0.5105,-0.8232 -0.7693,-1.2064 -0.2591,-0.3836 -0.5159,-0.7427 -0.7693,-1.0778 -0.254,-0.3344 -0.4839,-0.6261 -0.6885,-0.8744 -0.1406,0.0107 -0.2838,0.0158 -0.4298,0.0158 -0.1454,0 -0.2945,0 -0.4453,0 h -1.4091 v 4.3903 h -1.5718 V 98.4208 c 0.4428,-0.108 0.9371,-0.1806 1.4825,-0.2186 0.5454,-0.0377 1.0449,-0.057 1.4984,-0.057 1.5766,0 2.7782,0.2971 3.6045,0.8907 0.8263,0.5944 1.2393,1.4799 1.2393,2.6575 0,0.7449 -0.1972,1.3821 -0.5913,1.9114 -0.3945,0.5295 -0.9745,0.9235 -1.7416,1.1823 z m -2.3814,-5.2648 v 0 c -0.6695,0 -1.1826,0.0162 -1.5386,0.0485 v 4.2284 h 1.1177 c 0.54,0 1.0259,-0.0269 1.4579,-0.0811 0.4317,-0.0541 0.7965,-0.1567 1.0933,-0.3081 0.2971,-0.1508 0.5264,-0.3642 0.6885,-0.6398 0.1622,-0.2752 0.2432,-0.64 0.2432,-1.0936 0,-0.4209 -0.081,-0.7718 -0.2432,-1.0528 -0.1621,-0.2806 -0.3804,-0.5023 -0.6559,-0.6638 -0.2753,-0.1622 -0.5995,-0.2756 -0.972,-0.3405 -0.3725,-0.0649 -0.7696,-0.0972 -1.1909,-0.0972 z" />
            <path
               inkscape:connector-curvature="0"
               id="path580"
               style="fill:#1b1918;fill-rule:evenodd"
               d="m 133.6397,105.0949 c 0,-0.7449 0.108,-1.3958 0.3243,-1.9519 0.2157,-0.5562 0.502,-1.0182 0.8583,-1.3853 0.3566,-0.3668 0.7668,-0.642 1.2314,-0.8263 0.464,-0.1834 0.9397,-0.2752 1.4255,-0.2752 1.1342,0 2.0033,0.354 2.6082,1.061 0.6046,0.7075 0.9074,1.7849 0.9074,3.2317 0,0.0652 0,0.1491 0,0.2518 0,0.1023 -0.006,0.1967 -0.0162,0.2831 h -5.7674 c 0.0649,0.8751 0.3181,1.539 0.7617,1.9928 0.4422,0.4535 1.1336,0.68 2.073,0.68 0.5295,0 0.9748,-0.0453 1.3371,-0.1377 0.3614,-0.0913 0.6341,-0.1806 0.8178,-0.2671 l 0.2106,1.2637 c -0.1837,0.0973 -0.5049,0.1996 -0.9641,0.3076 -0.4589,0.1083 -0.9799,0.1621 -1.563,0.1621 -0.7347,0 -1.3688,-0.1108 -1.9037,-0.3319 -0.5347,-0.2214 -0.9746,-0.5264 -1.3204,-0.9156 -0.3456,-0.3886 -0.6021,-0.8501 -0.7696,-1.3847 -0.1673,-0.5346 -0.2509,-1.1208 -0.2509,-1.7581 z m 5.7832,-0.826 v 0 c 0.0108,-0.6806 -0.159,-1.2393 -0.5102,-1.6767 -0.3512,-0.4376 -0.8339,-0.6562 -1.4496,-0.6562 -0.3459,0 -0.6509,0.0677 -0.9156,0.2027 -0.2648,0.1352 -0.4887,0.3104 -0.6718,0.5261 -0.1843,0.2166 -0.3271,0.4646 -0.4298,0.7452 -0.1026,0.2812 -0.1698,0.5672 -0.2021,0.8589 z" />
            <path
               inkscape:connector-curvature="0"
               id="path582"
               style="fill:#1b1918;fill-rule:evenodd"
               d="m 148.3654,108.6431 c -0.1293,0.0861 -0.381,0.197 -0.7534,0.3319 -0.3725,0.1352 -0.8071,0.2027 -1.3037,0.2027 -0.508,0 -0.9859,-0.0811 -1.4343,-0.2432 -0.4482,-0.1622 -0.8396,-0.4131 -1.1741,-0.7535 -0.3351,-0.3404 -0.5996,-0.7636 -0.794,-1.2713 -0.1942,-0.508 -0.2914,-1.1123 -0.2914,-1.8148 0,-0.6157 0.0918,-1.1795 0.2752,-1.6925 0.1837,-0.5128 0.4507,-0.9562 0.8019,-1.3289 0.351,-0.3725 0.7801,-0.6639 1.2881,-0.8745 0.5071,-0.2109 1.0794,-0.3158 1.7172,-0.3158 0.7016,0 1.3145,0.0513 1.8383,0.1536 0.5241,0.1027 0.9643,0.1973 1.3204,0.2832 v 7.5172 c 0,1.296 -0.3345,2.2354 -1.0043,2.8191 -0.6696,0.5828 -1.6847,0.8745 -3.0456,0.8745 -0.5292,0 -1.0287,-0.0431 -1.4984,-0.1296 -0.4697,-0.0864 -0.8776,-0.189 -1.2231,-0.3075 l 0.2752,-1.3125 c 0.3022,0.1185 0.6724,0.224 1.1101,0.3158 0.4374,0.0919 0.8934,0.1378 1.3685,0.1378 0.8966,0 1.5415,-0.1783 1.9361,-0.5346 0.394,-0.3566 0.5913,-0.9236 0.5913,-1.7008 z m -0.0162,-6.2536 v 0 c -0.1513,-0.043 -0.354,-0.0833 -0.6074,-0.1216 -0.254,-0.0377 -0.597,-0.0567 -1.0287,-0.0567 -0.8102,0 -1.4338,0.2654 -1.8712,0.794 -0.4376,0.5293 -0.6562,1.2308 -0.6562,2.1059 0,0.4858 0.0621,0.902 0.1865,1.2478 0.1239,0.3455 0.2914,0.6316 0.5018,0.8583 0.2112,0.2271 0.4538,0.3943 0.7293,0.5023 0.2753,0.108 0.559,0.1619 0.8504,0.1619 0.3994,0 0.7665,-0.0567 1.1016,-0.1701 0.335,-0.1131 0.5995,-0.2458 0.7939,-0.3968 z" />
            <path
               inkscape:connector-curvature="0"
               id="path584"
               style="fill:#1b1918;fill-rule:evenodd"
               d="m 153.112,99.5385 c -0.2701,0 -0.4997,-0.0893 -0.6885,-0.2671 -0.1891,-0.1783 -0.2832,-0.4186 -0.2832,-0.7211 0,-0.3025 0.0941,-0.5426 0.2832,-0.7209 0.1888,-0.1783 0.4184,-0.2675 0.6885,-0.2675 0.2699,0 0.4995,0.0892 0.6883,0.2675 0.189,0.1783 0.2837,0.4184 0.2837,0.7209 0,0.3025 -0.0947,0.5428 -0.2837,0.7211 -0.1888,0.1778 -0.4184,0.2671 -0.6883,0.2671 z m 0.7617,9.9467 v 0 h -1.5069 v -8.424 h 1.5069 z" />
            <path
               inkscape:connector-curvature="0"
               id="path586"
               style="fill:#1b1918;fill-rule:evenodd"
               d="m 163.8205,105.0791 c 0,0.6692 -0.0973,1.2741 -0.2917,1.8144 -0.1948,0.54 -0.4672,1.0043 -0.8181,1.393 -0.3512,0.3886 -0.7696,0.6885 -1.2555,0.8991 -0.4864,0.2109 -1.0156,0.3158 -1.5879,0.3158 -0.5724,0 -1.1016,-0.1049 -1.5874,-0.3158 -0.4859,-0.2106 -0.9049,-0.5105 -1.2555,-0.8991 -0.3509,-0.3887 -0.6239,-0.853 -0.8181,-1.393 -0.1944,-0.5403 -0.2917,-1.1452 -0.2917,-1.8144 0,-0.6588 0.0973,-1.2609 0.2917,-1.8068 0.1942,-0.5449 0.4672,-1.012 0.8181,-1.4009 0.3506,-0.3892 0.7696,-0.6888 1.2555,-0.8995 0.4858,-0.2103 1.015,-0.3157 1.5874,-0.3157 0.5723,0 1.1015,0.1054 1.5879,0.3157 0.4859,0.2107 0.9043,0.5103 1.2555,0.8995 0.3509,0.3889 0.6233,0.856 0.8181,1.4009 0.1944,0.5459 0.2917,1.148 0.2917,1.8068 z m -1.5719,0 v 0 c 0,-0.9502 -0.2134,-1.7037 -0.6397,-2.2604 -0.4266,-0.5561 -1.0072,-0.8339 -1.7416,-0.8339 -0.7345,0 -1.315,0.2778 -1.7411,0.8339 -0.4269,0.5567 -0.6403,1.3102 -0.6403,2.2604 0,0.9501 0.2134,1.7036 0.6403,2.2597 0.4261,0.5562 1.0066,0.8343 1.7411,0.8343 0.7344,0 1.315,-0.2781 1.7416,-0.8343 0.4263,-0.5561 0.6397,-1.3096 0.6397,-2.2597 z" />
            <path
               inkscape:connector-curvature="0"
               id="path588"
               style="fill:#1b1918;fill-rule:evenodd"
               d="m 165.8611,101.3042 c 0.3456,-0.0859 0.8045,-0.1783 1.3768,-0.2756 0.5723,-0.0972 1.2314,-0.1454 1.9766,-0.1454 0.6696,0 1.2257,0.0947 1.6685,0.2832 0.4428,0.1893 0.7962,0.4535 1.061,0.794 0.2647,0.3401 0.451,0.748 0.559,1.2231 0.108,0.4751 0.1621,0.999 0.1621,1.5713 v 4.7304 h -1.5069 v -4.4061 c 0,-0.5185 -0.0351,-0.9616 -0.1049,-1.3286 -0.0703,-0.3674 -0.1865,-0.6642 -0.3486,-0.8913 -0.1616,-0.2264 -0.3779,-0.3911 -0.648,-0.494 -0.2699,-0.1026 -0.6049,-0.154 -1.0043,-0.154 -0.1622,0 -0.3297,0.006 -0.502,0.0162 -0.1727,0.0113 -0.3379,0.0244 -0.4941,0.0405 -0.1568,0.0168 -0.2974,0.0352 -0.4213,0.0573 -0.1241,0.0213 -0.2134,0.0374 -0.2673,0.0482 v 7.1118 h -1.5066 z" />
            <path
               inkscape:connector-curvature="0"
               id="path590"
               style="fill:#1b1918;fill-rule:evenodd"
               d="m 177.8004,100.6888 c 0.6049,0 1.1154,0.0782 1.5307,0.2349 0.4161,0.1568 0.7506,0.3779 1.0046,0.6642 0.2537,0.286 0.4345,0.6265 0.5428,1.0205 0.108,0.3943 0.1621,0.8288 0.1621,1.3042 v 5.2651 c -0.1298,0.0212 -0.3109,0.0513 -0.5428,0.0887 -0.2324,0.0383 -0.4943,0.0728 -0.7857,0.1054 -0.2915,0.0324 -0.6075,0.0621 -0.9477,0.089 -0.3404,0.027 -0.6777,0.0406 -1.0122,0.0406 -0.4757,0 -0.9131,-0.0485 -1.3125,-0.1454 -0.3994,-0.0973 -0.7452,-0.2517 -1.0366,-0.4621 -0.2917,-0.2103 -0.5187,-0.4881 -0.6809,-0.8345 -0.1616,-0.3453 -0.2426,-0.7611 -0.2426,-1.247 0,-0.4643 0.0944,-0.8642 0.2832,-1.1987 0.189,-0.3351 0.4458,-0.6049 0.7696,-0.8102 0.3242,-0.2049 0.7021,-0.3563 1.1341,-0.4535 0.4317,-0.0972 0.8856,-0.146 1.3609,-0.146 0.1508,0 0.3076,0.008 0.4697,0.0244 0.1616,0.0161 0.3161,0.038 0.4615,0.0649 0.146,0.0269 0.273,0.0513 0.381,0.0728 0.1077,0.0216 0.1834,0.038 0.2265,0.0482 v -0.4206 c 0,-0.2486 -0.027,-0.4944 -0.0805,-0.7373 -0.0542,-0.243 -0.1514,-0.4592 -0.292,-0.648 -0.1403,-0.1891 -0.3322,-0.3405 -0.5749,-0.4538 -0.2432,-0.1132 -0.559,-0.1698 -0.9476,-0.1698 -0.4972,0 -0.9317,0.0351 -1.3042,0.1048 -0.3725,0.0709 -0.6508,0.1438 -0.8345,0.2189 l -0.1783,-1.2473 c 0.1944,-0.0861 0.5187,-0.1703 0.9723,-0.2511 0.4535,-0.0808 0.9447,-0.1213 1.474,-0.1213 z m 0.1295,7.5489 v 0 c 0.3563,0 0.6724,-0.008 0.9476,-0.0238 0.2756,-0.0167 0.5049,-0.0459 0.6886,-0.0896 v -2.5106 c -0.108,-0.0542 -0.2832,-0.1001 -0.5264,-0.1378 -0.2432,-0.038 -0.5372,-0.057 -0.8827,-0.057 -0.2271,0 -0.4675,0.0165 -0.7209,0.0488 -0.2537,0.0323 -0.4864,0.1 -0.6967,0.2027 -0.2104,0.1026 -0.3861,0.2426 -0.5264,0.4209 -0.1406,0.178 -0.2109,0.413 -0.2109,0.705 0,0.54 0.1729,0.915 0.5184,1.1253 0.3459,0.2109 0.8156,0.3161 1.4094,0.3161 z" />
            <path
               inkscape:connector-curvature="0"
               id="path592"
               style="fill:#1b1918;fill-rule:evenodd"
               d="m 185.9812,109.4852 c -0.9292,-0.0215 -1.5874,-0.2211 -1.9766,-0.5995 -0.3887,-0.3781 -0.5831,-0.9663 -0.5831,-1.7657 V 97.0111 l 1.5063,-0.2591 v 10.1248 c 0,0.2486 0.0215,0.4535 0.0649,0.6157 0.0431,0.1621 0.1134,0.2917 0.2106,0.3889 0.097,0.0969 0.2271,0.1703 0.3892,0.2185 0.1616,0.0488 0.3612,0.0893 0.599,0.1216 z" />
            <path
               inkscape:connector-curvature="0"
               id="path594"
               style="fill:#1b1918;fill-rule:evenodd"
               d="m 187.7956,101.3042 c 0.3456,-0.0859 0.8045,-0.1783 1.3768,-0.2756 0.5723,-0.0972 1.2317,-0.1454 1.9766,-0.1454 0.6695,0 1.2257,0.0947 1.6685,0.2832 0.443,0.1893 0.7965,0.4535 1.061,0.794 0.2647,0.3401 0.4513,0.748 0.5593,1.2231 0.1077,0.4751 0.1618,0.999 0.1618,1.5713 v 4.7304 h -1.5066 v -4.4061 c 0,-0.5185 -0.0352,-0.9616 -0.1052,-1.3286 -0.0703,-0.3674 -0.1865,-0.6642 -0.3483,-0.8913 -0.1619,-0.2264 -0.3782,-0.3911 -0.648,-0.494 -0.2702,-0.1026 -0.605,-0.154 -1.0046,-0.154 -0.1622,0 -0.3294,0.006 -0.5018,0.0162 -0.1729,0.0113 -0.3379,0.0244 -0.4943,0.0405 -0.1568,0.0168 -0.2974,0.0352 -0.4213,0.0573 -0.1241,0.0213 -0.2134,0.0374 -0.267,0.0482 v 7.1118 h -1.5069 z" />
            <path
               inkscape:connector-curvature="0"
               id="path596"
               style="fill:#1b1918;fill-rule:evenodd"
               d="m 196.5436,105.0949 c 0,-0.7449 0.108,-1.3958 0.3243,-1.9519 0.2157,-0.5562 0.502,-1.0182 0.8583,-1.3853 0.3563,-0.3668 0.7665,-0.642 1.2314,-0.8263 0.464,-0.1834 0.9394,-0.2752 1.4253,-0.2752 1.1344,0 2.0035,0.354 2.6084,1.061 0.6046,0.7075 0.9074,1.7849 0.9074,3.2317 0,0.0652 0,0.1491 0,0.2518 0,0.1023 -0.006,0.1967 -0.0162,0.2831 h -5.7676 c 0.0649,0.8751 0.3183,1.539 0.7616,1.9928 0.4425,0.4535 1.1339,0.68 2.0733,0.68 0.5292,0 0.9745,-0.0453 1.3368,-0.1377 0.3614,-0.0913 0.6344,-0.1806 0.8181,-0.2671 l 0.2103,1.2637 c -0.1834,0.0973 -0.5048,0.1996 -0.9638,0.3076 -0.4589,0.1083 -0.9799,0.1621 -1.563,0.1621 -0.735,0 -1.3691,-0.1108 -1.9037,-0.3319 -0.5347,-0.2214 -0.9746,-0.5264 -1.3204,-0.9156 -0.3456,-0.3886 -0.6021,-0.8501 -0.7696,-1.3847 -0.1673,-0.5346 -0.2509,-1.1208 -0.2509,-1.7581 z m 5.7833,-0.826 v 0 c 0.0107,-0.6806 -0.1594,-1.2393 -0.5103,-1.6767 -0.3512,-0.4376 -0.8342,-0.6562 -1.4499,-0.6562 -0.3455,0 -0.6508,0.0677 -0.9153,0.2027 -0.2648,0.1352 -0.489,0.3104 -0.6721,0.5261 -0.184,0.2166 -0.3271,0.4646 -0.4295,0.7452 -0.1026,0.2812 -0.17,0.5672 -0.2021,0.8589 z" />
            <path
               inkscape:connector-curvature="0"
               id="path598"
               style="fill:#1b1918;fill-rule:evenodd"
               d="m 211.2693,108.6431 c -0.1295,0.0861 -0.381,0.197 -0.7537,0.3319 -0.3725,0.1352 -0.807,0.2027 -1.3037,0.2027 -0.5077,0 -0.9856,-0.0811 -1.434,-0.2432 -0.4482,-0.1622 -0.8399,-0.4131 -1.1744,-0.7535 -0.3348,-0.3404 -0.5995,-0.7636 -0.7937,-1.2713 -0.1945,-0.508 -0.2917,-1.1123 -0.2917,-1.8148 0,-0.6157 0.0918,-1.1795 0.2755,-1.6925 0.1837,-0.5128 0.4507,-0.9562 0.8017,-1.3289 0.3512,-0.3725 0.7803,-0.6639 1.288,-0.8745 0.5074,-0.2109 1.0797,-0.3158 1.7175,-0.3158 0.7016,0 1.3145,0.0513 1.8383,0.1536 0.5238,0.1027 0.9644,0.1973 1.3204,0.2832 v 7.5172 c 0,1.296 -0.3345,2.2354 -1.0046,2.8191 -0.6693,0.5828 -1.6844,0.8745 -3.0453,0.8745 -0.5292,0 -1.0287,-0.0431 -1.4984,-0.1296 -0.47,-0.0864 -0.8776,-0.189 -1.2234,-0.3075 l 0.2755,-1.3125 c 0.3022,0.1185 0.6724,0.224 1.1098,0.3158 0.4377,0.0919 0.8935,0.1378 1.3688,0.1378 0.8964,0 1.5415,-0.1783 1.9361,-0.5346 0.394,-0.3566 0.5913,-0.9236 0.5913,-1.7008 z m -0.0161,-6.2536 v 0 c -0.1514,-0.043 -0.3541,-0.0833 -0.6075,-0.1216 -0.254,-0.0377 -0.5973,-0.0567 -1.029,-0.0567 -0.8098,0 -1.4335,0.2654 -1.8709,0.794 -0.4376,0.5293 -0.6562,1.2308 -0.6562,2.1059 0,0.4858 0.0618,0.902 0.1865,1.2478 0.1239,0.3455 0.2914,0.6316 0.5018,0.8583 0.2109,0.2271 0.4538,0.3943 0.729,0.5023 0.2756,0.108 0.559,0.1619 0.8507,0.1619 0.3994,0 0.7665,-0.0567 1.1016,-0.1701 0.335,-0.1131 0.5995,-0.2458 0.794,-0.3968 z" />
            <path
               inkscape:connector-curvature="0"
               id="path600"
               style="fill:#1b1918;fill-rule:evenodd"
               d="m 222.7063,105.0791 c 0,0.6692 -0.0973,1.2741 -0.2917,1.8144 -0.1948,0.54 -0.4672,1.0043 -0.8184,1.393 -0.3509,0.3886 -0.7693,0.6885 -1.2552,0.8991 -0.4864,0.2109 -1.0156,0.3158 -1.5879,0.3158 -0.5724,0 -1.1016,-0.1049 -1.5874,-0.3158 -0.4859,-0.2106 -0.9049,-0.5105 -1.2555,-0.8991 -0.3509,-0.3887 -0.6239,-0.853 -0.8184,-1.393 -0.1941,-0.5403 -0.2914,-1.1452 -0.2914,-1.8144 0,-0.6588 0.0973,-1.2609 0.2914,-1.8068 0.1945,-0.5449 0.4675,-1.012 0.8184,-1.4009 0.3506,-0.3892 0.7696,-0.6888 1.2555,-0.8995 0.4858,-0.2103 1.015,-0.3157 1.5874,-0.3157 0.5723,0 1.1015,0.1054 1.5879,0.3157 0.4859,0.2107 0.9043,0.5103 1.2552,0.8995 0.3512,0.3889 0.6236,0.856 0.8184,1.4009 0.1944,0.5459 0.2917,1.148 0.2917,1.8068 z m -1.5719,0 v 0 c 0,-0.9502 -0.2134,-1.7037 -0.6395,-2.2604 -0.4268,-0.5561 -1.0074,-0.8339 -1.7418,-0.8339 -0.7345,0 -1.315,0.2778 -1.7414,0.8339 -0.4266,0.5567 -0.64,1.3102 -0.64,2.2604 0,0.9501 0.2134,1.7036 0.64,2.2597 0.4264,0.5562 1.0069,0.8343 1.7414,0.8343 0.7344,0 1.315,-0.2781 1.7418,-0.8343 0.4261,-0.5561 0.6395,-1.3096 0.6395,-2.2597 z" />
          </g>
        </g>
        <g
           id="Layer1004">
          <g
             id="Layer1005">
            <path
               inkscape:connector-curvature="0"
               id="path604"
               style="fill:#1b1918;fill-rule:evenodd"
               d="m 52.0328,66.9888 c -1.1622,0 -2.16,-0.1675 -2.9945,-0.5032 C 48.2032,66.1503 47.5118,65.6795 46.9636,65.074 46.4151,64.4688 46.0103,63.7567 45.7487,62.9384 45.4865,62.12 45.3555,61.22 45.3555,60.2381 V 49.6087 h 3.1178 v 10.3351 c 0,0.7691 0.0859,1.4276 0.2577,1.9761 0.1721,0.5482 0.4176,0.9941 0.7365,1.3376 0.3191,0.3436 0.6956,0.5973 1.1293,0.7609 0.4337,0.1635 0.9204,0.2457 1.4604,0.2457 0.54,0 1.0312,-0.0822 1.4732,-0.2457 0.4419,-0.1636 0.8223,-0.4173 1.1417,-0.7609 0.3187,-0.3435 0.5644,-0.7894 0.7362,-1.3376 0.1718,-0.5485 0.2577,-1.207 0.2577,-1.9761 V 49.6087 h 3.1172 v 10.6294 c 0,0.9819 -0.1346,1.8819 -0.4048,2.7003 -0.2698,0.8183 -0.6791,1.5304 -1.2274,2.1356 -0.5482,0.6055 -1.2481,1.0763 -2.0987,1.4116 -0.851,0.3357 -1.8579,0.5032 -3.0195,0.5032 z" />
            <path
               inkscape:connector-curvature="0"
               id="path606"
               style="fill:#1b1918;fill-rule:evenodd"
               d="m 62.4411,54.543 c 0.5728,-0.1633 1.3172,-0.3189 2.2339,-0.4663 0.9165,-0.1477 1.9307,-0.2214 3.0439,-0.2214 1.0474,0 1.9227,0.1434 2.6263,0.4297 0.7038,0.2866 1.2648,0.6874 1.6818,1.2031 0.4175,0.5153 0.712,1.1378 0.8838,1.8657 0.1718,0.728 0.2577,1.5259 0.2577,2.393 v 7.2176 h -2.9701 v -6.7507 c 0,-0.6874 -0.0454,-1.2725 -0.1353,-1.7552 -0.0898,-0.4825 -0.2372,-0.8756 -0.4419,-1.1784 -0.2046,-0.3027 -0.483,-0.5235 -0.8345,-0.663 -0.3521,-0.1386 -0.7818,-0.2086 -1.2883,-0.2086 -0.3771,0 -0.7697,0.0243 -1.179,0.0737 -0.409,0.049 -0.7115,0.0898 -0.9082,0.1227 v 10.3595 h -2.9701 z" />
            <path
               inkscape:connector-curvature="0"
               id="path608"
               style="fill:#1b1918;fill-rule:evenodd"
               d="m 79.968,50.3701 c 0,0.5562 -0.1803,0.9981 -0.54,1.3252 -0.36,0.3277 -0.7858,0.491 -1.2765,0.491 -0.5074,0 -0.9414,-0.1633 -1.3014,-0.491 -0.3597,-0.3271 -0.54,-0.769 -0.54,-1.3252 0,-0.5729 0.1803,-1.023 0.54,-1.3507 0.36,-0.3271 0.794,-0.4907 1.3014,-0.4907 0.4907,0 0.9165,0.1636 1.2765,0.4907 0.3597,0.3277 0.54,0.7778 0.54,1.3507 z m -0.3189,16.5943 v 0 H 76.6784 V 54.1257 h 2.9707 z" />
            <path
               inkscape:connector-curvature="0"
               id="path610"
               style="fill:#1b1918;fill-rule:evenodd"
               d="m 87.5529,53.5608 c 0.9819,0 1.8082,0.1233 2.4795,0.3682 0.6704,0.2458 1.2064,0.5893 1.6078,1.0313 0.4005,0.4419 0.6871,0.9782 0.8589,1.608 0.172,0.6299 0.2579,1.3216 0.2579,2.0742 v 7.7816 c -0.4586,0.0984 -1.15,0.2174 -2.0744,0.3561 -0.9246,0.1391 -1.9681,0.2086 -3.1297,0.2086 -0.7696,0 -1.4732,-0.074 -2.1115,-0.2208 -0.6381,-0.1474 -1.1824,-0.3844 -1.6322,-0.7118 -0.4502,-0.3274 -0.8022,-0.7526 -1.0556,-1.2765 -0.254,-0.5238 -0.3804,-1.1698 -0.3804,-1.9394 0,-0.7365 0.1431,-1.3587 0.4297,-1.8658 0.286,-0.5068 0.6749,-0.9204 1.1659,-1.2399 0.4909,-0.3189 1.0593,-0.5476 1.7061,-0.6868 0.6466,-0.1392 1.3213,-0.2089 2.0254,-0.2089 0.3271,0 0.6704,0.021 1.0307,0.0615 0.36,0.0408 0.7446,0.1103 1.154,0.2084 v -0.4907 c 0,-0.3439 -0.0411,-0.671 -0.1228,-0.9819 -0.0825,-0.311 -0.2256,-0.5851 -0.4297,-0.8224 -0.205,-0.2372 -0.4751,-0.4212 -0.8099,-0.5527 -0.3359,-0.1304 -0.7574,-0.1965 -1.2642,-0.1965 -0.6874,0 -1.3178,0.0496 -1.8907,0.1477 -0.5726,0.0981 -1.0389,0.2129 -1.3989,0.3439 l -0.368,-2.4058 c 0.3759,-0.131 0.9241,-0.2619 1.6444,-0.3932 0.7203,-0.1304 1.4893,-0.1964 2.3077,-0.1964 z m 0.2455,11.0713 v 0 c 0.9161,0 1.6115,-0.0494 2.0866,-0.1474 v -3.2891 c -0.1636,-0.0493 -0.4014,-0.0986 -0.7121,-0.1474 -0.311,-0.0493 -0.6548,-0.0737 -1.0312,-0.0737 -0.3272,0 -0.6588,0.0244 -0.9942,0.0737 -0.3353,0.0488 -0.638,0.1392 -0.9082,0.2702 -0.2698,0.1312 -0.4867,0.3152 -0.6502,0.5522 -0.1642,0.2372 -0.2458,0.536 -0.2458,0.896 0,0.7041 0.2214,1.1902 0.6633,1.4604 0.4419,0.2699 1.0389,0.4051 1.7918,0.4051 z" />
            <path
               inkscape:connector-curvature="0"
               id="path612"
               style="fill:#1b1918;fill-rule:evenodd"
               d="M 101.9625,66.9644 V 49.9526 h 10.9239 v 2.6263 h -7.831 v 4.1978 h 6.9715 v 2.5775 h -6.9715 v 4.9836 h 8.4198 v 2.6266 z" />
            <path
               inkscape:connector-curvature="0"
               id="path614"
               style="fill:#1b1918;fill-rule:evenodd"
               d="m 126.1667,66.3017 c -0.5734,0.1468 -1.3175,0.2987 -2.234,0.4541 -0.917,0.1556 -1.9233,0.233 -3.0194,0.233 -1.031,0 -1.8947,-0.1471 -2.5898,-0.4419 -0.6959,-0.2946 -1.252,-0.7033 -1.669,-1.2272 -0.4175,-0.5238 -0.7163,-1.15 -0.8966,-1.8779 -0.18,-0.7279 -0.2698,-1.5259 -0.2698,-2.3936 v -7.1929 h 2.9704 v 6.7266 c 0,1.3745 0.2004,2.3565 0.6012,2.9458 0.4008,0.5887 1.1007,0.8833 2.0991,0.8833 0.36,0 0.7404,-0.0162 1.1415,-0.0488 0.4011,-0.0326 0.6993,-0.0737 0.896,-0.1225 V 53.8553 h 2.9704 z" />
            <path
               inkscape:connector-curvature="0"
               id="path616"
               style="fill:#1b1918;fill-rule:evenodd"
               d="m 137.115,56.8011 c -0.2458,-0.0817 -0.5857,-0.1676 -1.0188,-0.2571 -0.434,-0.0899 -0.9374,-0.1355 -1.5097,-0.1355 -0.3277,0 -0.6752,0.0331 -1.0435,0.0981 -0.3682,0.0654 -0.6258,0.1227 -0.7732,0.172 v 10.2858 h -2.9705 V 54.7391 c 0.5729,-0.2123 1.2892,-0.413 2.1481,-0.6009 0.8595,-0.1882 1.8125,-0.2829 2.8599,-0.2829 0.1962,0 0.4252,0.0128 0.6874,0.0371 0.2619,0.0244 0.5236,0.0576 0.7858,0.0981 0.261,0.0411 0.515,0.0904 0.7605,0.1477 0.2458,0.057 0.4419,0.1103 0.5896,0.159 z" />
            <path
               inkscape:connector-curvature="0"
               id="path618"
               style="fill:#1b1918;fill-rule:evenodd"
               d="m 151.1564,60.2137 c 0,1.0148 -0.1474,1.9389 -0.4419,2.774 -0.2945,0.8345 -0.7118,1.5463 -1.2521,2.1353 -0.54,0.5893 -1.1903,1.0477 -1.9514,1.3751 -0.7608,0.3274 -1.5995,0.4907 -2.5163,0.4907 -0.9164,0 -1.7515,-0.1633 -2.5038,-0.4907 -0.7529,-0.3274 -1.3995,-0.7858 -1.9395,-1.3751 -0.54,-0.589 -0.9615,-1.3008 -1.2642,-2.1353 -0.3028,-0.8351 -0.4541,-1.7592 -0.4541,-2.774 0,-1.0145 0.1513,-1.9349 0.4541,-2.7615 0.3027,-0.8263 0.7282,-1.5344 1.277,-2.1237 0.5476,-0.5894 1.1982,-1.0435 1.9511,-1.3624 0.7528,-0.3191 1.5791,-0.479 2.4794,-0.479 0.9,0 1.7306,0.1599 2.4917,0.479 0.7608,0.3189 1.4116,0.773 1.9516,1.3624 0.5403,0.5893 0.961,1.2974 1.2643,2.1237 0.3027,0.8266 0.4541,1.747 0.4541,2.7615 z m -3.0441,0 v 0 c 0,-1.2767 -0.2744,-2.287 -0.8221,-3.0317 -0.5488,-0.7446 -1.3136,-1.1174 -2.2955,-1.1174 -0.9819,0 -1.747,0.3728 -2.2955,1.1174 -0.5482,0.7447 -0.822,1.755 -0.822,3.0317 0,1.2929 0.2738,2.3159 0.822,3.0685 0.5485,0.7529 1.3136,1.1288 2.2955,1.1288 0.9819,0 1.7467,-0.3759 2.2955,-1.1288 0.5477,-0.7526 0.8221,-1.7756 0.8221,-3.0685 z" />
            <path
               inkscape:connector-curvature="0"
               id="path620"
               style="fill:#1b1918;fill-rule:evenodd"
               d="m 165.6395,60.557 c 0,0.9819 -0.1273,1.8825 -0.3805,2.7005 -0.2539,0.8187 -0.6179,1.5222 -1.0924,2.111 -0.4751,0.5893 -1.0678,1.0474 -1.7799,1.3751 -0.7118,0.3271 -1.518,0.4907 -2.4177,0.4907 -0.6055,0 -1.1622,-0.0737 -1.6696,-0.2209 -0.5074,-0.1474 -0.9249,-0.3109 -1.2518,-0.4909 v 4.9833 h -2.9704 V 54.543 c 0.6055,-0.1633 1.3502,-0.3189 2.234,-0.4663 0.8838,-0.1477 1.8164,-0.2214 2.7984,-0.2214 1.0145,0 1.9227,0.1556 2.7249,0.4669 0.8019,0.3109 1.4851,0.7568 2.05,1.3379 0.5644,0.5808 0.9978,1.2847 1.3008,2.1107 0.3025,0.8269 0.4542,1.7555 0.4542,2.7862 z m -3.0442,0.0493 v 0 c 0,-1.3258 -0.2987,-2.3564 -0.896,-3.0932 -0.5975,-0.7364 -1.5585,-1.1046 -2.8843,-1.1046 -0.2783,0 -0.5689,0.0122 -0.8716,0.0365 -0.3028,0.025 -0.601,0.0783 -0.8958,0.1599 v 7.3398 c 0.2617,0.1802 0.6098,0.3481 1.0432,0.5034 0.4337,0.1559 0.896,0.233 1.387,0.233 1.0806,0 1.8694,-0.3682 2.3689,-1.1047 0.4992,-0.7361 0.7486,-1.7265 0.7486,-2.9701 z" />
            <path
               inkscape:connector-curvature="0"
               id="path622"
               style="fill:#1b1918;fill-rule:evenodd"
               d="m 167.8482,60.3118 c 0,-1.1293 0.1675,-2.1189 0.5034,-2.9707 0.3351,-0.8504 0.7813,-1.5585 1.338,-2.1229 0.5562,-0.5649 1.1942,-0.9904 1.9145,-1.277 0.7203,-0.286 1.4567,-0.4292 2.2096,-0.4292 1.7674,0 3.1459,0.5485 4.1361,1.6447 0.9904,1.0964 1.4853,2.7332 1.4853,4.9096 0,0.1636 -0.004,0.3478 -0.0122,0.5522 -0.009,0.2049 -0.021,0.3892 -0.0371,0.5522 h -8.4691 c 0.0819,1.0315 0.4456,1.8292 1.0928,2.3936 0.646,0.5643 1.5828,0.8467 2.8105,0.8467 0.7203,0 1.3785,-0.065 1.9761,-0.1962 0.5972,-0.131 1.0678,-0.2701 1.4116,-0.417 l 0.3926,2.4302 c -0.1636,0.0819 -0.3886,0.1678 -0.6749,0.2576 -0.2866,0.0899 -0.6137,0.1721 -0.9819,0.2452 -0.3683,0.0737 -0.7651,0.1352 -1.1903,0.184 -0.4258,0.0496 -0.8595,0.074 -1.3014,0.074 -1.1293,0 -2.1112,-0.1675 -2.9458,-0.5032 -0.8345,-0.3353 -1.5219,-0.8016 -2.0619,-1.3994 -0.5403,-0.597 -0.9414,-1.3011 -1.2027,-2.1113 -0.2622,-0.8101 -0.3932,-1.6974 -0.3932,-2.6631 z m 8.6162,-1.3255 v 0 c 0,-0.4093 -0.057,-0.798 -0.1712,-1.1662 -0.1148,-0.3679 -0.2829,-0.6874 -0.5034,-0.9575 -0.2212,-0.2699 -0.4913,-0.4822 -0.8102,-0.6381 -0.3192,-0.1553 -0.6996,-0.2336 -1.1415,-0.2336 -0.4586,0 -0.8589,0.0862 -1.2027,0.258 -0.3439,0.1718 -0.6347,0.3968 -0.8717,0.6752 -0.2373,0.2784 -0.4212,0.5978 -0.5522,0.9573 -0.1312,0.3602 -0.2211,0.7285 -0.2701,1.1049 z" />
            <path
               inkscape:connector-curvature="0"
               id="path624"
               style="fill:#1b1918;fill-rule:evenodd"
               d="m 180.7852,71.5302 c -0.2128,0 -0.511,-0.0204 -0.896,-0.0615 -0.3841,-0.0411 -0.724,-0.1188 -1.019,-0.233 l 0.3931,-2.4302 c 0.36,0.1142 0.794,0.1715 1.3008,0.1715 0.6874,0 1.1699,-0.2001 1.4483,-0.6012 0.2783,-0.4014 0.4175,-1.0029 0.4175,-1.804 V 54.1257 h 2.9702 v 12.4949 c 0,1.6693 -0.3969,2.9046 -1.1906,3.7068 -0.7937,0.8014 -1.9355,1.2028 -3.4243,1.2028 z m 4.9343,-21.1601 v 0 c 0,0.5562 -0.1803,0.9981 -0.5403,1.3252 -0.3603,0.3277 -0.7854,0.491 -1.2761,0.491 -0.508,0 -0.9414,-0.1633 -1.3014,-0.491 -0.3603,-0.3271 -0.54,-0.769 -0.54,-1.3252 0,-0.5729 0.1797,-1.023 0.54,-1.3507 0.36,-0.3271 0.7934,-0.4907 1.3014,-0.4907 0.4907,0 0.9158,0.1636 1.2761,0.4907 0.36,0.3277 0.5403,0.7778 0.5403,1.3507 z" />
            <path
               inkscape:connector-curvature="0"
               id="path626"
               style="fill:#1b1918;fill-rule:evenodd"
               d="m 192.2491,64.534 c 0.7858,0 1.3584,-0.0941 1.7184,-0.2821 0.3597,-0.1879 0.54,-0.5113 0.54,-0.9697 0,-0.4255 -0.1925,-0.7775 -0.5766,-1.0556 -0.3849,-0.2781 -1.0193,-0.5808 -1.9026,-0.9082 -0.54,-0.1965 -1.0355,-0.4054 -1.4851,-0.6262 -0.4504,-0.2211 -0.839,-0.4785 -1.1661,-0.7733 -0.3277,-0.2945 -0.5854,-0.6506 -0.7736,-1.0678 -0.1877,-0.417 -0.2821,-0.9284 -0.2821,-1.5344 0,-1.1781 0.4337,-2.1067 1.3014,-2.7859 0.8671,-0.6789 2.0452,-1.0188 3.5345,-1.0188 0.7526,0 1.4732,0.0698 2.1603,0.2087 0.6874,0.1391 1.203,0.2744 1.5469,0.405 l -0.5403,2.4055 c -0.3274,-0.1471 -0.7449,-0.2823 -1.2518,-0.4048 -0.5077,-0.123 -1.0967,-0.1842 -1.7677,-0.1842 -0.6054,0 -1.0967,0.1026 -1.4731,0.3067 -0.3765,0.2052 -0.5644,0.5201 -0.5644,0.9453 0,0.2129 0.0371,0.4009 0.1106,0.5644 0.0737,0.1641 0.2001,0.3155 0.3806,0.4541 0.1798,0.1392 0.417,0.2784 0.7118,0.4176 0.2945,0.1391 0.6545,0.2823 1.0803,0.4297 0.703,0.2616 1.3008,0.5196 1.7918,0.773 0.4909,0.2537 0.896,0.54 1.2149,0.8592 0.3195,0.3189 0.5522,0.6837 0.6999,1.0925 0.1474,0.409 0.2211,0.9002 0.2211,1.4728 0,1.2272 -0.4547,2.1564 -1.3629,2.7865 -0.9082,0.6296 -2.2054,0.9448 -3.8906,0.9448 -1.1293,0 -2.0375,-0.0938 -2.7252,-0.2823 -0.6868,-0.188 -1.1698,-0.3394 -1.4482,-0.4542 l 0.5156,-2.4794 c 0.4419,0.1805 0.9697,0.352 1.5837,0.5156 0.6132,0.1638 1.313,0.2455 2.0985,0.2455 z" />
            <path
               inkscape:connector-curvature="0"
               id="path628"
               style="fill:#1b1918;fill-rule:evenodd"
               d="m 203.0744,59.1331 c 0.3764,-0.3926 0.7772,-0.8135 1.203,-1.2642 0.4255,-0.4496 0.8427,-0.8997 1.252,-1.3499 0.4088,-0.4498 0.798,-0.8838 1.1659,-1.3008 0.3682,-0.4175 0.6832,-0.7812 0.9451,-1.0925 h 3.5107 c -0.8189,0.9168 -1.6818,1.8652 -2.59,2.8474 -0.9085,0.982 -1.8207,1.9395 -2.7371,2.8721 0.4912,0.4096 1.0063,0.9045 1.5463,1.4854 0.54,0.5808 1.0638,1.199 1.5712,1.8532 0.5068,0.6548 0.9819,1.3096 1.4238,1.9642 0.442,0.6545 0.8102,1.26 1.1047,1.8164 h -3.4367 c -0.2948,-0.5071 -0.6347,-1.0392 -1.0191,-1.5959 -0.3846,-0.5562 -0.7979,-1.0962 -1.2393,-1.62 -0.4419,-0.5236 -0.8926,-1.0188 -1.3504,-1.4854 -0.4581,-0.4663 -0.9082,-0.8628 -1.3501,-1.1905 v 5.8918 h -2.9702 V 50.4432 l 2.9702,-0.4906 z" />
            <path
               inkscape:connector-curvature="0"
               id="path630"
               style="fill:#1b1918;fill-rule:evenodd"
               d="m 217.7541,53.5608 c 0.982,0 1.808,0.1233 2.4795,0.3682 0.6704,0.2458 1.2064,0.5893 1.6078,1.0313 0.4005,0.4419 0.6871,0.9782 0.8589,1.608 0.1718,0.6299 0.2577,1.3216 0.2577,2.0742 v 7.7816 c -0.4584,0.0984 -1.1498,0.2174 -2.0741,0.3561 -0.9247,0.1391 -1.9681,0.2086 -3.1298,0.2086 -0.7696,0 -1.4731,-0.074 -2.1115,-0.2208 -0.6381,-0.1474 -1.1826,-0.3844 -1.6322,-0.7118 -0.4501,-0.3274 -0.8022,-0.7526 -1.0556,-1.2765 -0.254,-0.5238 -0.3804,-1.1698 -0.3804,-1.9394 0,-0.7365 0.1431,-1.3587 0.4297,-1.8658 0.286,-0.5068 0.6747,-0.9204 1.1659,-1.2399 0.4907,-0.3189 1.059,-0.5476 1.7062,-0.6868 0.6463,-0.1392 1.3212,-0.2089 2.0253,-0.2089 0.3271,0 0.6704,0.021 1.0307,0.0615 0.36,0.0408 0.7447,0.1103 1.154,0.2084 v -0.4907 c 0,-0.3439 -0.0411,-0.671 -0.1227,-0.9819 -0.0825,-0.311 -0.2257,-0.5851 -0.4298,-0.8224 -0.2049,-0.2372 -0.4751,-0.4212 -0.8098,-0.5527 -0.3362,-0.1304 -0.7575,-0.1965 -1.2643,-0.1965 -0.6874,0 -1.3178,0.0496 -1.8907,0.1477 -0.5726,0.0981 -1.0389,0.2129 -1.3989,0.3439 l -0.3682,-2.4058 c 0.3761,-0.131 0.9244,-0.2619 1.6446,-0.3932 0.7203,-0.1304 1.4894,-0.1964 2.3077,-0.1964 z m 0.2455,11.0713 v 0 c 0.9162,0 1.6115,-0.0494 2.0866,-0.1474 v -3.2891 c -0.1636,-0.0493 -0.4014,-0.0986 -0.7121,-0.1474 -0.3109,-0.0493 -0.6548,-0.0737 -1.0312,-0.0737 -0.3271,0 -0.6588,0.0244 -0.9941,0.0737 -0.3354,0.0488 -0.6381,0.1392 -0.9082,0.2702 -0.2702,0.1312 -0.4868,0.3152 -0.6503,0.5522 -0.1641,0.2372 -0.2458,0.536 -0.2458,0.896 0,0.7041 0.2211,1.1902 0.663,1.4604 0.442,0.2699 1.0392,0.4051 1.7921,0.4051 z" />
          </g>
        </g>
      </g>
      <g
         inkscape:label="Layer 1"
         id="layer1-4"
         transform="translate(-65.281659,-65.99006)">
        <g
           transform="translate(-2.91625e-7,-0.66143621)"
           id="layer1-9"
           inkscape:label="Layer 1">
          <g
             transform="matrix(0.26458333,0,0,0.26458333,47.852322,97.714845)"
             id="Layer1000-5">
            <g
               id="Layer1001-2">
              <path
                 inkscape:connector-curvature="0"
                 id="path7378"
                 style="fill:#004394;fill-rule:evenodd"
                 d="M 90.7153,136.063 45.3547,127.559 V 59.5276 L 90.7153,45.3543 Z" />
              <path
                 inkscape:connector-curvature="0"
                 id="path7380"
                 style="fill:#ffec00;fill-rule:evenodd"
                 d="M 45.3609,111.2088 V 93.5459 c 2.2836,0.6216 4.8249,0.913 6.5005,-0.0978 3.664,-2.1853 9.2126,-8.8756 9.2126,-8.8756 0,0 -2.9257,7.2153 -1.8216,9.8648 1.1659,2.812 8.0983,2.9634 8.0983,2.9634 0,0 -7.8364,4.7647 -11.484,7.9237 -3.7508,3.2204 -6.3553,15.0627 -6.3553,15.0627 0,0 -1.8184,-7.59 -4.1505,-9.1783 z" />
              <path
                 inkscape:connector-curvature="0"
                 id="path7382"
                 style="fill:#e30016;fill-rule:evenodd"
                 d="m 90.7153,80.0481 c -1.5693,0.9882 -3.1085,1.7663 -4.2664,1.9916 -3.6446,0.703 -7.5456,-3.4832 -7.5456,-3.4832 0,0 0.9165,6.1214 -1.3765,9.8929 -2.4134,3.9739 -10.1758,8.9507 -10.1758,8.9507 0,0 8.5799,-1.6602 10.2481,1.0006 1.7742,2.8543 2.0112,12.7942 2.0112,12.7942 0,0 4.3716,-11.9338 8.3378,-13.5601 0.7722,-0.3274 1.7371,-0.6321 2.7672,-0.9244 z" />
              <path
                 inkscape:connector-curvature="0"
                 id="path7384"
                 style="fill:#ffffff;fill-rule:evenodd"
                 d="m 61.0742,84.5725 c 0,0 4.3838,-6.8695 4.1188,-9.3141 -0.2597,-2.321 -4.8064,-3.1578 -4.8064,-3.1578 0,0 5.953,-1.4618 8.549,-3.7961 2.5044,-2.2553 4.6941,-6.9336 4.6941,-6.9336 0,0 0.5536,3.8713 2.7805,4.426 2.2981,0.5786 8.4376,-1.9 8.4376,-1.9 0,0 -4.8466,4.5856 -6.749,7.0869 -1.9865,2.6081 0.8045,7.5724 0.8045,7.5724 0,0 -5.1437,-1.7898 -8.0212,-1.2515 -2.8332,0.5372 -9.8079,7.2678 -9.8079,7.2678 z" />
            </g>
            <g
               id="Layer1002-0">
              <path
                 inkscape:connector-curvature="0"
                 id="path7387"
                 style="fill:#1b1918;fill-rule:evenodd"
                 d="M 113.3788,79.3689 V 62.3574 h 10.7521 v 2.6263 h -7.6592 v 4.3452 h 6.7998 v 2.6266 h -6.7998 v 7.4134 z" />
              <path
                 inkscape:connector-curvature="0"
                 id="path7389"
                 style="fill:#1b1918;fill-rule:evenodd"
                 d="m 136.6017,78.7065 c -0.5732,0.1468 -1.3173,0.2988 -2.234,0.4541 -0.917,0.1556 -1.9233,0.2327 -3.0195,0.2327 -1.0307,0 -1.8947,-0.1468 -2.5897,-0.4419 -0.6959,-0.2942 -1.2521,-0.703 -1.669,-1.2268 -0.4176,-0.5242 -0.7164,-1.1501 -0.8966,-1.878 -0.18,-0.7282 -0.2699,-1.5259 -0.2699,-2.3936 v -7.1929 h 2.9707 v 6.7266 c 0,1.3746 0.2001,2.3565 0.6009,2.9458 0.4009,0.5888 1.1007,0.8833 2.0994,0.8833 0.3597,0 0.7401,-0.0162 1.1415,-0.0488 0.4008,-0.0329 0.6993,-0.0737 0.896,-0.1227 V 66.2601 h 2.9702 z" />
              <path
                 inkscape:connector-curvature="0"
                 id="path7391"
                 style="fill:#1b1918;fill-rule:evenodd"
                 d="m 140.2348,66.9475 c 0.5729,-0.163 1.3176,-0.3186 2.234,-0.4663 0.9165,-0.1474 1.9307,-0.2211 3.0439,-0.2211 1.0474,0 1.923,0.1437 2.6265,0.4298 0.7036,0.2865 1.2646,0.6874 1.6816,1.203 0.4175,0.5153 0.712,1.1378 0.8838,1.8657 0.1721,0.728 0.258,1.5259 0.258,2.393 v 7.2173 h -2.9702 v -6.7504 c 0,-0.6874 -0.0456,-1.2725 -0.1352,-1.7555 -0.0901,-0.4822 -0.2375,-0.8753 -0.4419,-1.1781 -0.2047,-0.3027 -0.483,-0.5235 -0.8345,-0.663 -0.3521,-0.1386 -0.7818,-0.2086 -1.2887,-0.2086 -0.377,0 -0.7696,0.0246 -1.1786,0.0737 -0.4093,0.049 -0.7115,0.0898 -0.9082,0.1227 v 10.3592 h -2.9705 z" />
              <path
                 inkscape:connector-curvature="0"
                 id="path7393"
                 style="fill:#1b1918;fill-rule:evenodd"
                 d="m 165.2979,78.6815 c -0.5887,0.1806 -1.33,0.3439 -2.2215,0.4913 -0.8918,0.1468 -1.8283,0.2205 -2.8105,0.2205 -1.0148,0 -1.9231,-0.1553 -2.7247,-0.4663 -0.8019,-0.3104 -1.4854,-0.7566 -2.05,-1.3377 -0.565,-0.5805 -0.9984,-1.2849 -1.3011,-2.1109 -0.3028,-0.8266 -0.4541,-1.7555 -0.4541,-2.7865 0,-1.0142 0.1264,-1.9352 0.3804,-2.7615 0.2537,-0.8266 0.6259,-1.5344 1.1171,-2.1234 0.4913,-0.5893 1.088,-1.0434 1.7921,-1.3623 0.703,-0.3195 1.5137,-0.4791 2.4307,-0.4791 0.6211,0 1.1687,0.0737 1.6444,0.2214 0.4745,0.1468 0.8838,0.3109 1.2276,0.4907 v -3.8296 l 2.9696,-0.4907 z m -8.5175,-6.063 v 0 c 0,1.3091 0.3107,2.336 0.9326,3.0807 0.621,0.7444 1.4805,1.1166 2.5772,1.1166 0.4746,0 0.8799,-0.0199 1.2158,-0.061 0.3351,-0.0405 0.6095,-0.0859 0.8223,-0.1352 v -7.3644 c -0.2627,-0.1797 -0.6105,-0.3475 -1.044,-0.5034 -0.4337,-0.1554 -0.8954,-0.2328 -1.3867,-0.2328 -1.0802,0 -1.8703,0.368 -2.3692,1.1044 -0.4991,0.7362 -0.748,1.7348 -0.748,2.9951 z" />
              <path
                 inkscape:connector-curvature="0"
                 id="path7395"
                 style="fill:#1b1918;fill-rule:evenodd"
                 d="m 179.4621,78.7065 c -0.5723,0.1468 -1.3176,0.2988 -2.2334,0.4541 -0.917,0.1556 -1.9231,0.2327 -3.0195,0.2327 -1.0312,0 -1.8947,-0.1468 -2.59,-0.4419 -0.6954,-0.2942 -1.2518,-0.703 -1.6691,-1.2268 -0.4178,-0.5242 -0.7166,-1.1501 -0.8963,-1.878 -0.1797,-0.7282 -0.2695,-1.5259 -0.2695,-2.3936 v -7.1929 h 2.9698 v 6.7266 c 0,1.3746 0.2001,2.3565 0.6015,2.9458 0.4014,0.5888 1.1007,0.8833 2.0985,0.8833 0.3606,0 0.7404,-0.0162 1.1418,-0.0488 0.4014,-0.0329 0.7002,-0.0737 0.8963,-0.1227 V 66.2601 h 2.9699 z" />
              <path
                 inkscape:connector-curvature="0"
                 id="path7397"
                 style="fill:#1b1918;fill-rule:evenodd"
                 d="m 186.3117,76.9388 c 0.7852,0 1.3572,-0.0941 1.7178,-0.2821 0.3603,-0.1882 0.54,-0.5113 0.54,-0.9697 0,-0.4255 -0.1925,-0.7775 -0.5771,-1.0559 -0.385,-0.2778 -1.0185,-0.5805 -1.9024,-0.9082 -0.5402,-0.1962 -1.0352,-0.4051 -1.4845,-0.6259 -0.4512,-0.2211 -0.8387,-0.4785 -1.167,-0.7733 -0.3271,-0.2945 -0.585,-0.6505 -0.7724,-1.0681 -0.1885,-0.417 -0.2823,-0.928 -0.2823,-1.5341 0,-1.1781 0.4328,-2.107 1.3008,-2.7862 0.8674,-0.6786 2.0449,-1.0185 3.5353,-1.0185 0.7518,0 1.4726,0.0698 2.16,0.2084 0.6874,0.1392 1.2022,0.2747 1.5461,0.4053 l -0.54,2.4055 c -0.3274,-0.1471 -0.7444,-0.2823 -1.2521,-0.4048 -0.5068,-0.123 -1.0967,-0.1842 -1.7677,-0.1842 -0.6052,0 -1.0956,0.1026 -1.4726,0.3067 -0.3759,0.2049 -0.5644,0.5202 -0.5644,0.9453 0,0.2129 0.0372,0.4009 0.1103,0.5644 0.0743,0.1642 0.2004,0.3155 0.381,0.4541 0.1797,0.1392 0.417,0.2784 0.7118,0.4176 0.2939,0.1392 0.6545,0.282 1.08,0.4297 0.7032,0.2616 1.3008,0.5193 1.792,0.773 0.4913,0.2537 0.8955,0.54 1.2149,0.8592 0.3195,0.3189 0.5528,0.6837 0.7002,1.0922 0.1466,0.4093 0.2208,0.9006 0.2208,1.4734 0,1.2269 -0.4541,2.1561 -1.3623,2.7859 -0.9082,0.6299 -2.2062,0.9448 -3.8917,0.9448 -1.1287,0 -2.037,-0.0935 -2.7247,-0.282 -0.6874,-0.188 -1.1698,-0.3396 -1.4482,-0.4541 l 0.5156,-2.4795 c 0.4414,0.1806 0.9698,0.3518 1.5832,0.5156 0.6143,0.1641 1.3133,0.2455 2.0996,0.2455 z" />
              <path
                 inkscape:connector-curvature="0"
                 id="path7399"
                 style="fill:#1b1918;fill-rule:evenodd"
                 d="m 203.1504,68.6171 c -0.328,0.3436 -0.7577,0.8266 -1.2889,1.4482 -0.5324,0.6223 -1.1007,1.3136 -1.7062,2.0742 -0.6064,0.7613 -1.2158,1.5553 -1.8289,2.3813 -0.6143,0.8266 -1.1662,1.6164 -1.6575,2.3687 h 6.6291 v 2.4794 h -10.212 v -1.8411 c 0.3594,-0.6545 0.8095,-1.3663 1.3498,-2.1353 0.54,-0.769 1.0965,-1.5426 1.6688,-2.3199 0.5734,-0.7772 1.1415,-1.5182 1.7061,-2.2218 0.5653,-0.7035 1.0681,-1.3172 1.5098,-1.8411 h -5.9162 v -2.4792 h 9.7461 z" />
              <path
                 inkscape:connector-curvature="0"
                 id="path7401"
                 style="fill:#1b1918;fill-rule:evenodd"
                 d="m 204.7706,72.7166 c 0,-1.1293 0.167,-2.1192 0.5029,-2.9707 0.3351,-0.8504 0.7812,-1.5585 1.338,-2.1229 0.5556,-0.5649 1.1942,-0.9904 1.9151,-1.277 0.7197,-0.286 1.4561,-0.4292 2.209,-0.4292 1.7674,0 3.1453,0.5485 4.1366,1.6447 0.9893,1.0967 1.4845,2.7332 1.4845,4.9096 0,0.1636 -0.004,0.3475 -0.0119,0.5522 -0.009,0.2052 -0.0204,0.3892 -0.0371,0.5522 h -8.4688 c 0.081,1.0312 0.4453,1.8292 1.0919,2.3936 0.6466,0.5646 1.584,0.8467 2.8114,0.8467 0.7197,0 1.3779,-0.0649 1.9757,-0.1962 0.5976,-0.1309 1.0684,-0.2701 1.4111,-0.417 l 0.3935,2.4302 c -0.1639,0.0819 -0.3895,0.1678 -0.6758,0.2576 -0.286,0.0899 -0.6132,0.1721 -0.9814,0.2452 -0.3682,0.0737 -0.7656,0.1353 -1.1905,0.184 -0.4255,0.0493 -0.8592,0.0737 -1.3017,0.0737 -1.1288,0 -2.1104,-0.1675 -2.9452,-0.5029 -0.8351,-0.3353 -1.5216,-0.8016 -2.0616,-1.3994 -0.5412,-0.597 -0.9414,-1.3011 -1.2031,-2.1113 -0.2616,-0.8101 -0.3926,-1.6971 -0.3926,-2.6631 z m 8.6162,-1.3255 v 0 c 0,-0.4093 -0.0575,-0.7979 -0.1717,-1.1662 -0.1154,-0.3682 -0.2824,-0.6874 -0.504,-0.9575 -0.2209,-0.2699 -0.4904,-0.4825 -0.8096,-0.6381 -0.3192,-0.1553 -0.6993,-0.2333 -1.1415,-0.2333 -0.4581,0 -0.8595,0.0859 -1.2033,0.2577 -0.3436,0.1718 -0.6339,0.3968 -0.8711,0.6752 -0.2373,0.2784 -0.4218,0.5978 -0.5528,0.957 -0.1307,0.3605 -0.2205,0.7285 -0.2696,1.1052 z" />
              <path
                 inkscape:connector-curvature="0"
                 id="path7403"
                 style="fill:#1b1918;fill-rule:evenodd"
                 d="M 113.3788,102.0461 V 85.0345 h 10.9242 v 2.6266 h -7.8313 v 4.1976 h 6.9718 v 2.5778 h -6.9718 v 4.9833 h 8.4201 v 2.6263 z" />
              <path
                 inkscape:connector-curvature="0"
                 id="path7405"
                 style="fill:#1b1918;fill-rule:evenodd"
                 d="m 137.583,101.3836 c -0.5731,0.1469 -1.3172,0.2988 -2.2337,0.4542 -0.917,0.1556 -1.9233,0.233 -3.0197,0.233 -1.0307,0 -1.8944,-0.1472 -2.5898,-0.442 -0.6959,-0.2945 -1.252,-0.7032 -1.669,-1.2271 -0.4173,-0.5238 -0.7163,-1.15 -0.8963,-1.8779 -0.1803,-0.728 -0.2702,-1.5259 -0.2702,-2.3936 v -7.1929 h 2.9708 v 6.7266 c 0,1.3745 0.2001,2.3564 0.6012,2.9458 0.4008,0.589 1.1004,0.8832 2.099,0.8832 0.3598,0 0.7402,-0.0161 1.1416,-0.0487 0.4008,-0.0326 0.6993,-0.0737 0.896,-0.1225 V 88.9373 h 2.9701 z" />
              <path
                 inkscape:connector-curvature="0"
                 id="path7407"
                 style="fill:#1b1918;fill-rule:evenodd"
                 d="m 148.5318,91.8833 c -0.2454,-0.0816 -0.5853,-0.1675 -1.0184,-0.2574 -0.4343,-0.0898 -0.9377,-0.1352 -1.5101,-0.1352 -0.3274,0 -0.6749,0.0332 -1.0431,0.0981 -0.3682,0.0655 -0.6262,0.1225 -0.7736,0.1718 v 10.2855 h -2.9701 v -12.225 c 0.5726,-0.2123 1.2889,-0.413 2.1478,-0.6009 0.8595,-0.188 1.8125,-0.2829 2.8599,-0.2829 0.1964,0 0.4252,0.0127 0.6876,0.0371 0.2617,0.0244 0.5233,0.0578 0.7855,0.0981 0.2614,0.0411 0.5151,0.0904 0.7608,0.1477 0.2455,0.057 0.442,0.1103 0.5894,0.159 z" />
              <path
                 inkscape:connector-curvature="0"
                 id="path7409"
                 style="fill:#1b1918;fill-rule:evenodd"
                 d="m 162.5724,95.2957 c 0,1.0148 -0.1465,1.9389 -0.4413,2.774 -0.2951,0.8345 -0.711,1.5465 -1.2521,2.1353 -0.5392,0.5893 -1.1894,1.0477 -1.9511,1.3748 -0.7619,0.3277 -1.5996,0.491 -2.5157,0.491 -0.917,0 -1.7519,-0.1633 -2.5044,-0.491 -0.7529,-0.3271 -1.3995,-0.7855 -1.9395,-1.3748 -0.54,-0.5888 -0.9612,-1.3008 -1.264,-2.1353 -0.3027,-0.8351 -0.4541,-1.7592 -0.4541,-2.774 0,-1.0145 0.1514,-1.935 0.4541,-2.7618 0.3028,-0.826 0.728,-1.5341 1.2767,-2.1234 0.548,-0.5894 1.1982,-1.0435 1.9514,-1.3624 0.7529,-0.3192 1.5795,-0.4788 2.4798,-0.4788 0.8985,0 1.7305,0.1596 2.4902,0.4788 0.7617,0.3189 1.4122,0.773 1.9531,1.3624 0.5391,0.5893 0.9609,1.2974 1.2637,2.1234 0.3027,0.8268 0.4532,1.7473 0.4532,2.7618 z m -3.043,0 v 0 c 0,-1.2767 -0.2735,-2.287 -0.8223,-3.0317 -0.5488,-0.7446 -1.3125,-1.1171 -2.2949,-1.1171 -0.9825,0 -1.7476,0.3725 -2.2958,1.1171 -0.5485,0.7447 -0.8224,1.755 -0.8224,3.0317 0,1.2931 0.2739,2.3159 0.8224,3.0685 0.5482,0.7529 1.3133,1.1287 2.2958,1.1287 0.9824,0 1.7461,-0.3758 2.2949,-1.1287 0.5488,-0.7526 0.8223,-1.7754 0.8223,-3.0685 z" />
              <path
                 inkscape:connector-curvature="0"
                 id="path7411"
                 style="fill:#1b1918;fill-rule:evenodd"
                 d="m 177.0569,95.639 c 0,0.9819 -0.127,1.8824 -0.3801,2.7008 -0.2537,0.8184 -0.618,1.5219 -1.0928,2.1107 -0.4745,0.5893 -1.0681,1.0474 -1.7802,1.3751 -0.7109,0.3271 -1.5176,0.4906 -2.4179,0.4906 -0.6055,0 -1.1622,-0.0737 -1.669,-0.2205 -0.5069,-0.1477 -0.9247,-0.3112 -1.2518,-0.4912 v 4.9833 h -2.9699 V 89.625 c 0.6044,-0.1633 1.3496,-0.3189 2.2334,-0.4663 0.8839,-0.1477 1.8165,-0.2214 2.799,-0.2214 1.0145,0 1.9227,0.1559 2.7243,0.4669 0.802,0.3109 1.4854,0.7568 2.0501,1.3379 0.5643,0.5811 0.9978,1.2847 1.3008,2.1107 0.3027,0.8268 0.4541,1.7555 0.4541,2.7862 z m -3.0441,0.0493 v 0 c 0,-1.3255 -0.2988,-2.3565 -0.8955,-3.0932 -0.5975,-0.7364 -1.5596,-1.1044 -2.8848,-1.1044 -0.2784,0 -0.5684,0.0122 -0.8711,0.0366 -0.3036,0.0249 -0.6015,0.078 -0.8963,0.1596 v 7.3397 c 0.2616,0.1803 0.6091,0.3484 1.0428,0.5035 0.4335,0.1559 0.8964,0.233 1.3876,0.233 1.0803,0 1.8692,-0.3682 2.3683,-1.1044 0.4989,-0.7364 0.749,-1.7266 0.749,-2.9704 z" />
              <path
                 inkscape:connector-curvature="0"
                 id="path7413"
                 style="fill:#1b1918;fill-rule:evenodd"
                 d="m 179.2668,95.394 c 0,-1.1296 0.1669,-2.1191 0.5028,-2.9707 0.3351,-0.8506 0.7813,-1.5587 1.338,-2.1231 0.5556,-0.565 1.1942,-0.9902 1.9151,-1.277 0.7197,-0.286 1.4559,-0.4292 2.2087,-0.4292 1.7677,0 3.1456,0.5485 4.1369,1.6447 0.9893,1.0967 1.4842,2.7334 1.4842,4.9096 0,0.1635 -0.004,0.3478 -0.0116,0.5522 -0.009,0.2052 -0.0204,0.3892 -0.0371,0.5524 h -8.4688 c 0.0811,1.031 0.4453,1.829 1.0919,2.3933 0.6466,0.5647 1.584,0.8467 2.8114,0.8467 0.7197,0 1.3779,-0.0649 1.9757,-0.1961 0.5976,-0.131 1.0684,-0.2702 1.4111,-0.417 l 0.3935,2.4301 c -0.1641,0.0823 -0.3895,0.1681 -0.6758,0.2577 -0.286,0.0899 -0.6131,0.1721 -0.9813,0.2452 -0.3683,0.0737 -0.7657,0.1352 -1.1906,0.184 -0.4258,0.0493 -0.8592,0.074 -1.3017,0.074 -1.1287,0 -2.1104,-0.1676 -2.9452,-0.5032 -0.8351,-0.3353 -1.5216,-0.8016 -2.0616,-1.3992 -0.5411,-0.5972 -0.9414,-1.3014 -1.203,-2.1115 -0.2619,-0.8099 -0.3926,-1.6971 -0.3926,-2.6629 z m 8.6162,-1.3257 v 0 c 0,-0.4093 -0.0579,-0.798 -0.1718,-1.1662 -0.1154,-0.3682 -0.2823,-0.6874 -0.504,-0.9573 -0.2208,-0.2701 -0.4904,-0.4824 -0.8096,-0.6383 -0.3195,-0.1554 -0.6993,-0.2333 -1.1415,-0.2333 -0.4581,0 -0.8595,0.0859 -1.2033,0.2577 -0.3439,0.172 -0.6338,0.3971 -0.8711,0.6752 -0.2373,0.2783 -0.4218,0.5978 -0.5528,0.9572 -0.1306,0.3603 -0.2205,0.7285 -0.2695,1.105 z" />
              <path
                 inkscape:connector-curvature="0"
                 id="path7415"
                 style="fill:#1b1918;fill-rule:evenodd"
                 d="m 192.2024,106.6122 c -0.2129,0 -0.5108,-0.0205 -0.8958,-0.0616 -0.3846,-0.0411 -0.7245,-0.1184 -1.0184,-0.233 l 0.3926,-2.4301 c 0.3602,0.1142 0.7939,0.1715 1.3008,0.1715 0.6874,0 1.1698,-0.2004 1.4482,-0.601 0.2784,-0.4016 0.4181,-1.0031 0.4181,-1.8042 V 89.208 h 2.9696 v 12.4945 c 0,1.6694 -0.3966,2.9047 -1.1903,3.7069 -0.7943,0.8014 -1.9358,1.2028 -3.4248,1.2028 z m 4.9343,-21.1601 v 0 c 0,0.5561 -0.1806,0.9981 -0.54,1.3252 -0.3603,0.3274 -0.7849,0.4912 -1.2762,0.4912 -0.508,0 -0.9417,-0.1638 -1.3008,-0.4912 -0.3603,-0.3271 -0.54,-0.7691 -0.54,-1.3252 0,-0.5729 0.1797,-1.023 0.54,-1.3507 0.3591,-0.3271 0.7928,-0.4907 1.3008,-0.4907 0.4913,0 0.9159,0.1636 1.2762,0.4907 0.3594,0.3277 0.54,0.7778 0.54,1.3507 z" />
              <path
                 inkscape:connector-curvature="0"
                 id="path7417"
                 style="fill:#1b1918;fill-rule:evenodd"
                 d="m 203.6671,99.6162 c 0.7852,0 1.3572,-0.0943 1.7178,-0.2823 0.3603,-0.1879 0.54,-0.5114 0.54,-0.9697 0,-0.4255 -0.1925,-0.7773 -0.5771,-1.0556 -0.385,-0.2781 -1.0185,-0.5806 -1.9023,-0.9083 -0.54,-0.1964 -1.0353,-0.4053 -1.4846,-0.6258 -0.4509,-0.2214 -0.8387,-0.4788 -1.1667,-0.7736 -0.3274,-0.2945 -0.5851,-0.6506 -0.7727,-1.0678 -0.1885,-0.417 -0.2821,-0.9284 -0.2821,-1.5344 0,-1.1781 0.4326,-2.1067 1.3009,-2.7859 0.8671,-0.6789 2.0449,-1.0188 3.535,-1.0188 0.7521,0 1.4726,0.07 2.16,0.2086 0.6877,0.1392 1.2022,0.2744 1.5461,0.4054 l -0.54,2.4052 c -0.3272,-0.1471 -0.7441,-0.2823 -1.2521,-0.4048 -0.5068,-0.123 -1.0967,-0.184 -1.7674,-0.184 -0.6055,0 -1.0959,0.1024 -1.4726,0.3065 -0.3762,0.2052 -0.5647,0.5201 -0.5647,0.9453 0,0.2129 0.0372,0.4008 0.1106,0.5644 0.074,0.1641 0.2001,0.3155 0.3807,0.4541 0.1797,0.1392 0.417,0.2784 0.7118,0.4175 0.2942,0.1392 0.6545,0.2824 1.0802,0.4298 0.703,0.2616 1.3009,0.5196 1.7921,0.773 0.491,0.2537 0.8955,0.54 1.2146,0.8595 0.3195,0.3186 0.5528,0.6834 0.7002,1.0921 0.1466,0.4091 0.2208,0.9003 0.2208,1.4732 0,1.2271 -0.4541,2.1563 -1.3623,2.7859 -0.9082,0.6301 -2.2059,0.9451 -3.8917,0.9451 -1.1287,0 -2.037,-0.0939 -2.7247,-0.2824 -0.6874,-0.1879 -1.1698,-0.3393 -1.4479,-0.4541 l 0.5153,-2.4794 c 0.4417,0.1805 0.9698,0.352 1.5832,0.5156 0.6143,0.1641 1.3136,0.2457 2.0996,0.2457 z" />
              <path
                 inkscape:connector-curvature="0"
                 id="path7419"
                 style="fill:#1b1918;fill-rule:evenodd"
                 d="m 214.4912,94.2151 c 0.3762,-0.3926 0.7776,-0.8132 1.2033,-1.264 0.4247,-0.4498 0.8428,-0.9 1.2518,-1.3501 0.4093,-0.4499 0.798,-0.8838 1.1662,-1.3008 0.3682,-0.4176 0.6826,-0.7812 0.945,-1.0922 h 3.5099 c -0.8184,0.9164 -1.6815,1.8652 -2.5897,2.8471 -0.9082,0.9819 -1.8204,1.9395 -2.7363,2.8721 0.4901,0.4096 1.0057,0.9048 1.5457,1.4853 0.5403,0.5811 1.0636,1.1991 1.5713,1.8536 0.5071,0.6548 0.9816,1.3093 1.4241,1.9638 0.4413,0.6548 0.8093,1.2603 1.1044,1.8162 h -3.4368 c -0.2948,-0.5065 -0.6346,-1.0389 -1.0184,-1.5956 -0.3847,-0.5562 -0.7977,-1.0962 -1.2402,-1.62 -0.4414,-0.5236 -0.8915,-1.0185 -1.3496,-1.4854 -0.4589,-0.4663 -0.9082,-0.8628 -1.3507,-1.1905 v 5.8915 h -2.9696 V 85.5252 l 2.9696,-0.4907 z" />
              <path
                 inkscape:connector-curvature="0"
                 id="path7421"
                 style="fill:#1b1918;fill-rule:evenodd"
                 d="m 228.214,85.4521 c 0,0.5561 -0.1808,0.9981 -0.54,1.3252 -0.3605,0.3274 -0.7852,0.4912 -1.2764,0.4912 -0.5077,0 -0.9414,-0.1638 -1.3008,-0.4912 -0.3603,-0.3271 -0.54,-0.7691 -0.54,-1.3252 0,-0.5729 0.1797,-1.023 0.54,-1.3507 0.3594,-0.3271 0.7931,-0.4907 1.3008,-0.4907 0.4912,0 0.9159,0.1636 1.2764,0.4907 0.3592,0.3277 0.54,0.7778 0.54,1.3507 z m -0.3194,16.594 v 0 H 224.925 V 89.208 h 2.9696 z" />
              <path
                 inkscape:connector-curvature="0"
                 id="path7423"
                 style="fill:#1b1918;fill-rule:evenodd"
                 d="m 230.8165,95.394 c 0,-1.1296 0.167,-2.1191 0.5029,-2.9707 0.335,-0.8506 0.7812,-1.5587 1.3379,-2.1231 0.5556,-0.565 1.1943,-0.9902 1.9151,-1.277 0.7197,-0.286 1.4562,-0.4292 2.2091,-0.4292 1.7674,0 3.1453,0.5485 4.1365,1.6447 0.9893,1.0967 1.4846,2.7334 1.4846,4.9096 0,0.1635 -0.004,0.3478 -0.012,0.5522 -0.009,0.2052 -0.0204,0.3892 -0.0371,0.5524 h -8.4685 c 0.0811,1.031 0.445,1.829 1.0916,2.3933 0.6466,0.5647 1.584,0.8467 2.8117,0.8467 0.7195,0 1.3777,-0.0649 1.9755,-0.1961 0.5978,-0.131 1.0684,-0.2702 1.4111,-0.417 l 0.3937,2.4301 c -0.1641,0.0823 -0.3898,0.1681 -0.6761,0.2577 -0.286,0.0899 -0.6131,0.1721 -0.9813,0.2452 -0.3682,0.0737 -0.7657,0.1352 -1.1903,0.184 -0.4257,0.0493 -0.8594,0.074 -1.3019,0.074 -1.1288,0 -2.1104,-0.1676 -2.9452,-0.5032 -0.8351,-0.3353 -1.5214,-0.8016 -2.0617,-1.3992 -0.5408,-0.5972 -0.9414,-1.3014 -1.203,-2.1115 -0.2616,-0.8099 -0.3926,-1.6971 -0.3926,-2.6629 z m 8.6162,-1.3257 v 0 c 0,-0.4093 -0.0575,-0.798 -0.1718,-1.1662 -0.1154,-0.3682 -0.2823,-0.6874 -0.504,-0.9573 -0.2205,-0.2701 -0.4901,-0.4824 -0.8096,-0.6383 -0.3191,-0.1554 -0.699,-0.2333 -1.1415,-0.2333 -0.458,0 -0.8594,0.0859 -1.203,0.2577 -0.3438,0.172 -0.6338,0.3971 -0.8714,0.6752 -0.2372,0.2783 -0.4218,0.5978 -0.5527,0.9572 -0.1307,0.3603 -0.2206,0.7285 -0.2693,1.105 z" />
            </g>
            <g
               id="Layer1003-9">
              <path
                 inkscape:connector-curvature="0"
                 id="path7426"
                 style="fill:#1b1918;fill-rule:evenodd"
                 d="m 116.379,113.3994 c 1.5767,0 2.789,0.2991 3.6369,0.8989 0.8475,0.5995 1.2719,1.493 1.2719,2.681 0,0.648 -0.1162,1.2016 -0.3487,1.6608 -0.2319,0.4589 -0.5669,0.8314 -1.0043,1.1177 -0.4371,0.286 -0.9694,0.4941 -1.5959,0.6234 -0.6265,0.1298 -1.334,0.1944 -2.122,0.1944 h -1.247 v 4.1635 h -1.5718 v -11.0644 c 0.4428,-0.108 0.9369,-0.1806 1.4822,-0.2189 0.5457,-0.0374 1.0452,-0.0564 1.4987,-0.0564 z m 0.1293,1.3768 v 0 c -0.6693,0 -1.1826,0.0162 -1.5384,0.0485 v 4.4067 h 1.1821 c 0.54,0 1.0264,-0.0351 1.4581,-0.1057 0.432,-0.0703 0.7963,-0.1888 1.0936,-0.3563 0.2968,-0.1675 0.5264,-0.3969 0.6886,-0.6886 0.1621,-0.2914 0.2432,-0.6638 0.2432,-1.1177 0,-0.432 -0.0842,-0.7883 -0.2517,-1.0692 -0.1673,-0.2809 -0.3938,-0.5048 -0.6801,-0.6724 -0.286,-0.1675 -0.6185,-0.2831 -0.9961,-0.3481 -0.3784,-0.0649 -0.7778,-0.0972 -1.1993,-0.0972 z" />
              <path
                 inkscape:connector-curvature="0"
                 id="path7428"
                 style="fill:#1b1918;fill-rule:evenodd"
                 d="m 130.1648,120.333 c 0,0.6692 -0.0973,1.2744 -0.2917,1.8144 -0.1948,0.54 -0.4672,1.0043 -0.8184,1.393 -0.3509,0.3886 -0.7693,0.6885 -1.2555,0.8988 -0.4861,0.2112 -1.0153,0.3161 -1.5876,0.3161 -0.5724,0 -1.1016,-0.1049 -1.5874,-0.3161 -0.4859,-0.2103 -0.9049,-0.5102 -1.2555,-0.8988 -0.3509,-0.3887 -0.6239,-0.853 -0.8184,-1.393 -0.1941,-0.54 -0.2914,-1.1452 -0.2914,-1.8144 0,-0.6588 0.0973,-1.2609 0.2914,-1.8068 0.1945,-0.5449 0.4675,-1.0123 0.8184,-1.4009 0.3506,-0.3892 0.7696,-0.6888 1.2555,-0.8994 0.4858,-0.2104 1.015,-0.3158 1.5874,-0.3158 0.5723,0 1.1015,0.1054 1.5876,0.3158 0.4862,0.2106 0.9046,0.5102 1.2555,0.8994 0.3512,0.3886 0.6236,0.856 0.8184,1.4009 0.1944,0.5459 0.2917,1.148 0.2917,1.8068 z m -1.5719,0 v 0 c 0,-0.9502 -0.2134,-1.7037 -0.6397,-2.2604 -0.4266,-0.5561 -1.0072,-0.8339 -1.7416,-0.8339 -0.7345,0 -1.315,0.2778 -1.7414,0.8339 -0.4266,0.5567 -0.64,1.3102 -0.64,2.2604 0,0.9501 0.2134,1.7036 0.64,2.2597 0.4264,0.5562 1.0069,0.8343 1.7414,0.8343 0.7344,0 1.315,-0.2781 1.7416,-0.8343 0.4263,-0.5561 0.6397,-1.3096 0.6397,-2.2597 z" />
              <path
                 inkscape:connector-curvature="0"
                 id="path7430"
                 style="fill:#1b1918;fill-rule:evenodd"
                 d="m 134.7331,124.7391 c -0.9292,-0.0215 -1.5874,-0.2211 -1.9766,-0.5995 -0.3887,-0.3781 -0.5831,-0.9663 -0.5831,-1.7657 V 112.265 l 1.5063,-0.2594 v 10.1251 c 0,0.2486 0.0216,0.4535 0.0652,0.6157 0.0428,0.1621 0.1131,0.2914 0.2103,0.3886 0.0973,0.0972 0.2271,0.1704 0.3892,0.2189 0.1616,0.0487 0.3612,0.0892 0.599,0.1216 z" />
              <path
                 inkscape:connector-curvature="0"
                 id="path7432"
                 style="fill:#1b1918;fill-rule:evenodd"
                 d="m 138.5074,123.4593 c 0.6154,0 1.0718,-0.0811 1.3686,-0.2432 0.297,-0.1616 0.4459,-0.4207 0.4459,-0.7773 0,-0.3671 -0.146,-0.6587 -0.4374,-0.875 -0.2917,-0.2157 -0.7727,-0.459 -1.442,-0.7291 -0.3243,-0.1293 -0.6347,-0.2616 -0.9318,-0.3968 -0.2967,-0.1347 -0.553,-0.294 -0.7696,-0.4777 -0.2157,-0.1834 -0.3883,-0.4051 -0.5179,-0.6644 -0.1298,-0.2594 -0.1944,-0.5777 -0.1944,-0.9556 0,-0.7452 0.2755,-1.3365 0.8263,-1.7739 0.5508,-0.4374 1.3014,-0.6562 2.2515,-0.6562 0.2379,0 0.4751,0.0136 0.713,0.0405 0.2372,0.0272 0.4589,0.0595 0.6638,0.0972 0.2053,0.038 0.3864,0.0786 0.5432,0.1216 0.1561,0.0434 0.2777,0.0808 0.3642,0.1131 l -0.2755,1.2966 c -0.1616,-0.0867 -0.4156,-0.176 -0.7611,-0.2676 -0.3459,-0.0918 -0.7614,-0.1377 -1.2476,-0.1377 -0.4209,0 -0.7886,0.0839 -1.1015,0.2508 -0.3135,0.1676 -0.4697,0.4298 -0.4697,0.7858 0,0.184 0.0349,0.3461 0.1055,0.4861 0.0697,0.1403 0.178,0.2673 0.3237,0.3804 0.146,0.114 0.3265,0.2189 0.5428,0.3161 0.216,0.0972 0.4751,0.2001 0.7773,0.3081 0.3994,0.1514 0.756,0.2996 1.0695,0.4453 0.3129,0.146 0.5805,0.3158 0.8016,0.5103 0.2214,0.1942 0.3918,0.4292 0.5102,0.7044 0.1188,0.2755 0.1783,0.6134 0.1783,1.0128 0,0.7778 -0.2891,1.3663 -0.8665,1.7657 -0.5777,0.3997 -1.4015,0.5995 -2.4704,0.5995 -0.7452,0 -1.3286,-0.062 -1.7495,-0.1865 -0.4213,-0.1239 -0.7076,-0.2182 -0.8589,-0.2832 l 0.2755,-1.296 c 0.1729,0.0644 0.4481,0.1616 0.826,0.2917 0.3779,0.1293 0.8804,0.1942 1.5069,0.1942 z" />
              <path
                 inkscape:connector-curvature="0"
                 id="path7434"
                 style="fill:#1b1918;fill-rule:evenodd"
                 d="m 146.7369,120.1059 c 0.3238,0.2486 0.6665,0.5567 1.0285,0.9233 0.3617,0.3676 0.718,0.7642 1.0692,1.1908 0.3512,0.4269 0.6831,0.8586 0.9966,1.296 0.313,0.4374 0.5775,0.8453 0.7935,1.2231 h -1.7657 c -0.2271,-0.3778 -0.4887,-0.7642 -0.7855,-1.1582 -0.2977,-0.394 -0.6075,-0.7719 -0.9318,-1.1344 -0.3242,-0.3612 -0.6534,-0.6937 -0.9881,-0.9961 -0.3351,-0.3022 -0.6534,-0.5559 -0.9556,-0.7611 v 4.0498 h -1.5072 v -12.312 l 1.5072,-0.2593 v 7.6787 c 0.2591,-0.2588 0.5448,-0.5448 0.8583,-0.8583 0.313,-0.3129 0.6211,-0.6318 0.9233,-0.9561 0.3022,-0.3237 0.5887,-0.6344 0.8589,-0.9312 0.2696,-0.2968 0.502,-0.559 0.6962,-0.7855 h 1.7662 c -0.2486,0.2699 -0.5184,0.5667 -0.8101,0.8904 -0.2914,0.3243 -0.5941,0.6511 -0.9074,0.9805 -0.3132,0.3297 -0.6293,0.6588 -0.9476,0.9879 -0.3189,0.3296 -0.6182,0.64 -0.8989,0.9317 z" />
              <path
                 inkscape:connector-curvature="0"
                 id="path7436"
                 style="fill:#1b1918;fill-rule:evenodd"
                 d="m 154.7882,115.9427 c 0.6049,0 1.1157,0.0782 1.5307,0.235 0.4161,0.1567 0.7512,0.3778 1.0049,0.6641 0.254,0.286 0.4337,0.6262 0.5431,1.0205 0.1074,0.3943 0.1619,0.8291 0.1619,1.3042 v 5.2651 c -0.1307,0.0215 -0.3104,0.0513 -0.5429,0.0887 -0.2324,0.0383 -0.4941,0.0729 -0.786,0.1055 -0.292,0.0323 -0.6075,0.062 -0.9479,0.089 -0.3402,0.0269 -0.6778,0.0405 -1.012,0.0405 -0.4757,0 -0.9133,-0.0485 -1.3127,-0.1457 -0.3994,-0.0969 -0.745,-0.2512 -1.0367,-0.4618 -0.2914,-0.2103 -0.5184,-0.4884 -0.6806,-0.8345 -0.1615,-0.3452 -0.2426,-0.7611 -0.2426,-1.2469 0,-0.4644 0.0944,-0.8643 0.2832,-1.1988 0.1891,-0.3351 0.4459,-0.6049 0.7696,-0.8102 0.3243,-0.2049 0.7021,-0.3563 1.1341,-0.4535 0.4317,-0.0972 0.8853,-0.146 1.3609,-0.146 0.1508,0 0.3076,0.008 0.4697,0.0244 0.1616,0.0161 0.3155,0.038 0.4621,0.0649 0.1454,0.0269 0.2724,0.0513 0.3807,0.0729 0.1074,0.0215 0.1837,0.0379 0.2265,0.0481 v -0.4209 c 0,-0.2483 -0.0272,-0.4941 -0.0808,-0.7373 -0.0539,-0.2426 -0.1514,-0.4589 -0.2923,-0.6477 -0.1406,-0.1891 -0.3319,-0.3404 -0.5745,-0.4536 -0.2433,-0.1133 -0.559,-0.17 -0.948,-0.17 -0.4969,0 -0.9314,0.0351 -1.3039,0.1049 -0.3727,0.0708 -0.6511,0.1437 -0.8345,0.2188 l -0.1783,-1.247 c 0.1944,-0.0864 0.5184,-0.1706 0.9723,-0.2517 0.4535,-0.0805 0.9448,-0.121 1.474,-0.121 z m 0.1293,7.5489 v 0 c 0.3565,0 0.6726,-0.008 0.9473,-0.0241 0.2755,-0.0164 0.506,-0.0459 0.6894,-0.0893 v -2.5106 c -0.1083,-0.0542 -0.2832,-0.1001 -0.5273,-0.1378 -0.2426,-0.038 -0.5366,-0.057 -0.8821,-0.057 -0.2273,0 -0.4674,0.0165 -0.7209,0.0488 -0.2539,0.0323 -0.4864,0.1001 -0.6967,0.2027 -0.2106,0.1023 -0.3861,0.2426 -0.5264,0.4209 -0.1406,0.178 -0.2109,0.413 -0.2109,0.705 0,0.54 0.1729,0.915 0.5184,1.1254 0.3459,0.2111 0.8156,0.316 1.4092,0.316 z" />
              <path
                 inkscape:connector-curvature="0"
                 id="path7438"
                 style="fill:#1b1918;fill-rule:evenodd"
                 d="m 169.028,124.7553 c -0.788,0 -1.5069,-0.1295 -2.1543,-0.3886 -0.6486,-0.2594 -1.2042,-0.6373 -1.669,-1.1345 -0.4638,-0.4966 -0.8232,-1.1092 -1.0772,-1.8382 -0.2537,-0.7291 -0.3807,-1.5636 -0.3807,-2.503 0,-0.9394 0.1434,-1.7739 0.4295,-2.503 0.2863,-0.7291 0.672,-1.3419 1.1582,-1.8388 0.4864,-0.4967 1.0528,-0.8745 1.7013,-1.1339 0.6475,-0.2591 1.3388,-0.3886 2.0733,-0.3886 0.4638,0 0.8827,0.0323 1.2558,0.0972 0.3719,0.0643 0.6961,0.14 0.9717,0.2265 0.2752,0.0864 0.4989,0.1729 0.6718,0.2594 0.1729,0.0864 0.2919,0.1513 0.3566,0.1944 l -0.4533,1.2957 c -0.0975,-0.0643 -0.2372,-0.1346 -0.4209,-0.2103 -0.1846,-0.0754 -0.3915,-0.1511 -0.6239,-0.2268 -0.2325,-0.0754 -0.4865,-0.1375 -0.7617,-0.1865 -0.2755,-0.0487 -0.5539,-0.0726 -0.8342,-0.0726 -0.5936,0 -1.1288,0.1024 -1.6033,0.3076 -0.4757,0.2052 -0.881,0.5023 -1.2158,0.8912 -0.3342,0.3886 -0.591,0.8612 -0.7687,1.4173 -0.1786,0.5562 -0.2676,1.1804 -0.2676,1.8712 0,0.6698 0.0782,1.2798 0.2344,1.8306 0.1573,0.5508 0.3915,1.0233 0.705,1.4173 0.3135,0.3946 0.7052,0.6993 1.1749,0.9156 0.4697,0.216 1.0177,0.3237 1.6436,0.3237 0.7236,0 1.3232,-0.0751 1.7988,-0.2265 0.4745,-0.1513 0.8311,-0.286 1.0692,-0.4053 l 0.4043,1.296 c -0.0752,0.0541 -0.2098,0.1216 -0.4043,0.2027 -0.1941,0.081 -0.4373,0.1596 -0.7293,0.2347 -0.2911,0.0757 -0.6319,0.1406 -1.0208,0.1944 -0.3883,0.0542 -0.8093,0.0811 -1.2634,0.0811 z" />
              <path
                 inkscape:connector-curvature="0"
                 id="path7440"
                 style="fill:#1b1918;fill-rule:evenodd"
                 d="m 172.818,126.3104 c 0.119,0.0541 0.2724,0.1054 0.462,0.1539 0.1885,0.0488 0.3747,0.0731 0.5584,0.0731 0.5939,0 1.0588,-0.1323 1.3935,-0.3968 0.3351,-0.2648 0.637,-0.6945 0.9074,-1.2881 -0.6806,-1.296 -1.3155,-2.6699 -1.9035,-4.1227 -0.5887,-1.4525 -1.0771,-2.9242 -1.4666,-4.4144 h 1.62 c 0.1191,0.4856 0.2616,1.0097 0.4297,1.5713 0.167,0.5615 0.3535,1.1395 0.5587,1.7334 0.205,0.5941 0.4267,1.188 0.6639,1.7815 0.2373,0.5945 0.4864,1.1665 0.7452,1.7175 0.4111,-1.1338 0.7677,-2.2569 1.0693,-3.3698 0.3027,-1.1123 0.589,-2.2569 0.8594,-3.4339 h 1.5548 c -0.3886,1.5874 -0.8214,3.1128 -1.296,4.576 -0.4756,1.4638 -0.9881,2.8327 -1.5389,4.1071 -0.216,0.4856 -0.4405,0.9043 -0.6721,1.2552 -0.2324,0.3512 -0.4892,0.6403 -0.7693,0.8668 -0.2815,0.2271 -0.5978,0.394 -0.9485,0.5023 -0.3503,0.1075 -0.748,0.1616 -1.1902,0.1616 -0.1191,0 -0.2433,-0.008 -0.3731,-0.0238 -0.129,-0.0164 -0.2568,-0.038 -0.381,-0.0649 -0.1238,-0.0275 -0.2372,-0.0567 -0.3398,-0.0893 -0.1027,-0.0323 -0.1758,-0.0593 -0.2186,-0.0808 z" />
              <path
                 inkscape:connector-curvature="0"
                 id="path7442"
                 style="fill:#1b1918;fill-rule:evenodd"
                 d="m 185.067,112.1678 c 0.4425,0 0.8232,0.0326 1.1415,0.0972 0.3184,0.0649 0.5432,0.1244 0.673,0.1783 l -0.2755,1.2957 c -0.1299,-0.0643 -0.3136,-0.1264 -0.5508,-0.1859 -0.2381,-0.059 -0.5292,-0.0893 -0.8748,-0.0893 -0.7021,0 -1.1937,0.1919 -1.4749,0.5751 -0.2812,0.3838 -0.4206,0.8995 -0.4206,1.5475 v 0.729 h 3.24 v 1.2637 h -3.24 v 7.16 h -1.5069 v -9.1856 c 0,-1.0795 0.2645,-1.914 0.794,-2.503 0.5292,-0.5882 1.3603,-0.8827 2.495,-0.8827 z" />
              <path
                 inkscape:connector-curvature="0"
                 id="path7444"
                 style="fill:#1b1918;fill-rule:evenodd"
                 d="m 191.0603,116.1371 c 0.1298,0 0.2781,0.008 0.4451,0.0238 0.1681,0.0168 0.3322,0.0383 0.494,0.065 0.1625,0.0274 0.3107,0.0541 0.4456,0.081 0.1355,0.0275 0.2353,0.0513 0.2997,0.0729 l -0.2588,1.3124 c -0.1191,-0.0428 -0.3164,-0.0947 -0.5916,-0.1539 -0.2756,-0.0593 -0.629,-0.0893 -1.0608,-0.0893 -0.2812,0 -0.5587,0.03 -0.8339,0.0893 -0.2753,0.0592 -0.457,0.0998 -0.5428,0.1213 v 7.0795 h -1.5069 v -8.0674 c 0.3563,-0.1298 0.7988,-0.2514 1.328,-0.3648 0.5295,-0.1131 1.1231,-0.1698 1.7824,-0.1698 z" />
              <path
                 inkscape:connector-curvature="0"
                 id="path7446"
                 style="fill:#1b1918;fill-rule:evenodd"
                 d="m 201.5573,120.333 c 0,0.6692 -0.0967,1.2744 -0.2911,1.8144 -0.1942,0.54 -0.4677,1.0043 -0.8184,1.393 -0.3506,0.3886 -0.7693,0.6885 -1.2557,0.8988 -0.4853,0.2112 -1.0148,0.3161 -1.5872,0.3161 -0.5731,0 -1.1015,-0.1049 -1.5876,-0.3161 -0.4865,-0.2103 -0.9043,-0.5102 -1.2558,-0.8988 -0.3506,-0.3887 -0.6233,-0.853 -0.8175,-1.393 -0.1945,-0.54 -0.292,-1.1452 -0.292,-1.8144 0,-0.6588 0.0975,-1.2609 0.292,-1.8068 0.1942,-0.5449 0.4669,-1.0123 0.8175,-1.4009 0.3515,-0.3892 0.7693,-0.6888 1.2558,-0.8994 0.4861,-0.2104 1.0145,-0.3158 1.5876,-0.3158 0.5724,0 1.1019,0.1054 1.5872,0.3158 0.4864,0.2106 0.9051,0.5102 1.2557,0.8994 0.3507,0.3886 0.6242,0.856 0.8184,1.4009 0.1944,0.5459 0.2911,1.148 0.2911,1.8068 z m -1.5713,0 v 0 c 0,-0.9502 -0.2128,-1.7037 -0.6397,-2.2604 -0.4266,-0.5561 -1.0069,-0.8339 -1.7414,-0.8339 -0.7353,0 -1.3152,0.2778 -1.7421,0.8339 -0.4266,0.5567 -0.6395,1.3102 -0.6395,2.2604 0,0.9501 0.2129,1.7036 0.6395,2.2597 0.4269,0.5562 1.0068,0.8343 1.7421,0.8343 0.7345,0 1.3148,-0.2781 1.7414,-0.8343 0.4269,-0.5561 0.6397,-1.3096 0.6397,-2.2597 z" />
              <path
                 inkscape:connector-curvature="0"
                 id="path7448"
                 style="fill:#1b1918;fill-rule:evenodd"
                 d="m 210.273,124.7391 c -0.3016,-0.7778 -0.6231,-1.6659 -0.9638,-2.6651 -0.3399,-0.9984 -0.6506,-2.0381 -0.9317,-3.1181 -0.2801,1.08 -0.588,2.1197 -0.9227,3.1181 -0.3351,0.9992 -0.6534,1.8873 -0.9562,2.6651 h -1.3124 c -0.4961,-1.1123 -0.9825,-2.3813 -1.4581,-3.8072 -0.4746,-1.4252 -0.9227,-2.9642 -1.3437,-4.6165 h 1.6192 c 0.1083,0.5077 0.2381,1.0585 0.3895,1.6523 0.1505,0.5936 0.3098,1.188 0.4776,1.7816 0.167,0.5944 0.3427,1.1665 0.5264,1.7175 0.1837,0.5505 0.3563,1.0316 0.5185,1.4417 0.1836,-0.5074 0.3642,-1.0448 0.5431,-1.6118 0.1777,-0.5669 0.3475,-1.1395 0.5096,-1.7172 0.1622,-0.5777 0.3164,-1.1446 0.4621,-1.7011 0.1454,-0.5564 0.2724,-1.0774 0.3807,-1.563 h 1.2469 c 0.0978,0.4856 0.216,1.0066 0.3566,1.563 0.1406,0.5565 0.292,1.1234 0.4542,1.7011 0.1621,0.5777 0.3319,1.1503 0.5096,1.7172 0.1789,0.567 0.3595,1.1044 0.5431,1.6118 0.1622,-0.4101 0.332,-0.8912 0.5097,-1.4417 0.1789,-0.551 0.3546,-1.1231 0.5273,-1.7175 0.172,-0.5936 0.3342,-1.188 0.4855,-1.7816 0.1514,-0.5938 0.2812,-1.1446 0.3887,-1.6523 h 1.5556 c -0.4209,1.6523 -0.8691,3.1913 -1.3447,4.6165 -0.4757,1.4259 -0.961,2.6949 -1.4579,3.8072 z" />
              <path
                 inkscape:connector-curvature="0"
                 id="path7450"
                 style="fill:#1b1918;fill-rule:evenodd"
                 d="m 218.6159,115.9427 c 0.6044,0 1.1152,0.0782 1.5313,0.235 0.415,0.1567 0.7497,0.3778 1.0037,0.6641 0.254,0.286 0.4346,0.6262 0.5431,1.0205 0.1075,0.3943 0.1622,0.8291 0.1622,1.3042 v 5.2651 c -0.1301,0.0215 -0.3107,0.0513 -0.5431,0.0887 -0.2325,0.0383 -0.4941,0.0729 -0.7852,0.1055 -0.292,0.0323 -0.6083,0.062 -0.9482,0.089 -0.3399,0.0269 -0.6778,0.0405 -1.0128,0.0405 -0.4754,0 -0.9119,-0.0485 -1.3113,-0.1457 -0.4006,-0.0969 -0.7461,-0.2512 -1.0372,-0.4618 -0.292,-0.2103 -0.5185,-0.4884 -0.6806,-0.8345 -0.1622,-0.3452 -0.2432,-0.7611 -0.2432,-1.2469 0,-0.4644 0.0946,-0.8643 0.284,-1.1988 0.1885,-0.3351 0.4456,-0.6049 0.7696,-0.8102 0.3231,-0.2049 0.7013,-0.3563 1.1338,-0.4535 0.4318,-0.0972 0.8847,-0.146 1.3604,-0.146 0.1514,0 0.3076,0.008 0.4697,0.0244 0.1621,0.0161 0.3163,0.038 0.462,0.0649 0.1455,0.0269 0.2725,0.0513 0.3807,0.0729 0.1075,0.0215 0.1837,0.0379 0.2268,0.0481 v -0.4209 c 0,-0.2483 -0.0275,-0.4941 -0.0813,-0.7373 -0.0536,-0.2426 -0.1511,-0.4589 -0.2909,-0.6477 -0.1406,-0.1891 -0.3319,-0.3404 -0.5751,-0.4536 -0.2432,-0.1133 -0.5596,-0.17 -0.9482,-0.17 -0.4961,0 -0.9318,0.0351 -1.304,0.1049 -0.373,0.0708 -0.6502,0.1437 -0.8339,0.2188 l -0.1786,-1.247 c 0.1942,-0.0864 0.5185,-0.1706 0.9714,-0.2517 0.4542,-0.0805 0.9457,-0.121 1.4749,-0.121 z m 0.1298,7.5489 v 0 c 0.3563,0 0.6718,-0.008 0.9474,-0.0241 0.2752,-0.0164 0.5048,-0.0459 0.6885,-0.0893 v -2.5106 c -0.1074,-0.0542 -0.2835,-0.1001 -0.5264,-0.1378 -0.2432,-0.038 -0.5372,-0.057 -0.883,-0.057 -0.2265,0 -0.4677,0.0165 -0.7205,0.0488 -0.254,0.0323 -0.4865,0.1001 -0.6974,0.2027 -0.21,0.1023 -0.3858,0.2426 -0.5264,0.4209 -0.1406,0.178 -0.21,0.413 -0.21,0.705 0,0.54 0.1721,0.915 0.5187,1.1254 0.3447,0.2111 0.8144,0.316 1.4091,0.316 z" />
            </g>
          </g>
        </g>
      </g>
    </g>
  </g>
</svg>
