<?xml version="1.0" encoding="UTF-8" standalone="no"?>

<svg
   xmlns:dc="http://purl.org/dc/elements/1.1/"
   xmlns:cc="http://creativecommons.org/ns#"
   xmlns:rdf="http://www.w3.org/1999/02/22-rdf-syntax-ns#"
   xmlns:svg="http://www.w3.org/2000/svg"
   xmlns="http://www.w3.org/2000/svg"
   xmlns:sodipodi="http://sodipodi.sourceforge.net/DTD/sodipodi-0.dtd"
   xmlns:inkscape="http://www.inkscape.org/namespaces/inkscape"
   version="1.1"
   id="svg2"
   xml:space="preserve"
   width="772"
   height="258.66666"
   viewBox="0 0 772 258.66666"
   sodipodi:docname="rpk-logo.svg"
   inkscape:version="0.92.3 (2405546, 2018-03-11)"><metadata
     id="metadata8"><rdf:RDF><cc:Work
         rdf:about=""><dc:format>image/svg+xml</dc:format><dc:type
           rdf:resource="http://purl.org/dc/dcmitype/StillImage" /><dc:title></dc:title></cc:Work></rdf:RDF></metadata><defs
     id="defs6" /><sodipodi:namedview
     pagecolor="#ffffff"
     bordercolor="#666666"
     borderopacity="1"
     objecttolerance="10"
     gridtolerance="10"
     guidetolerance="10"
     inkscape:pageopacity="0"
     inkscape:pageshadow="2"
     inkscape:window-width="1549"
     inkscape:window-height="872"
     id="namedview4"
     showgrid="false"
     inkscape:zoom="0.75656762"
     inkscape:cx="270.37368"
     inkscape:cy="160.21635"
     inkscape:window-x="51"
     inkscape:window-y="28"
     inkscape:window-maximized="1"
     inkscape:current-layer="g12" /><g
     id="g10"
     inkscape:groupmode="layer"
     inkscape:label="ink_ext_XXXXXX"
     transform="matrix(1.3333333,0,0,-1.3333333,0,258.66667)"><g
       id="g12"
       transform="scale(0.1)"><path
         d="m 487.398,335.145 h 185.875 v -0.368 c 64.086,1.801 143.262,2.504 191.973,-15.961 C 1010.41,256.43 962.121,133.898 822.105,97.9063 774.559,85.6953 723.371,85.668 673.273,86.418 V 3.33203 H 487.398 Z M 1284.07,3.33984 h 180.15 L 1318.54,165.32 l 141,174.676 H 1279.39 L 1142.08,169.895 V 339.996 H 966.367 V 3.33984 H 1142.08 V 161.219 Z M 1.52734,335.145 H 187.402 v -0.36 c 64.086,1.797 143.246,2.496 191.965,-15.969 128.172,-55.074 105.512,-157.062 2.074,-204.941 L 467.438,3.33203 H 289.785 l -56.91,73.16407 -7.551,9.6836 C 212.676,86.082 199.996,86.2305 187.402,86.418 V 3.33203 H 1.52734 Z M 187.402,315.77 V 127.797 c 1.094,-0.024 2.203,-0.043 3.305,-0.043 64.563,0 116.906,42.098 116.906,94.027 0,51.922 -52.343,94.028 -116.906,94.028 -1.102,0 -2.211,-0.016 -3.305,-0.039 z m 485.871,0 V 127.793 c 1.106,-0.023 2.204,-0.039 3.313,-0.039 64.559,0 116.894,42.098 116.894,94.027 0,51.93 -52.335,94.028 -116.894,94.028 -1.109,0 -2.207,-0.016 -3.313,-0.039"
         style="fill:#18316a;fill-opacity:1;fill-rule:evenodd;stroke:none"
         id="path14"
         inkscape:connector-curvature="0" /><path
         d="m 717.906,439.512 c -28.726,43.601 -77.672,72.476 -132.953,72.476 H 1.52734 c 0,398.391 0,796.792 0,1195.182 162.24266,0 324.48466,0 486.72666,0 V 1467.21 H 717.906 V 439.512"
         style="fill:#18316a;fill-opacity:1;fill-rule:evenodd;stroke:none"
         id="path16"
         inkscape:connector-curvature="0" /><path
         d="M 1464.21,511.988 H 880.781 c -55.273,0 -104.215,-28.863 -132.953,-72.461 V 1227.25 H 984.293 V 987.285 h 240.187 v 239.965 h 239.73 c 0,-238.422 0,-476.848 0,-715.262"
         style="fill:#18316a;fill-opacity:1;fill-rule:evenodd;stroke:none"
         id="path18"
         inkscape:connector-curvature="0" /><path
         d="M 1224.25,1467.22 H 984.289 v -239.96 h 239.961 v 239.96"
         style="fill:#7b7979;fill-opacity:1;fill-rule:evenodd;stroke:none"
         id="path20"
         inkscape:connector-curvature="0" /><path
         d="m 1224.25,1707.18 h 239.96 v -239.96 h -239.96 v 239.96"
         style="fill:#7b7979;fill-opacity:1;fill-rule:evenodd;stroke:none"
         id="path22"
         inkscape:connector-curvature="0" /><path
         d="M 1224.26,1467.22 H 984.289 v -239.96 h 239.971 v 239.96"
         style="fill:#2c74ae;fill-opacity:1;fill-rule:evenodd;stroke:none"
         id="path24"
         inkscape:connector-curvature="0" /><path
         d="m 1464.22,1707.19 h -239.96 v -239.97 h 239.96 v 239.97"
         style="fill:#00adef;fill-opacity:1;fill-rule:evenodd;stroke:none"
         id="path26"
         inkscape:connector-curvature="0" /><path
         d="m 1620.14,1872.21 h -128.57 v -128.52 h 128.57 v 128.52"
         style="fill:#18316a;fill-opacity:1;fill-rule:evenodd;stroke:none"
         id="path28"
         inkscape:connector-curvature="0" /><path
         d="m 1215.18,1938.43 h -154.17 v -154.16 h 154.17 v 154.16"
         style="fill:#00adef;fill-opacity:1;fill-rule:evenodd;stroke:none"
         id="path30"
         inkscape:connector-curvature="0" /><path
         d="m 1623.12,1435.44 h -92.37 v -92.35 h 92.37 v 92.35"
         style="fill:#18316a;fill-opacity:1;fill-rule:evenodd;stroke:none"
         id="path32"
         inkscape:connector-curvature="0" /><path
         d="M 984.289,1707.17 H 744.328 v -239.96 h 239.961 v 239.96"
         style="fill:#18316a;fill-opacity:1;fill-rule:evenodd;stroke:none"
         id="path34"
         inkscape:connector-curvature="0" /><path
         d="m 2130.04,1014.36 -43.14,77.72 h -62.56 v -77.72 h -61.4 v 272.02 h 118.13 c 35.5,0 62.96,-8.22 82.39,-24.67 19.43,-16.46 29.15,-39.71 29.15,-69.76 0,-20.98 -4.34,-38.92 -13.02,-53.82 -8.68,-14.9 -21.31,-26.23 -37.89,-34 l 57.9,-89.77 z m -105.7,129.02 h 56.73 c 17.1,0 30.25,3.95 39.45,11.85 9.2,7.9 13.8,19.49 13.8,34.78 0,15.02 -4.6,26.36 -13.8,34 -9.2,7.65 -22.35,11.47 -39.45,11.47 h -56.73 z m 308.55,82 c 33.68,0 59.26,-9.72 76.75,-29.15 17.49,-19.43 26.23,-46.51 26.23,-81.23 0,-6.21 -0.13,-11 -0.39,-14.37 h -150 c 3.37,-13.22 9.84,-23.52 19.43,-30.9 9.58,-7.38 21.12,-11.07 34.59,-11.07 9.84,0 19.3,1.88 28.36,5.63 9.07,3.76 17.24,9.26 24.49,16.52 l 31.47,-31.86 c -10.62,-11.92 -23.51,-21.06 -38.66,-27.4 -15.16,-6.35 -32.06,-9.52 -50.71,-9.52 -22.02,0 -41.27,4.4 -57.72,13.21 -16.44,8.8 -29.14,21.24 -38.07,37.31 -8.95,16.06 -13.41,34.58 -13.41,55.57 0,21.24 4.53,39.95 13.59,56.15 9.08,16.19 21.77,28.76 38.09,37.69 16.32,8.94 34.98,13.42 55.96,13.42 z m 46.63,-89.39 c -0.52,13.73 -4.92,24.74 -13.21,33.03 -8.29,8.3 -19.3,12.44 -33.03,12.44 -12.96,0 -23.77,-4.08 -32.45,-12.25 -8.68,-8.16 -14.18,-19.23 -16.51,-33.22 z m 223.45,89.39 c 19.43,0 36.6,-4.48 51.49,-13.42 14.9,-8.93 26.43,-21.56 34.59,-37.89 8.16,-16.32 12.24,-35.1 12.24,-56.34 0,-20.99 -4.02,-39.44 -12.04,-55.38 -8.04,-15.93 -19.37,-28.31 -34.01,-37.11 -14.64,-8.81 -31.67,-13.21 -51.1,-13.21 -14.51,0 -27.4,2.78 -38.67,8.35 -11.27,5.57 -20.79,13.66 -28.56,24.28 V 938.969 h -59.84 v 284.461 h 59.84 v -30.7 c 7.51,10.62 16.9,18.72 28.17,24.29 11.27,5.57 23.9,8.36 37.89,8.36 z m -13.99,-163.61 c 15.29,0 27.72,5.37 37.31,16.12 9.59,10.76 14.38,24.68 14.38,41.78 0,16.84 -4.79,30.63 -14.38,41.38 -9.59,10.76 -22.02,16.13 -37.31,16.13 -15.28,0 -27.78,-5.37 -37.5,-16.13 -9.71,-10.75 -14.57,-24.54 -14.57,-41.38 0,-17.36 4.86,-31.35 14.57,-41.97 9.72,-10.62 22.22,-15.93 37.5,-15.93 z m 246.38,163.61 c 22.02,0 41.51,-4.41 58.48,-13.22 16.97,-8.81 30.12,-21.24 39.45,-37.31 9.32,-16.06 13.99,-34.72 13.99,-55.96 0,-20.98 -4.67,-39.57 -13.99,-55.76 -9.33,-16.19 -22.48,-28.76 -39.45,-37.7 -16.97,-8.93 -36.46,-13.4 -58.48,-13.4 -22.28,0 -41.91,4.47 -58.88,13.4 -16.97,8.94 -30.12,21.51 -39.44,37.7 -9.33,16.19 -13.99,34.78 -13.99,55.76 0,21.24 4.66,39.9 13.99,55.96 9.32,16.07 22.47,28.5 39.44,37.31 16.97,8.81 36.6,13.22 58.88,13.22 z m 0,-49.75 c -15.55,0 -28.18,-5.31 -37.9,-15.93 -9.71,-10.63 -14.57,-24.48 -14.57,-41.58 0,-17.1 4.86,-30.96 14.57,-41.58 9.72,-10.63 22.35,-15.93 37.9,-15.93 15.28,0 27.78,5.3 37.49,15.93 9.72,10.62 14.58,24.48 14.58,41.58 0,17.1 -4.86,30.95 -14.58,41.58 -9.71,10.62 -22.21,15.93 -37.49,15.93 z m 141.45,47.41 h 178.37 v -37.7 l -107.64,-123.96 h 111.13 v -47.41 l -185.75,0.39 v 37.69 l 107.64,123.97 -103.75,0.39 z m 324.48,-232.001 c -14.5,-36.523 -40.02,-54.793 -76.55,-54.793 -11.14,0 -21.24,1.621 -30.31,4.859 -9.07,3.239 -17.88,8.356 -26.43,15.348 l 25.26,43.137 c 9.07,-7.512 18.14,-11.27 27.2,-11.27 12.7,0 21.9,6.219 27.59,18.65 l 5.84,11.66 -86.66,204.8 h 61.79 l 54.78,-143.79 49.36,143.79 h 59.85 z m 247.16,34.981 c -7.77,-4.66 -16.38,-8.23 -25.84,-10.69 -9.46,-2.46 -18.98,-3.69 -28.56,-3.69 -19.43,0 -35.23,5.57 -47.41,16.71 -12.18,11.14 -18.27,27.07 -18.27,47.79 v 96.77 h -29.14 v 41.2 h 29.14 v 57.51 h 59.46 v -57.51 h 56.74 v -41.59 h -56.74 v -86.27 c 0,-16.06 6.35,-24.09 19.04,-24.09 8.81,0 18.52,2.59 29.15,7.77 z m 130.57,199.36 c 22.02,0 41.52,-4.41 58.48,-13.22 16.98,-8.81 30.13,-21.24 39.45,-37.31 9.32,-16.06 13.99,-34.72 13.99,-55.96 0,-20.98 -4.67,-39.57 -13.99,-55.76 -9.32,-16.19 -22.47,-28.76 -39.45,-37.7 -16.96,-8.93 -36.46,-13.4 -58.48,-13.4 -22.28,0 -41.9,4.47 -58.88,13.4 -16.96,8.94 -30.11,21.51 -39.43,37.7 -9.33,16.19 -13.99,34.78 -13.99,55.76 0,21.24 4.66,39.9 13.99,55.96 9.32,16.07 22.47,28.5 39.43,37.31 16.98,8.81 36.6,13.22 58.88,13.22 z m 0,-49.75 c -15.54,0 -28.17,-5.31 -37.89,-15.93 -9.71,-10.63 -14.57,-24.48 -14.57,-41.58 0,-17.1 4.86,-30.96 14.57,-41.58 9.72,-10.63 22.35,-15.93 37.89,-15.93 15.28,0 27.78,5.3 37.5,15.93 9.71,10.62 14.57,24.48 14.57,41.58 0,17.1 -4.86,30.95 -14.57,41.58 -9.72,10.62 -22.22,15.93 -37.5,15.93 z m 211.4,10.1 c 7.26,12.96 16.71,22.8 28.37,29.54 11.66,6.73 25.26,10.23 40.8,10.49 v -56.35 c -2.07,0.26 -5.18,0.39 -9.32,0.39 -18.39,0 -32.97,-4.99 -43.72,-14.96 -10.75,-9.97 -16.13,-23.25 -16.13,-39.84 v -100.64 h -59.84 v 209.07 h 59.84 z m 101.82,37.7 h 59.84 v -209.07 h -59.84 z m 29.53,92.88 c 9.59,0 17.43,-3.11 23.51,-9.33 6.09,-6.22 9.13,-14.25 9.13,-24.09 0,-9.85 -3.04,-17.88 -9.13,-24.1 -6.08,-6.22 -13.92,-9.33 -23.51,-9.33 -9.32,0 -17.04,3.18 -23.13,9.52 -6.08,6.35 -9.12,14.32 -9.12,23.91 0,9.84 3.04,17.87 9.12,24.09 6.09,6.22 13.81,9.33 23.13,9.33 z m 286.4,-92.88 v -209.07 h -59.45 v 36.92 c -14.25,-26.17 -37.57,-39.25 -69.95,-39.25 -23.06,0 -41.39,7.18 -54.99,21.56 -13.6,14.38 -20.4,33.87 -20.4,58.49 v 131.35 h 59.84 v -114.25 c 0,-13.21 3.5,-23.57 10.49,-31.09 7,-7.51 16.59,-11.27 28.76,-11.27 14.26,0.26 25.52,5.31 33.81,15.15 8.29,9.85 12.44,22.55 12.44,38.09 v 103.37 z m 334.6,2.33 c 23.05,0 41.38,-7.19 54.98,-21.57 13.6,-14.38 20.4,-33.87 20.4,-58.48 v -131.35 h -59.45 v 113.86 c 0,13.47 -3.63,23.97 -10.88,31.48 -7.26,7.51 -17.11,11.27 -29.53,11.27 -14.25,-0.26 -25.52,-5.31 -33.81,-15.16 -8.3,-9.85 -12.44,-22.54 -12.44,-38.08 v -103.37 h -59.46 v 113.86 c 0,13.21 -3.56,23.64 -10.69,31.28 -7.12,7.65 -16.9,11.47 -29.33,11.47 -14.26,-0.26 -25.58,-5.31 -34.01,-15.16 -8.42,-9.85 -12.63,-22.54 -12.63,-38.08 v -103.37 h -59.84 v 209.07 h 59.84 v -36.14 c 14.51,25.13 38.09,37.95 70.73,38.47 17.62,0 32.51,-4.21 44.69,-12.63 12.18,-8.42 20.86,-20.27 26.04,-35.56 6.73,15.81 16.51,27.72 29.34,35.75 12.82,8.04 28.17,12.18 46.05,12.44"
         style="fill:#18316a;fill-opacity:1;fill-rule:nonzero;stroke:none"
         id="path36"
         inkscape:connector-curvature="0" /><path
         d="m 2054.37,801.738 c 27.5,0 48.74,-6.515 63.72,-19.543 14.98,-13.039 22.47,-31.453 22.47,-55.257 0,-25.043 -7.54,-44.493 -22.62,-58.344 -15.09,-13.852 -36.28,-20.778 -63.57,-20.778 h -42.79 v -61.57 h -48.65 v 215.492 z m -2.46,-113.289 c 13.75,0 24.26,3.137 31.55,9.391 7.29,6.262 10.93,15.445 10.93,27.551 0,11.902 -3.64,20.886 -10.93,26.941 -7.29,6.051 -17.8,9.078 -31.55,9.078 h -40.33 v -72.961 z m 193.63,64.957 c 17.45,0 32.89,-3.488 46.33,-10.468 13.45,-6.973 23.86,-16.829 31.25,-29.551 7.39,-12.727 11.08,-27.504 11.08,-44.328 0,-16.621 -3.69,-31.352 -11.08,-44.18 -7.39,-12.824 -17.8,-22.777 -31.25,-29.859 -13.44,-7.082 -28.88,-10.622 -46.33,-10.622 -17.65,0 -33.2,3.54 -46.64,10.622 -13.44,7.082 -23.86,17.035 -31.24,29.859 -7.39,12.828 -11.09,27.559 -11.09,44.18 0,16.824 3.7,31.601 11.09,44.328 7.38,12.722 17.8,22.578 31.24,29.551 13.44,6.98 28.99,10.468 46.64,10.468 z m 0,-39.406 c -12.31,0 -22.32,-4.207 -30.01,-12.617 -7.7,-8.418 -11.55,-19.395 -11.55,-32.942 0,-13.546 3.85,-24.523 11.55,-32.941 7.69,-8.414 17.7,-12.621 30.01,-12.621 12.11,0 22.01,4.207 29.71,12.621 7.7,8.418 11.55,19.395 11.55,32.941 0,13.547 -3.85,24.524 -11.55,32.942 -7.7,8.41 -17.6,12.617 -29.71,12.617 z m 121.6,100.672 h 47.41 V 586.246 h -47.41 z m 94.82,-62.805 h 47.41 V 586.246 h -47.41 z m 23.4,73.574 c 7.59,0 13.8,-2.461 18.62,-7.382 4.82,-4.93 7.23,-11.289 7.23,-19.09 0,-7.801 -2.41,-14.156 -7.23,-19.086 -4.82,-4.926 -11.03,-7.387 -18.62,-7.387 -7.39,0 -13.5,2.512 -18.32,7.543 -4.83,5.027 -7.24,11.336 -7.24,18.93 0,7.801 2.41,14.16 7.24,19.09 4.82,4.921 10.93,7.382 18.32,7.382 z M 2657.44,595.48 c -6.15,-3.691 -12.98,-6.519 -20.47,-8.464 -7.49,-1.95 -15.03,-2.93 -22.63,-2.93 -15.39,0 -27.91,4.418 -37.55,13.238 -9.65,8.832 -14.47,21.453 -14.47,37.867 v 76.661 h -23.09 v 32.628 h 23.09 v 45.563 h 47.1 V 744.48 h 44.95 v -32.941 h -44.95 v -68.34 c 0,-12.726 5.03,-19.086 15.08,-19.086 6.98,0 14.68,2.047 23.09,6.157 z m 99.75,157.926 c 26.67,0 46.94,-7.695 60.79,-23.086 13.86,-15.394 20.79,-36.84 20.79,-64.343 0,-4.922 -0.11,-8.719 -0.31,-11.391 h -118.83 c 2.66,-10.465 7.8,-18.625 15.39,-24.473 7.59,-5.843 16.72,-8.773 27.4,-8.773 7.79,0 15.29,1.492 22.47,4.465 7.18,2.972 13.65,7.34 19.4,13.086 l 24.93,-25.246 c -8.42,-9.442 -18.62,-16.676 -30.63,-21.7 -12.01,-5.031 -25.4,-7.547 -40.17,-7.547 -17.45,0 -32.69,3.489 -45.72,10.465 -13.03,6.981 -23.09,16.832 -30.17,29.551 -7.08,12.727 -10.62,27.402 -10.62,44.027 0,16.832 3.59,31.661 10.78,44.485 7.18,12.828 17.23,22.785 30.16,29.863 12.94,7.078 27.71,10.617 44.34,10.617 z m 36.94,-70.804 c -0.42,10.878 -3.9,19.597 -10.47,26.168 -6.57,6.566 -15.29,9.847 -26.16,9.847 -10.27,0 -18.84,-3.226 -25.71,-9.695 -6.88,-6.465 -11.24,-15.234 -13.08,-26.32 z m 186.24,12.929 c -9.44,11.699 -21.75,17.547 -36.94,17.547 -11.9,0 -21.6,-4.055 -29.09,-12.16 -7.49,-8.105 -11.24,-18.828 -11.24,-32.168 0,-13.34 3.7,-24.168 11.08,-32.48 7.39,-8.313 16.84,-12.465 28.33,-12.465 17.24,0 30.07,6.465 38.48,19.394 l 32.63,-22.168 c -6.98,-11.695 -16.78,-20.726 -29.4,-27.09 -12.62,-6.359 -27.35,-9.543 -44.18,-9.543 -16.62,0 -31.29,3.489 -44.02,10.465 -12.72,6.981 -22.63,16.832 -29.71,29.551 -7.08,12.727 -10.62,27.402 -10.62,44.027 0,16.832 3.54,31.661 10.62,44.485 7.08,12.828 17.04,22.785 29.87,29.863 12.82,7.078 27.65,10.617 44.48,10.617 15.8,0 29.86,-3.023 42.18,-9.078 12.31,-6.055 22.16,-14.629 29.55,-25.711 z m 169.01,58.184 c 18.67,0 33.5,-5.746 44.48,-17.238 10.98,-11.497 16.47,-26.887 16.47,-46.18 V 586.246 h -47.41 v 90.199 c 0,10.465 -2.92,18.727 -8.77,24.782 -5.85,6.054 -13.8,9.086 -23.86,9.086 -11.7,-0.208 -20.98,-4.262 -27.86,-12.165 -6.87,-7.898 -10.31,-18.007 -10.31,-30.324 v -81.578 h -47.41 v 228.426 h 47.41 v -92.047 c 11.49,20.313 30.58,30.68 57.26,31.09 z m 206.26,0 c 18.47,0 33.19,-5.746 44.17,-17.238 10.98,-11.497 16.48,-26.887 16.48,-46.18 V 586.246 h -47.41 v 90.199 c 0,10.465 -2.93,18.727 -8.78,24.782 -5.85,6.054 -13.8,9.086 -23.85,9.086 -11.71,-0.208 -20.94,-4.262 -27.71,-12.165 -6.77,-7.898 -10.16,-18.007 -10.16,-30.324 v -81.578 h -47.41 v 165.621 h 47.41 V 722.93 c 11.49,20.117 30.57,30.375 57.26,30.785 z m 101.59,-1.848 h 47.41 V 586.246 h -47.41 z m 23.4,73.574 c 7.59,0 13.8,-2.461 18.62,-7.382 4.82,-4.93 7.23,-11.289 7.23,-19.09 0,-7.801 -2.41,-14.156 -7.23,-19.086 -4.82,-4.926 -11.03,-7.387 -18.62,-7.387 -7.39,0 -13.5,2.512 -18.32,7.543 -4.83,5.027 -7.24,11.336 -7.24,18.93 0,7.801 2.41,14.16 7.24,19.09 4.82,4.921 10.93,7.382 18.32,7.382 z m 179.78,-239.195 -40.02,67.418 -21.25,-22.473 v -44.945 h -47.4 v 228.426 h 47.4 V 689.066 l 60.65,62.497 h 53.88 l -60.65,-63.727 63.42,-101.59 z m 80.35,165.621 h 47.41 V 586.246 h -47.41 z m 23.39,73.574 c 7.6,0 13.81,-2.461 18.63,-7.382 4.82,-4.93 7.24,-11.289 7.24,-19.09 0,-7.801 -2.42,-14.156 -7.24,-19.086 -4.82,-4.926 -11.03,-7.387 -18.63,-7.387 -7.38,0 -13.49,2.512 -18.31,7.543 -4.82,5.027 -7.24,11.336 -7.24,18.93 0,7.801 2.42,14.16 7.24,19.09 4.82,4.921 10.93,7.382 18.31,7.382 z m 342.33,-239.195 h -58.18 l -62.18,88.352 -30.79,-34.172 v -54.18 h -48.64 v 215.492 h 48.64 V 701.383 l 89.28,100.355 h 56.64 l -81.27,-89.586 z m 73.58,135.762 c 5.74,10.262 13.24,18.058 22.47,23.398 9.24,5.336 20.01,8.106 32.32,8.309 v -44.637 c -1.64,0.199 -4.1,0.309 -7.38,0.309 -14.58,0 -26.12,-3.953 -34.64,-11.856 -8.51,-7.902 -12.77,-18.414 -12.77,-31.554 v -79.731 h -47.41 v 165.621 h 47.41 z m 176.71,-135.762 v 19.395 c -5.54,-6.981 -12.73,-12.313 -21.56,-16.008 -8.82,-3.699 -18.98,-5.547 -30.47,-5.547 -17.45,0 -31.3,4.777 -41.56,14.32 -10.26,9.539 -15.39,22.008 -15.39,37.399 0,15.597 5.49,27.765 16.47,36.484 10.97,8.719 26.52,13.184 46.64,13.395 h 45.56 v 3.074 c 0,8.828 -2.93,15.652 -8.77,20.476 -5.85,4.821 -14.42,7.235 -25.71,7.235 -15.39,0 -31.82,-4.828 -49.26,-14.473 l -14.77,32.633 c 13.13,6.566 25.44,11.394 36.94,14.469 11.49,3.082 24.11,4.617 37.86,4.617 22.17,0 39.36,-5.235 51.57,-15.699 12.21,-10.469 18.41,-25.039 18.63,-43.715 l 0.3,-108.055 z m -38.79,31.711 c 9.85,0 18.36,2.359 25.55,7.078 7.18,4.719 11.49,10.672 12.93,17.852 v 14.781 h -37.25 c -9.24,0 -16.06,-1.488 -20.47,-4.465 -4.42,-2.976 -6.63,-7.746 -6.63,-14.312 0,-6.364 2.32,-11.45 6.93,-15.243 4.62,-3.796 10.93,-5.691 18.94,-5.691 z m 236.42,-31.711 -40.01,67.418 -21.25,-22.473 v -44.945 h -47.41 v 228.426 h 47.41 V 689.066 l 60.65,62.497 h 53.87 l -60.64,-63.727 63.41,-101.59 z m 155.17,167.16 c 17.44,0 32.89,-3.488 46.32,-10.468 13.45,-6.973 23.86,-16.829 31.25,-29.551 7.39,-12.727 11.09,-27.504 11.09,-44.328 0,-16.621 -3.7,-31.352 -11.09,-44.18 -7.39,-12.824 -17.8,-22.777 -31.25,-29.859 -13.43,-7.082 -28.88,-10.622 -46.32,-10.622 -17.65,0 -33.2,3.54 -46.64,10.622 -13.45,7.082 -23.86,17.035 -31.25,29.859 -7.39,12.828 -11.09,27.559 -11.09,44.18 0,16.824 3.7,31.601 11.09,44.328 7.39,12.722 17.8,22.578 31.25,29.551 13.44,6.98 28.99,10.468 46.64,10.468 z m 0,-39.406 c -12.32,0 -22.33,-4.207 -30.02,-12.617 -7.7,-8.418 -11.55,-19.395 -11.55,-32.942 0,-13.546 3.85,-24.523 11.55,-32.941 7.69,-8.414 17.7,-12.621 30.02,-12.621 12.1,0 22.01,4.207 29.7,12.621 7.69,8.418 11.55,19.395 11.55,32.941 0,13.547 -3.86,24.524 -11.55,32.942 -7.69,8.41 -17.6,12.617 -29.7,12.617 z m 96.35,37.563 48.33,0.304 36.95,-118.523 35.71,118.523 h 46.48 l 36.33,-118.523 36.32,118.523 h 46.8 L 5032.5,586.246 h -47.41 l -35.71,109.285 -35.4,-109.285 h -47.41 z m 412.21,-48.333 c -9.03,5.129 -17.96,9.079 -26.78,11.848 -8.83,2.774 -16.73,4.156 -23.7,4.156 -5.76,0 -10.37,-1.027 -13.86,-3.074 -3.49,-2.051 -5.24,-5.133 -5.24,-9.238 0,-4.516 2.37,-8 7.09,-10.469 4.72,-2.461 12.41,-5.234 23.09,-8.308 11.7,-3.493 21.34,-6.926 28.93,-10.309 7.6,-3.395 14.16,-8.418 19.71,-15.086 5.54,-6.672 8.31,-15.445 8.31,-26.324 0,-16.422 -6.31,-29.196 -18.93,-38.332 -12.63,-9.133 -28.79,-13.696 -48.49,-13.696 -13.55,0 -26.58,2 -39.1,6 -12.52,4.008 -23.39,9.7 -32.63,17.09 l 15.39,32.012 c 8.42,-6.566 17.8,-11.645 28.17,-15.23 10.37,-3.598 20.16,-5.391 29.4,-5.391 6.36,0 11.44,1.078 15.24,3.23 3.8,2.161 5.7,5.387 5.7,9.7 0,4.718 -2.42,8.414 -7.24,11.078 -4.82,2.668 -12.57,5.543 -23.24,8.625 -11.29,3.285 -20.68,6.562 -28.17,9.847 -7.49,3.282 -13.9,8.262 -19.24,14.93 -5.34,6.672 -8,15.34 -8,26.016 0,16.418 6.15,29.14 18.46,38.172 12.32,9.031 27.92,13.546 46.8,13.546 11.29,0 22.58,-1.589 33.86,-4.773 11.29,-3.184 21.55,-7.746 30.79,-13.695 z m 159.46,-116.984 -40.01,67.418 -21.24,-22.473 v -44.945 h -47.41 v 228.426 h 47.41 V 689.066 l 60.64,62.497 h 53.88 l -60.65,-63.727 63.42,-101.59 z m 80.36,165.621 h 47.41 V 586.246 h -47.41 z m 23.39,73.574 c 7.6,0 13.81,-2.461 18.63,-7.382 4.82,-4.93 7.24,-11.289 7.24,-19.09 0,-7.801 -2.42,-14.156 -7.24,-19.086 -4.82,-4.926 -11.03,-7.387 -18.63,-7.387 -7.38,0 -13.49,2.512 -18.32,7.543 -4.82,5.027 -7.23,11.336 -7.23,18.93 0,7.801 2.41,14.16 7.23,19.09 4.83,4.921 10.94,7.382 18.32,7.382 z m 140.69,-72.035 c 26.68,0 46.95,-7.695 60.81,-23.086 13.84,-15.394 20.77,-36.84 20.77,-64.343 0,-4.922 -0.1,-8.719 -0.31,-11.391 h -118.82 c 2.66,-10.465 7.79,-18.625 15.38,-24.473 7.6,-5.843 16.73,-8.773 27.41,-8.773 7.79,0 15.28,1.492 22.46,4.465 7.19,2.972 13.66,7.34 19.4,13.086 l 24.94,-25.246 c -8.42,-9.442 -18.63,-16.676 -30.63,-21.7 -12.01,-5.031 -25.4,-7.547 -40.17,-7.547 -17.45,0 -32.69,3.489 -45.72,10.465 -13.03,6.981 -23.09,16.832 -30.17,29.551 -7.08,12.727 -10.62,27.402 -10.62,44.027 0,16.832 3.59,31.661 10.77,44.485 7.18,12.828 17.24,22.785 30.17,29.863 12.93,7.078 27.71,10.617 44.33,10.617 z m 36.95,-70.804 c -0.42,10.878 -3.91,19.597 -10.47,26.168 -6.57,6.566 -15.29,9.847 -26.17,9.847 -10.26,0 -18.83,-3.226 -25.71,-9.695 -6.87,-6.465 -11.23,-15.234 -13.08,-26.32 z m 43.71,-116.981 c 4.71,-1.441 9.13,-2.258 13.23,-2.465 6.37,-0.203 11.19,1.746 14.47,5.852 3.29,4.101 4.93,10.055 4.93,17.851 v 165.008 h 47.1 v -172.39 c 0,-17.039 -4.93,-30.43 -14.78,-40.176 -9.85,-9.75 -23.39,-14.625 -40.63,-14.625 -12.73,0 -24.12,2.156 -34.17,6.465 z m 55.4,259.82 c 7.6,0 13.81,-2.461 18.63,-7.382 4.83,-4.93 7.24,-11.289 7.24,-19.09 0,-7.801 -2.41,-14.156 -7.24,-19.086 -4.82,-4.926 -11.03,-7.387 -18.63,-7.387 -7.38,0 -13.49,2.512 -18.31,7.543 -4.82,5.027 -7.24,11.336 -7.24,18.93 0,7.801 2.42,14.16 7.24,19.09 4.82,4.921 10.93,7.382 18.31,7.382"
         style="fill:#18316a;fill-opacity:1;fill-rule:nonzero;stroke:none"
         id="path38"
         inkscape:connector-curvature="0" /></g></g></svg>
