<?xml version="1.0" encoding="UTF-8" standalone="no"?>
<!-- Created with Inkscape (http://www.inkscape.org/) -->

<svg
   xmlns:dc="http://purl.org/dc/elements/1.1/"
   xmlns:cc="http://creativecommons.org/ns#"
   xmlns:rdf="http://www.w3.org/1999/02/22-rdf-syntax-ns#"
   xmlns:svg="http://www.w3.org/2000/svg"
   xmlns="http://www.w3.org/2000/svg"
   xmlns:sodipodi="http://sodipodi.sourceforge.net/DTD/sodipodi-0.dtd"
   xmlns:inkscape="http://www.inkscape.org/namespaces/inkscape"
   width="302.4082"
   height="68.024696"
   viewBox="0 0 80.01217 17.998198"
   version="1.1"
   id="svg8852"
   sodipodi:docname="white-ue-logo-without-required-margins.svg"
   inkscape:version="0.92.3 (2405546, 2018-03-11)">
  <defs
     id="defs8846" />
  <sodipodi:namedview
     id="base"
     pagecolor="#ffffff"
     bordercolor="#666666"
     borderopacity="1.0"
     inkscape:pageopacity="0.0"
     inkscape:pageshadow="2"
     inkscape:zoom="1.4142136"
     inkscape:cx="167.88893"
     inkscape:cy="19.505734"
     inkscape:document-units="mm"
     inkscape:current-layer="layer1"
     showgrid="false"
     inkscape:window-width="1549"
     inkscape:window-height="872"
     inkscape:window-x="51"
     inkscape:window-y="28"
     inkscape:window-maximized="1"
     fit-margin-top="0"
     fit-margin-left="0"
     fit-margin-right="0"
     fit-margin-bottom="0"
     units="px"
     showguides="false" />
  <metadata
     id="metadata8849">
    <rdf:RDF>
      <cc:Work
         rdf:about="">
        <dc:format>image/svg+xml</dc:format>
        <dc:type
           rdf:resource="http://purl.org/dc/dcmitype/StillImage" />
        <dc:title></dc:title>
      </cc:Work>
    </rdf:RDF>
  </metadata>
  <g
     inkscape:label="Layer 1"
     inkscape:groupmode="layer"
     id="layer1"
     transform="translate(-59.852419,-112.0543)">
    <g
       id="g1101"
       style="fill:#ffffff">
      <path
         id="path5097"
         transform="matrix(0.26458333,0,0,0.26458333,59.852419,112.0543)"
         d="M 0 0 L 0 68.025391 L 102.03711 68.025391 L 102.03711 0 L 0 0 z M 51.001953 8.1425781 L 51.824219 10.714844 L 54.519531 10.714844 L 52.330078 12.285156 L 53.152344 14.826172 L 51.001953 13.253906 L 48.84375 14.826172 L 49.658203 12.285156 L 47.474609 10.714844 L 50.179688 10.714844 L 51.001953 8.1425781 z M 39.851562 11.126953 L 40.679688 13.705078 L 43.375 13.705078 L 41.1875 15.277344 L 42.007812 17.816406 L 39.857422 16.244141 L 37.699219 17.816406 L 38.521484 15.275391 L 36.339844 13.703125 L 39.029297 13.710938 L 39.851562 11.126953 z M 62.15625 11.126953 L 62.986328 13.703125 L 65.681641 13.703125 L 63.498047 15.277344 L 64.314453 17.822266 L 62.169922 16.242188 L 60.011719 17.822266 L 60.828125 15.277344 L 58.638672 13.703125 L 61.341797 13.710938 L 62.15625 11.126953 z M 70.296875 19.263672 L 71.125 21.845703 L 73.820312 21.845703 L 71.630859 23.410156 L 72.453125 25.949219 L 70.296875 24.386719 L 68.138672 25.949219 L 68.966797 23.410156 L 66.783203 21.845703 L 69.474609 21.853516 L 70.296875 19.263672 z M 31.699219 19.302734 L 32.527344 21.876953 L 35.226562 21.876953 L 33.035156 23.451172 L 33.857422 25.990234 L 31.699219 24.423828 L 29.546875 25.990234 L 30.363281 23.451172 L 28.179688 21.876953 L 30.876953 21.880859 L 31.699219 19.302734 z M 73.259766 30.394531 L 74.076172 32.972656 L 76.773438 32.972656 L 74.589844 34.544922 L 75.412109 37.085938 L 73.259766 35.511719 L 71.095703 37.085938 L 71.925781 34.544922 L 69.738281 32.972656 L 72.425781 32.972656 L 73.259766 30.394531 z M 28.714844 30.427734 L 29.537109 33.003906 L 32.232422 33.003906 L 30.042969 34.576172 L 30.859375 37.117188 L 28.714844 35.537109 L 26.556641 37.115234 L 27.371094 34.574219 L 25.1875 33.003906 L 27.878906 33.011719 L 28.714844 30.427734 z M 31.697266 41.591797 L 32.527344 44.164062 L 35.224609 44.164062 L 33.035156 45.744141 L 33.855469 48.275391 L 31.697266 46.703125 L 29.546875 48.275391 L 30.363281 45.744141 L 28.179688 44.164062 L 30.876953 44.164062 L 31.697266 41.591797 z M 70.294922 41.591797 L 71.123047 44.164062 L 73.822266 44.164062 L 71.628906 45.744141 L 72.453125 48.275391 L 70.294922 46.703125 L 68.136719 48.275391 L 68.966797 45.744141 L 66.78125 44.164062 L 69.472656 44.164062 L 70.294922 41.591797 z M 39.869141 49.761719 L 40.691406 52.332031 L 43.396484 52.332031 L 41.205078 53.904297 L 42.027344 56.443359 L 39.869141 54.871094 L 37.71875 56.443359 L 38.533203 53.904297 L 36.34375 52.332031 L 39.039062 52.339844 L 39.869141 49.761719 z M 62.123047 49.761719 L 62.953125 52.332031 L 65.65625 52.332031 L 63.458984 53.904297 L 64.28125 56.443359 L 62.123047 54.871094 L 59.972656 56.443359 L 60.789062 53.904297 L 58.611328 52.332031 L 61.294922 52.339844 L 62.123047 49.761719 z M 51 52.714844 L 51.822266 55.292969 L 54.527344 55.292969 L 52.328125 56.859375 L 53.158203 59.404297 L 51 57.832031 L 48.841797 59.404297 L 49.664062 56.859375 L 47.474609 55.292969 L 50.177734 55.292969 L 51 52.714844 z "
         style="fill:#ffffff;fill-rule:evenodd;stroke-width:0.99999994" />
      <g
         transform="matrix(0.26458333,0,0,0.26458333,47.855629,100.05426)"
         id="Layer1002"
         style="fill:#ffffff">
        <g
           id="Layer1003"
           style="fill:#ffffff">
          <path
             d="M 170.1363,89.6351 V 78.4084 h 6.8525 v 1.3448 h -5.2807 v 3.3369 h 4.6976 v 1.3125 h -4.6976 v 3.8877 h 5.6861 v 1.3448 z"
             style="fill:#ffffff;fill-rule:evenodd"
             id="path5124"
             inkscape:connector-curvature="0" />
          <path
             d="m 185.6075,89.2135 c -0.3458,0.0871 -0.8022,0.1783 -1.3691,0.2756 -0.5669,0.0972 -1.2231,0.146 -1.9684,0.146 -0.648,0 -1.1934,-0.0944 -1.6361,-0.2838 -0.4431,-0.1885 -0.7994,-0.4561 -1.0693,-0.8016 -0.2701,-0.3459 -0.4645,-0.7535 -0.583,-1.2232 -0.1194,-0.4697 -0.1783,-0.9907 -0.1783,-1.563 V 81.033 h 1.5069 v 4.4062 c 0,1.0264 0.1615,1.7603 0.4858,2.2031 0.324,0.4431 0.8691,0.6642 1.6362,0.6642 0.1621,0 0.3291,-0.0049 0.502,-0.0162 0.1729,-0.0108 0.335,-0.0244 0.4861,-0.0405 0.1511,-0.0162 0.2886,-0.0324 0.4133,-0.0482 0.1239,-0.0162 0.2129,-0.0355 0.267,-0.0567 V 81.033 h 1.5069 z"
             style="fill:#ffffff;fill-rule:evenodd"
             id="path5126"
             inkscape:connector-curvature="0" />
          <path
             d="m 191.2286,81.033 c 0.1299,0 0.2784,0.0077 0.4457,0.0238 0.1669,0.0168 0.3322,0.038 0.4943,0.065 0.1616,0.0275 0.3098,0.0544 0.4453,0.081 0.1347,0.0275 0.2347,0.0513 0.2997,0.0729 l -0.2594,1.3124 c -0.1191,-0.0431 -0.3158,-0.0947 -0.5913,-0.1536 -0.2753,-0.0598 -0.6293,-0.0896 -1.061,-0.0896 -0.2812,0 -0.559,0.0298 -0.8343,0.0896 -0.2755,0.0589 -0.4566,0.0995 -0.5425,0.121 v 7.0796 h -1.5069 v -8.0674 c 0.3563,-0.1299 0.7994,-0.2515 1.3286,-0.3649 0.5289,-0.1131 1.1231,-0.1698 1.7818,-0.1698 z"
             style="fill:#ffffff;fill-rule:evenodd"
             id="path5128"
             inkscape:connector-curvature="0" />
          <path
             d="m 201.7262,85.2289 c 0,0.6692 -0.0972,1.2742 -0.2917,1.8144 -0.1947,0.54 -0.4671,1.0044 -0.8184,1.393 -0.3509,0.3886 -0.7693,0.6885 -1.2551,0.8988 -0.4865,0.2109 -1.0157,0.3161 -1.588,0.3161 -0.5723,0 -1.1015,-0.1052 -1.5874,-0.3161 -0.4859,-0.2103 -0.9048,-0.5102 -1.2555,-0.8988 -0.3509,-0.3886 -0.6239,-0.853 -0.8183,-1.393 -0.1942,-0.5402 -0.2914,-1.1452 -0.2914,-1.8144 0,-0.6588 0.0972,-1.2609 0.2914,-1.8068 0.1944,-0.5448 0.4674,-1.012 0.8183,-1.4009 0.3507,-0.3892 0.7696,-0.6888 1.2555,-0.8994 0.4859,-0.2104 1.0151,-0.3158 1.5874,-0.3158 0.5723,0 1.1015,0.1054 1.588,0.3158 0.4858,0.2106 0.9042,0.5102 1.2551,0.8994 0.3513,0.3889 0.6237,0.8561 0.8184,1.4009 0.1945,0.5459 0.2917,1.148 0.2917,1.8068 z m -1.5718,0 v 0 c 0,-0.9502 -0.2135,-1.7036 -0.6398,-2.2604 -0.4266,-0.5561 -1.0071,-0.8339 -1.7416,-0.8339 -0.7345,0 -1.315,0.2778 -1.7413,0.8339 -0.4266,0.5568 -0.6401,1.3102 -0.6401,2.2604 0,0.9502 0.2135,1.7036 0.6401,2.2598 0.4263,0.5558 1.0068,0.8345 1.7413,0.8345 0.7345,0 1.315,-0.2787 1.7416,-0.8345 0.4263,-0.5562 0.6398,-1.3096 0.6398,-2.2598 z"
             style="fill:#ffffff;fill-rule:evenodd"
             id="path5130"
             inkscape:connector-curvature="0" />
          <path
             d="m 211.1871,85.4392 c 0,0.6372 -0.0839,1.226 -0.2514,1.7657 -0.1676,0.5406 -0.4133,1.0043 -0.7368,1.3935 -0.3245,0.3887 -0.7214,0.6908 -1.1911,0.9074 -0.4697,0.2157 -1.0074,0.3234 -1.6117,0.3234 -0.4859,0 -0.9156,-0.0646 -1.2881,-0.1941 -0.3725,-0.1293 -0.6506,-0.2535 -0.834,-0.3725 v 3.3695 h -1.5069 V 81.4699 c 0.3566,-0.0859 0.8017,-0.1806 1.3363,-0.2832 0.5349,-0.1024 1.1531,-0.1537 1.855,-0.1537 0.648,0 1.2316,0.1027 1.7495,0.3076 0.5188,0.2049 0.9615,0.4972 1.3286,0.8751 0.3674,0.3778 0.6506,0.8399 0.8507,1.3847 0.1998,0.5454 0.2999,1.1588 0.2999,1.8388 z m -1.5718,0 v 0 c 0,-0.9822 -0.2427,-1.7388 -0.7291,-2.268 -0.4858,-0.5289 -1.1336,-0.794 -1.9437,-0.794 -0.4538,0 -0.8076,0.0168 -1.061,0.0488 -0.254,0.0323 -0.4567,0.0703 -0.6075,0.1134 v 5.3132 c 0.1834,0.1517 0.4476,0.2977 0.7935,0.4377 0.3455,0.1406 0.7236,0.2109 1.1341,0.2109 0.4317,0 0.8019,-0.0785 1.11,-0.2353 0.3076,-0.1562 0.5585,-0.3725 0.7529,-0.648 0.1942,-0.2752 0.3348,-0.5989 0.4215,-0.9717 0.0862,-0.3725 0.1293,-0.7747 0.1293,-1.207 z"
             style="fill:#ffffff;fill-rule:evenodd"
             id="path5132"
             inkscape:connector-curvature="0" />
          <path
             d="m 212.7575,85.2448 c 0,-0.745 0.1083,-1.3958 0.324,-1.952 0.2169,-0.5561 0.502,-1.0182 0.8595,-1.3853 0.3554,-0.3668 0.7656,-0.642 1.2305,-0.8263 0.4649,-0.1834 0.9394,-0.2752 1.4258,-0.2752 1.1347,0 2.0038,0.354 2.6073,1.061 0.6055,0.7075 0.9082,1.7853 0.9082,3.2318 0,0.0652 0,0.1491 0,0.2517 0,0.1023 -0.006,0.1967 -0.0156,0.2832 h -5.7676 c 0.0646,0.8747 0.3183,1.5389 0.7617,1.9924 0.4413,0.4539 1.1327,0.6804 2.0724,0.6804 0.5292,0 0.9745,-0.0454 1.3379,-0.1378 0.3612,-0.0913 0.6327,-0.1806 0.8164,-0.267 l 0.2109,1.2637 c -0.1837,0.0972 -0.504,0.1998 -0.9629,0.3075 -0.459,0.1086 -0.9805,0.1622 -1.5645,0.1622 -0.7344,0 -1.3671,-0.1109 -1.9023,-0.3323 -0.5352,-0.2211 -0.9746,-0.5261 -1.3204,-0.9153 -0.3458,-0.3886 -0.6035,-0.8501 -0.7696,-1.3847 -0.1678,-0.5346 -0.2517,-1.1208 -0.2517,-1.758 z m 5.7832,-0.8261 v 0 c 0.0117,-0.6806 -0.1584,-1.2393 -0.5099,-1.6767 -0.3515,-0.4376 -0.834,-0.6562 -1.4491,-0.6562 -0.3458,0 -0.6505,0.0678 -0.9161,0.2027 -0.2637,0.1349 -0.4882,0.3104 -0.6718,0.5264 -0.1837,0.2163 -0.3263,0.464 -0.4298,0.7449 -0.1034,0.2812 -0.1698,0.5675 -0.2032,0.8589 z"
             style="fill:#ffffff;fill-rule:evenodd"
             id="path5134"
             inkscape:connector-curvature="0" />
          <path
             d="m 220.8258,92.6644 c -0.1299,0 -0.2971,-0.0161 -0.5021,-0.0484 -0.2049,-0.0326 -0.3778,-0.0757 -0.5184,-0.1299 l 0.1942,-1.231 c 0.1085,0.0323 0.2324,0.0592 0.373,0.081 0.1397,0.0216 0.2696,0.0323 0.3889,0.0323 0.5185,0 0.8875,-0.1596 1.1092,-0.4782 0.2217,-0.318 0.3322,-0.7854 0.3322,-1.4011 v -8.278 h 1.5066 v 8.2618 c 0,1.08 -0.246,1.8819 -0.7373,2.4058 -0.4912,0.5241 -1.2069,0.7857 -2.1463,0.7857 z m 2.122,-12.9761 v 0 c -0.2696,0 -0.4989,-0.0893 -0.6886,-0.267 -0.1885,-0.1783 -0.2831,-0.4184 -0.2831,-0.7215 0,-0.3021 0.0946,-0.5422 0.2831,-0.7205 0.1897,-0.1783 0.419,-0.2676 0.6886,-0.2676 0.2695,0 0.5,0.0893 0.6885,0.2676 0.1894,0.1783 0.284,0.4184 0.284,0.7205 0,0.3031 -0.0946,0.5432 -0.284,0.7215 -0.1885,0.1777 -0.419,0.267 -0.6885,0.267 z"
             style="fill:#ffffff;fill-rule:evenodd"
             id="path5136"
             inkscape:connector-curvature="0" />
          <path
             d="m 228.1791,88.3552 c 0.6163,0 1.0724,-0.0811 1.3694,-0.2432 0.2968,-0.1616 0.4453,-0.4209 0.4453,-0.7773 0,-0.367 -0.1457,-0.6587 -0.4376,-0.875 -0.2909,-0.2157 -0.7716,-0.4589 -1.4414,-0.7288 -0.3243,-0.1295 -0.6347,-0.2619 -0.9318,-0.3971 -0.2968,-0.135 -0.5536,-0.294 -0.7693,-0.4774 -0.216,-0.1837 -0.3889,-0.4053 -0.5188,-0.6647 -0.1289,-0.2594 -0.1941,-0.5777 -0.1941,-0.9556 0,-0.7452 0.2752,-1.3365 0.826,-1.7739 0.551,-0.4377 1.3019,-0.6562 2.2521,-0.6562 0.2373,0 0.4754,0.0136 0.7129,0.0405 0.2373,0.0272 0.459,0.0595 0.6639,0.0972 0.2052,0.038 0.3858,0.0786 0.5431,0.1217 0.1562,0.0433 0.2784,0.0807 0.3643,0.1131 l -0.2756,1.2962 c -0.1621,-0.0861 -0.4158,-0.1757 -0.7616,-0.2676 -0.3456,-0.0915 -0.7606,-0.1374 -1.247,-0.1374 -0.4209,0 -0.7883,0.0839 -1.1015,0.2508 -0.3135,0.1676 -0.47,0.4298 -0.47,0.7858 0,0.184 0.0354,0.3461 0.1057,0.4861 0.0703,0.1404 0.1775,0.2673 0.324,0.3805 0.1457,0.1139 0.3263,0.2188 0.542,0.316 0.216,0.0972 0.4757,0.2001 0.7784,0.3081 0.3994,0.1514 0.756,0.2997 1.0684,0.4454 0.3135,0.1459 0.5811,0.3157 0.8027,0.5102 0.2206,0.1942 0.3907,0.4292 0.5097,0.7044 0.1191,0.2755 0.1789,0.6134 0.1789,1.0128 0,0.7779 -0.2891,1.3663 -0.8674,1.7657 -0.578,0.4 -1.4012,0.5996 -2.4707,0.5996 -0.7449,0 -1.328,-0.0621 -1.749,-0.1866 -0.4218,-0.1241 -0.7078,-0.2182 -0.8583,-0.2831 l 0.2755,-1.296 c 0.1718,0.0646 0.4473,0.1615 0.826,0.2916 0.3779,0.1293 0.8799,0.1942 1.5058,0.1942 z"
             style="fill:#ffffff;fill-rule:evenodd"
             id="path5138"
             inkscape:connector-curvature="0" />
          <path
             d="m 236.4098,85.0018 c 0.324,0.2483 0.667,0.5565 1.0281,0.9233 0.3623,0.3676 0.7189,0.7642 1.0695,1.1908 0.3504,0.4269 0.6826,0.8583 0.9961,1.296 0.3135,0.4374 0.578,0.8453 0.794,1.2232 h -1.7657 c -0.2265,-0.3779 -0.4893,-0.7643 -0.786,-1.1583 -0.2971,-0.394 -0.6075,-0.7719 -0.9307,-1.1341 -0.3245,-0.3614 -0.6545,-0.6939 -0.9884,-0.9961 -0.3351,-0.3022 -0.6542,-0.5565 -0.9561,-0.7614 v 4.0499 h -1.5069 v -12.312 l 1.5069,-0.2594 v 7.6788 c 0.2588,-0.2588 0.5451,-0.5449 0.8583,-0.8584 0.3135,-0.3129 0.6211,-0.6318 0.9241,-0.9561 0.3016,-0.3237 0.5876,-0.6341 0.8583,-0.9312 0.2696,-0.2968 0.502,-0.559 0.6962,-0.7857 h 1.7657 c -0.248,0.2701 -0.5187,0.5669 -0.8096,0.8909 -0.2919,0.324 -0.5938,0.6508 -0.9073,0.9802 -0.3133,0.3297 -0.6288,0.6588 -0.9482,0.9879 -0.3183,0.3296 -0.618,0.64 -0.8983,0.9317 z"
             style="fill:#ffffff;fill-rule:evenodd"
             id="path5140"
             inkscape:connector-curvature="0" />
          <path
             d="m 242.4839,79.6883 c -0.2696,0 -0.4989,-0.0893 -0.6886,-0.267 -0.1882,-0.1783 -0.2832,-0.4184 -0.2832,-0.7215 0,-0.3021 0.095,-0.5422 0.2832,-0.7205 0.1897,-0.1783 0.419,-0.2676 0.6886,-0.2676 0.2695,0 0.5,0.0893 0.6885,0.2676 0.1894,0.1783 0.2843,0.4184 0.2843,0.7205 0,0.3031 -0.0949,0.5432 -0.2843,0.7215 -0.1885,0.1777 -0.419,0.267 -0.6885,0.267 z m 0.7616,9.9468 v 0 h -1.5066 v -8.424 h 1.5066 z"
             style="fill:#ffffff;fill-rule:evenodd"
             id="path5142"
             inkscape:connector-curvature="0" />
          <path
             d="M 249.5152,89.6351 V 78.4084 h 6.7714 v 1.3448 h -5.2002 v 3.3857 h 4.6171 v 1.328 h -4.6171 v 5.1682 z"
             style="fill:#ffffff;fill-rule:evenodd"
             id="path5144"
             inkscape:connector-curvature="0" />
          <path
             d="m 264.3373,89.2135 c -0.3456,0.0871 -0.8017,0.1783 -1.3689,0.2756 -0.5666,0.0972 -1.2228,0.146 -1.9678,0.146 -0.6485,0 -1.1945,-0.0944 -1.6367,-0.2838 -0.4425,-0.1885 -0.7988,-0.4561 -1.0695,-0.8016 -0.2696,-0.3459 -0.4638,-0.7535 -0.5828,-1.2232 -0.1194,-0.4697 -0.1778,-0.9907 -0.1778,-1.563 V 81.033 h 1.5058 v 4.4062 c 0,1.0264 0.1622,1.7603 0.4864,2.2031 0.324,0.4431 0.8691,0.6642 1.6356,0.6642 0.1622,0 0.33,-0.0049 0.5029,-0.0162 0.1721,-0.0108 0.3342,-0.0244 0.4853,-0.0405 0.1516,-0.0162 0.2891,-0.0324 0.4133,-0.0482 0.1238,-0.0162 0.2137,-0.0355 0.2676,-0.0567 V 81.033 h 1.5066 z"
             style="fill:#ffffff;fill-rule:evenodd"
             id="path5146"
             inkscape:connector-curvature="0" />
          <path
             d="m 266.8482,81.454 c 0.3458,-0.0859 0.8048,-0.1783 1.3768,-0.2755 0.5723,-0.0973 1.2316,-0.1455 1.9766,-0.1455 0.6701,0 1.2257,0.0947 1.669,0.2832 0.4425,0.1894 0.796,0.4536 1.0605,0.794 0.2647,0.3402 0.4513,0.7481 0.5595,1.2232 0.1078,0.475 0.1613,0.9989 0.1613,1.5712 v 4.7305 h -1.506 v -4.4062 c 0,-0.5188 -0.0349,-0.9615 -0.1052,-1.3286 -0.0706,-0.3674 -0.1868,-0.6642 -0.3486,-0.8912 -0.1622,-0.2265 -0.3782,-0.3912 -0.6475,-0.4941 -0.2707,-0.1026 -0.6055,-0.1539 -1.0049,-0.1539 -0.1621,0 -0.3291,0.0059 -0.502,0.0161 -0.1729,0.0114 -0.3379,0.0244 -0.4941,0.0406 -0.1573,0.0167 -0.297,0.0351 -0.4209,0.0569 -0.125,0.0216 -0.214,0.0377 -0.2676,0.0485 v 7.1119 h -1.5069 z"
             style="fill:#ffffff;fill-rule:evenodd"
             id="path5148"
             inkscape:connector-curvature="0" />
          <path
             d="m 281.5093,77.1286 1.5069,-0.2594 v 12.3285 c -0.3458,0.0969 -0.7892,0.1941 -1.3292,0.2914 -0.54,0.0972 -1.1611,0.146 -1.8624,0.146 -0.6482,0 -1.2313,-0.1027 -1.7498,-0.3076 -0.5187,-0.2052 -0.9609,-0.4966 -1.3283,-0.8751 -0.3671,-0.3778 -0.6514,-0.8393 -0.8504,-1.3853 -0.2004,-0.5448 -0.2999,-1.1582 -0.2999,-1.8382 0,-0.648 0.0839,-1.2424 0.2509,-1.7824 0.1672,-0.54 0.4133,-1.0044 0.7375,-1.393 0.324,-0.3886 0.7206,-0.6908 1.1903,-0.9074 0.4697,-0.2157 1.0069,-0.324 1.6124,-0.324 0.4853,0 0.915,0.065 1.288,0.1948 0.3722,0.1292 0.6503,0.2534 0.834,0.3725 z m 0,5.6699 v 0 c -0.1837,-0.1508 -0.4482,-0.2968 -0.794,-0.4374 -0.3455,-0.1401 -0.7237,-0.2104 -1.1336,-0.2104 -0.4328,0 -0.8019,0.0786 -1.1095,0.2347 -0.3087,0.1568 -0.5595,0.3728 -0.754,0.648 -0.1941,0.2756 -0.3347,0.6021 -0.4209,0.98 -0.0868,0.3784 -0.1298,0.7832 -0.1298,1.2155 0,0.9828 0.2432,1.741 0.7296,2.2756 0.4853,0.5349 1.1338,0.802 1.9434,0.802 0.4099,0 0.7538,-0.0188 1.0293,-0.0567 0.2752,-0.0377 0.4881,-0.078 0.6395,-0.1216 z"
             style="fill:#ffffff;fill-rule:evenodd"
             id="path5150"
             inkscape:connector-curvature="0" />
          <path
             d="m 292.2339,89.2135 c -0.3456,0.0871 -0.8017,0.1783 -1.3692,0.2756 -0.5663,0.0972 -1.2225,0.146 -1.9678,0.146 -0.6483,0 -1.1942,-0.0944 -1.6367,-0.2838 -0.4422,-0.1885 -0.7988,-0.4561 -1.0692,-0.8016 -0.2696,-0.3459 -0.4638,-0.7535 -0.5831,-1.2232 -0.1191,-0.4697 -0.1777,-0.9907 -0.1777,-1.563 V 81.033 h 1.506 v 4.4062 c 0,1.0264 0.1622,1.7603 0.4862,2.2031 0.3242,0.4431 0.8691,0.6642 1.6358,0.6642 0.1619,0 0.33,-0.0049 0.5029,-0.0162 0.1718,-0.0108 0.3339,-0.0244 0.4853,-0.0405 0.1514,-0.0162 0.2891,-0.0324 0.413,-0.0482 0.1241,-0.0162 0.214,-0.0355 0.2676,-0.0567 V 81.033 h 1.5069 z"
             style="fill:#ffffff;fill-rule:evenodd"
             id="path5152"
             inkscape:connector-curvature="0" />
          <path
             d="m 296.7047,88.3552 c 0.6162,0 1.0723,-0.0811 1.3691,-0.2432 0.2968,-0.1616 0.4453,-0.4209 0.4453,-0.7773 0,-0.367 -0.1454,-0.6587 -0.4373,-0.875 -0.2912,-0.2157 -0.7716,-0.4589 -1.4415,-0.7288 -0.3242,-0.1295 -0.6349,-0.2619 -0.9317,-0.3971 -0.2971,-0.135 -0.5539,-0.294 -0.7696,-0.4774 -0.2157,-0.1837 -0.3886,-0.4053 -0.5185,-0.6647 -0.129,-0.2594 -0.1944,-0.5777 -0.1944,-0.9556 0,-0.7452 0.2755,-1.3365 0.8263,-1.7739 0.5507,-0.4377 1.3016,-0.6562 2.2518,-0.6562 0.2373,0 0.4757,0.0136 0.7129,0.0405 0.2373,0.0272 0.459,0.0595 0.6642,0.0972 0.2049,0.038 0.3855,0.0786 0.5428,0.1217 0.1562,0.0433 0.2784,0.0807 0.3643,0.1131 l -0.2753,1.2962 c -0.1621,-0.0861 -0.4161,-0.1757 -0.7616,-0.2676 -0.3459,-0.0915 -0.7609,-0.1374 -1.2473,-0.1374 -0.4209,0 -0.788,0.0839 -1.1015,0.2508 -0.3135,0.1676 -0.4697,0.4298 -0.4697,0.7858 0,0.184 0.0351,0.3461 0.1054,0.4861 0.0703,0.1404 0.1777,0.2673 0.3243,0.3805 0.1454,0.1139 0.326,0.2188 0.542,0.316 0.2157,0.0972 0.4756,0.2001 0.7781,0.3081 0.3997,0.1514 0.756,0.2997 1.0687,0.4454 0.3132,0.1459 0.5808,0.3157 0.8024,0.5102 0.2209,0.1942 0.3909,0.4292 0.51,0.7044 0.119,0.2755 0.1786,0.6134 0.1786,1.0128 0,0.7779 -0.2892,1.3663 -0.8671,1.7657 -0.5783,0.4 -1.4015,0.5996 -2.4707,0.5996 -0.7452,0 -1.3281,-0.0621 -1.749,-0.1866 -0.4221,-0.1241 -0.7081,-0.2182 -0.8586,-0.2831 l 0.2755,-1.296 c 0.1718,0.0646 0.4473,0.1615 0.8263,0.2916 0.3779,0.1293 0.8796,0.1942 1.5058,0.1942 z"
             style="fill:#ffffff;fill-rule:evenodd"
             id="path5154"
             inkscape:connector-curvature="0" />
          <path
             d="m 307.4772,82.3449 c -0.2268,0.2486 -0.5264,0.5995 -0.8986,1.0534 -0.373,0.4535 -0.7724,0.9555 -1.1991,1.5063 -0.4269,0.5508 -0.8535,1.1288 -1.2804,1.7334 -0.4266,0.6049 -0.8016,1.1826 -1.125,1.7334 h 4.6329 v 1.2637 h -6.4318 v -1.0044 c 0.2599,-0.475 0.5783,-0.9992 0.9561,-1.5712 0.3779,-0.5723 0.7745,-1.1424 1.1906,-1.709 0.4158,-0.5675 0.8212,-1.1021 1.2146,-1.6041 0.3946,-0.5023 0.7376,-0.9258 1.0293,-1.2717 h -4.1638 v -1.2636 h 6.0752 z"
             style="fill:#ffffff;fill-rule:evenodd"
             id="path5156"
             inkscape:connector-curvature="0" />
          <path
             d="m 175.6279,104.7868 c 0.1729,0.2163 0.3917,0.5 0.6562,0.8507 0.2648,0.3512 0.5372,0.7404 0.8184,1.1664 0.2809,0.4269 0.5587,0.8725 0.8339,1.3366 0.2756,0.4649 0.5105,0.913 0.7053,1.3447 h -1.7175 c -0.2163,-0.4101 -0.451,-0.8263 -0.705,-1.2475 -0.2534,-0.4209 -0.5102,-0.8235 -0.769,-1.2067 -0.2594,-0.3833 -0.5162,-0.7427 -0.7694,-1.0777 -0.2539,-0.3342 -0.4841,-0.6259 -0.6885,-0.8745 -0.1406,0.0107 -0.2837,0.0161 -0.4297,0.0161 -0.1457,0 -0.2945,0 -0.4454,0 h -1.4091 v 4.3903 h -1.5718 V 98.4208 c 0.4428,-0.108 0.9369,-0.1806 1.4823,-0.2189 0.5456,-0.0374 1.0451,-0.0567 1.4986,-0.0567 1.5767,0 2.7783,0.2971 3.6046,0.8907 0.826,0.5944 1.2393,1.4799 1.2393,2.6572 0,0.7452 -0.1973,1.3824 -0.5913,1.9117 -0.3946,0.5292 -0.9749,0.9232 -1.7419,1.182 z m -2.3814,-5.2645 v 0 c -0.6693,0 -1.1826,0.0162 -1.5384,0.0482 v 4.2284 h 1.1177 c 0.54,0 1.0259,-0.0266 1.4579,-0.0808 0.4317,-0.0541 0.7965,-0.1567 1.0933,-0.3081 0.2968,-0.1511 0.5264,-0.3642 0.6886,-0.6398 0.1621,-0.2752 0.2429,-0.64 0.2429,-1.0936 0,-0.4209 -0.0808,-0.7721 -0.2429,-1.0528 -0.1622,-0.2809 -0.3804,-0.5025 -0.656,-0.6641 -0.2752,-0.1622 -0.5995,-0.2753 -0.972,-0.3405 -0.3727,-0.0649 -0.7696,-0.0969 -1.1911,-0.0969 z"
             style="fill:#ffffff;fill-rule:evenodd"
             id="path5158"
             inkscape:connector-curvature="0" />
          <path
             d="m 187.5841,105.0788 c 0,0.6695 -0.0972,1.2744 -0.2916,1.8144 -0.1948,0.54 -0.4672,1.0046 -0.8184,1.3933 -0.3509,0.3886 -0.7696,0.6885 -1.2552,0.8988 -0.4864,0.2109 -1.0156,0.3161 -1.588,0.3161 -0.5723,0 -1.1015,-0.1052 -1.5874,-0.3161 -0.4858,-0.2103 -0.9048,-0.5102 -1.2554,-0.8988 -0.3512,-0.3887 -0.6239,-0.8533 -0.8184,-1.3933 -0.1942,-0.54 -0.2914,-1.1449 -0.2914,-1.8144 0,-0.6585 0.0972,-1.2606 0.2914,-1.8065 0.1945,-0.5449 0.4672,-1.0123 0.8184,-1.4009 0.3506,-0.3892 0.7696,-0.6891 1.2554,-0.8995 0.4859,-0.2103 1.0151,-0.3157 1.5874,-0.3157 0.5724,0 1.1016,0.1054 1.588,0.3157 0.4856,0.2104 0.9043,0.5103 1.2552,0.8995 0.3512,0.3886 0.6236,0.856 0.8184,1.4009 0.1944,0.5459 0.2916,1.148 0.2916,1.8065 z m -1.5718,0 v 0 c 0,-0.9502 -0.2134,-1.7037 -0.6397,-2.2601 -0.4267,-0.5561 -1.0072,-0.8339 -1.7417,-0.8339 -0.7344,0 -1.3149,0.2778 -1.7413,0.8339 -0.4266,0.5564 -0.64,1.3099 -0.64,2.2601 0,0.9501 0.2134,1.7036 0.64,2.2598 0.4264,0.5561 1.0069,0.8345 1.7413,0.8345 0.7345,0 1.315,-0.2784 1.7417,-0.8345 0.4263,-0.5562 0.6397,-1.3097 0.6397,-2.2598 z"
             style="fill:#ffffff;fill-rule:evenodd"
             id="path5160"
             inkscape:connector-curvature="0" />
          <path
             d="m 194.8896,102.1951 c -0.2265,0.2486 -0.5264,0.5995 -0.8989,1.0533 -0.3724,0.4536 -0.7724,0.9556 -1.1987,1.5064 -0.4267,0.5507 -0.8536,1.1287 -1.2799,1.7334 -0.4266,0.6049 -0.8016,1.1826 -1.1259,1.7333 h 4.6335 v 1.2637 h -6.4318 v -1.0046 c 0.2594,-0.4751 0.5777,-0.9989 0.9561,-1.5712 0.3779,-0.5723 0.775,-1.1421 1.1903,-1.709 0.4161,-0.5672 0.8209,-1.1018 1.2155,-1.6039 0.394,-0.5025 0.7367,-0.9258 1.0287,-1.2716 h -4.1636 v -1.2637 h 6.0747 z"
             style="fill:#ffffff;fill-rule:evenodd"
             id="path5162"
             inkscape:connector-curvature="0" />
          <path
             d="m 203.7354,109.4852 c -0.3028,-0.7778 -0.6239,-1.6659 -0.9638,-2.6651 -0.3404,-0.9987 -0.6511,-2.0381 -0.9317,-3.1181 -0.2812,1.08 -0.5888,2.1194 -0.9233,3.1181 -0.335,0.9992 -0.6539,1.8873 -0.9561,2.6651 h -1.3119 c -0.4972,-1.1123 -0.983,-2.3814 -1.4581,-3.8072 -0.4757,-1.4252 -0.9233,-2.9645 -1.3448,-4.6168 h 1.62 c 0.108,0.508 0.2376,1.0588 0.3889,1.6523 0.1514,0.5939 0.3104,1.188 0.478,1.7819 0.1675,0.5941 0.3427,1.1665 0.5263,1.7172 0.1837,0.5508 0.3566,1.0318 0.5185,1.442 0.1837,-0.5074 0.3643,-1.0448 0.5426,-1.6118 0.1783,-0.5669 0.3486,-1.1398 0.5102,-1.7172 0.1621,-0.5777 0.3158,-1.1446 0.462,-1.7013 0.146,-0.5562 0.2724,-1.0772 0.3807,-1.5631 h 1.247 c 0.0972,0.4859 0.2166,1.0069 0.3566,1.5631 0.14,0.5567 0.2914,1.1236 0.4535,1.7013 0.1622,0.5774 0.332,1.1503 0.5103,1.7172 0.1783,0.567 0.3588,1.1044 0.5431,1.6118 0.1621,-0.4102 0.3319,-0.8912 0.5102,-1.442 0.1783,-0.5507 0.3535,-1.1231 0.5264,-1.7172 0.1729,-0.5939 0.3345,-1.188 0.4859,-1.7819 0.1513,-0.5935 0.2806,-1.1443 0.3889,-1.6523 h 1.5554 c -0.4216,1.6523 -0.8697,3.1916 -1.3448,4.6168 -0.4751,1.4258 -0.9615,2.6949 -1.4579,3.8072 z"
             style="fill:#ffffff;fill-rule:evenodd"
             id="path5164"
             inkscape:connector-curvature="0" />
          <path
             d="m 216.5973,105.0788 c 0,0.6695 -0.0958,1.2744 -0.2911,1.8144 -0.1933,0.54 -0.4669,1.0046 -0.8184,1.3933 -0.3495,0.3886 -0.7696,0.6885 -1.2557,0.8988 -0.4845,0.2109 -1.0137,0.3161 -1.5871,0.3161 -0.5721,0 -1.1016,-0.1052 -1.5874,-0.3161 -0.4859,-0.2103 -0.9046,-0.5102 -1.2552,-0.8988 -0.3512,-0.3887 -0.6242,-0.8533 -0.8184,-1.3933 -0.1944,-0.54 -0.2917,-1.1449 -0.2917,-1.8144 0,-0.6585 0.0973,-1.2606 0.2917,-1.8065 0.1942,-0.5449 0.4672,-1.0123 0.8184,-1.4009 0.3506,-0.3892 0.7693,-0.6891 1.2552,-0.8995 0.4858,-0.2103 1.0153,-0.3157 1.5874,-0.3157 0.5734,0 1.1026,0.1054 1.5871,0.3157 0.4861,0.2104 0.9062,0.5103 1.2557,0.8995 0.3515,0.3886 0.6251,0.856 0.8184,1.4009 0.1953,0.5459 0.2911,1.148 0.2911,1.8065 z m -1.5704,0 v 0 c 0,-0.9502 -0.2129,-1.7037 -0.6406,-2.2601 -0.4258,-0.5561 -1.006,-0.8339 -1.7413,-0.8339 -0.7342,0 -1.315,0.2778 -1.7411,0.8339 -0.4269,0.5564 -0.6403,1.3099 -0.6403,2.2601 0,0.9501 0.2134,1.7036 0.6403,2.2598 0.4261,0.5561 1.0069,0.8345 1.7411,0.8345 0.7353,0 1.3155,-0.2784 1.7413,-0.8345 0.4277,-0.5562 0.6406,-1.3097 0.6406,-2.2598 z"
             style="fill:#ffffff;fill-rule:evenodd"
             id="path5166"
             inkscape:connector-curvature="0" />
          <path
             d="m 217.2623,112.5143 c -0.1298,0 -0.2968,-0.0158 -0.502,-0.0482 -0.2052,-0.0328 -0.3779,-0.0756 -0.5185,-0.1301 l 0.1942,-1.2308 c 0.1086,0.0323 0.2325,0.0593 0.3731,0.0811 0.1397,0.0215 0.2695,0.0323 0.3886,0.0323 0.5187,0 0.8878,-0.1599 1.1095,-0.4782 0.2216,-0.3183 0.3319,-0.7855 0.3319,-1.4012 v -8.278 h 1.5069 v 8.2619 c 0,1.08 -0.246,1.8819 -0.7373,2.4057 -0.4912,0.5239 -1.207,0.7855 -2.1464,0.7855 z m 2.122,-12.9758 v 0 c -0.2695,0 -0.4989,-0.0896 -0.6885,-0.2674 -0.1885,-0.178 -0.2832,-0.4183 -0.2832,-0.7211 0,-0.3022 0.0947,-0.5425 0.2832,-0.7206 0.1896,-0.1783 0.419,-0.2675 0.6885,-0.2675 0.2696,0 0.5001,0.0892 0.6886,0.2675 0.1893,0.1781 0.284,0.4184 0.284,0.7206 0,0.3028 -0.0947,0.5431 -0.284,0.7211 -0.1885,0.1778 -0.419,0.2674 -0.6886,0.2674 z"
             style="fill:#ffffff;fill-rule:evenodd"
             id="path5168"
             inkscape:connector-curvature="0" />
          <path
             d="m 229.3637,109.0637 c -0.3455,0.087 -0.8016,0.1783 -1.3691,0.2755 -0.5664,0.097 -1.2226,0.146 -1.9676,0.146 -0.6485,0 -1.1945,-0.0944 -1.6367,-0.2837 -0.4425,-0.1885 -0.7991,-0.4561 -1.0695,-0.8019 -0.2696,-0.3456 -0.4637,-0.7532 -0.5831,-1.2229 -0.119,-0.4697 -0.1777,-0.9907 -0.1777,-1.563 v -4.7308 h 1.506 v 4.4065 c 0,1.0264 0.1622,1.7603 0.4862,2.2031 0.3243,0.4427 0.8691,0.6641 1.6359,0.6641 0.1621,0 0.3299,-0.005 0.5028,-0.0161 0.1718,-0.0108 0.3339,-0.0244 0.4853,-0.0406 0.1514,-0.0161 0.2891,-0.0323 0.4133,-0.0484 0.1239,-0.0159 0.2137,-0.0352 0.2676,-0.0567 v -7.1119 h 1.5066 z"
             style="fill:#ffffff;fill-rule:evenodd"
             id="path5170"
             inkscape:connector-curvature="0" />
          <path
             d="m 241.1235,104.7868 c 0.1729,0.2163 0.3918,0.5 0.6562,0.8507 0.2648,0.3512 0.5372,0.7404 0.8184,1.1664 0.2803,0.4269 0.5587,0.8725 0.8342,1.3366 0.2753,0.4649 0.5106,0.913 0.705,1.3447 h -1.7178 c -0.216,-0.4101 -0.4513,-0.8263 -0.7041,-1.2475 -0.254,-0.4209 -0.5108,-0.8235 -0.7696,-1.2067 -0.2597,-0.3833 -0.5156,-0.7427 -0.7696,-1.0777 -0.2537,-0.3342 -0.4833,-0.6259 -0.6883,-0.8745 -0.1406,0.0107 -0.2843,0.0161 -0.4297,0.0161 -0.1457,0 -0.294,0 -0.4453,0 h -1.4094 v 4.3903 h -1.571 V 98.4208 c 0.4422,-0.108 0.9363,-0.1806 1.4823,-0.2189 0.5448,-0.0374 1.044,-0.0567 1.4981,-0.0567 1.5772,0 2.7782,0.2971 3.6045,0.8907 0.826,0.5944 1.2393,1.4799 1.2393,2.6572 0,0.7452 -0.1973,1.3824 -0.591,1.9117 -0.3946,0.5292 -0.9754,0.9232 -1.7422,1.182 z m -2.3808,-5.2645 v 0 c -0.6698,0 -1.1826,0.0162 -1.5392,0.0482 v 4.2284 h 1.1174 c 0.54,0 1.0264,-0.0266 1.4579,-0.0808 0.4328,-0.0541 0.7968,-0.1567 1.0938,-0.3081 0.2968,-0.1511 0.5264,-0.3642 0.6886,-0.6398 0.1621,-0.2752 0.2429,-0.64 0.2429,-1.0936 0,-0.4209 -0.0808,-0.7721 -0.2429,-1.0528 -0.1622,-0.2809 -0.381,-0.5025 -0.6565,-0.6641 -0.2753,-0.1622 -0.5984,-0.2753 -0.9715,-0.3405 -0.373,-0.0649 -0.7696,-0.0969 -1.1905,-0.0969 z"
             style="fill:#ffffff;fill-rule:evenodd"
             id="path5172"
             inkscape:connector-curvature="0" />
          <path
             d="m 245.1742,105.0949 c 0,-0.7449 0.1077,-1.396 0.3243,-1.9519 0.216,-0.5564 0.502,-1.0182 0.8586,-1.3853 0.3563,-0.3668 0.7665,-0.6423 1.2314,-0.8263 0.4637,-0.1834 0.9394,-0.2752 1.4258,-0.2752 1.1336,0 2.0027,0.354 2.6073,1.061 0.6055,0.7075 0.9071,1.7849 0.9071,3.2317 0,0.065 0,0.1491 0,0.2515 0,0.1026 -0.005,0.197 -0.0156,0.2832 h -5.7673 c 0.0643,0.875 0.3183,1.5392 0.7616,1.9927 0.4422,0.4536 1.1336,0.6803 2.0733,0.6803 0.5292,0 0.9745,-0.0456 1.3368,-0.1377 0.3614,-0.0913 0.6338,-0.1806 0.8175,-0.2671 l 0.2109,1.2634 c -0.1837,0.0973 -0.5051,0.1999 -0.9638,0.3079 -0.4592,0.1083 -0.9805,0.1621 -1.5636,0.1621 -0.7344,0 -1.3682,-0.1108 -1.9034,-0.3322 -0.5341,-0.2211 -0.9746,-0.5261 -1.3201,-0.9153 -0.3458,-0.3889 -0.6027,-0.8501 -0.7696,-1.385 -0.167,-0.5346 -0.2512,-1.1205 -0.2512,-1.7578 z m 5.7833,-0.826 v 0 c 0.0107,-0.6809 -0.1591,-1.2393 -0.5097,-1.677 -0.3515,-0.4373 -0.8351,-0.6559 -1.4502,-0.6559 -0.3455,0 -0.6503,0.0677 -0.915,0.2024 -0.2648,0.1352 -0.4893,0.3107 -0.673,0.5264 -0.1834,0.2163 -0.326,0.4643 -0.4286,0.7452 -0.1034,0.2812 -0.1709,0.5672 -0.2032,0.8589 z"
             style="fill:#ffffff;fill-rule:evenodd"
             id="path5174"
             inkscape:connector-curvature="0" />
          <path
             d="m 259.8999,108.6428 c -0.1298,0.0864 -0.3807,0.1973 -0.7529,0.3322 -0.373,0.1352 -0.8075,0.2027 -1.3047,0.2027 -0.5077,0 -0.9854,-0.0811 -1.4335,-0.2432 -0.4482,-0.1622 -0.8399,-0.4133 -1.175,-0.7535 -0.3339,-0.3404 -0.5984,-0.7636 -0.7928,-1.2716 -0.1945,-0.5077 -0.292,-1.1123 -0.292,-1.8145 0,-0.6157 0.0918,-1.1798 0.2752,-1.6928 0.1837,-0.5125 0.4513,-0.9561 0.802,-1.3286 0.3506,-0.3725 0.7803,-0.6639 1.288,-0.8745 0.5077,-0.2109 1.08,-0.3161 1.7167,-0.3161 0.7021,0 1.3155,0.0513 1.8391,0.1539 0.5244,0.1027 0.9638,0.1973 1.3201,0.2832 v 7.5172 c 0,1.2957 -0.3348,2.2354 -1.0037,2.8188 -0.6702,0.5831 -1.6858,0.8745 -3.0459,0.8745 -0.5295,0 -1.0284,-0.0428 -1.4981,-0.1293 -0.4708,-0.0864 -0.8779,-0.189 -1.2237,-0.3075 l 0.2755,-1.3128 c 0.3025,0.1188 0.6727,0.2243 1.1092,0.3161 0.4374,0.0919 0.8935,0.1378 1.3692,0.1378 0.8966,0 1.542,-0.1783 1.9366,-0.5349 0.3934,-0.3563 0.5907,-0.9233 0.5907,-1.7005 z m -0.0167,-6.2533 v 0 c -0.1511,-0.043 -0.3535,-0.0836 -0.6072,-0.1216 -0.254,-0.0377 -0.5967,-0.0567 -1.0284,-0.0567 -0.8096,0 -1.4335,0.2651 -1.8711,0.794 -0.4374,0.5293 -0.6563,1.2308 -0.6563,2.1059 0,0.4858 0.0624,0.902 0.1866,1.2475 0.1241,0.3458 0.2919,0.6319 0.502,0.8583 0.2109,0.2274 0.4541,0.3946 0.7293,0.5026 0.2756,0.108 0.5587,0.1616 0.8507,0.1616 0.3994,0 0.7665,-0.0567 1.1016,-0.1698 0.3339,-0.1134 0.5986,-0.2458 0.7928,-0.3971 z"
             style="fill:#ffffff;fill-rule:evenodd"
             id="path5176"
             inkscape:connector-curvature="0" />
          <path
             d="m 264.646,99.5385 c -0.2696,0 -0.4989,-0.0896 -0.6886,-0.2674 -0.1882,-0.178 -0.2831,-0.4183 -0.2831,-0.7211 0,-0.3022 0.0949,-0.5425 0.2831,-0.7206 0.1897,-0.1783 0.419,-0.2675 0.6886,-0.2675 0.2695,0 0.5,0.0892 0.6885,0.2675 0.1896,0.1781 0.2843,0.4184 0.2843,0.7206 0,0.3028 -0.0947,0.5431 -0.2843,0.7211 -0.1885,0.1778 -0.419,0.2674 -0.6885,0.2674 z m 0.7616,9.9467 v 0 h -1.5066 v -8.424 h 1.5066 z"
             style="fill:#ffffff;fill-rule:evenodd"
             id="path5178"
             inkscape:connector-curvature="0" />
          <path
             d="m 275.3541,105.0788 c 0,0.6695 -0.0966,1.2744 -0.2911,1.8144 -0.1942,0.54 -0.4677,1.0046 -0.8184,1.3933 -0.3506,0.3886 -0.7696,0.6885 -1.2557,0.8988 -0.4856,0.2109 -1.0148,0.3161 -1.5871,0.3161 -0.5732,0 -1.1016,-0.1052 -1.5877,-0.3161 -0.4864,-0.2103 -0.9043,-0.5102 -1.256,-0.8988 -0.3507,-0.3887 -0.6231,-0.8533 -0.8173,-1.3933 -0.1944,-0.54 -0.2919,-1.1449 -0.2919,-1.8144 0,-0.6585 0.0975,-1.2606 0.2919,-1.8065 0.1942,-0.5449 0.4666,-1.0123 0.8173,-1.4009 0.3517,-0.3892 0.7696,-0.6891 1.256,-0.8995 0.4861,-0.2103 1.0145,-0.3157 1.5877,-0.3157 0.5723,0 1.1015,0.1054 1.5871,0.3157 0.4861,0.2104 0.9051,0.5103 1.2557,0.8995 0.3507,0.3886 0.6242,0.856 0.8184,1.4009 0.1945,0.5459 0.2911,1.148 0.2911,1.8065 z m -1.5715,0 v 0 c 0,-0.9502 -0.2126,-1.7037 -0.6395,-2.2601 -0.4269,-0.5561 -1.0069,-0.8339 -1.7413,-0.8339 -0.7353,0 -1.3153,0.2778 -1.7422,0.8339 -0.4266,0.5564 -0.6395,1.3099 -0.6395,2.2601 0,0.9501 0.2129,1.7036 0.6395,2.2598 0.4269,0.5561 1.0069,0.8345 1.7422,0.8345 0.7344,0 1.3144,-0.2784 1.7413,-0.8345 0.4269,-0.5562 0.6395,-1.3097 0.6395,-2.2598 z"
             style="fill:#ffffff;fill-rule:evenodd"
             id="path5180"
             inkscape:connector-curvature="0" />
          <path
             d="m 277.3951,101.3039 c 0.3455,-0.0859 0.8047,-0.178 1.377,-0.2753 0.5721,-0.0972 1.2314,-0.1457 1.9766,-0.1457 0.6699,0 1.2255,0.095 1.6688,0.2835 0.4425,0.1893 0.796,0.4535 1.0607,0.794 0.2645,0.3401 0.451,0.7478 0.5593,1.2228 0.1074,0.4751 0.1613,0.9993 0.1613,1.5716 v 4.7304 h -1.5058 v -4.4064 c 0,-0.5185 -0.0354,-0.9613 -0.1057,-1.3286 -0.0703,-0.3671 -0.1865,-0.6639 -0.3484,-0.891 -0.1621,-0.2267 -0.3781,-0.3911 -0.6477,-0.494 -0.2704,-0.1026 -0.6052,-0.154 -1.0046,-0.154 -0.1624,0 -0.3291,0.006 -0.502,0.0162 -0.1729,0.0111 -0.3379,0.0244 -0.4941,0.0405 -0.1573,0.0165 -0.2971,0.0352 -0.4209,0.057 -0.125,0.0216 -0.2141,0.0377 -0.2676,0.0485 v 7.1118 h -1.5069 z"
             style="fill:#ffffff;fill-rule:evenodd"
             id="path5182"
             inkscape:connector-curvature="0" />
          <path
             d="m 289.3346,100.6888 c 0.6043,0 1.1152,0.0782 1.531,0.2347 0.4153,0.157 0.75,0.3781 1.004,0.6641 0.254,0.286 0.4346,0.6265 0.5431,1.0205 0.1072,0.3946 0.1619,0.8291 0.1619,1.3042 v 5.2654 c -0.1298,0.0212 -0.3104,0.051 -0.5428,0.0887 -0.2325,0.038 -0.4941,0.0728 -0.7852,0.1054 -0.292,0.0324 -0.6083,0.0621 -0.9482,0.089 -0.3399,0.0267 -0.6778,0.0406 -1.0126,0.0406 -0.4756,0 -0.9121,-0.0485 -1.3118,-0.1457 -0.4003,-0.0972 -0.7458,-0.2514 -1.0369,-0.4618 -0.292,-0.2106 -0.5185,-0.4884 -0.6806,-0.8345 -0.1622,-0.3453 -0.2433,-0.7611 -0.2433,-1.2472 0,-0.4644 0.0947,-0.864 0.2841,-1.1985 0.1885,-0.3351 0.4453,-0.6052 0.7696,-0.8102 0.3234,-0.2049 0.7013,-0.3566 1.1338,-0.4535 0.4318,-0.0972 0.8847,-0.146 1.3604,-0.146 0.1514,0 0.3075,0.008 0.4697,0.0244 0.1621,0.0159 0.3163,0.038 0.462,0.0649 0.1455,0.0266 0.2724,0.0513 0.3807,0.0726 0.1075,0.0215 0.1837,0.0382 0.2265,0.0484 v -0.4209 c 0,-0.2486 -0.0272,-0.4941 -0.0808,-0.7373 -0.0538,-0.2427 -0.1516,-0.4589 -0.2911,-0.648 -0.1406,-0.1888 -0.3322,-0.3402 -0.5751,-0.4535 -0.2432,-0.1134 -0.5596,-0.1698 -0.9485,-0.1698 -0.4961,0 -0.9315,0.0351 -1.3037,0.1048 -0.373,0.0709 -0.6502,0.1435 -0.8339,0.2189 l -0.1786,-1.2473 c 0.1942,-0.0864 0.5185,-0.1703 0.9717,-0.2514 0.4541,-0.0805 0.9451,-0.121 1.4746,-0.121 z m 0.1298,7.5489 v 0 c 0.3563,0 0.6718,-0.008 0.9471,-0.0241 0.2755,-0.0164 0.5051,-0.0459 0.6885,-0.0893 v -2.5106 c -0.1074,-0.0545 -0.2832,-0.1001 -0.5261,-0.1378 -0.2432,-0.0383 -0.5372,-0.0573 -0.883,-0.0573 -0.2265,0 -0.4677,0.0168 -0.7205,0.0491 -0.254,0.032 -0.4865,0.1 -0.6974,0.2024 -0.21,0.1026 -0.3858,0.2429 -0.5264,0.4209 -0.1406,0.1783 -0.21,0.413 -0.21,0.7053 0,0.54 0.172,0.915 0.5187,1.1253 0.3447,0.2109 0.8144,0.3161 1.4091,0.3161 z"
             style="fill:#ffffff;fill-rule:evenodd"
             id="path5184"
             inkscape:connector-curvature="0" />
          <path
             d="m 297.5151,109.4852 c -0.9286,-0.0215 -1.5877,-0.2214 -1.9766,-0.5995 -0.3886,-0.3781 -0.5828,-0.9663 -0.5828,-1.7657 V 97.0111 l 1.5066,-0.2594 v 10.1251 c 0,0.2486 0.0216,0.4535 0.0646,0.6157 0.0431,0.1621 0.1134,0.2914 0.2109,0.3886 0.0967,0.0972 0.2265,0.1704 0.3887,0.2188 0.1621,0.0488 0.3614,0.0893 0.5995,0.1216 z"
             style="fill:#ffffff;fill-rule:evenodd"
             id="path5186"
             inkscape:connector-curvature="0" />
          <path
             d="m 299.3296,101.3039 c 0.3458,-0.0859 0.8047,-0.178 1.377,-0.2753 0.5723,-0.0972 1.2314,-0.1457 1.9766,-0.1457 0.6699,0 1.2254,0.095 1.6688,0.2835 0.4425,0.1893 0.796,0.4535 1.0607,0.794 0.2645,0.3401 0.451,0.7478 0.5596,1.2228 0.1074,0.4751 0.161,0.9993 0.161,1.5716 v 4.7304 h -1.5058 v -4.4064 c 0,-0.5185 -0.0351,-0.9613 -0.1054,-1.3286 -0.0703,-0.3671 -0.1866,-0.6639 -0.3487,-0.891 -0.1621,-0.2267 -0.3779,-0.3911 -0.6474,-0.494 -0.2705,-0.1026 -0.6055,-0.154 -1.0049,-0.154 -0.1622,0 -0.3291,0.006 -0.502,0.0162 -0.1729,0.0111 -0.3379,0.0244 -0.4941,0.0405 -0.1573,0.0165 -0.2968,0.0352 -0.4209,0.057 -0.1251,0.0216 -0.2138,0.0377 -0.2676,0.0485 v 7.1118 h -1.5069 z"
             style="fill:#ffffff;fill-rule:evenodd"
             id="path5188"
             inkscape:connector-curvature="0" />
          <path
             d="m 308.0778,105.0949 c 0,-0.7449 0.1072,-1.396 0.324,-1.9519 0.216,-0.5564 0.5021,-1.0182 0.8584,-1.3853 0.3566,-0.3668 0.7667,-0.6423 1.2316,-0.8263 0.4638,-0.1834 0.9394,-0.2752 1.4256,-0.2752 1.1338,0 2.0029,0.354 2.6076,1.061 0.6054,0.7075 0.9073,1.7849 0.9073,3.2317 0,0.065 0,0.1491 0,0.2515 0,0.1026 -0.005,0.197 -0.0158,0.2832 h -5.7674 c 0.0643,0.875 0.3183,1.5392 0.7617,1.9927 0.4424,0.4536 1.1338,0.6803 2.0732,0.6803 0.5292,0 0.9746,-0.0456 1.3368,-0.1377 0.3615,-0.0913 0.6339,-0.1806 0.8176,-0.2671 l 0.2108,1.2634 c -0.1836,0.0973 -0.5048,0.1999 -0.964,0.3079 -0.4589,0.1083 -0.9805,0.1621 -1.5633,0.1621 -0.7345,0 -1.3683,-0.1108 -1.9035,-0.3322 -0.534,-0.2211 -0.9745,-0.5261 -1.3201,-0.9153 -0.3458,-0.3889 -0.6026,-0.8501 -0.7696,-1.385 -0.1669,-0.5346 -0.2509,-1.1205 -0.2509,-1.7578 z m 5.783,-0.826 v 0 c 0.0108,-0.6809 -0.159,-1.2393 -0.5097,-1.677 -0.3515,-0.4373 -0.835,-0.6559 -1.4502,-0.6559 -0.3458,0 -0.6505,0.0677 -0.915,0.2024 -0.2647,0.1352 -0.4893,0.3107 -0.6729,0.5264 -0.1837,0.2163 -0.3263,0.4643 -0.4286,0.7452 -0.1035,0.2812 -0.171,0.5672 -0.2033,0.8589 z"
             style="fill:#ffffff;fill-rule:evenodd"
             id="path5190"
             inkscape:connector-curvature="0" />
          <path
             d="m 322.8033,108.6428 c -0.1299,0.0864 -0.381,0.1973 -0.7529,0.3322 -0.3731,0.1352 -0.8076,0.2027 -1.3048,0.2027 -0.5077,0 -0.9853,-0.0811 -1.4335,-0.2432 -0.4484,-0.1622 -0.8399,-0.4133 -1.1749,-0.7535 -0.334,-0.3404 -0.5987,-0.7636 -0.7929,-1.2716 -0.1945,-0.5077 -0.292,-1.1123 -0.292,-1.8145 0,-0.6157 0.0919,-1.1798 0.2753,-1.6928 0.1837,-0.5125 0.4513,-0.9561 0.8019,-1.3286 0.3506,-0.3725 0.7801,-0.6639 1.2881,-0.8745 0.5076,-0.2109 1.08,-0.3161 1.7166,-0.3161 0.7024,0 1.3156,0.0513 1.8391,0.1539 0.5245,0.1027 0.9638,0.1973 1.3201,0.2832 v 7.5172 c 0,1.2957 -0.335,2.2354 -1.0037,2.8188 -0.6701,0.5831 -1.6858,0.8745 -3.0461,0.8745 -0.5292,0 -1.0281,-0.0428 -1.4978,-0.1293 -0.4709,-0.0864 -0.8782,-0.189 -1.2238,-0.3075 l 0.2753,-1.3128 c 0.3027,0.1188 0.6729,0.2243 1.1095,0.3161 0.4376,0.0919 0.8934,0.1378 1.3691,0.1378 0.8966,0 1.542,-0.1783 1.9366,-0.5349 0.3935,-0.3563 0.5908,-0.9233 0.5908,-1.7005 z m -0.0168,-6.2533 v 0 c -0.151,-0.043 -0.3534,-0.0836 -0.6074,-0.1216 -0.2537,-0.0377 -0.5967,-0.0567 -1.0282,-0.0567 -0.8095,0 -1.4337,0.2651 -1.8711,0.794 -0.4374,0.5293 -0.6562,1.2308 -0.6562,2.1059 0,0.4858 0.0626,0.902 0.1865,1.2475 0.1239,0.3458 0.292,0.6319 0.502,0.8583 0.2109,0.2274 0.4541,0.3946 0.7294,0.5026 0.2755,0.108 0.5587,0.1616 0.8506,0.1616 0.3994,0 0.7665,-0.0567 1.1016,-0.1698 0.3339,-0.1134 0.5987,-0.2458 0.7928,-0.3971 z"
             style="fill:#ffffff;fill-rule:evenodd"
             id="path5192"
             inkscape:connector-curvature="0" />
          <path
             d="m 334.2399,105.0788 c 0,0.6695 -0.0969,1.2744 -0.2911,1.8144 -0.1944,0.54 -0.4677,1.0046 -0.8184,1.3933 -0.3506,0.3886 -0.7696,0.6885 -1.256,0.8988 -0.4853,0.2109 -1.0145,0.3161 -1.5868,0.3161 -0.5732,0 -1.1016,-0.1052 -1.588,-0.3161 -0.4861,-0.2103 -0.9042,-0.5102 -1.2557,-0.8988 -0.3507,-0.3887 -0.6231,-0.8533 -0.8173,-1.3933 -0.1944,-0.54 -0.2922,-1.1449 -0.2922,-1.8144 0,-0.6585 0.0978,-1.2606 0.2922,-1.8065 0.1942,-0.5449 0.4666,-1.0123 0.8173,-1.4009 0.3515,-0.3892 0.7696,-0.6891 1.2557,-0.8995 0.4864,-0.2103 1.0148,-0.3157 1.588,-0.3157 0.5723,0 1.1015,0.1054 1.5868,0.3157 0.4864,0.2104 0.9054,0.5103 1.256,0.8995 0.3507,0.3886 0.624,0.856 0.8184,1.4009 0.1942,0.5459 0.2911,1.148 0.2911,1.8065 z m -1.5715,0 v 0 c 0,-0.9502 -0.2129,-1.7037 -0.6395,-2.2601 -0.4269,-0.5561 -1.0069,-0.8339 -1.7413,-0.8339 -0.7353,0 -1.3153,0.2778 -1.7422,0.8339 -0.4266,0.5564 -0.6395,1.3099 -0.6395,2.2601 0,0.9501 0.2129,1.7036 0.6395,2.2598 0.4269,0.5561 1.0069,0.8345 1.7422,0.8345 0.7344,0 1.3144,-0.2784 1.7413,-0.8345 0.4266,-0.5562 0.6395,-1.3097 0.6395,-2.2598 z"
             style="fill:#ffffff;fill-rule:evenodd"
             id="path5194"
             inkscape:connector-curvature="0" />
        </g>
      </g>
      <g
         transform="matrix(0.26458333,0,0,0.26458333,47.855629,100.05426)"
         id="Layer1004"
         style="fill:#ffffff">
        <g
           id="Layer1005"
           style="fill:#ffffff">
          <path
             d="m 176.8241,66.9885 c -1.1619,0 -2.16,-0.1675 -2.9945,-0.5029 -0.8348,-0.3353 -1.5265,-0.8061 -2.0747,-1.4116 -0.5482,-0.6055 -0.953,-1.3173 -1.2149,-2.1356 -0.2622,-0.8184 -0.3929,-1.7184 -0.3929,-2.7003 V 49.6087 h 3.1175 v 10.3349 c 0,0.769 0.0859,1.4278 0.258,1.976 0.1718,0.5485 0.4175,0.9944 0.7362,1.3379 0.3194,0.3433 0.6959,0.5973 1.1293,0.7609 0.4337,0.1635 0.9204,0.2454 1.4607,0.2454 0.54,0 1.0312,-0.0819 1.4731,-0.2454 0.4417,-0.1636 0.8221,-0.4176 1.1416,-0.7609 0.3189,-0.3435 0.5643,-0.7894 0.7361,-1.3379 0.1721,-0.5482 0.258,-1.207 0.258,-1.976 V 49.6087 h 3.1172 v 10.6294 c 0,0.9819 -0.1349,1.8819 -0.4048,2.7003 -0.2701,0.8183 -0.6794,1.5301 -1.2276,2.1356 -0.5483,0.6055 -1.2479,1.0763 -2.0985,1.4116 -0.8513,0.3354 -1.8579,0.5029 -3.0198,0.5029 z"
             style="fill:#ffffff;fill-rule:evenodd"
             id="path5198"
             inkscape:connector-curvature="0" />
          <path
             d="m 187.2324,54.5427 c 0.5728,-0.163 1.3175,-0.3189 2.234,-0.4663 0.9164,-0.1474 1.9306,-0.2211 3.0438,-0.2211 1.0474,0 1.923,0.1434 2.6266,0.4297 0.7035,0.2866 1.2645,0.6874 1.6815,1.2031 0.4175,0.515 0.7121,1.1378 0.8838,1.8657 0.1718,0.728 0.258,1.5259 0.258,2.393 v 7.2173 h -2.9702 v -6.7504 c 0,-0.6874 -0.0456,-1.2725 -0.1355,-1.7555 -0.0898,-0.4825 -0.2372,-0.8753 -0.4419,-1.1781 -0.2044,-0.3027 -0.4827,-0.5235 -0.8342,-0.663 -0.3521,-0.1389 -0.7818,-0.2086 -1.2886,-0.2086 -0.3771,0 -0.7696,0.0243 -1.1787,0.0737 -0.4093,0.0487 -0.7115,0.0898 -0.9082,0.1224 v 10.3595 h -2.9704 z"
             style="fill:#ffffff;fill-rule:evenodd"
             id="path5200"
             inkscape:connector-curvature="0" />
          <path
             d="m 204.7593,50.3698 c 0,0.5562 -0.1803,0.9981 -0.54,1.3252 -0.3598,0.3277 -0.7858,0.4913 -1.2765,0.4913 -0.5071,0 -0.9414,-0.1636 -1.3011,-0.4913 -0.36,-0.3271 -0.54,-0.769 -0.54,-1.3252 0,-0.5726 0.18,-1.0227 0.54,-1.3504 0.3597,-0.3271 0.794,-0.491 1.3011,-0.491 0.4907,0 0.9167,0.1639 1.2765,0.491 0.3597,0.3277 0.54,0.7778 0.54,1.3504 z m -0.3187,16.5943 v 0 h -2.9707 V 54.1257 h 2.9707 z"
             style="fill:#ffffff;fill-rule:evenodd"
             id="path5202"
             inkscape:connector-curvature="0" />
          <path
             d="m 212.3442,53.5608 c 0.9825,0 1.8088,0.123 2.4786,0.3682 0.6718,0.2455 1.207,0.5893 1.6095,1.0313 0.4003,0.4419 0.6874,0.9779 0.8592,1.6078 0.1718,0.6301 0.2577,1.3218 0.2577,2.0744 v 7.7816 c -0.4587,0.0981 -1.1503,0.2172 -2.0761,0.3561 -0.9238,0.1391 -1.9667,0.2083 -3.1289,0.2083 -0.7696,0 -1.4732,-0.0737 -2.1112,-0.2205 -0.6381,-0.1477 -1.1826,-0.3844 -1.6325,-0.7121 -0.4501,-0.3271 -0.8022,-0.7523 -1.0556,-1.2764 -0.254,-0.5239 -0.3802,-1.1699 -0.3802,-1.9392 0,-0.7365 0.1429,-1.3587 0.4295,-1.8661 0.2863,-0.5065 0.6749,-0.9201 1.1662,-1.2396 0.4906,-0.3189 1.059,-0.5479 1.7059,-0.6868 0.6465,-0.1395 1.3212,-0.2092 2.0245,-0.2092 0.3282,0 0.6718,0.021 1.0312,0.0615 0.3594,0.0411 0.7441,0.1106 1.1543,0.2087 v -0.4907 c 0,-0.3439 -0.0408,-0.671 -0.1231,-0.9819 -0.0819,-0.3113 -0.2245,-0.5851 -0.4297,-0.8224 -0.2049,-0.2372 -0.4745,-0.4215 -0.8104,-0.5527 -0.3342,-0.1304 -0.756,-0.1965 -1.2637,-0.1965 -0.6871,0 -1.3173,0.0494 -1.8901,0.1474 -0.5729,0.0984 -1.0392,0.2132 -1.3989,0.3439 l -0.3683,-2.4058 c 0.3759,-0.1307 0.9244,-0.2616 1.6444,-0.3932 0.7203,-0.1301 1.4893,-0.1961 2.3077,-0.1961 z m 0.2463,11.0713 v 0 c 0.9159,0 1.6113,-0.0494 2.0858,-0.1474 v -3.2891 c -0.1642,-0.0493 -0.4003,-0.0986 -0.7129,-0.1474 -0.3104,-0.0493 -0.6543,-0.074 -1.0293,-0.074 -0.328,0 -0.6602,0.0247 -0.995,0.074 -0.3356,0.0488 -0.6383,0.1392 -0.9082,0.2699 -0.2701,0.1315 -0.487,0.3155 -0.6505,0.5522 -0.1642,0.2375 -0.2455,0.5363 -0.2455,0.896 0,0.7041 0.2211,1.1905 0.663,1.4607 0.4419,0.2699 1.0389,0.4051 1.7926,0.4051 z"
             style="fill:#ffffff;fill-rule:evenodd"
             id="path5204"
             inkscape:connector-curvature="0" />
          <path
             d="M 226.7533,66.9641 V 49.9526 h 10.9241 v 2.6263 h -7.8301 v 4.1978 h 6.9715 v 2.5775 h -6.9715 v 4.9833 h 8.4197 v 2.6266 z"
             style="fill:#ffffff;fill-rule:evenodd"
             id="path5206"
             inkscape:connector-curvature="0" />
          <path
             d="m 250.9575,66.3017 c -0.5721,0.1468 -1.3173,0.2987 -2.2334,0.4541 -0.9168,0.1556 -1.9228,0.2327 -3.0195,0.2327 -1.0313,0 -1.8944,-0.1468 -2.5897,-0.4419 -0.6954,-0.2943 -1.2521,-0.703 -1.6691,-1.2271 -0.4178,-0.5239 -0.7169,-1.1498 -0.8966,-1.8777 -0.1794,-0.7282 -0.2693,-1.5259 -0.2693,-2.3936 v -7.1929 h 2.9696 v 6.7266 c 0,1.3745 0.2001,2.3565 0.6015,2.9458 0.4014,0.5887 1.1007,0.8833 2.0988,0.8833 0.3603,0 0.7401,-0.0162 1.1415,-0.0488 0.4014,-0.0329 0.7002,-0.0737 0.8966,-0.1227 V 53.8553 h 2.9696 z"
             style="fill:#ffffff;fill-rule:evenodd"
             id="path5208"
             inkscape:connector-curvature="0" />
          <path
             d="m 261.9057,56.8011 c -0.2449,-0.0817 -0.5848,-0.1676 -1.0185,-0.2574 -0.4337,-0.0899 -0.9365,-0.1352 -1.5097,-0.1352 -0.3271,0 -0.6749,0.0331 -1.0429,0.0981 -0.3682,0.0654 -0.6261,0.1227 -0.7735,0.1717 v 10.2858 h -2.9699 v -12.225 c 0.5723,-0.2125 1.2883,-0.4132 2.1475,-0.6012 0.8595,-0.1879 1.8125,-0.2826 2.8605,-0.2826 0.1961,0 0.4249,0.0128 0.6865,0.0371 0.2617,0.0244 0.5244,0.0576 0.7861,0.0981 0.2616,0.0411 0.5156,0.0904 0.7608,0.1474 0.2452,0.0573 0.4422,0.1106 0.5887,0.1593 z"
             style="fill:#ffffff;fill-rule:evenodd"
             id="path5210"
             inkscape:connector-curvature="0" />
          <path
             d="m 275.9469,60.2137 c 0,1.0145 -0.1466,1.9389 -0.4414,2.774 -0.2951,0.8345 -0.7121,1.5463 -1.2521,2.135 -0.54,0.5894 -1.1905,1.048 -1.951,1.3751 -0.7617,0.3277 -1.6008,0.4907 -2.5166,0.4907 -0.9171,0 -1.751,-0.163 -2.5039,-0.4907 -0.7532,-0.3271 -1.3995,-0.7857 -1.9395,-1.3751 -0.54,-0.5887 -0.9609,-1.3005 -1.2639,-2.135 -0.3036,-0.8351 -0.4539,-1.7595 -0.4539,-2.774 0,-1.0148 0.1503,-1.9352 0.4539,-2.7618 0.303,-0.826 0.7276,-1.5341 1.2764,-2.1234 0.548,-0.5894 1.1982,-1.0435 1.9514,-1.3624 0.7529,-0.3194 1.5789,-0.479 2.4795,-0.479 0.8994,0 1.7302,0.1596 2.491,0.479 0.7617,0.3189 1.4123,0.773 1.9523,1.3624 0.54,0.5893 0.9609,1.2974 1.2636,2.1234 0.3028,0.8266 0.4542,1.747 0.4542,2.7618 z m -3.0439,0 v 0 c 0,-1.277 -0.2735,-2.287 -0.8223,-3.0319 -0.548,-0.7444 -1.3125,-1.1172 -2.2949,-1.1172 -0.9817,0 -1.7473,0.3728 -2.295,1.1172 -0.5488,0.7449 -0.8223,1.7549 -0.8223,3.0319 0,1.2929 0.2735,2.3159 0.8223,3.0682 0.5477,0.7532 1.3133,1.1291 2.295,1.1291 0.9824,0 1.7469,-0.3759 2.2949,-1.1291 0.5488,-0.7523 0.8223,-1.7753 0.8223,-3.0682 z"
             style="fill:#ffffff;fill-rule:evenodd"
             id="path5212"
             inkscape:connector-curvature="0" />
          <path
             d="m 290.4302,60.557 c 0,0.9819 -0.127,1.8822 -0.3798,2.7005 -0.254,0.8184 -0.6183,1.522 -1.0928,2.111 -0.4748,0.5893 -1.0684,1.0474 -1.7802,1.3751 -0.7112,0.3271 -1.5176,0.4907 -2.4182,0.4907 -0.6055,0 -1.1619,-0.0737 -1.6688,-0.2209 -0.5068,-0.1474 -0.9249,-0.3109 -1.252,-0.4912 v 4.9836 h -2.9696 V 54.5427 c 0.6044,-0.163 1.3496,-0.3189 2.2334,-0.4663 0.8836,-0.1474 1.8162,-0.2211 2.7987,-0.2211 1.0148,0 1.923,0.1556 2.7246,0.4669 0.802,0.3109 1.4854,0.7565 2.0498,1.3376 0.5646,0.5811 0.998,1.2847 1.3008,2.111 0.3027,0.8266 0.4541,1.7555 0.4541,2.7862 z m -3.0438,0.0493 v 0 c 0,-1.3258 -0.2991,-2.3564 -0.8958,-3.0935 -0.5975,-0.7361 -1.5593,-1.1043 -2.8845,-1.1043 -0.2784,0 -0.5684,0.0122 -0.8711,0.0365 -0.3039,0.025 -0.6018,0.0783 -0.8966,0.1596 v 7.3401 c 0.2616,0.18 0.6094,0.3481 1.0431,0.5034 0.4334,0.1556 0.8963,0.233 1.3876,0.233 1.08,0 1.8692,-0.3682 2.3681,-1.1047 0.4991,-0.7361 0.7492,-1.7265 0.7492,-2.9701 z"
             style="fill:#ffffff;fill-rule:evenodd"
             id="path5214"
             inkscape:connector-curvature="0" />
          <path
             d="m 292.6401,60.3118 c 0,-1.1293 0.1672,-2.1192 0.5031,-2.9707 0.3348,-0.8507 0.781,-1.5585 1.3377,-2.1229 0.5556,-0.5652 1.1945,-0.9904 1.9151,-1.277 0.7197,-0.286 1.4561,-0.4292 2.209,-0.4292 1.7677,0 3.1456,0.5483 4.1366,1.6447 0.9893,1.0964 1.4845,2.7332 1.4845,4.9096 0,0.1636 -0.004,0.3475 -0.0116,0.5522 -0.009,0.2049 -0.0207,0.3892 -0.0371,0.5522 h -8.4688 c 0.0811,1.0312 0.4453,1.8292 1.0916,2.3936 0.6466,0.5643 1.584,0.8467 2.8117,0.8467 0.7197,0 1.3779,-0.065 1.9755,-0.1962 0.5978,-0.131 1.0683,-0.2701 1.4113,-0.4173 l 0.3935,2.4302 c -0.1641,0.0822 -0.3898,0.1681 -0.6758,0.2579 -0.2863,0.0899 -0.6134,0.1718 -0.9814,0.2452 -0.3682,0.0737 -0.7656,0.1352 -1.1905,0.184 -0.4258,0.0493 -0.8595,0.0737 -1.3017,0.0737 -1.129,0 -2.1104,-0.1675 -2.9455,-0.5029 -0.8348,-0.3353 -1.5213,-0.8016 -2.0613,-1.3994 -0.5411,-0.597 -0.9414,-1.3011 -1.2033,-2.1113 -0.2617,-0.8101 -0.3926,-1.6974 -0.3926,-2.6631 z m 8.6162,-1.3258 v 0 c 0,-0.409 -0.0576,-0.7977 -0.1718,-1.1659 -0.1151,-0.3682 -0.2821,-0.6877 -0.504,-0.9575 -0.2205,-0.2702 -0.4901,-0.4825 -0.8096,-0.6381 -0.3192,-0.1553 -0.699,-0.2336 -1.1415,-0.2336 -0.4581,0 -0.8595,0.0862 -1.203,0.258 -0.3439,0.1718 -0.6338,0.3968 -0.8711,0.6752 -0.2373,0.2784 -0.4221,0.5975 -0.5528,0.957 -0.1309,0.3603 -0.2208,0.7285 -0.2695,1.1049 z"
             style="fill:#ffffff;fill-rule:evenodd"
             id="path5216"
             inkscape:connector-curvature="0" />
          <path
             d="m 305.5768,71.5302 c -0.2131,0 -0.5108,-0.0207 -0.8957,-0.0615 -0.3847,-0.0411 -0.7245,-0.1188 -1.0185,-0.233 l 0.3926,-2.4302 c 0.3603,0.1142 0.794,0.1715 1.3008,0.1715 0.6874,0 1.1699,-0.2004 1.4482,-0.6012 0.2784,-0.4014 0.4182,-1.0029 0.4182,-1.8043 V 54.1257 h 2.9695 v 12.4946 c 0,1.6696 -0.3965,2.9049 -1.1905,3.7071 -0.794,0.8014 -1.9355,1.2028 -3.4246,1.2028 z m 4.9346,-21.1604 v 0 c 0,0.5562 -0.1809,0.9981 -0.5403,1.3252 -0.3603,0.3277 -0.7849,0.4913 -1.2762,0.4913 -0.5079,0 -0.9416,-0.1636 -1.3008,-0.4913 -0.3603,-0.3271 -0.54,-0.769 -0.54,-1.3252 0,-0.5726 0.1797,-1.0227 0.54,-1.3504 0.3592,-0.3271 0.7929,-0.491 1.3008,-0.491 0.4913,0 0.9159,0.1639 1.2762,0.491 0.3594,0.3277 0.5403,0.7778 0.5403,1.3504 z"
             style="fill:#ffffff;fill-rule:evenodd"
             id="path5218"
             inkscape:connector-curvature="0" />
          <path
             d="m 317.0407,64.534 c 0.7849,0 1.3572,-0.0941 1.7175,-0.2823 0.3606,-0.188 0.5403,-0.5111 0.5403,-0.9698 0,-0.4252 -0.1925,-0.7772 -0.5774,-1.0556 -0.3847,-0.2778 -1.0185,-0.5805 -1.9021,-0.9082 -0.5402,-0.1962 -1.0352,-0.4051 -1.4845,-0.6259 -0.4512,-0.2211 -0.839,-0.4785 -1.167,-0.7733 -0.3271,-0.2945 -0.5851,-0.6506 -0.7724,-1.0681 -0.1885,-0.417 -0.2824,-0.9281 -0.2824,-1.5341 0,-1.1784 0.4326,-2.107 1.3009,-2.7862 0.8671,-0.6786 2.0449,-1.0185 3.5353,-1.0185 0.7518,0 1.4726,0.0698 2.16,0.2084 0.6874,0.1392 1.2022,0.2744 1.546,0.4053 l -0.54,2.4052 c -0.3274,-0.1468 -0.7443,-0.282 -1.252,-0.4048 -0.5068,-0.123 -1.0967,-0.1839 -1.7677,-0.1839 -0.6055,0 -1.0956,0.1026 -1.4726,0.3067 -0.3759,0.2049 -0.5644,0.5199 -0.5644,0.9453 0,0.2126 0.0369,0.4009 0.1103,0.5644 0.0743,0.1641 0.2001,0.3155 0.3807,0.4541 0.1797,0.1392 0.4172,0.2784 0.712,0.4176 0.294,0.1391 0.6543,0.282 1.08,0.4297 0.7033,0.2616 1.3009,0.5193 1.7921,0.7727 0.4913,0.254 0.8955,0.5403 1.2149,0.8595 0.3192,0.3189 0.5528,0.6837 0.7002,1.0922 0.1465,0.4093 0.2208,0.9005 0.2208,1.4731 0,1.2272 -0.4541,2.1564 -1.3623,2.7862 -0.9082,0.6299 -2.2062,0.9448 -3.8917,0.9448 -1.1288,0 -2.037,-0.0938 -2.7247,-0.282 -0.6874,-0.1883 -1.1698,-0.3396 -1.4482,-0.4542 l 0.5156,-2.4794 c 0.4414,0.1805 0.9698,0.3518 1.5829,0.5156 0.6143,0.1638 1.3136,0.2455 2.0999,0.2455 z"
             style="fill:#ffffff;fill-rule:evenodd"
             id="path5220"
             inkscape:connector-curvature="0" />
          <path
             d="m 327.8657,59.1331 c 0.3761,-0.3926 0.7775,-0.8135 1.2033,-1.2642 0.4246,-0.4496 0.8427,-0.8997 1.2517,-1.3502 0.4094,-0.4495 0.798,-0.8835 1.1662,-1.3005 0.3682,-0.4175 0.6826,-0.7815 0.9454,-1.0925 h 3.5095 c -0.8183,0.9165 -1.6815,1.8652 -2.5897,2.8472 -0.9082,0.9819 -1.8204,1.9394 -2.7363,2.872 0.4901,0.4099 1.0058,0.9048 1.5458,1.4854 0.5402,0.5811 1.0635,1.1993 1.5712,1.8535 0.5071,0.6548 0.9816,1.3096 1.4241,1.9639 0.4414,0.6548 0.8093,1.2603 1.1044,1.8164 h -3.4367 c -0.2948,-0.5068 -0.6347,-1.0392 -1.0185,-1.5956 -0.3847,-0.5562 -0.7977,-1.0962 -1.2402,-1.62 -0.4413,-0.5236 -0.8915,-1.0188 -1.3495,-1.4856 -0.459,-0.4663 -0.9083,-0.8626 -1.3507,-1.1903 v 5.8915 h -2.9696 V 50.4432 l 2.9696,-0.4906 z"
             style="fill:#ffffff;fill-rule:evenodd"
             id="path5222"
             inkscape:connector-curvature="0" />
          <path
             d="m 342.5454,53.5608 c 0.9825,0 1.8085,0.123 2.4795,0.3682 0.671,0.2455 1.207,0.5893 1.6084,1.0313 0.4005,0.4419 0.6874,0.9779 0.8594,1.6078 0.1718,0.6301 0.2577,1.3218 0.2577,2.0744 v 7.7816 c -0.4589,0.0981 -1.1503,0.2172 -2.0749,0.3561 -0.925,0.1391 -1.9679,0.2083 -3.1301,0.2083 -0.7684,0 -1.4726,-0.0737 -2.1104,-0.2205 -0.6386,-0.1477 -1.1826,-0.3844 -1.6327,-0.7121 -0.4502,-0.3271 -0.8017,-0.7523 -1.0556,-1.2764 -0.254,-0.5239 -0.381,-1.1699 -0.381,-1.9392 0,-0.7365 0.1437,-1.3587 0.4297,-1.8661 0.2863,-0.5065 0.6758,-0.9201 1.1662,-1.2396 0.4912,-0.3189 1.0593,-0.5479 1.7059,-0.6868 0.6466,-0.1395 1.3223,-0.2092 2.0253,-0.2092 0.3272,0 0.671,0.021 1.0313,0.0615 0.3594,0.0411 0.7441,0.1106 1.1534,0.2087 v -0.4907 c 0,-0.3439 -0.0411,-0.671 -0.1222,-0.9819 -0.0819,-0.3113 -0.2256,-0.5851 -0.4297,-0.8224 -0.205,-0.2372 -0.4745,-0.4215 -0.8104,-0.5527 -0.3351,-0.1304 -0.7569,-0.1965 -1.2637,-0.1965 -0.6874,0 -1.3173,0.0494 -1.8907,0.1474 -0.5732,0.0984 -1.0389,0.2132 -1.3992,0.3439 l -0.3682,-2.4058 c 0.3767,-0.1307 0.9246,-0.2616 1.6455,-0.3932 0.7197,-0.1301 1.4882,-0.1961 2.3065,-0.1961 z m 0.2461,11.0713 v 0 c 0.9161,0 1.6115,-0.0494 2.086,-0.1474 v -3.2891 c -0.163,-0.0493 -0.4003,-0.0986 -0.7118,-0.1474 -0.3107,-0.0493 -0.6545,-0.074 -1.0304,-0.074 -0.3282,0 -0.6593,0.0247 -0.9941,0.074 -0.3359,0.0488 -0.6386,0.1392 -0.9082,0.2699 -0.2707,0.1315 -0.4873,0.3155 -0.6514,0.5522 -0.163,0.2375 -0.2452,0.5363 -0.2452,0.896 0,0.7041 0.2208,1.1905 0.663,1.4607 0.4414,0.2699 1.0392,0.4051 1.7921,0.4051 z"
             style="fill:#ffffff;fill-rule:evenodd"
             id="path5224"
             inkscape:connector-curvature="0" />
        </g>
      </g>
    </g>
  </g>
</svg>
