<?xml version='1.0' encoding='UTF-8'?>
<!-- Created with Inkscape (http://www.inkscape.org/) and export_objects.py -->
<svg xmlns:cc="http://creativecommons.org/ns#" xmlns:dc="http://purl.org/dc/elements/1.1/" xmlns:inkscape="http://www.inkscape.org/namespaces/inkscape" xmlns:rdf="http://www.w3.org/1999/02/22-rdf-syntax-ns#" xmlns:sodipodi="http://sodipodi.sourceforge.net/DTD/sodipodi-0.dtd" xmlns:xlink="http://www.w3.org/1999/xlink" xmlns="http://www.w3.org/2000/svg" version="1.1" sodipodi:docname="step090.svg" viewBox="0 0 27.868713 32.389999" height="32.389999px" width="27.868713px" xml:space="preserve" id="svg2" inkscape:version="0.92.1 r15371">
  <sodipodi:namedview inkscape:current-layer="g10" inkscape:window-maximized="1" inkscape:window-y="-8" inkscape:window-x="1912" inkscape:cy="-862.22917" inkscape:cx="2456.2254" inkscape:zoom="0.3015625" showgrid="false" id="namedview4" inkscape:window-height="1017" inkscape:window-width="1920" inkscape:pageshadow="2" inkscape:pageopacity="0" guidetolerance="10" gridtolerance="10" objecttolerance="10" borderopacity="1" bordercolor="#666666" pagecolor="#ffffff"/>
  <metadata id="metadata8">
    <rdf:RDF>
      <cc:Work rdf:about="">
        <dc:format>image/svg+xml</dc:format>
        <dc:type rdf:resource="http://purl.org/dc/dcmitype/StillImage"/>
        <dc:title/>
      </cc:Work>
    </rdf:RDF>
  </metadata>
  <g inkscape:groupmode="layer" inkscape:label="step" transform="matrix(1.333333,0.000000,0.000000,-1.333333,-2061.439600,-365.447700)">
    <g id="g9270" inkscape:label="090">
      <g transform="translate(1556.5316,-276.0858)" id="g1300">
        <path inkscape:connector-curvature="0" id="path1302" style="fill:#545454;fill-opacity:1;fill-rule:nonzero;stroke:none" d="m 0,0 c -3.67,0 -6.656,-2.985 -6.656,-6.655 0,-3.669 2.986,-6.654 6.656,-6.654 3.668,0 6.652,2.985 6.652,6.654 C 6.652,-2.985 3.668,0 0,0 m 0,-15.309 c -4.773,0 -8.656,3.882 -8.656,8.654 C -8.656,-1.882 -4.773,2 0,2 4.771,2 8.652,-1.882 8.652,-6.655 8.652,-11.427 4.771,-15.309 0,-15.309"/>
      </g>
      <g transform="translate(1556.5316,-278.7533)" id="g1304">
        <path inkscape:connector-curvature="0" id="path1306" style="fill:#545454;fill-opacity:1;fill-rule:nonzero;stroke:none" d="m 0,0 c -2.199,0 -3.988,-1.789 -3.988,-3.987 0,-2.199 1.789,-3.987 3.988,-3.987 2.199,0 3.986,1.788 3.986,3.987 C 3.986,-1.789 2.199,0 0,0 m 0,-8.974 c -2.75,0 -4.988,2.237 -4.988,4.987 C -4.988,-1.237 -2.75,1 0,1 2.75,1 4.986,-1.237 4.986,-3.987 4.986,-6.737 2.75,-8.974 0,-8.974"/>
      </g>
      <g transform="translate(1552.2699,-298.3783)" id="g1308">
        <path inkscape:connector-curvature="0" id="path1310" style="fill:#545454;fill-opacity:1;fill-rule:nonzero;stroke:none" d="M 0,0 C -0.336,0 -0.65,0.169 -0.836,0.452 L -2.385,2.817 -5.213,2.881 C -5.564,2.889 -5.885,3.08 -6.059,3.383 -6.232,3.688 -6.234,4.06 -6.064,4.366 l 3.679,6.627 c 0.268,0.483 0.879,0.657 1.36,0.389 0.482,-0.268 0.656,-0.877 0.388,-1.36 l -2.877,-5.179 1.7,-0.039 C -1.486,4.797 -1.182,4.628 -1.002,4.353 L -0.07,2.933 2.807,8.111 C 3.074,8.594 3.684,8.768 4.166,8.5 4.648,8.232 4.822,7.624 4.555,7.141 L 0.875,0.515 C 0.705,0.208 0.387,0.014 0.037,0 0.025,0 0.012,0 0,0"/>
      </g>
      <g transform="translate(1560.7894,-298.3783)" id="g1312">
        <path inkscape:connector-curvature="0" id="path1314" style="fill:#545454;fill-opacity:1;fill-rule:nonzero;stroke:none" d="m 0,0 c -0.012,0 -0.023,0 -0.035,0 -0.352,0.014 -0.668,0.208 -0.838,0.515 l -3.68,6.626 c -0.269,0.483 -0.095,1.091 0.389,1.359 0.482,0.268 1.092,0.094 1.359,-0.389 L 0.07,2.933 1.002,4.353 c 0.18,0.275 0.484,0.444 0.814,0.451 l 1.698,0.039 -2.875,5.179 c -0.27,0.483 -0.096,1.092 0.388,1.36 0.481,0.268 1.092,0.094 1.36,-0.389 L 6.066,4.366 C 6.236,4.06 6.234,3.688 6.059,3.383 5.885,3.08 5.564,2.889 5.215,2.881 L 2.387,2.817 0.836,0.452 C 0.652,0.169 0.336,0 0,0"/>
      </g>
    </g>
  </g>
</svg>
