<?xml version='1.0' encoding='UTF-8'?>
<!-- Created with Inkscape (http://www.inkscape.org/) and export_objects.py -->
<svg xmlns:cc="http://creativecommons.org/ns#" xmlns:dc="http://purl.org/dc/elements/1.1/" xmlns:inkscape="http://www.inkscape.org/namespaces/inkscape" xmlns:rdf="http://www.w3.org/1999/02/22-rdf-syntax-ns#" xmlns:sodipodi="http://sodipodi.sourceforge.net/DTD/sodipodi-0.dtd" xmlns:xlink="http://www.w3.org/1999/xlink" xmlns="http://www.w3.org/2000/svg" version="1.1" sodipodi:docname="step069.svg" viewBox="0 0 31.003104 26.444682" height="26.444682px" width="31.003104px" xml:space="preserve" id="svg2" inkscape:version="0.92.1 r15371">
  <sodipodi:namedview inkscape:current-layer="g10" inkscape:window-maximized="1" inkscape:window-y="-8" inkscape:window-x="1912" inkscape:cy="-862.22917" inkscape:cx="2456.2254" inkscape:zoom="0.3015625" showgrid="false" id="namedview4" inkscape:window-height="1017" inkscape:window-width="1920" inkscape:pageshadow="2" inkscape:pageopacity="0" guidetolerance="10" gridtolerance="10" objecttolerance="10" borderopacity="1" bordercolor="#666666" pagecolor="#ffffff"/>
  <metadata id="metadata8">
    <rdf:RDF>
      <cc:Work rdf:about="">
        <dc:format>image/svg+xml</dc:format>
        <dc:type rdf:resource="http://purl.org/dc/dcmitype/StillImage"/>
        <dc:title/>
      </cc:Work>
    </rdf:RDF>
  </metadata>
  <g inkscape:groupmode="layer" inkscape:label="step" transform="matrix(1.333333,0.000000,0.000000,-1.333333,-1901.948100,-366.060400)">
    <g id="g9254" inkscape:label="069">
      <g transform="translate(1434.0863,-294.3788)" id="g822">
        <path inkscape:connector-curvature="0" id="path824" style="fill:#545454;fill-opacity:1;fill-rule:nonzero;stroke:none" d="M 0,0 C -0.273,0 -0.535,0.112 -0.725,0.311 L -7.35,7.268 c -0.38,0.4 -0.365,1.033 0.036,1.414 0.398,0.381 1.031,0.365 1.414,-0.035 l 5.845,-6.138 13.909,16.959 c 0.351,0.425 0.98,0.49 1.408,0.139 0.427,-0.351 0.488,-0.981 0.138,-1.408 L 0.773,0.366 C 0.592,0.144 0.324,0.011 0.037,0 0.025,0 0.014,0 0,0"/>
      </g>
    </g>
  </g>
</svg>
