<?xml version='1.0' encoding='UTF-8'?>
<!-- Created with Inkscape (http://www.inkscape.org/) and export_objects.py -->
<svg xmlns:cc="http://creativecommons.org/ns#" xmlns:dc="http://purl.org/dc/elements/1.1/" xmlns:inkscape="http://www.inkscape.org/namespaces/inkscape" xmlns:rdf="http://www.w3.org/1999/02/22-rdf-syntax-ns#" xmlns:sodipodi="http://sodipodi.sourceforge.net/DTD/sodipodi-0.dtd" xmlns:xlink="http://www.w3.org/1999/xlink" xmlns="http://www.w3.org/2000/svg" version="1.1" sodipodi:docname="step045.svg" viewBox="0 0 27.875333 31.418666" height="31.418666px" width="27.875333px" xml:space="preserve" id="svg2" inkscape:version="0.92.1 r15371">
  <sodipodi:namedview inkscape:current-layer="g10" inkscape:window-maximized="1" inkscape:window-y="-8" inkscape:window-x="-8" inkscape:cy="-703.13596" inkscape:cx="825.3699" inkscape:zoom="0.42647378" showgrid="false" id="namedview4" inkscape:window-height="1137" inkscape:window-width="1920" inkscape:pageshadow="2" inkscape:pageopacity="0" guidetolerance="10" gridtolerance="10" objecttolerance="10" borderopacity="1" bordercolor="#666666" pagecolor="#ffffff"/>
  <metadata id="metadata8">
    <rdf:RDF>
      <cc:Work rdf:about="">
        <dc:format>image/svg+xml</dc:format>
        <dc:type rdf:resource="http://purl.org/dc/dcmitype/StillImage"/>
        <dc:title/>
      </cc:Work>
    </rdf:RDF>
  </metadata>
  <g inkscape:groupmode="layer" inkscape:label="step" transform="matrix(1.333333,0.000000,0.000000,-1.333333,-779.338850,-603.945700)">
    <g id="g8422" inkscape:label="045">
      <path inkscape:connector-curvature="0" id="path1906" style="fill:#545454;fill-opacity:1;fill-rule:nonzero;stroke:none" d="m 593.04165,-461.8103 h 6.666 v 3.333 h -6.666 z m 7.166,-1 h -7.666 c -0.278,0 -0.5,0.224 -0.5,0.5 v 4.333 c 0,0.277 0.222,0.5 0.5,0.5 h 7.666 c 0.275,0 0.5,-0.223 0.5,-0.5 v -4.333 c 0,-0.276 -0.225,-0.5 -0.5,-0.5"/>
      <path inkscape:connector-curvature="0" id="path1908" style="fill:#545454;fill-opacity:1;fill-rule:nonzero;stroke:none" d="m 588.25465,-474.5233 h 15.156 v 19.563 h -15.156 z m 16.156,-2 h -17.156 c -0.553,0 -1,0.448 -1,1 v 21.564 c 0,0.553 0.447,1 1,1 h 17.156 c 0.553,0 1,-0.447 1,-1 v -21.564 c 0,-0.552 -0.447,-1 -1,-1"/>
      <g transform="translate(589.00415,-458.9867)" id="g1910">
        <path inkscape:connector-curvature="0" id="path1912" style="fill:#545454;fill-opacity:1;fill-rule:nonzero;stroke:none" d="m 0,0 h -3.5 c -0.553,0 -1,0.447 -1,1 0,0.553 0.447,1 1,1 H 0 C 0.553,2 1,1.553 1,1 1,0.447 0.553,0 0,0"/>
      </g>
      <g transform="translate(589.00415,-463.4506)" id="g1914">
        <path inkscape:connector-curvature="0" id="path1916" style="fill:#545454;fill-opacity:1;fill-rule:nonzero;stroke:none" d="m 0,0 h -3.5 c -0.553,0 -1,0.447 -1,1 0,0.553 0.447,1 1,1 H 0 C 0.553,2 1,1.553 1,1 1,0.447 0.553,0 0,0"/>
      </g>
      <g transform="translate(589.00415,-467.9154)" id="g1918">
        <path inkscape:connector-curvature="0" id="path1920" style="fill:#545454;fill-opacity:1;fill-rule:nonzero;stroke:none" d="m 0,0 h -3.5 c -0.553,0 -1,0.447 -1,1 0,0.553 0.447,1 1,1 H 0 C 0.553,2 1,1.553 1,1 1,0.447 0.553,0 0,0"/>
      </g>
      <g transform="translate(589.00415,-472.3803)" id="g1922">
        <path inkscape:connector-curvature="0" id="path1924" style="fill:#545454;fill-opacity:1;fill-rule:nonzero;stroke:none" d="m 0,0 h -3.5 c -0.553,0 -1,0.447 -1,1 0,0.553 0.447,1 1,1 H 0 C 0.553,2 1,1.553 1,1 1,0.447 0.553,0 0,0"/>
      </g>
      <g transform="translate(599.39675,-469.7396)" id="g1926">
        <path inkscape:connector-curvature="0" id="path1928" style="fill:#545454;fill-opacity:1;fill-rule:nonzero;stroke:none" d="m 0,0 h -6.375 c -0.553,0 -1,0.448 -1,1 0,0.552 0.447,1 1,1 H 0 C 0.553,2 1,1.552 1,1 1,0.448 0.553,0 0,0"/>
      </g>
      <g transform="translate(596.20925,-472.9271)" id="g1930">
        <path inkscape:connector-curvature="0" id="path1932" style="fill:#545454;fill-opacity:1;fill-rule:nonzero;stroke:none" d="m 0,0 c -0.553,0 -1,0.448 -1,1 v 6.375 c 0,0.552 0.447,1 1,1 0.553,0 1,-0.448 1,-1 V 1 C 1,0.448 0.553,0 0,0"/>
      </g>
    </g>
  </g>
</svg>
