<?xml version='1.0' encoding='UTF-8'?>
<!-- Created with Inkscape (http://www.inkscape.org/) and export_objects.py -->
<svg xmlns:cc="http://creativecommons.org/ns#" xmlns:dc="http://purl.org/dc/elements/1.1/" xmlns:inkscape="http://www.inkscape.org/namespaces/inkscape" xmlns:rdf="http://www.w3.org/1999/02/22-rdf-syntax-ns#" xmlns:sodipodi="http://sodipodi.sourceforge.net/DTD/sodipodi-0.dtd" xmlns:xlink="http://www.w3.org/1999/xlink" xmlns="http://www.w3.org/2000/svg" version="1.1" sodipodi:docname="step078.svg" viewBox="0 0 36.885332 32.373733" height="32.373733px" width="36.885332px" xml:space="preserve" id="svg2" inkscape:version="0.92.1 r15371">
  <sodipodi:namedview inkscape:current-layer="g10" inkscape:window-maximized="1" inkscape:window-y="-8" inkscape:window-x="1912" inkscape:cy="-862.22917" inkscape:cx="2456.2254" inkscape:zoom="0.3015625" showgrid="false" id="namedview4" inkscape:window-height="1017" inkscape:window-width="1920" inkscape:pageshadow="2" inkscape:pageopacity="0" guidetolerance="10" gridtolerance="10" objecttolerance="10" borderopacity="1" bordercolor="#666666" pagecolor="#ffffff"/>
  <metadata id="metadata8">
    <rdf:RDF>
      <cc:Work rdf:about="">
        <dc:format>image/svg+xml</dc:format>
        <dc:type rdf:resource="http://purl.org/dc/dcmitype/StillImage"/>
        <dc:title/>
      </cc:Work>
    </rdf:RDF>
  </metadata>
  <g inkscape:groupmode="layer" inkscape:label="step" transform="matrix(1.333333,0.000000,0.000000,-1.333333,-1899.305200,-729.710100)">
    <g id="g9237" inkscape:label="078">
      <g transform="translate(1431.6917,-554.058)" id="g952">
        <path inkscape:connector-curvature="0" id="path954" style="fill:#545454;fill-opacity:1;fill-rule:nonzero;stroke:none" d="m 0,0 c -0.34,0 -0.627,-0.4 -0.627,-0.873 0,-0.473 0.287,-0.871 0.627,-0.871 0.336,0 0.621,0.398 0.621,0.871 C 0.621,-0.408 0.33,0 0,0 m 0,-3.744 c -1.449,0 -2.627,1.288 -2.627,2.871 C -2.627,0.711 -1.449,2 0,2 1.445,2 2.621,0.711 2.621,-0.873 2.621,-2.456 1.445,-3.744 0,-3.744"/>
      </g>
      <g transform="translate(1429.4964,-561.3441)" id="g956">
        <path inkscape:connector-curvature="0" id="path958" style="fill:#545454;fill-opacity:1;fill-rule:nonzero;stroke:none" d="M 0,0 H 4.387 L 4.459,1.084 C 4.457,1.187 4.305,1.455 4.133,1.519 2.895,1.961 1.498,1.964 0.244,1.516 0.084,1.456 -0.07,1.186 -0.074,1.08 Z m 5.32,-2 h -6.254 c -0.523,0 -0.959,0.405 -0.996,0.93 l -0.14,2.02 c -0.069,1.005 0.646,2.08 1.631,2.446 1.71,0.61 3.568,0.605 5.253,0.002 C 5.809,3.032 6.527,1.957 6.455,0.947 L 6.318,-1.068 C 6.283,-1.593 5.848,-2 5.32,-2"/>
      </g>
      <g transform="translate(1439.7191,-547.2826)" id="g960">
        <path inkscape:connector-curvature="0" id="path962" style="fill:#545454;fill-opacity:1;fill-rule:nonzero;stroke:none" d="m 0,0 h -7.5 c -0.967,0 -1.75,-0.783 -1.75,-1.75 0,-0.967 0.783,-1.75 1.75,-1.75 H 0 c 0.967,0 1.75,0.783 1.75,1.75 C 1.75,-0.783 0.967,0 0,0"/>
      </g>
      <g transform="translate(1442.0531,-556.3666)" id="g964">
        <path inkscape:connector-curvature="0" id="path966" style="fill:#545454;fill-opacity:1;fill-rule:nonzero;stroke:none" d="m 0,0 h -4.166 c -0.553,0 -1,0.448 -1,1 0,0.553 0.447,1 1,1 H 0 C 0.553,2 1,1.553 1,1 1,0.448 0.553,0 0,0"/>
      </g>
      <g transform="translate(1442.0531,-559.5326)" id="g968">
        <path inkscape:connector-curvature="0" id="path970" style="fill:#545454;fill-opacity:1;fill-rule:nonzero;stroke:none" d="m 0,0 h -4.166 c -0.553,0 -1,0.448 -1,1 0,0.552 0.447,1 1,1 H 0 C 0.553,2 1,1.552 1,1 1,0.448 0.553,0 0,0"/>
      </g>
      <g transform="translate(1445.9339,-560.1469)" id="g972">
        <path inkscape:connector-curvature="0" id="path974" style="fill:#545454;fill-opacity:1;fill-rule:nonzero;stroke:none" d="m 0,0 c -2.871,0 -5.207,-2.337 -5.207,-5.208 0,-2.871 2.336,-5.208 5.207,-5.208 2.873,0 5.209,2.337 5.209,5.208 C 5.209,-2.337 2.873,0 0,0 m 0,-11.416 c -3.422,0 -6.207,2.784 -6.207,6.208 C -6.207,-1.784 -3.422,1 0,1 3.424,1 6.209,-1.784 6.209,-5.208 6.209,-8.632 3.424,-11.416 0,-11.416"/>
      </g>
      <g transform="translate(1440.2289,-566.4086)" id="g976">
        <path inkscape:connector-curvature="0" id="path978" style="fill:#545454;fill-opacity:1;fill-rule:nonzero;stroke:none" d="m 0,0 h -14.75 c -0.553,0 -1,0.448 -1,1 v 16.332 c 0,0.552 0.447,1 1,1 H 5.779 c 0.553,0 1,-0.448 1,-1 V 6.758 h -2 v 9.574 H -13.75 V 2 H 0 Z"/>
      </g>
      <g transform="translate(1445.9339,-569.1185)" id="g980">
        <path inkscape:connector-curvature="0" id="path982" style="fill:#545454;fill-opacity:1;fill-rule:nonzero;stroke:none" d="m 0,0 c -0.553,0 -1,0.447 -1,1 v 5.527 c 0,0.553 0.447,1 1,1 0.553,0 1,-0.447 1,-1 V 1 C 1,0.447 0.553,0 0,0"/>
      </g>
      <g transform="translate(1448.6976,-566.3549)" id="g984">
        <path inkscape:connector-curvature="0" id="path986" style="fill:#545454;fill-opacity:1;fill-rule:nonzero;stroke:none" d="m 0,0 h -5.527 c -0.553,0 -1,0.447 -1,1 0,0.553 0.447,1 1,1 H 0 C 0.553,2 1,1.553 1,1 1,0.447 0.553,0 0,0"/>
      </g>
    </g>
  </g>
</svg>
