<?xml version='1.0' encoding='UTF-8'?>
<!-- Created with Inkscape (http://www.inkscape.org/) and export_objects.py -->
<svg xmlns:cc="http://creativecommons.org/ns#" xmlns:dc="http://purl.org/dc/elements/1.1/" xmlns:inkscape="http://www.inkscape.org/namespaces/inkscape" xmlns:rdf="http://www.w3.org/1999/02/22-rdf-syntax-ns#" xmlns:sodipodi="http://sodipodi.sourceforge.net/DTD/sodipodi-0.dtd" xmlns:xlink="http://www.w3.org/1999/xlink" xmlns="http://www.w3.org/2000/svg" version="1.1" sodipodi:docname="step042.svg" viewBox="0 0 38.721227 30.646266" height="30.646266px" width="38.721227px" xml:space="preserve" id="svg2" inkscape:version="0.92.1 r15371">
  <sodipodi:namedview inkscape:current-layer="g10" inkscape:window-maximized="1" inkscape:window-y="-8" inkscape:window-x="-8" inkscape:cy="-703.13596" inkscape:cx="825.3699" inkscape:zoom="0.42647378" showgrid="false" id="namedview4" inkscape:window-height="1137" inkscape:window-width="1920" inkscape:pageshadow="2" inkscape:pageopacity="0" guidetolerance="10" gridtolerance="10" objecttolerance="10" borderopacity="1" bordercolor="#666666" pagecolor="#ffffff"/>
  <metadata id="metadata8">
    <rdf:RDF>
      <cc:Work rdf:about="">
        <dc:format>image/svg+xml</dc:format>
        <dc:type rdf:resource="http://purl.org/dc/dcmitype/StillImage"/>
        <dc:title/>
      </cc:Work>
    </rdf:RDF>
  </metadata>
  <g inkscape:groupmode="layer" inkscape:label="step" transform="matrix(1.333333,0.000000,0.000000,-1.333333,-694.996970,-444.335300)">
    <g id="g8313" inkscape:label="042">
      <g transform="translate(535.76685,-339.536)" id="g1806">
        <path inkscape:connector-curvature="0" id="path1808" style="fill:#545454;fill-opacity:1;fill-rule:nonzero;stroke:none" d="m 0,0 c -2.871,0 -5.207,-2.336 -5.207,-5.208 0,-2.872 2.336,-5.208 5.207,-5.208 2.873,0 5.209,2.336 5.209,5.208 C 5.209,-2.336 2.873,0 0,0 m 0,-11.416 c -3.422,0 -6.207,2.785 -6.207,6.208 C -6.207,-1.785 -3.422,1 0,1 3.424,1 6.209,-1.785 6.209,-5.208 6.209,-8.631 3.424,-11.416 0,-11.416"/>
      </g>
      <g transform="translate(535.76685,-348.5077)" id="g1810">
        <path inkscape:connector-curvature="0" id="path1812" style="fill:#545454;fill-opacity:1;fill-rule:nonzero;stroke:none" d="m 0,0 c -0.553,0 -1,0.447 -1,1 v 5.527 c 0,0.553 0.447,1 1,1 0.553,0 1,-0.447 1,-1 V 1 C 1,0.447 0.553,0 0,0"/>
      </g>
      <g transform="translate(538.53055,-345.744)" id="g1814">
        <path inkscape:connector-curvature="0" id="path1816" style="fill:#545454;fill-opacity:1;fill-rule:nonzero;stroke:none" d="m 0,0 h -5.527 c -0.553,0 -1,0.447 -1,1 0,0.553 0.447,1 1,1 H 0 C 0.553,2 1,1.553 1,1 1,0.447 0.553,0 0,0"/>
      </g>
      <g transform="translate(546.02075,-347.1054)" id="g1818">
        <path inkscape:connector-curvature="0" id="path1820" style="fill:#545454;fill-opacity:1;fill-rule:nonzero;stroke:none" d="m 0,0 c -0.24,0 -0.479,0.085 -0.668,0.256 l -3.266,2.93 c -0.41,0.369 -0.445,1.001 -0.076,1.412 0.371,0.411 1.002,0.445 1.412,0.076 L 0,2.343 2.602,4.673 C 3.012,5.041 3.645,5.007 4.014,4.595 4.381,4.184 4.346,3.552 3.936,3.183 L 0.666,0.255 C 0.477,0.085 0.238,0 0,0"/>
      </g>
      <g transform="translate(546.18295,-345.6425)" id="g1822">
        <path inkscape:connector-curvature="0" id="path1824" style="fill:#545454;fill-opacity:1;fill-rule:nonzero;stroke:none" d="m 0,0 v 0 c -0.553,0 -1,0.448 -1,1 0,2.509 -0.977,4.867 -2.75,6.641 -1.773,1.773 -4.133,2.75 -6.641,2.75 -3.23,0 -6.195,-1.629 -7.929,-4.357 -0.297,-0.466 -0.916,-0.603 -1.381,-0.307 -0.467,0.295 -0.604,0.914 -0.307,1.379 2.104,3.309 5.697,5.285 9.617,5.285 3.043,0 5.905,-1.185 8.055,-3.336 C -0.184,6.904 1,4.043 1,1 1,0.447 0.551,0 0,0"/>
      </g>
      <g transform="translate(535.84895,-356.2362)" id="g1826">
        <path inkscape:connector-curvature="0" id="path1828" style="fill:#545454;fill-opacity:1;fill-rule:nonzero;stroke:none" d="m 0,0 c -6.279,0 -11.389,5.109 -11.391,11.391 0,0.551 0.448,1 1,1 0.551,0 1,-0.448 1,-1 C -9.389,6.213 -5.176,2 0,2 3.23,2 6.195,3.63 7.934,6.359 8.23,6.826 8.85,6.961 9.314,6.666 9.779,6.369 9.918,5.751 9.621,5.285 7.514,1.976 3.918,0 0,0"/>
      </g>
      <g transform="translate(522.24735,-347.3124)" id="g1830">
        <path inkscape:connector-curvature="0" id="path1832" style="fill:#545454;fill-opacity:1;fill-rule:nonzero;stroke:none" d="m 0,0 c -0.273,0 -0.547,0.112 -0.744,0.332 -0.369,0.411 -0.334,1.043 0.076,1.412 L 2.6,4.676 c 0.38,0.342 0.955,0.342 1.336,0 L 7.201,1.746 C 7.611,1.378 7.646,0.745 7.277,0.334 6.908,-0.078 6.277,-0.111 5.865,0.258 L 3.268,2.588 0.668,0.256 C 0.477,0.084 0.238,0 0,0"/>
      </g>
    </g>
  </g>
</svg>
