<?xml version='1.0' encoding='UTF-8'?>
<!-- Created with Inkscape (http://www.inkscape.org/) and export_objects.py -->
<svg xmlns:cc="http://creativecommons.org/ns#" xmlns:dc="http://purl.org/dc/elements/1.1/" xmlns:inkscape="http://www.inkscape.org/namespaces/inkscape" xmlns:rdf="http://www.w3.org/1999/02/22-rdf-syntax-ns#" xmlns:sodipodi="http://sodipodi.sourceforge.net/DTD/sodipodi-0.dtd" xmlns:xlink="http://www.w3.org/1999/xlink" xmlns="http://www.w3.org/2000/svg" version="1.1" sodipodi:docname="step037.svg" viewBox="0 0 31.694666 31.694666" height="31.694666px" width="31.694666px" xml:space="preserve" id="svg2" inkscape:version="0.92.1 r15371">
  <sodipodi:namedview inkscape:current-layer="g10" inkscape:window-maximized="1" inkscape:window-y="-8" inkscape:window-x="-8" inkscape:cy="-703.13596" inkscape:cx="825.3699" inkscape:zoom="0.42647378" showgrid="false" id="namedview4" inkscape:window-height="1137" inkscape:window-width="1920" inkscape:pageshadow="2" inkscape:pageopacity="0" guidetolerance="10" gridtolerance="10" objecttolerance="10" borderopacity="1" bordercolor="#666666" pagecolor="#ffffff"/>
  <metadata id="metadata8">
    <rdf:RDF>
      <cc:Work rdf:about="">
        <dc:format>image/svg+xml</dc:format>
        <dc:type rdf:resource="http://purl.org/dc/dcmitype/StillImage"/>
        <dc:title/>
      </cc:Work>
    </rdf:RDF>
  </metadata>
  <g inkscape:groupmode="layer" inkscape:label="step" transform="matrix(1.333333,0.000000,0.000000,-1.333333,-699.096850,-603.049700)">
    <g id="g8406" inkscape:label="037">
      <path inkscape:connector-curvature="0" id="path1550" style="fill:#545454;fill-opacity:1;fill-rule:nonzero;stroke:none" d="m 526.32265,-474.0583 h 19.771 v 19.771 h -19.771 z m 20.771,-2 h -21.771 c -0.553,0 -1,0.448 -1,1 v 21.771 c 0,0.552 0.447,1 1,1 h 21.771 c 0.553,0 1,-0.448 1,-1 v -21.771 c 0,-0.552 -0.447,-1 -1,-1"/>
      <g transform="translate(546.73665,-459.6161)" id="g1552">
        <path inkscape:connector-curvature="0" id="path1554" style="fill:#545454;fill-opacity:1;fill-rule:nonzero;stroke:none" d="m 0,0 h -21.057 c -0.275,0 -0.5,0.224 -0.5,0.5 0,0.276 0.225,0.5 0.5,0.5 H 0 C 0.277,1 0.5,0.776 0.5,0.5 0.5,0.224 0.277,0 0,0"/>
      </g>
      <g transform="translate(528.86745,-455.223)" id="g1556">
        <path inkscape:connector-curvature="0" id="path1558" style="fill:#545454;fill-opacity:1;fill-rule:nonzero;stroke:none" d="m 0,0 c -0.695,0 -1.26,-0.564 -1.26,-1.26 0,-0.696 0.565,-1.26 1.26,-1.26 0.695,0 1.26,0.564 1.26,1.26 C 1.26,-0.564 0.695,0 0,0"/>
      </g>
      <g transform="translate(532.27955,-455.223)" id="g1560">
        <path inkscape:connector-curvature="0" id="path1562" style="fill:#545454;fill-opacity:1;fill-rule:nonzero;stroke:none" d="m 0,0 c -0.695,0 -1.26,-0.564 -1.26,-1.26 0,-0.696 0.565,-1.26 1.26,-1.26 0.695,0 1.26,0.564 1.26,1.26 C 1.26,-0.564 0.695,0 0,0"/>
      </g>
      <g transform="translate(535.69165,-455.223)" id="g1564">
        <path inkscape:connector-curvature="0" id="path1566" style="fill:#545454;fill-opacity:1;fill-rule:nonzero;stroke:none" d="m 0,0 c -0.695,0 -1.26,-0.564 -1.26,-1.26 0,-0.696 0.565,-1.26 1.26,-1.26 0.697,0 1.262,0.564 1.262,1.26 C 1.262,-0.564 0.697,0 0,0"/>
      </g>
      <g transform="translate(539.39675,-467.7396)" id="g1568">
        <path inkscape:connector-curvature="0" id="path1570" style="fill:#545454;fill-opacity:1;fill-rule:nonzero;stroke:none" d="m 0,0 h -6.375 c -0.553,0 -1,0.448 -1,1 0,0.552 0.447,1 1,1 H 0 C 0.553,2 1,1.552 1,1 1,0.448 0.553,0 0,0"/>
      </g>
      <g transform="translate(536.20925,-470.9271)" id="g1572">
        <path inkscape:connector-curvature="0" id="path1574" style="fill:#545454;fill-opacity:1;fill-rule:nonzero;stroke:none" d="m 0,0 c -0.553,0 -1,0.448 -1,1 v 6.375 c 0,0.552 0.447,1 1,1 0.553,0 1,-0.448 1,-1 V 1 C 1,0.448 0.553,0 0,0"/>
      </g>
    </g>
  </g>
</svg>
