<?xml version='1.0' encoding='UTF-8'?>
<!-- Created with Inkscape (http://www.inkscape.org/) and export_objects.py -->
<svg xmlns:cc="http://creativecommons.org/ns#" xmlns:dc="http://purl.org/dc/elements/1.1/" xmlns:inkscape="http://www.inkscape.org/namespaces/inkscape" xmlns:rdf="http://www.w3.org/1999/02/22-rdf-syntax-ns#" xmlns:sodipodi="http://sodipodi.sourceforge.net/DTD/sodipodi-0.dtd" xmlns:xlink="http://www.w3.org/1999/xlink" xmlns="http://www.w3.org/2000/svg" version="1.1" sodipodi:docname="step017.svg" viewBox="0 0 36.906266 31.889733" height="31.889733px" width="36.906266px" xml:space="preserve" id="svg2" inkscape:version="0.92.1 r15371">
  <sodipodi:namedview inkscape:current-layer="g10" inkscape:window-maximized="1" inkscape:window-y="-8" inkscape:window-x="-8" inkscape:cy="-703.13596" inkscape:cx="825.3699" inkscape:zoom="0.42647378" showgrid="false" id="namedview4" inkscape:window-height="1137" inkscape:window-width="1920" inkscape:pageshadow="2" inkscape:pageopacity="0" guidetolerance="10" gridtolerance="10" objecttolerance="10" borderopacity="1" bordercolor="#666666" pagecolor="#ffffff"/>
  <metadata id="metadata8">
    <rdf:RDF>
      <cc:Work rdf:about="">
        <dc:format>image/svg+xml</dc:format>
        <dc:type rdf:resource="http://purl.org/dc/dcmitype/StillImage"/>
        <dc:title/>
      </cc:Work>
    </rdf:RDF>
  </metadata>
  <g inkscape:groupmode="layer" inkscape:label="step" transform="matrix(1.333333,0.000000,0.000000,-1.333333,-699.390980,-525.032700)">
    <g id="g8391" inkscape:label="017">
      <g transform="translate(525.54325,-414.8295)" id="g614">
        <path inkscape:connector-curvature="0" id="path616" style="fill:#545454;fill-opacity:1;fill-rule:nonzero;stroke:none" d="m 0,0 c -0.553,0 -1,0.447 -1,1 v 18.055 c 0,1.102 0.898,2 2,2 h 7 c 1.104,0 2,-0.898 2,-2 v -0.723 h 10.529 c 0.553,0 1,-0.447 1,-1 0,-0.553 -0.447,-1 -1,-1 H 9 c -0.553,0 -1,0.447 -1,1 v 1.723 H 1 V 1 C 1,0.447 0.553,0 0,0"/>
      </g>
      <g transform="translate(546.01395,-406.2758)" id="g618">
        <path inkscape:connector-curvature="0" id="path620" style="fill:#545454;fill-opacity:1;fill-rule:nonzero;stroke:none" d="m 0,0 c -2.871,0 -5.207,-2.336 -5.207,-5.208 0,-2.872 2.336,-5.208 5.207,-5.208 2.873,0 5.209,2.336 5.209,5.208 C 5.209,-2.336 2.873,0 0,0 m 0,-11.416 c -3.422,0 -6.207,2.785 -6.207,6.208 C -6.207,-1.785 -3.422,1 0,1 3.424,1 6.209,-1.785 6.209,-5.208 6.209,-8.631 3.424,-11.416 0,-11.416"/>
      </g>
      <g transform="translate(546.01395,-415.2474)" id="g622">
        <path inkscape:connector-curvature="0" id="path624" style="fill:#545454;fill-opacity:1;fill-rule:nonzero;stroke:none" d="m 0,0 c -0.553,0 -1,0.447 -1,1 v 5.527 c 0,0.553 0.447,1 1,1 0.553,0 1,-0.447 1,-1 V 1 C 1,0.447 0.553,0 0,0"/>
      </g>
      <g transform="translate(548.77765,-412.4838)" id="g626">
        <path inkscape:connector-curvature="0" id="path628" style="fill:#545454;fill-opacity:1;fill-rule:nonzero;stroke:none" d="m 0,0 h -5.527 c -0.553,0 -1,0.447 -1,1 0,0.553 0.447,1 1,1 H 0 C 0.553,2 1,1.553 1,1 1,0.447 0.553,0 0,0"/>
      </g>
      <g transform="translate(540.81475,-414.8295)" id="g630">
        <path inkscape:connector-curvature="0" id="path632" style="fill:#545454;fill-opacity:1;fill-rule:nonzero;stroke:none" d="m 0,0 h -14.521 c -0.319,0 -0.62,0.152 -0.807,0.41 -0.188,0.257 -0.242,0.589 -0.147,0.893 l 4.194,13.179 c 0.133,0.415 0.517,0.698 0.953,0.698 h 20.529 c 0.32,0 0.619,-0.153 0.809,-0.41 0.187,-0.257 0.242,-0.589 0.144,-0.893 L 9.234,7.843 7.328,8.448 8.834,13.18 H -9.596 L -13.154,2 H 0 Z"/>
      </g>
    </g>
  </g>
</svg>
