<?xml version='1.0' encoding='UTF-8'?>
<!-- Created with Inkscape (http://www.inkscape.org/) and export_objects.py -->
<svg xmlns:cc="http://creativecommons.org/ns#" xmlns:dc="http://purl.org/dc/elements/1.1/" xmlns:inkscape="http://www.inkscape.org/namespaces/inkscape" xmlns:rdf="http://www.w3.org/1999/02/22-rdf-syntax-ns#" xmlns:sodipodi="http://sodipodi.sourceforge.net/DTD/sodipodi-0.dtd" xmlns:xlink="http://www.w3.org/1999/xlink" xmlns="http://www.w3.org/2000/svg" version="1.1" sodipodi:docname="step106.svg" viewBox="0 0 27.445333 24.905333" height="24.905333px" width="27.445333px" xml:space="preserve" id="svg2" inkscape:version="0.92.1 r15371">
  <sodipodi:namedview inkscape:current-layer="g10" inkscape:window-maximized="1" inkscape:window-y="-8" inkscape:window-x="1912" inkscape:cy="-862.22917" inkscape:cx="2456.2254" inkscape:zoom="0.3015625" showgrid="false" id="namedview4" inkscape:window-height="1017" inkscape:window-width="1920" inkscape:pageshadow="2" inkscape:pageopacity="0" guidetolerance="10" gridtolerance="10" objecttolerance="10" borderopacity="1" bordercolor="#666666" pagecolor="#ffffff"/>
  <metadata id="metadata8">
    <rdf:RDF>
      <cc:Work rdf:about="">
        <dc:format>image/svg+xml</dc:format>
        <dc:type rdf:resource="http://purl.org/dc/dcmitype/StillImage"/>
        <dc:title/>
      </cc:Work>
    </rdf:RDF>
  </metadata>
  <g inkscape:groupmode="layer" inkscape:label="step" transform="matrix(1.333333,0.000000,0.000000,-1.333333,-1361.151400,-767.383300)">
    <g id="g8889" inkscape:label="106">
      <g transform="translate(1031.1566,-577.5375)" id="g1962">
        <path inkscape:connector-curvature="0" id="path1964" style="fill:#545454;fill-opacity:1;fill-rule:nonzero;stroke:none" d="m 0,0 c -4.574,0 -8.293,-2.837 -8.293,-6.324 0,-2.388 1.832,-4.616 4.67,-5.678 0.266,-0.099 0.475,-0.305 0.58,-0.567 0.104,-0.263 0.092,-0.558 -0.033,-0.811 l -0.049,-0.101 c -0.055,-0.117 -0.109,-0.232 -0.176,-0.344 -0.092,-0.154 -0.189,-0.303 -0.293,-0.448 0.836,0.296 1.567,0.752 2.145,1.349 0.203,0.21 0.486,0.312 0.779,0.303 0.221,-0.014 0.443,-0.027 0.67,-0.027 4.57,0 8.291,2.836 8.291,6.324 C 8.291,-2.837 4.57,0 0,0 m -6.064,-16.679 c -0.248,0 -0.5,0.009 -0.754,0.028 -0.45,0.031 -0.823,0.362 -0.911,0.805 -0.085,0.444 0.135,0.89 0.542,1.089 0.707,0.348 1.294,0.806 1.755,1.366 -2.988,1.504 -4.861,4.179 -4.861,7.067 0,4.59 4.617,8.324 10.293,8.324 5.674,0 10.291,-3.734 10.291,-8.324 0,-4.59 -4.617,-8.324 -10.291,-8.324 -0.117,0 -0.234,0.002 -0.35,0.007 -1.459,-1.317 -3.466,-2.038 -5.714,-2.038"/>
      </g>
      <g transform="translate(1034.3968,-584.7396)" id="g1966">
        <path inkscape:connector-curvature="0" id="path1968" style="fill:#545454;fill-opacity:1;fill-rule:nonzero;stroke:none" d="m 0,0 h -6.375 c -0.553,0 -1,0.447 -1,1 0,0.552 0.447,1 1,1 H 0 C 0.553,2 1,1.552 1,1 1,0.447 0.553,0 0,0"/>
      </g>
      <g transform="translate(1031.2093,-587.9271)" id="g1970">
        <path inkscape:connector-curvature="0" id="path1972" style="fill:#545454;fill-opacity:1;fill-rule:nonzero;stroke:none" d="m 0,0 c -0.553,0 -1,0.447 -1,1 v 6.375 c 0,0.552 0.447,1 1,1 0.553,0 1,-0.448 1,-1 V 1 C 1,0.447 0.553,0 0,0"/>
      </g>
    </g>
  </g>
</svg>
