<?xml version='1.0' encoding='UTF-8'?>
<!-- Created with Inkscape (http://www.inkscape.org/) and export_objects.py -->
<svg xmlns:cc="http://creativecommons.org/ns#" xmlns:dc="http://purl.org/dc/elements/1.1/" xmlns:inkscape="http://www.inkscape.org/namespaces/inkscape" xmlns:rdf="http://www.w3.org/1999/02/22-rdf-syntax-ns#" xmlns:sodipodi="http://sodipodi.sourceforge.net/DTD/sodipodi-0.dtd" xmlns:xlink="http://www.w3.org/1999/xlink" xmlns="http://www.w3.org/2000/svg" version="1.1" sodipodi:docname="step015.svg" viewBox="0 0 24.442666 30.037333" height="30.037333px" width="24.442666px" xml:space="preserve" id="svg2" inkscape:version="0.92.1 r15371">
  <sodipodi:namedview inkscape:current-layer="g10" inkscape:window-maximized="1" inkscape:window-y="-8" inkscape:window-x="-8" inkscape:cy="-703.13596" inkscape:cx="825.3699" inkscape:zoom="0.42647378" showgrid="false" id="namedview4" inkscape:window-height="1137" inkscape:window-width="1920" inkscape:pageshadow="2" inkscape:pageopacity="0" guidetolerance="10" gridtolerance="10" objecttolerance="10" borderopacity="1" bordercolor="#666666" pagecolor="#ffffff"/>
  <metadata id="metadata8">
    <rdf:RDF>
      <cc:Work rdf:about="">
        <dc:format>image/svg+xml</dc:format>
        <dc:type rdf:resource="http://purl.org/dc/dcmitype/StillImage"/>
        <dc:title/>
      </cc:Work>
    </rdf:RDF>
  </metadata>
  <g inkscape:groupmode="layer" inkscape:label="step" transform="matrix(1.333333,0.000000,0.000000,-1.333333,-784.028980,-526.292500)">
    <g id="g8379" inkscape:label="015">
      <g transform="translate(599.35385,-416.7474)" id="g562">
        <path inkscape:connector-curvature="0" id="path564" style="fill:#545454;fill-opacity:1;fill-rule:nonzero;stroke:none" d="m 0,0 c -0.277,0 -0.5,0.224 -0.5,0.5 v 6 C -0.5,6.776 -0.277,7 0,7 H 6 C 6.275,7 6.5,6.776 6.5,6.5 6.5,6.224 6.275,6 6,6 H 0.5 V 0.5 C 0.5,0.224 0.275,0 0,0"/>
      </g>
      <g transform="translate(590.02175,-415.2474)" id="g566">
        <path inkscape:connector-curvature="0" id="path568" style="fill:#545454;fill-opacity:1;fill-rule:nonzero;stroke:none" d="m 0,0 h 8.918 l 5.414,5.414 V 18.528 H 0 Z M 9.332,-2 H -1 c -0.553,0 -1,0.447 -1,1 v 20.528 c 0,0.553 0.447,1 1,1 h 16.332 c 0.553,0 1,-0.447 1,-1 V 5 c 0,-0.266 -0.105,-0.52 -0.293,-0.707 l -6,-6 C 9.852,-1.895 9.598,-2 9.332,-2"/>
      </g>
      <g transform="translate(600.37525,-404.5951)" id="g570">
        <path inkscape:connector-curvature="0" id="path572" style="fill:#545454;fill-opacity:1;fill-rule:nonzero;stroke:none" d="m 0,0 h -6.375 c -0.553,0 -1,0.447 -1,1 0,0.553 0.447,1 1,1 H 0 C 0.553,2 1,1.553 1,1 1,0.447 0.553,0 0,0"/>
      </g>
      <g transform="translate(597.18775,-407.7826)" id="g574">
        <path inkscape:connector-curvature="0" id="path576" style="fill:#545454;fill-opacity:1;fill-rule:nonzero;stroke:none" d="m 0,0 c -0.553,0 -1,0.447 -1,1 v 6.375 c 0,0.553 0.447,1 1,1 0.553,0 1,-0.447 1,-1 V 1 C 1,0.447 0.553,0 0,0"/>
      </g>
    </g>
  </g>
</svg>
