<?xml version='1.0' encoding='UTF-8'?>
<!-- Created with Inkscape (http://www.inkscape.org/) and export_objects.py -->
<svg xmlns:cc="http://creativecommons.org/ns#" xmlns:dc="http://purl.org/dc/elements/1.1/" xmlns:inkscape="http://www.inkscape.org/namespaces/inkscape" xmlns:rdf="http://www.w3.org/1999/02/22-rdf-syntax-ns#" xmlns:sodipodi="http://sodipodi.sourceforge.net/DTD/sodipodi-0.dtd" xmlns:xlink="http://www.w3.org/1999/xlink" xmlns="http://www.w3.org/2000/svg" version="1.1" sodipodi:docname="step046.svg" viewBox="0 0 32.838933 32.724533" height="32.724533px" width="32.838933px" xml:space="preserve" id="svg2" inkscape:version="0.92.1 r15371">
  <sodipodi:namedview inkscape:current-layer="g10" inkscape:window-maximized="1" inkscape:window-y="-8" inkscape:window-x="-8" inkscape:cy="-703.13596" inkscape:cx="825.3699" inkscape:zoom="0.42647378" showgrid="false" id="namedview4" inkscape:window-height="1137" inkscape:window-width="1920" inkscape:pageshadow="2" inkscape:pageopacity="0" guidetolerance="10" gridtolerance="10" objecttolerance="10" borderopacity="1" bordercolor="#666666" pagecolor="#ffffff"/>
  <metadata id="metadata8">
    <rdf:RDF>
      <cc:Work rdf:about="">
        <dc:format>image/svg+xml</dc:format>
        <dc:type rdf:resource="http://purl.org/dc/dcmitype/StillImage"/>
        <dc:title/>
      </cc:Work>
    </rdf:RDF>
  </metadata>
  <g inkscape:groupmode="layer" inkscape:label="step" transform="matrix(1.333333,0.000000,0.000000,-1.333333,-861.023380,-524.626300)">
    <g id="g8369" inkscape:label="046">
      <g transform="translate(661.98855,-418.0131)" id="g1934">
        <path inkscape:connector-curvature="0" id="path1936" style="fill:#545454;fill-opacity:1;fill-rule:nonzero;stroke:none" d="m 0,0 h -13.943 c -1.256,0 -2.278,1.022 -2.278,2.278 v 18.709 c 0,0.553 0.448,1 1,1 0.553,0 1,-0.447 1,-1 V 2.278 C -14.221,2.122 -14.098,2 -13.943,2 H 0 c 0.154,0 0.279,0.125 0.279,0.278 v 5.899 c 0,0.552 0.448,1 1,1 0.553,0 1,-0.448 1,-1 V 2.278 C 2.279,1.022 1.258,0 0,0"/>
      </g>
      <g transform="translate(663.26785,-403.5863)" id="g1938">
        <path inkscape:connector-curvature="0" id="path1940" style="fill:#545454;fill-opacity:1;fill-rule:nonzero;stroke:none" d="m 0,0 c -0.553,0 -1,0.447 -1,1 v 2.654 c 0,0.154 -0.125,0.279 -0.279,0.279 -0.553,0 -1,0.447 -1,1 0,0.552 0.447,1 1,1 C -0.021,5.933 1,4.91 1,3.654 V 1 C 1,0.447 0.553,0 0,0"/>
      </g>
      <g transform="translate(661.79525,-399.6527)" id="g1942">
        <path inkscape:connector-curvature="0" id="path1944" style="fill:#545454;fill-opacity:1;fill-rule:nonzero;stroke:none" d="m 0,0 h -12.938 c -1.703,0 -3.089,1.387 -3.089,3.091 0,1.705 1.386,3.092 3.089,3.092 H 1.473 c 0.552,0 1,-0.448 1,-1 0,-0.553 -0.448,-1 -1,-1 h -14.411 c -0.599,0 -1.089,-0.491 -1.089,-1.092 0,-0.602 0.49,-1.091 1.089,-1.091 L 0,2 C 0.553,2 1,1.553 1,1 1,0.447 0.553,0 0,0"/>
      </g>
      <g transform="translate(656.51595,-403.3363)" id="g1946">
        <path inkscape:connector-curvature="0" id="path1948" style="fill:#545454;fill-opacity:1;fill-rule:nonzero;stroke:none" d="m 0,0 h -6.125 c -0.275,0 -0.5,0.224 -0.5,0.5 0,0.276 0.225,0.5 0.5,0.5 H 0 C 0.277,1 0.5,0.776 0.5,0.5 0.5,0.224 0.277,0 0,0"/>
      </g>
      <g transform="translate(656.51595,-406.0863)" id="g1950">
        <path inkscape:connector-curvature="0" id="path1952" style="fill:#545454;fill-opacity:1;fill-rule:nonzero;stroke:none" d="m 0,0 h -6.125 c -0.275,0 -0.5,0.224 -0.5,0.5 0,0.276 0.225,0.5 0.5,0.5 H 0 C 0.277,1 0.5,0.776 0.5,0.5 0.5,0.224 0.277,0 0,0"/>
      </g>
      <g transform="translate(669.39675,-407.7396)" id="g1954">
        <path inkscape:connector-curvature="0" id="path1956" style="fill:#545454;fill-opacity:1;fill-rule:nonzero;stroke:none" d="m 0,0 h -6.375 c -0.553,0 -1,0.448 -1,1 0,0.552 0.447,1 1,1 H 0 C 0.553,2 1,1.552 1,1 1,0.448 0.553,0 0,0"/>
      </g>
      <g transform="translate(666.20925,-410.9271)" id="g1958">
        <path inkscape:connector-curvature="0" id="path1960" style="fill:#545454;fill-opacity:1;fill-rule:nonzero;stroke:none" d="m 0,0 c -0.553,0 -1,0.448 -1,1 v 6.375 c 0,0.552 0.447,1 1,1 0.553,0 1,-0.448 1,-1 V 1 C 1,0.448 0.553,0 0,0"/>
      </g>
    </g>
  </g>
</svg>
