<?xml version='1.0' encoding='UTF-8'?>
<!-- Created with Inkscape (http://www.inkscape.org/) and export_objects.py -->
<svg xmlns:cc="http://creativecommons.org/ns#" xmlns:dc="http://purl.org/dc/elements/1.1/" xmlns:inkscape="http://www.inkscape.org/namespaces/inkscape" xmlns:rdf="http://www.w3.org/1999/02/22-rdf-syntax-ns#" xmlns:sodipodi="http://sodipodi.sourceforge.net/DTD/sodipodi-0.dtd" xmlns:xlink="http://www.w3.org/1999/xlink" xmlns="http://www.w3.org/2000/svg" version="1.1" sodipodi:docname="step024.svg" viewBox="0 0 31.390666 31.402666" height="31.402666px" width="31.390666px" xml:space="preserve" id="svg2" inkscape:version="0.92.1 r15371">
  <sodipodi:namedview inkscape:current-layer="g10" inkscape:window-maximized="1" inkscape:window-y="-8" inkscape:window-x="-8" inkscape:cy="-703.13596" inkscape:cx="825.3699" inkscape:zoom="0.42647378" showgrid="false" id="namedview4" inkscape:window-height="1137" inkscape:window-width="1920" inkscape:pageshadow="2" inkscape:pageopacity="0" guidetolerance="10" gridtolerance="10" objecttolerance="10" borderopacity="1" bordercolor="#666666" pagecolor="#ffffff"/>
  <metadata id="metadata8">
    <rdf:RDF>
      <cc:Work rdf:about="">
        <dc:format>image/svg+xml</dc:format>
        <dc:type rdf:resource="http://purl.org/dc/dcmitype/StillImage"/>
        <dc:title/>
      </cc:Work>
    </rdf:RDF>
  </metadata>
  <g inkscape:groupmode="layer" inkscape:label="step" transform="matrix(1.333333,0.000000,0.000000,-1.333333,-699.928050,-363.725700)">
    <g id="g8290" inkscape:label="024">
      <g transform="translate(536.71705,-289.5082)" id="g846">
        <path inkscape:connector-curvature="0" id="path848" style="fill:#545454;fill-opacity:1;fill-rule:nonzero;stroke:none" d="m 0,0 c -0.553,0 -1,0.448 -1,1 v 7.875 c 0,0.552 0.447,1 1,1 0.553,0 1,-0.448 1,-1 V 1 C 1,0.448 0.553,0 0,0"/>
      </g>
      <g transform="translate(540.65455,-285.5707)" id="g850">
        <path inkscape:connector-curvature="0" id="path852" style="fill:#545454;fill-opacity:1;fill-rule:nonzero;stroke:none" d="m 0,0 h -7.875 c -0.553,0 -1,0.448 -1,1 0,0.552 0.447,1 1,1 H 0 C 0.553,2 1,1.552 1,1 1,0.448 0.553,0 0,0"/>
      </g>
      <g transform="translate(536.71705,-274.7943)" id="g854">
        <path inkscape:connector-curvature="0" id="path856" style="fill:#545454;fill-opacity:1;fill-rule:nonzero;stroke:none" d="m 0,0 c -2.611,0 -5.066,-1.017 -6.912,-2.862 -3.813,-3.812 -3.813,-10.015 -0.002,-13.828 1.846,-1.846 4.301,-2.862 6.912,-2.862 2.613,0 5.068,1.017 6.916,2.864 3.811,3.811 3.811,10.013 0,13.826 C 5.068,-1.017 2.613,0 0,0 m -0.002,-21.552 c -3.144,0 -6.102,1.224 -8.326,3.448 -4.592,4.592 -4.59,12.064 0.002,16.656 C -6.102,0.775 -3.145,2 0,2 3.146,2 6.104,0.775 8.328,-1.448 c 4.592,-4.593 4.592,-12.064 0,-16.655 -2.224,-2.224 -5.183,-3.449 -8.33,-3.449"/>
      </g>
    </g>
  </g>
</svg>
