<?xml version='1.0' encoding='UTF-8'?>
<!-- Created with Inkscape (http://www.inkscape.org/) and export_objects.py -->
<svg xmlns:cc="http://creativecommons.org/ns#" xmlns:dc="http://purl.org/dc/elements/1.1/" xmlns:inkscape="http://www.inkscape.org/namespaces/inkscape" xmlns:rdf="http://www.w3.org/1999/02/22-rdf-syntax-ns#" xmlns:sodipodi="http://sodipodi.sourceforge.net/DTD/sodipodi-0.dtd" xmlns:xlink="http://www.w3.org/1999/xlink" xmlns="http://www.w3.org/2000/svg" version="1.1" sodipodi:docname="step050.svg" viewBox="0 0 28.016933 31.583999" height="31.583999px" width="28.016933px" xml:space="preserve" id="svg2" inkscape:version="0.92.1 r15371">
  <sodipodi:namedview inkscape:current-layer="g10" inkscape:window-maximized="1" inkscape:window-y="-8" inkscape:window-x="1912" inkscape:cy="-862.22917" inkscape:cx="2456.2254" inkscape:zoom="0.3015625" showgrid="false" id="namedview4" inkscape:window-height="1017" inkscape:window-width="1920" inkscape:pageshadow="2" inkscape:pageopacity="0" guidetolerance="10" gridtolerance="10" objecttolerance="10" borderopacity="1" bordercolor="#666666" pagecolor="#ffffff"/>
  <metadata id="metadata8">
    <rdf:RDF>
      <cc:Work rdf:about="">
        <dc:format>image/svg+xml</dc:format>
        <dc:type rdf:resource="http://purl.org/dc/dcmitype/StillImage"/>
        <dc:title/>
      </cc:Work>
    </rdf:RDF>
  </metadata>
  <g inkscape:groupmode="layer" inkscape:label="step" transform="matrix(1.333333,0.000000,0.000000,-1.333333,-1899.269300,-1044.724400)">
    <g id="g9154" inkscape:label="050">
      <path inkscape:connector-curvature="0" id="path386" style="fill:#545454;fill-opacity:1;fill-rule:nonzero;stroke:none" d="m 1428.2117,-805.2313 h 15.254 v 19.687 h -15.254 z m 16.253,-2 h -17.253 c -0.553,0 -1,0.448 -1,1 v 21.688 c 0,0.553 0.447,1 1,1 h 17.253 c 0.553,0 1,-0.447 1,-1 v -21.688 c 0,-0.552 -0.447,-1 -1,-1"/>
      <g transform="translate(1428.973,-789.5931)" id="g388">
        <path inkscape:connector-curvature="0" id="path390" style="fill:#545454;fill-opacity:1;fill-rule:nonzero;stroke:none" d="m 0,0 h -3.521 c -0.553,0 -1,0.447 -1,1 0,0.553 0.447,1 1,1 H 0 C 0.553,2 1,1.553 1,1 1,0.447 0.553,0 0,0"/>
      </g>
      <g transform="translate(1428.973,-794.0844)" id="g392">
        <path inkscape:connector-curvature="0" id="path394" style="fill:#545454;fill-opacity:1;fill-rule:nonzero;stroke:none" d="m 0,0 h -3.521 c -0.553,0 -1,0.447 -1,1 0,0.553 0.447,1 1,1 H 0 C 0.553,2 1,1.553 1,1 1,0.447 0.553,0 0,0"/>
      </g>
      <g transform="translate(1428.973,-798.5736)" id="g396">
        <path inkscape:connector-curvature="0" id="path398" style="fill:#545454;fill-opacity:1;fill-rule:nonzero;stroke:none" d="m 0,0 h -3.521 c -0.553,0 -1,0.447 -1,1 0,0.553 0.447,1 1,1 H 0 C 0.553,2 1,1.553 1,1 1,0.447 0.553,0 0,0"/>
      </g>
      <g transform="translate(1428.973,-803.0629)" id="g400">
        <path inkscape:connector-curvature="0" id="path402" style="fill:#545454;fill-opacity:1;fill-rule:nonzero;stroke:none" d="m 0,0 h -3.521 c -0.553,0 -1,0.447 -1,1 0,0.553 0.447,1 1,1 H 0 C 0.553,2 1,1.553 1,1 1,0.447 0.553,0 0,0"/>
      </g>
      <g transform="translate(1436.4847,-790.2474)" id="g404">
        <path inkscape:connector-curvature="0" id="path406" style="fill:#545454;fill-opacity:1;fill-rule:nonzero;stroke:none" d="m 0,0 c -0.709,0 -1.307,-0.761 -1.307,-1.66 0,-0.914 0.586,-1.658 1.307,-1.658 0.721,0 1.307,0.744 1.307,1.658 C 1.307,-0.745 0.721,0 0,0 m 0,-5.318 c -1.824,0 -3.307,1.64 -3.307,3.658 C -3.307,0.358 -1.824,2 0,2 1.822,2 3.307,0.358 3.307,-1.66 3.307,-3.678 1.822,-5.318 0,-5.318"/>
      </g>
      <g transform="translate(1432.9769,-801.4349)" id="g408">
        <path inkscape:connector-curvature="0" id="path410" style="fill:#545454;fill-opacity:1;fill-rule:nonzero;stroke:none" d="M 0,0 H 7.016 L 7.145,1.93 C 7.166,2.229 6.844,2.81 6.406,2.971 4.551,3.633 2.469,3.637 0.602,2.969 0.172,2.81 -0.152,2.227 -0.133,1.933 Z m 7.949,-2 h -8.883 c -0.525,0 -0.961,0.406 -0.996,0.93 L -2.129,1.795 C -2.213,3.029 -1.295,4.398 -0.084,4.848 2.24,5.68 4.783,5.675 7.088,4.851 8.311,4.401 9.227,3.032 9.141,1.795 L 8.947,-1.067 C 8.912,-1.592 8.477,-2 7.949,-2"/>
      </g>
    </g>
  </g>
</svg>
