<?xml version='1.0' encoding='UTF-8'?>
<!-- Created with Inkscape (http://www.inkscape.org/) and export_objects.py -->
<svg xmlns:cc="http://creativecommons.org/ns#" xmlns:dc="http://purl.org/dc/elements/1.1/" xmlns:inkscape="http://www.inkscape.org/namespaces/inkscape" xmlns:rdf="http://www.w3.org/1999/02/22-rdf-syntax-ns#" xmlns:sodipodi="http://sodipodi.sourceforge.net/DTD/sodipodi-0.dtd" xmlns:xlink="http://www.w3.org/1999/xlink" xmlns="http://www.w3.org/2000/svg" version="1.1" sodipodi:docname="step043.svg" viewBox="0 0 42.934932 34.740451" height="34.740451px" width="42.934932px" xml:space="preserve" id="svg2" inkscape:version="0.92.1 r15371">
  <sodipodi:namedview inkscape:current-layer="g10" inkscape:window-maximized="1" inkscape:window-y="-8" inkscape:window-x="-8" inkscape:cy="-703.13596" inkscape:cx="825.3699" inkscape:zoom="0.42647378" showgrid="false" id="namedview4" inkscape:window-height="1137" inkscape:window-width="1920" inkscape:pageshadow="2" inkscape:pageopacity="0" guidetolerance="10" gridtolerance="10" objecttolerance="10" borderopacity="1" bordercolor="#666666" pagecolor="#ffffff"/>
  <metadata id="metadata8">
    <rdf:RDF>
      <cc:Work rdf:about="">
        <dc:format>image/svg+xml</dc:format>
        <dc:type rdf:resource="http://purl.org/dc/dcmitype/StillImage"/>
        <dc:title/>
      </cc:Work>
    </rdf:RDF>
  </metadata>
  <g inkscape:groupmode="layer" inkscape:label="step" transform="matrix(1.333333,0.000000,0.000000,-1.333333,-857.969110,-1163.618500)">
    <g id="g8587" inkscape:label="043">
      <g transform="translate(645.47685,-878.6312)" id="g1850">
        <path inkscape:connector-curvature="0" id="path1852" style="fill:#545454;fill-opacity:1;fill-rule:nonzero;stroke:none" d="m 0,0 v -17.691 l 9.195,3.471 V 3.472 Z m -1,-20.138 c -0.199,0 -0.398,0.061 -0.568,0.178 -0.27,0.187 -0.432,0.494 -0.432,0.822 V 0.691 c 0,0.416 0.258,0.789 0.646,0.936 L 9.842,5.854 c 0.31,0.114 0.654,0.073 0.922,-0.114 0.271,-0.186 0.431,-0.494 0.431,-0.822 v -19.829 c 0,-0.416 -0.257,-0.789 -0.646,-0.936 L -0.646,-20.073 C -0.762,-20.116 -0.881,-20.138 -1,-20.138"/>
      </g>
      <g transform="translate(656.81085,-892.851)" id="g1854">
        <path inkscape:connector-curvature="0" id="path1856" style="fill:#545454;fill-opacity:1;fill-rule:nonzero;stroke:none" d="M 0,0 9.195,-3.472 V 14.22 L 0,17.691 Z m 10.195,-5.918 c -0.119,0 -0.238,0.022 -0.353,0.064 L -1.354,-1.627 C -1.742,-1.48 -2,-1.107 -2,-0.691 v 19.829 c 0,0.328 0.162,0.635 0.432,0.822 0.269,0.187 0.611,0.228 0.922,0.113 l 11.195,-4.226 c 0.389,-0.147 0.646,-0.52 0.646,-0.936 V -4.918 c 0,-0.328 -0.16,-0.636 -0.431,-0.822 -0.168,-0.117 -0.368,-0.178 -0.569,-0.178"/>
      </g>
      <g transform="translate(675.67805,-897.3783)" id="g1858">
        <path inkscape:connector-curvature="0" id="path1860" style="fill:#545454;fill-opacity:1;fill-rule:nonzero;stroke:none" d="M 0,0 H -2.843 L -5.524,3.59 -6.062,2.927 V 0 h -2.313 v 8.971 h 2.313 V 4.906 l 3.206,4.065 h 2.681 L -3.682,4.82 Z"/>
      </g>
    </g>
  </g>
</svg>
