<?xml version='1.0' encoding='UTF-8'?>
<!-- Created with Inkscape (http://www.inkscape.org/) and export_objects.py -->
<svg xmlns:cc="http://creativecommons.org/ns#" xmlns:dc="http://purl.org/dc/elements/1.1/" xmlns:inkscape="http://www.inkscape.org/namespaces/inkscape" xmlns:rdf="http://www.w3.org/1999/02/22-rdf-syntax-ns#" xmlns:sodipodi="http://sodipodi.sourceforge.net/DTD/sodipodi-0.dtd" xmlns:xlink="http://www.w3.org/1999/xlink" xmlns="http://www.w3.org/2000/svg" version="1.1" sodipodi:docname="step035.svg" viewBox="0 0 29.172266 36.152266" height="36.152266px" width="29.172266px" xml:space="preserve" id="svg2" inkscape:version="0.92.1 r15371">
  <sodipodi:namedview inkscape:current-layer="g10" inkscape:window-maximized="1" inkscape:window-y="-8" inkscape:window-x="-8" inkscape:cy="-703.13596" inkscape:cx="825.3699" inkscape:zoom="0.42647378" showgrid="false" id="namedview4" inkscape:window-height="1137" inkscape:window-width="1920" inkscape:pageshadow="2" inkscape:pageopacity="0" guidetolerance="10" gridtolerance="10" objecttolerance="10" borderopacity="1" bordercolor="#666666" pagecolor="#ffffff"/>
  <metadata id="metadata8">
    <rdf:RDF>
      <cc:Work rdf:about="">
        <dc:format>image/svg+xml</dc:format>
        <dc:type rdf:resource="http://purl.org/dc/dcmitype/StillImage"/>
        <dc:title/>
      </cc:Work>
    </rdf:RDF>
  </metadata>
  <g inkscape:groupmode="layer" inkscape:label="step" transform="matrix(1.333333,0.000000,0.000000,-1.333333,-782.830710,-1164.234900)">
    <g id="g8603" inkscape:label="035">
      <g transform="translate(597.22095,-881.0844)" id="g1410">
        <path inkscape:connector-curvature="0" id="path1412" style="fill:#545454;fill-opacity:1;fill-rule:nonzero;stroke:none" d="m 0,0 h -5.113 c -0.278,0 -0.5,0.224 -0.5,0.5 0,0.276 0.222,0.5 0.5,0.5 H 0 C 0.275,1 0.5,0.776 0.5,0.5 0.5,0.224 0.275,0 0,0"/>
      </g>
      <g transform="translate(600.59405,-883.7162)" id="g1414">
        <path inkscape:connector-curvature="0" id="path1416" style="fill:#545454;fill-opacity:1;fill-rule:nonzero;stroke:none" d="m 0,0 h -8.486 c -0.278,0 -0.5,0.224 -0.5,0.5 0,0.276 0.222,0.5 0.5,0.5 H 0 C 0.277,1 0.5,0.776 0.5,0.5 0.5,0.224 0.277,0 0,0"/>
      </g>
      <g transform="translate(592.99835,-875.1762)" id="g1418">
        <path inkscape:connector-curvature="0" id="path1420" style="fill:#545454;fill-opacity:1;fill-rule:nonzero;stroke:none" d="M 0,0 C -0.07,0 -0.125,-0.056 -0.125,-0.125 -0.125,-0.194 -0.07,-0.25 0,-0.25 h 6.75 c 0.068,0 0.125,0.056 0.125,0.125 C 6.875,-0.056 6.818,0 6.75,0 Z M 6.75,-2.25 H 0 c -1.172,0 -2.125,0.953 -2.125,2.125 C -2.125,1.047 -1.172,2 0,2 H 6.75 C 7.922,2 8.875,1.047 8.875,-0.125 8.875,-1.297 7.922,-2.25 6.75,-2.25"/>
      </g>
      <g transform="translate(602.79325,-888.8744)" id="g1422">
        <path inkscape:connector-curvature="0" id="path1424" style="fill:#545454;fill-opacity:1;fill-rule:nonzero;stroke:none" d="m 0,0 c -2.871,0 -5.207,-2.336 -5.207,-5.208 0,-2.872 2.336,-5.208 5.207,-5.208 2.873,0 5.209,2.336 5.209,5.208 C 5.209,-2.336 2.873,0 0,0 m 0,-11.416 c -3.422,0 -6.207,2.785 -6.207,6.208 C -6.207,-1.785 -3.422,1 0,1 3.424,1 6.209,-1.785 6.209,-5.208 6.209,-8.631 3.424,-11.416 0,-11.416"/>
      </g>
      <g transform="translate(597.59405,-897.4262)" id="g1426">
        <path inkscape:connector-curvature="0" id="path1428" style="fill:#545454;fill-opacity:1;fill-rule:nonzero;stroke:none" d="m 0,0 h -9.471 c -0.552,0 -1,0.447 -1,1 v 21.25 c 0,0.553 0.448,1 1,1 h 16.5 c 0.553,0 1,-0.447 1,-1 V 8.747 h -2 V 21.25 h -14.5 V 2 H 0 Z"/>
      </g>
      <g transform="translate(601.78935,-897.6762)" id="g1430">
        <path inkscape:connector-curvature="0" id="path1432" style="fill:#545454;fill-opacity:1;fill-rule:nonzero;stroke:none" d="m 0,0 c -0.273,0 -0.535,0.111 -0.725,0.311 l -1.64,1.722 c -0.381,0.4 -0.365,1.032 0.035,1.414 0.398,0.379 1.029,0.367 1.414,-0.035 L -0.057,2.509 2.848,6.05 C 3.197,6.477 3.826,6.54 4.254,6.189 4.682,5.839 4.744,5.209 4.395,4.782 L 0.773,0.366 C 0.592,0.145 0.322,0.012 0.037,0.001 0.023,0 0.012,0 0,0"/>
      </g>
      <g transform="translate(599.89095,-896.8197)" id="g1434">
        <path inkscape:connector-curvature="0" id="path1436" style="fill:#545454;fill-opacity:1;fill-rule:nonzero;stroke:none" d="M 0,0 H -3.934 L -7.644,4.967 -8.386,4.05 V 0 h -3.202 v 12.412 h 3.202 V 6.788 l 4.434,5.624 h 3.711 L -5.094,6.669 Z"/>
      </g>
    </g>
  </g>
</svg>
