<?xml version="1.0" encoding="UTF-8" standalone="no"?>
<!-- Created with Inkscape (http://www.inkscape.org/) and export_objects.py -->

<svg
   xmlns:dc="http://purl.org/dc/elements/1.1/"
   xmlns:cc="http://creativecommons.org/ns#"
   xmlns:rdf="http://www.w3.org/1999/02/22-rdf-syntax-ns#"
   xmlns:svg="http://www.w3.org/2000/svg"
   xmlns="http://www.w3.org/2000/svg"
   xmlns:sodipodi="http://sodipodi.sourceforge.net/DTD/sodipodi-0.dtd"
   xmlns:inkscape="http://www.inkscape.org/namespaces/inkscape"
   version="1.1"
   sodipodi:docname="arrows-3.svg"
   viewBox="0 0 12.21873 20.970994"
   height="20.970995"
   width="12.21873"
   xml:space="preserve"
   id="svg2"
   inkscape:version="0.92.0 r15299"><defs
     id="defs15" /><sodipodi:namedview
     inkscape:current-layer="g12"
     inkscape:window-maximized="1"
     inkscape:window-y="-8"
     inkscape:window-x="1912"
     inkscape:cy="12.449204"
     inkscape:cx="6.3136651"
     inkscape:zoom="20.358242"
     showgrid="false"
     id="namedview4"
     inkscape:window-height="837"
     inkscape:window-width="1600"
     inkscape:pageshadow="2"
     inkscape:pageopacity="0"
     guidetolerance="10"
     gridtolerance="10"
     objecttolerance="10"
     borderopacity="1"
     bordercolor="#666666"
     pagecolor="#ffffff"
     fit-margin-top="0"
     fit-margin-left="0"
     fit-margin-right="0"
     fit-margin-bottom="0" /><metadata
     id="metadata8"><rdf:RDF><cc:Work
         rdf:about=""><dc:format>image/svg+xml</dc:format><dc:type
           rdf:resource="http://purl.org/dc/dcmitype/StillImage" /><dc:title></dc:title></cc:Work></rdf:RDF></metadata><g
     inkscape:groupmode="layer"
     inkscape:label="step"
     transform="matrix(1.333333,0,0,-1.333333,-1369.0469,-609.06965)"
     id="g12"><g
       id="g8863"
       inkscape:label="117"><g
         transform="translate(1031.3675,-472.5306)"
         id="g2174"><path
           inkscape:connector-curvature="0"
           id="path2176"
           style="fill:#545454;fill-opacity:1;fill-rule:nonzero;stroke:none"
           d="m 0,0 c -0.209,0 -0.42,0.08 -0.578,0.239 l -3.764,3.76 c -0.32,0.319 -0.32,0.838 0,1.157 0.319,0.321 0.836,0.321 1.156,0.001 L 0,1.976 3.186,5.157 c 0.318,0.32 0.837,0.319 1.156,-0.001 0.32,-0.319 0.32,-0.838 0,-1.157 L 0.578,0.239 C 0.418,0.08 0.209,0 0,0" /></g><g
         transform="translate(1035.1312,-462.2006)"
         id="g2178"><path
           inkscape:connector-curvature="0"
           id="path2180"
           style="fill:#545454;fill-opacity:1;fill-rule:nonzero;stroke:none"
           d="M 0,0 C -0.209,0 -0.42,0.08 -0.58,0.239 L -3.764,3.423 -6.947,0.239 c -0.323,-0.319 -0.84,-0.317 -1.158,0 -0.321,0.321 -0.321,0.838 0,1.158 l 3.761,3.762 c 0.321,0.319 0.838,0.319 1.158,0 L 0.578,1.397 C 0.898,1.078 0.898,0.56 0.578,0.239 0.418,0.08 0.209,0 0,0" /></g><g
         transform="translate(1041.8714,-465.1937)"
         id="g2184" /></g></g></svg>