<?xml version='1.0' encoding='UTF-8'?>
<!-- Created with Inkscape (http://www.inkscape.org/) and export_objects.py -->
<svg xmlns:cc="http://creativecommons.org/ns#" xmlns:dc="http://purl.org/dc/elements/1.1/" xmlns:inkscape="http://www.inkscape.org/namespaces/inkscape" xmlns:rdf="http://www.w3.org/1999/02/22-rdf-syntax-ns#" xmlns:sodipodi="http://sodipodi.sourceforge.net/DTD/sodipodi-0.dtd" xmlns:xlink="http://www.w3.org/1999/xlink" xmlns="http://www.w3.org/2000/svg" version="1.1" sodipodi:docname="step116.svg" viewBox="0 0 31.659199 30.575999" height="30.575999px" width="31.659199px" xml:space="preserve" id="svg2" inkscape:version="0.92.1 r15371">
  <sodipodi:namedview inkscape:current-layer="g10" inkscape:window-maximized="1" inkscape:window-y="-8" inkscape:window-x="1912" inkscape:cy="-862.22917" inkscape:cx="2456.2254" inkscape:zoom="0.3015625" showgrid="false" id="namedview4" inkscape:window-height="1017" inkscape:window-width="1920" inkscape:pageshadow="2" inkscape:pageopacity="0" guidetolerance="10" gridtolerance="10" objecttolerance="10" borderopacity="1" bordercolor="#666666" pagecolor="#ffffff"/>
  <metadata id="metadata8">
    <rdf:RDF>
      <cc:Work rdf:about="">
        <dc:format>image/svg+xml</dc:format>
        <dc:type rdf:resource="http://purl.org/dc/dcmitype/StillImage"/>
        <dc:title/>
      </cc:Work>
    </rdf:RDF>
  </metadata>
  <g inkscape:groupmode="layer" inkscape:label="step" transform="matrix(1.333333,0.000000,0.000000,-1.333333,-1282.357000,-606.734400)">
    <g id="g8854" inkscape:label="116">
      <g transform="translate(973.51205,-462.4203)" id="g2158">
        <path inkscape:connector-curvature="0" id="path2160" style="fill:#545454;fill-opacity:1;fill-rule:nonzero;stroke:none" d="m 0,0 c -0.256,0 -0.512,0.098 -0.707,0.293 l -4.666,4.662 -4.664,-4.662 c -0.391,-0.391 -1.024,-0.391 -1.414,0 -0.391,0.391 -0.391,1.023 0,1.414 l 5.371,5.369 c 0.391,0.391 1.023,0.391 1.414,0 L 0.707,1.707 C 1.098,1.317 1.098,0.684 0.707,0.293 0.512,0.098 0.256,0 0,0"/>
      </g>
      <g transform="translate(968.14095,-477.9828)" id="g2162">
        <path inkscape:connector-curvature="0" id="path2164" style="fill:#545454;fill-opacity:1;fill-rule:nonzero;stroke:none" d="m 0,0 c -0.551,0 -1,0.447 -1,1 l -0.002,19.473 c 0,0.551 0.447,1 1,1 0.553,0 1,-0.448 1,-1 L 1,1 C 1,0.448 0.553,0 0,0"/>
      </g>
      <g transform="translate(979.14095,-477.9828)" id="g2166">
        <path inkscape:connector-curvature="0" id="path2168" style="fill:#545454;fill-opacity:1;fill-rule:nonzero;stroke:none" d="M 0,0 C -0.256,0 -0.512,0.098 -0.707,0.293 L -6.08,5.662 c -0.391,0.39 -0.391,1.024 0,1.414 0.391,0.391 1.023,0.391 1.414,0 L 0,2.414 4.664,7.076 c 0.391,0.391 1.023,0.391 1.414,0 0.391,-0.39 0.391,-1.023 0,-1.414 L 0.707,0.293 C 0.512,0.098 0.256,0 0,0"/>
      </g>
      <g transform="translate(979.14095,-476.5238)" id="g2170">
        <path inkscape:connector-curvature="0" id="path2172" style="fill:#545454;fill-opacity:1;fill-rule:nonzero;stroke:none" d="m 0,0 c -0.551,0 -1,0.447 -1,1 l -0.002,19.473 c 0,0.551 0.447,1 1,1 0.553,0 1,-0.448 1,-1 L 1,1 C 1,0.448 0.553,0 0,0"/>
      </g>
    </g>
  </g>
</svg>
