<?xml version='1.0' encoding='UTF-8'?>
<!-- Created with Inkscape (http://www.inkscape.org/) and export_objects.py -->
<svg xmlns:cc="http://creativecommons.org/ns#" xmlns:dc="http://purl.org/dc/elements/1.1/" xmlns:inkscape="http://www.inkscape.org/namespaces/inkscape" xmlns:rdf="http://www.w3.org/1999/02/22-rdf-syntax-ns#" xmlns:sodipodi="http://sodipodi.sourceforge.net/DTD/sodipodi-0.dtd" xmlns:xlink="http://www.w3.org/1999/xlink" xmlns="http://www.w3.org/2000/svg" version="1.1" sodipodi:docname="step033.svg" viewBox="0 0 24.702866 32.333333" height="32.333333px" width="24.702866px" xml:space="preserve" id="svg2" inkscape:version="0.92.1 r15371">
  <sodipodi:namedview inkscape:current-layer="g10" inkscape:window-maximized="1" inkscape:window-y="-8" inkscape:window-x="-8" inkscape:cy="-703.13596" inkscape:cx="825.3699" inkscape:zoom="0.42647378" showgrid="false" id="namedview4" inkscape:window-height="1137" inkscape:window-width="1920" inkscape:pageshadow="2" inkscape:pageopacity="0" guidetolerance="10" gridtolerance="10" objecttolerance="10" borderopacity="1" bordercolor="#666666" pagecolor="#ffffff"/>
  <metadata id="metadata8">
    <rdf:RDF>
      <cc:Work rdf:about="">
        <dc:format>image/svg+xml</dc:format>
        <dc:type rdf:resource="http://purl.org/dc/dcmitype/StillImage"/>
        <dc:title/>
      </cc:Work>
    </rdf:RDF>
  </metadata>
  <g inkscape:groupmode="layer" inkscape:label="step" transform="matrix(1.333333,0.000000,0.000000,-1.333333,-704.503520,-1242.478400)">
    <g id="g8631" inkscape:label="033">
      <g transform="translate(540.65455,-955.6088)" id="g1362">
        <path inkscape:connector-curvature="0" id="path1364" style="fill:#545454;fill-opacity:1;fill-rule:nonzero;stroke:none" d="m 0,0 c -0.277,0 -0.5,0.224 -0.5,0.5 v 5.224 c 0,0.276 0.223,0.5 0.5,0.5 h 5.223 c 0.277,0 0.5,-0.224 0.5,-0.5 0,-0.277 -0.223,-0.5 -0.5,-0.5 H 0.5 V 0.5 C 0.5,0.224 0.275,0 0,0"/>
      </g>
      <g transform="translate(540.65455,-956.1088)" id="g1366">
        <path inkscape:connector-curvature="0" id="path1368" style="fill:#545454;fill-opacity:1;fill-rule:nonzero;stroke:none" d="m 0,0 c -0.256,0 -0.512,0.098 -0.707,0.293 -0.391,0.391 -0.391,1.023 0,1.414 l 5.223,5.224 c 0.39,0.39 1.023,0.39 1.414,0 0.39,-0.391 0.39,-1.024 0,-1.414 L 0.707,0.293 C 0.512,0.098 0.256,0 0,0"/>
      </g>
      <g transform="translate(543.15455,-956.1088)" id="g1370">
        <path inkscape:connector-curvature="0" id="path1372" style="fill:#545454;fill-opacity:1;fill-rule:nonzero;stroke:none" d="m 0,0 c -0.256,0 -0.512,0.098 -0.707,0.293 -0.391,0.391 -0.391,1.023 0,1.414 l 2.75,2.75 c 0.391,0.391 1.023,0.391 1.414,0 0.391,-0.391 0.391,-1.023 0,-1.414 L 0.707,0.293 C 0.512,0.098 0.256,0 0,0"/>
      </g>
      <g transform="translate(538.24055,-940.0394)" id="g1374">
        <path inkscape:connector-curvature="0" id="path1376" style="fill:#545454;fill-opacity:1;fill-rule:nonzero;stroke:none" d="m 0,0 h -5.113 c -0.276,0 -0.5,0.224 -0.5,0.5 0,0.276 0.224,0.5 0.5,0.5 H 0 C 0.277,1 0.5,0.776 0.5,0.5 0.5,0.224 0.277,0 0,0"/>
      </g>
      <g transform="translate(541.61555,-942.6713)" id="g1378">
        <path inkscape:connector-curvature="0" id="path1380" style="fill:#545454;fill-opacity:1;fill-rule:nonzero;stroke:none" d="m 0,0 h -8.488 c -0.276,0 -0.5,0.224 -0.5,0.5 0,0.276 0.224,0.5 0.5,0.5 H 0 C 0.275,1 0.5,0.776 0.5,0.5 0.5,0.224 0.275,0 0,0"/>
      </g>
      <path inkscape:connector-curvature="0" id="path1382" style="fill:#545454;fill-opacity:1;fill-rule:nonzero;stroke:none" d="m 530.37765,-954.1083 h 14.5 v 19.25 h -14.5 z m 15.5,-2 h -16.5 c -0.553,0 -1,0.447 -1,1 v 21.25 c 0,0.552 0.447,1 1,1 h 16.5 c 0.552,0 1,-0.448 1,-1 v -21.25 c 0,-0.553 -0.448,-1 -1,-1"/>
      <g transform="translate(534.25225,-933.8588)" id="g1384">
        <path inkscape:connector-curvature="0" id="path1386" style="fill:#545454;fill-opacity:1;fill-rule:nonzero;stroke:none" d="m 0,0 c -0.068,0 -0.125,-0.056 -0.125,-0.125 0,-0.069 0.057,-0.125 0.125,-0.125 h 6.75 c 0.07,0 0.125,0.056 0.125,0.125 C 6.875,-0.056 6.82,0 6.75,0 Z M 6.75,-2.25 H 0 c -1.172,0 -2.125,0.953 -2.125,2.125 C -2.125,1.047 -1.172,2 0,2 H 6.75 C 7.922,2 8.875,1.047 8.875,-0.125 8.875,-1.297 7.922,-2.25 6.75,-2.25"/>
      </g>
      <g transform="translate(540.96025,-955.8588)" id="g1388">
        <path inkscape:connector-curvature="0" id="path1390" style="fill:#545454;fill-opacity:1;fill-rule:nonzero;stroke:none" d="M 0,0 H -3.641 L -7.075,4.599 -7.763,3.749 V 0 h -2.964 v 11.489 h 2.964 V 6.284 l 4.105,5.205 h 3.434 L -4.715,6.173 Z"/>
      </g>
    </g>
  </g>
</svg>
