<?xml version='1.0' encoding='UTF-8'?>
<!-- Created with Inkscape (http://www.inkscape.org/) and export_objects.py -->
<svg xmlns:cc="http://creativecommons.org/ns#" xmlns:dc="http://purl.org/dc/elements/1.1/" xmlns:inkscape="http://www.inkscape.org/namespaces/inkscape" xmlns:rdf="http://www.w3.org/1999/02/22-rdf-syntax-ns#" xmlns:sodipodi="http://sodipodi.sourceforge.net/DTD/sodipodi-0.dtd" xmlns:xlink="http://www.w3.org/1999/xlink" xmlns="http://www.w3.org/2000/svg" version="1.1" sodipodi:docname="step044.svg" viewBox="0 0 42.473999 34.740451" height="34.740451px" width="42.473999px" xml:space="preserve" id="svg2" inkscape:version="0.92.1 r15371">
  <sodipodi:namedview inkscape:current-layer="g10" inkscape:window-maximized="1" inkscape:window-y="-8" inkscape:window-x="-8" inkscape:cy="-703.13596" inkscape:cx="825.3699" inkscape:zoom="0.42647378" showgrid="false" id="namedview4" inkscape:window-height="1137" inkscape:window-width="1920" inkscape:pageshadow="2" inkscape:pageopacity="0" guidetolerance="10" gridtolerance="10" objecttolerance="10" borderopacity="1" bordercolor="#666666" pagecolor="#ffffff"/>
  <metadata id="metadata8">
    <rdf:RDF>
      <cc:Work rdf:about="">
        <dc:format>image/svg+xml</dc:format>
        <dc:type rdf:resource="http://purl.org/dc/dcmitype/StillImage"/>
        <dc:title/>
      </cc:Work>
    </rdf:RDF>
  </metadata>
  <g inkscape:groupmode="layer" inkscape:label="step" transform="matrix(1.333333,0.000000,0.000000,-1.333333,-858.430050,-1240.951800)">
    <g id="g8666" inkscape:label="044">
      <g transform="translate(645.82255,-936.6312)" id="g1862">
        <path inkscape:connector-curvature="0" id="path1864" style="fill:#545454;fill-opacity:1;fill-rule:nonzero;stroke:none" d="m 0,0 v -17.691 l 9.195,3.471 V 3.472 Z m -1,-20.138 c -0.201,0 -0.4,0.061 -0.568,0.178 C -1.84,-19.773 -2,-19.466 -2,-19.138 V 0.691 c 0,0.416 0.258,0.789 0.646,0.936 L 9.842,5.854 c 0.308,0.114 0.652,0.073 0.922,-0.114 0.269,-0.186 0.431,-0.494 0.431,-0.822 v -19.829 c 0,-0.416 -0.257,-0.789 -0.646,-0.936 L -0.646,-20.073 C -0.762,-20.116 -0.881,-20.138 -1,-20.138"/>
      </g>
      <g transform="translate(647.13505,-940.7601)" id="g1866">
        <path inkscape:connector-curvature="0" id="path1868" style="fill:#545454;fill-opacity:1;fill-rule:nonzero;stroke:none" d="m 0,0 c -0.203,0 -0.393,0.123 -0.469,0.323 -0.097,0.259 0.033,0.547 0.291,0.645 L 6.506,3.491 C 6.768,3.586 7.055,3.459 7.15,3.2 7.248,2.941 7.117,2.653 6.859,2.556 L 0.176,0.032 C 0.117,0.011 0.059,0 0,0"/>
      </g>
      <g transform="translate(647.13505,-947.1986)" id="g1870">
        <path inkscape:connector-curvature="0" id="path1872" style="fill:#545454;fill-opacity:1;fill-rule:nonzero;stroke:none" d="m 0,0 c -0.203,0 -0.393,0.123 -0.469,0.323 -0.097,0.259 0.033,0.547 0.291,0.645 L 6.504,3.491 C 6.768,3.587 7.053,3.459 7.148,3.2 7.246,2.941 7.115,2.653 6.857,2.556 L 0.176,0.032 C 0.117,0.011 0.059,0 0,0"/>
      </g>
      <g transform="translate(647.13505,-950.4183)" id="g1874">
        <path inkscape:connector-curvature="0" id="path1876" style="fill:#545454;fill-opacity:1;fill-rule:nonzero;stroke:none" d="m 0,0 c -0.203,0 -0.393,0.123 -0.469,0.323 -0.097,0.259 0.033,0.547 0.291,0.645 L 6.506,3.491 C 6.768,3.586 7.055,3.458 7.15,3.2 7.248,2.941 7.117,2.653 6.859,2.556 L 0.176,0.032 C 0.117,0.011 0.059,0 0,0"/>
      </g>
      <g transform="translate(647.13505,-943.9799)" id="g1878">
        <path inkscape:connector-curvature="0" id="path1880" style="fill:#545454;fill-opacity:1;fill-rule:nonzero;stroke:none" d="m 0,0 c -0.203,0 -0.393,0.123 -0.469,0.323 -0.097,0.259 0.033,0.547 0.291,0.645 L 6.504,3.491 C 6.768,3.586 7.053,3.459 7.148,3.2 7.246,2.941 7.115,2.653 6.857,2.556 L 0.176,0.032 C 0.117,0.011 0.059,0 0,0"/>
      </g>
      <g transform="translate(663.09985,-954.7162)" id="g1882">
        <path inkscape:connector-curvature="0" id="path1884" style="fill:#545454;fill-opacity:1;fill-rule:nonzero;stroke:none" d="m 0,0 c -0.277,0 -0.5,0.224 -0.5,0.5 v 5.796 c 0,0.164 0.08,0.318 0.215,0.411 0.137,0.094 0.306,0.114 0.461,0.057 L 4.287,5.211 C 4.545,5.113 4.676,4.825 4.578,4.566 4.482,4.309 4.195,4.18 3.934,4.275 L 0.5,5.572 V 0.5 C 0.5,0.224 0.275,0 0,0"/>
      </g>
      <g transform="translate(657.01785,-950.851)" id="g1886">
        <path inkscape:connector-curvature="0" id="path1888" style="fill:#545454;fill-opacity:1;fill-rule:nonzero;stroke:none" d="M 0,0 5.82,-2.197 9.193,1.283 9.191,14.22 0,17.691 Z m 6.082,-4.365 c -0.119,0 -0.238,0.021 -0.353,0.064 l -7.083,2.674 C -1.742,-1.48 -2,-1.107 -2,-0.691 v 19.829 c 0,0.328 0.16,0.635 0.432,0.822 0.269,0.187 0.615,0.228 0.922,0.113 l 11.191,-4.226 c 0.389,-0.148 0.646,-0.52 0.646,-0.936 L 11.193,0.878 c 0,-0.26 -0.101,-0.51 -0.283,-0.696 L 6.799,-4.062 C 6.607,-4.259 6.348,-4.365 6.082,-4.365"/>
      </g>
      <g transform="translate(665.12525,-940.8471)" id="g1890">
        <path inkscape:connector-curvature="0" id="path1892" style="fill:#545454;fill-opacity:1;fill-rule:nonzero;stroke:none" d="m 0,0 c -0.059,0 -0.119,0.011 -0.178,0.032 l -6.681,2.525 c -0.258,0.097 -0.389,0.385 -0.291,0.644 0.097,0.259 0.384,0.388 0.644,0.291 L 0.176,0.968 C 0.434,0.87 0.564,0.582 0.467,0.323 0.393,0.123 0.201,0 0,0"/>
      </g>
      <g transform="translate(665.12525,-947.2846)" id="g1894">
        <path inkscape:connector-curvature="0" id="path1896" style="fill:#545454;fill-opacity:1;fill-rule:nonzero;stroke:none" d="M 0,0 C -0.059,0 -0.119,0.011 -0.178,0.032 L -6.859,2.556 C -7.117,2.653 -7.248,2.941 -7.15,3.2 c 0.097,0.259 0.384,0.388 0.644,0.291 L 0.176,0.968 C 0.434,0.87 0.564,0.582 0.467,0.323 0.393,0.123 0.201,0 0,0"/>
      </g>
      <g transform="translate(665.12525,-944.0658)" id="g1898">
        <path inkscape:connector-curvature="0" id="path1900" style="fill:#545454;fill-opacity:1;fill-rule:nonzero;stroke:none" d="M 0,0 C -0.059,0 -0.119,0.011 -0.178,0.032 L -6.859,2.556 C -7.117,2.653 -7.248,2.941 -7.15,3.2 c 0.097,0.258 0.384,0.388 0.644,0.291 L 0.176,0.968 C 0.434,0.87 0.564,0.582 0.467,0.323 0.393,0.123 0.201,0 0,0"/>
      </g>
      <g transform="translate(675.67805,-954.3783)" id="g1902">
        <path inkscape:connector-curvature="0" id="path1904" style="fill:#545454;fill-opacity:1;fill-rule:nonzero;stroke:none" d="M 0,0 H -2.843 L -5.524,3.59 -6.062,2.927 V 0 h -2.313 v 8.971 h 2.313 V 4.906 l 3.206,4.065 h 2.681 L -3.682,4.82 Z"/>
      </g>
    </g>
  </g>
</svg>
