<?xml version="1.0" encoding="UTF-8" standalone="no"?>
<!-- Created with Inkscape (http://www.inkscape.org/) -->

<svg
   xmlns:dc="http://purl.org/dc/elements/1.1/"
   xmlns:cc="http://creativecommons.org/ns#"
   xmlns:rdf="http://www.w3.org/1999/02/22-rdf-syntax-ns#"
   xmlns:svg="http://www.w3.org/2000/svg"
   xmlns="http://www.w3.org/2000/svg"
   xmlns:sodipodi="http://sodipodi.sourceforge.net/DTD/sodipodi-0.dtd"
   xmlns:inkscape="http://www.inkscape.org/namespaces/inkscape"
   width="24.120869"
   height="32"
   viewBox="0 0 6.3819801 8.4666661"
   version="1.1"
   id="svg6510"
   inkscape:version="0.92.0 r15299"
   sodipodi:docname="book-2.svg">
  <defs
     id="defs6504" />
  <sodipodi:namedview
     id="base"
     pagecolor="#ffffff"
     bordercolor="#666666"
     borderopacity="1.0"
     inkscape:pageopacity="0.0"
     inkscape:pageshadow="2"
     inkscape:zoom="11.2"
     inkscape:cx="9.9397487"
     inkscape:cy="14.28475"
     inkscape:document-units="mm"
     inkscape:current-layer="layer1"
     showgrid="false"
     fit-margin-top="0"
     fit-margin-left="0"
     fit-margin-right="0"
     fit-margin-bottom="0"
     units="px"
     inkscape:window-width="1600"
     inkscape:window-height="837"
     inkscape:window-x="1912"
     inkscape:window-y="138"
     inkscape:window-maximized="1" />
  <metadata
     id="metadata6507">
    <rdf:RDF>
      <cc:Work
         rdf:about="">
        <dc:format>image/svg+xml</dc:format>
        <dc:type
           rdf:resource="http://purl.org/dc/dcmitype/StillImage" />
        <dc:title></dc:title>
      </cc:Work>
    </rdf:RDF>
  </metadata>
  <g
     inkscape:label="Layer 1"
     inkscape:groupmode="layer"
     id="layer1"
     transform="translate(-165.98283,-74.185359)">
    <g
       id="g8301">
      <path
         d="m 171.5785,82.652026 h -4.81005 c -0.4332,0 -0.7856,-0.352728 -0.7856,-0.786003 v -6.454042 c 0,-0.190745 0.15422,-0.344972 0.34497,-0.344972 0.19066,0 0.34497,0.154227 0.34497,0.344972 v 6.454042 c 0,0.05389 0.0424,0.09606 0.0957,0.09606 h 4.81005 c 0.0532,0 0.0964,-0.04314 0.0964,-0.09606 v -2.034768 c 0,-0.190663 0.15431,-0.344971 0.34489,-0.344971 0.19075,0 0.34497,0.154308 0.34497,0.344971 v 2.034768 c 0,0.433275 -0.35232,0.786003 -0.78624,0.786003"
         style="fill:#545454;fill-opacity:1;fill-rule:nonzero;stroke:none;stroke-width:0.08078965"
         id="path622"
         inkscape:connector-curvature="0" />
      <path
         d="m 172.0198,81.124915 c -0.19066,0 -0.34497,-0.154308 -0.34497,-0.344972 v -4.365388 c 0,-0.05284 -0.0431,-0.09598 -0.0963,-0.09598 -0.19067,0 -0.34497,-0.154308 -0.34497,-0.344972 0,-0.190744 0.1543,-0.344971 0.34497,-0.344971 0.43384,0 0.78624,0.352646 0.78624,0.785921 v 4.365388 c 0,0.190664 -0.15423,0.344972 -0.34497,0.344972"
         style="fill:#545454;fill-opacity:1;fill-rule:nonzero;stroke:none;stroke-width:0.08078965"
         id="path626"
         inkscape:connector-curvature="0" />
      <path
         d="m 171.51183,76.318206 h -4.46306 c -0.58759,0 -1.06594,-0.478356 -1.06594,-1.066262 0,-0.588229 0.47835,-1.066585 1.06594,-1.066585 h 4.97107 c 0.19066,0 0.34497,0.154308 0.34497,0.344972 0,0.190664 -0.15431,0.344972 -0.34497,0.344972 h -4.97107 c -0.2069,0 -0.376,0.169093 -0.376,0.376641 0,0.207549 0.1691,0.376318 0.376,0.376318 h 4.46306 c 0.19066,0 0.34497,0.154309 0.34497,0.344972 0,0.190664 -0.15431,0.344972 -0.34497,0.344972"
         style="fill:#545454;fill-opacity:1;fill-rule:nonzero;stroke:none;stroke-width:0.08078965"
         id="path630"
         inkscape:connector-curvature="0" />
      <path
         d="m 169.69059,77.588947 h -2.11297 c -0.095,0 -0.17249,-0.07715 -0.17249,-0.172486 0,-0.09533 0.0775,-0.172486 0.17249,-0.172486 h 2.11297 c 0.0957,0 0.17249,0.07715 0.17249,0.172486 0,0.09533 -0.0768,0.172486 -0.17249,0.172486"
         style="fill:#545454;fill-opacity:1;fill-rule:nonzero;stroke:none;stroke-width:0.08078965"
         id="path634"
         inkscape:connector-curvature="0" />
      <path
         d="m 169.69059,78.537594 h -2.11297 c -0.095,0 -0.17249,-0.07715 -0.17249,-0.172486 0,-0.09533 0.0775,-0.172486 0.17249,-0.172486 h 2.11297 c 0.0957,0 0.17249,0.07715 0.17249,0.172486 0,0.09533 -0.0768,0.172486 -0.17249,0.172486"
         style="fill:#545454;fill-opacity:1;fill-rule:nonzero;stroke:none;stroke-width:0.08078965"
         id="path638"
         inkscape:connector-curvature="0" />
    </g>
  </g>
</svg>
