<?xml version='1.0' encoding='UTF-8'?>
<!-- Created with Inkscape (http://www.inkscape.org/) and export_objects.py -->
<svg xmlns:cc="http://creativecommons.org/ns#" xmlns:dc="http://purl.org/dc/elements/1.1/" xmlns:inkscape="http://www.inkscape.org/namespaces/inkscape" xmlns:rdf="http://www.w3.org/1999/02/22-rdf-syntax-ns#" xmlns:sodipodi="http://sodipodi.sourceforge.net/DTD/sodipodi-0.dtd" xmlns:xlink="http://www.w3.org/1999/xlink" xmlns="http://www.w3.org/2000/svg" version="1.1" sodipodi:docname="step103.svg" viewBox="0 0 24.667466 32.724533" height="32.724533px" width="24.667466px" xml:space="preserve" id="svg2" inkscape:version="0.92.1 r15371">
  <sodipodi:namedview inkscape:current-layer="g10" inkscape:window-maximized="1" inkscape:window-y="-8" inkscape:window-x="1912" inkscape:cy="-862.22917" inkscape:cx="2456.2254" inkscape:zoom="0.3015625" showgrid="false" id="namedview4" inkscape:window-height="1017" inkscape:window-width="1920" inkscape:pageshadow="2" inkscape:pageopacity="0" guidetolerance="10" gridtolerance="10" objecttolerance="10" borderopacity="1" bordercolor="#666666" pagecolor="#ffffff"/>
  <metadata id="metadata8">
    <rdf:RDF>
      <cc:Work rdf:about="">
        <dc:format>image/svg+xml</dc:format>
        <dc:type rdf:resource="http://purl.org/dc/dcmitype/StillImage"/>
        <dc:title/>
      </cc:Work>
    </rdf:RDF>
  </metadata>
  <g inkscape:groupmode="layer" inkscape:label="step" transform="matrix(1.333333,0.000000,0.000000,-1.333333,-1905.138100,-1351.292900)">
    <g id="g9045" inkscape:label="103">
      <g transform="translate(1445.0746,-1038.0131)" id="g1690">
        <path inkscape:connector-curvature="0" id="path1692" style="fill:#545454;fill-opacity:1;fill-rule:nonzero;stroke:none" d="m 0,0 h -13.943 c -1.256,0 -2.278,1.022 -2.278,2.278 v 18.709 c 0,0.553 0.448,1 1,1 0.553,0 1,-0.447 1,-1 V 2.278 C -14.221,2.122 -14.1,2 -13.943,2 H 0 c 0.154,0 0.279,0.125 0.279,0.278 v 15.803 c 0,0.153 -0.125,0.278 -0.279,0.278 -0.553,0 -1,0.448 -1,1 0,0.553 0.447,1 1,1 1.256,0 2.279,-1.022 2.279,-2.278 V 2.278 C 2.279,1.022 1.256,0 0,0"/>
      </g>
      <g transform="translate(1444.8812,-1019.6527)" id="g1694">
        <path inkscape:connector-curvature="0" id="path1696" style="fill:#545454;fill-opacity:1;fill-rule:nonzero;stroke:none" d="m 0,0 h -12.938 c -1.705,0 -3.089,1.387 -3.089,3.091 0,1.705 1.384,3.092 3.089,3.092 H 1.473 c 0.552,0 1,-0.448 1,-1 0,-0.553 -0.448,-1 -1,-1 h -14.411 c -0.601,0 -1.089,-0.491 -1.089,-1.092 0,-0.602 0.488,-1.091 1.089,-1.091 L 0,2 C 0.553,2 1,1.553 1,1 1,0.447 0.553,0 0,0"/>
      </g>
      <g transform="translate(1438.057,-1030.4613)" id="g1698">
        <path inkscape:connector-curvature="0" id="path1700" style="fill:#545454;fill-opacity:1;fill-rule:nonzero;stroke:none" d="M 0,0 C -0.137,0 -0.273,0.028 -0.402,0.084 L -2.199,0.873 -3.998,0.084 C -4.305,-0.051 -4.662,-0.023 -4.945,0.163 -5.229,0.348 -5.398,0.662 -5.398,1 v 9.833 c 0,0.553 0.447,1 1,1 0.552,0 1,-0.447 1,-1 V 2.53 l 0.796,0.351 c 0.256,0.111 0.547,0.111 0.803,0 L -1,2.53 v 8.303 c 0,0.553 0.447,1 1,1 0.553,0 1,-0.447 1,-1 V 1 C 1,0.662 0.83,0.348 0.547,0.163 0.381,0.055 0.191,0 0,0"/>
      </g>
    </g>
  </g>
</svg>
