<?xml version='1.0' encoding='UTF-8'?>
<!-- Created with Inkscape (http://www.inkscape.org/) and export_objects.py -->
<svg xmlns:cc="http://creativecommons.org/ns#" xmlns:dc="http://purl.org/dc/elements/1.1/" xmlns:inkscape="http://www.inkscape.org/namespaces/inkscape" xmlns:rdf="http://www.w3.org/1999/02/22-rdf-syntax-ns#" xmlns:sodipodi="http://sodipodi.sourceforge.net/DTD/sodipodi-0.dtd" xmlns:xlink="http://www.w3.org/1999/xlink" xmlns="http://www.w3.org/2000/svg" version="1.1" sodipodi:docname="step102.svg" viewBox="0 0 32.579866 30.923466" height="30.923466px" width="32.579866px" xml:space="preserve" id="svg2" inkscape:version="0.92.1 r15371">
  <sodipodi:namedview inkscape:current-layer="g10" inkscape:window-maximized="1" inkscape:window-y="-8" inkscape:window-x="1912" inkscape:cy="-862.22917" inkscape:cx="2456.2254" inkscape:zoom="0.3015625" showgrid="false" id="namedview4" inkscape:window-height="1017" inkscape:window-width="1920" inkscape:pageshadow="2" inkscape:pageopacity="0" guidetolerance="10" gridtolerance="10" objecttolerance="10" borderopacity="1" bordercolor="#666666" pagecolor="#ffffff"/>
  <metadata id="metadata8">
    <rdf:RDF>
      <cc:Work rdf:about="">
        <dc:format>image/svg+xml</dc:format>
        <dc:type rdf:resource="http://purl.org/dc/dcmitype/StillImage"/>
        <dc:title/>
      </cc:Work>
    </rdf:RDF>
  </metadata>
  <g inkscape:groupmode="layer" inkscape:label="step" transform="matrix(1.333333,0.000000,0.000000,-1.333333,-1981.792600,-1353.526200)">
    <g id="g9065" inkscape:label="102">
      <g transform="translate(1498.6019,-1018.9447)" id="g1626">
        <path inkscape:connector-curvature="0" id="path1628" style="fill:#545454;fill-opacity:1;fill-rule:nonzero;stroke:none" d="m 0,0 c -0.553,0 -1,0.447 -1,1 0,1.544 1.256,2.8 2.801,2.8 h 6.648 c 0.553,0 1,-0.447 1,-1 0,-0.553 -0.447,-1 -1,-1 H 1.801 C 1.359,1.8 1,1.441 1,1 1,0.447 0.553,0 0,0"/>
      </g>
      <g transform="translate(1498.6019,-1037.4017)" id="g1630">
        <path inkscape:connector-curvature="0" id="path1632" style="fill:#545454;fill-opacity:1;fill-rule:nonzero;stroke:none" d="m 0,0 c -0.553,0 -1,0.447 -1,1 0,1.544 1.256,2.8 2.801,2.8 h 6.648 c 0.553,0 1,-0.447 1,-1 0,-0.553 -0.447,-1 -1,-1 H 1.801 C 1.359,1.8 1,1.441 1,1 1,0.447 0.553,0 0,0"/>
      </g>
      <g transform="translate(1498.6175,-1018.9447)" id="g1634">
        <path inkscape:connector-curvature="0" id="path1636" style="fill:#545454;fill-opacity:1;fill-rule:nonzero;stroke:none" d="m 0,0 c -0.553,0 -1,0.447 -1,1 0,0.441 -0.359,0.8 -0.799,0.8 h -6.652 c -0.553,0 -1,0.447 -1,1 0,0.553 0.447,1 1,1 h 6.652 C -0.256,3.8 1,2.544 1,1 1,0.447 0.553,0 0,0"/>
      </g>
      <g transform="translate(1498.6175,-1037.4017)" id="g1638">
        <path inkscape:connector-curvature="0" id="path1640" style="fill:#545454;fill-opacity:1;fill-rule:nonzero;stroke:none" d="m 0,0 c -0.553,0 -1,0.447 -1,1 0,0.441 -0.359,0.8 -0.799,0.8 h -6.652 c -0.553,0 -1,0.447 -1,1 0,0.553 0.447,1 1,1 h 6.652 C -0.256,3.8 1,2.544 1,1 1,0.447 0.553,0 0,0"/>
      </g>
      <g transform="translate(1490.0707,-1035.6019)" id="g1642">
        <path inkscape:connector-curvature="0" id="path1644" style="fill:#545454;fill-opacity:1;fill-rule:nonzero;stroke:none" d="m 0,0 c -0.553,0 -1,0.447 -1,1 v 18.421 c 0,0.553 0.447,1 1,1 0.553,0 1,-0.447 1,-1 V 1 C 1,0.447 0.553,0 0,0"/>
      </g>
      <g transform="translate(1507.0511,-1035.6019)" id="g1646">
        <path inkscape:connector-curvature="0" id="path1648" style="fill:#545454;fill-opacity:1;fill-rule:nonzero;stroke:none" d="m 0,0 c -0.553,0 -1,0.447 -1,1 v 18.421 c 0,0.553 0.447,1 1,1 0.553,0 1,-0.447 1,-1 V 1 C 1,0.447 0.553,0 0,0"/>
      </g>
      <g transform="translate(1498.6019,-1037.0638)" id="g1650">
        <path inkscape:connector-curvature="0" id="path1652" style="fill:#545454;fill-opacity:1;fill-rule:nonzero;stroke:none" d="m 0,0 c -0.553,0 -1,0.447 -1,1 v 18.421 c 0,0.553 0.447,1 1,1 0.553,0 1,-0.447 1,-1 V 1 C 1,0.447 0.553,0 0,0"/>
      </g>
      <g transform="translate(1509.5414,-1038.3373)" id="g1654">
        <path inkscape:connector-curvature="0" id="path1656" style="fill:#545454;fill-opacity:1;fill-rule:nonzero;stroke:none" d="m 0,0 h -19.162 c -0.553,0 -1,0.447 -1,1 0,0.553 0.447,1 1,1 h 18.4 v 19.19 c 0,0.553 0.448,1 1,1 0.553,0 1,-0.447 1,-1 V 1.236 C 1.238,0.555 0.684,0 0,0"/>
      </g>
      <g transform="translate(1506.7425,-1038.3373)" id="g1658">
        <path inkscape:connector-curvature="0" id="path1660" style="fill:#545454;fill-opacity:1;fill-rule:nonzero;stroke:none" d="m 0,0 h -19.162 c -0.682,0 -1.236,0.555 -1.236,1.236 V 21.19 c 0,0.553 0.447,1 1,1 0.552,0 1,-0.447 1,-1 V 2 H 0 C 0.553,2 1,1.553 1,1 1,0.447 0.553,0 0,0"/>
      </g>
    </g>
  </g>
</svg>
