<?xml version='1.0' encoding='UTF-8'?>
<!-- Created with Inkscape (http://www.inkscape.org/) and export_objects.py -->
<svg xmlns:cc="http://creativecommons.org/ns#" xmlns:dc="http://purl.org/dc/elements/1.1/" xmlns:inkscape="http://www.inkscape.org/namespaces/inkscape" xmlns:rdf="http://www.w3.org/1999/02/22-rdf-syntax-ns#" xmlns:sodipodi="http://sodipodi.sourceforge.net/DTD/sodipodi-0.dtd" xmlns:xlink="http://www.w3.org/1999/xlink" xmlns="http://www.w3.org/2000/svg" version="1.1" id="svg2" xml:space="preserve" width="24.247001px" height="24.246999px" viewBox="0 0 24.247001 24.246999" sodipodi:docname="step120.svg" inkscape:version="0.92.1 r15371">
  <sodipodi:namedview pagecolor="#ffffff" bordercolor="#666666" borderopacity="1" objecttolerance="10" gridtolerance="10" guidetolerance="10" inkscape:pageopacity="0" inkscape:pageshadow="2" inkscape:window-width="1920" inkscape:window-height="1017" id="namedview4" showgrid="false" showguides="true" inkscape:zoom="1.3537284" inkscape:cx="2.6077055" inkscape:cy="918.20129" inkscape:window-x="1912" inkscape:window-y="-8" inkscape:window-maximized="1" inkscape:current-layer="g10"/>
  <metadata id="metadata8">
    <rdf:RDF>
      <cc:Work rdf:about="">
        <dc:format>image/svg+xml</dc:format>
        <dc:type rdf:resource="http://purl.org/dc/dcmitype/StillImage"/>
        <dc:title/>
      </cc:Work>
    </rdf:RDF>
  </metadata>
  <g inkscape:groupmode="layer" inkscape:label="step" transform="matrix(1.333333,0.000000,0.000000,-1.333333,275.402540,1098.611510)">
    <g id="g4907" transform="translate(-341.61051)" inkscape:label="120">
      <g id="g4869" transform="matrix(0.72458125,0,0,0.99998628,144.1505,818.85672)">
        <path d="m 0,0 c -0.599,0 -1.083,0.351 -1.083,0.785 v 3.532 c 0,0.434 0.484,0.785 1.083,0.785 0.599,0 1.083,-0.351 1.083,-0.785 V 0.785 C 1.083,0.351 0.599,0 0,0" style="fill:#545454;fill-opacity:1;fill-rule:nonzero;stroke:none" id="path4867" inkscape:connector-curvature="0"/>
      </g>
      <g id="g4873" transform="matrix(0.72458125,0,0,0.99998628,144.1505,805.7734)">
        <path d="m 0,0 c -0.599,0 -1.083,0.351 -1.083,0.785 v 3.532 c 0,0.434 0.484,0.785 1.083,0.785 0.599,0 1.083,-0.351 1.083,-0.785 V 0.785 C 1.083,0.351 0.599,0 0,0" style="fill:#545454;fill-opacity:1;fill-rule:nonzero;stroke:none" id="path4871" inkscape:connector-curvature="0"/>
      </g>
      <g id="g4877" transform="matrix(0.72458125,0,0,0.99998628,152.45913,814.08139)">
        <path d="m 0,0 h -4.876 c -0.599,0 -1.083,0.351 -1.083,0.785 0,0.434 0.484,0.785 1.083,0.785 H 0 C 0.599,1.57 1.083,1.219 1.083,0.785 1.083,0.351 0.599,0 0,0" style="fill:#545454;fill-opacity:1;fill-rule:nonzero;stroke:none" id="path4875" inkscape:connector-curvature="0"/>
      </g>
      <g id="g4881" transform="matrix(0.72458125,0,0,0.99998628,139.37638,814.08139)">
        <path d="m 0,0 h -4.876 c -0.599,0 -1.083,0.351 -1.083,0.785 0,0.434 0.484,0.785 1.083,0.785 H 0 C 0.599,1.57 1.083,1.219 1.083,0.785 1.083,0.351 0.599,0 0,0" style="fill:#545454;fill-opacity:1;fill-rule:nonzero;stroke:none" id="path4879" inkscape:connector-curvature="0"/>
      </g>
      <g id="g4885" transform="matrix(0.72458125,0,0,0.99998628,147.52792,817.45734)">
        <path d="m 0,0 c -0.277,0 -0.554,0.077 -0.766,0.23 -0.422,0.306 -0.422,0.803 0,1.11 l 3.448,2.499 c 0.422,0.307 1.108,0.307 1.531,0 0.424,-0.306 0.424,-0.804 0,-1.11 L 0.767,0.23 C 0.555,0.077 0.277,0 0,0" style="fill:#545454;fill-opacity:1;fill-rule:nonzero;stroke:none" id="path4883" inkscape:connector-curvature="0"/>
      </g>
      <g id="g4889" transform="matrix(0.72458125,0,0,0.99998628,138.27676,808.20647)">
        <path d="m 0,0 c -0.277,0 -0.555,0.077 -0.766,0.23 -0.423,0.307 -0.423,0.803 0,1.11 l 3.447,2.497 c 0.423,0.307 1.109,0.307 1.532,0 0.423,-0.306 0.423,-0.803 0,-1.109 L 0.766,0.23 C 0.555,0.077 0.277,0 0,0" style="fill:#545454;fill-opacity:1;fill-rule:nonzero;stroke:none" id="path4887" inkscape:connector-curvature="0"/>
      </g>
      <g id="g4893" transform="matrix(0.72458125,0,0,0.99998628,150.0257,808.20797)">
        <path d="m 0,0 c -0.277,0 -0.555,0.077 -0.766,0.23 l -3.447,2.498 c -0.423,0.306 -0.423,0.803 0,1.109 0.423,0.307 1.109,0.307 1.532,0 L 0.766,1.34 C 1.189,1.034 1.189,0.537 0.766,0.23 0.555,0.077 0.277,0 0,0" style="fill:#545454;fill-opacity:1;fill-rule:nonzero;stroke:none" id="path4891" inkscape:connector-curvature="0"/>
      </g>
      <g id="g4897" transform="matrix(0.72458125,0,0,0.99998628,140.7746,817.45884)">
        <path d="m 0,0 c -0.277,0 -0.555,0.077 -0.767,0.23 l -3.446,2.498 c -0.424,0.306 -0.424,0.803 0,1.109 0.423,0.307 1.109,0.307 1.531,0 L 0.766,1.34 C 1.188,1.033 1.188,0.537 0.766,0.23 0.554,0.077 0.277,0 0,0" style="fill:#545454;fill-opacity:1;fill-rule:nonzero;stroke:none" id="path4895" inkscape:connector-curvature="0"/>
      </g>
      <g id="g4901" transform="matrix(0.72458125,0,0,0.99998628,144.1505,818.72592)">
        <path d="m 0,0 c -2.935,0 -5.324,-1.731 -5.324,-3.859 0,-2.128 2.389,-3.859 5.324,-3.859 2.939,0 5.328,1.731 5.328,3.859 C 5.328,-1.731 2.939,0 0,0 m 0,-9.289 c -4.131,0 -7.49,2.436 -7.49,5.43 0,2.993 3.359,5.429 7.49,5.429 4.133,0 7.495,-2.436 7.495,-5.429 0,-2.994 -3.362,-5.43 -7.495,-5.43" style="fill:#545454;fill-opacity:1;fill-rule:nonzero;stroke:none" id="path4899" inkscape:connector-curvature="0"/>
      </g>
      <g id="g4905" transform="matrix(0.72458125,0,0,0.99998628,144.1505,819.51051)">
        <path d="m 0,0 c -3.538,0 -6.407,-2.079 -6.407,-4.644 0,-2.565 2.869,-4.644 6.407,-4.644 z" style="fill:#545454;fill-opacity:1;fill-rule:nonzero;stroke:none" id="path4903" inkscape:connector-curvature="0"/>
      </g>
    </g>
  </g>
</svg>
