<?xml version='1.0' encoding='UTF-8'?>
<!-- Created with Inkscape (http://www.inkscape.org/) and export_objects.py -->
<svg xmlns:cc="http://creativecommons.org/ns#" xmlns:dc="http://purl.org/dc/elements/1.1/" xmlns:inkscape="http://www.inkscape.org/namespaces/inkscape" xmlns:rdf="http://www.w3.org/1999/02/22-rdf-syntax-ns#" xmlns:sodipodi="http://sodipodi.sourceforge.net/DTD/sodipodi-0.dtd" xmlns:xlink="http://www.w3.org/1999/xlink" xmlns="http://www.w3.org/2000/svg" version="1.1" sodipodi:docname="step030.svg" viewBox="0 0 33.858121 28.929599" height="28.929599px" width="33.858121px" xml:space="preserve" id="svg2" inkscape:version="0.92.1 r15371">
  <sodipodi:namedview inkscape:current-layer="g10" inkscape:window-maximized="1" inkscape:window-y="-8" inkscape:window-x="-8" inkscape:cy="-703.13596" inkscape:cx="825.3699" inkscape:zoom="0.42647378" showgrid="false" id="namedview4" inkscape:window-height="1137" inkscape:window-width="1920" inkscape:pageshadow="2" inkscape:pageopacity="0" guidetolerance="10" gridtolerance="10" objecttolerance="10" borderopacity="1" bordercolor="#666666" pagecolor="#ffffff"/>
  <metadata id="metadata8">
    <rdf:RDF>
      <cc:Work rdf:about="">
        <dc:format>image/svg+xml</dc:format>
        <dc:type rdf:resource="http://purl.org/dc/dcmitype/StillImage"/>
        <dc:title/>
      </cc:Work>
    </rdf:RDF>
  </metadata>
  <g inkscape:groupmode="layer" inkscape:label="step" transform="matrix(1.333333,0.000000,0.000000,-1.333333,-776.890980,-284.716700)">
    <g id="g8282" inkscape:label="030">
      <g transform="translate(592.96125,-215.5375)" id="g1180">
        <path inkscape:connector-curvature="0" id="path1182" style="fill:#545454;fill-opacity:1;fill-rule:nonzero;stroke:none" d="m 0,0 c -4.572,0 -8.293,-2.837 -8.293,-6.324 0,-2.388 1.834,-4.616 4.672,-5.678 0.264,-0.099 0.475,-0.305 0.578,-0.567 0.105,-0.263 0.092,-0.558 -0.031,-0.811 l -0.049,-0.101 c -0.055,-0.117 -0.111,-0.232 -0.176,-0.344 -0.092,-0.154 -0.189,-0.303 -0.293,-0.448 0.836,0.296 1.565,0.752 2.143,1.349 0.205,0.21 0.492,0.312 0.779,0.303 0.223,-0.014 0.445,-0.027 0.67,-0.027 4.572,0 8.291,2.836 8.291,6.324 C 8.291,-2.837 4.572,0 0,0 m -6.062,-16.679 c -0.25,0 -0.502,0.009 -0.754,0.028 -0.452,0.031 -0.825,0.362 -0.911,0.805 -0.087,0.444 0.135,0.89 0.541,1.089 0.707,0.348 1.295,0.806 1.754,1.366 -2.988,1.504 -4.861,4.179 -4.861,7.067 0,4.59 4.617,8.324 10.293,8.324 5.676,0 10.291,-3.734 10.291,-8.324 0,-4.59 -4.615,-8.324 -10.291,-8.324 -0.117,0 -0.232,0.002 -0.35,0.007 -1.457,-1.317 -3.466,-2.038 -5.712,-2.038"/>
      </g>
      <g transform="translate(604.51205,-235.2347)" id="g1184">
        <path inkscape:connector-curvature="0" id="path1186" style="fill:#545454;fill-opacity:1;fill-rule:nonzero;stroke:none" d="M 0,0 C -1.297,0 -2.516,0.346 -3.531,1.016 -3.594,1.002 -3.656,0.99 -3.719,0.979 c -3.894,-0.71 -7.705,1.061 -9.054,4.198 -0.219,0.508 0.015,1.095 0.523,1.314 0.504,0.213 1.096,-0.015 1.314,-0.523 0.985,-2.291 3.874,-3.563 6.866,-3.02 0.174,0.031 0.341,0.073 0.507,0.115 0.301,0.077 0.62,0.007 0.866,-0.185 C -2.322,2.58 -1.891,2.356 -1.42,2.21 l -0.006,0.006 c -0.076,0.097 -0.136,0.189 -0.195,0.282 -0.152,0.225 -0.233,0.541 -0.174,0.807 0.057,0.265 0.193,0.535 0.424,0.678 2.055,1.276 3.182,3.384 2.869,5.372 -0.256,1.63 -1.402,2.974 -3.146,3.684 -0.512,0.208 -0.758,0.792 -0.549,1.303 0.209,0.512 0.793,0.759 1.302,0.549 2.374,-0.966 4.006,-2.92 4.37,-5.226 C 3.857,7.219 2.756,4.685 0.623,2.953 1.02,2.608 1.488,2.348 2.02,2.179 2.443,2.043 2.727,1.644 2.715,1.198 2.703,0.754 2.398,0.37 1.967,0.258 1.303,0.085 0.643,0 0,0"/>
      </g>
      <g transform="translate(588.98855,-220.6908)" id="g1188">
        <path inkscape:connector-curvature="0" id="path1190" style="fill:#545454;fill-opacity:1;fill-rule:nonzero;stroke:none" d="m 0,0 c -0.721,0 -1.303,-0.585 -1.303,-1.305 0,-0.719 0.582,-1.304 1.303,-1.304 0.721,0 1.305,0.585 1.305,1.304 C 1.305,-0.585 0.721,0 0,0"/>
      </g>
      <g transform="translate(592.98855,-220.6908)" id="g1192">
        <path inkscape:connector-curvature="0" id="path1194" style="fill:#545454;fill-opacity:1;fill-rule:nonzero;stroke:none" d="m 0,0 c -0.721,0 -1.303,-0.585 -1.303,-1.305 0,-0.719 0.582,-1.304 1.303,-1.304 0.721,0 1.305,0.585 1.305,1.304 C 1.305,-0.585 0.721,0 0,0"/>
      </g>
      <g transform="translate(596.98855,-220.6908)" id="g1196">
        <path inkscape:connector-curvature="0" id="path1198" style="fill:#545454;fill-opacity:1;fill-rule:nonzero;stroke:none" d="m 0,0 c -0.721,0 -1.303,-0.585 -1.303,-1.305 0,-0.719 0.582,-1.304 1.303,-1.304 0.721,0 1.305,0.585 1.305,1.304 C 1.305,-0.585 0.721,0 0,0"/>
      </g>
    </g>
  </g>
</svg>
