<?xml version="1.0" encoding="UTF-8" standalone="no"?>
<!-- Created with Inkscape (http://www.inkscape.org/) and export_objects.py -->

<svg
   xmlns:dc="http://purl.org/dc/elements/1.1/"
   xmlns:cc="http://creativecommons.org/ns#"
   xmlns:rdf="http://www.w3.org/1999/02/22-rdf-syntax-ns#"
   xmlns:svg="http://www.w3.org/2000/svg"
   xmlns="http://www.w3.org/2000/svg"
   xmlns:sodipodi="http://sodipodi.sourceforge.net/DTD/sodipodi-0.dtd"
   xmlns:inkscape="http://www.inkscape.org/namespaces/inkscape"
   version="1.1"
   sodipodi:docname="cookie.svg"
   viewBox="0 0 24.964843 25.078125"
   height="25.078125"
   width="24.964844"
   xml:space="preserve"
   id="svg2"
   inkscape:version="0.92.3 (2405546, 2018-03-11)"><defs
   id="defs16">
      
      
      
      
    
        
      
      
      
      
      
    
        
      
        
      
        
      
        
      
      
      
      
      
    
      
      
      
      
    
        
      
        
      
        
      
        
      
      
      
      
      
    
        
      
        
      
        
      
        
      
      
      
      
      
    
        
      
        
      
        
      
        
      </defs>
  <sodipodi:namedview
   inkscape:current-layer="g13"
   inkscape:window-maximized="1"
   inkscape:window-y="28"
   inkscape:window-x="51"
   inkscape:cy="9.2724229"
   inkscape:cx="-12.007959"
   inkscape:zoom="3.4117902"
   showgrid="false"
   id="namedview4"
   inkscape:window-height="872"
   inkscape:window-width="1549"
   inkscape:pageshadow="2"
   inkscape:pageopacity="0"
   guidetolerance="10"
   gridtolerance="10"
   objecttolerance="10"
   borderopacity="1"
   bordercolor="#666666"
   pagecolor="#ffffff"
   fit-margin-top="0"
   fit-margin-left="0"
   fit-margin-right="0"
   fit-margin-bottom="0" />
  <metadata
   id="metadata8">
    <rdf:RDF>
      <cc:Work
   rdf:about="">
        <dc:format>image/svg+xml</dc:format>
        <dc:type
   rdf:resource="http://purl.org/dc/dcmitype/StillImage" />
        <dc:title></dc:title>
      </cc:Work>
    </rdf:RDF>
  </metadata>
  <g
   inkscape:groupmode="layer"
   inkscape:label="step"
   transform="matrix(1.333333,0,0,-1.333333,-2100.1031,-256.59726)"
   id="g13">
    
  <g
   transform="translate(1650.9078,-300.07994)"
   id="g1081">
        
      </g><g
   transform="translate(1659.4273,-300.07994)"
   id="g1083">
        
      </g><g
   transform="translate(1604.187,-250.81352)"
   id="g1236">
        
      </g><g
   transform="translate(1612.7065,-250.81352)"
   id="g1238">
        
      </g><path
   style="fill:#545454;fill-opacity:1;fill-rule:nonzero;stroke:none;stroke-width:1.33333302"
   d="m 47.810547,0 c -6.363999,0 -11.541016,5.1750646 -11.541016,11.539062 0,3.579 1.637185,6.782234 4.203125,8.900391 2.52e-4,3.36e-4 0.0017,-3.35e-4 0.002,0 2.107022,2.808663 5.450617,4.638672 9.22461,4.638672 6.361331,0 11.535156,-5.176397 11.535156,-11.539063 0,-3.5762653 -1.633093,-6.7765579 -4.193359,-8.8945308 C 54.935006,1.8314153 51.586539,0 47.810547,0 Z m 0,2.6660156 c 4.890665,0 8.869141,3.9797153 8.869141,8.8730464 0,4.892 -3.978476,8.873047 -8.869141,8.873047 -4.893332,0 -8.875,-3.981047 -8.875,-8.873047 0,-4.8933311 3.981668,-8.8730464 8.875,-8.8730464 z m 0,2.2246094 c -3.666666,0 -6.650391,2.9817723 -6.650391,6.648437 0,3.666667 2.983725,6.650391 6.650391,6.650391 3.666666,0 6.648437,-2.983724 6.648437,-6.650391 0,-3.6666647 -2.981771,-6.648437 -6.648437,-6.648437 z m 0,1.3320312 c 2.931999,0 5.314453,2.3857409 5.314453,5.3164058 0,2.932001 -2.382454,5.316407 -5.314453,5.316407 -2.931999,0 -5.316406,-2.384406 -5.316406,-5.316407 0,-2.9306649 2.384407,-5.3164058 5.316406,-5.3164058 z m 10.855469,1.4453126 c 0.02778,0.077012 0.05781,0.1527123 0.08398,0.2304687 -0.02594,-0.077756 -0.05644,-0.1534546 -0.08398,-0.2304687 z m 0.255859,0.8066406 c 0.04328,0.1552025 0.08427,0.3109905 0.121094,0.46875 -0.03645,-0.1577365 -0.07823,-0.3135447 -0.121094,-0.46875 z m 0.226563,0.96875 c 0.04083,0.2189933 0.07149,0.4408797 0.09961,0.6640626 -0.02782,-0.223286 -0.05918,-0.4448919 -0.09961,-0.6640626 z m 0.142578,1.0019526 c 0.03452,0.360699 0.05664,0.723955 0.05664,1.09375 0,0.362043 -0.02174,0.718761 -0.05469,1.072266 0.03278,-0.35363 0.05469,-0.710218 0.05469,-1.072266 0,-0.369393 -0.02255,-0.733147 -0.05664,-1.09375 z m -0.0332,2.470704 c -0.02926,0.243244 -0.06706,0.484297 -0.111328,0.722656 0.04411,-0.238593 0.08219,-0.479208 0.111328,-0.722656 z m -0.1875,1.109375 c -0.04913,0.221742 -0.106217,0.439477 -0.167968,0.65625 0.06144,-0.216534 0.119087,-0.434777 0.167968,-0.65625 z m -0.291015,1.074218 c -0.09024,0.276311 -0.188707,0.549628 -0.298828,0.816407 0.110062,-0.267335 0.208733,-0.539499 0.298828,-0.816407 z m -0.47852,1.212891 c -0.07287,0.159168 -0.14678,0.317434 -0.226562,0.472656 0.07958,-0.15509 0.153904,-0.313613 0.226562,-0.472656 z m -0.474609,0.931641 c -0.07598,0.13275 -0.157281,0.261211 -0.238281,0.390625 0.0809,-0.129324 0.162429,-0.257949 0.238281,-0.390625 z m -0.53125,0.847656 c -0.849247,1.412647 -2.077989,2.563141 -3.546875,3.322265 1.403176,-0.847375 2.615577,-1.978112 3.546875,-3.322265 z M 40.8125,20.693359 c 0.155277,0.118935 0.307422,0.242425 0.46875,0.353516 -0.161178,-0.111076 -0.313596,-0.234622 -0.46875,-0.353516 z m 0.878906,0.613282 c 0.162004,0.101828 0.324924,0.203003 0.492188,0.296875 -0.167657,-0.09416 -0.329805,-0.194728 -0.492188,-0.296875 z m 0.91211,0.515625 c 0.17463,0.08877 0.349713,0.175854 0.529296,0.255859 -0.17948,-0.08005 -0.35476,-0.167045 -0.529296,-0.255859 z m 0.945312,0.429687 c 0.199136,0.07948 0.401083,0.15414 0.605469,0.222656 -0.204664,-0.06869 -0.406072,-0.142961 -0.605469,-0.222656 z m 8.236328,0.105469 c -0.08208,0.03057 -0.163155,0.06305 -0.246094,0.0918 0.08307,-0.02848 0.163885,-0.06148 0.246094,-0.0918 z m -7.214844,0.25 c 0.208865,0.06125 0.421209,0.114516 0.634766,0.164062 -0.213496,-0.0496 -0.425969,-0.102755 -0.634766,-0.164062 z m 6.445313,0.0078 c -0.210407,0.06177 -0.4235,0.116186 -0.638672,0.166016 0.215144,-0.04913 0.428257,-0.105004 0.638672,-0.166016 z m -5.412109,0.246094 c 0.276332,0.05378 0.556912,0.09334 0.839843,0.126953 -0.28312,-0.03368 -0.56336,-0.07306 -0.839843,-0.126953 z m 4.33789,0.01172 c -0.273256,0.05208 -0.550305,0.09287 -0.830078,0.125 0.279989,-0.03161 0.556465,-0.07363 0.830078,-0.125 z m -3.267578,0.146484 c 0.374386,0.0368 0.752818,0.05859 1.136719,0.05859 0.358025,0 0.710743,-0.0226 1.060547,-0.05469 -0.349712,0.03265 -0.702227,0.05469 -1.060547,0.05469 -0.383789,0 -0.762507,-0.02177 -1.136719,-0.05859 z"
   id="path1371"
   inkscape:connector-curvature="0"
   transform="matrix(0.75000019,0,0,-0.75000019,1547.8756,-192.44799)" /></g>
</svg>