<?xml version='1.0' encoding='UTF-8'?>
<!-- Created with Inkscape (http://www.inkscape.org/) and export_objects.py -->
<svg xmlns:cc="http://creativecommons.org/ns#" xmlns:dc="http://purl.org/dc/elements/1.1/" xmlns:inkscape="http://www.inkscape.org/namespaces/inkscape" xmlns:rdf="http://www.w3.org/1999/02/22-rdf-syntax-ns#" xmlns:sodipodi="http://sodipodi.sourceforge.net/DTD/sodipodi-0.dtd" xmlns:xlink="http://www.w3.org/1999/xlink" xmlns="http://www.w3.org/2000/svg" version="1.1" sodipodi:docname="step093.svg" viewBox="0 0 31.695999 31.694666" height="31.694666px" width="31.695999px" xml:space="preserve" id="svg2" inkscape:version="0.92.1 r15371">
  <sodipodi:namedview inkscape:current-layer="g10" inkscape:window-maximized="1" inkscape:window-y="-8" inkscape:window-x="1912" inkscape:cy="-862.22917" inkscape:cx="2456.2254" inkscape:zoom="0.3015625" showgrid="false" id="namedview4" inkscape:window-height="1017" inkscape:window-width="1920" inkscape:pageshadow="2" inkscape:pageopacity="0" guidetolerance="10" gridtolerance="10" objecttolerance="10" borderopacity="1" bordercolor="#666666" pagecolor="#ffffff"/>
  <metadata id="metadata8">
    <rdf:RDF>
      <cc:Work rdf:about="">
        <dc:format>image/svg+xml</dc:format>
        <dc:type rdf:resource="http://purl.org/dc/dcmitype/StillImage"/>
        <dc:title/>
      </cc:Work>
    </rdf:RDF>
  </metadata>
  <g inkscape:groupmode="layer" inkscape:label="step" transform="matrix(1.333333,0.000000,0.000000,-1.333333,-1280.567500,-1003.049700)">
    <g id="g8960" inkscape:label="093">
      <path inkscape:connector-curvature="0" id="path1494" style="fill:#545454;fill-opacity:1;fill-rule:nonzero;stroke:none" d="m 962.42565,-774.0583 h 19.771 v 19.771 h -19.771 z m 20.772,-2 h -21.772 c -0.552,0 -1,0.449 -1,1 v 21.771 c 0,0.553 0.448,1 1,1 h 21.772 c 0.553,0 1,-0.447 1,-1 v -21.771 c 0,-0.551 -0.447,-1 -1,-1"/>
      <g transform="translate(982.84015,-759.6166)" id="g1496">
        <path inkscape:connector-curvature="0" id="path1498" style="fill:#545454;fill-opacity:1;fill-rule:nonzero;stroke:none" d="m 0,0 h -21.057 c -0.277,0 -0.5,0.224 -0.5,0.5 0,0.277 0.223,0.5 0.5,0.5 H 0 C 0.277,1 0.5,0.777 0.5,0.5 0.5,0.224 0.277,0 0,0"/>
      </g>
      <g transform="translate(964.97095,-755.223)" id="g1500">
        <path inkscape:connector-curvature="0" id="path1502" style="fill:#545454;fill-opacity:1;fill-rule:nonzero;stroke:none" d="m 0,0 c -0.695,0 -1.26,-0.564 -1.26,-1.261 0,-0.695 0.565,-1.259 1.26,-1.259 0.695,0 1.26,0.564 1.26,1.259 C 1.26,-0.564 0.695,0 0,0"/>
      </g>
      <g transform="translate(968.38315,-755.223)" id="g1504">
        <path inkscape:connector-curvature="0" id="path1506" style="fill:#545454;fill-opacity:1;fill-rule:nonzero;stroke:none" d="m 0,0 c -0.695,0 -1.26,-0.564 -1.26,-1.261 0,-0.695 0.565,-1.259 1.26,-1.259 0.695,0 1.26,0.564 1.26,1.259 C 1.26,-0.564 0.695,0 0,0"/>
      </g>
      <g transform="translate(971.79525,-755.223)" id="g1508">
        <path inkscape:connector-curvature="0" id="path1510" style="fill:#545454;fill-opacity:1;fill-rule:nonzero;stroke:none" d="m 0,0 c -0.695,0 -1.26,-0.564 -1.26,-1.261 0,-0.695 0.565,-1.259 1.26,-1.259 0.697,0 1.262,0.564 1.262,1.259 C 1.262,-0.564 0.697,0 0,0"/>
      </g>
      <g transform="translate(972.31275,-763.6263)" id="g1512">
        <path inkscape:connector-curvature="0" id="path1514" style="fill:#545454;fill-opacity:1;fill-rule:nonzero;stroke:none" d="m 0,0 h -6.834 c -0.275,0 -0.5,0.225 -0.5,0.5 0,0.276 0.225,0.5 0.5,0.5 H 0 C 0.275,1 0.5,0.776 0.5,0.5 0.5,0.225 0.275,0 0,0"/>
      </g>
      <g transform="translate(972.31275,-766.7933)" id="g1516">
        <path inkscape:connector-curvature="0" id="path1518" style="fill:#545454;fill-opacity:1;fill-rule:nonzero;stroke:none" d="m 0,0 h -6.834 c -0.275,0 -0.5,0.225 -0.5,0.5 0,0.276 0.225,0.5 0.5,0.5 H 0 C 0.275,1 0.5,0.776 0.5,0.5 0.5,0.225 0.275,0 0,0"/>
      </g>
      <g transform="translate(972.31275,-769.9594)" id="g1520">
        <path inkscape:connector-curvature="0" id="path1522" style="fill:#545454;fill-opacity:1;fill-rule:nonzero;stroke:none" d="m 0,0 h -6.834 c -0.275,0 -0.5,0.223 -0.5,0.5 0,0.275 0.225,0.5 0.5,0.5 H 0 C 0.275,1 0.5,0.775 0.5,0.5 0.5,0.223 0.275,0 0,0"/>
      </g>
      <path inkscape:connector-curvature="0" id="path1524" style="fill:#545454;fill-opacity:1;fill-rule:nonzero;stroke:none" d="m 975.31265,-768.9593 h 3.332 v 5.333 h -3.332 z m 3.832,-1 h -4.332 c -0.277,0 -0.5,0.223 -0.5,0.5 v 6.333 c 0,0.276 0.223,0.5 0.5,0.5 h 4.332 c 0.278,0 0.5,-0.224 0.5,-0.5 v -6.333 c 0,-0.277 -0.222,-0.5 -0.5,-0.5"/>
    </g>
  </g>
</svg>
