<?xml version='1.0' encoding='UTF-8'?>
<!-- Created with Inkscape (http://www.inkscape.org/) and export_objects.py -->
<svg xmlns:cc="http://creativecommons.org/ns#" xmlns:dc="http://purl.org/dc/elements/1.1/" xmlns:inkscape="http://www.inkscape.org/namespaces/inkscape" xmlns:rdf="http://www.w3.org/1999/02/22-rdf-syntax-ns#" xmlns:sodipodi="http://sodipodi.sourceforge.net/DTD/sodipodi-0.dtd" xmlns:xlink="http://www.w3.org/1999/xlink" xmlns="http://www.w3.org/2000/svg" version="1.1" sodipodi:docname="step110.svg" viewBox="0 0 36.333332 33.333333" height="33.333333px" width="36.333332px" xml:space="preserve" id="svg2" inkscape:version="0.92.1 r15371">
  <sodipodi:namedview inkscape:current-layer="g10" inkscape:window-maximized="1" inkscape:window-y="-8" inkscape:window-x="1912" inkscape:cy="-862.22917" inkscape:cx="2456.2254" inkscape:zoom="0.3015625" showgrid="false" id="namedview4" inkscape:window-height="1017" inkscape:window-width="1920" inkscape:pageshadow="2" inkscape:pageopacity="0" guidetolerance="10" gridtolerance="10" objecttolerance="10" borderopacity="1" bordercolor="#666666" pagecolor="#ffffff"/>
  <metadata id="metadata8">
    <rdf:RDF>
      <cc:Work rdf:about="">
        <dc:format>image/svg+xml</dc:format>
        <dc:type rdf:resource="http://purl.org/dc/dcmitype/StillImage"/>
        <dc:title/>
      </cc:Work>
    </rdf:RDF>
  </metadata>
  <g inkscape:groupmode="layer" inkscape:label="step" transform="matrix(1.333333,0.000000,0.000000,-1.333333,-1278.202200,-1375.849400)">
    <g id="g9029" inkscape:label="110">
      <g transform="translate(960.65165,-1033.8871)" id="g2052">
        <path inkscape:connector-curvature="0" id="path2054" style="fill:#545454;fill-opacity:1;fill-rule:nonzero;stroke:none" d="m 0,0 v -17.25 h 3.253 c 0.552,0 1,-0.447 1,-1 v -1.686 l 3.126,2.47 c 0.176,0.14 0.394,0.216 0.62,0.216 H 23.25 V 0 Z m 3.253,-23 c -0.149,0 -0.298,0.033 -0.437,0.1 -0.345,0.168 -0.563,0.516 -0.563,0.9 v 2.75 H 0 c -1.102,0 -2,0.897 -2,2 V 0 c 0,1.103 0.898,2 2,2 h 23.25 c 1.104,0 2,-0.897 2,-2 v -17.25 c 0,-1.103 -0.896,-2 -2,-2 H 8.346 L 3.874,-22.784 C 3.693,-22.927 3.473,-23 3.253,-23"/>
      </g>
      <g transform="translate(970.05885,-1046.4125)" id="g2056">
        <path inkscape:connector-curvature="0" id="path2058" style="fill:#545454;fill-opacity:1;fill-rule:nonzero;stroke:none" d="M 0,0 V 7.399 C 0,7.84 -0.067,8.147 -0.203,8.323 -0.339,8.497 -0.587,8.585 -0.948,8.585 h -0.187 v -9.923 h 0.187 c 0.361,0 0.609,0.102 0.745,0.305 C -0.067,-0.829 0,-0.485 0,0 M 2.083,0.102 C 2.083,-1.05 1.886,-1.856 1.49,-2.319 1.095,-2.782 0.373,-3.015 -0.677,-3.015 h -2.54 v 13.243 h 2.218 c 1.22,0 2.038,-0.192 2.455,-0.577 C 1.874,9.269 2.083,8.495 2.083,7.332 Z"/>
      </g>
      <g transform="translate(977.86555,-1049.4271)" id="g2060">
        <path inkscape:connector-curvature="0" id="path2062" style="fill:#545454;fill-opacity:1;fill-rule:nonzero;stroke:none" d="M 0,0 H -4.674 V 13.242 H 0 V 11.566 H -2.591 V 8.213 H 0 V 6.52 H -2.591 V 1.728 H 0 Z"/>
      </g>
    </g>
  </g>
</svg>
