<?xml version="1.0" encoding="UTF-8" standalone="no"?>
<!-- Created with Inkscape (http://www.inkscape.org/) and export_objects.py -->

<svg
   xmlns:dc="http://purl.org/dc/elements/1.1/"
   xmlns:cc="http://creativecommons.org/ns#"
   xmlns:rdf="http://www.w3.org/1999/02/22-rdf-syntax-ns#"
   xmlns:svg="http://www.w3.org/2000/svg"
   xmlns="http://www.w3.org/2000/svg"
   xmlns:sodipodi="http://sodipodi.sourceforge.net/DTD/sodipodi-0.dtd"
   xmlns:inkscape="http://www.inkscape.org/namespaces/inkscape"
   version="1.1"
   sodipodi:docname="dictionary-3.svg"
   viewBox="0 0 24.666126 32.723004"
   height="32.723003"
   width="24.666126"
   xml:space="preserve"
   id="svg2"
   inkscape:version="0.92.0 r15299"><defs
     id="defs14" /><sodipodi:namedview
     inkscape:current-layer="g2344"
     inkscape:window-maximized="1"
     inkscape:window-y="-8"
     inkscape:window-x="1334"
     inkscape:cy="15.069312"
     inkscape:cx="18.816707"
     inkscape:zoom="13.647161"
     showgrid="false"
     id="namedview4"
     inkscape:window-height="877"
     inkscape:window-width="1538"
     inkscape:pageshadow="2"
     inkscape:pageopacity="0"
     guidetolerance="10"
     gridtolerance="10"
     objecttolerance="10"
     borderopacity="1"
     bordercolor="#666666"
     pagecolor="#ffffff"
     showguides="false"
     fit-margin-top="0"
     fit-margin-left="0"
     fit-margin-right="0"
     fit-margin-bottom="0" /><metadata
     id="metadata8"><rdf:RDF><cc:Work
         rdf:about=""><dc:format>image/svg+xml</dc:format><dc:type
           rdf:resource="http://purl.org/dc/dcmitype/StillImage" /><dc:title></dc:title></cc:Work></rdf:RDF></metadata><g
     inkscape:groupmode="layer"
     inkscape:label="step"
     transform="matrix(1.333333,0,0,-1.333333,-889.14224,-991.16112)"
     id="g11"><g
       id="g2344"
       transform="matrix(0.95221914,0,0,0.95221914,17.039325,-41.070628)"
       style="stroke:#545454;stroke-opacity:1"><path
         style="color:#000000;font-style:normal;font-variant:normal;font-weight:normal;font-stretch:normal;font-size:6.27659845px;line-height:3.92287445px;font-family:'Liga Hack';-inkscape-font-specification:'Liga Hack';font-variant-ligatures:normal;font-variant-position:normal;font-variant-caps:normal;font-variant-numeric:normal;font-variant-alternates:normal;font-feature-settings:normal;text-indent:0;text-align:start;text-decoration:none;text-decoration-line:none;text-decoration-style:solid;text-decoration-color:#000000;letter-spacing:0px;word-spacing:0px;text-transform:none;writing-mode:lr-tb;direction:ltr;text-orientation:mixed;dominant-baseline:auto;baseline-shift:baseline;text-anchor:start;white-space:normal;shape-padding:0;clip-rule:nonzero;display:inline;overflow:visible;visibility:visible;opacity:1;isolation:auto;mix-blend-mode:normal;color-interpolation:sRGB;color-interpolation-filters:linearRGB;solid-color:#000000;solid-opacity:1;vector-effect:none;fill:#545454;fill-opacity:1;fill-rule:nonzero;stroke:none;stroke-width:0.31505361;stroke-linecap:butt;stroke-linejoin:miter;stroke-miterlimit:4;stroke-dasharray:none;stroke-dashoffset:0;stroke-opacity:1;color-rendering:auto;image-rendering:auto;shape-rendering:auto;text-rendering:auto;enable-background:accumulate"
         d="m 695.57126,-745.89638 -0.11692,-1.40452 h 0.42612 l 0.0231,0.12922 c 0.0437,0.25359 0.097,0.42431 0.12923,0.48151 0.0406,0.0702 0.0939,0.11852 0.17076,0.15537 v 0.003 c 0.0641,0.0314 0.21682,0.0585 0.43688,0.0585 h 1.09223 l -2.65364,-3.77511 v -0.32613 h 3.84125 l 0.2569,1.4399 -0.39844,0.0708 -0.04,-0.1323 c -0.10944,-0.35309 -0.23905,-0.57218 -0.34151,-0.65533 l -10e-4,-0.001 c -0.10846,-0.0893 -0.27752,-0.14306 -0.5292,-0.14306 h -1.48757 l 2.86748,4.0997 h -0.30305 z"
         id="text2440"
         inkscape:connector-curvature="0" /><path
         style="color:#000000;font-style:normal;font-variant:normal;font-weight:normal;font-stretch:normal;font-size:6.27659845px;line-height:3.92287445px;font-family:'Liga Hack';-inkscape-font-specification:'Liga Hack';font-variant-ligatures:normal;font-variant-position:normal;font-variant-caps:normal;font-variant-numeric:normal;font-variant-alternates:normal;font-feature-settings:normal;text-indent:0;text-align:start;text-decoration:none;text-decoration-line:none;text-decoration-style:solid;text-decoration-color:#000000;letter-spacing:0px;word-spacing:0px;text-transform:none;writing-mode:lr-tb;direction:ltr;text-orientation:mixed;dominant-baseline:auto;baseline-shift:baseline;text-anchor:start;white-space:normal;shape-padding:0;clip-rule:nonzero;display:inline;overflow:visible;visibility:visible;opacity:1;isolation:auto;mix-blend-mode:normal;color-interpolation:sRGB;color-interpolation-filters:linearRGB;solid-color:#000000;solid-opacity:1;vector-effect:none;fill:#545454;fill-opacity:1;fill-rule:nonzero;stroke:none;stroke-width:0.31505361;stroke-linecap:butt;stroke-linejoin:miter;stroke-miterlimit:4;stroke-dasharray:none;stroke-dashoffset:0;stroke-opacity:1;color-rendering:auto;image-rendering:auto;shape-rendering:auto;text-rendering:auto;enable-background:accumulate"
         d="m 690.38857,-745.84716 -1.57527,-3.68589 -0.003,-9.9e-4 c -0.1294,-0.30682 -0.25194,-0.50553 -0.32612,-0.57534 -0.001,-10e-4 -0.10145,-0.0529 -0.27229,-0.0831 l -0.12922,-0.0231 v -0.41074 h 1.68756 v 0.42459 l -0.1446,0.0108 c -0.19679,0.0141 -0.31706,0.0586 -0.32459,0.0631 -0.0337,0.0284 -0.0354,0.037 -0.0354,0.0539 0,0.0379 0.0277,0.15756 0.0969,0.31844 l 0.25381,0.59223 h 1.48297 l 0.22153,-0.53072 c 0.0824,-0.19582 0.11691,-0.33947 0.11691,-0.38613 0,-0.0247 10e-4,-0.0303 -0.0324,-0.0569 l -10e-4,-0.003 c -0.006,-0.005 -0.0986,-0.0428 -0.25844,-0.0507 l -0.15076,-0.009 v -0.42613 h 2.03678 v 0.42613 l -0.14769,0.009 c -0.15381,0.009 -0.25459,0.0484 -0.32306,0.10614 h -0.003 c -0.0585,0.0528 -0.17112,0.22899 -0.2892,0.51073 l -1.55835,3.72742 z m -0.0169,-1.55835 0.50456,-1.20453 h -1.02299 z"
         id="text2444"
         inkscape:connector-curvature="0" /><path
         style="color:#000000;font-style:normal;font-variant:normal;font-weight:normal;font-stretch:normal;font-size:medium;line-height:normal;font-family:sans-serif;font-variant-ligatures:normal;font-variant-position:normal;font-variant-caps:normal;font-variant-numeric:normal;font-variant-alternates:normal;font-feature-settings:normal;text-indent:0;text-align:start;text-decoration:none;text-decoration-line:none;text-decoration-style:solid;text-decoration-color:#000000;letter-spacing:normal;word-spacing:normal;text-transform:none;writing-mode:lr-tb;direction:ltr;text-orientation:mixed;dominant-baseline:auto;baseline-shift:baseline;text-anchor:start;white-space:normal;shape-padding:0;clip-rule:nonzero;display:inline;overflow:visible;visibility:visible;opacity:1;isolation:auto;mix-blend-mode:normal;color-interpolation:sRGB;color-interpolation-filters:linearRGB;solid-color:#000000;solid-opacity:1;vector-effect:none;fill:#545454;fill-opacity:1;fill-rule:nonzero;stroke:none;stroke-width:0.31505361;stroke-linecap:butt;stroke-linejoin:miter;stroke-miterlimit:4;stroke-dasharray:none;stroke-dashoffset:0;stroke-opacity:1;color-rendering:auto;image-rendering:auto;shape-rendering:auto;text-rendering:auto;enable-background:accumulate"
         d="m 693.06836,-747.89008 v -0.15846 -0.53227 h 1.96602 v 0.69073 z"
         id="rect2446"
         inkscape:connector-curvature="0" /><path
         inkscape:connector-curvature="0"
         id="path2328"
         d="m 684.81497,-737.541 c -1.31902,0 -2.39063,-1.07311 -2.39063,-2.39213 v -19.64778 c 0,-0.0782 0.0105,-0.15432 0.0263,-0.22768 -0.0105,-0.0872 -0.0263,-0.17103 -0.0263,-0.25998 0,-1.79055 1.45597,-3.24591 3.24442,-3.24591 h 15.13276 c 0.58075,0 1.0507,0.46841 1.0507,1.04916 0,0.58075 -0.46995,1.05068 -1.0507,1.05068 h -15.13276 c -0.6322,0 -1.14448,0.51386 -1.14448,1.14607 0,0.63116 0.51228,1.14607 1.14448,1.14607 h 13.58669 c 0.0378,0 0.0725,0.007 0.10922,0.0108 0.0315,-0.003 0.062,-0.009 0.0935,-0.009 1.31903,0 2.39367,1.07312 2.39367,2.39214 v 16.5957 c 0,1.31902 -1.07464,2.39213 -2.39367,2.39213 z m 0,-2.09985 h 1.71368 v -17.18026 h -0.85989 c -0.40421,0 -0.78721,-0.0842 -1.14448,-0.21998 v 17.10796 c 0,0.16068 0.13106,0.29228 0.29069,0.29228 z m 2.76291,0 h 11.88067 c 0.16173,0 0.29374,-0.1316 0.29374,-0.29228 v -16.5957 c 0,-0.16068 -0.13201,-0.29228 -0.29374,-0.29228 -0.0346,0 -0.0672,-0.007 -0.10186,-0.0108 -0.0336,0.003 -0.0662,0.0108 -0.10187,0.0108 h -11.67767 z"
         style="fill:#545454;fill-opacity:1;fill-rule:nonzero;stroke:none;stroke-width:1.05017841" /></g></g></svg>