<?xml version="1.0" encoding="UTF-8" standalone="no"?>
<!-- Created with Inkscape (http://www.inkscape.org/) and export_objects.py -->

<svg
   xmlns:dc="http://purl.org/dc/elements/1.1/"
   xmlns:cc="http://creativecommons.org/ns#"
   xmlns:rdf="http://www.w3.org/1999/02/22-rdf-syntax-ns#"
   xmlns:svg="http://www.w3.org/2000/svg"
   xmlns="http://www.w3.org/2000/svg"
   xmlns:sodipodi="http://sodipodi.sourceforge.net/DTD/sodipodi-0.dtd"
   xmlns:inkscape="http://www.inkscape.org/namespaces/inkscape"
   version="1.1"
   sodipodi:docname="dictionary-4.svg"
   viewBox="0 0 24.666075 32.722661"
   height="32.72266"
   width="24.666075"
   xml:space="preserve"
   id="svg2"
   inkscape:version="0.92.0 r15299"><defs
     id="defs14" /><sodipodi:namedview
     inkscape:current-layer="g11"
     inkscape:window-maximized="1"
     inkscape:window-y="-8"
     inkscape:window-x="54"
     inkscape:cy="41.931483"
     inkscape:cx="-20.767311"
     inkscape:zoom="9.65"
     showgrid="false"
     id="namedview4"
     inkscape:window-height="877"
     inkscape:window-width="1538"
     inkscape:pageshadow="2"
     inkscape:pageopacity="0"
     guidetolerance="10"
     gridtolerance="10"
     objecttolerance="10"
     borderopacity="1"
     bordercolor="#666666"
     pagecolor="#ffffff"
     showguides="false"
     fit-margin-top="0"
     fit-margin-left="0"
     fit-margin-right="0"
     fit-margin-bottom="0" /><metadata
     id="metadata8"><rdf:RDF><cc:Work
         rdf:about=""><dc:format>image/svg+xml</dc:format><dc:type
           rdf:resource="http://purl.org/dc/dcmitype/StillImage" /><dc:title></dc:title></cc:Work></rdf:RDF></metadata><g
     inkscape:groupmode="layer"
     inkscape:label="step"
     transform="matrix(1.333333,0,0,-1.333333,-890.7471,-988.03323)"
     id="g11"><path
       inkscape:connector-curvature="0"
       style="font-style:normal;font-variant:normal;font-weight:normal;font-stretch:normal;font-size:medium;line-height:8.24913788px;font-family:'Times New Roman';-inkscape-font-specification:'Times New Roman, ';letter-spacing:0px;word-spacing:0px;fill:#545454;fill-opacity:1;stroke:none;stroke-width:0.30000007;stroke-miterlimit:4;stroke-dasharray:none;stroke-opacity:1"
       d="m 678.53569,-746.5902 -3.11133,-7.2832 h -0.003 c -0.26292,-0.6234 -0.50585,-1.0324 -0.69141,-1.20704 h -0.002 c -0.0574,-0.0551 -0.27716,-0.1499 -0.63135,-0.2124 l -0.12304,-0.022 v -0.51416 h 3.05128 v 0.52735 l -0.13916,0.0103 c -0.40946,0.0293 -0.66831,0.10878 -0.74121,0.16406 -0.0964,0.0811 -0.13184,0.14933 -0.13184,0.23437 0,0.12397 0.0655,0.37047 0.20801,0.70167 l 0.55371,1.28906 h 3.18604 l 0.48779,-1.16456 c 0.16864,-0.40053 0.24609,-0.69429 0.24609,-0.83788 0,-0.0978 -0.0317,-0.16752 -0.1289,-0.24464 h -9.8e-4 v -9.7e-4 c -0.0688,-0.0565 -0.28053,-0.12263 -0.61524,-0.13916 l -0.14209,-0.007 v -0.53174 h 3.74707 v 0.53027 l -0.14062,0.007 c -0.33329,0.0201 -0.57606,0.10862 -0.74707,0.25342 l -0.003,0.003 c -0.15905,0.14248 -0.38167,0.50921 -0.62256,1.08398 l -3.08055,7.36081 z m -0.14062,-2.53857 1.25683,-2.99708 h -2.54883 z"
       id="path1081" /><path
       inkscape:connector-curvature="0"
       id="path1037-4"
       d="m 670.33686,-741.02511 c -1.256,0 -2.27637,-1.02183 -2.27637,-2.27783 v -18.70899 c 0,-0.0745 0.01,-0.14695 0.0249,-0.2168 -0.007,-0.083 -0.0249,-0.16286 -0.0249,-0.24756 0,-1.705 1.38636,-3.09082 3.08936,-3.09082 h 14.40967 c 0.553,0 1.00049,0.44603 1.00049,0.99903 0,0.553 -0.44749,1.00048 -1.00049,1.00048 h -14.40967 c -0.602,0 -1.08985,0.48931 -1.08985,1.09131 0,0.601 0.48785,1.09131 1.08985,1.09131 h 12.9375 c 0.0358,0 0.0692,0.007 0.104,0.0103 0.0298,-0.003 0.0588,-0.009 0.0894,-0.009 1.256,0 2.2793,1.02184 2.2793,2.27784 v 15.80274 c 0,1.256 -1.0233,2.27783 -2.2793,2.27783 z m 0,-1.99951 h 1.63183 V -759.384 h -0.81884 c -0.38487,0 -0.74962,-0.0802 -1.08985,-0.20947 v 16.29053 c 0,0.153 0.12486,0.27832 0.27686,0.27832 z m 2.63086,0 h 11.31299 c 0.154,0 0.27978,-0.12532 0.27978,-0.27832 v -15.80274 c 0,-0.153 -0.12578,-0.27832 -0.27978,-0.27832 -0.0331,0 -0.0644,-0.007 -0.0967,-0.0103 -0.0325,0.003 -0.0634,0.0103 -0.0967,0.0103 h -11.11963 z"
       style="fill:#545454;fill-opacity:1;fill-rule:nonzero;stroke:none;stroke-width:1" /></g></svg>