<?xml version="1.0" encoding="UTF-8" standalone="no"?>
<!-- Created with Inkscape (http://www.inkscape.org/) and export_objects.py -->

<svg
   xmlns:dc="http://purl.org/dc/elements/1.1/"
   xmlns:cc="http://creativecommons.org/ns#"
   xmlns:rdf="http://www.w3.org/1999/02/22-rdf-syntax-ns#"
   xmlns:svg="http://www.w3.org/2000/svg"
   xmlns="http://www.w3.org/2000/svg"
   xmlns:sodipodi="http://sodipodi.sourceforge.net/DTD/sodipodi-0.dtd"
   xmlns:inkscape="http://www.inkscape.org/namespaces/inkscape"
   version="1.1"
   sodipodi:docname="dictionary-2.svg"
   viewBox="0 0 24.666075 32.722661"
   height="32.72266"
   width="24.666075"
   xml:space="preserve"
   id="svg2"
   inkscape:version="0.92.0 r15299"><defs
     id="defs14" /><sodipodi:namedview
     inkscape:current-layer="g11"
     inkscape:window-maximized="1"
     inkscape:window-y="-8"
     inkscape:window-x="1334"
     inkscape:cy="16.271064"
     inkscape:cx="17.996197"
     inkscape:zoom="6.8235805"
     showgrid="false"
     id="namedview4"
     inkscape:window-height="877"
     inkscape:window-width="1538"
     inkscape:pageshadow="2"
     inkscape:pageopacity="0"
     guidetolerance="10"
     gridtolerance="10"
     objecttolerance="10"
     borderopacity="1"
     bordercolor="#666666"
     pagecolor="#ffffff"
     showguides="false"
     fit-margin-top="0"
     fit-margin-left="0"
     fit-margin-right="0"
     fit-margin-bottom="0" /><metadata
     id="metadata8"><rdf:RDF><cc:Work
         rdf:about=""><dc:format>image/svg+xml</dc:format><dc:type
           rdf:resource="http://purl.org/dc/dcmitype/StillImage" /><dc:title></dc:title></cc:Work></rdf:RDF></metadata><g
     inkscape:groupmode="layer"
     inkscape:label="step"
     transform="matrix(1.333333,0,0,-1.333333,-845.79994,-979.79337)"
     id="g11"><path
       id="path2357"
       d="m 645.0285,-745.77942 -0.15234,-1.84424 h 0.40283 l 0.0147,0.0967 c 0.0656,0.38107 0.1444,0.63891 0.20801,0.75146 0.0715,0.12372 0.16692,0.21588 0.30029,0.27979 h 9.7e-4 c 0.12569,0.0616 0.36298,0.10107 0.69727,0.10107 h 1.8457 l -4.03418,-5.74219 v -0.32812 h 5.46387 l 0.34277,1.91601 -0.36914,0.0688 -0.0293,-0.0981 c -0.1651,-0.5327 -0.35905,-0.87453 -0.54493,-1.02539 -0.18862,-0.15534 -0.4703,-0.24171 -0.85986,-0.24171 h -2.43017 l 4.24511,6.06593 h -0.22119 z"
       style="font-style:normal;font-variant:normal;font-weight:normal;font-stretch:normal;font-size:9.15429783px;line-height:5.72143602px;font-family:'Liga Hack';-inkscape-font-specification:'Liga Hack';letter-spacing:0px;word-spacing:0px;fill:#545454;fill-opacity:1;stroke:none;stroke-width:0.22885744;stroke-opacity:1"
       inkscape:connector-curvature="0" /><path
       id="path2359"
       d="m 643.37762,-737.59387 -2.2998,-5.38331 c -0.19414,-0.4603 -0.37351,-0.76237 -0.50977,-0.89062 h -0.003 c -0.0412,-0.0395 -0.20151,-0.10914 -0.46289,-0.15528 l -0.0952,-0.0161 v -0.38672 h 2.26171 v 0.39698 l -0.10546,0.007 c -0.30069,0.0215 -0.4913,0.0774 -0.54493,0.11719 0,0 0,9.8e-4 0,9.8e-4 -0.0719,0.06 -0.0981,0.11068 -0.0981,0.17286 0,0.0905 0.0501,0.27116 0.15527,0.51562 l 0.40723,0.94927 h 2.34814 l 0.35889,-0.8584 h 0.003 c 0.1245,-0.29569 0.17871,-0.51173 0.17871,-0.6167 0,-0.0712 -0.0226,-0.12081 -0.0937,-0.17724 h -9.8e-4 c -0.0496,-0.0407 -0.20423,-0.0918 -0.45117,-0.10401 l -0.10987,-0.006 v -0.39844 h 2.77588 v 0.39844 l -0.10693,0.006 c -0.24539,0.0148 -0.42376,0.0799 -0.54932,0.18603 l -9.7e-4,9.8e-4 c -0.11655,0.1046 -0.28222,0.37427 -0.45996,0.79834 l -2.27642,5.44192 z m -0.10107,-1.88819 0.92431,-2.20166 h -1.87353 z"
       style="font-style:normal;font-variant:normal;font-weight:normal;font-stretch:normal;font-size:9.50000191px;line-height:5.72143602px;font-family:'Liga Hack';-inkscape-font-specification:'Liga Hack';letter-spacing:0px;word-spacing:0px;fill:#545454;fill-opacity:1;stroke:none;stroke-width:0.22885744;stroke-opacity:1"
       inkscape:connector-curvature="0" /><path
       inkscape:connector-curvature="0"
       id="path2361"
       d="m 636.62648,-734.84521 c -1.256,0 -2.27637,-1.02183 -2.27637,-2.27783 v -18.70899 c 0,-0.0745 0.01,-0.14695 0.0249,-0.2168 -0.007,-0.083 -0.0249,-0.16286 -0.0249,-0.24756 0,-1.705 1.38636,-3.09082 3.08936,-3.09082 h 14.40967 c 0.553,0 1.00049,0.44603 1.00049,0.99903 0,0.553 -0.44749,1.00048 -1.00049,1.00048 h -14.40967 c -0.602,0 -1.08985,0.48931 -1.08985,1.09131 0,0.601 0.48785,1.09131 1.08985,1.09131 h 12.9375 c 0.0358,0 0.0692,0.007 0.104,0.0103 0.0298,-0.003 0.0588,-0.009 0.0894,-0.009 1.256,0 2.2793,1.02184 2.2793,2.27784 v 15.80274 c 0,1.256 -1.0233,2.27783 -2.2793,2.27783 z m 0,-1.99951 h 1.63183 v -16.35938 h -0.81884 c -0.38487,0 -0.74962,-0.0802 -1.08985,-0.20947 v 16.29053 c 0,0.153 0.12486,0.27832 0.27686,0.27832 z m 2.63086,0 h 11.31299 c 0.154,0 0.27978,-0.12532 0.27978,-0.27832 v -15.80274 c 0,-0.153 -0.12578,-0.27832 -0.27978,-0.27832 -0.0331,0 -0.0644,-0.007 -0.0967,-0.0103 -0.0325,0.003 -0.0634,0.0103 -0.0967,0.0103 H 639.2573 Z"
       style="fill:#545454;fill-opacity:1;fill-rule:nonzero;stroke:none;stroke-width:1" /></g></svg>