<?xml version="1.0" encoding="UTF-8" standalone="no"?>
<!-- Created with Inkscape (http://www.inkscape.org/) and export_objects.py -->

<svg
   xmlns:dc="http://purl.org/dc/elements/1.1/"
   xmlns:cc="http://creativecommons.org/ns#"
   xmlns:rdf="http://www.w3.org/1999/02/22-rdf-syntax-ns#"
   xmlns:svg="http://www.w3.org/2000/svg"
   xmlns="http://www.w3.org/2000/svg"
   xmlns:sodipodi="http://sodipodi.sourceforge.net/DTD/sodipodi-0.dtd"
   xmlns:inkscape="http://www.inkscape.org/namespaces/inkscape"
   version="1.1"
   sodipodi:docname="dictionary.svg"
   viewBox="0 0 24.666075 32.722661"
   height="32.72266"
   width="24.666075"
   xml:space="preserve"
   id="svg2"
   inkscape:version="0.92.0 r15299"><defs
     id="defs14" /><sodipodi:namedview
     inkscape:current-layer="g11"
     inkscape:window-maximized="1"
     inkscape:window-y="-8"
     inkscape:window-x="1334"
     inkscape:cy="16.450982"
     inkscape:cx="6.2778833"
     inkscape:zoom="9.65"
     showgrid="false"
     id="namedview4"
     inkscape:window-height="877"
     inkscape:window-width="1538"
     inkscape:pageshadow="2"
     inkscape:pageopacity="0"
     guidetolerance="10"
     gridtolerance="10"
     objecttolerance="10"
     borderopacity="1"
     bordercolor="#666666"
     pagecolor="#ffffff"
     showguides="false"
     fit-margin-top="0"
     fit-margin-left="0"
     fit-margin-right="0"
     fit-margin-bottom="0" /><metadata
     id="metadata8"><rdf:RDF><cc:Work
         rdf:about=""><dc:format>image/svg+xml</dc:format><dc:type
           rdf:resource="http://purl.org/dc/dcmitype/StillImage" /><dc:title></dc:title></cc:Work></rdf:RDF></metadata><g
     inkscape:groupmode="layer"
     inkscape:label="step"
     transform="matrix(1.333333,0,0,-1.333333,-863.7019,-962.55273)"
     id="g11"><path
       style="color:#000000;font-style:normal;font-variant:normal;font-weight:normal;font-stretch:normal;font-size:6.59154844px;line-height:4.11971807px;font-family:'Liga Hack';-inkscape-font-specification:'Liga Hack';font-variant-ligatures:normal;font-variant-position:normal;font-variant-caps:normal;font-variant-numeric:normal;font-variant-alternates:normal;font-feature-settings:normal;text-indent:0;text-align:start;text-decoration:none;text-decoration-line:none;text-decoration-style:solid;text-decoration-color:#000000;letter-spacing:0px;word-spacing:0px;text-transform:none;writing-mode:lr-tb;direction:ltr;text-orientation:mixed;dominant-baseline:auto;baseline-shift:baseline;text-anchor:start;white-space:normal;shape-padding:0;clip-rule:nonzero;display:inline;overflow:visible;visibility:visible;opacity:1;isolation:auto;mix-blend-mode:normal;color-interpolation:sRGB;color-interpolation-filters:linearRGB;solid-color:#000000;solid-opacity:1;vector-effect:none;fill:#545454;fill-opacity:1;fill-rule:nonzero;stroke:none;stroke-width:0.22500004;stroke-linecap:butt;stroke-linejoin:miter;stroke-miterlimit:4;stroke-dasharray:none;stroke-dashoffset:0;stroke-opacity:1;color-rendering:auto;image-rendering:auto;shape-rendering:auto;text-rendering:auto;enable-background:accumulate"
       d="m 656.75309,-733.75653 -0.12891,-1.54834 h 0.50538 l 0.0293,0.15967 c 0.0462,0.26865 0.106,0.45883 0.1333,0.50683 0.041,0.0709 0.0907,0.11505 0.16846,0.15235 l 0.001,0.001 c 0.0577,0.0283 0.21876,0.0601 0.4497,0.0601 h 1.10889 l -2.79199,-3.97266 v -0.38672 h 4.12939 l 0.28125,1.58204 -0.47461,0.082 -0.0498,-0.16113 h 10e-4 c -0.1152,-0.37167 -0.25765,-0.60282 -0.35595,-0.68262 -0.10906,-0.0898 -0.28214,-0.14942 -0.54493,-0.14942 h -1.52929 l 3.04687,4.35645 h -0.375 -3.50098 z"
       id="path1690"
       inkscape:connector-curvature="0" /><path
       style="color:#000000;font-style:normal;font-variant:normal;font-weight:normal;font-stretch:normal;font-size:7.00000191px;line-height:4.11971807px;font-family:'Times New Roman';-inkscape-font-specification:'Times New Roman, ';font-variant-ligatures:normal;font-variant-position:normal;font-variant-caps:normal;font-variant-numeric:normal;font-variant-alternates:normal;font-feature-settings:normal;text-indent:0;text-align:start;text-decoration:none;text-decoration-line:none;text-decoration-style:solid;text-decoration-color:#000000;letter-spacing:0px;word-spacing:0px;text-transform:none;writing-mode:lr-tb;direction:ltr;text-orientation:mixed;dominant-baseline:auto;baseline-shift:baseline;text-anchor:start;white-space:normal;shape-padding:0;clip-rule:nonzero;display:inline;overflow:visible;visibility:visible;opacity:1;isolation:auto;mix-blend-mode:normal;color-interpolation:sRGB;color-interpolation-filters:linearRGB;solid-color:#000000;solid-opacity:1;vector-effect:none;fill:#545454;fill-opacity:1;fill-rule:nonzero;stroke:none;stroke-width:0.22500004;stroke-linecap:butt;stroke-linejoin:miter;stroke-miterlimit:4;stroke-dasharray:none;stroke-dashoffset:0;stroke-opacity:1;color-rendering:auto;image-rendering:auto;shape-rendering:auto;text-rendering:auto;enable-background:accumulate"
       d="m 658.28322,-725.41571 -1.6919,-3.95068 c -3.4e-4,-10e-4 3.3e-4,-0.002 0,-0.003 -0.13219,-0.30746 -0.26109,-0.51568 -0.32959,-0.58008 l -0.009,-0.007 c 0.004,0.005 -0.0167,-0.0109 -0.0601,-0.0264 -0.0492,-0.0175 -0.11834,-0.0371 -0.20655,-0.0527 v 0.003 l -0.1626,-0.0293 v -0.48487 h 1.8501 v 0.50098 l -0.18016,0.0176 h -10e-4 c -0.10245,0.007 -0.18466,0.0185 -0.24316,0.0322 -0.0558,0.0131 -0.0895,0.0314 -0.0835,0.0264 -0.0323,0.0271 -0.0293,0.0239 -0.0293,0.0352 0,0.0269 0.0274,0.15737 0.0996,0.32519 l 0.26368,0.61377 h 1.53662 l 0.23144,-0.54492 c 0.0866,-0.2058 0.12305,-0.3669 0.12305,-0.3999 0,-0.025 0.009,-0.0126 -0.0264,-0.041 l -0.003,-0.003 c 0.0109,0.009 -0.0183,-0.008 -0.0644,-0.019 -0.0462,-0.0111 -0.11349,-0.0209 -0.19629,-0.0249 l -0.18311,-0.0103 v -0.50831 h 2.21924 v 0.50391 l -0.18164,0.0146 h -0.003 c -0.1594,0.01 -0.25839,0.0496 -0.32519,0.10547 -0.0512,0.0461 -0.17721,0.2331 -0.30176,0.53027 l -1.66406,3.97705 h -0.30469 z m 0,-1.75781 0.49218,-1.17773 h -1.00048 z"
       id="path1685"
       inkscape:connector-curvature="0" /><path
       inkscape:connector-curvature="0"
       id="path415"
       d="m 650.05296,-721.91473 c -1.256,0 -2.27637,-1.02183 -2.27637,-2.27783 v -18.70899 c 0,-0.0745 0.01,-0.14695 0.0249,-0.2168 -0.007,-0.083 -0.0249,-0.16286 -0.0249,-0.24756 0,-1.705 1.38636,-3.09082 3.08936,-3.09082 h 14.40967 c 0.553,0 1.00049,0.44603 1.00049,0.99903 0,0.553 -0.44749,1.00048 -1.00049,1.00048 h -14.40967 c -0.602,0 -1.08985,0.48931 -1.08985,1.09131 0,0.601 0.48785,1.09131 1.08985,1.09131 h 12.9375 c 0.0358,0 0.0692,0.007 0.104,0.0103 0.0298,-0.003 0.0588,-0.009 0.0894,-0.009 1.256,0 2.2793,1.02184 2.2793,2.27784 v 15.80274 c 0,1.256 -1.0233,2.27783 -2.2793,2.27783 z m 0,-1.99951 h 1.63183 v -16.35938 h -0.81884 c -0.38487,0 -0.74962,-0.0802 -1.08985,-0.20947 v 16.29053 c 0,0.153 0.12486,0.27832 0.27686,0.27832 z m 2.63086,0 h 11.31299 c 0.154,0 0.27978,-0.12532 0.27978,-0.27832 v -15.80274 c 0,-0.153 -0.12578,-0.27832 -0.27978,-0.27832 -0.0331,0 -0.0644,-0.007 -0.0967,-0.0103 -0.0325,0.003 -0.0634,0.0103 -0.0967,0.0103 h -11.11963 z"
       style="fill:#545454;fill-opacity:1;fill-rule:nonzero;stroke:none;stroke-width:1" /><path
       d="m 654.31609,-732.15163 c 0,-0.20623 0.1008,-0.375 0.225,-0.375 h 7.87819 c 0.1242,0 0.225,0.16877 0.225,0.375 0,0.20777 -0.1008,0.375 -0.225,0.375 h -7.87819 c -0.1242,0 -0.225,-0.16723 -0.225,-0.375"
       style="fill:#545454;fill-opacity:1;fill-rule:nonzero;stroke:none;stroke-width:0.58095211"
       id="path427"
       inkscape:connector-curvature="0" /></g></svg>