<?xml version="1.0" encoding="UTF-8" standalone="no"?>
<!-- Created with Inkscape (http://www.inkscape.org/) and export_objects.py -->

<svg
   xmlns:dc="http://purl.org/dc/elements/1.1/"
   xmlns:cc="http://creativecommons.org/ns#"
   xmlns:rdf="http://www.w3.org/1999/02/22-rdf-syntax-ns#"
   xmlns:svg="http://www.w3.org/2000/svg"
   xmlns="http://www.w3.org/2000/svg"
   xmlns:sodipodi="http://sodipodi.sourceforge.net/DTD/sodipodi-0.dtd"
   xmlns:inkscape="http://www.inkscape.org/namespaces/inkscape"
   version="1.1"
   sodipodi:docname="dictionary-3.svg"
   viewBox="0 0 24.666075 32.722661"
   height="32.72266"
   width="24.666075"
   xml:space="preserve"
   id="svg2"
   inkscape:version="0.92.0 r15299"><defs
     id="defs14" /><sodipodi:namedview
     inkscape:current-layer="g11"
     inkscape:window-maximized="1"
     inkscape:window-y="-8"
     inkscape:window-x="54"
     inkscape:cy="0.77857279"
     inkscape:cx="1.2406941"
     inkscape:zoom="6.8235805"
     showgrid="false"
     id="namedview4"
     inkscape:window-height="877"
     inkscape:window-width="1538"
     inkscape:pageshadow="2"
     inkscape:pageopacity="0"
     guidetolerance="10"
     gridtolerance="10"
     objecttolerance="10"
     borderopacity="1"
     bordercolor="#666666"
     pagecolor="#ffffff"
     showguides="false"
     fit-margin-top="0"
     fit-margin-left="0"
     fit-margin-right="0"
     fit-margin-bottom="0" /><metadata
     id="metadata8"><rdf:RDF><cc:Work
         rdf:about=""><dc:format>image/svg+xml</dc:format><dc:type
           rdf:resource="http://purl.org/dc/dcmitype/StillImage" /><dc:title></dc:title></cc:Work></rdf:RDF></metadata><g
     inkscape:groupmode="layer"
     inkscape:label="step"
     transform="matrix(1.333333,0,0,-1.333333,-815.71149,-993.61098)"
     id="g11"><path
       style="color:#000000;font-style:normal;font-variant:normal;font-weight:normal;font-stretch:normal;font-size:13.19862175px;line-height:8.24913788px;font-family:'Liga Hack';-inkscape-font-specification:'Liga Hack';font-variant-ligatures:normal;font-variant-position:normal;font-variant-caps:normal;font-variant-numeric:normal;font-variant-alternates:normal;font-feature-settings:normal;text-indent:0;text-align:start;text-decoration:none;text-decoration-line:none;text-decoration-style:solid;text-decoration-color:#000000;letter-spacing:0px;word-spacing:0px;text-transform:none;writing-mode:lr-tb;direction:ltr;text-orientation:mixed;dominant-baseline:auto;baseline-shift:baseline;text-anchor:start;white-space:normal;shape-padding:0;clip-rule:nonzero;display:inline;overflow:visible;visibility:visible;opacity:1;isolation:auto;mix-blend-mode:normal;color-interpolation:sRGB;color-interpolation-filters:linearRGB;solid-color:#000000;solid-opacity:1;vector-effect:none;fill:#545454;fill-opacity:1;fill-rule:nonzero;stroke:none;stroke-width:0.30047253;stroke-linecap:butt;stroke-linejoin:miter;stroke-miterlimit:4;stroke-dasharray:none;stroke-dashoffset:0;stroke-opacity:1;color-rendering:auto;image-rendering:auto;shape-rendering:auto;text-rendering:auto;enable-background:accumulate"
       d="m 620.49676,-752.4966 -1.90283,-4.45166 c -0.158,-0.37462 -0.30656,-0.61708 -0.40576,-0.71044 l -0.003,-9.8e-4 c -0.015,-0.0144 -0.14124,-0.0742 -0.35157,-0.11132 l -0.12304,-0.0234 v -0.42041 h 1.96875 v 0.43506 l -0.14063,0.0102 c -0.24244,0.0173 -0.39259,0.0696 -0.41601,0.0864 -0.046,0.0393 -0.0557,0.0626 -0.0557,0.0952 0,0.0579 0.0337,0.20241 0.11865,0.3999 v 0.003 l 0.3208,0.74414 h 1.85303 l 0.28125,-0.6709 c 0.10094,-0.23974 0.14502,-0.41434 0.14502,-0.4834 0,-0.0419 -0.01,-0.0644 -0.0571,-0.10254 h -9.7e-4 v -9.7e-4 c -0.0213,-0.0175 -0.14075,-0.0606 -0.33838,-0.0703 l -0.14209,-0.007 v -0.43798 h 2.39063 v 0.43506 l -0.14356,0.0102 c -0.19195,0.0116 -0.32458,0.0596 -0.41602,0.13623 -0.0812,0.0724 -0.21834,0.29282 -0.36328,0.63867 l -1.88235,4.49847 z m 4.81348,-1.73438 c -0.43674,0 -0.79706,-0.10083 -1.06055,-0.31641 -0.25185,-0.20605 -0.39844,-0.45721 -0.39844,-0.73241 0,-0.14277 0.0391,-0.27654 0.12744,-0.37647 l 9.7e-4,-0.003 c 0.0886,-0.096 0.21856,-0.14941 0.3501,-0.14941 0.13101,0 0.25794,0.0493 0.3457,0.14356 l 9.8e-4,0.003 c 0.0931,0.0982 0.13477,0.2329 0.13477,0.37792 v 0.003 l -0.009,0.22998 9.7e-4,-0.006 c 0,0.0713 0.0231,0.1263 0.0981,0.19337 h 9.8e-4 c 0.0651,0.0598 0.15154,0.0937 0.28857,0.0937 0.18538,0 0.29666,-0.0501 0.37793,-0.14649 0.0711,-0.0824 0.13623,-0.29652 0.13623,-0.63721 v -0.0425 c -0.55003,-0.20433 -0.98491,-0.38515 -1.24658,-0.53906 h -9.8e-4 c -0.27678,-0.16442 -0.48013,-0.34371 -0.60498,-0.55079 -0.0941,-0.15361 -0.13916,-0.33484 -0.13916,-0.53173 0,-0.30486 0.093,-0.57299 0.27979,-0.77198 0.18791,-0.197 0.44051,-0.30029 0.72217,-0.30029 0.17937,0 0.35103,0.0372 0.51123,0.11133 0.10398,0.0491 0.31947,0.21579 0.54492,0.38671 0.0229,-0.10653 0.0225,-0.23414 0.0864,-0.30908 0.10263,-0.12033 0.25806,-0.18457 0.42041,-0.18457 0.33927,0 0.65033,0.23786 0.95508,0.646 l 0.0308,0.0395 v 0.63281 l -0.2578,-0.25781 c -0.15224,-0.15224 -0.26273,-0.24746 -0.28565,-0.26221 0,0 -9.7e-4,0 -9.7e-4,0 -0.006,-0.003 -0.0122,-0.006 -0.0308,-0.006 -0.003,0 -0.005,4.7e-4 -0.006,9.7e-4 0.014,-0.0126 -0.007,0.006 -0.0161,0.0644 -0.007,0.0431 -0.0161,0.26429 -0.0161,0.60352 v 1.21584 c 0,0.35314 -0.0139,0.58273 -0.082,0.7456 h -9.7e-4 c -0.0844,0.19902 -0.22485,0.35605 -0.40869,0.45264 -0.23168,0.12178 -0.51507,0.17872 -0.84961,0.17872 z m -4.86036,-0.0132 0.67383,-1.60839 h -1.36523 z m 5.25733,-1.91894 v -1.04443 c -0.27603,-0.20974 -0.50992,-0.32814 -0.63135,-0.32814 -0.10292,0 -0.18623,0.0367 -0.27539,0.13331 l -9.8e-4,9.7e-4 c -0.086,0.0968 -0.12745,0.21109 -0.12745,0.36767 0,0.11858 0.0317,0.22016 0.10401,0.32227 0.0693,0.0979 0.19914,0.20867 0.39258,0.31641 h 9.8e-4 c 0.0689,0.0392 0.31004,0.13677 0.5376,0.23145 z"
       id="text4730-0"
       inkscape:connector-curvature="0" /><path
       style="fill:#545454;fill-opacity:1;fill-rule:nonzero;stroke:none;stroke-width:1"
       d="m 614.06014,-745.20842 c -1.256,0 -2.27637,-1.02184 -2.27637,-2.27783 v -18.709 c 0,-0.0745 0.01,-0.14695 0.0249,-0.21679 -0.007,-0.083 -0.0249,-0.16287 -0.0249,-0.24756 0,-1.70501 1.38636,-3.09082 3.08936,-3.09082 h 14.40967 c 0.553,0 1.00049,0.44602 1.00049,0.99902 0,0.553 -0.44749,1.00048 -1.00049,1.00048 h -14.40967 c -0.602,0 -1.08985,0.48931 -1.08985,1.09132 0,0.601 0.48785,1.0913 1.08985,1.0913 h 12.9375 c 0.0358,0 0.0692,0.007 0.104,0.0103 0.0298,-0.003 0.0588,-0.009 0.0894,-0.009 1.256,0 2.2793,1.02184 2.2793,2.27784 v 15.80275 c 0,1.256 -1.0233,2.27783 -2.2793,2.27783 z m 0,-1.99952 h 1.63183 v -16.35938 h -0.81884 c -0.38487,0 -0.74962,-0.0802 -1.08985,-0.20946 v 16.29053 c 0,0.15299 0.12486,0.27831 0.27686,0.27831 z m 2.63086,0 h 11.31299 c 0.154,0 0.27978,-0.12532 0.27978,-0.27831 V -763.289 c 0,-0.153 -0.12578,-0.27832 -0.27978,-0.27832 -0.0331,0 -0.0644,-0.007 -0.0967,-0.0103 -0.0325,0.003 -0.0634,0.0103 -0.0967,0.0103 h -11.11963 z"
       id="path4697-0"
       inkscape:connector-curvature="0" /></g></svg>