<?xml version='1.0' encoding='UTF-8'?>
<!-- Created with Inkscape (http://www.inkscape.org/) and export_objects.py -->
<svg xmlns:cc="http://creativecommons.org/ns#" xmlns:dc="http://purl.org/dc/elements/1.1/" xmlns:inkscape="http://www.inkscape.org/namespaces/inkscape" xmlns:rdf="http://www.w3.org/1999/02/22-rdf-syntax-ns#" xmlns:sodipodi="http://sodipodi.sourceforge.net/DTD/sodipodi-0.dtd" xmlns:xlink="http://www.w3.org/1999/xlink" xmlns="http://www.w3.org/2000/svg" version="1.1" id="svg2" xml:space="preserve" width="24.442666px" height="30.037333px" viewBox="0 0 24.442666 30.037333" sodipodi:docname="step128.svg" inkscape:version="0.92.1 r15371">
  <sodipodi:namedview pagecolor="#ffffff" bordercolor="#666666" borderopacity="1" objecttolerance="10" gridtolerance="10" guidetolerance="10" inkscape:pageopacity="0" inkscape:pageshadow="2" inkscape:window-width="1920" inkscape:window-height="1017" id="namedview4" showgrid="false" showguides="true" inkscape:zoom="1.3537284" inkscape:cx="-12.225439" inkscape:cy="865.87954" inkscape:window-x="1912" inkscape:window-y="-8" inkscape:window-maximized="1" inkscape:current-layer="g10"/>
  <metadata id="metadata8">
    <rdf:RDF>
      <cc:Work rdf:about="">
        <dc:format>image/svg+xml</dc:format>
        <dc:type rdf:resource="http://purl.org/dc/dcmitype/StillImage"/>
        <dc:title/>
      </cc:Work>
    </rdf:RDF>
  </metadata>
  <g inkscape:groupmode="layer" inkscape:label="step" transform="matrix(1.333333,0.000000,0.000000,-1.333333,371.841340,755.190110)">
    <g id="g4973" transform="translate(-341.61051)" inkscape:label="128">
      <g id="g4943" transform="translate(69.7295,565.8926)">
        <path d="m 0,0 c 0.277,0 0.5,-0.224 0.5,-0.5 v -6 C 0.5,-6.776 0.277,-7 0,-7 h -6 c -0.275,0 -0.5,0.224 -0.5,0.5 0,0.276 0.225,0.5 0.5,0.5 h 5.5 v 5.5 C -0.5,-0.224 -0.275,0 0,0" style="fill:#545454;fill-opacity:1;fill-rule:nonzero;stroke:none" id="path4941" inkscape:connector-curvature="0"/>
      </g>
      <g id="g4947" transform="translate(79.0615,564.3926)">
        <path d="m 0,0 h -8.918 l -5.414,-5.414 V -18.528 H 0 Z M -9.332,2 H 1 C 1.553,2 2,1.553 2,1 v -20.528 c 0,-0.553 -0.447,-1 -1,-1 h -16.332 c -0.553,0 -1,0.447 -1,1 V -5 c 0,0.266 0.105,0.52 0.293,0.707 l 6,6 C -9.852,1.895 -9.598,2 -9.332,2" style="fill:#545454;fill-opacity:1;fill-rule:nonzero;stroke:none" id="path4945" inkscape:connector-curvature="0"/>
      </g>
      <g id="g4951" transform="translate(67.793,556.3857)">
        <path d="M 0,0 H 8.42" style="fill:#545454;fill-opacity:1;fill-rule:nonzero;stroke:none" id="path4949" inkscape:connector-curvature="0"/>
      </g>
      <g id="g4955" transform="translate(76.2139,555.8857)">
        <path d="m 0,0 h -8.421 c -0.276,0 -0.5,0.224 -0.5,0.5 0,0.276 0.224,0.5 0.5,0.5 H 0 C 0.276,1 0.5,0.776 0.5,0.5 0.5,0.224 0.276,0 0,0" style="fill:#4d4d4d;fill-opacity:1;fill-rule:nonzero;stroke:none" id="path4953" inkscape:connector-curvature="0"/>
      </g>
      <g id="g4959" transform="translate(67.793,553.0513)">
        <path d="M 0,0 H 8.42" style="fill:#545454;fill-opacity:1;fill-rule:nonzero;stroke:none" id="path4957" inkscape:connector-curvature="0"/>
      </g>
      <g id="g4963" transform="translate(76.2139,552.5508)">
        <path d="m 0,0 h -8.421 c -0.276,0 -0.5,0.224 -0.5,0.5 0,0.276 0.224,0.5 0.5,0.5 H 0 C 0.276,1 0.5,0.776 0.5,0.5 0.5,0.224 0.276,0 0,0" style="fill:#4d4d4d;fill-opacity:1;fill-rule:nonzero;stroke:none" id="path4961" inkscape:connector-curvature="0"/>
      </g>
      <g id="g4967" transform="translate(67.793,549.7168)">
        <path d="M 0,0 H 8.42" style="fill:#545454;fill-opacity:1;fill-rule:nonzero;stroke:none" id="path4965" inkscape:connector-curvature="0"/>
      </g>
      <g id="g4971" transform="translate(76.2139,549.2168)">
        <path d="m 0,0 h -8.421 c -0.276,0 -0.5,0.224 -0.5,0.5 0,0.276 0.224,0.5 0.5,0.5 H 0 C 0.276,1 0.5,0.776 0.5,0.5 0.5,0.224 0.276,0 0,0" style="fill:#4d4d4d;fill-opacity:1;fill-rule:nonzero;stroke:none" id="path4969" inkscape:connector-curvature="0"/>
      </g>
    </g>
  </g>
</svg>
