<?xml version='1.0' encoding='UTF-8'?>
<!-- Created with Inkscape (http://www.inkscape.org/) and export_objects.py -->
<svg xmlns:cc="http://creativecommons.org/ns#" xmlns:dc="http://purl.org/dc/elements/1.1/" xmlns:inkscape="http://www.inkscape.org/namespaces/inkscape" xmlns:rdf="http://www.w3.org/1999/02/22-rdf-syntax-ns#" xmlns:sodipodi="http://sodipodi.sourceforge.net/DTD/sodipodi-0.dtd" xmlns:xlink="http://www.w3.org/1999/xlink" xmlns="http://www.w3.org/2000/svg" version="1.1" sodipodi:docname="step056.svg" viewBox="0 0 27.202367 32.057333" height="32.057333px" width="27.202367px" xml:space="preserve" id="svg2" inkscape:version="0.92.1 r15371">
  <sodipodi:namedview inkscape:current-layer="g10" inkscape:window-maximized="1" inkscape:window-y="-8" inkscape:window-x="1912" inkscape:cy="-862.22917" inkscape:cx="2456.2254" inkscape:zoom="0.3015625" showgrid="false" id="namedview4" inkscape:window-height="1017" inkscape:window-width="1920" inkscape:pageshadow="2" inkscape:pageopacity="0" guidetolerance="10" gridtolerance="10" objecttolerance="10" borderopacity="1" bordercolor="#666666" pagecolor="#ffffff"/>
  <metadata id="metadata8">
    <rdf:RDF>
      <cc:Work rdf:about="">
        <dc:format>image/svg+xml</dc:format>
        <dc:type rdf:resource="http://purl.org/dc/dcmitype/StillImage"/>
        <dc:title/>
      </cc:Work>
    </rdf:RDF>
  </metadata>
  <g inkscape:groupmode="layer" inkscape:label="step" transform="matrix(1.333333,0.000000,0.000000,-1.333333,-1279.869600,-1165.993800)">
    <g id="g8989" inkscape:label="056">
      <g transform="translate(962.98275,-887.0414)" id="g518">
        <path inkscape:connector-curvature="0" id="path520" style="fill:#545454;fill-opacity:1;fill-rule:nonzero;stroke:none" d="M 0,0 7.121,-8.896 14.24,0 h -2.752 c -0.552,0 -1,0.447 -1,1 v 9.546 H 3.754 V 1 c 0,-0.553 -0.447,-1 -1,-1 z m 7.121,-11.497 c -0.305,0 -0.592,0.138 -0.781,0.375 L -2.861,0.375 C -3.102,0.676 -3.148,1.087 -2.982,1.433 -2.814,1.779 -2.465,2 -2.08,2 h 3.834 v 9.546 c 0,0.553 0.447,1 1,1 h 8.734 c 0.553,0 1,-0.447 1,-1 V 2 h 3.834 C 16.707,2 17.057,1.779 17.223,1.433 17.389,1.087 17.342,0.676 17.102,0.375 L 7.9,-11.122 c -0.189,-0.237 -0.476,-0.375 -0.779,-0.375"/>
      </g>
    </g>
  </g>
</svg>
