<?xml version='1.0' encoding='UTF-8'?>
<!-- Created with Inkscape (http://www.inkscape.org/) and export_objects.py -->
<svg xmlns:cc="http://creativecommons.org/ns#" xmlns:dc="http://purl.org/dc/elements/1.1/" xmlns:inkscape="http://www.inkscape.org/namespaces/inkscape" xmlns:rdf="http://www.w3.org/1999/02/22-rdf-syntax-ns#" xmlns:sodipodi="http://sodipodi.sourceforge.net/DTD/sodipodi-0.dtd" xmlns:xlink="http://www.w3.org/1999/xlink" xmlns="http://www.w3.org/2000/svg" version="1.1" sodipodi:docname="step00097.svg" viewBox="0 0 31.338666 31.341333" height="31.341333px" width="31.338666px" xml:space="preserve" id="svg2" inkscape:version="0.92.1 r15371">
  <sodipodi:namedview inkscape:current-layer="g10" inkscape:window-maximized="1" inkscape:window-y="-8" inkscape:window-x="1912" inkscape:cy="-1143.7013" inkscape:cx="1605.8106" inkscape:zoom="1.20625" showgrid="false" id="namedview4" inkscape:window-height="1017" inkscape:window-width="1920" inkscape:pageshadow="2" inkscape:pageopacity="0" guidetolerance="10" gridtolerance="10" objecttolerance="10" borderopacity="1" bordercolor="#666666" pagecolor="#ffffff"/>
  <metadata id="metadata8">
    <rdf:RDF>
      <cc:Work rdf:about="">
        <dc:format>image/svg+xml</dc:format>
        <dc:type rdf:resource="http://purl.org/dc/dcmitype/StillImage"/>
        <dc:title/>
      </cc:Work>
    </rdf:RDF>
  </metadata>
  <g inkscape:groupmode="layer" inkscape:label="step" transform="matrix(1.333333,0.000000,0.000000,-1.333333,-1438.455600,-1163.885700)">
    <g id="g5919" inkscape:label="00097">
      <g id="g8979">
        <g id="g1598" transform="translate(1083.8304,-881.7875)">
          <path d="m 0,0 c 0,0.256 0.098,0.512 0.293,0.707 0.39,0.391 1.023,0.391 1.414,0 l 5.058,-5.053 5.054,5.053 c 0.391,0.391 1.024,0.391 1.414,0 0.391,-0.391 0.391,-1.023 0,-1.414 l -5.761,-5.76 c -0.391,-0.39 -1.024,-0.39 -1.414,0 l -5.765,5.76 C 0.098,-0.512 0,-0.256 0,0" style="fill:#545454;fill-opacity:1;fill-rule:nonzero;stroke:none" id="path1600" inkscape:connector-curvature="0"/>
        </g>
      </g>
      <path inkscape:connector-curvature="0" id="path1602" style="fill:#545454;fill-opacity:1;fill-rule:nonzero;stroke:none" d="m 1080.9477,-894.3153 h 19.293 v 19.295 h -19.293 z m -2.106,-1.052 v 21.4 c 0,0.58 0.472,1.053 1.053,1.053 h 21.399 c 0.581,0 1.052,-0.473 1.052,-1.053 v -21.4 c 0,-0.582 -0.471,-1.053 -1.052,-1.053 h -21.399 c -0.581,0 -1.053,0.471 -1.053,1.053"/>
    </g>
  </g>
</svg>
