<?xml version='1.0' encoding='UTF-8'?>
<!-- Created with Inkscape (http://www.inkscape.org/) and export_objects.py -->
<svg xmlns:cc="http://creativecommons.org/ns#" xmlns:dc="http://purl.org/dc/elements/1.1/" xmlns:inkscape="http://www.inkscape.org/namespaces/inkscape" xmlns:rdf="http://www.w3.org/1999/02/22-rdf-syntax-ns#" xmlns:sodipodi="http://sodipodi.sourceforge.net/DTD/sodipodi-0.dtd" xmlns:xlink="http://www.w3.org/1999/xlink" xmlns="http://www.w3.org/2000/svg" version="1.1" sodipodi:docname="step014.svg" viewBox="0 0 30.668496 31.441466" height="31.441466px" width="30.668496px" xml:space="preserve" id="svg2" inkscape:version="0.92.1 r15371">
  <sodipodi:namedview inkscape:current-layer="g10" inkscape:window-maximized="1" inkscape:window-y="-8" inkscape:window-x="-8" inkscape:cy="-703.13596" inkscape:cx="825.3699" inkscape:zoom="0.42647378" showgrid="false" id="namedview4" inkscape:window-height="1137" inkscape:window-width="1920" inkscape:pageshadow="2" inkscape:pageopacity="0" guidetolerance="10" gridtolerance="10" objecttolerance="10" borderopacity="1" bordercolor="#666666" pagecolor="#ffffff"/>
  <metadata id="metadata8">
    <rdf:RDF>
      <cc:Work rdf:about="">
        <dc:format>image/svg+xml</dc:format>
        <dc:type rdf:resource="http://purl.org/dc/dcmitype/StillImage"/>
        <dc:title/>
      </cc:Work>
    </rdf:RDF>
  </metadata>
  <g inkscape:groupmode="layer" inkscape:label="step" transform="matrix(1.333333,0.000000,0.000000,-1.333333,-702.523780,-123.436700)">
    <g id="g8211" inkscape:label="014">
      <g transform="translate(538.39285,-105.3295)" id="g522">
        <path inkscape:connector-curvature="0" id="path524" style="fill:#545454;fill-opacity:1;fill-rule:nonzero;stroke:none" d="m 0,0 c -0.207,0 -0.414,0.064 -0.588,0.191 l -5.367,3.906 c -0.447,0.324 -0.547,0.95 -0.221,1.397 0.322,0.446 0.949,0.547 1.397,0.22 L 0,2.237 4.781,5.714 C 5.229,6.04 5.854,5.94 6.178,5.494 6.502,5.047 6.404,4.421 5.957,4.097 L 0.588,0.191 C 0.412,0.064 0.205,0 0,0"/>
      </g>
      <g transform="translate(538.39285,-105.3295)" id="g526">
        <path inkscape:connector-curvature="0" id="path528" style="fill:#545454;fill-opacity:1;fill-rule:nonzero;stroke:none" d="m 0,0 c -0.553,0 -1,0.448 -1,1 v 10.752 c 0,0.552 0.447,1 1,1 0.553,0 1,-0.448 1,-1 V 1 C 1,0.448 0.553,0 0,0"/>
      </g>
      <g transform="translate(528.89285,-114.1586)" id="g530">
        <path inkscape:connector-curvature="0" id="path532" style="fill:#545454;fill-opacity:1;fill-rule:nonzero;stroke:none" d="M 0,0 H 19 V 5.079 H 14.5 V 4.665 c 0,-1.103 -0.896,-2 -2,-2 h -6 c -1.102,0 -2,0.897 -2,2 V 5.079 H 0 Z M 20,-2 H -1 c -0.553,0 -1,0.448 -1,1 v 7.079 c 0,0.552 0.447,1 1,1 h 6.5 c 0.553,0 1,-0.448 1,-1 V 4.665 h 6 v 1.414 c 0,0.552 0.447,1 1,1 H 20 c 0.553,0 1,-0.448 1,-1 V -1 c 0,-0.552 -0.447,-1 -1,-1"/>
      </g>
      <g transform="translate(527.89285,-109.0795)" id="g534">
        <path inkscape:connector-curvature="0" id="path536" style="fill:#545454;fill-opacity:1;fill-rule:nonzero;stroke:none" d="m 0,0 c -0.25,0 -0.502,0.094 -0.695,0.282 -0.397,0.385 -0.407,1.017 -0.022,1.414 l 4.041,4.17 C 3.711,6.264 4.344,6.271 4.738,5.888 5.135,5.503 5.145,4.871 4.76,4.474 L 0.719,0.304 C 0.521,0.102 0.262,0 0,0"/>
      </g>
      <g transform="translate(548.89285,-109.0795)" id="g538">
        <path inkscape:connector-curvature="0" id="path540" style="fill:#545454;fill-opacity:1;fill-rule:nonzero;stroke:none" d="m 0,0 c -0.26,0 -0.521,0.102 -0.717,0.304 l -4.043,4.17 c -0.385,0.397 -0.375,1.029 0.022,1.414 0.396,0.383 1.029,0.376 1.414,-0.022 L 0.719,1.696 C 1.104,1.299 1.094,0.667 0.697,0.282 0.502,0.094 0.252,0 0,0"/>
      </g>
    </g>
  </g>
</svg>
