<?xml version='1.0' encoding='UTF-8'?>
<!-- Created with Inkscape (http://www.inkscape.org/) and export_objects.py -->
<svg xmlns:cc="http://creativecommons.org/ns#" xmlns:dc="http://purl.org/dc/elements/1.1/" xmlns:inkscape="http://www.inkscape.org/namespaces/inkscape" xmlns:rdf="http://www.w3.org/1999/02/22-rdf-syntax-ns#" xmlns:sodipodi="http://sodipodi.sourceforge.net/DTD/sodipodi-0.dtd" xmlns:xlink="http://www.w3.org/1999/xlink" xmlns="http://www.w3.org/2000/svg" version="1.1" sodipodi:docname="step019.svg" viewBox="0 0 32.792864 32.791999" height="32.791999px" width="32.792864px" xml:space="preserve" id="svg2" inkscape:version="0.92.1 r15371">
  <sodipodi:namedview inkscape:current-layer="g10" inkscape:window-maximized="1" inkscape:window-y="-8" inkscape:window-x="-8" inkscape:cy="-703.13596" inkscape:cx="825.3699" inkscape:zoom="0.42647378" showgrid="false" id="namedview4" inkscape:window-height="1137" inkscape:window-width="1920" inkscape:pageshadow="2" inkscape:pageopacity="0" guidetolerance="10" gridtolerance="10" objecttolerance="10" borderopacity="1" bordercolor="#666666" pagecolor="#ffffff"/>
  <metadata id="metadata8">
    <rdf:RDF>
      <cc:Work rdf:about="">
        <dc:format>image/svg+xml</dc:format>
        <dc:type rdf:resource="http://purl.org/dc/dcmitype/StillImage"/>
        <dc:title/>
      </cc:Work>
    </rdf:RDF>
  </metadata>
  <g inkscape:groupmode="layer" inkscape:label="step" transform="matrix(1.333333,0.000000,0.000000,-1.333333,-699.603450,-762.607000)">
    <g id="g8467" inkscape:label="019">
      <g transform="translate(527.00025,-594.2513)" id="g718">
        <path inkscape:connector-curvature="0" id="path720" style="fill:#545454;fill-opacity:1;fill-rule:nonzero;stroke:none" d="M 0,0 8.332,-0.283 19.883,11.267 11.268,19.881 -0.283,8.332 Z m 8.732,-2.298 c -0.011,0 -0.023,0 -0.035,10e-4 l -9.699,0.33 c -0.525,0.018 -0.947,0.44 -0.965,0.965 l -0.33,9.699 c -0.01,0.278 0.096,0.546 0.293,0.741 l 12.565,12.564 c 0.187,0.187 0.441,0.294 0.707,0.294 0.265,0 0.519,-0.107 0.707,-0.294 L 22.004,11.973 c 0.187,-0.188 0.293,-0.442 0.293,-0.706 0,-0.266 -0.106,-0.521 -0.293,-0.708 L 9.439,-2.004 C 9.252,-2.192 8.996,-2.298 8.732,-2.298"/>
      </g>
      <g transform="translate(545.12525,-585.6429)" id="g722">
        <path inkscape:connector-curvature="0" id="path724" style="fill:#545454;fill-opacity:1;fill-rule:nonzero;stroke:none" d="m 0,0 c -0.129,0 -0.256,0.05 -0.354,0.146 l -9.015,9.016 c -0.195,0.196 -0.195,0.513 0,0.708 0.195,0.194 0.512,0.194 0.707,0 L 0.354,0.854 C 0.549,0.658 0.549,0.342 0.354,0.146 0.256,0.05 0.127,0 0,0"/>
      </g>
      <g transform="translate(537.48075,-593.4349)" id="g726">
        <path inkscape:connector-curvature="0" id="path728" style="fill:#545454;fill-opacity:1;fill-rule:nonzero;stroke:none" d="M 0,0 C -0.129,0 -0.256,0.05 -0.354,0.146 -1.25,1.042 -2.617,1.247 -3.752,0.655 -3.943,0.555 -4.182,0.591 -4.336,0.746 -4.49,0.9 -4.527,1.137 -4.426,1.33 c 0.592,1.137 0.387,2.502 -0.51,3.399 -0.896,0.894 -2.259,1.1 -3.396,0.509 -0.191,-0.102 -0.43,-0.065 -0.584,0.09 -0.154,0.153 -0.191,0.39 -0.09,0.584 0.59,1.136 0.385,2.501 -0.51,3.397 -0.195,0.196 -0.195,0.512 0,0.708 0.196,0.195 0.512,0.195 0.707,0 0.94,-0.941 1.315,-2.262 1.059,-3.522 1.26,0.257 2.582,-0.12 3.521,-1.06 0.94,-0.94 1.317,-2.262 1.061,-3.522 1.26,0.259 2.58,-0.119 3.522,-1.059 0.195,-0.195 0.195,-0.512 0,-0.708 C 0.256,0.05 0.127,0 0,0"/>
      </g>
      <g transform="translate(529.43775,-587.3939)" id="g730">
        <path inkscape:connector-curvature="0" id="path732" style="fill:#545454;fill-opacity:1;fill-rule:nonzero;stroke:none" d="m 0,0 c -0.129,0 -0.256,0.048 -0.354,0.146 -0.195,0.196 -0.195,0.511 0,0.707 L 8.014,9.22 c 0.195,0.195 0.511,0.195 0.707,0 0.195,-0.195 0.195,-0.511 0,-0.706 L 0.354,0.146 C 0.256,0.048 0.127,0 0,0"/>
      </g>
      <g transform="translate(534.15065,-592.1097)" id="g734">
        <path inkscape:connector-curvature="0" id="path736" style="fill:#545454;fill-opacity:1;fill-rule:nonzero;stroke:none" d="m 0,0 c -0.129,0 -0.256,0.05 -0.354,0.146 -0.195,0.196 -0.195,0.512 0,0.708 l 8.368,8.367 c 0.195,0.196 0.511,0.196 0.707,0 0.195,-0.196 0.195,-0.512 0,-0.707 L 0.354,0.146 C 0.256,0.05 0.127,0 0,0"/>
      </g>
      <g transform="translate(526.51595,-594.7347)" id="g738">
        <path inkscape:connector-curvature="0" id="path740" style="fill:#545454;fill-opacity:1;fill-rule:nonzero;stroke:none" d="m 0,0 3.588,-0.121 v 0.004 c 0,2.083 -1.652,3.787 -3.715,3.871 z m 4.035,-1.138 c -0.006,0 -0.012,0 -0.017,10e-4 L -0.5,-0.983 c -0.262,0.008 -0.475,0.219 -0.482,0.482 l -0.161,4.705 c -0.009,0.267 0.194,0.493 0.459,0.516 l 0.11,0.013 c 0.094,0.013 0.189,0.025 0.287,0.025 2.687,0 4.875,-2.188 4.875,-4.875 0,-0.16 -0.02,-0.314 -0.041,-0.467 L 4.531,-0.699 C 4.5,-0.95 4.285,-1.138 4.035,-1.138"/>
      </g>
    </g>
  </g>
</svg>
