<?xml version='1.0' encoding='UTF-8'?>
<!-- Created with Inkscape (http://www.inkscape.org/) and export_objects.py -->
<svg xmlns:cc="http://creativecommons.org/ns#" xmlns:dc="http://purl.org/dc/elements/1.1/" xmlns:inkscape="http://www.inkscape.org/namespaces/inkscape" xmlns:rdf="http://www.w3.org/1999/02/22-rdf-syntax-ns#" xmlns:sodipodi="http://sodipodi.sourceforge.net/DTD/sodipodi-0.dtd" xmlns:xlink="http://www.w3.org/1999/xlink" xmlns="http://www.w3.org/2000/svg" version="1.1" sodipodi:docname="step031.svg" viewBox="0 0 30.897438 32.333333" height="32.333333px" width="30.897438px" xml:space="preserve" id="svg2" inkscape:version="0.92.1 r15371">
  <sodipodi:namedview inkscape:current-layer="g10" inkscape:window-maximized="1" inkscape:window-y="-8" inkscape:window-x="-8" inkscape:cy="-703.13596" inkscape:cx="825.3699" inkscape:zoom="0.42647378" showgrid="false" id="namedview4" inkscape:window-height="1137" inkscape:window-width="1920" inkscape:pageshadow="2" inkscape:pageopacity="0" guidetolerance="10" gridtolerance="10" objecttolerance="10" borderopacity="1" bordercolor="#666666" pagecolor="#ffffff"/>
  <metadata id="metadata8">
    <rdf:RDF>
      <cc:Work rdf:about="">
        <dc:format>image/svg+xml</dc:format>
        <dc:type rdf:resource="http://purl.org/dc/dcmitype/StillImage"/>
        <dc:title/>
      </cc:Work>
    </rdf:RDF>
  </metadata>
  <g inkscape:groupmode="layer" inkscape:label="step" transform="matrix(1.333333,0.000000,0.000000,-1.333333,-779.286850,-765.145000)">
    <g id="g8483" inkscape:label="031">
      <g transform="translate(601.96515,-598.1088)" id="g1316">
        <path inkscape:connector-curvature="0" id="path1318" style="fill:#545454;fill-opacity:1;fill-rule:nonzero;stroke:none" d="m 0,0 h -16.5 c -0.553,0 -1,0.447 -1,1 v 21.25 c 0,0.553 0.447,1 1,1 H 0 c 0.553,0 1,-0.447 1,-1 v -6.375 c 0,-0.553 -0.447,-1 -1,-1 -0.553,0 -1,0.447 -1,1 V 21.25 H -15.5 V 2 H -1 v 8.084 c 0,0.553 0.447,1 1,1 0.553,0 1,-0.447 1,-1 V 1 C 1,0.447 0.553,0 0,0"/>
      </g>
      <g transform="translate(590.34015,-575.8588)" id="g1320">
        <path inkscape:connector-curvature="0" id="path1322" style="fill:#545454;fill-opacity:1;fill-rule:nonzero;stroke:none" d="m 0,0 c -0.068,0 -0.125,-0.056 -0.125,-0.125 0,-0.069 0.057,-0.125 0.125,-0.125 h 6.75 c 0.07,0 0.125,0.056 0.125,0.125 C 6.875,-0.056 6.82,0 6.75,0 Z M 6.75,-2.25 H 0 c -1.172,0 -2.125,0.953 -2.125,2.125 C -2.125,1.047 -1.172,2 0,2 H 6.75 C 7.922,2 8.875,1.047 8.875,-0.125 8.875,-1.297 7.922,-2.25 6.75,-2.25"/>
      </g>
      <g transform="translate(593.30695,-590.8324)" id="g1324">
        <path inkscape:connector-curvature="0" id="path1326" style="fill:#545454;fill-opacity:1;fill-rule:nonzero;stroke:none" d="M 0,0 1.74,-0.225 11.941,6.735 10.627,8.662 0.428,1.703 Z m 1.99,-2.265 c -0.041,0 -0.084,0.003 -0.127,0.008 l -3.234,0.416 c -0.283,0.037 -0.537,0.193 -0.699,0.429 -0.16,0.236 -0.213,0.529 -0.143,0.807 l 0.793,3.164 c 0.059,0.237 0.203,0.445 0.406,0.583 l 11.34,7.737 c 0.221,0.149 0.488,0.205 0.75,0.156 0.262,-0.049 0.49,-0.2 0.641,-0.42 L 14.156,7.038 C 14.307,6.818 14.363,6.549 14.314,6.288 14.266,6.027 14.115,5.797 13.895,5.647 L 2.555,-2.091 C 2.387,-2.204 2.191,-2.265 1.99,-2.265"/>
      </g>
      <g transform="translate(604.67605,-585.934)" id="g1328">
        <path inkscape:connector-curvature="0" id="path1330" style="fill:#545454;fill-opacity:1;fill-rule:nonzero;stroke:none" d="M 0,0 C -0.158,0 -0.316,0.076 -0.412,0.218 L -2.609,3.436 C -2.764,3.664 -2.705,3.975 -2.479,4.131 -2.248,4.285 -1.937,4.229 -1.783,4 L 0.414,0.782 C 0.568,0.554 0.51,0.243 0.283,0.087 0.195,0.028 0.098,0 0,0"/>
      </g>
      <g transform="translate(594.66825,-590.4027)" id="g1332">
        <path inkscape:connector-curvature="0" id="path1334" style="fill:#545454;fill-opacity:1;fill-rule:nonzero;stroke:none" d="m 0,0 c -0.158,0 -0.316,0.076 -0.412,0.218 -0.156,0.228 -0.098,0.54 0.131,0.695 L 8.572,6.952 C 8.803,7.105 9.111,7.049 9.268,6.821 9.422,6.593 9.363,6.281 9.137,6.126 L 0.283,0.087 C 0.195,0.028 0.098,0 0,0"/>
      </g>
      <g transform="translate(592.55105,-590.1625)" id="g1336">
        <path inkscape:connector-curvature="0" id="path1338" style="fill:#545454;fill-opacity:1;fill-rule:nonzero;stroke:none" d="M 0,0 C -0.027,0 -0.053,-0.002 -0.08,-0.002 H -0.09 L -0.475,-1.537 1.031,-1.728 C 1.055,-1.675 1.08,-1.62 1.1,-1.562 1.32,-0.776 0.846,-0.08 0.033,-0.001 0.021,0 0.012,0 0,0"/>
      </g>
      <g transform="translate(592.69755,-591.2738)" id="g1340">
        <path inkscape:connector-curvature="0" id="path1342" style="fill:#545454;fill-opacity:1;fill-rule:nonzero;stroke:none" d="M 0,0 0.51,-0.064 C 0.508,0.071 0.469,0.203 0.395,0.313 0.33,0.406 0.242,0.481 0.135,0.533 Z m 0.885,-1.116 c -0.022,0 -0.043,0.001 -0.063,0.004 l -1.506,0.19 c -0.142,0.018 -0.269,0.096 -0.351,0.214 -0.08,0.118 -0.106,0.265 -0.072,0.403 l 0.384,1.535 c 0.059,0.228 0.289,0.39 0.498,0.379 0.002,0 0.159,-10e-4 0.159,-10e-4 0.545,-0.053 1,-0.312 1.287,-0.731 C 1.506,0.458 1.582,-0.062 1.434,-0.587 1.4,-0.687 1.369,-0.758 1.338,-0.826 1.256,-1.005 1.078,-1.116 0.885,-1.116"/>
      </g>
    </g>
  </g>
</svg>
