<?xml version='1.0' encoding='UTF-8'?>
<!-- Created with Inkscape (http://www.inkscape.org/) and export_objects.py -->
<svg xmlns:cc="http://creativecommons.org/ns#" xmlns:dc="http://purl.org/dc/elements/1.1/" xmlns:inkscape="http://www.inkscape.org/namespaces/inkscape" xmlns:rdf="http://www.w3.org/1999/02/22-rdf-syntax-ns#" xmlns:sodipodi="http://sodipodi.sourceforge.net/DTD/sodipodi-0.dtd" xmlns:xlink="http://www.w3.org/1999/xlink" xmlns="http://www.w3.org/2000/svg" version="1.1" sodipodi:docname="step040.svg" viewBox="0 0 34.560066 32.724533" height="32.724533px" width="34.560066px" xml:space="preserve" id="svg2" inkscape:version="0.92.1 r15371">
  <sodipodi:namedview inkscape:current-layer="g10" inkscape:window-maximized="1" inkscape:window-y="-8" inkscape:window-x="-8" inkscape:cy="-703.13596" inkscape:cx="825.3699" inkscape:zoom="0.42647378" showgrid="false" id="namedview4" inkscape:window-height="1137" inkscape:window-width="1920" inkscape:pageshadow="2" inkscape:pageopacity="0" guidetolerance="10" gridtolerance="10" objecttolerance="10" borderopacity="1" bordercolor="#666666" pagecolor="#ffffff"/>
  <metadata id="metadata8">
    <rdf:RDF>
      <cc:Work rdf:about="">
        <dc:format>image/svg+xml</dc:format>
        <dc:type rdf:resource="http://purl.org/dc/dcmitype/StillImage"/>
        <dc:title/>
      </cc:Work>
    </rdf:RDF>
  </metadata>
  <g inkscape:groupmode="layer" inkscape:label="step" transform="matrix(1.333333,0.000000,0.000000,-1.333333,-617.023380,-765.959600)">
    <g id="g8453" inkscape:label="040">
      <g transform="translate(474.37135,-590.9633)" id="g1702">
        <path inkscape:connector-curvature="0" id="path1704" style="fill:#545454;fill-opacity:1;fill-rule:nonzero;stroke:none" d="m 0,0 -0.127,-2.144 2.141,0.126 9.888,9.892 -2.015,2.016 z m -1.191,-4.208 c -0.264,0 -0.518,0.104 -0.707,0.293 -0.202,0.202 -0.307,0.48 -0.291,0.766 l 0.214,3.646 c 0.016,0.245 0.12,0.476 0.291,0.649 L 9.18,12.011 c 0.375,0.375 1.039,0.375 1.414,0 l 3.429,-3.43 c 0.391,-0.391 0.391,-1.023 0,-1.414 L 3.158,-3.7 C 2.986,-3.873 2.756,-3.977 2.51,-3.991 l -3.643,-0.215 c -0.019,-10e-4 -0.039,-0.002 -0.058,-0.002"/>
      </g>
      <g transform="translate(485.75415,-585.1791)" id="g1706">
        <path inkscape:connector-curvature="0" id="path1708" style="fill:#545454;fill-opacity:1;fill-rule:nonzero;stroke:none" d="M 0,0 C -0.127,0 -0.256,0.049 -0.354,0.146 L -3.438,3.23 c -0.195,0.196 -0.195,0.512 0,0.708 0.196,0.195 0.512,0.195 0.708,0 L 0.354,0.854 C 0.549,0.658 0.549,0.342 0.354,0.146 0.256,0.049 0.129,0 0,0"/>
      </g>
      <g transform="translate(473.75025,-591.6156)" id="g1710">
        <path inkscape:connector-curvature="0" id="path1712" style="fill:#545454;fill-opacity:1;fill-rule:nonzero;stroke:none" d="m 0,0 c -0.07,0 -0.139,-0.004 -0.211,-0.01 -0.07,-0.009 -0.129,-0.029 -0.193,-0.041 l -0.151,-2.522 2.422,0.146 c 0.022,0.092 0.045,0.184 0.057,0.281 C 2.033,-0.918 1.189,0 0,0"/>
      </g>
      <g transform="translate(478.98855,-599.0131)" id="g1714">
        <path inkscape:connector-curvature="0" id="path1716" style="fill:#545454;fill-opacity:1;fill-rule:nonzero;stroke:none" d="m 0,0 h -13.943 c -1.256,0 -2.278,1.022 -2.278,2.278 v 18.709 c 0,0.553 0.448,1 1,1 0.553,0 1,-0.447 1,-1 V 2.278 C -14.221,2.122 -14.098,2 -13.943,2 H 0 c 0.154,0 0.279,0.125 0.279,0.278 v 5.899 c 0,0.552 0.448,1 1,1 0.553,0 1,-0.448 1,-1 V 2.278 C 2.279,1.022 1.258,0 0,0"/>
      </g>
      <g transform="translate(480.26785,-584.5863)" id="g1718">
        <path inkscape:connector-curvature="0" id="path1720" style="fill:#545454;fill-opacity:1;fill-rule:nonzero;stroke:none" d="m 0,0 c -0.553,0 -1,0.447 -1,1 v 2.654 c 0,0.154 -0.125,0.279 -0.279,0.279 -0.553,0 -1,0.447 -1,1 0,0.552 0.447,1 1,1 C -0.021,5.933 1,4.91 1,3.654 V 1 C 1,0.447 0.553,0 0,0"/>
      </g>
      <g transform="translate(478.79525,-580.6527)" id="g1722">
        <path inkscape:connector-curvature="0" id="path1724" style="fill:#545454;fill-opacity:1;fill-rule:nonzero;stroke:none" d="m 0,0 h -12.938 c -1.703,0 -3.089,1.387 -3.089,3.091 0,1.705 1.386,3.092 3.089,3.092 H 1.473 c 0.552,0 1,-0.448 1,-1 0,-0.553 -0.448,-1 -1,-1 h -14.411 c -0.599,0 -1.089,-0.491 -1.089,-1.092 0,-0.602 0.49,-1.091 1.089,-1.091 L 0,2 C 0.553,2 1,1.553 1,1 1,0.447 0.553,0 0,0"/>
      </g>
      <g transform="translate(473.51595,-584.3363)" id="g1726">
        <path inkscape:connector-curvature="0" id="path1728" style="fill:#545454;fill-opacity:1;fill-rule:nonzero;stroke:none" d="m 0,0 h -6.125 c -0.275,0 -0.5,0.224 -0.5,0.5 0,0.276 0.225,0.5 0.5,0.5 H 0 C 0.277,1 0.5,0.776 0.5,0.5 0.5,0.224 0.277,0 0,0"/>
      </g>
      <g transform="translate(473.51595,-587.0863)" id="g1730">
        <path inkscape:connector-curvature="0" id="path1732" style="fill:#545454;fill-opacity:1;fill-rule:nonzero;stroke:none" d="m 0,0 h -6.125 c -0.275,0 -0.5,0.224 -0.5,0.5 0,0.276 0.225,0.5 0.5,0.5 H 0 C 0.277,1 0.5,0.776 0.5,0.5 0.5,0.224 0.277,0 0,0"/>
      </g>
    </g>
  </g>
</svg>
