<?xml version='1.0' encoding='UTF-8'?>
<!-- Created with Inkscape (http://www.inkscape.org/) and export_objects.py -->
<svg xmlns:cc="http://creativecommons.org/ns#" xmlns:dc="http://purl.org/dc/elements/1.1/" xmlns:inkscape="http://www.inkscape.org/namespaces/inkscape" xmlns:rdf="http://www.w3.org/1999/02/22-rdf-syntax-ns#" xmlns:sodipodi="http://sodipodi.sourceforge.net/DTD/sodipodi-0.dtd" xmlns:xlink="http://www.w3.org/1999/xlink" xmlns="http://www.w3.org/2000/svg" version="1.1" sodipodi:docname="step109.svg" viewBox="0 0 36.333332 33.333333" height="33.333333px" width="36.333332px" xml:space="preserve" id="svg2" inkscape:version="0.92.1 r15371">
  <sodipodi:namedview inkscape:current-layer="g10" inkscape:window-maximized="1" inkscape:window-y="-8" inkscape:window-x="1912" inkscape:cy="-862.22917" inkscape:cx="2456.2254" inkscape:zoom="0.3015625" showgrid="false" id="namedview4" inkscape:window-height="1017" inkscape:window-width="1920" inkscape:pageshadow="2" inkscape:pageopacity="0" guidetolerance="10" gridtolerance="10" objecttolerance="10" borderopacity="1" bordercolor="#666666" pagecolor="#ffffff"/>
  <metadata id="metadata8">
    <rdf:RDF>
      <cc:Work rdf:about="">
        <dc:format>image/svg+xml</dc:format>
        <dc:type rdf:resource="http://purl.org/dc/dcmitype/StillImage"/>
        <dc:title/>
      </cc:Work>
    </rdf:RDF>
  </metadata>
  <g inkscape:groupmode="layer" inkscape:label="step" transform="matrix(1.333333,0.000000,0.000000,-1.333333,-1278.202200,-1311.849400)">
    <g id="g9021" inkscape:label="109">
      <g transform="translate(960.65165,-985.8871)" id="g2040">
        <path inkscape:connector-curvature="0" id="path2042" style="fill:#545454;fill-opacity:1;fill-rule:nonzero;stroke:none" d="m 0,0 v -17.25 h 3.253 c 0.552,0 1,-0.447 1,-1 v -1.686 l 3.126,2.47 c 0.176,0.14 0.394,0.216 0.62,0.216 H 23.25 V 0 Z m 3.253,-23 c -0.149,0 -0.298,0.033 -0.437,0.1 -0.345,0.168 -0.563,0.516 -0.563,0.9 v 2.75 H 0 c -1.102,0 -2,0.897 -2,2 V 0 c 0,1.103 0.898,2 2,2 h 23.25 c 1.104,0 2,-0.897 2,-2 v -17.25 c 0,-1.103 -0.896,-2 -2,-2 H 8.346 L 3.874,-22.784 C 3.693,-22.927 3.473,-23 3.253,-23"/>
      </g>
      <g transform="translate(971.55695,-1001.4271)" id="g2044">
        <path inkscape:connector-curvature="0" id="path2046" style="fill:#545454;fill-opacity:1;fill-rule:nonzero;stroke:none" d="M 0,0 H -4.673 V 13.242 H 0 V 11.566 H -2.59 V 8.213 H 0 V 6.52 H -2.59 V 1.728 H 0 Z"/>
      </g>
      <g transform="translate(977.67025,-1001.4271)" id="g2048">
        <path inkscape:connector-curvature="0" id="path2050" style="fill:#545454;fill-opacity:1;fill-rule:nonzero;stroke:none" d="M 0,0 H -1.777 L -3.471,8.619 C -3.369,7.265 -3.318,6.102 -3.318,5.131 V 0 h -1.864 v 13.242 h 1.711 L -1.71,4.505 C -1.812,6.401 -1.862,7.66 -1.862,8.281 v 4.961 H 0 Z"/>
      </g>
    </g>
  </g>
</svg>
