<?xml version='1.0' encoding='UTF-8'?>
<!-- Created with Inkscape (http://www.inkscape.org/) and export_objects.py -->
<svg xmlns:cc="http://creativecommons.org/ns#" xmlns:dc="http://purl.org/dc/elements/1.1/" xmlns:inkscape="http://www.inkscape.org/namespaces/inkscape" xmlns:rdf="http://www.w3.org/1999/02/22-rdf-syntax-ns#" xmlns:sodipodi="http://sodipodi.sourceforge.net/DTD/sodipodi-0.dtd" xmlns:xlink="http://www.w3.org/1999/xlink" xmlns="http://www.w3.org/2000/svg" version="1.1" sodipodi:docname="step007.svg" viewBox="0 0 24.442666 30.037333" height="30.037333px" width="24.442666px" xml:space="preserve" id="svg2" inkscape:version="0.92.1 r15371">
  <sodipodi:namedview inkscape:current-layer="g10" inkscape:window-maximized="1" inkscape:window-y="-8" inkscape:window-x="-8" inkscape:cy="-324.59921" inkscape:cx="788.4647" inkscape:zoom="0.42647378" showgrid="false" id="namedview4" inkscape:window-height="1137" inkscape:window-width="1920" inkscape:pageshadow="2" inkscape:pageopacity="0" guidetolerance="10" gridtolerance="10" objecttolerance="10" borderopacity="1" bordercolor="#666666" pagecolor="#ffffff"/>
  <metadata id="metadata8">
    <rdf:RDF>
      <cc:Work rdf:about="">
        <dc:format>image/svg+xml</dc:format>
        <dc:type rdf:resource="http://purl.org/dc/dcmitype/StillImage"/>
        <dc:title/>
      </cc:Work>
    </rdf:RDF>
  </metadata>
  <g inkscape:groupmode="layer" inkscape:label="step" transform="matrix(1.333333,0.000000,0.000000,-1.333333,-108.161940,-443.625900)">
    <g id="g8131" inkscape:label="00007">
      <g transform="translate(92.453454,-354.7474)" id="g2322">
        <path inkscape:connector-curvature="0" id="path2324" style="fill:#545454;fill-opacity:1;fill-rule:nonzero;stroke:none" d="m 0,0 c -0.277,0 -0.5,0.224 -0.5,0.5 v 6 C -0.5,6.776 -0.277,7 0,7 H 6 C 6.275,7 6.5,6.776 6.5,6.5 6.5,6.224 6.275,6 6,6 H 0.5 V 0.5 C 0.5,0.224 0.275,0 0,0"/>
      </g>
      <g transform="translate(92.453454,-355.2474)" id="g2326">
        <path inkscape:connector-curvature="0" id="path2328" style="fill:#545454;fill-opacity:1;fill-rule:nonzero;stroke:none" d="m 0,0 h -10.332 c -0.553,0 -1,0.447 -1,1 v 6 c 0,0.553 0.447,1 1,1 0.553,0 1,-0.447 1,-1 V 2 h 8.918 L 5,7.414 v 13.114 h -15.332 c -0.553,0 -1,0.448 -1,1 0,0.553 0.447,1 1,1 H 6 c 0.553,0 1,-0.447 1,-1 V 7 C 7,6.734 6.895,6.48 6.707,6.293 l -6,-6 C 0.52,0.105 0.266,0 0,0"/>
      </g>
      <g transform="translate(83.121354,-341.7352)" id="g2330">
        <path inkscape:connector-curvature="0" id="path2332" style="fill:#545454;fill-opacity:1;fill-rule:nonzero;stroke:none" d="M 0,0 V 1.278 C 0,1.59 -0.089,1.747 -0.266,1.747 -0.451,1.747 -0.543,1.59 -0.543,1.278 V 0 Z m 1.129,-2.651 c 0,-1.051 -0.467,-1.576 -1.4,-1.576 -0.934,0 -1.401,0.525 -1.401,1.576 v 3.705 c 0,1.051 0.467,1.576 1.401,1.576 0.933,0 1.4,-0.525 1.4,-1.576 v -1.885 h -1.672 v -2.002 c 0,-0.312 0.092,-0.468 0.277,-0.468 0.177,0 0.266,0.156 0.266,0.468 v 0.938 h 1.129 z"/>
      </g>
      <g transform="translate(86.965154,-339.9784)" id="g2334">
        <path inkscape:connector-curvature="0" id="path2336" style="fill:#545454;fill-opacity:1;fill-rule:nonzero;stroke:none" d="m 0,0 v 0.692 c 0,0.277 -0.043,0.469 -0.127,0.576 -0.086,0.106 -0.242,0.159 -0.469,0.159 h -0.117 v -2.268 h 0.117 c 0.227,0 0.383,0.064 0.469,0.192 C -0.043,-0.521 0,-0.305 0,0 m 1.311,-0.287 c 0,-0.554 -0.124,-0.955 -0.369,-1.204 -0.245,-0.248 -0.643,-0.372 -1.198,-0.372 h -0.457 v -4.025 h -1.31 v 8.326 h 1.821 c 0.54,0 0.927,-0.106 1.161,-0.319 C 1.193,1.906 1.311,1.548 1.311,1.044 Z"/>
      </g>
      <g transform="translate(92.320654,-344.0033)" id="g2338">
        <path inkscape:connector-curvature="0" id="path2340" style="fill:#545454;fill-opacity:1;fill-rule:nonzero;stroke:none" d="m 0,0 c 0,-1.306 -0.557,-1.959 -1.671,-1.959 -1.122,0 -1.683,0.653 -1.683,1.959 v 6.463 h 1.31 v -6.761 c 0,-0.22 0.022,-0.369 0.064,-0.447 0.05,-0.1 0.153,-0.15 0.309,-0.15 0.15,0 0.248,0.05 0.298,0.15 0.043,0.078 0.064,0.227 0.064,0.447 V 6.463 H 0 Z"/>
      </g>
      <g transform="translate(94.994454,-344.0243)" id="g2342">
        <path inkscape:connector-curvature="0" id="path2344" style="fill:#545454;fill-opacity:1;fill-rule:nonzero;stroke:none" d="m 0,0 v 1.661 c 0,0.277 -0.043,0.47 -0.129,0.58 -0.085,0.11 -0.24,0.165 -0.469,0.165 h -0.116 v -3.237 h 0.074 c 0.029,-0.007 0.05,-0.01 0.064,-0.01 C -0.192,-0.841 0,-0.561 0,0 m 0,4.27 v 0.468 c 0,0.277 -0.043,0.47 -0.129,0.58 -0.085,0.111 -0.24,0.165 -0.469,0.165 H -0.714 V 3.429 H -0.64 C -0.611,3.421 -0.59,3.418 -0.576,3.418 -0.192,3.418 0,3.702 0,4.27 m 1.33,-4.707 c 0,-0.937 -0.49,-1.405 -1.469,-1.405 H -2.002 V 6.484 H -0.15 C 0.348,6.484 0.703,6.385 0.92,6.187 1.137,5.988 1.245,5.647 1.245,5.164 V 4.11 C 1.245,3.393 0.879,2.999 0.148,2.928 0.937,2.864 1.33,2.47 1.33,1.746 Z"/>
      </g>
    </g>
  </g>
</svg>
