<?xml version='1.0' encoding='UTF-8'?>
<!-- Created with Inkscape (http://www.inkscape.org/) and export_objects.py -->
<svg xmlns:cc="http://creativecommons.org/ns#" xmlns:dc="http://purl.org/dc/elements/1.1/" xmlns:inkscape="http://www.inkscape.org/namespaces/inkscape" xmlns:rdf="http://www.w3.org/1999/02/22-rdf-syntax-ns#" xmlns:sodipodi="http://sodipodi.sourceforge.net/DTD/sodipodi-0.dtd" xmlns:xlink="http://www.w3.org/1999/xlink" xmlns="http://www.w3.org/2000/svg" version="1.1" sodipodi:docname="step065.svg" viewBox="0 0 23.073333 30.885999" height="30.885999px" width="23.073333px" xml:space="preserve" id="svg2" inkscape:version="0.92.1 r15371">
  <sodipodi:namedview inkscape:current-layer="g10" inkscape:window-maximized="1" inkscape:window-y="-8" inkscape:window-x="1912" inkscape:cy="-862.22917" inkscape:cx="2456.2254" inkscape:zoom="0.3015625" showgrid="false" id="namedview4" inkscape:window-height="1017" inkscape:window-width="1920" inkscape:pageshadow="2" inkscape:pageopacity="0" guidetolerance="10" gridtolerance="10" objecttolerance="10" borderopacity="1" bordercolor="#666666" pagecolor="#ffffff"/>
  <metadata id="metadata8">
    <rdf:RDF>
      <cc:Work rdf:about="">
        <dc:format>image/svg+xml</dc:format>
        <dc:type rdf:resource="http://purl.org/dc/dcmitype/StillImage"/>
        <dc:title/>
      </cc:Work>
    </rdf:RDF>
  </metadata>
  <g inkscape:groupmode="layer" inkscape:label="step" transform="matrix(1.333333,0.000000,0.000000,-1.333333,-1283.833200,-283.560400)">
    <g id="g8752" inkscape:label="065">
      <path inkscape:connector-curvature="0" id="path778" style="fill:#545454;fill-opacity:1;fill-rule:nonzero;stroke:none" d="m 972.02765,-234.1703 h -1 v 10 h 1 z"/>
      <g transform="translate(971.52765,-223.6698)" id="g780">
        <path inkscape:connector-curvature="0" id="path782" style="fill:#545454;fill-opacity:1;fill-rule:nonzero;stroke:none" d="m 0,0 c -0.598,0 -1.082,-0.484 -1.082,-1.083 0,-0.599 0.484,-1.083 1.082,-1.083 0.598,0 1.084,0.484 1.084,1.083 C 1.084,-0.484 0.598,0 0,0"/>
      </g>
      <path inkscape:connector-curvature="0" id="path784" style="fill:#545454;fill-opacity:1;fill-rule:nonzero;stroke:none" d="m 977.86165,-214.6703 h -12.666 v 2 h 12.666 z"/>
      <g transform="translate(965.22095,-225.5458)" id="g786">
        <path inkscape:connector-curvature="0" id="path788" style="fill:#545454;fill-opacity:1;fill-rule:nonzero;stroke:none" d="M 0,0 6.307,-8.063 12.613,0 9.541,6.312 V 8.376 H 3.074 V 6.313 Z M 7.105,-10.289 H 5.51 l -7.856,10.041 3.42,7.022 v 3.602 H 11.541 V 6.773 l 3.418,-7.021 z"/>
      </g>
    </g>
  </g>
</svg>
