<?xml version='1.0' encoding='UTF-8'?>
<!-- Created with Inkscape (http://www.inkscape.org/) and export_objects.py -->
<svg xmlns:cc="http://creativecommons.org/ns#" xmlns:dc="http://purl.org/dc/elements/1.1/" xmlns:inkscape="http://www.inkscape.org/namespaces/inkscape" xmlns:rdf="http://www.w3.org/1999/02/22-rdf-syntax-ns#" xmlns:sodipodi="http://sodipodi.sourceforge.net/DTD/sodipodi-0.dtd" xmlns:xlink="http://www.w3.org/1999/xlink" xmlns="http://www.w3.org/2000/svg" version="1.1" sodipodi:docname="step104.svg" viewBox="0 0 26.497333 35.056077" height="35.056077px" width="26.497333px" xml:space="preserve" id="svg2" inkscape:version="0.92.1 r15371">
  <sodipodi:namedview inkscape:current-layer="g10" inkscape:window-maximized="1" inkscape:window-y="-8" inkscape:window-x="1912" inkscape:cy="-862.22917" inkscape:cx="2456.2254" inkscape:zoom="0.3015625" showgrid="false" id="namedview4" inkscape:window-height="1017" inkscape:window-width="1920" inkscape:pageshadow="2" inkscape:pageopacity="0" guidetolerance="10" gridtolerance="10" objecttolerance="10" borderopacity="1" bordercolor="#666666" pagecolor="#ffffff"/>
  <metadata id="metadata8">
    <rdf:RDF>
      <cc:Work rdf:about="">
        <dc:format>image/svg+xml</dc:format>
        <dc:type rdf:resource="http://purl.org/dc/dcmitype/StillImage"/>
        <dc:title/>
      </cc:Work>
    </rdf:RDF>
  </metadata>
  <g inkscape:groupmode="layer" inkscape:label="step" transform="matrix(1.333333,0.000000,0.000000,-1.333333,-1362.586400,-279.460000)">
    <g id="g8768" inkscape:label="104">
      <g transform="translate(1028.8675,-212.7142)" id="g1778">
        <path inkscape:connector-curvature="0" id="path1780" style="fill:#545454;fill-opacity:1;fill-rule:nonzero;stroke:none" d="m 0,0 -2.461,-1.239 4.238,-8.763 2.487,1.185 z m 1.746,-12.023 c -0.742,0 -1.43,0.434 -1.75,1.107 l -4.232,8.899 c -0.223,0.466 -0.25,0.993 -0.078,1.482 0.173,0.488 0.525,0.88 0.994,1.102 l 2.545,1.21 c 0.941,0.447 2.14,0.015 2.582,-0.919 l 4.234,-8.9 C 6.264,-8.513 6.291,-9.04 6.115,-9.529 5.941,-10.016 5.588,-10.405 5.119,-10.625 L 2.58,-11.835 C 2.316,-11.96 2.037,-12.023 1.746,-12.023"/>
      </g>
      <g transform="translate(1025.6605,-212.4691)" id="g1782">
        <path inkscape:connector-curvature="0" id="path1784" style="fill:#545454;fill-opacity:1;fill-rule:nonzero;stroke:none" d="M 0,0 C -0.375,0 -0.732,0.21 -0.904,0.57 -1.143,1.068 -0.93,1.665 -0.432,1.903 L 1.404,2.777 C 1.902,3.014 2.5,2.802 2.738,2.304 2.975,1.806 2.764,1.209 2.264,0.971 L 0.428,0.097 C 0.289,0.031 0.143,0 0,0"/>
      </g>
      <g transform="translate(1031.1332,-225.9779)" id="g1786">
        <path inkscape:connector-curvature="0" id="path1788" style="fill:#545454;fill-opacity:1;fill-rule:nonzero;stroke:none" d="M 0,0 C -0.375,0 -0.732,0.21 -0.904,0.57 -1.143,1.069 -0.93,1.666 -0.432,1.903 L 2.959,3.517 C 3.459,3.752 4.055,3.542 4.293,3.043 4.529,2.544 4.318,1.947 3.818,1.71 L 0.428,0.097 C 0.289,0.031 0.143,0 0,0"/>
      </g>
      <g transform="translate(1032.4828,-231.6605)" id="g1790">
        <path inkscape:connector-curvature="0" id="path1792" style="fill:#545454;fill-opacity:1;fill-rule:nonzero;stroke:none" d="m 0,0 c -4.348,0 -7.883,3.536 -7.883,7.882 0,2.105 0.819,4.085 2.309,5.575 L -4.16,12.043 C -5.271,10.932 -5.883,9.453 -5.883,7.882 -5.883,4.639 -3.244,2 0,2 1.18,2 2.316,2.347 3.289,3.004 3.465,3.122 3.631,3.248 3.791,3.384 L 5.086,1.858 C 4.869,1.676 4.643,1.503 4.406,1.345 3.104,0.466 1.58,0 0,0 m 0,-2.661 c -5.814,0 -10.543,4.729 -10.543,10.543 0,3.015 1.295,5.893 3.555,7.895 l 1.326,-1.496 c -1.832,-1.623 -2.881,-3.955 -2.881,-6.399 0,-4.711 3.832,-8.543 8.543,-8.543 2.844,0 5.492,1.408 7.084,3.767 L 8.742,1.987 C 6.777,-0.924 3.508,-2.661 0,-2.661"/>
      </g>
      <g transform="translate(1040.8128,-230.098)" id="g1794">
        <path inkscape:connector-curvature="0" id="path1796" style="fill:#545454;fill-opacity:1;fill-rule:nonzero;stroke:none" d="m 0,0 h -7.979 c -0.552,0 -1,0.447 -1,1 0,0.553 0.448,1 1,1 H 0 C 0.553,2 1,1.553 1,1 1,0.447 0.553,0 0,0"/>
      </g>
      <g transform="translate(1036.471,-235.8871)" id="g1798">
        <path inkscape:connector-curvature="0" id="path1800" style="fill:#545454;fill-opacity:1;fill-rule:nonzero;stroke:none" d="m 0,0 h -7.979 c -0.552,0 -1,0.447 -1,1 0,0.553 0.448,1 1,1 H 0 C 0.553,2 1,1.553 1,1 1,0.447 0.553,0 0,0"/>
      </g>
      <g transform="translate(1035.2191,-235.8871)" id="g1802">
        <path inkscape:connector-curvature="0" id="path1804" style="fill:#545454;fill-opacity:1;fill-rule:nonzero;stroke:none" d="m 0,0 h -7.979 c -0.552,0 -1,0.447 -1,1 0,0.553 0.448,1 1,1 H 0 C 0.553,2 1,1.553 1,1 1,0.447 0.553,0 0,0"/>
      </g>
    </g>
  </g>
</svg>
