<?xml version='1.0' encoding='UTF-8'?>
<!-- Created with Inkscape (http://www.inkscape.org/) and export_objects.py -->
<svg xmlns:cc="http://creativecommons.org/ns#" xmlns:dc="http://purl.org/dc/elements/1.1/" xmlns:inkscape="http://www.inkscape.org/namespaces/inkscape" xmlns:rdf="http://www.w3.org/1999/02/22-rdf-syntax-ns#" xmlns:sodipodi="http://sodipodi.sourceforge.net/DTD/sodipodi-0.dtd" xmlns:xlink="http://www.w3.org/1999/xlink" xmlns="http://www.w3.org/2000/svg" version="1.1" sodipodi:docname="step080.svg" viewBox="0 0 22.802666 31.555999" height="31.555999px" width="22.802666px" xml:space="preserve" id="svg2" inkscape:version="0.92.1 r15371">
  <sodipodi:namedview inkscape:current-layer="g10" inkscape:window-maximized="1" inkscape:window-y="-8" inkscape:window-x="1912" inkscape:cy="-862.22917" inkscape:cx="2456.2254" inkscape:zoom="0.3015625" showgrid="false" id="namedview4" inkscape:window-height="1017" inkscape:window-width="1920" inkscape:pageshadow="2" inkscape:pageopacity="0" guidetolerance="10" gridtolerance="10" objecttolerance="10" borderopacity="1" bordercolor="#666666" pagecolor="#ffffff"/>
  <metadata id="metadata8">
    <rdf:RDF>
      <cc:Work rdf:about="">
        <dc:format>image/svg+xml</dc:format>
        <dc:type rdf:resource="http://purl.org/dc/dcmitype/StillImage"/>
        <dc:title/>
      </cc:Work>
    </rdf:RDF>
  </metadata>
  <g inkscape:groupmode="layer" inkscape:label="step" transform="matrix(1.333333,0.000000,0.000000,-1.333333,-1443.265400,-283.430800)">
    <g id="g8784" inkscape:label="080">
      <g transform="translate(1098.5511,-214.5731)" id="g1020">
        <path inkscape:connector-curvature="0" id="path1022" style="fill:#545454;fill-opacity:1;fill-rule:nonzero;stroke:none" d="m 0,0 h -15.102 c -0.552,0 -1,0.448 -1,1 0,0.552 0.448,1 1,1 H 0 C 0.553,2 1,1.552 1,1 1,0.448 0.553,0 0,0"/>
      </g>
      <g transform="translate(1098.5511,-236.2401)" id="g1024">
        <path inkscape:connector-curvature="0" id="path1026" style="fill:#545454;fill-opacity:1;fill-rule:nonzero;stroke:none" d="m 0,0 h -15.102 c -0.552,0 -1,0.448 -1,1 0,0.552 0.448,1 1,1 H 0 C 0.553,2 1,1.552 1,1 1,0.448 0.553,0 0,0"/>
      </g>
      <g transform="translate(1086.264,-234.2401)" id="g1028">
        <path inkscape:connector-curvature="0" id="path1030" style="fill:#545454;fill-opacity:1;fill-rule:nonzero;stroke:none" d="M 0,0 H 9.473 V 3.875 C 9.473,5.797 8.316,7.515 6.529,8.25 6.156,8.404 5.91,8.77 5.91,9.175 v 1.317 c 0,0.405 0.244,0.771 0.619,0.925 1.787,0.736 2.944,2.454 2.944,4.376 v 3.874 H 0 v -3.874 c 0,-1.922 1.156,-3.641 2.945,-4.376 0.373,-0.154 0.619,-0.52 0.619,-0.925 V 9.175 C 3.564,8.77 3.318,8.404 2.945,8.25 1.156,7.514 0,5.797 0,3.875 Z M 10.473,-2 H -1 c -0.553,0 -1,0.448 -1,1 v 4.875 c 0,2.506 1.379,4.767 3.564,5.933 V 9.859 C -0.621,11.024 -2,13.286 -2,15.793 v 4.874 c 0,0.552 0.447,1 1,1 h 11.473 c 0.552,0 1,-0.448 1,-1 v -4.874 c 0,-2.506 -1.379,-4.768 -3.563,-5.934 V 9.808 C 10.094,8.643 11.473,6.382 11.473,3.875 V -1 c 0,-0.552 -0.448,-1 -1,-1"/>
      </g>
      <g transform="translate(1091.0003,-229.8998)" id="g1032">
        <path inkscape:connector-curvature="0" id="path1034" style="fill:#545454;fill-opacity:1;fill-rule:nonzero;stroke:none" d="m 0,0 c -0.277,0 -0.5,0.224 -0.5,0.5 v 7.199 c 0,0.276 0.223,0.5 0.5,0.5 0.275,0 0.5,-0.224 0.5,-0.5 V 0.5 C 0.5,0.224 0.275,0 0,0"/>
      </g>
      <g transform="translate(1087.2933,-233.744)" id="g1036">
        <path inkscape:connector-curvature="0" id="path1038" style="fill:#545454;fill-opacity:1;fill-rule:nonzero;stroke:none" d="m 0,0 c -0.277,0 -0.5,0.224 -0.5,0.5 0,0.276 0.223,0.5 0.5,0.5 1.768,0 3.207,1.439 3.207,3.208 0,0.276 0.223,0.5 0.5,0.5 0.275,0 0.5,-0.224 0.5,-0.5 C 4.207,1.888 2.318,0 0,0"/>
      </g>
      <g transform="translate(1094.7074,-233.744)" id="g1040">
        <path inkscape:connector-curvature="0" id="path1042" style="fill:#545454;fill-opacity:1;fill-rule:nonzero;stroke:none" d="m 0,0 c -2.32,0 -4.207,1.888 -4.207,4.208 0,0.276 0.223,0.5 0.5,0.5 0.275,0 0.5,-0.224 0.5,-0.5 C -3.207,2.439 -1.768,1 0,1 0.277,1 0.5,0.776 0.5,0.5 0.5,0.224 0.277,0 0,0"/>
      </g>
      <g transform="translate(1088.0804,-219.2377)" id="g1044">
        <path inkscape:connector-curvature="0" id="path1046" style="fill:#545454;fill-opacity:1;fill-rule:nonzero;stroke:none" d="m 0,0 c 0.238,-1.322 1.395,-2.328 2.783,-2.328 h 0.272 c 1.388,0 2.547,1.006 2.785,2.328 z M 3.055,-3.328 H 2.783 c -2.109,0 -3.826,1.718 -3.826,3.828 0,0.276 0.223,0.5 0.5,0.5 h 6.926 c 0.277,0 0.5,-0.224 0.5,-0.5 0,-2.11 -1.717,-3.828 -3.828,-3.828"/>
      </g>
    </g>
  </g>
</svg>
