<?xml version="1.0" encoding="UTF-8" standalone="no"?>
<!-- Created with Inkscape (http://www.inkscape.org/) and export_objects.py -->

<svg
   xmlns:dc="http://purl.org/dc/elements/1.1/"
   xmlns:cc="http://creativecommons.org/ns#"
   xmlns:rdf="http://www.w3.org/1999/02/22-rdf-syntax-ns#"
   xmlns:svg="http://www.w3.org/2000/svg"
   xmlns="http://www.w3.org/2000/svg"
   xmlns:sodipodi="http://sodipodi.sourceforge.net/DTD/sodipodi-0.dtd"
   xmlns:inkscape="http://www.inkscape.org/namespaces/inkscape"
   version="1.1"
   sodipodi:docname="facebook.svg"
   viewBox="0 0 30.000002 29.999999"
   height="30"
   width="30.000002"
   xml:space="preserve"
   id="svg2"
   inkscape:version="0.92.0 r15299"><defs
     id="defs14" /><sodipodi:namedview
     inkscape:current-layer="g11"
     inkscape:window-maximized="1"
     inkscape:window-y="138"
     inkscape:window-x="1912"
     inkscape:cy="14.622935"
     inkscape:cx="9.2624529"
     inkscape:zoom="13.647161"
     showgrid="false"
     id="namedview4"
     inkscape:window-height="837"
     inkscape:window-width="1600"
     inkscape:pageshadow="2"
     inkscape:pageopacity="0"
     guidetolerance="10"
     gridtolerance="10"
     objecttolerance="10"
     borderopacity="1"
     bordercolor="#666666"
     pagecolor="#ffffff"
     fit-margin-top="0"
     fit-margin-left="0"
     fit-margin-right="0"
     fit-margin-bottom="0" /><metadata
     id="metadata8"><rdf:RDF><cc:Work
         rdf:about=""><dc:format>image/svg+xml</dc:format><dc:type
           rdf:resource="http://purl.org/dc/dcmitype/StillImage" /><dc:title></dc:title></cc:Work></rdf:RDF></metadata><g
     inkscape:groupmode="layer"
     inkscape:label="step"
     transform="matrix(1.333333,0,0,-1.333333,-105.35946,-1060.4838)"
     id="g11"><path
       style="fill:#666666;fill-opacity:1;fill-rule:nonzero;stroke:none;stroke-width:1.02389765"
       d="m 83.115843,-795.36305 c -2.261867,0 -4.096227,-1.83274 -4.096227,-4.09446 v -14.30959 c 0,-2.26172 1.83436,-4.09596 4.096227,-4.09596 h 14.309044 c 2.262887,0 4.094733,1.83424 4.094733,4.09596 v 14.30959 c 0,2.26172 -1.831846,4.09446 -4.094733,4.09446 z m 8.838909,-6.6906 h 1.009433 v -1.79976 h -0.667457 c -0.333801,0 -0.627874,-0.0826 -0.823445,-0.33447 -0.227312,-0.29384 -0.194986,-1.09336 -0.194986,-1.09336 h 1.685888 v -1.83575 h -1.672389 v -5.47727 h -2.431338 v 5.47727 h -1.457902 v 1.83575 h 1.444403 c 0,0 0.0015,0.49567 0.0015,0.67793 0,0.18428 -0.02215,1.17721 0.688455,1.88673 0.709583,0.70955 1.520874,0.66293 2.417838,0.66293 z"
       id="path2506"
       inkscape:connector-curvature="0" /></g></svg>