<?xml version="1.0" encoding="UTF-8" standalone="no"?>
<!-- Created with Inkscape (http://www.inkscape.org/) and export_objects.py -->

<svg
   xmlns:dc="http://purl.org/dc/elements/1.1/"
   xmlns:cc="http://creativecommons.org/ns#"
   xmlns:rdf="http://www.w3.org/1999/02/22-rdf-syntax-ns#"
   xmlns:svg="http://www.w3.org/2000/svg"
   xmlns="http://www.w3.org/2000/svg"
   xmlns:sodipodi="http://sodipodi.sourceforge.net/DTD/sodipodi-0.dtd"
   xmlns:inkscape="http://www.inkscape.org/namespaces/inkscape"
   version="1.1"
   sodipodi:docname="step008.svg"
   viewBox="0 0 30.283999 30.285333"
   height="30.285333px"
   width="30.283999px"
   xml:space="preserve"
   id="svg2"
   inkscape:version="0.92.1 r15371"><defs
     id="defs14" /><sodipodi:namedview
     inkscape:current-layer="g11"
     inkscape:window-maximized="1"
     inkscape:window-y="-8"
     inkscape:window-x="1592"
     inkscape:cy="15.115301"
     inkscape:cx="21.661879"
     inkscape:zoom="13.647161"
     showgrid="false"
     id="namedview4"
     inkscape:window-height="837"
     inkscape:window-width="1600"
     inkscape:pageshadow="2"
     inkscape:pageopacity="0"
     guidetolerance="10"
     gridtolerance="10"
     objecttolerance="10"
     borderopacity="1"
     bordercolor="#666666"
     pagecolor="#ffffff" /><metadata
     id="metadata8"><rdf:RDF><cc:Work
         rdf:about=""><dc:format>image/svg+xml</dc:format><dc:type
           rdf:resource="http://purl.org/dc/dcmitype/StillImage" /><dc:title /></cc:Work></rdf:RDF></metadata><g
     inkscape:groupmode="layer"
     inkscape:label="step"
     transform="matrix(1.333333,0.000000,0.000000,-1.333333,-104.867270,-1060.690800)"
     id="g11"><path
       style="fill:#666666;fill-opacity:1;fill-rule:nonzero;stroke:none;stroke-width:1.33333302"
       d="M 5.8261719 0.4921875 C 2.8808393 0.4921875 0.4921875 2.8788862 0.4921875 5.8242188 L 0.4921875 24.458984 C 0.4921875 27.404317 2.8808393 29.792969 5.8261719 29.792969 L 24.458984 29.792969 C 27.40565 29.792969 29.791016 27.404317 29.791016 24.458984 L 29.791016 5.8242188 C 29.791016 2.8788862 27.40565 0.4921875 24.458984 0.4921875 L 5.8261719 0.4921875 z M 17.335938 9.2050781 L 18.650391 9.2050781 L 18.650391 11.548828 L 17.78125 11.548828 C 17.346583 11.548828 16.963651 11.656375 16.708984 11.984375 C 16.412984 12.367042 16.455078 13.408203 16.455078 13.408203 L 18.650391 13.408203 L 18.650391 15.798828 L 16.472656 15.798828 L 16.472656 22.931641 L 13.306641 22.931641 L 13.306641 15.798828 L 11.408203 15.798828 L 11.408203 13.408203 L 13.289062 13.408203 C 13.289062 13.408203 13.291016 12.762724 13.291016 12.525391 C 13.291016 12.285391 13.262167 10.992359 14.1875 10.068359 C 15.1115 9.1443596 16.167938 9.2050781 17.335938 9.2050781 z "
       id="path2506"
       transform="matrix(0.75000019,0,0,-0.75000019,78.650472,-795.5183)" /><path
       inkscape:connector-curvature="0"
       id="path2510"
       style="fill:none;stroke:#ffffff;stroke-width:0.73799998;stroke-linecap:butt;stroke-linejoin:miter;stroke-miterlimit:10;stroke-dasharray:none;stroke-opacity:1"
       d="m 96.994454,-795.8871 h -13.975 c -2.209,0 -4,-1.791 -4,-4 v -13.975 c 0,-2.209 1.791,-4.001 4,-4.001 h 13.975 c 2.21,0 3.999996,1.792 3.999996,4.001 v 13.975 c 0,2.209 -1.789996,4 -3.999996,4 z" /></g></svg>