<?xml version='1.0' encoding='UTF-8'?>
<!-- Created with Inkscape (http://www.inkscape.org/) and export_objects.py -->
<svg xmlns:cc="http://creativecommons.org/ns#" xmlns:dc="http://purl.org/dc/elements/1.1/" xmlns:inkscape="http://www.inkscape.org/namespaces/inkscape" xmlns:rdf="http://www.w3.org/1999/02/22-rdf-syntax-ns#" xmlns:sodipodi="http://sodipodi.sourceforge.net/DTD/sodipodi-0.dtd" xmlns:xlink="http://www.w3.org/1999/xlink" xmlns="http://www.w3.org/2000/svg" version="1.1" sodipodi:docname="step053.svg" viewBox="0 0 24.367199 30.158133" height="30.158133px" width="24.367199px" xml:space="preserve" id="svg2" inkscape:version="0.92.1 r15371">
  <sodipodi:namedview inkscape:current-layer="g10" inkscape:window-maximized="1" inkscape:window-y="-8" inkscape:window-x="1912" inkscape:cy="-862.22917" inkscape:cx="2456.2254" inkscape:zoom="0.3015625" showgrid="false" id="namedview4" inkscape:window-height="1017" inkscape:window-width="1920" inkscape:pageshadow="2" inkscape:pageopacity="0" guidetolerance="10" gridtolerance="10" objecttolerance="10" borderopacity="1" bordercolor="#666666" pagecolor="#ffffff"/>
  <metadata id="metadata8">
    <rdf:RDF>
      <cc:Work rdf:about="">
        <dc:format>image/svg+xml</dc:format>
        <dc:type rdf:resource="http://purl.org/dc/dcmitype/StillImage"/>
        <dc:title/>
      </cc:Work>
    </rdf:RDF>
  </metadata>
  <g inkscape:groupmode="layer" inkscape:label="step" transform="matrix(1.333333,0.000000,0.000000,-1.333333,-1903.569400,-807.640500)">
    <g id="g9211" inkscape:label="053">
      <g transform="translate(1443.5521,-621.7504)" id="g448">
        <path inkscape:connector-curvature="0" id="path450" style="fill:#545454;fill-opacity:1;fill-rule:nonzero;stroke:none" d="m 0,0 c -0.143,0 -0.289,0.031 -0.428,0.097 -0.707,0.337 -1.468,0.617 -2.267,0.835 l 0.525,1.929 c 0.578,-0.157 1.141,-0.343 1.682,-0.558 0.447,1.099 0.681,2.305 0.681,3.538 0,4.51 -3.109,8.179 -6.931,8.179 -3.821,0 -6.93,-3.669 -6.93,-8.179 0,-1.233 0.232,-2.439 0.682,-3.537 0.541,0.214 1.103,0.4 1.679,0.557 l 0.526,-1.929 c -0.799,-0.218 -1.561,-0.498 -2.268,-0.835 -0.484,-0.228 -1.058,-0.038 -1.31,0.43 -0.856,1.597 -1.309,3.434 -1.309,5.314 0,5.612 4.006,10.179 8.93,10.179 4.926,0 8.931,-4.567 8.931,-10.179 C 2.193,3.96 1.74,2.123 0.883,0.526 0.703,0.192 0.357,0 0,0"/>
      </g>
      <g transform="translate(1437.2005,-621.8871)" id="g452">
        <path inkscape:connector-curvature="0" id="path454" style="fill:#545454;fill-opacity:1;fill-rule:nonzero;stroke:none" d="M 0,0 0.215,-0.473 0.145,0.022 C 0.229,0.034 0.309,0.046 0.389,0.063 L 0.625,-0.389 0.496,0.094 c 0.139,0.037 0.205,0.054 0.272,0.077 0.185,0.072 0.277,0.106 0.365,0.149 0.178,0.092 0.271,0.139 0.363,0.196 0.172,0.112 0.266,0.175 0.359,0.247 0.17,0.136 0.26,0.21 0.35,0.293 L 2.311,1.16 C 2.406,1.255 2.475,1.324 2.543,1.398 2.545,1.401 2.547,1.403 2.551,1.406 3.486,2.453 4.195,4.055 4.604,6.039 4.639,6.22 4.668,6.408 4.691,6.605 H 0.17 C 0.102,6.605 0.033,6.62 -0.027,6.646 -0.088,6.62 -0.154,6.605 -0.225,6.605 h -1.587 c -0.251,0 -0.461,0.184 -0.495,0.432 L -2.32,7.134 -2.334,7.037 C -2.369,6.789 -2.58,6.605 -2.83,6.605 H -5.465 C -5.441,6.407 -5.412,6.22 -5.377,6.035 -4.641,2.443 -2.965,0.242 -0.781,0 -0.646,-0.016 -0.52,-0.023 -0.389,-0.023 -0.207,-0.016 -0.104,-0.013 0,0 m -0.387,-1.023 c -0.17,0 -0.336,0.009 -0.504,0.03 -2.644,0.292 -4.636,2.782 -5.466,6.831 -0.077,0.39 -0.123,0.782 -0.149,1.239 -0.008,0.138 0.041,0.272 0.135,0.372 0.096,0.1 0.226,0.156 0.363,0.156 h 2.742 l 0.45,3.216 c 0.035,0.247 0.246,0.431 0.496,0.431 0.248,0 0.461,-0.184 0.494,-0.431 l 0.449,-3.216 h 0.701 l 0.151,1.509 c 0.025,0.255 0.24,0.45 0.496,0.45 0.258,0 0.472,-0.194 0.498,-0.45 L 0.621,7.605 h 4.613 c 0.139,0 0.27,-0.056 0.364,-0.156 C 5.693,7.349 5.742,7.215 5.734,7.077 5.709,6.631 5.66,6.228 5.584,5.842 5.133,3.65 4.363,1.936 3.295,0.741 L 3.283,0.727 C 3.205,0.64 3.123,0.559 3.043,0.479 L 2.594,0.737 2.951,0.388 C 2.777,0.223 2.668,0.134 2.557,0.045 L 2.16,0.366 2.465,-0.03 C 2.348,-0.121 2.229,-0.2 2.105,-0.277 2.104,-0.279 2.025,-0.333 2.021,-0.335 1.908,-0.406 1.785,-0.469 1.66,-0.531 1.648,-0.536 1.549,-0.589 1.539,-0.593 1.445,-0.639 1.32,-0.687 1.193,-0.732 L 1.096,-0.774 C 1,-0.807 0.912,-0.83 0.822,-0.854 L 0.566,-0.405 0.711,-0.884 C 0.701,-0.888 0.619,-0.91 0.607,-0.912 0.5,-0.937 0.395,-0.952 0.285,-0.968 L 0.113,-0.994 c -0.133,-0.015 -0.267,-0.02 -0.402,-0.024 z"/>
      </g>
      <g transform="translate(1429.6771,-628.349)" id="g456">
        <path inkscape:connector-curvature="0" id="path458" style="fill:#545454;fill-opacity:1;fill-rule:nonzero;stroke:none" d="m 0,0 h -2 c 0,3.725 3.227,6.755 7.193,6.755 v -2 C 2.33,4.755 0,2.622 0,0"/>
      </g>
      <g transform="translate(1445.9525,-628.349)" id="g460">
        <path inkscape:connector-curvature="0" id="path462" style="fill:#545454;fill-opacity:1;fill-rule:nonzero;stroke:none" d="m 0,0 h -2 c 0,2.622 -2.33,4.755 -5.193,4.755 v 2 C -3.227,6.755 0,3.725 0,0"/>
      </g>
      <g transform="translate(1434.7044,-616.0277)" id="g464">
        <path inkscape:connector-curvature="0" id="path466" style="fill:#545454;fill-opacity:1;fill-rule:nonzero;stroke:none" d="m 0,0 c -0.322,0 -0.586,-0.263 -0.586,-0.586 0,-0.323 0.264,-0.586 0.586,-0.586 0.324,0 0.586,0.263 0.586,0.586 C 0.586,-0.263 0.324,0 0,0"/>
      </g>
      <g transform="translate(1438.9232,-616.0277)" id="g468">
        <path inkscape:connector-curvature="0" id="path470" style="fill:#545454;fill-opacity:1;fill-rule:nonzero;stroke:none" d="m 0,0 c -0.322,0 -0.586,-0.263 -0.586,-0.586 0,-0.323 0.264,-0.586 0.586,-0.586 0.324,0 0.586,0.263 0.586,0.586 C 0.586,-0.263 0.324,0 0,0"/>
      </g>
    </g>
  </g>
</svg>
