<?xml version="1.0" encoding="UTF-8" standalone="no"?>
<!-- Created with Inkscape (http://www.inkscape.org/) and export_objects.py -->

<svg
   xmlns:dc="http://purl.org/dc/elements/1.1/"
   xmlns:cc="http://creativecommons.org/ns#"
   xmlns:rdf="http://www.w3.org/1999/02/22-rdf-syntax-ns#"
   xmlns:svg="http://www.w3.org/2000/svg"
   xmlns="http://www.w3.org/2000/svg"
   xmlns:sodipodi="http://sodipodi.sourceforge.net/DTD/sodipodi-0.dtd"
   xmlns:inkscape="http://www.inkscape.org/namespaces/inkscape"
   version="1.1"
   sodipodi:docname="step049.svg"
   viewBox="0 0 26.333333 27.647999"
   height="27.647999px"
   width="26.333333px"
   xml:space="preserve"
   id="svg2"
   inkscape:version="0.92.1 r15371"><defs
     id="defs12" /><sodipodi:namedview
     inkscape:current-layer="g9"
     inkscape:window-maximized="1"
     inkscape:window-y="-8"
     inkscape:window-x="1592"
     inkscape:cy="18.368888"
     inkscape:cx="22.862428"
     inkscape:zoom="13.647161"
     showgrid="false"
     id="namedview4"
     inkscape:window-height="837"
     inkscape:window-width="1600"
     inkscape:pageshadow="2"
     inkscape:pageopacity="0"
     guidetolerance="10"
     gridtolerance="10"
     objecttolerance="10"
     borderopacity="1"
     bordercolor="#666666"
     pagecolor="#ffffff" /><metadata
     id="metadata8"><rdf:RDF><cc:Work
         rdf:about=""><dc:format>image/svg+xml</dc:format><dc:type
           rdf:resource="http://purl.org/dc/dcmitype/StillImage" /><dc:title /></cc:Work></rdf:RDF></metadata><g
     inkscape:groupmode="layer"
     inkscape:label="step"
     transform="matrix(1.333333,0.000000,0.000000,-1.333333,-782.424850,-846.504400)"
     id="g9"><g
       id="g8503"
       inkscape:label="049"><g
         transform="translate(605.56865,-637.3783)"
         id="g2150"><path
           style="color:#000000;font-style:normal;font-variant:normal;font-weight:normal;font-stretch:normal;font-size:medium;line-height:normal;font-family:sans-serif;font-variant-ligatures:normal;font-variant-position:normal;font-variant-caps:normal;font-variant-numeric:normal;font-variant-alternates:normal;font-feature-settings:normal;text-indent:0;text-align:start;text-decoration:none;text-decoration-line:none;text-decoration-style:solid;text-decoration-color:#000000;letter-spacing:normal;word-spacing:normal;text-transform:none;writing-mode:lr-tb;direction:ltr;text-orientation:mixed;dominant-baseline:auto;baseline-shift:baseline;text-anchor:start;white-space:normal;shape-padding:0;clip-rule:nonzero;display:inline;overflow:visible;visibility:visible;opacity:1;isolation:auto;mix-blend-mode:normal;color-interpolation:sRGB;color-interpolation-filters:linearRGB;solid-color:#000000;solid-opacity:1;vector-effect:none;fill:#545454;fill-opacity:1;fill-rule:nonzero;stroke:none;stroke-width:2;stroke-linecap:butt;stroke-linejoin:miter;stroke-miterlimit:10;stroke-dasharray:none;stroke-dashoffset:0;stroke-opacity:1;color-rendering:auto;image-rendering:auto;shape-rendering:auto;text-rendering:auto;enable-background:accumulate"
           d="m -8.875,-18.236328 c -0.4225331,0 -0.8074593,0.02606 -1.142578,0.08008 -0.16756,0.02701 -0.320094,0.0601 -0.484375,0.115234 -0.0161,0.0054 -0.04584,0.03611 -0.0625,0.04102 H -11.375 v 8.828125 l -1.267578,1.7128906 -5.03125,6.0898438 c -0.171349,0.081784 -0.347732,0.1496303 -0.507813,0.2773437 C -18.435777,-0.8890449 -18.75,-0.52277543 -18.75,0 c 0,0.50345974 0.295977,0.87029956 0.542969,1.0742188 0.246992,0.2039191 0.500376,0.3245068 0.783203,0.4375 0.565654,0.2259862 1.263165,0.3924427 2.107422,0.5351562 C -13.627892,2.332302 -11.371205,2.5 -8.875,2.5 c 2.496205,0 4.7528924,-0.167698 6.4414062,-0.453125 0.844257,-0.1427135 1.54176756,-0.30917 2.10742192,-0.5351562 C -0.0433447,1.3987256 0.21003933,1.2781379 0.45703125,1.0742188 0.70402317,0.87029956 1,0.50345974 1,0 1,-0.52277543 0.68577669,-0.8890449 0.43164062,-1.0917969 0.27156043,-1.2195103 0.09517697,-1.2873562 -0.07617187,-1.3691406 L -5.1074219,-7.4589844 -6.375,-9.171875 V -18 h -0.8105469 c -0.016657,-0.0049 -0.046398,-0.03561 -0.0625,-0.04102 -0.1642813,-0.05513 -0.3168156,-0.08823 -0.484375,-0.115234 -0.3351188,-0.05401 -0.720045,-0.08008 -1.1425781,-0.08008 z m 0,2 c 0.2016868,0 0.3390905,0.0193 0.5,0.0332 v 7.6914062 l 1.6914062,2.2851563 4.9863282,6.03710938 C -2.0231921,-0.09886956 -2.2861284,-0.00683555 -2.765625,0.07421875 -4.2893611,0.33179171 -6.470205,0.5 -8.875,0.5 c -2.404795,0 -4.585639,-0.16820829 -6.109375,-0.42578125 -0.479497,-0.0810543 -0.742433,-0.17308831 -1.068359,-0.26367187 L -11.066406,-6.2265625 -9.375,-8.5117188 v -7.6914062 c 0.1609095,-0.01391 0.2983132,-0.0332 0.5,-0.0332 z"
           id="path2152"
           inkscape:connector-curvature="0" /></g><g
         transform="translate(599.34985,-639.0941)"
         id="g2154"><path
           style="color:#000000;font-style:normal;font-variant:normal;font-weight:normal;font-stretch:normal;font-size:medium;line-height:normal;font-family:sans-serif;font-variant-ligatures:normal;font-variant-position:normal;font-variant-caps:normal;font-variant-numeric:normal;font-variant-alternates:normal;font-feature-settings:normal;text-indent:0;text-align:start;text-decoration:none;text-decoration-line:none;text-decoration-style:solid;text-decoration-color:#000000;letter-spacing:normal;word-spacing:normal;text-transform:none;writing-mode:lr-tb;direction:ltr;text-orientation:mixed;dominant-baseline:auto;baseline-shift:baseline;text-anchor:start;white-space:normal;shape-padding:0;clip-rule:nonzero;display:inline;overflow:visible;visibility:visible;opacity:1;isolation:auto;mix-blend-mode:normal;color-interpolation:sRGB;color-interpolation-filters:linearRGB;solid-color:#000000;solid-opacity:1;vector-effect:none;fill:#545454;fill-opacity:1;fill-rule:nonzero;stroke:none;stroke-width:2;stroke-linecap:round;stroke-linejoin:round;stroke-miterlimit:10;stroke-dasharray:none;stroke-dashoffset:0;stroke-opacity:1;color-rendering:auto;image-rendering:auto;shape-rendering:auto;text-rendering:auto;enable-background:accumulate"
           d="m 0.0390625,-1 c -2.9369482,-0.1123311 -7.475156,-0.036982 -11.3867185,1.26757812 a 1.0001,1.0001 0 1 0 0.632812,1.89648438 C -7.2324065,1.0026221 -2.8541143,0.89233112 -0.0390625,1 a 1.0007626,1.0007626 0 1 0 0.078125,-2 z"
           id="path2156"
           inkscape:connector-curvature="0" /></g></g></g></svg>