<?xml version='1.0' encoding='UTF-8'?>
<!-- Created with Inkscape (http://www.inkscape.org/) and export_objects.py -->
<svg xmlns:cc="http://creativecommons.org/ns#" xmlns:dc="http://purl.org/dc/elements/1.1/" xmlns:inkscape="http://www.inkscape.org/namespaces/inkscape" xmlns:rdf="http://www.w3.org/1999/02/22-rdf-syntax-ns#" xmlns:sodipodi="http://sodipodi.sourceforge.net/DTD/sodipodi-0.dtd" xmlns:xlink="http://www.w3.org/1999/xlink" xmlns="http://www.w3.org/2000/svg" version="1.1" sodipodi:docname="step059.svg" viewBox="0 0 24.442666 30.037333" height="30.037333px" width="24.442666px" xml:space="preserve" id="svg2" inkscape:version="0.92.1 r15371">
  <sodipodi:namedview inkscape:current-layer="g10" inkscape:window-maximized="1" inkscape:window-y="-8" inkscape:window-x="1912" inkscape:cy="-862.22917" inkscape:cx="2456.2254" inkscape:zoom="0.3015625" showgrid="false" id="namedview4" inkscape:window-height="1017" inkscape:window-width="1920" inkscape:pageshadow="2" inkscape:pageopacity="0" guidetolerance="10" gridtolerance="10" objecttolerance="10" borderopacity="1" bordercolor="#666666" pagecolor="#ffffff"/>
  <metadata id="metadata8">
    <rdf:RDF>
      <cc:Work rdf:about="">
        <dc:format>image/svg+xml</dc:format>
        <dc:type rdf:resource="http://purl.org/dc/dcmitype/StillImage"/>
        <dc:title/>
      </cc:Work>
    </rdf:RDF>
  </metadata>
  <g inkscape:groupmode="layer" inkscape:label="step" transform="matrix(1.333333,0.000000,0.000000,-1.333333,-1905.133300,-204.959200)">
    <g id="g9342" inkscape:label="059">
      <g transform="translate(1440.182,-175.7474)" id="g602">
        <path inkscape:connector-curvature="0" id="path604" style="fill:#545454;fill-opacity:1;fill-rule:nonzero;stroke:none" d="m 0,0 c -0.275,0 -0.5,0.224 -0.5,0.5 v 6 C -0.5,6.776 -0.275,7 0,7 H 6 C 6.277,7 6.5,6.776 6.5,6.5 6.5,6.224 6.277,6 6,6 H 0.5 V 0.5 C 0.5,0.224 0.277,0 0,0"/>
      </g>
      <g transform="translate(1430.85,-174.2474)" id="g606">
        <path inkscape:connector-curvature="0" id="path608" style="fill:#545454;fill-opacity:1;fill-rule:nonzero;stroke:none" d="m 0,0 h 8.918 l 5.414,5.414 V 18.528 H 0 Z M 9.332,-2 H -1 c -0.553,0 -1,0.447 -1,1 v 20.528 c 0,0.553 0.447,1 1,1 h 16.332 c 0.553,0 1,-0.447 1,-1 V 5 c 0,-0.266 -0.105,-0.52 -0.293,-0.707 l -6,-6 C 9.852,-1.895 9.598,-2 9.332,-2"/>
      </g>
      <g transform="translate(1437.3363,-165.6371)" id="g610">
        <path inkscape:connector-curvature="0" id="path612" style="fill:#545454;fill-opacity:1;fill-rule:nonzero;stroke:none" d="m 0,0 c -0.229,0 -0.451,0.079 -0.631,0.225 l -2.508,2.042 c -0.427,0.348 -0.492,0.978 -0.144,1.407 0.347,0.427 0.978,0.492 1.408,0.143 L -0.146,2.409 3.805,7.296 C 4.152,7.725 4.779,7.794 5.211,7.444 5.641,7.098 5.707,6.468 5.359,6.038 L 0.777,0.371 C 0.611,0.165 0.369,0.033 0.104,0.006 0.07,0.002 0.035,0 0,0"/>
      </g>
    </g>
  </g>
</svg>
