<?xml version='1.0' encoding='UTF-8'?>
<!-- Created with Inkscape (http://www.inkscape.org/) and export_objects.py -->
<svg xmlns:cc="http://creativecommons.org/ns#" xmlns:dc="http://purl.org/dc/elements/1.1/" xmlns:inkscape="http://www.inkscape.org/namespaces/inkscape" xmlns:rdf="http://www.w3.org/1999/02/22-rdf-syntax-ns#" xmlns:sodipodi="http://sodipodi.sourceforge.net/DTD/sodipodi-0.dtd" xmlns:xlink="http://www.w3.org/1999/xlink" xmlns="http://www.w3.org/2000/svg" version="1.1" id="svg2" xml:space="preserve" width="36.6295px" height="28.073333px" viewBox="0 0 36.6295 28.073333" sodipodi:docname="step125.svg" inkscape:version="0.92.1 r15371">
  <sodipodi:namedview pagecolor="#ffffff" bordercolor="#666666" borderopacity="1" objecttolerance="10" gridtolerance="10" guidetolerance="10" inkscape:pageopacity="0" inkscape:pageshadow="2" inkscape:window-width="1920" inkscape:window-height="1017" id="namedview4" showgrid="false" showguides="true" inkscape:zoom="1.3537284" inkscape:cx="-11.486738" inkscape:cy="988.50384" inkscape:window-x="1912" inkscape:window-y="-8" inkscape:window-maximized="1" inkscape:current-layer="g10"/>
  <metadata id="metadata8">
    <rdf:RDF>
      <cc:Work rdf:about="">
        <dc:format>image/svg+xml</dc:format>
        <dc:type rdf:resource="http://purl.org/dc/dcmitype/StillImage"/>
        <dc:title/>
      </cc:Work>
    </rdf:RDF>
  </metadata>
  <g inkscape:groupmode="layer" inkscape:label="step" transform="matrix(1.333333,0.000000,0.000000,-1.333333,364.847870,1008.331170)">
    <g style="fill:#545454;fill-opacity:1" id="g4839" transform="translate(-341.61051)" inkscape:label="125">
      <g style="fill:#545454;fill-opacity:1" id="g4833" transform="translate(71.0918,737.1934)">
        <path d="m 0,0 h 18.43 l 3.558,11.18 H 3.557 Z M 19.162,-2 H -1.367 c -0.32,0 -0.619,0.152 -0.809,0.41 -0.187,0.257 -0.242,0.589 -0.144,0.893 l 4.193,13.179 c 0.131,0.415 0.518,0.698 0.953,0.698 h 20.529 c 0.319,0 0.62,-0.153 0.807,-0.41 0.188,-0.257 0.242,-0.589 0.147,-0.893 L 20.115,-1.303 C 19.982,-1.718 19.597,-2 19.162,-2" style="fill:#545454;fill-opacity:1;fill-rule:nonzero;stroke:none" id="path4831" inkscape:connector-curvature="0"/>
      </g>
      <g style="fill:#545454;fill-opacity:1" id="g4837" transform="translate(68.9746,735.1934)">
        <path d="m 0,0 c -0.553,0 -1,0.447 -1,1 v 18.055 c 0,1.102 0.896,2 2,2 h 7 c 1.102,0 2,-0.898 2,-2 v -0.723 h 10.529 c 0.553,0 1,-0.447 1,-1 0,-0.553 -0.447,-1 -1,-1 H 9 c -0.553,0 -1,0.447 -1,1 v 1.723 H 1 V 1 C 1,0.447 0.553,0 0,0" style="fill:#545454;fill-opacity:1;fill-rule:nonzero;stroke:none" id="path4835" inkscape:connector-curvature="0"/>
      </g>
    </g>
  </g>
</svg>
