<?xml version='1.0' encoding='UTF-8'?>
<!-- Created with Inkscape (http://www.inkscape.org/) and export_objects.py -->
<svg xmlns:cc="http://creativecommons.org/ns#" xmlns:dc="http://purl.org/dc/elements/1.1/" xmlns:inkscape="http://www.inkscape.org/namespaces/inkscape" xmlns:rdf="http://www.w3.org/1999/02/22-rdf-syntax-ns#" xmlns:sodipodi="http://sodipodi.sourceforge.net/DTD/sodipodi-0.dtd" xmlns:xlink="http://www.w3.org/1999/xlink" xmlns="http://www.w3.org/2000/svg" version="1.1" id="svg2" xml:space="preserve" width="36.906266px" height="31.889733px" viewBox="0 0 36.906266 31.889733" sodipodi:docname="step132.svg" inkscape:version="0.92.1 r15371">
  <sodipodi:namedview pagecolor="#ffffff" bordercolor="#666666" borderopacity="1" objecttolerance="10" gridtolerance="10" guidetolerance="10" inkscape:pageopacity="0" inkscape:pageshadow="2" inkscape:window-width="1920" inkscape:window-height="1017" id="namedview4" showgrid="false" inkscape:zoom="0.95723054" inkscape:cx="573.72119" inkscape:cy="692.9398" inkscape:window-x="1912" inkscape:window-y="-8" inkscape:window-maximized="1" inkscape:current-layer="g10"/>
  <metadata id="metadata8">
    <rdf:RDF>
      <cc:Work rdf:about="">
        <dc:format>image/svg+xml</dc:format>
        <dc:type rdf:resource="http://purl.org/dc/dcmitype/StillImage"/>
        <dc:title/>
      </cc:Work>
    </rdf:RDF>
  </metadata>
  <g inkscape:groupmode="layer" inkscape:label="step" transform="matrix(1.333333,0.000000,0.000000,-1.333333,-101.430930,945.467840)">
    <g id="g6549" inkscape:label="132">
      <g transform="translate(77.0732,688.0459)" id="g200">
        <path inkscape:connector-curvature="0" id="path202" style="fill:#545454;fill-opacity:1;fill-rule:nonzero;stroke:none" d="m 0,0 c -0.553,0 -1,0.447 -1,1 v 18.055 c 0,1.102 0.898,2 2,2 h 7 c 1.104,0 2,-0.898 2,-2 v -0.723 h 10.529 c 0.553,0 1,-0.447 1,-1 0,-0.553 -0.447,-1 -1,-1 H 9 c -0.553,0 -1,0.447 -1,1 v 1.723 H 1 V 1 C 1,0.447 0.553,0 0,0"/>
      </g>
      <g transform="translate(97.5439,696.5996)" id="g204">
        <path inkscape:connector-curvature="0" id="path206" style="fill:#545454;fill-opacity:1;fill-rule:nonzero;stroke:none" d="m 0,0 c -2.871,0 -5.207,-2.336 -5.207,-5.208 0,-2.872 2.336,-5.208 5.207,-5.208 2.873,0 5.209,2.336 5.209,5.208 C 5.209,-2.336 2.873,0 0,0 m 0,-11.416 c -3.422,0 -6.207,2.785 -6.207,6.208 C -6.207,-1.785 -3.422,1 0,1 3.424,1 6.209,-1.785 6.209,-5.208 6.209,-8.631 3.424,-11.416 0,-11.416"/>
      </g>
      <g transform="translate(92.3447,688.0459)" id="g208">
        <path inkscape:connector-curvature="0" id="path210" style="fill:#545454;fill-opacity:1;fill-rule:nonzero;stroke:none" d="m 0,0 h -14.521 c -0.319,0 -0.62,0.152 -0.807,0.41 -0.188,0.257 -0.242,0.589 -0.147,0.893 l 4.194,13.179 c 0.133,0.415 0.517,0.698 0.953,0.698 h 20.529 c 0.32,0 0.619,-0.153 0.809,-0.41 0.187,-0.257 0.242,-0.589 0.144,-0.893 L 9.234,7.843 7.328,8.448 8.834,13.18 H -9.596 L -13.154,2 H 0 Z"/>
      </g>
      <g transform="translate(97.5449,692.3066)" id="g212">
        <path inkscape:connector-curvature="0" id="path214" style="fill:#545454;fill-opacity:1;fill-rule:nonzero;stroke:none" d="m 0,0 c -0.504,0 -0.914,-0.411 -0.914,-0.915 0,-0.504 0.41,-0.915 0.914,-0.915 0.505,0 0.915,0.411 0.915,0.915 C 0.915,-0.411 0.505,0 0,0 m 0,-2.596 c -0.926,0 -1.681,0.754 -1.681,1.681 0,0.927 0.755,1.681 1.681,1.681 0.927,0 1.681,-0.754 1.681,-1.681 0,-0.927 -0.754,-1.681 -1.681,-1.681 m -0.378,-2.053 h 0.756 v 0.522 c 0,0.31 0.222,0.618 0.516,0.717 l 0.263,0.109 c 0.073,0.038 0.186,0.064 0.303,0.064 0.208,0 0.406,-0.079 0.544,-0.217 l 0.369,-0.369 0.534,0.534 -0.369,0.37 c -0.22,0.22 -0.28,0.594 -0.142,0.872 l 0.108,0.263 c 0.089,0.269 0.396,0.491 0.708,0.491 h 0.521 v 0.756 H 3.212 c -0.312,0 -0.619,0.222 -0.718,0.517 L 2.385,0.242 C 2.259,0.494 2.318,0.868 2.537,1.088 L 2.907,1.458 2.373,1.993 2.004,1.624 C 1.788,1.408 1.406,1.345 1.132,1.481 L 0.869,1.589 C 0.601,1.678 0.378,1.986 0.378,2.296 V 2.819 H -0.378 V 2.296 C -0.378,1.986 -0.6,1.678 -0.895,1.58 L -1.156,1.47 C -1.229,1.433 -1.344,1.407 -1.46,1.407 c -0.208,0 -0.407,0.079 -0.544,0.217 L -2.373,1.993 -2.907,1.458 -2.538,1.089 c 0.219,-0.221 0.279,-0.595 0.142,-0.872 l -0.107,-0.262 c -0.09,-0.27 -0.398,-0.492 -0.708,-0.492 h -0.523 v -0.756 h 0.523 c 0.31,0 0.618,-0.222 0.717,-0.516 l 0.109,-0.264 c 0.126,-0.252 0.066,-0.626 -0.152,-0.846 l -0.37,-0.37 0.534,-0.534 0.369,0.369 c 0.213,0.215 0.599,0.28 0.872,0.142 l 0.263,-0.107 c 0.274,-0.091 0.491,-0.393 0.491,-0.708 z m 0.87,-0.766 h -0.984 c -0.36,0 -0.652,0.292 -0.652,0.651 v 0.637 l -0.305,0.118 -0.464,-0.437 c -0.245,-0.245 -0.675,-0.245 -0.921,0 l -0.696,0.697 c -0.122,0.122 -0.191,0.286 -0.191,0.46 0,0.175 0.069,0.339 0.193,0.462 l 0.448,0.449 -0.131,0.302 -0.638,0.017 c -0.359,0 -0.651,0.292 -0.651,0.651 v 0.985 c 0,0.36 0.292,0.652 0.651,0.652 h 0.638 l 0.118,0.305 -0.437,0.464 c -0.122,0.121 -0.191,0.285 -0.191,0.46 0,0.175 0.069,0.339 0.193,0.461 l 0.694,0.696 c 0.245,0.245 0.677,0.246 0.922,0 l 0.449,-0.45 0.301,0.132 0.018,0.637 c 0,0.358 0.292,0.651 0.652,0.651 h 0.984 c 0.36,0 0.653,-0.293 0.653,-0.651 V 2.296 L 1.449,2.178 1.912,2.615 c 0.124,0.123 0.287,0.191 0.461,0.191 0.175,0 0.338,-0.068 0.461,-0.19 L 3.53,1.918 C 3.652,1.797 3.721,1.633 3.721,1.458 3.721,1.283 3.652,1.119 3.529,0.997 L 3.079,0.547 3.212,0.247 3.849,0.229 C 4.208,0.229 4.5,-0.063 4.5,-0.423 V -1.408 C 4.5,-1.767 4.208,-2.059 3.849,-2.059 H 3.212 L 3.093,-2.365 3.529,-2.828 C 3.652,-2.95 3.721,-3.114 3.721,-3.289 3.721,-3.463 3.652,-3.627 3.529,-3.75 L 2.835,-4.445 C 2.587,-4.692 2.159,-4.691 1.914,-4.446 l -0.452,0.451 -0.3,-0.132 -0.017,-0.637 c 0,-0.359 -0.293,-0.651 -0.653,-0.651"/>
      </g>
    </g>
  </g>
</svg>
