<?xml version='1.0' encoding='UTF-8'?>
<!-- Created with Inkscape (http://www.inkscape.org/) and export_objects.py -->
<svg xmlns:cc="http://creativecommons.org/ns#" xmlns:dc="http://purl.org/dc/elements/1.1/" xmlns:inkscape="http://www.inkscape.org/namespaces/inkscape" xmlns:rdf="http://www.w3.org/1999/02/22-rdf-syntax-ns#" xmlns:sodipodi="http://sodipodi.sourceforge.net/DTD/sodipodi-0.dtd" xmlns:xlink="http://www.w3.org/1999/xlink" xmlns="http://www.w3.org/2000/svg" version="1.1" sodipodi:docname="step094.svg" viewBox="0 0 32.250533 31.266737" height="31.266737px" width="32.250533px" xml:space="preserve" id="svg2" inkscape:version="0.92.1 r15371">
  <sodipodi:namedview inkscape:current-layer="g10" inkscape:window-maximized="1" inkscape:window-y="-8" inkscape:window-x="1912" inkscape:cy="-862.22917" inkscape:cx="2456.2254" inkscape:zoom="0.3015625" showgrid="false" id="namedview4" inkscape:window-height="1017" inkscape:window-width="1920" inkscape:pageshadow="2" inkscape:pageopacity="0" guidetolerance="10" gridtolerance="10" objecttolerance="10" borderopacity="1" bordercolor="#666666" pagecolor="#ffffff"/>
  <metadata id="metadata8">
    <rdf:RDF>
      <cc:Work rdf:about="">
        <dc:format>image/svg+xml</dc:format>
        <dc:type rdf:resource="http://purl.org/dc/dcmitype/StillImage"/>
        <dc:title/>
      </cc:Work>
    </rdf:RDF>
  </metadata>
  <g inkscape:groupmode="layer" inkscape:label="step" transform="matrix(1.333333,0.000000,0.000000,-1.333333,-1281.486800,-202.506000)">
    <g id="g8744" inkscape:label="094">
      <g transform="translate(977.63315,-175.3285)" id="g1526">
        <path inkscape:connector-curvature="0" id="path1528" style="fill:#545454;fill-opacity:1;fill-rule:nonzero;stroke:none" d="M 0,0 C -0.42,0 -0.812,0.268 -0.949,0.689 L -7.018,19.234 -13.086,0.689 c -0.17,-0.524 -0.738,-0.814 -1.26,-0.639 -0.525,0.172 -0.812,0.736 -0.64,1.261 l 7.019,21.449 c 0.135,0.411 0.518,0.689 0.949,0.689 0.434,0 0.817,-0.278 0.952,-0.689 L 0.951,1.311 C 1.123,0.786 0.836,0.222 0.311,0.05 0.209,0.016 0.104,0 0,0"/>
      </g>
      <g transform="translate(965.46515,-175.3285)" id="g1530">
        <path inkscape:connector-curvature="0" id="path1532" style="fill:#545454;fill-opacity:1;fill-rule:nonzero;stroke:none" d="m 0,0 h -3.35 c -0.552,0 -1,0.447 -1,1 0,0.553 0.448,1 1,1 H 0 C 0.553,2 1,1.553 1,1 1,0.447 0.553,0 0,0"/>
      </g>
      <g transform="translate(979.11555,-175.3285)" id="g1534">
        <path inkscape:connector-curvature="0" id="path1536" style="fill:#545454;fill-opacity:1;fill-rule:nonzero;stroke:none" d="m 0,0 h -3.348 c -0.552,0 -1,0.447 -1,1 0,0.553 0.448,1 1,1 H 0 C 0.553,2 1,1.553 1,1 1,0.447 0.553,0 0,0"/>
      </g>
      <g transform="translate(975.09795,-168.7123)" id="g1538">
        <path inkscape:connector-curvature="0" id="path1540" style="fill:#545454;fill-opacity:1;fill-rule:nonzero;stroke:none" d="m 0,0 h -8.973 c -0.552,0 -1,0.447 -1,1 0,0.553 0.448,1 1,1 H 0 C 0.553,2 1,1.553 1,1 1,0.447 0.553,0 0,0"/>
      </g>
      <g transform="translate(983.18585,-158.8695)" id="g1542">
        <path inkscape:connector-curvature="0" id="path1544" style="fill:#545454;fill-opacity:1;fill-rule:nonzero;stroke:none" d="m 0,0 c -0.391,-0.104 -0.83,-0.209 -1.324,-0.319 -1.102,-0.243 -1.869,-0.417 -2.289,-0.531 -0.291,-0.08 -0.567,-0.235 -0.836,-0.471 -0.123,-0.103 -0.248,-0.26 -0.248,-0.656 0,-0.351 0.119,-0.62 0.383,-0.872 0.169,-0.163 0.468,-0.377 1.119,-0.377 0.636,0 1.201,0.136 1.724,0.416 0.498,0.265 0.858,0.596 1.073,0.985 C -0.264,-1.594 -0.064,-1.084 0,0 m -3.195,-5.226 c -1.014,0 -1.856,0.313 -2.5,0.93 -0.664,0.632 -1.002,1.413 -1.002,2.319 0,1.136 0.513,1.808 0.943,2.172 0.483,0.422 1.029,0.723 1.613,0.885 0.444,0.119 1.241,0.302 2.385,0.554 C -0.668,1.876 0.15,2.099 0.668,2.295 0.975,2.41 1.322,2.368 1.59,2.182 1.861,1.995 2.021,1.687 2.021,1.359 V 0.77 c 0,-1.618 -0.22,-2.789 -0.677,-3.581 -0.399,-0.716 -1.032,-1.315 -1.873,-1.763 -0.809,-0.432 -1.705,-0.652 -2.666,-0.652"/>
      </g>
      <g transform="translate(984.30305,-164.0013)" id="g1546">
        <path inkscape:connector-curvature="0" id="path1548" style="fill:#545454;fill-opacity:1;fill-rule:nonzero;stroke:none" d="m 0,0 c -0.553,0 -1,0.447 -1,1 v 6.526 c 0,1.151 -0.859,2.086 -1.918,2.086 h -0.687 c -0.766,0 -1.457,-0.493 -1.762,-1.256 -0.207,-0.513 -0.795,-0.762 -1.301,-0.557 -0.512,0.205 -0.762,0.787 -0.557,1.3 0.612,1.527 2.032,2.513 3.62,2.513 h 0.687 C -0.758,11.612 1,9.779 1,7.526 V 1 C 1,0.447 0.553,0 0,0"/>
      </g>
    </g>
  </g>
</svg>
