<?xml version='1.0' encoding='UTF-8'?>
<!-- Created with Inkscape (http://www.inkscape.org/) and export_objects.py -->
<svg xmlns:cc="http://creativecommons.org/ns#" xmlns:dc="http://purl.org/dc/elements/1.1/" xmlns:inkscape="http://www.inkscape.org/namespaces/inkscape" xmlns:rdf="http://www.w3.org/1999/02/22-rdf-syntax-ns#" xmlns:sodipodi="http://sodipodi.sourceforge.net/DTD/sodipodi-0.dtd" xmlns:xlink="http://www.w3.org/1999/xlink" xmlns="http://www.w3.org/2000/svg" version="1.1" id="svg2" xml:space="preserve" width="40.418666px" height="40.400666px" viewBox="0 0 40.418666 40.400666" sodipodi:docname="step126.svg" inkscape:version="0.92.1 r15371">
  <sodipodi:namedview pagecolor="#ffffff" bordercolor="#666666" borderopacity="1" objecttolerance="10" gridtolerance="10" guidetolerance="10" inkscape:pageopacity="0" inkscape:pageshadow="2" inkscape:window-width="1920" inkscape:window-height="1017" id="namedview4" showgrid="false" showguides="true" inkscape:zoom="1.3537284" inkscape:cx="-12.225439" inkscape:cy="865.87954" inkscape:window-x="1912" inkscape:window-y="-8" inkscape:window-maximized="1" inkscape:current-layer="g10"/>
  <metadata id="metadata8">
    <rdf:RDF>
      <cc:Work rdf:about="">
        <dc:format>image/svg+xml</dc:format>
        <dc:type rdf:resource="http://purl.org/dc/dcmitype/StillImage"/>
        <dc:title/>
      </cc:Work>
    </rdf:RDF>
  </metadata>
  <g inkscape:groupmode="layer" inkscape:label="step" transform="matrix(1.333333,0.000000,0.000000,-1.333333,435.959600,903.639780)">
    <g id="g4821" transform="translate(-341.61051)" inkscape:label="126">
      <path inkscape:connector-curvature="0" id="path4817" style="fill:#545454;fill-opacity:1;fill-rule:nonzero;stroke:none" d="m 17.2148,662.5776 c 0,-3.361 1.309,-6.521 3.685,-8.896 4.905,-4.908 12.889,-4.905 17.797,0.002 2.375,2.375 3.684,5.536 3.684,8.896 0,3.362 -1.309,6.521 -3.685,8.9 -4.906,4.904 -12.889,4.904 -17.794,0 -2.377,-2.379 -3.687,-5.538 -3.687,-8.902 m 27.74,0.002 c 0,-4.049 -1.576,-7.855 -4.437,-10.716 -5.912,-5.912 -15.53,-5.912 -21.439,-0.002 -2.862,2.861 -4.438,6.666 -4.438,10.716 0,4.05 1.577,7.858 4.441,10.722 5.908,5.907 15.525,5.907 21.434,0 2.863,-2.864 4.439,-6.67 4.439,-10.72"/>
      <path inkscape:connector-curvature="0" id="path4819" style="fill:#545454;fill-opacity:1;fill-rule:nonzero;stroke:none" d="m 34.2012,662.5801 c 0,-0.342 -0.136,-0.668 -0.377,-0.91 l -6.232,-6.229 c -0.502,-0.503 -1.318,-0.503 -1.82,0 -0.503,0.503 -0.503,1.317 0,1.82 l 5.322,5.319 -5.322,5.319 c -0.503,0.503 -0.503,1.318 0,1.821 0.502,0.502 1.318,0.502 1.82,0 l 6.232,-6.23 c 0.241,-0.241 0.377,-0.568 0.377,-0.91"/>
    </g>
  </g>
</svg>
