<?xml version="1.0" encoding="UTF-8" standalone="no"?>
<!-- Created with Inkscape (http://www.inkscape.org/) and export_objects.py -->

<svg
   xmlns:dc="http://purl.org/dc/elements/1.1/"
   xmlns:cc="http://creativecommons.org/ns#"
   xmlns:rdf="http://www.w3.org/1999/02/22-rdf-syntax-ns#"
   xmlns:svg="http://www.w3.org/2000/svg"
   xmlns="http://www.w3.org/2000/svg"
   xmlns:sodipodi="http://sodipodi.sourceforge.net/DTD/sodipodi-0.dtd"
   xmlns:inkscape="http://www.inkscape.org/namespaces/inkscape"
   version="1.1"
   sodipodi:docname="step009.svg"
   viewBox="0 0 30.283999 30.285333"
   height="30.285333px"
   width="30.283999px"
   xml:space="preserve"
   id="svg2"
   inkscape:version="0.92.1 r15371"><defs
     id="defs16" /><sodipodi:namedview
     inkscape:current-layer="g13"
     inkscape:window-maximized="1"
     inkscape:window-y="-8"
     inkscape:window-x="1592"
     inkscape:cy="21.098534"
     inkscape:cx="29.552385"
     inkscape:zoom="13.647161"
     showgrid="false"
     id="namedview4"
     inkscape:window-height="837"
     inkscape:window-width="1600"
     inkscape:pageshadow="2"
     inkscape:pageopacity="0"
     guidetolerance="10"
     gridtolerance="10"
     objecttolerance="10"
     borderopacity="1"
     bordercolor="#666666"
     pagecolor="#ffffff" /><metadata
     id="metadata8"><rdf:RDF><cc:Work
         rdf:about=""><dc:format>image/svg+xml</dc:format><dc:type
           rdf:resource="http://purl.org/dc/dcmitype/StillImage" /><dc:title /></cc:Work></rdf:RDF></metadata><g
     inkscape:groupmode="layer"
     inkscape:label="step"
     transform="matrix(1.333333,0.000000,0.000000,-1.333333,-106.420600,-1220.690800)"
     id="g13"><g
       id="g4492"><path
         transform="matrix(0.75000019,0,0,-0.75000019,79.81547,-915.51833)"
         id="path2518"
         d="M 5.8261719 0.4921875 C 2.8795059 0.4921875 0.4921875 2.8795059 0.4921875 5.8261719 L 0.4921875 24.458984 C 0.4921875 27.404317 2.8795059 29.792969 5.8261719 29.792969 L 24.458984 29.792969 C 27.405645 29.792969 29.791016 27.404317 29.791016 24.458984 L 29.791016 5.8261719 C 29.791016 2.8795059 27.405645 0.4921875 24.458984 0.4921875 L 5.8261719 0.4921875 z M 14.880859 9.7226562 L 18.650391 9.7675781 L 18.310547 10.384766 L 16.542969 10.384766 C 16.542969 10.384766 17.84375 11.065396 17.84375 12.664062 C 17.84375 14.262729 16.841786 14.646495 16.564453 14.923828 C 16.28712 15.199828 15.904297 15.475359 15.904297 15.943359 C 15.904297 16.412693 16.181042 16.541464 16.734375 16.966797 C 17.289042 17.39213 18.417969 18.07424 18.417969 19.628906 C 18.417969 21.184906 16.947525 22.761719 13.880859 22.761719 C 10.811527 22.761719 10.257812 21.07812 10.257812 20.439453 C 10.257812 19.799453 10.758896 18.387542 12.601562 17.796875 C 13.730896 17.435542 14.902344 17.542969 14.902344 17.542969 C 14.902344 17.542969 14.326172 16.989458 14.326172 16.328125 C 14.326172 15.668125 14.541016 15.603516 14.541016 15.603516 C 14.541016 15.603516 11.111328 15.924827 11.111328 13.048828 C 11.111328 9.6394956 14.880859 9.7226562 14.880859 9.7226562 z M 14.046875 10.302734 C 13.944203 10.309826 13.845286 10.328615 13.751953 10.363281 C 12.96662 10.653948 12.216818 11.38525 12.771484 13.28125 C 13.326151 15.17725 14.605183 15.413146 15.478516 15.007812 C 16.353182 14.605146 16.542219 13.301953 16.074219 12.001953 C 15.663552 10.866787 14.765578 10.253096 14.046875 10.302734 z M 21.494141 10.541016 L 22.373047 10.541016 L 22.373047 12.292969 L 24.121094 12.292969 L 24.121094 13.166016 L 22.371094 13.166016 L 22.371094 14.917969 L 21.494141 14.917969 L 21.494141 13.166016 L 19.746094 13.166016 L 19.746094 12.292969 L 21.494141 12.292969 L 21.494141 10.541016 z M 15.435547 17.90625 C 15.435547 17.90625 14.562015 17.904885 13.666016 18.074219 C 12.431349 18.310219 11.687031 19.183005 11.707031 20.013672 C 11.728365 20.844338 12.517438 22.080078 14.773438 22.080078 C 17.032104 22.080078 17.289062 20.758729 17.289062 20.164062 C 17.289062 19.566729 16.968302 19.182828 16.542969 18.798828 C 16.116302 18.416162 15.435547 17.90625 15.435547 17.90625 z "
         style="fill:#666666;fill-opacity:1;fill-rule:nonzero;stroke:none;stroke-width:1.33333302" /><g
         transform="translate(98.159454,-915.8871)"
         id="g2520"><path
           inkscape:connector-curvature="0"
           id="path2522"
           style="fill:none;stroke:#ffffff;stroke-width:0.73799998;stroke-linecap:butt;stroke-linejoin:miter;stroke-miterlimit:10;stroke-dasharray:none;stroke-opacity:1"
           d="m 0,0 h -13.974 c -2.21,0 -4.001,-1.791 -4.001,-4.001 v -13.974 c 0,-2.209 1.791,-4.001 4.001,-4.001 H 0 c 2.21,0 4,1.792 4,4.001 V -4.001 C 4,-1.791 2.21,0 0,0 Z" /></g><g
         transform="translate(90.895754,-932.0785)"
         id="g2524" /><g
         transform="translate(97.906554,-924.7377)"
         id="g2528" /></g></g></svg>