<?xml version="1.0" encoding="UTF-8" standalone="no"?>
<!-- Created with Inkscape (http://www.inkscape.org/) and export_objects.py -->

<svg
   xmlns:dc="http://purl.org/dc/elements/1.1/"
   xmlns:cc="http://creativecommons.org/ns#"
   xmlns:rdf="http://www.w3.org/1999/02/22-rdf-syntax-ns#"
   xmlns:svg="http://www.w3.org/2000/svg"
   xmlns="http://www.w3.org/2000/svg"
   xmlns:sodipodi="http://sodipodi.sourceforge.net/DTD/sodipodi-0.dtd"
   xmlns:inkscape="http://www.inkscape.org/namespaces/inkscape"
   version="1.1"
   sodipodi:docname="google+.svg"
   viewBox="0 0 30.000004 29.999999"
   height="30"
   width="30.000004"
   xml:space="preserve"
   id="svg2"
   inkscape:version="0.92.0 r15299"><defs
     id="defs16" /><sodipodi:namedview
     inkscape:current-layer="g13"
     inkscape:window-maximized="1"
     inkscape:window-y="138"
     inkscape:window-x="1912"
     inkscape:cy="15.264685"
     inkscape:cx="17.152959"
     inkscape:zoom="13.647161"
     showgrid="false"
     id="namedview4"
     inkscape:window-height="837"
     inkscape:window-width="1600"
     inkscape:pageshadow="2"
     inkscape:pageopacity="0"
     guidetolerance="10"
     gridtolerance="10"
     objecttolerance="10"
     borderopacity="1"
     bordercolor="#666666"
     pagecolor="#ffffff"
     fit-margin-top="0"
     fit-margin-left="0"
     fit-margin-right="0"
     fit-margin-bottom="0" /><metadata
     id="metadata8"><rdf:RDF><cc:Work
         rdf:about=""><dc:format>image/svg+xml</dc:format><dc:type
           rdf:resource="http://purl.org/dc/dcmitype/StillImage" /><dc:title></dc:title></cc:Work></rdf:RDF></metadata><g
     inkscape:groupmode="layer"
     inkscape:label="step"
     transform="matrix(1.333333,0,0,-1.333333,-106.91279,-1220.4838)"
     id="g13"><path
       inkscape:connector-curvature="0"
       style="fill:#666666;fill-opacity:1;fill-rule:nonzero;stroke:none;stroke-width:1.02389765"
       d="m 84.28084,-915.36308 c -2.262889,0 -4.096227,-1.83322 -4.096227,-4.09596 v -14.30809 c 0,-2.26172 1.833338,-4.09596 4.096227,-4.09596 h 14.309048 c 2.262882,0 4.094732,1.83424 4.094732,4.09596 v 14.30809 c 0,2.26274 -1.83185,4.09596 -4.094732,4.09596 z m 6.953537,-7.08805 2.894809,-0.0345 -0.260983,-0.47394 h -1.35741 c 0,0 0.998933,-0.52265 0.998933,-1.75026 0,-1.22761 -0.769457,-1.5223 -0.982434,-1.73527 -0.212978,-0.21193 -0.506966,-0.42352 -0.506966,-0.7829 0,-0.36039 0.212526,-0.45928 0.637457,-0.78589 0.425956,-0.32661 1.292914,-0.8504 1.292914,-2.04423 0,-1.19485 -1.129226,-2.40568 -3.484268,-2.40568 -2.357091,0 -2.782316,1.29284 -2.782316,1.78326 0,0.49146 0.384807,1.57566 1.799881,2.02923 0.867271,0.27747 1.766883,0.19498 1.766883,0.19498 0,0 -0.442471,0.42504 -0.442471,0.93287 0,0.50681 0.16499,0.55643 0.16499,0.55643 0,0 -2.633826,-0.24673 -2.633826,1.96175 0,2.61801 2.894807,2.55416 2.894807,2.55416 z m -0.640457,-0.44545 c -0.07884,-0.005 -0.15481,-0.0199 -0.226485,-0.0465 -0.603096,-0.22322 -1.178905,-0.78477 -0.75295,-2.24071 0.425956,-1.45594 1.408187,-1.63707 2.078862,-1.32582 0.6717,0.30921 0.81687,1.30992 0.45747,2.30819 -0.315371,0.87169 -1.00497,1.34294 -1.556897,1.30484 z m 5.71912,-0.18297 h 0.674956 v -1.34533 h 1.34241 v -0.67041 h -1.343911 v -1.34532 H 96.31304 v 1.34532 h -1.342411 v 0.67041 h 1.342411 z m -4.652691,-5.65576 c 0,0 -0.670828,10e-4 -1.358909,-0.12898 -0.948161,-0.18123 -1.51976,-0.85143 -1.504401,-1.4893 0.01638,-0.63787 0.622352,-1.58678 2.354844,-1.58678 1.73454,0 1.931871,1.01465 1.931871,1.4713 0,0.45869 -0.246327,0.75349 -0.572961,1.04836 -0.327658,0.29385 -0.850444,0.6854 -0.850444,0.6854 z"
       id="path2518" /><g
       id="g2524"
       transform="translate(90.895754,-932.0785)" /><g
       id="g2528"
       transform="translate(97.906554,-924.7377)" /></g></svg>