<?xml version='1.0' encoding='UTF-8'?>
<!-- Created with Inkscape (http://www.inkscape.org/) and export_objects.py -->
<svg xmlns:cc="http://creativecommons.org/ns#" xmlns:dc="http://purl.org/dc/elements/1.1/" xmlns:inkscape="http://www.inkscape.org/namespaces/inkscape" xmlns:rdf="http://www.w3.org/1999/02/22-rdf-syntax-ns#" xmlns:sodipodi="http://sodipodi.sourceforge.net/DTD/sodipodi-0.dtd" xmlns:xlink="http://www.w3.org/1999/xlink" xmlns="http://www.w3.org/2000/svg" version="1.1" sodipodi:docname="step081.svg" viewBox="0 0 22.390666 32.437066" height="32.437066px" width="22.390666px" xml:space="preserve" id="svg2" inkscape:version="0.92.1 r15371">
  <sodipodi:namedview inkscape:current-layer="g10" inkscape:window-maximized="1" inkscape:window-y="-8" inkscape:window-x="1912" inkscape:cy="-862.22917" inkscape:cx="2456.2254" inkscape:zoom="0.3015625" showgrid="false" id="namedview4" inkscape:window-height="1017" inkscape:window-width="1920" inkscape:pageshadow="2" inkscape:pageopacity="0" guidetolerance="10" gridtolerance="10" objecttolerance="10" borderopacity="1" bordercolor="#666666" pagecolor="#ffffff"/>
  <metadata id="metadata8">
    <rdf:RDF>
      <cc:Work rdf:about="">
        <dc:format>image/svg+xml</dc:format>
        <dc:type rdf:resource="http://purl.org/dc/dcmitype/StillImage"/>
        <dc:title/>
      </cc:Work>
    </rdf:RDF>
  </metadata>
  <g inkscape:groupmode="layer" inkscape:label="step" transform="matrix(1.333333,0.000000,0.000000,-1.333333,-1987.359400,-1196.118100)">
    <g id="g9119" inkscape:label="081">
      <g transform="translate(1496.1546,-914.9926)" id="g1048">
        <path inkscape:connector-curvature="0" id="path1050" style="fill:#545454;fill-opacity:1;fill-rule:nonzero;stroke:none" d="m 0,0 h 5.541 c 0.051,0.858 0.24,2.039 0.852,2.857 2.644,3.404 2.765,6.622 2.765,6.655 0,3.522 -2.869,6.392 -6.396,6.392 -3.528,0 -6.397,-2.87 -6.397,-6.396 0,-0.029 0.125,-3.25 2.754,-6.637 C -0.26,2.046 -0.059,0.858 0,0 m 6.539,-2 h -7.527 c -0.276,0 -0.537,0.113 -0.727,0.313 -0.189,0.201 -0.287,0.471 -0.271,0.746 0.041,0.702 -0.055,2.028 -0.485,2.598 -3.127,4.03 -3.164,7.813 -3.164,7.851 0,4.629 3.768,8.396 8.397,8.396 4.631,0 8.396,-3.767 8.396,-8.396 C 11.158,9.47 11.123,5.685 7.984,1.646 7.555,1.071 7.496,-0.339 7.537,-0.931 7.557,-1.207 7.459,-1.479 7.27,-1.683 7.082,-1.885 6.816,-2 6.539,-2"/>
      </g>
      <g transform="translate(1502.8343,-919.2211)" id="g1052">
        <path inkscape:connector-curvature="0" id="path1054" style="fill:#545454;fill-opacity:1;fill-rule:nonzero;stroke:none" d="m 0,0 h -7.836 c -0.553,0 -1,0.448 -1,1 0,0.553 0.447,1 1,1 H 0 C 0.553,2 1,1.553 1,1 1,0.448 0.553,0 0,0"/>
      </g>
      <g transform="translate(1501.8871,-921.4164)" id="g1056">
        <path inkscape:connector-curvature="0" id="path1058" style="fill:#545454;fill-opacity:1;fill-rule:nonzero;stroke:none" d="m 0,0 h -5.941 c -0.553,0 -1,0.448 -1,1 0,0.553 0.447,1 1,1 H 0 C 0.553,2 1,1.553 1,1 1,0.448 0.553,0 0,0"/>
      </g>
      <g transform="translate(1497.1253,-915.8597)" id="g1060">
        <path inkscape:connector-curvature="0" id="path1062" style="fill:#545454;fill-opacity:1;fill-rule:nonzero;stroke:none" d="m 0,0 -1.266,10.448 0.993,0.12 L 0.992,0.12 Z"/>
      </g>
      <g transform="translate(1500.7074,-915.8597)" id="g1064">
        <path inkscape:connector-curvature="0" id="path1066" style="fill:#545454;fill-opacity:1;fill-rule:nonzero;stroke:none" d="m 0,0 -0.992,0.12 1.265,10.448 0.993,-0.12 z"/>
      </g>
      <g transform="translate(1500.6957,-907.9203)" id="g1068">
        <path inkscape:connector-curvature="0" id="path1070" style="fill:#545454;fill-opacity:1;fill-rule:nonzero;stroke:none" d="M 0,0 C -0.307,0 -0.496,0.178 -0.617,0.36 -0.738,0.178 -0.928,0 -1.234,0 -1.537,0 -1.727,0.175 -1.848,0.356 -1.969,0.175 -2.156,0 -2.461,0 -2.764,0 -2.951,0.174 -3.072,0.354 -3.193,0.174 -3.381,0 -3.684,0 -4.162,0 -4.354,0.434 -4.447,0.642 -4.469,0.69 -4.5,0.763 -4.516,0.785 -4.494,0.754 -4.41,0.69 -4.297,0.69 v 1 c 0.303,0 0.492,-0.173 0.613,-0.354 0.12,0.181 0.309,0.354 0.612,0.354 0.302,0 0.49,-0.174 0.611,-0.354 0.121,0.18 0.309,0.354 0.611,0.354 0.307,0 0.496,-0.176 0.616,-0.358 0.121,0.182 0.31,0.358 0.617,0.358 0.306,0 0.496,-0.177 0.617,-0.36 0.121,0.183 0.311,0.36 0.617,0.36 v -1 C 0.73,0.69 0.812,0.753 0.836,0.784 0.82,0.762 0.787,0.689 0.766,0.641 0.672,0.433 0.479,0 0,0"/>
      </g>
    </g>
  </g>
</svg>
