<?xml version='1.0' encoding='UTF-8'?>
<!-- Created with Inkscape (http://www.inkscape.org/) and export_objects.py -->
<svg xmlns:cc="http://creativecommons.org/ns#" xmlns:dc="http://purl.org/dc/elements/1.1/" xmlns:inkscape="http://www.inkscape.org/namespaces/inkscape" xmlns:rdf="http://www.w3.org/1999/02/22-rdf-syntax-ns#" xmlns:sodipodi="http://sodipodi.sourceforge.net/DTD/sodipodi-0.dtd" xmlns:xlink="http://www.w3.org/1999/xlink" xmlns="http://www.w3.org/2000/svg" version="1.1" sodipodi:docname="step073.svg" viewBox="0 0 31.396333 31.403999" height="31.403999px" width="31.396333px" xml:space="preserve" id="svg2" inkscape:version="0.92.1 r15371">
  <sodipodi:namedview inkscape:current-layer="g10" inkscape:window-maximized="1" inkscape:window-y="-8" inkscape:window-x="1912" inkscape:cy="-862.22917" inkscape:cx="2456.2254" inkscape:zoom="0.3015625" showgrid="false" id="namedview4" inkscape:window-height="1017" inkscape:window-width="1920" inkscape:pageshadow="2" inkscape:pageopacity="0" guidetolerance="10" gridtolerance="10" objecttolerance="10" borderopacity="1" bordercolor="#666666" pagecolor="#ffffff"/>
  <metadata id="metadata8">
    <rdf:RDF>
      <cc:Work rdf:about="">
        <dc:format>image/svg+xml</dc:format>
        <dc:type rdf:resource="http://purl.org/dc/dcmitype/StillImage"/>
        <dc:title/>
      </cc:Work>
    </rdf:RDF>
  </metadata>
  <g inkscape:groupmode="layer" inkscape:label="step" transform="matrix(1.333333,0.000000,0.000000,-1.333333,-1900.368100,-1197.059000)">
    <g id="g9105" inkscape:label="073">
      <g transform="translate(1436.9203,-915.2513)" id="g878">
        <path inkscape:connector-curvature="0" id="path880" style="fill:#545454;fill-opacity:1;fill-rule:nonzero;stroke:none" d="m 0,0 c -0.303,0 -0.568,0.099 -0.793,0.294 -0.227,0.197 -0.34,0.471 -0.34,0.823 0,0.313 0.11,0.575 0.328,0.788 C -0.586,2.119 -0.318,2.226 0,2.226 0.312,2.226 0.574,2.119 0.789,1.905 1.002,1.692 1.107,1.43 1.107,1.117 1.107,0.77 0.996,0.496 0.773,0.298 0.551,0.101 0.291,0 0,0 m -3.633,8.156 c 0,0.472 0.153,0.949 0.455,1.433 0.303,0.484 0.744,0.885 1.324,1.202 0.581,0.317 1.258,0.477 2.032,0.477 0.718,0 1.355,-0.133 1.904,-0.399 C 2.633,10.604 3.059,10.242 3.359,9.787 3.66,9.33 3.809,8.834 3.809,8.298 3.809,7.876 3.725,7.507 3.553,7.189 3.381,6.871 3.178,6.598 2.943,6.367 2.707,6.136 2.283,5.748 1.674,5.202 1.506,5.049 1.369,4.913 1.268,4.797 1.166,4.68 1.09,4.573 1.041,4.477 0.992,4.38 0.953,4.283 0.926,4.187 0.898,4.09 0.857,3.92 0.803,3.677 0.709,3.16 0.414,2.902 -0.082,2.902 c -0.258,0 -0.477,0.085 -0.652,0.253 -0.176,0.17 -0.264,0.42 -0.264,0.753 0,0.416 0.064,0.777 0.193,1.082 0.129,0.306 0.301,0.573 0.514,0.804 0.213,0.231 0.502,0.505 0.863,0.822 C 0.891,6.895 1.119,7.104 1.26,7.245 1.402,7.387 1.521,7.544 1.617,7.718 1.715,7.892 1.764,8.079 1.764,8.283 1.764,8.68 1.615,9.015 1.32,9.288 1.025,9.561 0.645,9.697 0.178,9.697 -0.367,9.697 -0.77,9.56 -1.027,9.284 -1.285,9.009 -1.504,8.604 -1.682,8.067 c -0.17,-0.56 -0.49,-0.84 -0.961,-0.84 -0.277,0 -0.511,0.098 -0.703,0.294 -0.191,0.196 -0.287,0.408 -0.287,0.635"/>
      </g>
      <g transform="translate(1437.0531,-899.7943)" id="g882">
        <path inkscape:connector-curvature="0" id="path884" style="fill:#545454;fill-opacity:1;fill-rule:nonzero;stroke:none" d="m 0,0 c -2.611,0 -5.066,-1.017 -6.912,-2.862 -1.848,-1.847 -2.865,-4.302 -2.865,-6.914 0,-2.613 1.017,-5.069 2.863,-6.914 1.846,-1.846 4.301,-2.863 6.912,-2.863 2.611,0 5.068,1.018 6.916,2.865 3.811,3.811 3.811,10.014 -0.002,13.826 C 5.066,-1.017 2.611,0 0,0 m -0.002,-21.553 c -3.146,0 -6.103,1.225 -8.326,3.449 -2.225,2.223 -3.449,5.181 -3.449,8.328 0,3.146 1.226,6.103 3.451,8.328 C -6.104,0.775 -3.146,2 0,2 3.145,2 6.104,0.775 8.326,-1.448 c 4.592,-4.592 4.592,-12.063 0.002,-16.655 -2.226,-2.224 -5.183,-3.45 -8.33,-3.45"/>
      </g>
    </g>
  </g>
</svg>
