<?xml version='1.0' encoding='UTF-8'?>
<!-- Created with Inkscape (http://www.inkscape.org/) and export_objects.py -->
<svg xmlns:cc="http://creativecommons.org/ns#" xmlns:dc="http://purl.org/dc/elements/1.1/" xmlns:inkscape="http://www.inkscape.org/namespaces/inkscape" xmlns:rdf="http://www.w3.org/1999/02/22-rdf-syntax-ns#" xmlns:sodipodi="http://sodipodi.sourceforge.net/DTD/sodipodi-0.dtd" xmlns:xlink="http://www.w3.org/1999/xlink" xmlns="http://www.w3.org/2000/svg" version="1.1" sodipodi:docname="step011.svg" viewBox="0 0 24.442666 30.037333" height="30.037333px" width="24.442666px" xml:space="preserve" id="svg2" inkscape:version="0.92.1 r15371">
  <sodipodi:namedview inkscape:current-layer="g10" inkscape:window-maximized="1" inkscape:window-y="-8" inkscape:window-x="-8" inkscape:cy="-324.59921" inkscape:cx="788.4647" inkscape:zoom="0.42647378" showgrid="false" id="namedview4" inkscape:window-height="1137" inkscape:window-width="1920" inkscape:pageshadow="2" inkscape:pageopacity="0" guidetolerance="10" gridtolerance="10" objecttolerance="10" borderopacity="1" bordercolor="#666666" pagecolor="#ffffff"/>
  <metadata id="metadata8">
    <rdf:RDF>
      <cc:Work rdf:about="">
        <dc:format>image/svg+xml</dc:format>
        <dc:type rdf:resource="http://purl.org/dc/dcmitype/StillImage"/>
        <dc:title/>
      </cc:Work>
    </rdf:RDF>
  </metadata>
  <g inkscape:groupmode="layer" inkscape:label="step" transform="matrix(1.333333,0.000000,0.000000,-1.333333,-108.161940,-680.959200)">
    <g id="g8169" inkscape:label="00011">
      <g transform="translate(92.453454,-532.7474)" id="g2552">
        <path inkscape:connector-curvature="0" id="path2554" style="fill:#545454;fill-opacity:1;fill-rule:nonzero;stroke:none" d="m 0,0 c -0.277,0 -0.5,0.224 -0.5,0.5 v 6 C -0.5,6.776 -0.277,7 0,7 H 6 C 6.275,7 6.5,6.776 6.5,6.5 6.5,6.224 6.275,6 6,6 H 0.5 V 0.5 C 0.5,0.224 0.275,0 0,0"/>
      </g>
      <g transform="translate(92.453454,-533.2474)" id="g2556">
        <path inkscape:connector-curvature="0" id="path2558" style="fill:#545454;fill-opacity:1;fill-rule:nonzero;stroke:none" d="m 0,0 h -10.332 c -0.553,0 -1,0.447 -1,1 v 6 c 0,0.553 0.447,1 1,1 0.553,0 1,-0.447 1,-1 V 2 h 8.918 L 5,7.414 v 13.114 h -15.332 c -0.553,0 -1,0.448 -1,1 0,0.553 0.447,1 1,1 H 6 c 0.553,0 1,-0.447 1,-1 V 7 C 7,6.734 6.895,6.48 6.707,6.293 l -6,-6 C 0.52,0.105 0.266,0 0,0"/>
      </g>
      <g transform="translate(84.880154,-523.4154)" id="g2560">
        <path inkscape:connector-curvature="0" id="path2562" style="fill:#545454;fill-opacity:1;fill-rule:nonzero;stroke:none" d="M 0,0 H -1.345 V 4.274 H -2.033 V 0 h -1.345 v 8.539 h 1.35 V 5.39 h 0.69 V 8.539 H 0 Z"/>
      </g>
      <g transform="translate(88.531554,-515.9916)" id="g2564">
        <path inkscape:connector-curvature="0" id="path2566" style="fill:#545454;fill-opacity:1;fill-rule:nonzero;stroke:none" d="M 0,0 H -0.951 V -7.436 H -2.295 V 0 H -3.236 V 1.115 H 0 Z"/>
      </g>
      <g transform="translate(93.582354,-523.4271)" id="g2568">
        <path inkscape:connector-curvature="0" id="path2570" style="fill:#545454;fill-opacity:1;fill-rule:nonzero;stroke:none" d="m 0,0 h -1.191 v 4.002 c 0,0.467 0.025,1.057 0.077,1.771 L -2.143,0 H -2.492 L -3.52,5.773 C -3.469,5.066 -3.443,4.476 -3.443,4.002 V 0 h -1.192 v 8.551 h 1.322 l 0.701,-3.455 c 0.087,-0.424 0.186,-1.069 0.295,-1.936 0.065,0.496 0.178,1.137 0.338,1.924 l 0.701,3.467 H 0 Z"/>
      </g>
      <g transform="translate(97.234654,-523.4271)" id="g2572">
        <path inkscape:connector-curvature="0" id="path2574" style="fill:#545454;fill-opacity:1;fill-rule:nonzero;stroke:none" d="m 0,0 h -2.875 v 8.551 h 1.344 V 1.115 H 0 Z"/>
      </g>
    </g>
  </g>
</svg>
