<?xml version='1.0' encoding='UTF-8'?>
<!-- Created with Inkscape (http://www.inkscape.org/) and export_objects.py -->
<svg xmlns:cc="http://creativecommons.org/ns#" xmlns:dc="http://purl.org/dc/elements/1.1/" xmlns:inkscape="http://www.inkscape.org/namespaces/inkscape" xmlns:rdf="http://www.w3.org/1999/02/22-rdf-syntax-ns#" xmlns:sodipodi="http://sodipodi.sourceforge.net/DTD/sodipodi-0.dtd" xmlns:xlink="http://www.w3.org/1999/xlink" xmlns="http://www.w3.org/2000/svg" version="1.1" id="svg2" xml:space="preserve" width="29.501326px" height="29.502659px" viewBox="0 0 29.501326 29.502659" sodipodi:docname="step124.svg" inkscape:version="0.92.1 r15371">
  <sodipodi:namedview pagecolor="#ffffff" bordercolor="#666666" borderopacity="1" objecttolerance="10" gridtolerance="10" guidetolerance="10" inkscape:pageopacity="0" inkscape:pageshadow="2" inkscape:window-width="1600" inkscape:window-height="837" id="namedview4" showgrid="false" showguides="true" inkscape:zoom="7.6578442" inkscape:cx="3.1321646" inkscape:cy="9.9518828" inkscape:window-x="-8" inkscape:window-y="-8" inkscape:window-maximized="1" inkscape:current-layer="g8"/>
  <metadata id="metadata8">
    <rdf:RDF>
      <cc:Work rdf:about="">
        <dc:format>image/svg+xml</dc:format>
        <dc:type rdf:resource="http://purl.org/dc/dcmitype/StillImage"/>
        <dc:title/>
      </cc:Work>
    </rdf:RDF>
  </metadata>
  <g inkscape:groupmode="layer" inkscape:label="step" transform="matrix(1.333333,0.000000,0.000000,-1.333333,248.301551,1009.045748)">
    <g id="g4497" inkscape:label="124">
      <path inkscape:connector-curvature="0" id="path4823" style="fill:#545454;fill-opacity:1;fill-rule:nonzero;stroke:none" d="m -175.16321,754.5645 c -4.875,-10e-4 -8.842,-3.97 -8.844,-8.848 0.002,-4.874 3.967,-8.839 8.842,-8.839 4.877,0 8.846,3.966 8.846,8.842 -0.002,4.877 -3.969,8.845 -8.844,8.845 m -0.002,-19.907 c -6.098,0 -11.06,4.961 -11.061,11.059 0.001,6.102 4.963,11.067 11.063,11.068 6.098,0 11.062,-4.964 11.063,-11.065 0,-6.1 -4.963,-11.062 -11.065,-11.062"/>
      <g aria-label="i" transform="matrix(1,0,0,-1,-178.20571,739.8682)" style="font-style:normal;font-variant:normal;font-weight:normal;font-stretch:normal;font-size:20px;font-family:'Calisto MT';-inkscape-font-specification:'Calisto MT';writing-mode:lr-tb;fill:#545454;fill-opacity:1;fill-rule:nonzero;stroke:none" id="g4827">
        <path style="font-style:normal;font-variant:normal;font-weight:normal;font-stretch:normal;font-family:'Calisto MT';-inkscape-font-specification:'Calisto MT';fill:#545454;fill-opacity:1;stroke-width:1.33333302" d="m 16.060547,9.7949219 c -1.284722,0.7378471 -2.721355,1.2927521 -4.179688,1.6660161 v 0.730468 c 0.980363,0.434846 1.293943,0.74949 1.273438,1.939453 -0.04614,2.677498 -0.07813,2.825845 -0.07813,6.548829 -0.120196,0.249522 -0.806641,0.494791 -1.978516,0.78125 v 0.730468 c 1.935764,-0.09549 3.123698,-0.144531 3.566406,-0.144531 0.729167,0 2.511285,0.04904 3.648438,0.144531 v -0.730468 c -0.190972,-0.06076 -0.334201,-0.102865 -0.429688,-0.128907 -0.772569,-0.225694 -1.223307,-0.391927 -1.353515,-0.496093 -0.130208,-0.112848 -0.239678,-0.286933 -0.273438,-0.533204 0,-3.916857 0.142579,-6.151597 0.142579,-10.234375 z" transform="matrix(0.75000019,0,0,0.75000019,-8.0205441,-16.916467)" id="path4825" inkscape:connector-curvature="0" sodipodi:nodetypes="cccscccsccccccc"/>
      </g>
      <circle r="1.3125004" transform="scale(1,-1)" cy="-751.32373" cx="-175.19745" id="path4488" style="fill:#545454;fill-opacity:1;stroke:none;stroke-width:0.72439086"/>
    </g>
  </g>
</svg>
