<?xml version="1.0" encoding="UTF-8" standalone="no"?>
<!-- Created with Inkscape (http://www.inkscape.org/) -->

<svg
   xmlns:dc="http://purl.org/dc/elements/1.1/"
   xmlns:cc="http://creativecommons.org/ns#"
   xmlns:rdf="http://www.w3.org/1999/02/22-rdf-syntax-ns#"
   xmlns:svg="http://www.w3.org/2000/svg"
   xmlns="http://www.w3.org/2000/svg"
   xmlns:sodipodi="http://sodipodi.sourceforge.net/DTD/sodipodi-0.dtd"
   xmlns:inkscape="http://www.inkscape.org/namespaces/inkscape"
   width="12.61251mm"
   height="7.5519099mm"
   viewBox="0 0 12.61251 7.5519099"
   version="1.1"
   id="svg303"
   inkscape:version="0.92.0 r15299"
   sodipodi:docname="key.svg">
  <defs
     id="defs297" />
  <sodipodi:namedview
     id="base"
     pagecolor="#ffffff"
     bordercolor="#666666"
     borderopacity="1.0"
     inkscape:pageopacity="0.0"
     inkscape:pageshadow="2"
     inkscape:zoom="2.8"
     inkscape:cx="17.765438"
     inkscape:cy="13.236057"
     inkscape:document-units="mm"
     inkscape:current-layer="layer1"
     showgrid="false"
     fit-margin-top="0"
     fit-margin-left="0"
     fit-margin-right="0"
     fit-margin-bottom="0"
     inkscape:window-width="1600"
     inkscape:window-height="837"
     inkscape:window-x="-8"
     inkscape:window-y="-8"
     inkscape:window-maximized="1" />
  <metadata
     id="metadata300">
    <rdf:RDF>
      <cc:Work
         rdf:about="">
        <dc:format>image/svg+xml</dc:format>
        <dc:type
           rdf:resource="http://purl.org/dc/dcmitype/StillImage" />
        <dc:title></dc:title>
      </cc:Work>
    </rdf:RDF>
  </metadata>
  <g
     inkscape:label="Layer 1"
     inkscape:groupmode="layer"
     id="layer1"
     transform="translate(-167.56279,-213.09309)">
    <path
       inkscape:connector-curvature="0"
       id="path74"
       style="fill:#545454;fill-opacity:1;fill-rule:nonzero;stroke:none;stroke-width:0.35277778"
       d="m 171.33892,214.08863 c -1.53352,0 -2.78024,1.24707 -2.78024,2.78024 0,1.53317 1.24672,2.78024 2.78024,2.78024 1.06186,0 2.04505,-0.62194 2.50613,-1.58432 l 0.13476,-0.28258 h 1.54129 l 0.92604,-1.05445 0.66217,0.75459 0.66216,-0.75459 0.85478,0.97367 c 0.32773,-0.14006 0.55351,-0.46461 0.55351,-0.83256 0,-0.50341 -0.40958,-0.91299 -0.91228,-0.91299 h -4.28767 l -0.13476,-0.28328 c -0.46108,-0.96202 -1.44427,-1.58397 -2.50613,-1.58397 m 0,6.55637 c -2.08209,0 -3.77613,-1.69403 -3.77613,-3.77613 0,-2.08209 1.69404,-3.77578 3.77613,-3.77578 1.33526,0 2.57986,0.72355 3.25367,1.8669 h 3.67489 c 1.05233,0 1.90782,0.85619 1.90782,1.90888 0,0.94827 -0.71191,1.7586 -1.65418,1.88525 l -0.24412,0.0324 -0.17392,-0.17357 -0.33161,-0.37641 -0.66216,0.7553 -0.66217,-0.75459 -0.4572,0.51893 -0.24306,0.0215 h -1.15429 c -0.67381,1.14371 -1.91841,1.86725 -3.25367,1.86725" />
    <g
       id="g76"
       transform="matrix(0.35277777,0,0,-0.35277777,170.40444,216.16395)"
       style="fill:#545454;fill-opacity:1">
      <path
         d="m 0,0 c -1.105,0 -1.999,-0.895 -1.999,-1.998 0,-1.105 0.894,-1.999 1.999,-1.999 1.105,0 1.998,0.894 1.998,1.999 C 1.998,-0.895 1.105,0 0,0"
         style="fill:#545454;fill-opacity:1;fill-rule:nonzero;stroke:none"
         id="path78"
         inkscape:connector-curvature="0" />
    </g>
  </g>
</svg>
