<?xml version='1.0' encoding='UTF-8'?>
<!-- Created with Inkscape (http://www.inkscape.org/) and export_objects.py -->
<svg xmlns:cc="http://creativecommons.org/ns#" xmlns:dc="http://purl.org/dc/elements/1.1/" xmlns:inkscape="http://www.inkscape.org/namespaces/inkscape" xmlns:rdf="http://www.w3.org/1999/02/22-rdf-syntax-ns#" xmlns:sodipodi="http://sodipodi.sourceforge.net/DTD/sodipodi-0.dtd" xmlns:xlink="http://www.w3.org/1999/xlink" xmlns="http://www.w3.org/2000/svg" version="1.1" sodipodi:docname="step118.svg" viewBox="0 0 55.999999 55.999999" height="55.999999px" width="55.999999px" xml:space="preserve" id="svg2" inkscape:version="0.92.1 r15371">
  <sodipodi:namedview inkscape:current-layer="g10" inkscape:window-maximized="1" inkscape:window-y="-8" inkscape:window-x="1912" inkscape:cy="-862.22917" inkscape:cx="2456.2254" inkscape:zoom="0.3015625" showgrid="false" id="namedview4" inkscape:window-height="1017" inkscape:window-width="1920" inkscape:pageshadow="2" inkscape:pageopacity="0" guidetolerance="10" gridtolerance="10" objecttolerance="10" borderopacity="1" bordercolor="#666666" pagecolor="#ffffff"/>
  <metadata id="metadata8">
    <rdf:RDF>
      <cc:Work rdf:about="">
        <dc:format>image/svg+xml</dc:format>
        <dc:type rdf:resource="http://purl.org/dc/dcmitype/StillImage"/>
        <dc:title/>
      </cc:Work>
    </rdf:RDF>
  </metadata>
  <g inkscape:groupmode="layer" inkscape:label="step" transform="matrix(1.333333,0.000000,0.000000,-1.333333,-2054.424900,-1337.837700)">
    <g id="g9091" inkscape:label="118">
      <g transform="translate(1551.1136,-1035.2826)" id="g2600">
        <path inkscape:connector-curvature="0" id="path2602" style="fill:#545454;fill-opacity:1;fill-rule:nonzero;stroke:none" d="m 0,0 c -0.553,0 -1,0.447 -1,1 v 22.334 c 0,0.553 0.447,1 1,1 0.553,0 1,-0.447 1,-1 V 1 C 1,0.447 0.553,0 0,0"/>
      </g>
      <g transform="translate(1554.682,-1028.0326)" id="g2604">
        <path inkscape:connector-curvature="0" id="path2606" style="fill:#545454;fill-opacity:1;fill-rule:nonzero;stroke:none" d="m 0,0 c -0.275,0 -0.5,0.224 -0.5,0.5 v 15.584 c 0,0.276 0.225,0.5 0.5,0.5 0.277,0 0.5,-0.224 0.5,-0.5 V 0.5 C 0.5,0.224 0.277,0 0,0"/>
      </g>
      <g transform="translate(1558.2503,-1028.5326)" id="g2608">
        <path inkscape:connector-curvature="0" id="path2610" style="fill:#545454;fill-opacity:1;fill-rule:nonzero;stroke:none" d="m 0,0 c -0.553,0 -1,0.447 -1,1 v 15.584 c 0,0.553 0.447,1 1,1 0.553,0 1,-0.447 1,-1 V 1 C 1,0.447 0.553,0 0,0"/>
      </g>
      <g transform="translate(1561.8207,-1028.5326)" id="g2612">
        <path inkscape:connector-curvature="0" id="path2614" style="fill:#545454;fill-opacity:1;fill-rule:nonzero;stroke:none" d="m 0,0 c -0.553,0 -1,0.447 -1,1 v 15.584 c 0,0.553 0.447,1 1,1 0.553,0 1,-0.447 1,-1 V 1 C 1,0.447 0.553,0 0,0"/>
      </g>
      <g transform="translate(1565.389,-1028.0326)" id="g2616">
        <path inkscape:connector-curvature="0" id="path2618" style="fill:#545454;fill-opacity:1;fill-rule:nonzero;stroke:none" d="m 0,0 c -0.275,0 -0.5,0.224 -0.5,0.5 v 15.584 c 0,0.276 0.225,0.5 0.5,0.5 0.277,0 0.5,-0.224 0.5,-0.5 V 0.5 C 0.5,0.224 0.277,0 0,0"/>
      </g>
      <g transform="translate(1568.9574,-1028.5326)" id="g2620">
        <path inkscape:connector-curvature="0" id="path2622" style="fill:#545454;fill-opacity:1;fill-rule:nonzero;stroke:none" d="m 0,0 c -0.553,0 -1,0.447 -1,1 v 15.584 c 0,0.553 0.447,1 1,1 0.553,0 1,-0.447 1,-1 V 1 C 1,0.447 0.553,0 0,0"/>
      </g>
      <g transform="translate(1572.5277,-1035.2826)" id="g2624">
        <path inkscape:connector-curvature="0" id="path2626" style="fill:#545454;fill-opacity:1;fill-rule:nonzero;stroke:none" d="m 0,0 c -0.553,0 -1,0.447 -1,1 v 22.334 c 0,0.553 0.447,1 1,1 0.553,0 1,-0.447 1,-1 V 1 C 1,0.447 0.553,0 0,0"/>
      </g>
      <g transform="translate(1557.7884,-1038.9633)" id="g2628">
        <path inkscape:connector-curvature="0" id="path2630" style="fill:#545454;fill-opacity:1;fill-rule:nonzero;stroke:none" d="M 0,0 H -1.28 L -2.108,4.166 V 0 h -1.24 v 8.004 h 1.24 V 4.483 l 0.848,3.521 h 1.249 l -1.053,-3.49 z"/>
      </g>
      <g transform="translate(1560.0804,-1037.4584)" id="g2632">
        <path inkscape:connector-curvature="0" id="path2634" style="fill:#545454;fill-opacity:1;fill-rule:nonzero;stroke:none" d="M 0,0 V 5.035 C 0,5.22 -0.014,5.349 -0.041,5.424 -0.096,5.547 -0.201,5.608 -0.358,5.608 -0.509,5.608 -0.607,5.561 -0.655,5.465 -0.689,5.396 -0.706,5.254 -0.706,5.035 V 0 c 0,-0.212 0.017,-0.355 0.051,-0.431 0.048,-0.094 0.146,-0.142 0.297,-0.142 0.157,0 0.262,0.061 0.317,0.183 C -0.014,-0.314 0,-0.185 0,0 m 1.259,0.286 c 0,-1.256 -0.539,-1.883 -1.617,-1.883 -1.072,0 -1.608,0.627 -1.608,1.883 v 4.432 c 0,1.256 0.536,1.884 1.608,1.884 1.078,0 1.617,-0.628 1.617,-1.884 z"/>
      </g>
      <g transform="translate(1565.1371,-1038.9535)" id="g2636">
        <path inkscape:connector-curvature="0" id="path2638" style="fill:#545454;fill-opacity:1;fill-rule:nonzero;stroke:none" d="M 0,0 H -1.259 V 4.002 H -1.903 V 0 h -1.26 v 7.994 h 1.264 V 5.046 h 0.646 V 7.994 H 0 Z"/>
      </g>
      <g transform="translate(1567.7464,-1037.0189)" id="g2640">
        <path inkscape:connector-curvature="0" id="path2642" style="fill:#545454;fill-opacity:1;fill-rule:nonzero;stroke:none" d="M 0,0 -0.174,2.416 C -0.201,2.798 -0.266,3.75 -0.368,5.271 L -0.727,0 Z M 1.453,-1.944 H 0.144 L 0.082,-0.941 H -0.809 L -0.87,-1.944 h -1.31 l 0.921,8.004 h 1.791 z"/>
      </g>
      <g transform="translate(1561.8187,-1005.3783)" id="g2644">
        <path inkscape:connector-curvature="0" id="path2646" style="fill:#545454;fill-opacity:1;fill-rule:nonzero;stroke:none" d="m 0,0 c -10.477,0 -19,-8.523 -19,-19 0,-10.477 8.523,-19 19,-19 10.477,0 19,8.523 19,19 C 19,-8.523 10.477,0 0,0 m 0,-40 c -11.579,0 -21,9.421 -21,21 0,11.579 9.421,21 21,21 11.579,0 21,-9.421 21,-21 0,-11.579 -9.421,-21 -21,-21"/>
      </g>
    </g>
  </g>
</svg>
