<?xml version='1.0' encoding='UTF-8'?>
<!-- Created with Inkscape (http://www.inkscape.org/) and export_objects.py -->
<svg xmlns:cc="http://creativecommons.org/ns#" xmlns:dc="http://purl.org/dc/elements/1.1/" xmlns:inkscape="http://www.inkscape.org/namespaces/inkscape" xmlns:rdf="http://www.w3.org/1999/02/22-rdf-syntax-ns#" xmlns:sodipodi="http://sodipodi.sourceforge.net/DTD/sodipodi-0.dtd" xmlns:xlink="http://www.w3.org/1999/xlink" xmlns="http://www.w3.org/2000/svg" version="1.1" sodipodi:docname="step105.svg" viewBox="0 0 31.403999 33.445999" height="33.445999px" width="31.403999px" xml:space="preserve" id="svg2" inkscape:version="0.92.1 r15371">
  <sodipodi:namedview inkscape:current-layer="g10" inkscape:window-maximized="1" inkscape:window-y="-8" inkscape:window-x="1912" inkscape:cy="-862.22917" inkscape:cx="2456.2254" inkscape:zoom="0.3015625" showgrid="false" id="namedview4" inkscape:window-height="1017" inkscape:window-width="1920" inkscape:pageshadow="2" inkscape:pageopacity="0" guidetolerance="10" gridtolerance="10" objecttolerance="10" borderopacity="1" bordercolor="#666666" pagecolor="#ffffff"/>
  <metadata id="metadata8">
    <rdf:RDF>
      <cc:Work rdf:about="">
        <dc:format>image/svg+xml</dc:format>
        <dc:type rdf:resource="http://purl.org/dc/dcmitype/StillImage"/>
        <dc:title/>
      </cc:Work>
    </rdf:RDF>
  </metadata>
  <g inkscape:groupmode="layer" inkscape:label="step" transform="matrix(1.333333,0.000000,0.000000,-1.333333,-1279.909200,-763.793400)">
    <g id="g8881" inkscape:label="105">
      <g transform="translate(961.93195,-574.8451)" id="g1834">
        <path inkscape:connector-curvature="0" id="path1836" style="fill:#545454;fill-opacity:1;fill-rule:nonzero;stroke:none" d="m 0,0 v -11.25 h 1.891 c 0.552,0 1,-0.447 1,-1 v -1.685 l 3.125,2.469 c 0.175,0.14 0.394,0.216 0.619,0.216 h 3 V 0 Z m 1.891,-17 c -0.149,0 -0.297,0.033 -0.436,0.1 -0.346,0.167 -0.564,0.516 -0.564,0.9 v 2.75 H 0 c -1.102,0 -2,0.897 -2,2 V 0 c 0,1.103 0.898,2 2,2 h 9.635 c 1.103,0 2,-0.897 2,-2 v -11.25 c 0,-1.103 -0.897,-2 -2,-2 H 6.982 l -4.47,-3.534 C 2.332,-16.927 2.111,-17 1.891,-17"/>
      </g>
      <g transform="translate(967.39285,-581.891)" id="g1838">
        <path inkscape:connector-curvature="0" id="path1840" style="fill:#545454;fill-opacity:1;fill-rule:nonzero;stroke:none" d="M 0,0 C 0.172,0.197 0.299,0.43 0.381,0.699 0.463,0.968 0.504,1.28 0.504,1.636 0.504,2.082 0.432,2.469 0.287,2.797 0.143,3.124 -0.062,3.371 -0.33,3.539 -0.598,3.707 -0.906,3.791 -1.252,3.791 -1.5,3.791 -1.727,3.744 -1.937,3.651 -2.146,3.559 -2.326,3.424 -2.479,3.246 -2.629,3.068 -2.748,2.842 -2.836,2.565 -2.924,2.289 -2.967,1.979 -2.967,1.636 c 0,-0.702 0.164,-1.242 0.49,-1.621 0.329,-0.379 0.743,-0.569 1.241,-0.569 0.205,0 0.416,0.043 0.632,0.129 -0.13,0.098 -0.292,0.195 -0.488,0.292 -0.195,0.097 -0.33,0.172 -0.402,0.225 -0.072,0.053 -0.108,0.127 -0.108,0.224 0,0.083 0.036,0.157 0.104,0.221 0.07,0.064 0.146,0.096 0.228,0.096 C -1.016,0.633 -0.594,0.422 0,0 M 0.971,-0.674 C 1.15,-0.796 1.348,-0.915 1.561,-1.03 1.775,-1.146 1.916,-1.236 1.986,-1.305 2.055,-1.373 2.09,-1.469 2.09,-1.594 2.09,-1.683 2.049,-1.771 1.967,-1.86 1.885,-1.949 1.785,-1.993 1.67,-1.993 c -0.096,0 -0.209,0.03 -0.344,0.091 -0.135,0.061 -0.293,0.15 -0.474,0.266 -0.182,0.117 -0.381,0.253 -0.598,0.408 -0.402,-0.205 -0.897,-0.308 -1.481,-0.308 -0.474,0 -0.9,0.076 -1.275,0.227 -0.377,0.152 -0.693,0.37 -0.947,0.654 -0.256,0.284 -0.447,0.622 -0.576,1.012 -0.129,0.392 -0.194,0.818 -0.194,1.279 0,0.468 0.067,0.898 0.201,1.29 0.135,0.39 0.33,0.723 0.584,0.998 0.256,0.275 0.567,0.485 0.934,0.631 0.365,0.145 0.781,0.218 1.248,0.218 0.633,0 1.176,-0.128 1.629,-0.384 C 0.83,4.132 1.174,3.767 1.406,3.294 1.641,2.82 1.756,2.266 1.756,1.627 1.756,0.659 1.494,-0.108 0.971,-0.674"/>
      </g>
      <g transform="translate(977.01985,-584.5043)" id="g1842">
        <path inkscape:connector-curvature="0" id="path1844" style="fill:#545454;fill-opacity:1;fill-rule:nonzero;stroke:none" d="m 0,0 -0.92,-2.518 h 1.824 z m -1.684,-4.538 c -0.052,-0.124 -0.103,-0.215 -0.15,-0.274 -0.047,-0.061 -0.105,-0.108 -0.176,-0.142 -0.068,-0.035 -0.152,-0.053 -0.25,-0.053 -0.166,0 -0.308,0.06 -0.426,0.178 -0.117,0.117 -0.177,0.247 -0.177,0.389 0,0.135 0.062,0.353 0.187,0.653 l 1.594,3.936 c 0.076,0.198 0.137,0.355 0.186,0.473 0.048,0.118 0.109,0.229 0.179,0.331 0.071,0.103 0.164,0.187 0.28,0.252 0.115,0.065 0.257,0.098 0.429,0.098 0.17,0 0.313,-0.033 0.426,-0.098 C 0.533,1.14 0.627,1.054 0.697,0.949 0.768,0.844 0.836,0.711 0.898,0.552 0.959,0.392 1.014,0.255 1.059,0.142 l 1.56,-3.962 c 0.063,-0.159 0.11,-0.282 0.137,-0.37 0.027,-0.089 0.041,-0.175 0.041,-0.259 0,-0.144 -0.059,-0.273 -0.178,-0.387 C 2.5,-4.949 2.361,-5.007 2.207,-5.007 c -0.184,0 -0.316,0.054 -0.396,0.161 -0.081,0.107 -0.178,0.313 -0.291,0.617 l -0.291,0.783 h -2.481 l -0.291,-0.766 c -0.039,-0.094 -0.086,-0.203 -0.141,-0.326"/>
      </g>
      <g transform="translate(971.84795,-588.0756)" id="g1846">
        <path inkscape:connector-curvature="0" id="path1848" style="fill:#545454;fill-opacity:1;fill-rule:nonzero;stroke:none" d="m 0,0 v -4.104 h 3 c 0.225,0 0.443,-0.076 0.621,-0.215 l 3.125,-2.47 v 1.685 c 0,0.553 0.447,1 1,1 H 9.637 V 7.146 H 1.719 V 1.98 C 1.719,0.973 0.971,0.138 0,0 m 7.746,-9.854 c -0.221,0 -0.439,0.074 -0.619,0.216 L 2.652,-6.104 H 0 c -1.102,0 -2,0.898 -2,2 V 0.98 c 0,0.553 0.447,1 1,1 h 0.719 v 6.166 c 0,0.553 0.447,1 1,1 h 8.918 c 1.103,0 2,-0.897 2,-2 v -11.25 c 0,-1.102 -0.897,-2 -2,-2 H 8.746 v -2.75 c 0,-0.383 -0.219,-0.732 -0.564,-0.9 -0.137,-0.066 -0.287,-0.1 -0.436,-0.1"/>
      </g>
    </g>
  </g>
</svg>
