<?xml version='1.0' encoding='UTF-8'?>
<!-- Created with Inkscape (http://www.inkscape.org/) and export_objects.py -->
<svg xmlns:cc="http://creativecommons.org/ns#" xmlns:dc="http://purl.org/dc/elements/1.1/" xmlns:inkscape="http://www.inkscape.org/namespaces/inkscape" xmlns:rdf="http://www.w3.org/1999/02/22-rdf-syntax-ns#" xmlns:sodipodi="http://sodipodi.sourceforge.net/DTD/sodipodi-0.dtd" xmlns:xlink="http://www.w3.org/1999/xlink" xmlns="http://www.w3.org/2000/svg" version="1.1" sodipodi:docname="step026.svg" viewBox="0 0 32.478933 32.936533" height="32.936533px" width="32.478933px" xml:space="preserve" id="svg2" inkscape:version="0.92.1 r15371">
  <sodipodi:namedview inkscape:current-layer="g10" inkscape:window-maximized="1" inkscape:window-y="-8" inkscape:window-x="-8" inkscape:cy="-703.13596" inkscape:cx="825.3699" inkscape:zoom="0.42647378" showgrid="false" id="namedview4" inkscape:window-height="1137" inkscape:window-width="1920" inkscape:pageshadow="2" inkscape:pageopacity="0" guidetolerance="10" gridtolerance="10" objecttolerance="10" borderopacity="1" bordercolor="#666666" pagecolor="#ffffff"/>
  <metadata id="metadata8">
    <rdf:RDF>
      <cc:Work rdf:about="">
        <dc:format>image/svg+xml</dc:format>
        <dc:type rdf:resource="http://purl.org/dc/dcmitype/StillImage"/>
        <dc:title/>
      </cc:Work>
    </rdf:RDF>
  </metadata>
  <g inkscape:groupmode="layer" inkscape:label="step" transform="matrix(1.333333,0.000000,0.000000,-1.333333,-703.039650,-1082.872500)">
    <g id="g8569" inkscape:label="026">
      <g transform="translate(551.13895,-824.0424)" id="g1000">
        <path inkscape:connector-curvature="0" id="path1002" style="fill:#545454;fill-opacity:1;fill-rule:nonzero;stroke:none" d="m 0,0 c -0.277,0 -0.5,0.225 -0.5,0.5 0,5.729 -4.66,10.388 -10.389,10.388 -0.277,0 -0.5,0.224 -0.5,0.5 0,0.276 0.223,0.5 0.5,0.5 C -4.609,11.888 0.5,6.779 0.5,0.5 0.5,0.225 0.275,0 0,0"/>
      </g>
      <g transform="translate(547.94165,-824.0424)" id="g1004">
        <path inkscape:connector-curvature="0" id="path1006" style="fill:#545454;fill-opacity:1;fill-rule:nonzero;stroke:none" d="m 0,0 c -0.277,0 -0.5,0.225 -0.5,0.5 0,3.965 -3.227,7.19 -7.191,7.19 -0.278,0 -0.5,0.223 -0.5,0.5 0,0.276 0.222,0.5 0.5,0.5 C -3.176,8.69 0.5,5.017 0.5,0.5 0.5,0.225 0.275,0 0,0"/>
      </g>
      <g transform="translate(532.14875,-836.2748)" id="g1008">
        <path inkscape:connector-curvature="0" id="path1010" style="fill:#545454;fill-opacity:1;fill-rule:nonzero;stroke:none" d="m 0,0 c -1.301,0 -2.523,0.507 -3.443,1.428 -0.918,0.918 -1.426,2.14 -1.426,3.441 0,1.3 0.508,2.523 1.428,3.443 l 2.382,2.38 c 0.391,0.39 1.024,0.39 1.414,-10e-4 0.391,-0.39 0.391,-1.023 0,-1.414 L -2.027,6.896 C -2.57,6.354 -2.869,5.635 -2.869,4.869 -2.869,4.103 -2.57,3.383 -2.027,2.842 -0.941,1.755 0.947,1.757 2.029,2.841 L 4.41,5.224 c 0.391,0.39 1.024,0.39 1.414,0 0.391,-0.391 0.391,-1.025 0,-1.415 L 3.443,1.428 C 2.523,0.507 1.301,0 0,0"/>
      </g>
      <g transform="translate(532.68385,-825.2094)" id="g1012">
        <path inkscape:connector-curvature="0" id="path1014" style="fill:#545454;fill-opacity:1;fill-rule:nonzero;stroke:none" d="m 0,0 c 2.203,-1.563 4.102,-3.463 5.662,-5.663 l 7.283,3.499 C 10.361,1.529 7.191,4.7 3.498,7.282 Z m 5.322,-7.937 c -0.328,0 -0.646,0.162 -0.836,0.451 -1.658,2.525 -3.781,4.648 -6.308,6.308 -0.42,0.276 -0.571,0.819 -0.354,1.27 l 4.373,9.101 c 0.125,0.26 0.356,0.453 0.635,0.531 0.275,0.077 0.574,0.03 0.816,-0.128 4.649,-3.053 8.555,-6.958 11.612,-11.61 0.158,-0.241 0.205,-0.539 0.127,-0.816 -0.076,-0.278 -0.27,-0.51 -0.532,-0.635 L 5.756,-7.838 C 5.615,-7.905 5.469,-7.937 5.322,-7.937"/>
      </g>
      <g transform="translate(537.62915,-836.8568)" id="g1016">
        <path inkscape:connector-curvature="0" id="path1018" style="fill:#545454;fill-opacity:1;fill-rule:nonzero;stroke:none" d="m 0,0 c -1.049,0 -2.191,0.48 -3.117,1.405 -0.391,0.39 -0.391,1.024 -0.002,1.414 0.39,0.392 1.025,0.392 1.414,10e-4 C -0.836,1.954 0.23,1.814 0.648,2.231 1.039,2.623 1.672,2.622 2.063,2.232 2.453,1.843 2.453,1.209 2.063,0.818 1.514,0.269 0.781,0 0,0"/>
      </g>
    </g>
  </g>
</svg>
