<?xml version='1.0' encoding='UTF-8'?>
<!-- Created with Inkscape (http://www.inkscape.org/) and export_objects.py -->
<svg xmlns:cc="http://creativecommons.org/ns#" xmlns:dc="http://purl.org/dc/elements/1.1/" xmlns:inkscape="http://www.inkscape.org/namespaces/inkscape" xmlns:rdf="http://www.w3.org/1999/02/22-rdf-syntax-ns#" xmlns:sodipodi="http://sodipodi.sourceforge.net/DTD/sodipodi-0.dtd" xmlns:xlink="http://www.w3.org/1999/xlink" xmlns="http://www.w3.org/2000/svg" version="1.1" sodipodi:docname="step066.svg" viewBox="0 0 28.007999 31.435599" height="31.435599px" width="28.007999px" xml:space="preserve" id="svg2" inkscape:version="0.92.1 r15371">
  <sodipodi:namedview inkscape:current-layer="g10" inkscape:window-maximized="1" inkscape:window-y="-8" inkscape:window-x="1912" inkscape:cy="-862.22917" inkscape:cx="2456.2254" inkscape:zoom="0.3015625" showgrid="false" id="namedview4" inkscape:window-height="1017" inkscape:window-width="1920" inkscape:pageshadow="2" inkscape:pageopacity="0" guidetolerance="10" gridtolerance="10" objecttolerance="10" borderopacity="1" bordercolor="#666666" pagecolor="#ffffff"/>
  <metadata id="metadata8">
    <rdf:RDF>
      <cc:Work rdf:about="">
        <dc:format>image/svg+xml</dc:format>
        <dc:type rdf:resource="http://purl.org/dc/dcmitype/StillImage"/>
        <dc:title/>
      </cc:Work>
    </rdf:RDF>
  </metadata>
  <g inkscape:groupmode="layer" inkscape:label="step" transform="matrix(1.333333,0.000000,0.000000,-1.333333,-1979.086200,-963.710600)">
    <g id="g9172" inkscape:label="066">
      <g transform="translate(1494.8187,-732.058)" id="g790">
        <path inkscape:connector-curvature="0" id="path792" style="fill:#545454;fill-opacity:1;fill-rule:nonzero;stroke:none" d="m 0,0 c -0.553,0 -1,0.448 -1,1 v 7.275 c 0,0.553 0.447,1 1,1 0.553,0 1,-0.447 1,-1 V 1 C 1,0.448 0.553,0 0,0"/>
      </g>
      <g transform="translate(1494.8187,-746.3597)" id="g794">
        <path inkscape:connector-curvature="0" id="path796" style="fill:#545454;fill-opacity:1;fill-rule:nonzero;stroke:none" d="m 0,0 c -5.793,0 -10.504,4.712 -10.504,10.504 0,4.458 2.834,8.441 7.051,9.909 0.523,0.183 1.092,-0.093 1.273,-0.615 0.182,-0.522 -0.093,-1.092 -0.615,-1.273 -3.414,-1.19 -5.709,-4.413 -5.709,-8.021 C -8.504,5.814 -4.689,2 0,2 c 4.687,0 8.502,3.814 8.502,8.504 0,3.608 -2.293,6.831 -5.709,8.021 -0.522,0.181 -0.797,0.751 -0.615,1.273 0.181,0.522 0.75,0.798 1.273,0.615 4.217,-1.469 7.051,-5.451 7.051,-9.909 C 10.502,4.712 5.791,0 0,0"/>
      </g>
    </g>
  </g>
</svg>
