<?xml version='1.0' encoding='UTF-8'?>
<!-- Created with Inkscape (http://www.inkscape.org/) and export_objects.py -->
<svg xmlns:cc="http://creativecommons.org/ns#" xmlns:dc="http://purl.org/dc/elements/1.1/" xmlns:inkscape="http://www.inkscape.org/namespaces/inkscape" xmlns:rdf="http://www.w3.org/1999/02/22-rdf-syntax-ns#" xmlns:sodipodi="http://sodipodi.sourceforge.net/DTD/sodipodi-0.dtd" xmlns:xlink="http://www.w3.org/1999/xlink" xmlns="http://www.w3.org/2000/svg" version="1.1" sodipodi:docname="step070.svg" viewBox="0 0 30.375199 31.061333" height="31.061333px" width="30.375199px" xml:space="preserve" id="svg2" inkscape:version="0.92.1 r15371">
  <sodipodi:namedview inkscape:current-layer="g10" inkscape:window-maximized="1" inkscape:window-y="-8" inkscape:window-x="1912" inkscape:cy="-862.22917" inkscape:cx="2456.2254" inkscape:zoom="0.3015625" showgrid="false" id="namedview4" inkscape:window-height="1017" inkscape:window-width="1920" inkscape:pageshadow="2" inkscape:pageopacity="0" guidetolerance="10" gridtolerance="10" objecttolerance="10" borderopacity="1" bordercolor="#666666" pagecolor="#ffffff"/>
  <metadata id="metadata8">
    <rdf:RDF>
      <cc:Work rdf:about="">
        <dc:format>image/svg+xml</dc:format>
        <dc:type rdf:resource="http://purl.org/dc/dcmitype/StillImage"/>
        <dc:title/>
      </cc:Work>
    </rdf:RDF>
  </metadata>
  <g inkscape:groupmode="layer" inkscape:label="step" transform="matrix(1.333333,0.000000,0.000000,-1.333333,-1899.370000,-962.562800)">
    <g id="g9166" inkscape:label="070">
      <g transform="translate(1441.5082,-741.1683)" id="g826">
        <path inkscape:connector-curvature="0" id="path828" style="fill:#545454;fill-opacity:1;fill-rule:nonzero;stroke:none" d="m 0,0 c -0.205,0 -0.41,0.062 -0.588,0.191 -0.447,0.326 -0.545,0.951 -0.221,1.397 l 4.373,6.009 -4.373,6.009 c -0.324,0.447 -0.226,1.073 0.221,1.398 0.445,0.325 1.072,0.225 1.397,-0.221 l 4.8,-6.598 c 0.254,-0.351 0.254,-0.827 0,-1.177 L 0.809,0.412 C 0.613,0.143 0.309,0 0,0"/>
      </g>
      <g transform="translate(1446.3089,-734.5717)" id="g830">
        <path inkscape:connector-curvature="0" id="path832" style="fill:#545454;fill-opacity:1;fill-rule:nonzero;stroke:none" d="m 0,0 h -12.406 c -0.553,0 -1,0.447 -1,1 0,0.552 0.447,1 1,1 H 0 C 0.553,2 1,1.552 1,1 1,0.447 0.553,0 0,0"/>
      </g>
      <g transform="translate(1425.5277,-745.2181)" id="g834">
        <path inkscape:connector-curvature="0" id="path836" style="fill:#545454;fill-opacity:1;fill-rule:nonzero;stroke:none" d="m 0,0 c -0.553,0 -1,0.447 -1,1 v 21.296 c 0,0.552 0.447,1 1,1 0.553,0 1,-0.448 1,-1 V 1 C 1,0.447 0.553,0 0,0"/>
      </g>
      <g transform="translate(1438.9125,-745.2181)" id="g838">
        <path inkscape:connector-curvature="0" id="path840" style="fill:#545454;fill-opacity:1;fill-rule:nonzero;stroke:none" d="m 0,0 h -13.385 c -0.553,0 -1,0.447 -1,1 0,0.552 0.447,1 1,1 H 0 C 0.553,2 1,1.552 1,1 1,0.447 0.553,0 0,0"/>
      </g>
      <g transform="translate(1438.9125,-723.9222)" id="g842">
        <path inkscape:connector-curvature="0" id="path844" style="fill:#545454;fill-opacity:1;fill-rule:nonzero;stroke:none" d="m 0,0 h -13.385 c -0.553,0 -1,0.447 -1,1 0,0.552 0.447,1 1,1 H 0 C 0.553,2 1,1.552 1,1 1,0.447 0.553,0 0,0"/>
      </g>
    </g>
  </g>
</svg>
