<?xml version='1.0' encoding='UTF-8'?>
<!-- Created with Inkscape (http://www.inkscape.org/) and export_objects.py -->
<svg xmlns:cc="http://creativecommons.org/ns#" xmlns:dc="http://purl.org/dc/elements/1.1/" xmlns:inkscape="http://www.inkscape.org/namespaces/inkscape" xmlns:rdf="http://www.w3.org/1999/02/22-rdf-syntax-ns#" xmlns:sodipodi="http://sodipodi.sourceforge.net/DTD/sodipodi-0.dtd" xmlns:xlink="http://www.w3.org/1999/xlink" xmlns="http://www.w3.org/2000/svg" version="1.1" sodipodi:docname="step051.svg" viewBox="0 0 30.505333 34.023333" height="34.023333px" width="30.505333px" xml:space="preserve" id="svg2" inkscape:version="0.92.1 r15371">
  <sodipodi:namedview inkscape:current-layer="g10" inkscape:window-maximized="1" inkscape:window-y="-8" inkscape:window-x="1912" inkscape:cy="-862.22917" inkscape:cx="2456.2254" inkscape:zoom="0.3015625" showgrid="false" id="namedview4" inkscape:window-height="1017" inkscape:window-width="1920" inkscape:pageshadow="2" inkscape:pageopacity="0" guidetolerance="10" gridtolerance="10" objecttolerance="10" borderopacity="1" bordercolor="#666666" pagecolor="#ffffff"/>
  <metadata id="metadata8">
    <rdf:RDF>
      <cc:Work rdf:about="">
        <dc:format>image/svg+xml</dc:format>
        <dc:type rdf:resource="http://purl.org/dc/dcmitype/StillImage"/>
        <dc:title/>
      </cc:Work>
    </rdf:RDF>
  </metadata>
  <g inkscape:groupmode="layer" inkscape:label="step" transform="matrix(1.333333,0.000000,0.000000,-1.333333,-1359.070800,-522.433200)">
    <g id="g8836" inkscape:label="051">
      <g transform="translate(1021.3031,-402.2054)" id="g412">
        <path inkscape:connector-curvature="0" id="path414" style="fill:#545454;fill-opacity:1;fill-rule:nonzero;stroke:none" d="m 0,0 v -12.778 c 0,-0.198 0.16,-0.359 0.357,-0.359 h 18.164 c 0.198,0 0.358,0.161 0.358,0.359 v 12.78 l -9.4,8.062 z M 18.521,-15.137 H 0.357 c -1.3,0 -2.357,1.058 -2.357,2.359 v 13.24 c 0,0.293 0.129,0.571 0.352,0.762 l 10.482,8.918 c 0.375,0.318 0.926,0.319 1.299,-0.003 L 20.531,1.221 c 0.221,-0.19 0.348,-0.467 0.348,-0.759 v -13.24 c 0,-1.301 -1.057,-2.359 -2.358,-2.359"/>
      </g>
      <g transform="translate(1021.0316,-415.5658)" id="g416">
        <path inkscape:connector-curvature="0" id="path418" style="fill:#545454;fill-opacity:1;fill-rule:nonzero;stroke:none" d="m 0,0 c 0.158,-0.174 0.383,-0.276 0.629,-0.276 h 18.164 c 0.244,0 0.471,0.102 0.629,0.276 L 9.711,8.66 Z M 18.793,-1.276 H 0.629 c -0.764,0 -1.461,0.482 -1.734,1.2 -0.073,0.194 -0.02,0.413 0.134,0.551 l 10.35,9.228 c 0.189,0.17 0.476,0.17 0.666,0 L 20.393,0.475 c 0.154,-0.138 0.207,-0.357 0.134,-0.551 -0.273,-0.718 -0.97,-1.2 -1.734,-1.2"/>
      </g>
      <g transform="translate(1033.9281,-409.5082)" id="g420">
        <path inkscape:connector-curvature="0" id="path422" style="fill:#545454;fill-opacity:1;fill-rule:nonzero;stroke:none" d="m 0,0 c -0.139,0 -0.275,0.057 -0.373,0.167 -0.184,0.206 -0.166,0.522 0.039,0.706 L 6.83,7.26 C 7.035,7.444 7.352,7.426 7.535,7.22 7.719,7.014 7.701,6.697 7.496,6.514 L 0.332,0.127 C 0.236,0.042 0.117,0 0,0"/>
      </g>
      <g transform="translate(1027.6117,-409.558)" id="g424">
        <path inkscape:connector-curvature="0" id="path426" style="fill:#545454;fill-opacity:1;fill-rule:nonzero;stroke:none" d="m 0,0 c -0.119,0 -0.238,0.042 -0.334,0.127 l -7.217,6.436 c -0.205,0.184 -0.222,0.5 -0.039,0.707 0.182,0.206 0.498,0.224 0.705,0.04 L 0.332,0.873 C 0.539,0.689 0.557,0.373 0.373,0.167 0.273,0.057 0.137,0 0,0"/>
      </g>
    </g>
  </g>
</svg>
