<?xml version='1.0' encoding='UTF-8'?>
<!-- Created with Inkscape (http://www.inkscape.org/) and export_objects.py -->
<svg xmlns:cc="http://creativecommons.org/ns#" xmlns:dc="http://purl.org/dc/elements/1.1/" xmlns:inkscape="http://www.inkscape.org/namespaces/inkscape" xmlns:rdf="http://www.w3.org/1999/02/22-rdf-syntax-ns#" xmlns:sodipodi="http://sodipodi.sourceforge.net/DTD/sodipodi-0.dtd" xmlns:xlink="http://www.w3.org/1999/xlink" xmlns="http://www.w3.org/2000/svg" version="1.1" sodipodi:docname="step054.svg" viewBox="0 0 29.924533 30.745999" height="30.745999px" width="29.924533px" xml:space="preserve" id="svg2" inkscape:version="0.92.1 r15371">
  <sodipodi:namedview inkscape:current-layer="g10" inkscape:window-maximized="1" inkscape:window-y="-8" inkscape:window-x="1912" inkscape:cy="-862.22917" inkscape:cx="2456.2254" inkscape:zoom="0.3015625" showgrid="false" id="namedview4" inkscape:window-height="1017" inkscape:window-width="1920" inkscape:pageshadow="2" inkscape:pageopacity="0" guidetolerance="10" gridtolerance="10" objecttolerance="10" borderopacity="1" bordercolor="#666666" pagecolor="#ffffff"/>
  <metadata id="metadata8">
    <rdf:RDF>
      <cc:Work rdf:about="">
        <dc:format>image/svg+xml</dc:format>
        <dc:type rdf:resource="http://purl.org/dc/dcmitype/StillImage"/>
        <dc:title/>
      </cc:Work>
    </rdf:RDF>
  </metadata>
  <g inkscape:groupmode="layer" inkscape:label="step" transform="matrix(1.333333,0.000000,0.000000,-1.333333,-1900.790800,-882.401600)">
    <g id="g9197" inkscape:label="054">
      <g transform="translate(1427.5931,-684.8607)" id="g472">
        <path inkscape:connector-curvature="0" id="path474" style="fill:#545454;fill-opacity:1;fill-rule:nonzero;stroke:none" d="m 0,0 h -2 c 0,3.725 3.227,6.755 7.193,6.755 v -2 C 2.33,4.755 0,2.622 0,0"/>
      </g>
      <g transform="translate(1448.0365,-684.8607)" id="g476">
        <path inkscape:connector-curvature="0" id="path478" style="fill:#545454;fill-opacity:1;fill-rule:nonzero;stroke:none" d="m 0,0 h -2 c 0,2.622 -2.33,4.755 -5.193,4.755 v 2 C -3.227,6.755 0,3.725 0,0"/>
      </g>
      <g transform="translate(1436.4974,-662.8012)" id="g480">
        <path inkscape:connector-curvature="0" id="path482" style="fill:#545454;fill-opacity:1;fill-rule:nonzero;stroke:none" d="m 0,0 c -1.408,0 -2.768,-0.666 -3.734,-1.826 -1.295,-1.557 -1.76,-3.757 -1.311,-6.196 0.838,-4.415 2.842,-7.053 5.361,-7.055 2.518,0.002 4.522,2.64 5.362,7.057 0.449,2.436 -0.016,4.637 -1.313,6.195 C 3.332,-0.586 1.842,0.087 0.348,-0.009 0.189,-0.003 0.094,0 0,0 m 0.316,-16.077 v 0 c -3.039,0.002 -5.41,2.944 -6.343,7.871 -0.506,2.738 0.035,5.23 1.525,7.019 1.234,1.484 3.018,2.285 4.85,2.176 C 0.402,0.997 0.518,1 0.635,1 2.338,1 3.977,0.203 5.133,-1.186 c 1.49,-1.79 2.033,-4.282 1.529,-7.018 -0.937,-4.929 -3.31,-7.871 -6.346,-7.873"/>
      </g>
      <g transform="translate(1430.3431,-670.4262)" id="g484">
        <path inkscape:connector-curvature="0" id="path486" style="fill:#545454;fill-opacity:1;fill-rule:nonzero;stroke:none" d="m 0,0 c -0.037,0 -0.074,-0.006 -0.109,-0.02 -0.498,-0.144 -0.555,-1.445 -0.176,-2.76 0.349,-1.217 0.812,-1.895 1.154,-1.895 0.027,0 0.053,0.005 0.078,0.013 0.346,0.115 0.496,1.016 0.262,2.377 C 0.998,-1.019 0.467,0 0,0"/>
      </g>
      <g transform="translate(1443.2826,-670.4262)" id="g488">
        <path inkscape:connector-curvature="0" id="path490" style="fill:#545454;fill-opacity:1;fill-rule:nonzero;stroke:none" d="m 0,0 c -0.465,0 -0.998,-1.019 -1.207,-2.285 -0.232,-1.361 -0.084,-2.262 0.262,-2.377 0.023,-0.008 0.05,-0.013 0.076,-0.013 0.342,0 0.807,0.678 1.156,1.895 0.379,1.315 0.322,2.616 -0.176,2.76 C 0.074,-0.006 0.037,0 0,0"/>
      </g>
      <g transform="translate(1437.9583,-662.2201)" id="g492">
        <path inkscape:connector-curvature="0" id="path494" style="fill:#545454;fill-opacity:1;fill-rule:nonzero;stroke:none" d="M 0,0 C -0.391,0 -0.791,-0.016 -1.193,-0.048 -1.598,-0.016 -2.002,0 -2.393,0 c -0.345,0 -0.683,-0.013 -1.002,-0.038 -0.916,-0.074 -1.626,-0.611 -2.152,-1.28 -0.383,-0.286 -0.65,-0.617 -0.732,-0.996 -0.039,-0.172 -0.076,-0.35 -0.117,-0.529 -0.215,-0.569 -0.305,-1.061 -0.284,-1.311 -0.257,-1.231 -0.461,-2.361 -0.359,-2.714 0,0 0.039,-0.017 0.1,-0.017 0.162,0 0.472,0.12 0.584,1.003 0.07,0.563 0.027,1.221 0.082,1.797 0.527,0.458 1.378,1.128 2.361,1.128 h 0.033 c 0.535,-0.298 1.016,-0.359 1.469,-0.648 0.201,-0.128 0.709,-0.193 1.215,-0.193 0.506,0 1.013,0.065 1.215,0.193 0.455,0.289 0.933,0.35 1.47,0.648 h 0.031 c 0.983,0 1.836,-0.67 2.364,-1.128 0.054,-0.576 0.011,-1.234 0.082,-1.797 0.109,-0.883 0.42,-1.003 0.58,-1.003 0.06,0 0.101,0.017 0.101,0.017 0.102,0.353 -0.099,1.483 -0.359,2.714 0.022,0.25 -0.068,0.742 -0.283,1.311 -0.039,0.179 -0.078,0.357 -0.115,0.529 -0.082,0.379 -0.35,0.71 -0.733,0.996 -0.525,0.669 -1.236,1.206 -2.152,1.28 C 0.686,-0.013 0.348,0 0,0"/>
      </g>
      <g transform="translate(1431.8763,-670.4056)" id="g496">
        <path inkscape:connector-curvature="0" id="path498" style="fill:#545454;fill-opacity:1;fill-rule:nonzero;stroke:none" d="m 0,0 -0.012,-0.366 c -0.015,-0.292 0.092,-0.569 0.299,-0.789 0.248,-0.264 0.611,-0.419 1,-0.427 l 0.77,0.009 c 0.394,0.018 0.775,0.188 1.029,0.466 0.191,0.209 0.289,0.461 0.277,0.712 L 3.35,-0.04 C 2.258,0.282 1.088,0.295 0,0 M 1.285,-2.582 H 1.279 c -0.66,0.01 -1.289,0.281 -1.722,0.743 -0.393,0.42 -0.596,0.956 -0.569,1.511 l 0.016,0.424 c 0.006,0.136 0.023,0.267 0.051,0.395 l 0.06,0.28 0.274,0.09 C 0.863,1.343 2.486,1.326 3.969,0.812 L 4.232,0.721 4.293,0.447 C 4.32,0.317 4.344,0.186 4.348,0.058 L 4.363,-0.351 C 4.387,-0.865 4.195,-1.375 3.824,-1.781 3.393,-2.254 2.76,-2.542 2.084,-2.572 Z"/>
      </g>
      <g transform="translate(1438.4017,-670.4056)" id="g500">
        <path inkscape:connector-curvature="0" id="path502" style="fill:#545454;fill-opacity:1;fill-rule:nonzero;stroke:none" d="m 0,0 -0.012,-0.355 c -0.013,-0.302 0.094,-0.58 0.301,-0.8 0.248,-0.264 0.613,-0.419 1,-0.427 l 0.77,0.009 c 0.394,0.017 0.775,0.187 1.029,0.466 0.191,0.209 0.289,0.461 0.275,0.711 L 3.35,-0.039 C 2.258,0.28 1.088,0.294 0,0 M 1.287,-2.582 H 1.281 c -0.66,0.01 -1.287,0.28 -1.72,0.742 -0.395,0.419 -0.598,0.956 -0.573,1.511 l 0.016,0.427 c 0.008,0.137 0.025,0.262 0.051,0.384 l 0.054,0.288 0.28,0.091 C 0.865,1.343 2.486,1.326 3.969,0.812 L 4.24,0.719 4.297,0.437 C 4.322,0.307 4.344,0.181 4.348,0.058 L 4.363,-0.357 C 4.389,-0.863 4.199,-1.372 3.828,-1.78 3.396,-2.255 2.762,-2.543 2.086,-2.573 Z"/>
      </g>
      <path inkscape:connector-curvature="0" id="path504" style="fill:#545454;fill-opacity:1;fill-rule:nonzero;stroke:none" d="m 1437.8957,-671.3653 h -1.92 v 1 h 1.92 z"/>
    </g>
  </g>
</svg>
