<?xml version='1.0' encoding='UTF-8'?>
<!-- Created with Inkscape (http://www.inkscape.org/) and export_objects.py -->
<svg xmlns:cc="http://creativecommons.org/ns#" xmlns:dc="http://purl.org/dc/elements/1.1/" xmlns:inkscape="http://www.inkscape.org/namespaces/inkscape" xmlns:rdf="http://www.w3.org/1999/02/22-rdf-syntax-ns#" xmlns:sodipodi="http://sodipodi.sourceforge.net/DTD/sodipodi-0.dtd" xmlns:xlink="http://www.w3.org/1999/xlink" xmlns="http://www.w3.org/2000/svg" version="1.1" id="svg2" xml:space="preserve" width="31.695999px" height="31.693333px" viewBox="0 0 31.695999 31.693333" sodipodi:docname="step133.svg" inkscape:version="0.92.1 r15371">
  <sodipodi:namedview pagecolor="#ffffff" bordercolor="#666666" borderopacity="1" objecttolerance="10" gridtolerance="10" guidetolerance="10" inkscape:pageopacity="0" inkscape:pageshadow="2" inkscape:window-width="1920" inkscape:window-height="1017" id="namedview4" showgrid="false" inkscape:zoom="0.95723054" inkscape:cx="573.72119" inkscape:cy="692.9398" inkscape:window-x="1912" inkscape:window-y="-8" inkscape:window-maximized="1" inkscape:current-layer="g10"/>
  <metadata id="metadata8">
    <rdf:RDF>
      <cc:Work rdf:about="">
        <dc:format>image/svg+xml</dc:format>
        <dc:type rdf:resource="http://purl.org/dc/dcmitype/StillImage"/>
        <dc:title/>
      </cc:Work>
    </rdf:RDF>
  </metadata>
  <g inkscape:groupmode="layer" inkscape:label="step" transform="matrix(1.333333,0.000000,0.000000,-1.333333,-101.936000,890.294640)">
    <g id="g4801" inkscape:label="133">
      <path inkscape:connector-curvature="0" id="path216" style="fill:#545454;fill-opacity:1;fill-rule:nonzero;stroke:none" d="m 78.452,645.951 h 19.771 v 19.771 H 78.452 Z m 20.772,-2 H 77.452 c -0.553,0 -1,0.447 -1,1 v 21.77 c 0,0.552 0.447,1 1,1 h 21.772 c 0.552,0 1,-0.448 1,-1 v -21.77 c 0,-0.553 -0.448,-1 -1,-1"/>
      <path d="m 98.8662,660.3926 h -21.057 c -0.275,0 -0.5,0.224 -0.5,0.5 0,0.276 0.225,0.5 0.5,0.5 h 21.057 c 0.277,0 0.5,-0.224 0.5,-0.5 0,-0.276 -0.223,-0.5 -0.5,-0.5" style="fill:#545454;fill-opacity:1;fill-rule:nonzero;stroke:none" id="path220" inkscape:connector-curvature="0"/>
      <path d="m 80.9971,664.7856 c -0.695,0 -1.26,-0.564 -1.26,-1.26 0,-0.696 0.565,-1.26 1.26,-1.26 0.695,0 1.26,0.564 1.26,1.26 0,0.696 -0.565,1.26 -1.26,1.26" style="fill:#545454;fill-opacity:1;fill-rule:nonzero;stroke:none" id="path224" inkscape:connector-curvature="0"/>
      <path d="m 84.4092,664.7856 c -0.695,0 -1.26,-0.564 -1.26,-1.26 0,-0.696 0.565,-1.26 1.26,-1.26 0.695,0 1.26,0.564 1.26,1.26 0,0.696 -0.565,1.26 -1.26,1.26" style="fill:#545454;fill-opacity:1;fill-rule:nonzero;stroke:none" id="path228" inkscape:connector-curvature="0"/>
      <path d="m 87.8213,664.7856 c -0.695,0 -1.26,-0.564 -1.26,-1.26 0,-0.696 0.565,-1.26 1.26,-1.26 0.697,0 1.262,0.564 1.262,1.26 0,0.696 -0.565,1.26 -1.262,1.26" style="fill:#545454;fill-opacity:1;fill-rule:nonzero;stroke:none" id="path232" inkscape:connector-curvature="0"/>
      <path d="m 94.3389,649.0493 h -6.375 c -0.553,0 -1,0.448 -1,1 0,0.552 0.447,1 1,1 h 6.375 c 0.553,0 1,-0.448 1,-1 0,-0.552 -0.447,-1 -1,-1" style="fill:#545454;fill-opacity:1;fill-rule:nonzero;stroke:none" id="path236" inkscape:connector-curvature="0"/>
      <path d="m 82.3389,649.0479 c -0.256,0 -0.512,0.098 -0.707,0.293 -0.391,0.39 -0.391,1.023 0,1.414 l 2.92,2.921 -2.92,2.923 c -0.391,0.391 -0.391,1.024 0,1.415 0.391,0.389 1.023,0.39 1.414,-0.001 l 3.627,-3.63 c 0.391,-0.39 0.391,-1.023 0,-1.414 l -3.627,-3.628 c -0.195,-0.195 -0.451,-0.293 -0.707,-0.293" style="fill:#545454;fill-opacity:1;fill-rule:nonzero;stroke:none" id="path240" inkscape:connector-curvature="0"/>
    </g>
  </g>
</svg>
