<?xml version='1.0' encoding='UTF-8'?>
<!-- Created with Inkscape (http://www.inkscape.org/) and export_objects.py -->
<svg xmlns:cc="http://creativecommons.org/ns#" xmlns:dc="http://purl.org/dc/elements/1.1/" xmlns:inkscape="http://www.inkscape.org/namespaces/inkscape" xmlns:rdf="http://www.w3.org/1999/02/22-rdf-syntax-ns#" xmlns:sodipodi="http://sodipodi.sourceforge.net/DTD/sodipodi-0.dtd" xmlns:xlink="http://www.w3.org/1999/xlink" xmlns="http://www.w3.org/2000/svg" version="1.1" id="svg2" xml:space="preserve" width="30.091599px" height="23.899999px" viewBox="0 0 30.091599 23.899999" sodipodi:docname="step121.svg" inkscape:version="0.92.1 r15371">
  <sodipodi:namedview pagecolor="#ffffff" bordercolor="#666666" borderopacity="1" objecttolerance="10" gridtolerance="10" guidetolerance="10" inkscape:pageopacity="0" inkscape:pageshadow="2" inkscape:window-width="1920" inkscape:window-height="1017" id="namedview4" showgrid="false" showguides="true" inkscape:zoom="1.3537284" inkscape:cx="2.6077055" inkscape:cy="918.20129" inkscape:window-x="1912" inkscape:window-y="-8" inkscape:window-maximized="1" inkscape:current-layer="g10"/>
  <metadata id="metadata8">
    <rdf:RDF>
      <cc:Work rdf:about="">
        <dc:format>image/svg+xml</dc:format>
        <dc:type rdf:resource="http://purl.org/dc/dcmitype/StillImage"/>
        <dc:title/>
      </cc:Work>
    </rdf:RDF>
  </metadata>
  <g inkscape:groupmode="layer" inkscape:label="step" transform="matrix(1.333333,0.000000,0.000000,-1.333333,331.757210,1099.485040)">
    <g style="fill:#545454;fill-opacity:1" id="g4929" transform="translate(-341.61051)" inkscape:label="121">
      <g style="fill:#545454;fill-opacity:1" id="g4911" transform="translate(102.5107,823.8789)">
        <path d="m 0,0 -0.818,-0.816 -1.137,0.212 0.52,-1.03 -0.552,-1.016 1.142,0.177 0.796,-0.84 0.184,1.141 1.043,0.496 -1.028,0.529 z" style="fill:#545454;fill-opacity:1;fill-rule:nonzero;stroke:none" id="path4909" inkscape:connector-curvature="0"/>
      </g>
      <g style="fill:#545454;fill-opacity:1" id="g4915" transform="translate(97.0313,820.5645)">
        <path d="m 0,0 -0.491,-0.488 -0.68,0.127 0.314,-0.617 -0.332,-0.607 0.683,0.106 0.475,-0.503 0.112,0.684 0.623,0.297 -0.616,0.314 z" style="fill:#545454;fill-opacity:1;fill-rule:nonzero;stroke:none" id="path4913" inkscape:connector-curvature="0"/>
      </g>
      <g style="fill:#545454;fill-opacity:1" id="g4919" transform="translate(110.4463,821.3052)">
        <path d="m 0,0 -0.321,-0.717 -0.772,-0.141 0.583,-0.526 -0.104,-0.779 0.679,0.391 0.708,-0.339 -0.161,0.767 0.541,0.569 -0.78,0.083 z" style="fill:#545454;fill-opacity:1;fill-rule:nonzero;stroke:none" id="path4917" inkscape:connector-curvature="0"/>
      </g>
      <g style="fill:#545454;fill-opacity:1" id="g4923" transform="translate(109.1963,824.6138)">
        <path d="m 0,0 c -2.93,-0.557 -5.148,-3.127 -5.148,-6.221 0,-0.223 0.013,-0.443 0.035,-0.658 1.145,-0.59 2.005,-1.658 2.306,-2.945 0.403,0.145 0.836,0.228 1.29,0.228 1.784,0 3.276,-1.223 3.698,-2.875 1.61,0.255 3.017,1.107 3.984,2.332 -0.387,-0.073 -0.782,-0.115 -1.19,-0.115 -3.5,0 -6.337,2.837 -6.337,6.337 0,1.48 0.511,2.838 1.362,3.917" style="fill:#545454;fill-opacity:1;fill-rule:nonzero;stroke:none" id="path4921" inkscape:connector-curvature="0"/>
      </g>
      <g style="fill:#545454;fill-opacity:1" id="g4927" transform="translate(96.8506,813.2378)">
        <path d="m 0,0 c -1.375,0 -2.493,-1.118 -2.493,-2.493 0,-1.091 0.728,-2.071 1.772,-2.384 0.221,-0.074 0.429,-0.107 0.639,-0.107 h 11.025 c 0.233,0 0.462,0.042 0.683,0.126 1.312,0.413 2.165,1.578 2.165,2.912 0,1.675 -1.362,3.037 -3.038,3.037 -0.344,0 -0.69,-0.061 -1.024,-0.182 L 8.904,0.613 8.702,1.466 C 8.31,3.136 6.838,4.302 5.124,4.302 3.138,4.302 1.488,2.685 1.448,0.697 L 1.43,-0.245 0.507,-0.052 C 0.338,-0.017 0.173,0 0,0 M 10.943,-6.549 H -0.082 c -0.376,0 -0.749,0.061 -1.109,0.18 -1.68,0.503 -2.867,2.099 -2.867,3.876 0,2.227 1.803,4.041 4.028,4.057 0.449,2.437 2.606,4.303 5.154,4.303 2.173,0 4.071,-1.314 4.86,-3.278 0.255,0.044 0.512,0.066 0.769,0.066 2.539,0 4.602,-2.064 4.602,-4.601 0,-2.021 -1.293,-3.785 -3.218,-4.39 -0.357,-0.136 -0.772,-0.213 -1.194,-0.213" style="fill:#545454;fill-opacity:1;fill-rule:nonzero;stroke:none" id="path4925" inkscape:connector-curvature="0"/>
      </g>
    </g>
  </g>
</svg>
