<?xml version="1.0" encoding="UTF-8" standalone="no"?>
<!-- Created with Inkscape (http://www.inkscape.org/) and export_objects.py -->

<svg
   xmlns:dc="http://purl.org/dc/elements/1.1/"
   xmlns:cc="http://creativecommons.org/ns#"
   xmlns:rdf="http://www.w3.org/1999/02/22-rdf-syntax-ns#"
   xmlns:svg="http://www.w3.org/2000/svg"
   xmlns="http://www.w3.org/2000/svg"
   xmlns:sodipodi="http://sodipodi.sourceforge.net/DTD/sodipodi-0.dtd"
   xmlns:inkscape="http://www.inkscape.org/namespaces/inkscape"
   version="1.1"
   sodipodi:docname="opened-lock-4.svg"
   viewBox="0 0 29.999999 29.999999"
   height="30"
   width="30"
   xml:space="preserve"
   id="svg2"
   inkscape:version="0.92.0 r15299"><defs
     id="defs8" /><sodipodi:namedview
     inkscape:current-layer="g5"
     inkscape:window-maximized="1"
     inkscape:window-y="-8"
     inkscape:window-x="1654"
     inkscape:cy="17.558192"
     inkscape:cx="13.904616"
     inkscape:zoom="6.8235804"
     showgrid="false"
     id="namedview4"
     inkscape:window-height="877"
     inkscape:window-width="1538"
     inkscape:pageshadow="2"
     inkscape:pageopacity="0"
     guidetolerance="10"
     gridtolerance="10"
     objecttolerance="10"
     borderopacity="1"
     bordercolor="#666666"
     pagecolor="#ffffff"
     showguides="false"
     inkscape:measure-start="24.2175,18.905"
     inkscape:measure-end="21.2865,17.4395"
     fit-margin-top="0"
     fit-margin-left="0"
     fit-margin-right="0"
     fit-margin-bottom="0" /><metadata
     id="metadata8"><rdf:RDF><cc:Work
         rdf:about=""><dc:format>image/svg+xml</dc:format><dc:type
           rdf:resource="http://purl.org/dc/dcmitype/StillImage" /><dc:title></dc:title></cc:Work></rdf:RDF></metadata><g
     inkscape:groupmode="layer"
     inkscape:label="step"
     transform="matrix(1.333333,0,0,-1.333333,-1438.4552,-1165.2268)"
     id="g5"><path
       d="m 1080.3405,-894.9226 19.5037,-3e-4 v 19.5036 l -19.5037,3.1e-4 z m -1.4988,-0.48977 v 20.48414 c 0,0.55518 0.4518,1.00794 1.008,1.00794 h 20.4849 c 0.5562,0 1.0071,-0.45276 1.0071,-1.00794 v -20.48414 c 0,-0.55709 -0.4509,-1.00793 -1.0071,-1.00793 h -20.4849 c -0.5562,0 -1.008,0.45084 -1.008,1.00793"
       style="fill:#545454;fill-opacity:1;fill-rule:nonzero;stroke:none;stroke-width:0.9572432"
       id="path1602"
       inkscape:connector-curvature="0"
       inkscape:label="098"
       sodipodi:nodetypes="ccccccsssssssc" /><path
       inkscape:connector-curvature="0"
       style="fill:#545454;fill-opacity:1;stroke-width:0.51423186"
       d="m 1090.0924,-879.17033 c -1.5379,0 -2.8125,-1.19916 -2.8125,-2.6997 v -1.98779 h 0.936 v 1.98779 c 0,0.97175 0.8175,1.76294 1.8765,1.76294 1.059,0 1.8743,-0.79119 1.8743,-1.76294 v -3.30029 h -4.7791 c -0.4685,0 -0.8459,-0.40266 -0.8459,-0.90234 v -4.19604 c 0,-0.49971 0.3774,-0.90163 0.8459,-0.90163 h 5.8088 c 0.4685,0 0.8453,0.40192 0.8453,0.90163 v 4.19604 c 0,0.49968 -0.3768,0.90234 -0.8453,0.90234 h -0.091 v 3.30029 c 0,1.50054 -1.2746,2.6997 -2.8125,2.6997 z"
       id="rect97" /></g></svg>