<?xml version="1.0" encoding="UTF-8" standalone="no"?>
<!-- Created with Inkscape (http://www.inkscape.org/) and export_objects.py -->

<svg
   xmlns:dc="http://purl.org/dc/elements/1.1/"
   xmlns:cc="http://creativecommons.org/ns#"
   xmlns:rdf="http://www.w3.org/1999/02/22-rdf-syntax-ns#"
   xmlns:svg="http://www.w3.org/2000/svg"
   xmlns="http://www.w3.org/2000/svg"
   xmlns:sodipodi="http://sodipodi.sourceforge.net/DTD/sodipodi-0.dtd"
   xmlns:inkscape="http://www.inkscape.org/namespaces/inkscape"
   version="1.1"
   sodipodi:docname="opened-lock-3.svg"
   viewBox="0 0 29.999999 29.999999"
   height="30"
   width="30"
   xml:space="preserve"
   id="svg2"
   inkscape:version="0.92.0 r15299"><defs
     id="defs8" /><sodipodi:namedview
     inkscape:current-layer="g5"
     inkscape:window-maximized="1"
     inkscape:window-y="-8"
     inkscape:window-x="1654"
     inkscape:cy="36.453564"
     inkscape:cx="-33.458596"
     inkscape:zoom="2.4125"
     showgrid="false"
     id="namedview4"
     inkscape:window-height="877"
     inkscape:window-width="1538"
     inkscape:pageshadow="2"
     inkscape:pageopacity="0"
     guidetolerance="10"
     gridtolerance="10"
     objecttolerance="10"
     borderopacity="1"
     bordercolor="#666666"
     pagecolor="#ffffff"
     showguides="false"
     inkscape:measure-start="24.2175,18.905"
     inkscape:measure-end="21.2865,17.4395"
     fit-margin-top="0"
     fit-margin-left="0"
     fit-margin-right="0"
     fit-margin-bottom="0" /><metadata
     id="metadata8"><rdf:RDF><cc:Work
         rdf:about=""><dc:format>image/svg+xml</dc:format><dc:type
           rdf:resource="http://purl.org/dc/dcmitype/StillImage" /><dc:title></dc:title></cc:Work></rdf:RDF></metadata><g
     inkscape:groupmode="layer"
     inkscape:label="step"
     transform="matrix(1.333333,0,0,-1.333333,-1438.4552,-1165.2268)"
     id="g5"><path
       d="m 1080.3405,-894.9226 19.5037,-3e-4 v 19.5036 l -19.5037,3.1e-4 z m -1.4988,-0.48977 v 20.48414 c 0,0.55518 0.4518,1.00794 1.008,1.00794 h 20.4849 c 0.5562,0 1.0071,-0.45276 1.0071,-1.00794 v -20.48414 c 0,-0.55709 -0.4509,-1.00793 -1.0071,-1.00793 h -20.4849 c -0.5562,0 -1.008,0.45084 -1.008,1.00793"
       style="fill:#545454;fill-opacity:1;fill-rule:nonzero;stroke:none;stroke-width:0.9572432"
       id="path1602"
       inkscape:connector-curvature="0"
       inkscape:label="098"
       sodipodi:nodetypes="ccccccsssssssc" /><path
       inkscape:connector-curvature="0"
       style="color:#000000;font-style:normal;font-variant:normal;font-weight:normal;font-stretch:normal;font-size:medium;line-height:normal;font-family:sans-serif;font-variant-ligatures:normal;font-variant-position:normal;font-variant-caps:normal;font-variant-numeric:normal;font-variant-alternates:normal;font-feature-settings:normal;text-indent:0;text-align:start;text-decoration:none;text-decoration-line:none;text-decoration-style:solid;text-decoration-color:#000000;letter-spacing:normal;word-spacing:normal;text-transform:none;writing-mode:lr-tb;direction:ltr;text-orientation:mixed;dominant-baseline:auto;baseline-shift:baseline;text-anchor:start;white-space:normal;shape-padding:0;clip-rule:nonzero;display:inline;overflow:visible;visibility:visible;opacity:1;isolation:auto;mix-blend-mode:normal;color-interpolation:sRGB;color-interpolation-filters:linearRGB;solid-color:#000000;solid-opacity:1;vector-effect:none;fill:#545454;fill-opacity:1;fill-rule:nonzero;stroke:none;stroke-width:0.93748987;stroke-linecap:butt;stroke-linejoin:miter;stroke-miterlimit:4;stroke-dasharray:none;stroke-dashoffset:0;stroke-opacity:1;color-rendering:auto;image-rendering:auto;shape-rendering:auto;text-rendering:auto;enable-background:accumulate"
       d="m 1092.9043,-880.29533 c -1.5379,0 -2.8125,-1.1992 -2.8125,-2.6997 v -1.05029 h -4.7791 c -0.4685,0 -0.8459,-0.40268 -0.8459,-0.90235 v -4.19605 c 0,-0.49967 0.3774,-0.90161 0.8459,-0.90161 h 5.8089 c 0.4684,0 0.8452,0.40194 0.8452,0.90161 v 4.19605 c 0,0.49967 -0.3768,0.90235 -0.8452,0.90235 h -0.094 v 1.05029 c 0,0.97171 0.8174,1.76367 1.8764,1.76367 1.059,0 1.8743,-0.79196 1.8743,-1.76367 v -1.98779 h 0.9382 v 1.98779 c 0,1.5005 -1.2746,2.6997 -2.8125,2.6997 z"
       id="path93" /></g></svg>