<?xml version="1.0" encoding="UTF-8" standalone="no"?>
<!-- Created with Inkscape (http://www.inkscape.org/) -->

<svg
   xmlns:dc="http://purl.org/dc/elements/1.1/"
   xmlns:cc="http://creativecommons.org/ns#"
   xmlns:rdf="http://www.w3.org/1999/02/22-rdf-syntax-ns#"
   xmlns:svg="http://www.w3.org/2000/svg"
   xmlns="http://www.w3.org/2000/svg"
   xmlns:sodipodi="http://sodipodi.sourceforge.net/DTD/sodipodi-0.dtd"
   xmlns:inkscape="http://www.inkscape.org/namespaces/inkscape"
   width="20.000002"
   height="32"
   viewBox="0 0 5.291667 8.4666672"
   version="1.1"
   id="svg1486"
   inkscape:version="0.92.0 r15299"
   sodipodi:docname="opened-lock-2.svg">
  <defs
     id="defs1480" />
  <sodipodi:namedview
     id="base"
     pagecolor="#ffffff"
     bordercolor="#666666"
     borderopacity="1.0"
     inkscape:pageopacity="0.0"
     inkscape:pageshadow="2"
     inkscape:zoom="5.6"
     inkscape:cx="9.5129068"
     inkscape:cy="7.2024942"
     inkscape:document-units="mm"
     inkscape:current-layer="layer1"
     showgrid="false"
     fit-margin-top="0"
     fit-margin-left="0"
     fit-margin-right="0"
     fit-margin-bottom="0"
     units="px"
     inkscape:window-width="1538"
     inkscape:window-height="877"
     inkscape:window-x="1654"
     inkscape:window-y="-8"
     inkscape:window-maximized="1" />
  <metadata
     id="metadata1483">
    <rdf:RDF>
      <cc:Work
         rdf:about="">
        <dc:format>image/svg+xml</dc:format>
        <dc:type
           rdf:resource="http://purl.org/dc/dcmitype/StillImage" />
        <dc:title></dc:title>
      </cc:Work>
    </rdf:RDF>
  </metadata>
  <g
     inkscape:label="Layer 1"
     inkscape:groupmode="layer"
     id="layer1"
     transform="translate(-81.00029,-153.00998)">
    <path
       inkscape:connector-curvature="0"
       style="fill:#545454;fill-opacity:1;stroke-width:0.3628197"
       d="m 83.646639,153.00997 c -1.085059,0 -1.984375,0.84608 -1.984375,1.90479 v 1.4025 h 0.660424 v -1.4025 c 0,-0.68562 0.576773,-1.24385 1.323951,-1.24385 0.747181,0 1.322401,0.55823 1.322401,1.24385 v 2.32854 h -3.371887 c -0.330523,0 -0.596863,0.2841 -0.596863,0.63666 v 2.96054 c 0,0.35257 0.26634,0.63615 0.596863,0.63615 h 4.098457 c 0.330522,0 0.596347,-0.28358 0.596347,-0.63615 v -2.96054 c 0,-0.35256 -0.265825,-0.63666 -0.596347,-0.63666 h -0.0646 v -2.32854 c 0,-1.05871 -0.899313,-1.90479 -1.984375,-1.90479 z"
       id="rect97" />
  </g>
</svg>
