<?xml version='1.0' encoding='UTF-8'?>
<!-- Created with Inkscape (http://www.inkscape.org/) and export_objects.py -->
<svg xmlns:cc="http://creativecommons.org/ns#" xmlns:dc="http://purl.org/dc/elements/1.1/" xmlns:inkscape="http://www.inkscape.org/namespaces/inkscape" xmlns:rdf="http://www.w3.org/1999/02/22-rdf-syntax-ns#" xmlns:sodipodi="http://sodipodi.sourceforge.net/DTD/sodipodi-0.dtd" xmlns:xlink="http://www.w3.org/1999/xlink" xmlns="http://www.w3.org/2000/svg" version="1.1" sodipodi:docname="step002.svg" viewBox="0 0 24.442666 30.037333" height="30.037333px" width="24.442666px" xml:space="preserve" id="svg2" inkscape:version="0.92.1 r15371">
  <sodipodi:namedview inkscape:current-layer="g10" inkscape:window-maximized="1" inkscape:window-y="-8" inkscape:window-x="-8" inkscape:cy="-324.59921" inkscape:cx="788.4647" inkscape:zoom="0.42647378" showgrid="false" id="namedview4" inkscape:window-height="1137" inkscape:window-width="1920" inkscape:pageshadow="2" inkscape:pageopacity="0" guidetolerance="10" gridtolerance="10" objecttolerance="10" borderopacity="1" bordercolor="#666666" pagecolor="#ffffff"/>
  <metadata id="metadata8">
    <rdf:RDF>
      <cc:Work rdf:about="">
        <dc:format>image/svg+xml</dc:format>
        <dc:type rdf:resource="http://purl.org/dc/dcmitype/StillImage"/>
        <dc:title/>
      </cc:Work>
    </rdf:RDF>
  </metadata>
  <g inkscape:groupmode="layer" inkscape:label="step" transform="matrix(1.333333,0.000000,0.000000,-1.333333,-108.161940,-206.292500)">
    <g id="g8090" inkscape:label="00002">
      <g transform="translate(92.453454,-176.7474)" id="g2208">
        <path inkscape:connector-curvature="0" id="path2210" style="fill:#545454;fill-opacity:1;fill-rule:nonzero;stroke:none" d="m 0,0 c -0.277,0 -0.5,0.224 -0.5,0.5 v 6 C -0.5,6.776 -0.277,7 0,7 H 6 C 6.275,7 6.5,6.776 6.5,6.5 6.5,6.224 6.275,6 6,6 H 0.5 V 0.5 C 0.5,0.224 0.275,0 0,0"/>
      </g>
      <g transform="translate(92.453454,-177.2474)" id="g2212">
        <path inkscape:connector-curvature="0" id="path2214" style="fill:#545454;fill-opacity:1;fill-rule:nonzero;stroke:none" d="m 0,0 h -10.332 c -0.553,0 -1,0.447 -1,1 v 6 c 0,0.553 0.447,1 1,1 0.553,0 1,-0.447 1,-1 V 2 h 8.918 L 5,7.414 v 13.114 h -15.332 c -0.553,0 -1,0.448 -1,1 0,0.553 0.447,1 1,1 H 6 c 0.553,0 1,-0.447 1,-1 V 7 C 7,6.734 6.895,6.48 6.707,6.293 l -6,-6 C 0.52,0.105 0.266,0 0,0"/>
      </g>
      <g transform="translate(83.277654,-161.9877)" id="g2216">
        <path inkscape:connector-curvature="0" id="path2218" style="fill:#545454;fill-opacity:1;fill-rule:nonzero;stroke:none" d="m 0,0 v 0.609 c 0,0.244 -0.037,0.412 -0.111,0.506 -0.076,0.093 -0.213,0.14 -0.412,0.14 H -0.627 V -0.74 h 0.104 c 0.199,0 0.336,0.056 0.412,0.169 C -0.037,-0.459 0,-0.269 0,0 M 1.152,-0.253 C 1.152,-0.74 1.045,-1.093 0.83,-1.312 0.613,-1.53 0.263,-1.639 -0.225,-1.639 H -0.627 V -5.18 h -1.152 v 7.325 h 1.601 C 0.297,2.145 0.637,2.051 0.844,1.864 1.049,1.677 1.152,1.361 1.152,0.918 Z"/>
      </g>
      <g transform="translate(86.612554,-165.5004)" id="g2220">
        <path inkscape:connector-curvature="0" id="path2222" style="fill:#545454;fill-opacity:1;fill-rule:nonzero;stroke:none" d="M 0,0 V 4.093 C 0,4.337 -0.038,4.507 -0.112,4.604 -0.187,4.701 -0.325,4.749 -0.524,4.749 H -0.628 V -0.74 h 0.104 c 0.199,0 0.337,0.056 0.412,0.169 C -0.038,-0.459 0,-0.269 0,0 M 1.152,0.056 C 1.152,-0.581 1.043,-1.027 0.824,-1.283 0.605,-1.54 0.206,-1.667 -0.374,-1.667 H -1.78 v 7.325 h 1.227 c 0.675,0 1.127,-0.106 1.359,-0.319 0.23,-0.212 0.346,-0.64 0.346,-1.283 z"/>
      </g>
      <g transform="translate(90.922154,-163.5614)" id="g2224">
        <path inkscape:connector-curvature="0" id="path2226" style="fill:#545454;fill-opacity:1;fill-rule:nonzero;stroke:none" d="M 0,0 H -1.434 V -3.606 H -2.586 V 3.719 H 0 V 2.792 H -1.434 V 0.937 H 0 Z"/>
      </g>
      <g transform="translate(93.179954,-159.7489)" id="g2228">
        <path inkscape:connector-curvature="0" id="path2230" style="fill:#545454;fill-opacity:1;fill-rule:nonzero;stroke:none" d="M 0,0 -1.658,-8.29 H -2.38 L -0.731,0 Z"/>
      </g>
      <g transform="translate(95.258154,-165.3881)" id="g2232">
        <path inkscape:connector-curvature="0" id="path2234" style="fill:#545454;fill-opacity:1;fill-rule:nonzero;stroke:none" d="m 0,0 -0.158,2.211 c -0.026,0.35 -0.085,1.221 -0.179,2.613 L -0.664,0 Z M 1.33,-1.78 H 0.132 L 0.076,-0.862 H -0.739 L -0.796,-1.78 h -1.198 l 0.842,7.325 h 1.64 z"/>
      </g>
    </g>
  </g>
</svg>
