<?xml version='1.0' encoding='UTF-8'?>
<!-- Created with Inkscape (http://www.inkscape.org/) and export_objects.py -->
<svg xmlns:cc="http://creativecommons.org/ns#" xmlns:dc="http://purl.org/dc/elements/1.1/" xmlns:inkscape="http://www.inkscape.org/namespaces/inkscape" xmlns:rdf="http://www.w3.org/1999/02/22-rdf-syntax-ns#" xmlns:sodipodi="http://sodipodi.sourceforge.net/DTD/sodipodi-0.dtd" xmlns:xlink="http://www.w3.org/1999/xlink" xmlns="http://www.w3.org/2000/svg" version="1.1" sodipodi:docname="step001.svg" viewBox="0 0 24.442666 30.037333" height="30.037333px" width="24.442666px" xml:space="preserve" id="svg2" inkscape:version="0.92.1 r15371">
  <sodipodi:namedview inkscape:current-layer="g10" inkscape:window-maximized="1" inkscape:window-y="-8" inkscape:window-x="-8" inkscape:cy="-324.59921" inkscape:cx="788.4647" inkscape:zoom="0.42647378" showgrid="false" id="namedview4" inkscape:window-height="1137" inkscape:window-width="1920" inkscape:pageshadow="2" inkscape:pageopacity="0" guidetolerance="10" gridtolerance="10" objecttolerance="10" borderopacity="1" bordercolor="#666666" pagecolor="#ffffff"/>
  <metadata id="metadata8">
    <rdf:RDF>
      <cc:Work rdf:about="">
        <dc:format>image/svg+xml</dc:format>
        <dc:type rdf:resource="http://purl.org/dc/dcmitype/StillImage"/>
        <dc:title/>
      </cc:Work>
    </rdf:RDF>
  </metadata>
  <g inkscape:groupmode="layer" inkscape:label="step" transform="matrix(1.333333,0.000000,0.000000,-1.333333,-108.161940,-123.625900)">
    <g id="g8074" inkscape:label="00001">
      <g transform="translate(92.453454,-114.7474)" id="g2188">
        <path inkscape:connector-curvature="0" id="path2190" style="fill:#545454;fill-opacity:1;fill-rule:nonzero;stroke:none" d="m 0,0 c -0.277,0 -0.5,0.224 -0.5,0.5 v 6 C -0.5,6.776 -0.277,7 0,7 H 6 C 6.275,7 6.5,6.776 6.5,6.5 6.5,6.224 6.275,6 6,6 H 0.5 V 0.5 C 0.5,0.224 0.275,0 0,0"/>
      </g>
      <g transform="translate(92.453454,-115.2474)" id="g2192">
        <path inkscape:connector-curvature="0" id="path2194" style="fill:#545454;fill-opacity:1;fill-rule:nonzero;stroke:none" d="m 0,0 h -10.332 c -0.553,0 -1,0.447 -1,1 v 6 c 0,0.553 0.447,1 1,1 0.553,0 1,-0.447 1,-1 V 2 h 8.918 L 5,7.414 v 13.114 h -15.332 c -0.553,0 -1,0.448 -1,1 0,0.553 0.447,1 1,1 H 6 c 0.553,0 1,-0.447 1,-1 V 7 C 7,6.734 6.895,6.48 6.707,6.293 l -6,-6 C 0.52,0.105 0.266,0 0,0"/>
      </g>
      <g transform="translate(83.883154,-98.8876)" id="g2196">
        <path inkscape:connector-curvature="0" id="path2198" style="fill:#545454;fill-opacity:1;fill-rule:nonzero;stroke:none" d="m 0,0 v 0.782 c 0,0.313 -0.049,0.53 -0.145,0.65 -0.095,0.12 -0.273,0.18 -0.529,0.18 H -0.807 V -0.95 h 0.133 c 0.256,0 0.434,0.072 0.529,0.216 C -0.049,-0.589 0,-0.345 0,0 M 1.479,-0.325 C 1.479,-0.95 1.342,-1.403 1.064,-1.684 0.787,-1.965 0.336,-2.105 -0.289,-2.105 h -0.518 v -4.547 h -1.478 v 9.407 h 2.056 c 0.61,0 1.047,-0.12 1.311,-0.361 C 1.348,2.153 1.479,1.749 1.479,1.179 Z"/>
      </g>
      <g transform="translate(88.165354,-103.3988)" id="g2200">
        <path inkscape:connector-curvature="0" id="path2202" style="fill:#545454;fill-opacity:1;fill-rule:nonzero;stroke:none" d="M 0,0 V 5.257 C 0,5.57 -0.048,5.789 -0.144,5.913 -0.24,6.037 -0.417,6.099 -0.673,6.099 H -0.806 V -0.95 h 0.133 c 0.256,0 0.433,0.072 0.529,0.217 C -0.048,-0.589 0,-0.345 0,0 m 1.479,0.072 c 0,-0.818 -0.14,-1.391 -0.42,-1.72 -0.281,-0.329 -0.794,-0.493 -1.54,-0.493 H -2.286 V 7.266 H -0.71 C 0.157,7.266 0.737,7.13 1.034,6.857 1.331,6.584 1.479,6.035 1.479,5.209 Z"/>
      </g>
      <g transform="translate(93.699554,-100.9086)" id="g2204">
        <path inkscape:connector-curvature="0" id="path2206" style="fill:#545454;fill-opacity:1;fill-rule:nonzero;stroke:none" d="M 0,0 H -1.841 V -4.631 H -3.32 V 4.776 H 0 V 3.585 H -1.841 V 1.203 H 0 Z"/>
      </g>
    </g>
  </g>
</svg>
