<?xml version='1.0' encoding='UTF-8'?>
<!-- Created with Inkscape (http://www.inkscape.org/) and export_objects.py -->
<svg xmlns:cc="http://creativecommons.org/ns#" xmlns:dc="http://purl.org/dc/elements/1.1/" xmlns:inkscape="http://www.inkscape.org/namespaces/inkscape" xmlns:rdf="http://www.w3.org/1999/02/22-rdf-syntax-ns#" xmlns:sodipodi="http://sodipodi.sourceforge.net/DTD/sodipodi-0.dtd" xmlns:xlink="http://www.w3.org/1999/xlink" xmlns="http://www.w3.org/2000/svg" version="1.1" sodipodi:docname="step108.svg" viewBox="0 0 36.333332 33.333333" height="33.333333px" width="36.333332px" xml:space="preserve" id="svg2" inkscape:version="0.92.1 r15371">
  <sodipodi:namedview inkscape:current-layer="g10" inkscape:window-maximized="1" inkscape:window-y="-8" inkscape:window-x="1912" inkscape:cy="-862.22917" inkscape:cx="2456.2254" inkscape:zoom="0.3015625" showgrid="false" id="namedview4" inkscape:window-height="1017" inkscape:window-width="1920" inkscape:pageshadow="2" inkscape:pageopacity="0" guidetolerance="10" gridtolerance="10" objecttolerance="10" borderopacity="1" bordercolor="#666666" pagecolor="#ffffff"/>
  <metadata id="metadata8">
    <rdf:RDF>
      <cc:Work rdf:about="">
        <dc:format>image/svg+xml</dc:format>
        <dc:type rdf:resource="http://purl.org/dc/dcmitype/StillImage"/>
        <dc:title/>
      </cc:Work>
    </rdf:RDF>
  </metadata>
  <g inkscape:groupmode="layer" inkscape:label="step" transform="matrix(1.333333,0.000000,0.000000,-1.333333,-1278.202200,-1242.516100)">
    <g id="g8997" inkscape:label="108">
      <g transform="translate(960.65165,-933.8871)" id="g2028">
        <path inkscape:connector-curvature="0" id="path2030" style="fill:#545454;fill-opacity:1;fill-rule:nonzero;stroke:none" d="m 0,0 v -17.25 h 3.253 c 0.552,0 1,-0.447 1,-1 v -1.686 l 3.126,2.47 c 0.176,0.14 0.394,0.216 0.62,0.216 H 23.25 V 0 Z m 3.253,-23 c -0.149,0 -0.298,0.033 -0.437,0.1 -0.345,0.168 -0.563,0.516 -0.563,0.9 v 2.75 H 0 c -1.102,0 -2,0.897 -2,2 V 0 c 0,1.103 0.898,2 2,2 h 23.25 c 1.104,0 2,-0.897 2,-2 v -17.25 c 0,-1.103 -0.896,-2 -2,-2 H 8.346 L 3.874,-22.784 C 3.693,-22.927 3.473,-23 3.253,-23"/>
      </g>
      <g transform="translate(970.50815,-940.0619)" id="g2032">
        <path inkscape:connector-curvature="0" id="path2034" style="fill:#545454;fill-opacity:1;fill-rule:nonzero;stroke:none" d="m 0,0 v 1.1 c 0,0.441 -0.068,0.746 -0.203,0.915 -0.136,0.169 -0.385,0.254 -0.746,0.254 h -0.186 v -3.607 h 0.186 c 0.361,0 0.61,0.102 0.746,0.305 C -0.068,-0.83 0,-0.486 0,0 m 2.082,-0.458 c 0,-0.88 -0.194,-1.519 -0.584,-1.913 C 1.109,-2.767 0.474,-2.964 -0.406,-2.964 H -1.135 V -9.365 H -3.218 V 3.877 h 2.896 C 0.535,3.877 1.15,3.707 1.523,3.369 1.896,3.03 2.082,2.461 2.082,1.658 Z"/>
      </g>
      <g transform="translate(977.89095,-949.4271)" id="g2036">
        <path inkscape:connector-curvature="0" id="path2038" style="fill:#545454;fill-opacity:1;fill-rule:nonzero;stroke:none" d="m 0,0 h -4.454 v 13.242 h 2.083 V 1.728 H 0 Z"/>
      </g>
    </g>
  </g>
</svg>
