<?xml version='1.0' encoding='UTF-8'?>
<!-- Created with Inkscape (http://www.inkscape.org/) and export_objects.py -->
<svg xmlns:cc="http://creativecommons.org/ns#" xmlns:dc="http://purl.org/dc/elements/1.1/" xmlns:inkscape="http://www.inkscape.org/namespaces/inkscape" xmlns:rdf="http://www.w3.org/1999/02/22-rdf-syntax-ns#" xmlns:sodipodi="http://sodipodi.sourceforge.net/DTD/sodipodi-0.dtd" xmlns:xlink="http://www.w3.org/1999/xlink" xmlns="http://www.w3.org/2000/svg" version="1.1" sodipodi:docname="step079.svg" viewBox="0 0 30.268971 30.273333" height="30.273333px" width="30.268971px" xml:space="preserve" id="svg2" inkscape:version="0.92.1 r15371">
  <sodipodi:namedview inkscape:current-layer="g10" inkscape:window-maximized="1" inkscape:window-y="-8" inkscape:window-x="1912" inkscape:cy="-862.22917" inkscape:cx="2456.2254" inkscape:zoom="0.3015625" showgrid="false" id="namedview4" inkscape:window-height="1017" inkscape:window-width="1920" inkscape:pageshadow="2" inkscape:pageopacity="0" guidetolerance="10" gridtolerance="10" objecttolerance="10" borderopacity="1" bordercolor="#666666" pagecolor="#ffffff"/>
  <metadata id="metadata8">
    <rdf:RDF>
      <cc:Work rdf:about="">
        <dc:format>image/svg+xml</dc:format>
        <dc:type rdf:resource="http://purl.org/dc/dcmitype/StillImage"/>
        <dc:title/>
      </cc:Work>
    </rdf:RDF>
  </metadata>
  <g inkscape:groupmode="layer" inkscape:label="step" transform="matrix(1.333333,0.000000,0.000000,-1.333333,-1207.168200,-125.199300)">
    <g id="g8674" inkscape:label="079">
      <g transform="translate(914.15455,-107.8275)" id="g988">
        <path inkscape:connector-curvature="0" id="path990" style="fill:#545454;fill-opacity:1;fill-rule:nonzero;stroke:none" d="m 0,0 c 0.123,-0.013 0.25,-0.024 0.381,-0.034 0.289,-0.02 0.553,-0.163 0.726,-0.393 1.131,-1.492 1.676,-3.314 1.592,-5.118 1.274,1.344 1.803,3.229 1.42,5.077 C 4.02,0.01 4.279,0.489 4.734,0.667 6.209,1.243 7.521,2.102 8.639,3.22 11.02,5.6 12.219,8.855 11.863,11.866 8.844,12.222 5.582,11.004 3.219,8.642 2.102,7.525 1.242,6.211 0.664,4.736 0.486,4.282 0.008,4.024 -0.469,4.122 -2.297,4.496 -4.211,3.965 -5.545,2.704 -3.732,2.788 -1.889,2.216 -0.43,1.109 -0.199,0.936 -0.057,0.672 -0.035,0.385 -0.025,0.251 -0.014,0.123 0,0 m 1.186,-8.777 c -0.26,0 -0.516,0.101 -0.707,0.293 -0.288,0.288 -0.372,0.72 -0.215,1.095 0.742,1.758 0.543,3.79 -0.504,5.403 -0.291,0.032 -0.567,0.074 -0.832,0.127 -0.397,0.079 -0.707,0.388 -0.787,0.784 -0.053,0.263 -0.094,0.538 -0.127,0.836 -1.596,1.034 -3.68,1.233 -5.405,0.509 -0.375,-0.157 -0.808,-0.073 -1.095,0.214 -0.287,0.287 -0.371,0.72 -0.215,1.095 0.387,0.917 0.933,1.734 1.629,2.43 1.621,1.62 3.877,2.428 6.189,2.196 0.662,1.436 1.565,2.729 2.688,3.851 2.461,2.461 5.738,3.872 8.994,3.872 0.724,0 1.441,-0.07 2.135,-0.208 0.394,-0.079 0.705,-0.389 0.783,-0.785 C 14.484,9.097 13.08,4.832 10.053,1.806 8.93,0.682 7.639,-0.219 6.203,-0.881 6.432,-3.173 5.641,-5.438 4.006,-7.07 3.316,-7.762 2.498,-8.311 1.574,-8.699 1.447,-8.752 1.316,-8.777 1.186,-8.777"/>
      </g>
      <g transform="translate(921.66435,-98.8134)" id="g992">
        <path inkscape:connector-curvature="0" id="path994" style="fill:#545454;fill-opacity:1;fill-rule:nonzero;stroke:none" d="m 0,0 c -0.4,0 -0.777,-0.156 -1.062,-0.44 -0.584,-0.585 -0.583,-1.537 0.001,-2.123 0.567,-0.564 1.555,-0.565 2.122,0.001 C 1.344,-2.278 1.5,-1.902 1.5,-1.501 1.5,-1.1 1.344,-0.723 1.061,-0.44 0.777,-0.156 0.4,0 0,0 m 0,-4 c -0.666,0 -1.295,0.259 -1.768,0.73 -0.974,0.976 -0.974,2.562 -0.002,3.537 0.95,0.946 2.594,0.944 3.538,0 C 2.24,-0.205 2.5,-0.833 2.5,-1.501 2.5,-2.169 2.24,-2.797 1.768,-3.269 1.297,-3.741 0.668,-4 0,-4"/>
      </g>
      <g transform="translate(910.29525,-113.1718)" id="g996">
        <path inkscape:connector-curvature="0" id="path998" style="fill:#545454;fill-opacity:1;fill-rule:nonzero;stroke:none" d="m 0,0 c -0.332,0 -0.664,0.027 -0.994,0.082 -0.211,0.035 -0.375,0.2 -0.41,0.41 -0.344,2.056 0.402,4.236 1.994,5.83 0.195,0.195 0.512,0.195 0.707,0 C 1.492,6.127 1.492,5.81 1.297,5.615 0.027,4.344 -0.617,2.651 -0.465,1.021 1.17,0.869 2.855,1.515 4.127,2.786 4.322,2.98 4.639,2.981 4.834,2.786 5.029,2.59 5.029,2.273 4.834,2.078 3.494,0.741 1.744,0 0,0"/>
      </g>
    </g>
  </g>
</svg>
