<?xml version='1.0' encoding='UTF-8'?>
<!-- Created with Inkscape (http://www.inkscape.org/) and export_objects.py -->
<svg xmlns:cc="http://creativecommons.org/ns#" xmlns:dc="http://purl.org/dc/elements/1.1/" xmlns:inkscape="http://www.inkscape.org/namespaces/inkscape" xmlns:rdf="http://www.w3.org/1999/02/22-rdf-syntax-ns#" xmlns:sodipodi="http://sodipodi.sourceforge.net/DTD/sodipodi-0.dtd" xmlns:xlink="http://www.w3.org/1999/xlink" xmlns="http://www.w3.org/2000/svg" version="1.1" sodipodi:docname="step060.svg" viewBox="0 0 32.721215 29.334334" height="29.334334px" width="32.721215px" xml:space="preserve" id="svg2" inkscape:version="0.92.1 r15371">
  <sodipodi:namedview inkscape:current-layer="g10" inkscape:window-maximized="1" inkscape:window-y="-8" inkscape:window-x="1912" inkscape:cy="-862.22917" inkscape:cx="2456.2254" inkscape:zoom="0.3015625" showgrid="false" id="namedview4" inkscape:window-height="1017" inkscape:window-width="1920" inkscape:pageshadow="2" inkscape:pageopacity="0" guidetolerance="10" gridtolerance="10" objecttolerance="10" borderopacity="1" bordercolor="#666666" pagecolor="#ffffff"/>
  <metadata id="metadata8">
    <rdf:RDF>
      <cc:Work rdf:about="">
        <dc:format>image/svg+xml</dc:format>
        <dc:type rdf:resource="http://purl.org/dc/dcmitype/StillImage"/>
        <dc:title/>
      </cc:Work>
    </rdf:RDF>
  </metadata>
  <g inkscape:groupmode="layer" inkscape:label="step" transform="matrix(1.333333,0.000000,0.000000,-1.333333,-1435.010900,-126.321100)">
    <g id="g8712" inkscape:label="060">
      <g transform="translate(1094.4242,-116.7201)" id="g638">
        <path inkscape:connector-curvature="0" id="path640" style="fill:#545454;fill-opacity:1;fill-rule:nonzero;stroke:none" d="m 0,0 h -14.166 c -2.207,0 -4,1.794 -4,4 v 1.167 c 0,2.206 1.793,4 4,4 H 0 c 0.553,0 1,-0.447 1,-1 0,-0.553 -0.447,-1 -1,-1 h -14.166 c -1.104,0 -2,-0.897 -2,-2 V 4 c 0,-1.103 0.896,-2 2,-2 H 0 C 0.553,2 1,1.553 1,1 1,0.447 0.553,0 0,0"/>
      </g>
      <g transform="translate(1082.6839,-98.4291)" id="g642">
        <path inkscape:connector-curvature="0" id="path644" style="fill:#545454;fill-opacity:1;fill-rule:nonzero;stroke:none" d="m 0,0 c -0.146,0 -0.297,0.032 -0.437,0.101 -0.497,0.242 -0.704,0.84 -0.461,1.337 0.675,1.387 2.054,2.25 3.597,2.25 h 14.416 c 0.553,0 1,-0.448 1,-1 0,-0.553 -0.447,-1.001 -1,-1.001 H 2.699 C 1.928,1.687 1.238,1.256 0.9,0.562 0.727,0.206 0.371,0 0,0"/>
      </g>
      <g transform="translate(1077.6117,-111.1166)" id="g646">
        <path inkscape:connector-curvature="0" id="path648" style="fill:#545454;fill-opacity:1;fill-rule:nonzero;stroke:none" d="m 0,0 c -0.125,0 -0.25,0.022 -0.373,0.072 -0.512,0.205 -0.762,0.788 -0.555,1.3 l 5.125,12.77 c 0.203,0.512 0.787,0.764 1.299,0.555 0.514,-0.205 0.762,-0.788 0.557,-1.3 L 0.928,0.628 C 0.771,0.237 0.396,0 0,0"/>
      </g>
      <g transform="translate(1094.6742,-116.7416)" id="g650">
        <path inkscape:connector-curvature="0" id="path652" style="fill:#545454;fill-opacity:1;fill-rule:nonzero;stroke:none" d="m 0,0 c -0.125,0 -0.25,0.022 -0.373,0.072 -0.512,0.205 -0.762,0.788 -0.555,1.3 l 5.125,12.77 c 0.205,0.512 0.787,0.766 1.299,0.555 0.514,-0.205 0.762,-0.788 0.557,-1.3 L 0.928,0.628 C 0.771,0.237 0.396,0 0,0"/>
      </g>
      <g transform="translate(1094.4242,-109.5531)" id="g654">
        <path inkscape:connector-curvature="0" id="path656" style="fill:#545454;fill-opacity:1;fill-rule:nonzero;stroke:none" d="m 0,0 c -0.129,0 -0.26,0.024 -0.387,0.078 -0.509,0.213 -0.748,0.8 -0.535,1.309 l 5.375,12.811 c 0.211,0.51 0.799,0.751 1.309,0.535 0.509,-0.212 0.748,-0.799 0.535,-1.308 L 0.922,0.613 C 0.762,0.23 0.391,0 0,0"/>
      </g>
      <g transform="translate(1093.7367,-111.6996)" id="g658">
        <path inkscape:connector-curvature="0" id="path660" style="fill:#545454;fill-opacity:1;fill-rule:nonzero;stroke:none" d="m 0,0 h -13.625 c -0.277,0 -0.5,0.224 -0.5,0.5 0,0.276 0.223,0.5 0.5,0.5 H 0 C 0.275,1 0.5,0.776 0.5,0.5 0.5,0.224 0.275,0 0,0"/>
      </g>
      <g transform="translate(1093.7367,-113.5541)" id="g662">
        <path inkscape:connector-curvature="0" id="path664" style="fill:#545454;fill-opacity:1;fill-rule:nonzero;stroke:none" d="m 0,0 h -13.625 c -0.277,0 -0.5,0.224 -0.5,0.5 0,0.276 0.223,0.5 0.5,0.5 H 0 C 0.275,1 0.5,0.776 0.5,0.5 0.5,0.224 0.275,0 0,0"/>
      </g>
    </g>
  </g>
</svg>
