<?xml version="1.0" encoding="UTF-8" standalone="no"?>
<!-- Created with Inkscape (http://www.inkscape.org/) and export_objects.py -->

<svg
   xmlns:dc="http://purl.org/dc/elements/1.1/"
   xmlns:cc="http://creativecommons.org/ns#"
   xmlns:rdf="http://www.w3.org/1999/02/22-rdf-syntax-ns#"
   xmlns:svg="http://www.w3.org/2000/svg"
   xmlns="http://www.w3.org/2000/svg"
   xmlns:sodipodi="http://sodipodi.sourceforge.net/DTD/sodipodi-0.dtd"
   xmlns:inkscape="http://www.inkscape.org/namespaces/inkscape"
   version="1.1"
   sodipodi:docname="quote-sign.svg"
   viewBox="0 0 8.9999991 13.999995"
   height="13.999997"
   width="8.999999"
   xml:space="preserve"
   id="svg2"
   inkscape:version="0.92.3 (2405546, 2018-03-11)"><defs
   id="defs829" />
  <sodipodi:namedview
   inkscape:current-layer="g826"
   inkscape:window-maximized="1"
   inkscape:window-y="28"
   inkscape:window-x="51"
   inkscape:cy="16.5818"
   inkscape:cx="-12.29321"
   inkscape:zoom="3.9999999"
   showgrid="false"
   id="namedview4"
   inkscape:window-height="1172"
   inkscape:window-width="1869"
   inkscape:pageshadow="2"
   inkscape:pageopacity="0"
   guidetolerance="10"
   gridtolerance="10"
   objecttolerance="10"
   borderopacity="1"
   bordercolor="#666666"
   pagecolor="#ffffff"
   fit-margin-top="0"
   fit-margin-left="0"
   fit-margin-right="0"
   fit-margin-bottom="0"
   showguides="true"
   inkscape:measure-start="5.25911,16.2635"
   inkscape:measure-end="5.25911,9.05981"
   inkscape:lockguides="true" />
  <metadata
   id="metadata8">
    <rdf:RDF>
      <cc:Work
   rdf:about="">
        <dc:format>image/svg+xml</dc:format>
        <dc:type
   rdf:resource="http://purl.org/dc/dcmitype/StillImage" />
        <dc:title></dc:title>
      </cc:Work>
    </rdf:RDF>
  </metadata>
  <g
   inkscape:groupmode="layer"
   inkscape:label="step"
   transform="matrix(1.333333,0,0,-1.333333,-1379.5919,-783.74019)"
   id="g826">
    
  <path
   style="color:#000000;font-style:normal;font-variant:normal;font-weight:normal;font-stretch:normal;font-size:medium;line-height:normal;font-family:sans-serif;font-variant-ligatures:normal;font-variant-position:normal;font-variant-caps:normal;font-variant-numeric:normal;font-variant-alternates:normal;font-feature-settings:normal;text-indent:0;text-align:start;text-decoration:none;text-decoration-line:none;text-decoration-style:solid;text-decoration-color:#000000;letter-spacing:normal;word-spacing:normal;text-transform:none;writing-mode:lr-tb;direction:ltr;text-orientation:mixed;dominant-baseline:auto;baseline-shift:baseline;text-anchor:start;white-space:normal;shape-padding:0;clip-rule:nonzero;display:inline;overflow:visible;visibility:visible;opacity:1;isolation:auto;mix-blend-mode:normal;color-interpolation:sRGB;color-interpolation-filters:linearRGB;solid-color:#000000;solid-opacity:1;vector-effect:none;fill:#545454;fill-opacity:1;fill-rule:evenodd;stroke:none;stroke-width:0.75000018;stroke-linecap:butt;stroke-linejoin:round;stroke-miterlimit:4;stroke-dasharray:none;stroke-dashoffset:0;stroke-opacity:1;paint-order:normal;color-rendering:auto;image-rendering:auto;shape-rendering:auto;text-rendering:auto;enable-background:accumulate"
   d="m 1035.6307,-598.30484 c -0.1385,0.01 -0.2602,0.0956 -0.3163,0.22262 l -0.5878,1.31424 c -0.084,0.18874 10e-4,0.40957 0.1894,0.49406 0.6715,0.30048 1.3116,0.63985 1.7653,1.08771 0.3591,0.35447 0.4942,0.86475 0.5839,1.4236 h -2.195 c -0.207,2e-5 -0.3749,0.16787 -0.3749,0.37494 v 5.20744 c 0,0.20707 0.1679,0.37492 0.3749,0.37494 h 5.9991 c 0.207,-2e-5 0.3749,-0.16787 0.3749,-0.37494 v -3.69402 c 0,-3.22766 -2.5769,-6.00656 -5.7374,-6.42668 -0.025,-0.004 -0.049,-0.005 -0.074,-0.004 z m 0.2324,0.82994 c 2.6597,0.48921 4.8293,2.86794 4.8293,5.60065 v 3.31908 h -5.2491 v -4.45756 h 2.3492 c 0.2071,-2e-5 0.3749,-0.16787 0.3749,-0.37494 0,-1.00046 -0.3943,-1.77246 -0.9607,-2.33165 -0.4751,-0.46907 -1.0774,-0.75898 -1.6657,-1.03889 z"
   id="path3772"
   inkscape:connector-curvature="0"
   sodipodi:nodetypes="ccccccccccccsccccscccccccc" /></g>
</svg>