<?xml version='1.0' encoding='UTF-8'?>
<!-- Created with Inkscape (http://www.inkscape.org/) and export_objects.py -->
<svg xmlns:cc="http://creativecommons.org/ns#" xmlns:dc="http://purl.org/dc/elements/1.1/" xmlns:inkscape="http://www.inkscape.org/namespaces/inkscape" xmlns:rdf="http://www.w3.org/1999/02/22-rdf-syntax-ns#" xmlns:sodipodi="http://sodipodi.sourceforge.net/DTD/sodipodi-0.dtd" xmlns:xlink="http://www.w3.org/1999/xlink" xmlns="http://www.w3.org/2000/svg" version="1.1" sodipodi:docname="step071.svg" viewBox="0 0 31.405333 31.402666" height="31.402666px" width="31.405333px" xml:space="preserve" id="svg2" inkscape:version="0.92.1 r15371">
  <sodipodi:namedview inkscape:current-layer="g10" inkscape:window-maximized="1" inkscape:window-y="-8" inkscape:window-x="1912" inkscape:cy="-862.22917" inkscape:cx="2456.2254" inkscape:zoom="0.3015625" showgrid="false" id="namedview4" inkscape:window-height="1017" inkscape:window-width="1920" inkscape:pageshadow="2" inkscape:pageopacity="0" guidetolerance="10" gridtolerance="10" objecttolerance="10" borderopacity="1" bordercolor="#666666" pagecolor="#ffffff"/>
  <metadata id="metadata8">
    <rdf:RDF>
      <cc:Work rdf:about="">
        <dc:format>image/svg+xml</dc:format>
        <dc:type rdf:resource="http://purl.org/dc/dcmitype/StillImage"/>
        <dc:title/>
      </cc:Work>
    </rdf:RDF>
  </metadata>
  <g inkscape:groupmode="layer" inkscape:label="step" transform="matrix(1.333333,0.000000,0.000000,-1.333333,-1279.920200,-923.726100)">
    <g id="g8937" inkscape:label="071">
      <g transform="translate(968.22585,-708.0619)" id="g858">
        <path inkscape:connector-curvature="0" id="path860" style="fill:#545454;fill-opacity:1;fill-rule:nonzero;stroke:none" d="m 0,0 c -0.391,0.392 -0.391,1.024 0,1.414 l 5.568,5.569 c 0.391,0.39 1.024,0.391 1.414,0 0.391,-0.391 0.391,-1.024 0,-1.415 L 1.414,0 C 1.023,-0.391 0.391,-0.391 0,0"/>
      </g>
      <g transform="translate(973.79425,-708.0619)" id="g862">
        <path inkscape:connector-curvature="0" id="path864" style="fill:#545454;fill-opacity:1;fill-rule:nonzero;stroke:none" d="m 0,0 -5.568,5.568 c -0.391,0.392 -0.391,1.025 0,1.415 0.39,0.39 1.023,0.391 1.414,0 L 1.414,1.414 C 1.805,1.023 1.805,0.391 1.414,0 1.023,-0.391 0.391,-0.391 0,0"/>
      </g>
      <g transform="translate(978.63015,-697.6576)" id="g866">
        <path inkscape:connector-curvature="0" id="path868" style="fill:#545454;fill-opacity:1;fill-rule:nonzero;stroke:none" d="m 0,0 c -1.847,1.847 -4.302,2.864 -6.912,2.864 -5.391,0 -9.777,-4.386 -9.779,-9.777 0,-2.609 1.017,-5.065 2.864,-6.911 1.848,-1.848 4.303,-2.864 6.915,-2.865 5.39,0.001 9.775,4.386 9.777,9.776 C 2.865,-4.303 1.848,-1.848 0,0 m -15.241,-15.238 c -2.224,2.223 -3.449,5.18 -3.449,8.325 0,6.495 5.285,11.776 11.778,11.776 3.145,0 6.102,-1.225 8.326,-3.449 2.225,-2.225 3.45,-5.182 3.45,-8.327 0,-6.494 -5.283,-11.777 -11.776,-11.776 -3.146,0 -6.105,1.226 -8.329,3.451"/>
      </g>
    </g>
  </g>
</svg>
