<?xml version='1.0' encoding='UTF-8'?>
<!-- Created with Inkscape (http://www.inkscape.org/) and export_objects.py -->
<svg xmlns:cc="http://creativecommons.org/ns#" xmlns:dc="http://purl.org/dc/elements/1.1/" xmlns:inkscape="http://www.inkscape.org/namespaces/inkscape" xmlns:rdf="http://www.w3.org/1999/02/22-rdf-syntax-ns#" xmlns:sodipodi="http://sodipodi.sourceforge.net/DTD/sodipodi-0.dtd" xmlns:xlink="http://www.w3.org/1999/xlink" xmlns="http://www.w3.org/2000/svg" version="1.1" sodipodi:docname="step091.svg" viewBox="0 0 30.333333 31.964266" height="31.964266px" width="30.333333px" xml:space="preserve" id="svg2" inkscape:version="0.92.1 r15371">
  <sodipodi:namedview inkscape:current-layer="g10" inkscape:window-maximized="1" inkscape:window-y="-8" inkscape:window-x="1912" inkscape:cy="-862.22917" inkscape:cx="2456.2254" inkscape:zoom="0.3015625" showgrid="false" id="namedview4" inkscape:window-height="1017" inkscape:window-width="1920" inkscape:pageshadow="2" inkscape:pageopacity="0" guidetolerance="10" gridtolerance="10" objecttolerance="10" borderopacity="1" bordercolor="#666666" pagecolor="#ffffff"/>
  <metadata id="metadata8">
    <rdf:RDF>
      <cc:Work rdf:about="">
        <dc:format>image/svg+xml</dc:format>
        <dc:type rdf:resource="http://purl.org/dc/dcmitype/StillImage"/>
        <dc:title/>
      </cc:Work>
    </rdf:RDF>
  </metadata>
  <g inkscape:groupmode="layer" inkscape:label="step" transform="matrix(1.333333,0.000000,0.000000,-1.333333,-1358.305200,-923.446400)">
    <g id="g8929" inkscape:label="091">
      <g transform="translate(1040.4789,-697.2826)" id="g1438">
        <path inkscape:connector-curvature="0" id="path1440" style="fill:#545454;fill-opacity:1;fill-rule:nonzero;stroke:none" d="m 0,0 h -20.75 c -0.553,0 -1,0.448 -1,1 0,0.553 0.447,1 1,1 H 0 C 0.553,2 1,1.553 1,1 1,0.448 0.553,0 0,0"/>
      </g>
      <g transform="translate(1032.682,-696.6888)" id="g1442">
        <path inkscape:connector-curvature="0" id="path1444" style="fill:#545454;fill-opacity:1;fill-rule:nonzero;stroke:none" d="m 0,0 c -0.248,1.22 -1.332,2.104 -2.578,2.104 -1.248,0 -2.332,-0.883 -2.578,-2.103 l -1.961,0.397 c 0.435,2.148 2.344,3.706 4.539,3.706 2.191,0 4.099,-1.558 4.537,-3.705 z"/>
      </g>
      <g transform="translate(1023.3617,-716.558)" id="g1446">
        <path inkscape:connector-curvature="0" id="path1448" style="fill:#545454;fill-opacity:1;fill-rule:nonzero;stroke:none" d="m 0,0 c -1.051,0 -1.924,0.853 -1.988,1.94 l -1.035,17.333 c -0.034,0.552 0.386,1.026 0.937,1.059 0.57,0.045 1.025,-0.389 1.059,-0.938 L 0.008,2.061 13.484,2 14.512,19.394 c 0.033,0.551 0.513,0.967 1.056,0.938 0.553,-0.033 0.973,-0.507 0.94,-1.059 L 15.473,1.94 C 15.402,0.851 14.531,0 13.486,0 h -0.004 z"/>
      </g>
      <g transform="translate(1026.3089,-712.8871)" id="g1450">
        <path inkscape:connector-curvature="0" id="path1452" style="fill:#545454;fill-opacity:1;fill-rule:nonzero;stroke:none" d="m 0,0 c -0.525,0 -0.967,0.412 -0.996,0.944 l -0.666,11.917 c -0.031,0.551 0.391,1.024 0.941,1.054 0.549,0.038 1.024,-0.392 1.055,-0.942 L 1,1.057 C 1.031,0.505 0.609,0.032 0.057,0.002 0.039,0.001 0.02,0 0,0"/>
      </g>
      <g transform="translate(1033.8949,-712.8871)" id="g1454">
        <path inkscape:connector-curvature="0" id="path1456" style="fill:#545454;fill-opacity:1;fill-rule:nonzero;stroke:none" d="m 0,0 c -0.018,0 -0.037,0.001 -0.057,0.002 -0.55,0.03 -0.972,0.503 -0.941,1.055 l 0.666,11.916 c 0.029,0.551 0.514,0.983 1.053,0.942 0.552,-0.03 0.974,-0.503 0.943,-1.054 L 0.998,0.944 C 0.969,0.412 0.527,0 0,0"/>
      </g>
      <g transform="translate(1030.1039,-712.8871)" id="g1458">
        <path inkscape:connector-curvature="0" id="path1460" style="fill:#545454;fill-opacity:1;fill-rule:nonzero;stroke:none" d="m 0,0 c -0.553,0 -1,0.448 -1,1 v 11.917 c 0,0.552 0.447,1 1,1 0.553,0 1,-0.448 1,-1 V 1 C 1,0.448 0.553,0 0,0"/>
      </g>
    </g>
  </g>
</svg>
