<?xml version='1.0' encoding='UTF-8'?>
<!-- Created with Inkscape (http://www.inkscape.org/) and export_objects.py -->
<svg xmlns:cc="http://creativecommons.org/ns#" xmlns:dc="http://purl.org/dc/elements/1.1/" xmlns:inkscape="http://www.inkscape.org/namespaces/inkscape" xmlns:rdf="http://www.w3.org/1999/02/22-rdf-syntax-ns#" xmlns:sodipodi="http://sodipodi.sourceforge.net/DTD/sodipodi-0.dtd" xmlns:xlink="http://www.w3.org/1999/xlink" xmlns="http://www.w3.org/2000/svg" version="1.1" sodipodi:docname="step036.svg" viewBox="0 0 24.666666 32.723599" height="32.723599px" width="24.666666px" xml:space="preserve" id="svg2" inkscape:version="0.92.1 r15371">
  <sodipodi:namedview inkscape:current-layer="g10" inkscape:window-maximized="1" inkscape:window-y="-8" inkscape:window-x="-8" inkscape:cy="-703.13596" inkscape:cx="825.3699" inkscape:zoom="0.42647378" showgrid="false" id="namedview4" inkscape:window-height="1137" inkscape:window-width="1920" inkscape:pageshadow="2" inkscape:pageopacity="0" guidetolerance="10" gridtolerance="10" objecttolerance="10" borderopacity="1" bordercolor="#666666" pagecolor="#ffffff"/>
  <metadata id="metadata8">
    <rdf:RDF>
      <cc:Work rdf:about="">
        <dc:format>image/svg+xml</dc:format>
        <dc:type rdf:resource="http://purl.org/dc/dcmitype/StillImage"/>
        <dc:title/>
      </cc:Work>
    </rdf:RDF>
  </metadata>
  <g inkscape:groupmode="layer" inkscape:label="step" transform="matrix(1.333333,0.000000,0.000000,-1.333333,-863.581110,-1003.293800)">
    <g id="g8540" inkscape:label="036">
      <g transform="translate(648.68585,-774.4574)" id="g1482">
        <path inkscape:connector-curvature="0" id="path1484" style="fill:#545454;fill-opacity:1;fill-rule:nonzero;stroke:none" d="m 0,0 c -0.553,0 -1,0.447 -1,1 v 18.709 c 0,1.256 1.021,2.278 2.277,2.278 h 13.944 c 1.256,0 2.279,-1.022 2.279,-2.278 V 3.906 c 0,-1.256 -1.023,-2.278 -2.279,-2.278 -0.553,0 -1,0.447 -1,1 0,0.553 0.447,1 1,1 0.154,0 0.279,0.125 0.279,0.278 v 15.803 c 0,0.153 -0.125,0.278 -0.279,0.278 H 1.277 C 1.125,19.987 1,19.862 1,19.709 V 1 C 1,0.447 0.553,0 0,0"/>
      </g>
      <g transform="translate(665.18585,-777.0131)" id="g1486">
        <path inkscape:connector-curvature="0" id="path1488" style="fill:#545454;fill-opacity:1;fill-rule:nonzero;stroke:none" d="m 0,0 h -14.41 c -1.703,0 -3.09,1.387 -3.09,3.092 0,1.704 1.387,3.091 3.09,3.091 h 12.937 c 0.553,0 1,-0.448 1,-1 0,-0.553 -0.447,-1 -1,-1 H -14.41 c -0.602,0 -1.09,-0.49 -1.09,-1.091 C -15.5,2.49 -15.012,2 -14.41,2 H 0 C 0.553,2 1,1.553 1,1 1,0.447 0.553,0 0,0"/>
      </g>
      <g transform="translate(652.09405,-772.0199)" id="g1490">
        <path inkscape:connector-curvature="0" id="path1492" style="fill:#545454;fill-opacity:1;fill-rule:nonzero;stroke:none" d="m 0,0 c -0.275,0 -0.5,0.224 -0.5,0.5 v 17.507 c 0,0.276 0.225,0.5 0.5,0.5 0.277,0 0.5,-0.224 0.5,-0.5 V 0.5 C 0.5,0.224 0.277,0 0,0"/>
      </g>
    </g>
  </g>
</svg>
