<?xml version='1.0' encoding='UTF-8'?>
<!-- Created with Inkscape (http://www.inkscape.org/) and export_objects.py -->
<svg xmlns:cc="http://creativecommons.org/ns#" xmlns:dc="http://purl.org/dc/elements/1.1/" xmlns:inkscape="http://www.inkscape.org/namespaces/inkscape" xmlns:rdf="http://www.w3.org/1999/02/22-rdf-syntax-ns#" xmlns:sodipodi="http://sodipodi.sourceforge.net/DTD/sodipodi-0.dtd" xmlns:xlink="http://www.w3.org/1999/xlink" xmlns="http://www.w3.org/2000/svg" version="1.1" id="svg2" xml:space="preserve" width="32.990444px" height="31.127432px" viewBox="0 0 32.990444 31.127432" sodipodi:docname="step134.svg" inkscape:version="0.92.1 r15371">
  <sodipodi:namedview pagecolor="#ffffff" bordercolor="#666666" borderopacity="1" objecttolerance="10" gridtolerance="10" guidetolerance="10" inkscape:pageopacity="0" inkscape:pageshadow="2" inkscape:window-width="1920" inkscape:window-height="1017" id="namedview4" showgrid="false" inkscape:zoom="0.95723054" inkscape:cx="573.72119" inkscape:cy="692.9398" inkscape:window-x="1912" inkscape:window-y="-8" inkscape:window-maximized="1" inkscape:current-layer="g10"/>
  <metadata id="metadata8">
    <rdf:RDF>
      <cc:Work rdf:about="">
        <dc:format>image/svg+xml</dc:format>
        <dc:type rdf:resource="http://purl.org/dc/dcmitype/StillImage"/>
        <dc:title/>
      </cc:Work>
    </rdf:RDF>
  </metadata>
  <g inkscape:groupmode="layer" inkscape:label="step" transform="matrix(1.333333,0.000000,0.000000,-1.333333,-102.240800,837.213410)">
    <g id="g6616" inkscape:label="134">
      <path d="m 94.8486,604.5859 h -14.168 c -2.205,0 -4,1.794 -4,4 v 1.167 c 0,2.206 1.795,4 4,4 h 14.168 c 0.553,0 1,-0.447 1,-1 0,-0.553 -0.447,-1 -1,-1 h -14.168 c -1.102,0 -2,-0.897 -2,-2 v -1.167 c 0,-1.103 0.898,-2 2,-2 h 14.168 c 0.553,0 1,-0.447 1,-1 0,-0.553 -0.447,-1 -1,-1" style="fill:#545454;fill-opacity:1;fill-rule:nonzero;stroke:none" id="path490" inkscape:connector-curvature="0"/>
      <path d="m 78.0342,610.1895 c -0.221,0 -0.441,0.072 -0.627,0.221 -0.43,0.346 -0.498,0.976 -0.152,1.406 l 1.576,1.957 c 0.348,0.429 0.976,0.498 1.406,0.152 0.432,-0.346 0.498,-0.976 0.152,-1.406 l -1.576,-1.957 c -0.197,-0.245 -0.486,-0.373 -0.779,-0.373" style="fill:#545454;fill-opacity:1;fill-rule:nonzero;stroke:none" id="path494" inkscape:connector-curvature="0"/>
      <path d="m 95.0967,604.5645 c -0.221,0 -0.441,0.072 -0.627,0.222 -0.43,0.345 -0.498,0.975 -0.15,1.405 l 5.326,6.612 c 0.346,0.43 0.974,0.499 1.404,0.152 0.432,-0.346 0.498,-0.976 0.152,-1.406 l -5.326,-6.612 c -0.197,-0.246 -0.486,-0.373 -0.779,-0.373" style="fill:#545454;fill-opacity:1;fill-rule:nonzero;stroke:none" id="path498" inkscape:connector-curvature="0"/>
      <path d="m 94.8467,611.7529 c -0.227,0 -0.453,0.076 -0.641,0.233 -0.423,0.355 -0.478,0.986 -0.125,1.41 l 5.577,6.654 c 0.355,0.421 0.984,0.479 1.408,0.124 0.424,-0.355 0.478,-0.985 0.125,-1.409 l -5.576,-6.655 c -0.198,-0.235 -0.481,-0.357 -0.768,-0.357" style="fill:#545454;fill-opacity:1;fill-rule:nonzero;stroke:none" id="path502" inkscape:connector-curvature="0"/>
      <path d="m 94.1592,609.6064 h -13.625 c -0.275,0 -0.5,0.224 -0.5,0.5 0,0.276 0.225,0.5 0.5,0.5 h 13.625 c 0.277,0 0.5,-0.224 0.5,-0.5 0,-0.276 -0.223,-0.5 -0.5,-0.5" style="fill:#545454;fill-opacity:1;fill-rule:nonzero;stroke:none" id="path506" inkscape:connector-curvature="0"/>
      <path d="m 94.1592,607.752 h -13.625 c -0.275,0 -0.5,0.224 -0.5,0.5 0,0.276 0.225,0.5 0.5,0.5 h 13.625 c 0.277,0 0.5,-0.224 0.5,-0.5 0,-0.276 -0.223,-0.5 -0.5,-0.5" style="fill:#545454;fill-opacity:1;fill-rule:nonzero;stroke:none" id="path510" inkscape:connector-curvature="0"/>
      <path d="m 94.8486,612.0859 h -14.168 c -2.205,0 -4,1.794 -4,4 v 1.167 c 0,2.206 1.795,4 4,4 h 14.168 c 0.553,0 1,-0.447 1,-1 0,-0.553 -0.447,-1 -1,-1 h -14.168 c -1.102,0 -2,-0.897 -2,-2 v -1.167 c 0,-1.103 0.898,-2 2,-2 h 14.168 c 0.553,0 1,-0.447 1,-1 0,-0.553 -0.447,-1 -1,-1" style="fill:#545454;fill-opacity:1;fill-rule:nonzero;stroke:none" id="path514" inkscape:connector-curvature="0"/>
      <path d="m 83.3076,624.2197 c -0.209,0 -0.42,0.065 -0.602,0.202 -0.439,0.333 -0.527,0.96 -0.195,1.401 0.733,0.969 1.656,2.159 3.545,2.084 l 14.367,10e-4 c 0.553,0 1,-0.448 1,-1 0,-0.553 -0.447,-1.001 -1,-1.001 h -14.416 c -0.787,0.038 -1.121,-0.258 -1.9,-1.29 -0.195,-0.26 -0.496,-0.397 -0.799,-0.397" style="fill:#545454;fill-opacity:1;fill-rule:nonzero;stroke:none" id="path518" inkscape:connector-curvature="0"/>
      <path d="m 78.0342,617.6895 c -0.221,0 -0.441,0.072 -0.627,0.222 -0.43,0.345 -0.498,0.975 -0.15,1.405 l 5.326,6.612 c 0.346,0.43 0.974,0.499 1.404,0.152 0.432,-0.346 0.498,-0.976 0.152,-1.406 l -5.326,-6.612 c -0.197,-0.246 -0.486,-0.373 -0.779,-0.373" style="fill:#545454;fill-opacity:1;fill-rule:nonzero;stroke:none" id="path522" inkscape:connector-curvature="0"/>
      <path d="m 95.0967,612.0645 c -0.221,0 -0.441,0.072 -0.627,0.222 -0.43,0.345 -0.498,0.975 -0.15,1.405 l 5.326,6.612 c 0.346,0.43 0.974,0.499 1.404,0.152 0.432,-0.346 0.498,-0.976 0.152,-1.406 l -5.326,-6.612 c -0.197,-0.246 -0.486,-0.373 -0.779,-0.373" style="fill:#545454;fill-opacity:1;fill-rule:nonzero;stroke:none" id="path526" inkscape:connector-curvature="0"/>
      <path d="m 94.8467,619.2529 c -0.227,0 -0.453,0.076 -0.641,0.233 -0.423,0.355 -0.478,0.986 -0.125,1.41 l 5.577,6.654 c 0.355,0.421 0.984,0.479 1.408,0.124 0.424,-0.355 0.478,-0.985 0.125,-1.409 l -5.576,-6.655 c -0.198,-0.235 -0.481,-0.357 -0.768,-0.357" style="fill:#545454;fill-opacity:1;fill-rule:nonzero;stroke:none" id="path530" inkscape:connector-curvature="0"/>
      <path d="m 94.1592,617.1064 h -13.625 c -0.275,0 -0.5,0.224 -0.5,0.5 0,0.276 0.225,0.5 0.5,0.5 h 13.625 c 0.277,0 0.5,-0.224 0.5,-0.5 0,-0.276 -0.223,-0.5 -0.5,-0.5" style="fill:#545454;fill-opacity:1;fill-rule:nonzero;stroke:none" id="path534" inkscape:connector-curvature="0"/>
      <path d="m 94.1592,615.252 h -13.625 c -0.275,0 -0.5,0.224 -0.5,0.5 0,0.276 0.225,0.5 0.5,0.5 h 13.625 c 0.277,0 0.5,-0.224 0.5,-0.5 0,-0.276 -0.223,-0.5 -0.5,-0.5" style="fill:#545454;fill-opacity:1;fill-rule:nonzero;stroke:none" id="path538" inkscape:connector-curvature="0"/>
    </g>
  </g>
</svg>
