<?xml version='1.0' encoding='UTF-8'?>
<!-- Created with Inkscape (http://www.inkscape.org/) and export_objects.py -->
<svg xmlns:cc="http://creativecommons.org/ns#" xmlns:dc="http://purl.org/dc/elements/1.1/" xmlns:inkscape="http://www.inkscape.org/namespaces/inkscape" xmlns:rdf="http://www.w3.org/1999/02/22-rdf-syntax-ns#" xmlns:sodipodi="http://sodipodi.sourceforge.net/DTD/sodipodi-0.dtd" xmlns:xlink="http://www.w3.org/1999/xlink" xmlns="http://www.w3.org/2000/svg" version="1.1" sodipodi:docname="step028.svg" viewBox="0 0 31.694666 31.694666" height="31.694666px" width="31.694666px" xml:space="preserve" id="svg2" inkscape:version="0.92.1 r15371">
  <sodipodi:namedview inkscape:current-layer="g10" inkscape:window-maximized="1" inkscape:window-y="-8" inkscape:window-x="-8" inkscape:cy="-703.13596" inkscape:cx="825.3699" inkscape:zoom="0.42647378" showgrid="false" id="namedview4" inkscape:window-height="1137" inkscape:window-width="1920" inkscape:pageshadow="2" inkscape:pageopacity="0" guidetolerance="10" gridtolerance="10" objecttolerance="10" borderopacity="1" bordercolor="#666666" pagecolor="#ffffff"/>
  <metadata id="metadata8">
    <rdf:RDF>
      <cc:Work rdf:about="">
        <dc:format>image/svg+xml</dc:format>
        <dc:type rdf:resource="http://purl.org/dc/dcmitype/StillImage"/>
        <dc:title/>
      </cc:Work>
    </rdf:RDF>
  </metadata>
  <g inkscape:groupmode="layer" inkscape:label="step" transform="matrix(1.333333,0.000000,0.000000,-1.333333,-702.654180,-1003.049700)">
    <g id="g8557" inkscape:label="028">
      <path inkscape:connector-curvature="0" id="path1106" style="fill:#545454;fill-opacity:1;fill-rule:nonzero;stroke:none" d="m 528.99065,-774.0583 h 19.771 v 19.771 h -19.771 z m 20.771,-2 h -21.771 c -0.553,0 -1,0.449 -1,1 v 21.771 c 0,0.553 0.447,1 1,1 h 21.771 c 0.553,0 1,-0.447 1,-1 v -21.771 c 0,-0.551 -0.447,-1 -1,-1"/>
      <g transform="translate(549.40455,-759.6166)" id="g1108">
        <path inkscape:connector-curvature="0" id="path1110" style="fill:#545454;fill-opacity:1;fill-rule:nonzero;stroke:none" d="m 0,0 h -21.057 c -0.275,0 -0.5,0.224 -0.5,0.5 0,0.277 0.225,0.5 0.5,0.5 H 0 C 0.277,1 0.5,0.777 0.5,0.5 0.5,0.224 0.277,0 0,0"/>
      </g>
      <g transform="translate(531.53545,-755.223)" id="g1112">
        <path inkscape:connector-curvature="0" id="path1114" style="fill:#545454;fill-opacity:1;fill-rule:nonzero;stroke:none" d="m 0,0 c -0.695,0 -1.26,-0.564 -1.26,-1.261 0,-0.695 0.565,-1.259 1.26,-1.259 0.695,0 1.26,0.564 1.26,1.259 C 1.26,-0.564 0.695,0 0,0"/>
      </g>
      <g transform="translate(534.94755,-755.223)" id="g1116">
        <path inkscape:connector-curvature="0" id="path1118" style="fill:#545454;fill-opacity:1;fill-rule:nonzero;stroke:none" d="m 0,0 c -0.695,0 -1.26,-0.564 -1.26,-1.261 0,-0.695 0.565,-1.259 1.26,-1.259 0.695,0 1.26,0.564 1.26,1.259 C 1.26,-0.564 0.695,0 0,0"/>
      </g>
      <g transform="translate(538.35965,-755.223)" id="g1120">
        <path inkscape:connector-curvature="0" id="path1122" style="fill:#545454;fill-opacity:1;fill-rule:nonzero;stroke:none" d="m 0,0 c -0.695,0 -1.26,-0.564 -1.26,-1.261 0,-0.695 0.565,-1.259 1.26,-1.259 0.697,0 1.262,0.564 1.262,1.259 C 1.262,-0.564 0.697,0 0,0"/>
      </g>
    </g>
  </g>
</svg>
