<?xml version='1.0' encoding='UTF-8'?>
<!-- Created with Inkscape (http://www.inkscape.org/) and export_objects.py -->
<svg xmlns:cc="http://creativecommons.org/ns#" xmlns:dc="http://purl.org/dc/elements/1.1/" xmlns:inkscape="http://www.inkscape.org/namespaces/inkscape" xmlns:rdf="http://www.w3.org/1999/02/22-rdf-syntax-ns#" xmlns:sodipodi="http://sodipodi.sourceforge.net/DTD/sodipodi-0.dtd" xmlns:xlink="http://www.w3.org/1999/xlink" xmlns="http://www.w3.org/2000/svg" version="1.1" id="svg2" xml:space="preserve" width="30.936803px" height="27.567733px" viewBox="0 0 30.936803 27.567733" sodipodi:docname="step135.svg" inkscape:version="0.92.1 r15371">
  <sodipodi:namedview pagecolor="#ffffff" bordercolor="#666666" borderopacity="1" objecttolerance="10" gridtolerance="10" guidetolerance="10" inkscape:pageopacity="0" inkscape:pageshadow="2" inkscape:window-width="1920" inkscape:window-height="1017" id="namedview4" showgrid="false" inkscape:zoom="0.95723054" inkscape:cx="609.24032" inkscape:cy="288.64848" inkscape:window-x="1912" inkscape:window-y="-8" inkscape:window-maximized="1" inkscape:current-layer="g10"/>
  <metadata id="metadata8">
    <rdf:RDF>
      <cc:Work rdf:about="">
        <dc:format>image/svg+xml</dc:format>
        <dc:type rdf:resource="http://purl.org/dc/dcmitype/StillImage"/>
        <dc:title/>
      </cc:Work>
    </rdf:RDF>
  </metadata>
  <g inkscape:groupmode="layer" inkscape:label="step" transform="matrix(1.333333,0.000000,0.000000,-1.333333,-103.308600,291.851600)">
    <g id="g6669" inkscape:label="135">
      <path d="m 85.291,216.8887 c -1.293,0 -2.344,-1.28 -2.344,-2.854 0,-1.574 1.051,-2.854 2.344,-2.854 1.291,0 2.342,1.28 2.342,2.854 0,1.574 -1.051,2.854 -2.342,2.854 m 0,-7.708 c -2.396,0 -4.344,2.178 -4.344,4.854 0,2.676 1.948,4.854 4.344,4.854 2.395,0 4.342,-2.178 4.342,-4.854 0,-2.676 -1.947,-4.854 -4.342,-4.854" style="fill:#545454;fill-opacity:1;fill-rule:nonzero;stroke:none" id="path384" inkscape:connector-curvature="0"/>
      <path d="m 79.7051,200.2129 h 11.006 l 0.219,3.221 c 0.045,0.643 -0.555,1.659 -1.366,1.958 -2.791,1 -5.914,1.002 -8.72,-0.002 -0.803,-0.297 -1.403,-1.314 -1.36,-1.956 z m 11.939,-2 h -12.875 c -0.525,0 -0.96,0.406 -0.998,0.931 l -0.283,4.155 c -0.107,1.603 1.09,3.385 2.672,3.97 3.264,1.168 6.846,1.163 10.086,0.003 1.594,-0.587 2.791,-2.369 2.68,-3.975 l -0.283,-4.152 c -0.036,-0.525 -0.473,-0.932 -0.999,-0.932" style="fill:#545454;fill-opacity:1;fill-rule:nonzero;stroke:none" id="path388" inkscape:connector-curvature="0"/>
      <path d="m 79.7051,200.2129 h 11.006 l 0.219,3.221 c 0.045,0.643 -0.555,1.659 -1.366,1.958 -2.791,1 -5.914,1.002 -8.72,-0.002 -0.803,-0.297 -1.403,-1.314 -1.36,-1.956 z m 11.939,-2 h -12.875 c -0.525,0 -0.96,0.406 -0.998,0.931 l -0.283,4.155 c -0.107,1.603 1.09,3.385 2.672,3.97 3.264,1.168 6.846,1.163 10.086,0.003 1.594,-0.587 2.791,-2.369 2.68,-3.975 l -0.283,-4.152 c -0.036,-0.525 -0.473,-0.932 -0.999,-0.932" style="fill:#545454;fill-opacity:1;fill-rule:nonzero;stroke:none" id="path392" inkscape:connector-curvature="0"/>
      <path d="m 99.4336,198.2129 h -5.127 c -0.553,0 -1,0.447 -1,1 0,0.553 0.447,1 1,1 h 4.193 l 0.182,2.654 c 0.035,0.507 -0.461,1.324 -1.092,1.555 -1.119,0.4 -2.301,0.615 -3.506,0.636 -0.55,0.009 -0.992,0.465 -0.982,1.017 0.01,0.552 0.463,1.008 1.018,0.983 1.421,-0.025 2.82,-0.28 4.154,-0.756 1.43,-0.527 2.504,-2.127 2.404,-3.571 l -0.246,-3.587 c -0.037,-0.524 -0.473,-0.931 -0.998,-0.931" style="fill:#545454;fill-opacity:1;fill-rule:nonzero;stroke:none" id="path396" inkscape:connector-curvature="0"/>
      <path d="m 95.4883,214.1348 c -0.887,0 -1.607,-0.899 -1.607,-2.005 0,-1.104 0.72,-2.004 1.607,-2.004 0.885,0 1.605,0.9 1.605,2.004 0,1.106 -0.72,2.005 -1.605,2.005 m 0,-6.009 c -1.988,0 -3.607,1.796 -3.607,4.004 0,2.208 1.619,4.005 3.607,4.005 1.988,0 3.605,-1.797 3.605,-4.005 0,-2.208 -1.617,-4.004 -3.605,-4.004" style="fill:#545454;fill-opacity:1;fill-rule:nonzero;stroke:none" id="path400" inkscape:connector-curvature="0"/>
    </g>
  </g>
</svg>
