<?xml version='1.0' encoding='UTF-8'?>
<!-- Created with Inkscape (http://www.inkscape.org/) and export_objects.py -->
<svg xmlns:cc="http://creativecommons.org/ns#" xmlns:dc="http://purl.org/dc/elements/1.1/" xmlns:inkscape="http://www.inkscape.org/namespaces/inkscape" xmlns:rdf="http://www.w3.org/1999/02/22-rdf-syntax-ns#" xmlns:sodipodi="http://sodipodi.sourceforge.net/DTD/sodipodi-0.dtd" xmlns:xlink="http://www.w3.org/1999/xlink" xmlns="http://www.w3.org/2000/svg" version="1.1" id="svg2" xml:space="preserve" width="18.2688px" height="30.453866px" viewBox="0 0 18.2688 30.453866" sodipodi:docname="step119.svg" inkscape:version="0.92.1 r15371">
  <sodipodi:namedview pagecolor="#ffffff" bordercolor="#666666" borderopacity="1" objecttolerance="10" gridtolerance="10" guidetolerance="10" inkscape:pageopacity="0" inkscape:pageshadow="2" inkscape:window-width="1920" inkscape:window-height="1017" id="namedview4" showgrid="false" showguides="true" inkscape:zoom="1.3537284" inkscape:cx="2.6077055" inkscape:cy="918.20129" inkscape:window-x="1912" inkscape:window-y="-8" inkscape:window-maximized="1" inkscape:current-layer="g10"/>
  <metadata id="metadata8">
    <rdf:RDF>
      <cc:Work rdf:about="">
        <dc:format>image/svg+xml</dc:format>
        <dc:type rdf:resource="http://purl.org/dc/dcmitype/StillImage"/>
        <dc:title/>
      </cc:Work>
    </rdf:RDF>
  </metadata>
  <g inkscape:groupmode="layer" inkscape:label="step" transform="matrix(1.333333,0.000000,0.000000,-1.333333,376.396140,1103.350910)">
    <g id="g4865" transform="translate(-341.61051)" inkscape:label="119">
      <path inkscape:connector-curvature="0" id="path4851" style="fill:#545454;fill-opacity:1;fill-rule:nonzero;stroke:none" d="m 61.209,808.1562 c 0.213,0 0.398,0.028 0.557,0.085 0.158,0.057 0.289,0.136 0.39,0.237 0.103,0.1 0.179,0.22 0.23,0.357 0.051,0.138 0.075,0.29 0.075,0.455 0,0.33 -0.102,0.583 -0.305,0.761 -0.203,0.176 -0.512,0.265 -0.93,0.265 h -0.723 v -2.16 z m 2.908,-3.411 h -1.021 c -0.194,0 -0.333,0.081 -0.42,0.243 l -1.278,2.084 c -0.047,0.077 -0.1,0.133 -0.158,0.166 -0.057,0.033 -0.141,0.049 -0.254,0.049 h -0.483 v -2.542 h -1.131 v 6.507 h 1.854 c 0.412,0 0.765,-0.046 1.061,-0.138 0.295,-0.091 0.538,-0.219 0.727,-0.384 0.189,-0.165 0.329,-0.363 0.419,-0.592 0.089,-0.23 0.133,-0.482 0.133,-0.758 0,-0.219 -0.03,-0.426 -0.089,-0.621 -0.061,-0.195 -0.148,-0.372 -0.261,-0.531 -0.113,-0.159 -0.254,-0.299 -0.42,-0.419 -0.167,-0.12 -0.358,-0.214 -0.57,-0.283 0.073,-0.045 0.14,-0.099 0.202,-0.16 0.061,-0.062 0.117,-0.134 0.168,-0.218 z"/>
      <path inkscape:connector-curvature="0" id="path4853" style="fill:#545454;fill-opacity:1;fill-rule:nonzero;stroke:none" d="m 68.0137,810.0688 c -0.034,-0.063 -0.069,-0.109 -0.107,-0.138 -0.039,-0.028 -0.085,-0.042 -0.141,-0.042 -0.06,0 -0.123,0.023 -0.191,0.07 -0.07,0.046 -0.151,0.098 -0.247,0.155 -0.095,0.057 -0.207,0.108 -0.334,0.155 -0.127,0.047 -0.278,0.07 -0.452,0.07 -0.156,0 -0.294,-0.02 -0.412,-0.061 -0.117,-0.041 -0.216,-0.097 -0.296,-0.169 -0.08,-0.072 -0.139,-0.158 -0.178,-0.258 -0.039,-0.101 -0.059,-0.211 -0.059,-0.331 0,-0.153 0.04,-0.281 0.12,-0.383 0.079,-0.102 0.186,-0.189 0.317,-0.261 0.131,-0.072 0.282,-0.136 0.45,-0.193 0.168,-0.057 0.341,-0.118 0.516,-0.182 0.177,-0.065 0.35,-0.14 0.518,-0.225 0.168,-0.086 0.317,-0.194 0.449,-0.325 0.132,-0.13 0.237,-0.29 0.318,-0.479 0.08,-0.189 0.12,-0.418 0.12,-0.688 0,-0.294 -0.047,-0.569 -0.141,-0.826 -0.095,-0.257 -0.231,-0.48 -0.412,-0.67 -0.181,-0.191 -0.401,-0.341 -0.662,-0.45 -0.261,-0.11 -0.559,-0.165 -0.896,-0.165 -0.193,0 -0.384,0.021 -0.571,0.061 -0.188,0.041 -0.368,0.098 -0.54,0.173 -0.172,0.075 -0.334,0.165 -0.485,0.27 -0.152,0.105 -0.287,0.222 -0.404,0.351 l 0.332,0.581 c 0.028,0.042 0.065,0.077 0.11,0.106 0.044,0.028 0.091,0.042 0.142,0.042 0.071,0 0.146,-0.03 0.227,-0.092 0.082,-0.061 0.179,-0.13 0.29,-0.205 0.112,-0.075 0.243,-0.143 0.393,-0.204 0.15,-0.062 0.33,-0.093 0.54,-0.093 0.323,0 0.572,0.082 0.749,0.245 0.176,0.164 0.264,0.399 0.264,0.705 0,0.171 -0.04,0.31 -0.12,0.418 -0.079,0.108 -0.186,0.199 -0.317,0.272 -0.132,0.074 -0.282,0.136 -0.45,0.187 -0.168,0.051 -0.338,0.107 -0.512,0.167 -0.174,0.06 -0.345,0.132 -0.513,0.216 -0.168,0.084 -0.318,0.193 -0.45,0.328 -0.132,0.135 -0.237,0.304 -0.318,0.507 -0.079,0.202 -0.119,0.452 -0.119,0.749 0,0.237 0.044,0.468 0.132,0.693 0.089,0.225 0.217,0.424 0.385,0.598 0.168,0.174 0.375,0.314 0.622,0.419 0.246,0.105 0.529,0.157 0.849,0.157 0.359,0 0.689,-0.06 0.992,-0.18 0.303,-0.12 0.56,-0.288 0.773,-0.504 z"/>
      <path inkscape:connector-curvature="0" id="path4855" style="fill:#545454;fill-opacity:1;fill-rule:nonzero;stroke:none" d="m 72.624,810.0688 c -0.034,-0.063 -0.069,-0.109 -0.107,-0.138 -0.039,-0.028 -0.085,-0.042 -0.141,-0.042 -0.06,0 -0.123,0.023 -0.191,0.07 -0.07,0.046 -0.151,0.098 -0.247,0.155 -0.095,0.057 -0.207,0.108 -0.334,0.155 -0.127,0.047 -0.278,0.07 -0.452,0.07 -0.156,0 -0.294,-0.02 -0.412,-0.061 -0.117,-0.041 -0.216,-0.097 -0.296,-0.169 -0.08,-0.072 -0.139,-0.158 -0.178,-0.258 -0.039,-0.101 -0.059,-0.211 -0.059,-0.331 0,-0.153 0.04,-0.281 0.12,-0.383 0.079,-0.102 0.186,-0.189 0.317,-0.261 0.131,-0.072 0.282,-0.136 0.45,-0.193 0.168,-0.057 0.341,-0.118 0.516,-0.182 0.177,-0.065 0.35,-0.14 0.518,-0.225 0.168,-0.086 0.317,-0.194 0.449,-0.325 0.132,-0.13 0.237,-0.29 0.318,-0.479 0.08,-0.189 0.12,-0.418 0.12,-0.688 0,-0.294 -0.047,-0.569 -0.141,-0.826 -0.095,-0.257 -0.231,-0.48 -0.412,-0.67 -0.181,-0.191 -0.401,-0.341 -0.662,-0.45 -0.261,-0.11 -0.559,-0.165 -0.896,-0.165 -0.193,0 -0.384,0.021 -0.571,0.061 -0.188,0.041 -0.368,0.098 -0.54,0.173 -0.172,0.075 -0.334,0.165 -0.485,0.27 -0.152,0.105 -0.287,0.222 -0.404,0.351 l 0.332,0.581 c 0.028,0.042 0.065,0.077 0.11,0.106 0.044,0.028 0.091,0.042 0.142,0.042 0.071,0 0.146,-0.03 0.227,-0.092 0.082,-0.061 0.179,-0.13 0.29,-0.205 0.112,-0.075 0.243,-0.143 0.393,-0.204 0.15,-0.062 0.33,-0.093 0.54,-0.093 0.323,0 0.572,0.082 0.749,0.245 0.176,0.164 0.264,0.399 0.264,0.705 0,0.171 -0.04,0.31 -0.12,0.418 -0.079,0.108 -0.186,0.199 -0.317,0.272 -0.132,0.074 -0.282,0.136 -0.45,0.187 -0.168,0.051 -0.338,0.107 -0.512,0.167 -0.174,0.06 -0.345,0.132 -0.513,0.216 -0.168,0.084 -0.318,0.193 -0.45,0.328 -0.132,0.135 -0.237,0.304 -0.318,0.507 -0.079,0.202 -0.119,0.452 -0.119,0.749 0,0.237 0.044,0.468 0.132,0.693 0.089,0.225 0.217,0.424 0.385,0.598 0.168,0.174 0.375,0.314 0.622,0.419 0.246,0.105 0.529,0.157 0.849,0.157 0.359,0 0.689,-0.06 0.992,-0.18 0.303,-0.12 0.56,-0.288 0.773,-0.504 z"/>
      <path inkscape:connector-curvature="0" id="path4857" style="fill:#545454;fill-opacity:1;fill-rule:nonzero;stroke:none" d="m 71.9336,814.3052 c -0.326,0 -0.59,0.264 -0.59,0.59 0,6.307 -5.132,11.438 -11.439,11.438 -0.326,0 -0.59,0.264 -0.59,0.591 0,0.325 0.264,0.589 0.59,0.589 6.958,0 12.619,-5.66 12.619,-12.618 0,-0.326 -0.264,-0.59 -0.59,-0.59"/>
      <path inkscape:connector-curvature="0" id="path4859" style="fill:#545454;fill-opacity:1;fill-rule:nonzero;stroke:none" d="m 68.4004,814.3052 c -0.326,0 -0.591,0.264 -0.591,0.59 0,4.359 -3.547,7.905 -7.906,7.905 -0.326,0 -0.59,0.264 -0.59,0.59 0,0.326 0.264,0.59 0.59,0.59 5.011,0 9.087,-4.075 9.087,-9.085 0,-0.326 -0.264,-0.59 -0.59,-0.59"/>
      <path inkscape:connector-curvature="0" id="path4861" style="fill:#545454;fill-opacity:1;fill-rule:nonzero;stroke:none" d="m 64.6777,814.3052 c -0.326,0 -0.59,0.264 -0.59,0.59 0,2.306 -1.878,4.183 -4.184,4.183 -0.327,0 -0.59,0.264 -0.59,0.59 0,0.326 0.263,0.591 0.59,0.591 2.958,0 5.364,-2.407 5.364,-5.364 0,-0.326 -0.264,-0.59 -0.59,-0.59"/>
      <path inkscape:connector-curvature="0" id="path4863" style="fill:#545454;fill-opacity:1;fill-rule:nonzero;stroke:none" d="m 60.6543,816.9907 c -0.586,0 -1.062,-0.475 -1.062,-1.062 0,-0.586 0.476,-1.063 1.062,-1.063 0.587,0 1.062,0.477 1.062,1.063 0,0.587 -0.475,1.062 -1.062,1.062"/>
    </g>
  </g>
</svg>
