<?xml version='1.0' encoding='UTF-8'?>
<!-- Created with Inkscape (http://www.inkscape.org/) and export_objects.py -->
<svg xmlns:cc="http://creativecommons.org/ns#" xmlns:dc="http://purl.org/dc/elements/1.1/" xmlns:inkscape="http://www.inkscape.org/namespaces/inkscape" xmlns:rdf="http://www.w3.org/1999/02/22-rdf-syntax-ns#" xmlns:sodipodi="http://sodipodi.sourceforge.net/DTD/sodipodi-0.dtd" xmlns:xlink="http://www.w3.org/1999/xlink" xmlns="http://www.w3.org/2000/svg" version="1.1" sodipodi:docname="step089.svg" viewBox="0 0 29.851866 29.847999" height="29.847999px" width="29.851866px" xml:space="preserve" id="svg2" inkscape:version="0.92.1 r15371">
  <sodipodi:namedview inkscape:current-layer="g10" inkscape:window-maximized="1" inkscape:window-y="-8" inkscape:window-x="1912" inkscape:cy="-862.22917" inkscape:cx="2456.2254" inkscape:zoom="0.3015625" showgrid="false" id="namedview4" inkscape:window-height="1017" inkscape:window-width="1920" inkscape:pageshadow="2" inkscape:pageopacity="0" guidetolerance="10" gridtolerance="10" objecttolerance="10" borderopacity="1" bordercolor="#666666" pagecolor="#ffffff"/>
  <metadata id="metadata8">
    <rdf:RDF>
      <cc:Work rdf:about="">
        <dc:format>image/svg+xml</dc:format>
        <dc:type rdf:resource="http://purl.org/dc/dcmitype/StillImage"/>
        <dc:title/>
      </cc:Work>
    </rdf:RDF>
  </metadata>
  <g inkscape:groupmode="layer" inkscape:label="step" transform="matrix(1.333333,0.000000,0.000000,-1.333333,-1280.341200,-365.398500)">
    <g id="g8794" inkscape:label="089">
      <g transform="translate(981.64485,-296.4349)" id="g1284">
        <path inkscape:connector-curvature="0" id="path1286" style="fill:#545454;fill-opacity:1;fill-rule:nonzero;stroke:none" d="m 0,0 c -0.553,0 -1,0.447 -1,1 0,10.689 -8.697,19.386 -19.387,19.386 -0.552,0 -1,0.447 -1,1 0,0.552 0.448,1 1,1 C -8.594,22.386 1,12.792 1,1 1,0.447 0.553,0 0,0"/>
      </g>
      <g transform="translate(975.65655,-296.4349)" id="g1288">
        <path inkscape:connector-curvature="0" id="path1290" style="fill:#545454;fill-opacity:1;fill-rule:nonzero;stroke:none" d="m 0,0 c -0.553,0 -1,0.447 -1,1 0,7.388 -6.012,13.397 -13.4,13.397 -0.553,0 -1,0.448 -1,1 0,0.553 0.447,1 1,1 C -5.908,16.397 1,9.49 1,1 1,0.447 0.553,0 0,0"/>
      </g>
      <g transform="translate(969.34795,-296.4349)" id="g1292">
        <path inkscape:connector-curvature="0" id="path1294" style="fill:#545454;fill-opacity:1;fill-rule:nonzero;stroke:none" d="m 0,0 c -0.553,0 -1,0.447 -1,1 0,3.909 -3.182,7.09 -7.092,7.09 -0.553,0 -1,0.447 -1,1 0,0.553 0.447,1 1,1 C -3.078,10.09 1,6.012 1,1 1,0.447 0.553,0 0,0"/>
      </g>
      <g transform="translate(962.52955,-291.8832)" id="g1296">
        <path inkscape:connector-curvature="0" id="path1298" style="fill:#545454;fill-opacity:1;fill-rule:nonzero;stroke:none" d="m 0,0 c -0.994,0 -1.799,-0.806 -1.799,-1.801 0,-0.993 0.805,-1.8 1.799,-1.8 0.994,0 1.801,0.807 1.801,1.8 C 1.801,-0.806 0.994,0 0,0"/>
      </g>
    </g>
  </g>
</svg>
