<?xml version='1.0' encoding='UTF-8'?>
<!-- Created with Inkscape (http://www.inkscape.org/) and export_objects.py -->
<svg xmlns:cc="http://creativecommons.org/ns#" xmlns:dc="http://purl.org/dc/elements/1.1/" xmlns:inkscape="http://www.inkscape.org/namespaces/inkscape" xmlns:rdf="http://www.w3.org/1999/02/22-rdf-syntax-ns#" xmlns:sodipodi="http://sodipodi.sourceforge.net/DTD/sodipodi-0.dtd" xmlns:xlink="http://www.w3.org/1999/xlink" xmlns="http://www.w3.org/2000/svg" version="1.1" sodipodi:docname="step087.svg" viewBox="0 0 31.310666 31.306666" height="31.306666px" width="31.310666px" xml:space="preserve" id="svg2" inkscape:version="0.92.1 r15371">
  <sodipodi:namedview inkscape:current-layer="g10" inkscape:window-maximized="1" inkscape:window-y="-8" inkscape:window-x="1912" inkscape:cy="-862.22917" inkscape:cx="2456.2254" inkscape:zoom="0.3015625" showgrid="false" id="namedview4" inkscape:window-height="1017" inkscape:window-width="1920" inkscape:pageshadow="2" inkscape:pageopacity="0" guidetolerance="10" gridtolerance="10" objecttolerance="10" borderopacity="1" bordercolor="#666666" pagecolor="#ffffff"/>
  <metadata id="metadata8">
    <rdf:RDF>
      <cc:Work rdf:about="">
        <dc:format>image/svg+xml</dc:format>
        <dc:type rdf:resource="http://purl.org/dc/dcmitype/StillImage"/>
        <dc:title/>
      </cc:Work>
    </rdf:RDF>
  </metadata>
  <g inkscape:groupmode="layer" inkscape:label="step" transform="matrix(1.333333,0.000000,0.000000,-1.333333,-1984.288900,-281.685700)">
    <g id="g9322" inkscape:label="087">
      <path inkscape:connector-curvature="0" id="path1216" style="fill:#545454;fill-opacity:1;fill-rule:nonzero;stroke:none" d="m 1490.2167,-232.7443 h 19.482 v 19.48 h -19.482 z m 20.483,-2 h -21.483 c -0.552,0 -1,0.447 -1,1 v 21.48 c 0,0.553 0.448,1 1,1 h 21.483 c 0.553,0 1,-0.447 1,-1 v -21.48 c 0,-0.553 -0.447,-1 -1,-1"/>
      <path inkscape:connector-curvature="0" id="path1218" style="fill:#545454;fill-opacity:1;fill-rule:nonzero;stroke:none" d="m 1492.8847,-230.0753 h 14.145 v 14.143 h -14.145 z m 14.645,-1 h -15.145 c -0.275,0 -0.5,0.223 -0.5,0.5 v 15.142 c 0,0.277 0.225,0.5 0.5,0.5 h 15.145 c 0.277,0 0.5,-0.223 0.5,-0.5 v -15.142 c 0,-0.277 -0.223,-0.5 -0.5,-0.5"/>
      <g transform="translate(1492.3851,-221.099)" id="g1220">
        <path inkscape:connector-curvature="0" id="path1222" style="fill:#545454;fill-opacity:1;fill-rule:nonzero;stroke:none" d="m 0,0 c -0.553,0 -1,0.447 -1,1 v 1.232 c 0,0.553 0.447,1 1,1 0.553,0 1,-0.447 1,-1 V 1 C 1,0.447 0.553,0 0,0"/>
      </g>
      <g transform="translate(1492.3851,-228.1429)" id="g1224">
        <path inkscape:connector-curvature="0" id="path1226" style="fill:#545454;fill-opacity:1;fill-rule:nonzero;stroke:none" d="m 0,0 c -0.553,0 -1,0.447 -1,1 v 1.233 c 0,0.553 0.447,1 1,1 0.553,0 1,-0.447 1,-1 V 1 C 1,0.447 0.553,0 0,0"/>
      </g>
      <g transform="translate(1499.9574,-220.9945)" id="g1228">
        <path inkscape:connector-curvature="0" id="path1230" style="fill:#545454;fill-opacity:1;fill-rule:nonzero;stroke:none" d="m 0,0 c -1.107,0 -2.01,-0.901 -2.01,-2.01 0,-1.108 0.903,-2.01 2.01,-2.01 1.109,0 2.01,0.902 2.01,2.01 C 2.01,-0.901 1.109,0 0,0 m 0,-5.02 c -1.658,0 -3.01,1.351 -3.01,3.01 C -3.01,-0.351 -1.658,1 0,1 1.66,1 3.01,-0.351 3.01,-2.01 3.01,-3.669 1.66,-5.02 0,-5.02"/>
      </g>
      <g transform="translate(1498.0667,-221.6117)" id="g1232">
        <path inkscape:connector-curvature="0" id="path1234" style="fill:#545454;fill-opacity:1;fill-rule:nonzero;stroke:none" d="m 0,0 c -0.129,0 -0.256,0.049 -0.354,0.146 l -0.699,0.7 c -0.195,0.195 -0.195,0.511 0,0.707 0.196,0.195 0.512,0.195 0.707,0 l 0.7,-0.699 C 0.549,0.658 0.549,0.342 0.354,0.146 0.256,0.049 0.127,0 0,0"/>
      </g>
      <g transform="translate(1502.5492,-226.0961)" id="g1236">
        <path inkscape:connector-curvature="0" id="path1238" style="fill:#545454;fill-opacity:1;fill-rule:nonzero;stroke:none" d="m 0,0 c -0.129,0 -0.256,0.049 -0.354,0.146 l -0.824,0.826 c -0.195,0.196 -0.195,0.512 0,0.707 0.196,0.195 0.512,0.195 0.707,0 L 0.354,0.854 C 0.549,0.657 0.549,0.341 0.354,0.146 0.256,0.049 0.127,0 0,0"/>
      </g>
      <g transform="translate(1501.85,-221.6127)" id="g1240">
        <path inkscape:connector-curvature="0" id="path1242" style="fill:#545454;fill-opacity:1;fill-rule:nonzero;stroke:none" d="m 0,0 c -0.127,0 -0.256,0.049 -0.354,0.146 -0.195,0.196 -0.195,0.512 0,0.708 l 0.7,0.699 c 0.195,0.195 0.511,0.195 0.707,0 0.195,-0.196 0.195,-0.512 0,-0.707 L 0.354,0.146 C 0.256,0.049 0.129,0 0,0"/>
      </g>
      <g transform="translate(1497.3656,-226.0961)" id="g1244">
        <path inkscape:connector-curvature="0" id="path1246" style="fill:#545454;fill-opacity:1;fill-rule:nonzero;stroke:none" d="m 0,0 c -0.127,0 -0.256,0.049 -0.354,0.146 -0.195,0.196 -0.195,0.512 0,0.708 l 0.827,0.824 c 0.195,0.195 0.511,0.195 0.707,0 0.195,-0.196 0.195,-0.512 0,-0.707 L 0.354,0.146 C 0.256,0.049 0.129,0 0,0"/>
      </g>
      <g transform="translate(1499.9593,-220.8275)" id="g1248">
        <path inkscape:connector-curvature="0" id="path1250" style="fill:#545454;fill-opacity:1;fill-rule:nonzero;stroke:none" d="m 0,0 c -0.277,0 -0.5,0.224 -0.5,0.5 v 0.988 c 0,0.277 0.223,0.5 0.5,0.5 0.275,0 0.5,-0.223 0.5,-0.5 V 0.5 C 0.5,0.224 0.275,0 0,0"/>
      </g>
      <g transform="translate(1499.9574,-227.1693)" id="g1252">
        <path inkscape:connector-curvature="0" id="path1254" style="fill:#545454;fill-opacity:1;fill-rule:nonzero;stroke:none" d="M 0,0 H -0.002 C -0.277,0 -0.5,0.225 -0.5,0.501 l 0.002,1.166 c 0,0.275 0.225,0.499 0.5,0.499 0.277,0 0.5,-0.225 0.5,-0.501 L 0.5,0.499 C 0.5,0.224 0.275,0 0,0"/>
      </g>
      <g transform="translate(1503.6234,-223.5043)" id="g1256">
        <path inkscape:connector-curvature="0" id="path1258" style="fill:#545454;fill-opacity:1;fill-rule:nonzero;stroke:none" d="m 0,0 h -0.988 c -0.278,0 -0.5,0.224 -0.5,0.5 0,0.276 0.222,0.5 0.5,0.5 H 0 C 0.275,1 0.5,0.776 0.5,0.5 0.5,0.224 0.275,0 0,0"/>
      </g>
      <g transform="translate(1497.4613,-223.5043)" id="g1260">
        <path inkscape:connector-curvature="0" id="path1262" style="fill:#545454;fill-opacity:1;fill-rule:nonzero;stroke:none" d="m 0,0 h -1.168 c -0.277,0 -0.5,0.224 -0.5,0.5 0,0.276 0.223,0.5 0.5,0.5 H 0 C 0.277,1 0.5,0.776 0.5,0.5 0.5,0.224 0.277,0 0,0"/>
      </g>
    </g>
  </g>
</svg>
