<?xml version="1.0" encoding="UTF-8" standalone="no"?>
<!-- Created with Inkscape (http://www.inkscape.org/) and export_objects.py -->

<svg
   xmlns:dc="http://purl.org/dc/elements/1.1/"
   xmlns:cc="http://creativecommons.org/ns#"
   xmlns:rdf="http://www.w3.org/1999/02/22-rdf-syntax-ns#"
   xmlns:svg="http://www.w3.org/2000/svg"
   xmlns="http://www.w3.org/2000/svg"
   xmlns:sodipodi="http://sodipodi.sourceforge.net/DTD/sodipodi-0.dtd"
   xmlns:inkscape="http://www.inkscape.org/namespaces/inkscape"
   version="1.1"
   sodipodi:docname="save-3.svg"
   viewBox="0 0 30.000001 30"
   height="30"
   width="30"
   xml:space="preserve"
   id="svg2"
   inkscape:version="0.92.0 r15299"><defs
     id="defs37" /><sodipodi:namedview
     inkscape:current-layer="g34"
     inkscape:window-maximized="1"
     inkscape:window-y="-8"
     inkscape:window-x="1654"
     inkscape:cy="19.97629"
     inkscape:cx="8.8987706"
     inkscape:zoom="6.8235804"
     showgrid="false"
     id="namedview4"
     inkscape:window-height="877"
     inkscape:window-width="1538"
     inkscape:pageshadow="2"
     inkscape:pageopacity="0"
     guidetolerance="10"
     gridtolerance="10"
     objecttolerance="10"
     borderopacity="1"
     bordercolor="#666666"
     pagecolor="#ffffff"
     fit-margin-top="0"
     fit-margin-left="0"
     fit-margin-right="0"
     fit-margin-bottom="0" /><metadata
     id="metadata8"><rdf:RDF><cc:Work
         rdf:about=""><dc:format>image/svg+xml</dc:format><dc:type
           rdf:resource="http://purl.org/dc/dcmitype/StillImage" /><dc:title></dc:title></cc:Work></rdf:RDF></metadata><g
     inkscape:groupmode="layer"
     inkscape:label="step"
     transform="matrix(1.333333,0,0,-1.333333,-2058.9835,-284.55645)"
     id="g34"><g
       id="g909"><path
         d="m 1554.0085,-228.79235 c -0.2579,0 -0.5054,0.10198 -0.6849,0.28574 l -2.4499,2.50179 c -0.3599,0.36751 -0.3458,0.94909 0.034,1.29914 0.3779,0.34822 0.9739,0.33719 1.3358,-0.0322 l 1.7138,-1.74933 4.7296,5.60815 c 0.3307,0.39139 0.9268,0.45112 1.3303,0.12862 0.4044,-0.32248 0.4619,-0.9013 0.1313,-1.2927 l -5.4088,-6.41299 c -0.1711,-0.20304 -0.4243,-0.32524 -0.6954,-0.33535 -0.011,-9.2e-4 -0.022,-9.2e-4 -0.035,-9.2e-4"
         style="fill:#545454;fill-opacity:1;fill-rule:nonzero;stroke:none;stroke-width:0.93168265"
         id="path1594"
         inkscape:connector-curvature="0" /><path
         sodipodi:nodetypes="ccccccsssssssc"
         inkscape:label="098"
         inkscape:connector-curvature="0"
         id="path1602"
         style="fill:#545454;fill-opacity:1;fill-rule:nonzero;stroke:none;stroke-width:0.9572432"
         d="m 1545.7368,-234.4197 19.5037,-3e-4 v 19.5036 l -19.5037,3.1e-4 z m -1.4988,-0.48977 v 20.48414 c 0,0.55518 0.4518,1.00794 1.008,1.00794 h 20.4849 c 0.5562,0 1.0071,-0.45276 1.0071,-1.00794 v -20.48414 c 0,-0.55709 -0.4509,-1.00793 -1.0071,-1.00793 h -20.4849 c -0.5562,0 -1.008,0.45084 -1.008,1.00793" /></g></g></svg>