<?xml version="1.0" encoding="UTF-8" standalone="no"?>
<!-- Created with Inkscape (http://www.inkscape.org/) and export_objects.py -->

<svg
   xmlns:dc="http://purl.org/dc/elements/1.1/"
   xmlns:cc="http://creativecommons.org/ns#"
   xmlns:rdf="http://www.w3.org/1999/02/22-rdf-syntax-ns#"
   xmlns:svg="http://www.w3.org/2000/svg"
   xmlns="http://www.w3.org/2000/svg"
   xmlns:sodipodi="http://sodipodi.sourceforge.net/DTD/sodipodi-0.dtd"
   xmlns:inkscape="http://www.inkscape.org/namespaces/inkscape"
   version="1.1"
   sodipodi:docname="step114.svg"
   viewBox="0 0 43.502577 28.284399"
   height="28.284399px"
   width="43.502577px"
   xml:space="preserve"
   id="svg2"
   inkscape:version="0.92.1 r15371"><defs
     id="defs24" /><sodipodi:namedview
     inkscape:current-layer="g21"
     inkscape:window-maximized="1"
     inkscape:window-y="-8"
     inkscape:window-x="1592"
     inkscape:cy="25.113488"
     inkscape:cx="40.315025"
     inkscape:zoom="13.647161"
     showgrid="false"
     id="namedview4"
     inkscape:window-height="837"
     inkscape:window-width="1600"
     inkscape:pageshadow="2"
     inkscape:pageopacity="0"
     guidetolerance="10"
     gridtolerance="10"
     objecttolerance="10"
     borderopacity="1"
     bordercolor="#666666"
     pagecolor="#ffffff"
     inkscape:lockguides="true" /><metadata
     id="metadata8"><rdf:RDF><cc:Work
         rdf:about=""><dc:format>image/svg+xml</dc:format><dc:type
           rdf:resource="http://purl.org/dc/dcmitype/StillImage" /><dc:title /></cc:Work></rdf:RDF></metadata><g
     inkscape:groupmode="layer"
     inkscape:label="step"
     transform="matrix(1.333333,0.000000,0.000000,-1.333333,-1278.683900,-448.623500)"
     id="g21"><g
       id="g8812"
       inkscape:label="114"><g
         transform="translate(959.01295,-347.4349)"
         id="g1094"><path
           inkscape:connector-curvature="0"
           id="path1096"
           style="fill:#545454;fill-opacity:1;fill-rule:nonzero;stroke:none"
           d="M 0,0 H 25.344 V -1.821 H 1.821 v -6.604 h 23.192 v 6.604 h -1.03 V 0 h 2.851 V -10.246 H 0 Z" /></g><g
         transform="translate(980.49835,-353.3383)"
         id="g1098"><path
           inkscape:connector-curvature="0"
           id="path1100"
           style="fill:#545454;fill-opacity:1;fill-rule:nonzero;stroke:none"
           d="m 0,0 c -0.592,0 -1.07,-0.48 -1.07,-1.071 0,-0.592 0.478,-1.072 1.07,-1.072 0.592,0 1.072,0.48 1.072,1.072 C 1.072,-0.48 0.592,0 0,0" /></g><g
         transform="translate(977.87915,-354.6268)"
         id="g1102"><path
           inkscape:connector-curvature="0"
           id="path1104"
           style="fill:#545454;fill-opacity:1;fill-rule:nonzero;stroke:none"
           d="m 0,0 h -5.595 c -0.251,0 -0.455,0.204 -0.455,0.455 0,0.252 0.204,0.455 0.455,0.455 H 0 C 0.251,0.91 0.455,0.707 0.455,0.455 0.455,0.204 0.251,0 0,0" /></g><g
         transform="translate(978.34015,-346.6879)"
         id="g2100"><path
           inkscape:connector-curvature="0"
           id="path2102"
           style="fill:#545454;fill-opacity:1;fill-rule:nonzero;stroke:none"
           d="m 0,0 c -0.503,0 -0.91,0.407 -0.91,0.91 v 7.169 c 0,0.504 0.407,0.91 0.91,0.91 0.503,0 0.91,-0.406 0.91,-0.91 V 0.91 C 0.91,0.407 0.503,0 0,0" /></g><g
         transform="translate(981.92415,-343.1034)"
         id="g2104"><path
           inkscape:connector-curvature="0"
           id="path2106"
           style="fill:#545454;fill-opacity:1;fill-rule:nonzero;stroke:none"
           d="m 0,0 h -7.169 c -0.503,0 -0.91,0.407 -0.91,0.91 0,0.504 0.407,0.911 0.91,0.911 L 0,1.821 C 0.504,1.821 0.91,1.414 0.91,0.91 0.91,0.407 0.504,0 0,0" /></g><g
         transform="translate(975.16145,-345.3715)"
         id="g2108"><path
           inkscape:connector-curvature="0"
           id="path2110"
           style="fill:#545454;fill-opacity:1;fill-rule:nonzero;stroke:none"
           d="m 0,0 c -0.355,0.356 -0.355,0.932 0,1.288 l 5.069,5.068 c 0.356,0.356 0.932,0.356 1.287,0 0.357,-0.355 0.357,-0.931 0,-1.287 L 1.288,0 C 0.932,-0.355 0.356,-0.356 0,0" /></g><g
         transform="translate(980.23075,-345.3715)"
         id="g2112"><path
           inkscape:connector-curvature="0"
           id="path2114"
           style="fill:#545454;fill-opacity:1;fill-rule:nonzero;stroke:none"
           d="m 0,0 -5.069,5.069 c -0.356,0.356 -0.356,0.932 0,1.287 0.356,0.356 0.931,0.356 1.288,0 L 1.287,1.288 C 1.644,0.932 1.644,0.356 1.287,0 0.932,-0.355 0.355,-0.356 0,0" /></g><g
         transform="translate(960.68775,-348.3021)"
         id="g2132"><path
           style="color:#000000;font-style:normal;font-variant:normal;font-weight:normal;font-stretch:normal;font-size:medium;line-height:normal;font-family:sans-serif;font-variant-ligatures:normal;font-variant-position:normal;font-variant-caps:normal;font-variant-numeric:normal;font-variant-alternates:normal;font-feature-settings:normal;text-indent:0;text-align:start;text-decoration:none;text-decoration-line:none;text-decoration-style:solid;text-decoration-color:#000000;letter-spacing:normal;word-spacing:normal;text-transform:none;writing-mode:lr-tb;direction:ltr;text-orientation:mixed;dominant-baseline:auto;baseline-shift:baseline;text-anchor:start;white-space:normal;shape-padding:0;clip-rule:nonzero;display:inline;overflow:visible;visibility:visible;opacity:1;isolation:auto;mix-blend-mode:normal;color-interpolation:sRGB;color-interpolation-filters:linearRGB;solid-color:#000000;solid-opacity:1;vector-effect:none;fill:#545454;fill-opacity:1;fill-rule:nonzero;stroke:none;stroke-width:1.82099998;stroke-linecap:butt;stroke-linejoin:miter;stroke-miterlimit:10;stroke-dasharray:none;stroke-dashoffset:0;stroke-opacity:1;color-rendering:auto;image-rendering:auto;shape-rendering:auto;text-rendering:auto;enable-background:accumulate"
           d="M 0.69921875,-0.58203125 -0.69921875,0.58203125 8.6777344,11.833984 H 30.951172 l -9.285156,-12.380859 -1.457032,1.09375 7.09961,9.466797 H 9.53125 Z"
           id="path2134"
           inkscape:connector-curvature="0" /></g></g></g></svg>