<?xml version='1.0' encoding='UTF-8'?>
<!-- Created with Inkscape (http://www.inkscape.org/) and export_objects.py -->
<svg xmlns:cc="http://creativecommons.org/ns#" xmlns:dc="http://purl.org/dc/elements/1.1/" xmlns:inkscape="http://www.inkscape.org/namespaces/inkscape" xmlns:rdf="http://www.w3.org/1999/02/22-rdf-syntax-ns#" xmlns:sodipodi="http://sodipodi.sourceforge.net/DTD/sodipodi-0.dtd" xmlns:xlink="http://www.w3.org/1999/xlink" xmlns="http://www.w3.org/2000/svg" version="1.1" sodipodi:docname="step067.svg" viewBox="0 0 31.333333 31.333333" height="31.333333px" width="31.333333px" xml:space="preserve" id="svg2" inkscape:version="0.92.1 r15371">
  <sodipodi:namedview inkscape:current-layer="g10" inkscape:window-maximized="1" inkscape:window-y="-8" inkscape:window-x="1912" inkscape:cy="-862.22917" inkscape:cx="2456.2254" inkscape:zoom="0.3015625" showgrid="false" id="namedview4" inkscape:window-height="1017" inkscape:window-width="1920" inkscape:pageshadow="2" inkscape:pageopacity="0" guidetolerance="10" gridtolerance="10" objecttolerance="10" borderopacity="1" bordercolor="#666666" pagecolor="#ffffff"/>
  <metadata id="metadata8">
    <rdf:RDF>
      <cc:Work rdf:about="">
        <dc:format>image/svg+xml</dc:format>
        <dc:type rdf:resource="http://purl.org/dc/dcmitype/StillImage"/>
        <dc:title/>
      </cc:Work>
    </rdf:RDF>
  </metadata>
  <g inkscape:groupmode="layer" inkscape:label="step" transform="matrix(1.333333,0.000000,0.000000,-1.333333,-1983.854600,-1118.003600)">
    <g id="g9127" inkscape:label="067">
      <g transform="translate(1499.641,-847.8637)" id="g798">
        <path inkscape:connector-curvature="0" id="path800" style="fill:#545454;fill-opacity:1;fill-rule:nonzero;stroke:none" d="m 0,0 c -1.316,0 -2.387,-1.071 -2.387,-2.389 0,-1.316 1.071,-2.388 2.387,-2.388 1.318,0 2.389,1.072 2.389,2.388 C 2.389,-1.071 1.318,0 0,0 m 0,-6.777 c -2.418,0 -4.387,1.968 -4.387,4.388 C -4.387,0.031 -2.418,2 0,2 2.42,2 4.389,0.031 4.389,-2.389 4.389,-4.809 2.42,-6.777 0,-6.777 m -0.986,-5.362 h 1.974 v 1.364 c 0,0.808 0.578,1.613 1.346,1.871 l 0.687,0.287 c 0.192,0.097 0.487,0.166 0.792,0.166 0.542,0 1.06,-0.207 1.419,-0.567 l 0.965,-0.964 1.395,1.396 -0.965,0.964 C 6.055,-7.048 5.896,-6.07 6.258,-5.346 l 0.281,0.688 c 0.231,0.702 1.035,1.283 1.848,1.283 H 9.75 v 1.973 H 8.387 c -0.813,0 -1.617,0.581 -1.873,1.351 L 6.229,0.632 C 5.898,1.29 6.055,2.268 6.625,2.842 L 7.592,3.808 6.197,5.204 5.232,4.239 C 4.67,3.677 3.672,3.513 2.955,3.869 L 2.27,4.15 C 1.568,4.383 0.988,5.187 0.988,5.997 V 7.361 H -0.986 V 5.997 c 0,-0.81 -0.58,-1.615 -1.35,-1.872 L -3.02,3.84 C -3.211,3.741 -3.508,3.674 -3.813,3.674 -4.355,3.674 -4.875,3.88 -5.232,4.24 L -6.195,5.203 -7.59,3.808 -6.627,2.844 C -6.055,2.268 -5.896,1.29 -6.258,0.567 L -6.535,-0.117 C -6.77,-0.823 -7.574,-1.402 -8.385,-1.402 H -9.75 v -1.973 h 1.365 c 0.811,0 1.615,-0.579 1.873,-1.347 l 0.285,-0.69 c 0.331,-0.658 0.172,-1.636 -0.398,-2.209 l -0.965,-0.965 1.395,-1.395 0.963,0.963 c 0.556,0.56 1.562,0.73 2.277,0.371 l 0.685,-0.281 c 0.717,-0.237 1.284,-1.025 1.284,-1.847 z m 2.271,-2 h -2.57 c -0.938,0 -1.701,0.764 -1.701,1.701 v 1.663 l -0.797,0.308 -1.211,-1.14 c -0.641,-0.641 -1.764,-0.641 -2.404,0 l -1.819,1.819 c -0.32,0.317 -0.498,0.746 -0.498,1.202 0,0.457 0.178,0.885 0.502,1.204 l 1.172,1.174 -0.344,0.788 -1.664,0.045 c -0.937,0 -1.701,0.763 -1.701,1.7 v 2.571 c 0,0.938 0.764,1.702 1.701,1.702 h 1.664 l 0.309,0.796 -1.141,1.211 c -0.32,0.319 -0.498,0.746 -0.498,1.203 0,0.456 0.178,0.883 0.502,1.205 l 1.815,1.816 c 0.638,0.641 1.765,0.642 2.406,-10e-4 l 1.174,-1.175 0.783,0.345 0.049,1.662 c 0,0.938 0.763,1.701 1.701,1.701 h 2.57 c 0.94,0 1.703,-0.763 1.703,-1.701 V 5.997 L 3.785,5.687 4.994,6.829 C 5.316,7.15 5.744,7.326 6.197,7.326 6.652,7.326 7.078,7.15 7.4,6.83 L 9.219,5.009 C 9.537,4.691 9.715,4.264 9.715,3.808 9.715,3.351 9.537,2.924 9.215,2.604 L 8.041,1.43 8.387,0.646 10.051,0.598 c 0.937,0 1.699,-0.764 1.699,-1.702 v -2.571 c 0,-0.937 -0.762,-1.7 -1.699,-1.7 H 8.387 l -0.311,-0.799 1.141,-1.21 c 0.32,-0.317 0.498,-0.745 0.498,-1.202 0,-0.456 -0.178,-0.885 -0.5,-1.205 L 7.402,-11.607 C 6.754,-12.25 5.639,-12.248 4.998,-11.609 l -1.18,1.177 -0.783,-0.343 -0.047,-1.663 c 0,-0.937 -0.763,-1.701 -1.703,-1.701"/>
      </g>
    </g>
  </g>
</svg>
