<?xml version='1.0' encoding='UTF-8'?>
<!-- Created with Inkscape (http://www.inkscape.org/) and export_objects.py -->
<svg xmlns:cc="http://creativecommons.org/ns#" xmlns:dc="http://purl.org/dc/elements/1.1/" xmlns:inkscape="http://www.inkscape.org/namespaces/inkscape" xmlns:rdf="http://www.w3.org/1999/02/22-rdf-syntax-ns#" xmlns:sodipodi="http://sodipodi.sourceforge.net/DTD/sodipodi-0.dtd" xmlns:xlink="http://www.w3.org/1999/xlink" xmlns="http://www.w3.org/2000/svg" version="1.1" sodipodi:docname="step092.svg" viewBox="0 0 33.712302 31.687999" height="31.687999px" width="33.712302px" xml:space="preserve" id="svg2" inkscape:version="0.92.1 r15371">
  <sodipodi:namedview inkscape:current-layer="g10" inkscape:window-maximized="1" inkscape:window-y="-8" inkscape:window-x="1912" inkscape:cy="-862.22917" inkscape:cx="2456.2254" inkscape:zoom="0.3015625" showgrid="false" id="namedview4" inkscape:window-height="1017" inkscape:window-width="1920" inkscape:pageshadow="2" inkscape:pageopacity="0" guidetolerance="10" gridtolerance="10" objecttolerance="10" borderopacity="1" bordercolor="#666666" pagecolor="#ffffff"/>
  <metadata id="metadata8">
    <rdf:RDF>
      <cc:Work rdf:about="">
        <dc:format>image/svg+xml</dc:format>
        <dc:type rdf:resource="http://purl.org/dc/dcmitype/StillImage"/>
        <dc:title/>
      </cc:Work>
    </rdf:RDF>
  </metadata>
  <g inkscape:groupmode="layer" inkscape:label="step" transform="matrix(1.333333,0.000000,0.000000,-1.333333,-1902.507400,-1117.825200)">
    <g id="g9139" inkscape:label="092">
      <g transform="translate(1436.1722,-853.1781)" id="g1462">
        <path inkscape:connector-curvature="0" id="path1464" style="fill:#545454;fill-opacity:1;fill-rule:nonzero;stroke:none" d="m 0,0 -4.207,-4.205 c -0.77,-0.772 -0.881,-1.734 -0.498,-2.118 0.178,-0.176 0.428,-0.213 0.605,-0.213 0.5,0 1.065,0.266 1.51,0.713 l 4.207,4.206 z m -4.1,-8.536 c -0.787,0 -1.504,0.284 -2.019,0.8 -1.246,1.246 -1.027,3.418 0.498,4.945 l 4.914,4.912 c 0.391,0.391 1.023,0.391 1.414,0 L 3.738,-0.91 c 0.188,-0.188 0.293,-0.442 0.293,-0.707 0,-0.265 -0.105,-0.519 -0.293,-0.706 L -1.176,-7.236 C -2,-8.062 -3.066,-8.536 -4.1,-8.536"/>
      </g>
      <g transform="translate(1449.1488,-841.2172)" id="g1466">
        <path inkscape:connector-curvature="0" id="path1468" style="fill:#545454;fill-opacity:1;fill-rule:nonzero;stroke:none" d="m 0,0 -0.961,-0.961 c -0.166,-0.165 -0.164,-0.435 0.002,-0.601 0.217,-0.216 0.383,-0.216 0.6,0 l 0.961,0.961 z m -0.66,-3.687 c -0.647,0 -1.256,0.253 -1.715,0.711 -0.945,0.949 -0.943,2.487 0.002,3.429 l 1.666,1.669 c 0.375,0.374 1.039,0.375 1.414,0 L 2.723,0.106 C 2.91,-0.081 3.016,-0.335 3.016,-0.601 3.016,-0.866 2.91,-1.12 2.723,-1.308 L 1.055,-2.977 c -0.459,-0.458 -1.067,-0.71 -1.715,-0.71"/>
      </g>
      <g transform="translate(1441.9828,-849.9828)" id="g1470">
        <path inkscape:connector-curvature="0" id="path1472" style="fill:#545454;fill-opacity:1;fill-rule:nonzero;stroke:none" d="m 0,0 c -0.256,0 -0.512,0.098 -0.707,0.293 -0.391,0.391 -0.391,1.023 0,1.414 l 5.5,5.497 c 0.391,0.39 1.023,0.391 1.414,0 0.391,-0.391 0.391,-1.023 0,-1.414 L 0.707,0.293 C 0.512,0.098 0.256,0 0,0"/>
      </g>
      <g transform="translate(1434.8324,-849.3529)" id="g1474">
        <path inkscape:connector-curvature="0" id="path1476" style="fill:#545454;fill-opacity:1;fill-rule:nonzero;stroke:none" d="m 0,0 c 0.262,0 0.518,-0.103 0.707,-0.293 l 9.947,-9.949 c 0.7,-0.696 1.918,-0.698 2.617,0.002 0.35,0.349 0.543,0.813 0.543,1.307 0,0.494 -0.193,0.958 -0.543,1.307 L 3.322,2.323 C 3.074,2.572 2.975,2.935 3.061,3.276 3.463,4.862 3.016,6.496 1.865,7.645 1.025,8.486 -0.086,8.959 -1.271,8.983 L 0.477,7.234 C 0.73,6.981 0.828,6.614 0.736,6.269 L 0.045,3.692 C -0.047,3.347 -0.316,3.077 -0.662,2.985 L -3.238,2.294 C -3.584,2.201 -3.953,2.301 -4.205,2.553 l -1.746,1.748 c 0.027,-1.16 0.49,-2.291 1.336,-3.137 1.131,-1.131 2.81,-1.59 4.369,-1.194 C -0.164,-0.01 -0.082,0 0,0 m 11.963,-12.782 v 0 c -1.027,0 -1.994,0.399 -2.723,1.126 l -9.568,9.569 c -2.08,-0.337 -4.213,0.349 -5.701,1.838 -1.817,1.816 -2.409,4.55 -1.506,6.961 0.119,0.319 0.39,0.556 0.724,0.627 0.334,0.075 0.678,-0.029 0.918,-0.27 l 2.694,-2.693 1.463,0.392 0.39,1.461 -2.693,2.694 c -0.24,0.241 -0.342,0.587 -0.27,0.92 0.073,0.332 0.309,0.604 0.627,0.723 0.743,0.278 1.52,0.418 2.315,0.418 1.756,0 3.406,-0.683 4.646,-1.924 1.492,-1.491 2.17,-3.631 1.838,-5.704 l 9.569,-9.567 c 0.726,-0.726 1.128,-1.693 1.128,-2.722 0,-1.028 -0.4,-1.995 -1.128,-2.722 -0.727,-0.727 -1.694,-1.127 -2.723,-1.127"/>
      </g>
      <g transform="translate(1446.6488,-857.2347)" id="g1478">
        <path inkscape:connector-curvature="0" id="path1480" style="fill:#545454;fill-opacity:1;fill-rule:nonzero;stroke:none" d="m 0,0 c -0.461,0 -0.834,-0.372 -0.834,-0.833 0,-0.461 0.373,-0.833 0.834,-0.833 0.461,0 0.834,0.372 0.834,0.833 C 0.834,-0.372 0.461,0 0,0"/>
      </g>
    </g>
  </g>
</svg>
