<?xml version='1.0' encoding='UTF-8'?>
<!-- Created with Inkscape (http://www.inkscape.org/) and export_objects.py -->
<svg xmlns:cc="http://creativecommons.org/ns#" xmlns:dc="http://purl.org/dc/elements/1.1/" xmlns:inkscape="http://www.inkscape.org/namespaces/inkscape" xmlns:rdf="http://www.w3.org/1999/02/22-rdf-syntax-ns#" xmlns:sodipodi="http://sodipodi.sourceforge.net/DTD/sodipodi-0.dtd" xmlns:xlink="http://www.w3.org/1999/xlink" xmlns="http://www.w3.org/2000/svg" version="1.1" sodipodi:docname="step068.svg" viewBox="0 0 31.90586 30.727466" height="30.727466px" width="31.90586px" xml:space="preserve" id="svg2" inkscape:version="0.92.1 r15371">
  <sodipodi:namedview inkscape:current-layer="g10" inkscape:window-maximized="1" inkscape:window-y="-8" inkscape:window-x="1912" inkscape:cy="-862.22917" inkscape:cx="2456.2254" inkscape:zoom="0.3015625" showgrid="false" id="namedview4" inkscape:window-height="1017" inkscape:window-width="1920" inkscape:pageshadow="2" inkscape:pageopacity="0" guidetolerance="10" gridtolerance="10" objecttolerance="10" borderopacity="1" bordercolor="#666666" pagecolor="#ffffff"/>
  <metadata id="metadata8">
    <rdf:RDF>
      <cc:Work rdf:about="">
        <dc:format>image/svg+xml</dc:format>
        <dc:type rdf:resource="http://purl.org/dc/dcmitype/StillImage"/>
        <dc:title/>
      </cc:Work>
    </rdf:RDF>
  </metadata>
  <g inkscape:groupmode="layer" inkscape:label="step" transform="matrix(1.333333,0.000000,0.000000,-1.333333,-2059.128300,-1116.983200)">
    <g id="g9123" inkscape:label="068">
      <g transform="translate(1552.7699,-849.223)" id="g814">
        <path inkscape:connector-curvature="0" id="path816" style="fill:#545454;fill-opacity:1;fill-rule:nonzero;stroke:none" d="m 0,0 c 0.254,0 0.504,-0.099 0.691,-0.279 2.821,-2.707 5.641,-5.41 8.461,-8.113 l 1.055,-1.011 C 10.27,-9.456 10.5,-9.56 10.676,-9.56 l 0.029,0.002 c 1.43,0.276 2.631,1.568 2.801,3.006 0.012,0.111 -0.1,0.396 -0.193,0.491 l -2.485,2.238 C 8.391,-1.628 5.955,0.565 3.514,2.759 3.252,2.994 3.133,3.351 3.201,3.696 3.531,5.366 2.988,7.051 1.75,8.203 0.752,9.13 -0.6,9.593 -1.949,9.486 L 0.074,7.608 C 0.764,6.964 0.801,5.885 0.162,5.198 L -1.988,2.881 C -2.596,2.22 -3.736,2.176 -4.398,2.794 l -2.024,1.88 c -0.01,-1.338 0.535,-2.648 1.555,-3.594 1.221,-1.134 2.99,-1.558 4.601,-1.116 C -0.178,-0.012 -0.09,0 0,0 m 10.676,-11.56 c -0.664,0 -1.408,0.287 -1.854,0.714 l -1.054,1.01 c -2.69,2.578 -5.381,5.158 -8.071,7.74 -2.119,-0.395 -4.343,0.242 -5.926,1.71 -2.023,1.879 -2.724,4.772 -1.781,7.368 0.115,0.315 0.379,0.552 0.705,0.631 0.323,0.079 0.67,-0.011 0.916,-0.24 l 3.135,-2.914 1.75,1.885 -3.137,2.912 c -0.246,0.228 -0.361,0.564 -0.306,0.895 0.052,0.331 0.271,0.613 0.576,0.75 2.469,1.106 5.49,0.614 7.482,-1.233 C 4.719,8.173 5.496,6.046 5.252,3.885 7.561,1.812 9.863,-0.263 12.166,-2.337 l 2.486,-2.239 c 0.479,-0.427 0.94,-1.349 0.84,-2.208 -0.271,-2.307 -2.123,-4.298 -4.402,-4.737 -0.129,-0.025 -0.27,-0.039 -0.414,-0.039"/>
      </g>
    </g>
  </g>
</svg>
