<?xml version='1.0' encoding='UTF-8'?>
<!-- Created with Inkscape (http://www.inkscape.org/) and export_objects.py -->
<svg xmlns:cc="http://creativecommons.org/ns#" xmlns:dc="http://purl.org/dc/elements/1.1/" xmlns:inkscape="http://www.inkscape.org/namespaces/inkscape" xmlns:rdf="http://www.w3.org/1999/02/22-rdf-syntax-ns#" xmlns:sodipodi="http://sodipodi.sourceforge.net/DTD/sodipodi-0.dtd" xmlns:xlink="http://www.w3.org/1999/xlink" xmlns="http://www.w3.org/2000/svg" version="1.1" sodipodi:docname="step083.svg" viewBox="0 0 30.702666 22.333333" height="22.333333px" width="30.702666px" xml:space="preserve" id="svg2" inkscape:version="0.92.1 r15371">
  <sodipodi:namedview inkscape:current-layer="g10" inkscape:window-maximized="1" inkscape:window-y="-8" inkscape:window-x="1912" inkscape:cy="-862.22917" inkscape:cx="2456.2254" inkscape:zoom="0.3015625" showgrid="false" id="namedview4" inkscape:window-height="1017" inkscape:window-width="1920" inkscape:pageshadow="2" inkscape:pageopacity="0" guidetolerance="10" gridtolerance="10" objecttolerance="10" borderopacity="1" bordercolor="#666666" pagecolor="#ffffff"/>
  <metadata id="metadata8">
    <rdf:RDF>
      <cc:Work rdf:about="">
        <dc:format>image/svg+xml</dc:format>
        <dc:type rdf:resource="http://purl.org/dc/dcmitype/StillImage"/>
        <dc:title/>
      </cc:Work>
    </rdf:RDF>
  </metadata>
  <g inkscape:groupmode="layer" inkscape:label="step" transform="matrix(1.333333,0.000000,0.000000,-1.333333,-1280.928800,-847.872900)">
    <g id="g8895" inkscape:label="083">
      <g transform="translate(962.75415,-644.2797)" id="g1156">
        <path inkscape:connector-curvature="0" id="path1158" style="fill:#545454;fill-opacity:1;fill-rule:nonzero;stroke:none" d="m 0,0 c 1.398,-3.827 5.156,-6.375 9.455,-6.375 4.301,0 8.059,2.548 9.457,6.375 -1.4,3.827 -5.156,6.375 -9.457,6.375 C 5.156,6.375 1.398,3.827 0,0 m 9.455,-8.375 c -5.283,0 -9.891,3.241 -11.463,8.064 -0.066,0.203 -0.066,0.419 0,0.622 1.574,4.823 6.182,8.064 11.463,8.064 5.283,0 9.891,-3.241 11.465,-8.064 0.066,-0.203 0.066,-0.419 0,-0.622 -1.574,-4.823 -6.182,-8.064 -11.465,-8.064"/>
      </g>
      <g transform="translate(972.20925,-649.6976)" id="g1160">
        <path inkscape:connector-curvature="0" id="path1162" style="fill:#545454;fill-opacity:1;fill-rule:nonzero;stroke:none" d="m 0,0 c -2.986,0 -5.418,2.431 -5.418,5.418 0,0.553 0.447,1 1,1 0.553,0 1,-0.447 1,-1 C -3.418,3.533 -1.885,2 0,2 1.885,2 3.416,3.533 3.416,5.418 3.416,7.302 1.885,8.834 0,8.834 c -0.553,0 -1,0.447 -1,1 0,0.553 0.447,1 1,1 2.986,0 5.416,-2.43 5.416,-5.416 C 5.416,2.431 2.986,0 0,0"/>
      </g>
    </g>
  </g>
</svg>
