<?xml version='1.0' encoding='UTF-8'?>
<!-- Created with Inkscape (http://www.inkscape.org/) and export_objects.py -->
<svg xmlns:cc="http://creativecommons.org/ns#" xmlns:dc="http://purl.org/dc/elements/1.1/" xmlns:inkscape="http://www.inkscape.org/namespaces/inkscape" xmlns:rdf="http://www.w3.org/1999/02/22-rdf-syntax-ns#" xmlns:sodipodi="http://sodipodi.sourceforge.net/DTD/sodipodi-0.dtd" xmlns:xlink="http://www.w3.org/1999/xlink" xmlns="http://www.w3.org/2000/svg" version="1.1" sodipodi:docname="step022.svg" viewBox="0 0 31.666666 31.666666" height="31.666666px" width="31.666666px" xml:space="preserve" id="svg2" inkscape:version="0.92.1 r15371">
  <sodipodi:namedview inkscape:current-layer="g10" inkscape:window-maximized="1" inkscape:window-y="-8" inkscape:window-x="-8" inkscape:cy="-703.13596" inkscape:cx="825.3699" inkscape:zoom="0.42647378" showgrid="false" id="namedview4" inkscape:window-height="1137" inkscape:window-width="1920" inkscape:pageshadow="2" inkscape:pageopacity="0" guidetolerance="10" gridtolerance="10" objecttolerance="10" borderopacity="1" bordercolor="#666666" pagecolor="#ffffff"/>
  <metadata id="metadata8">
    <rdf:RDF>
      <cc:Work rdf:about="">
        <dc:format>image/svg+xml</dc:format>
        <dc:type rdf:resource="http://purl.org/dc/dcmitype/StillImage"/>
        <dc:title/>
      </cc:Work>
    </rdf:RDF>
  </metadata>
  <g inkscape:groupmode="layer" inkscape:label="step" transform="matrix(1.333333,0.000000,0.000000,-1.333333,-860.583650,-920.656800)">
    <g id="g8532" inkscape:label="022">
      <g transform="translate(657.31275,-692.4926)" id="g802">
        <path inkscape:connector-curvature="0" id="path804" style="fill:#545454;fill-opacity:1;fill-rule:nonzero;stroke:none" d="m 0,0 c -5.445,0 -9.875,-4.43 -9.875,-9.875 0,-5.445 4.43,-9.875 9.875,-9.875 5.445,0 9.875,4.43 9.875,9.875 C 9.875,-4.43 5.445,0 0,0 m 0,-21.75 c -6.549,0 -11.875,5.327 -11.875,11.875 C -11.875,-3.327 -6.549,2 0,2 6.547,2 11.875,-3.327 11.875,-9.875 11.875,-16.423 6.547,-21.75 0,-21.75"/>
      </g>
      <g transform="translate(656.02175,-701.0746)" id="g806">
        <path inkscape:connector-curvature="0" id="path808" style="fill:#545454;fill-opacity:1;fill-rule:nonzero;stroke:none" d="m 0,0 -1.988,-4.575 4.57,1.99 1.99,4.575 z m -3.42,-6.752 c -0.193,0 -0.383,0.075 -0.525,0.218 -0.215,0.216 -0.278,0.541 -0.157,0.821 l 2.856,6.573 c 0.074,0.172 0.213,0.31 0.385,0.385 l 6.57,2.859 C 5.986,4.227 6.314,4.163 6.531,3.948 6.746,3.731 6.809,3.406 6.686,3.127 L 3.826,-3.445 C 3.752,-3.617 3.615,-3.755 3.443,-3.829 l -6.566,-2.86 C -3.219,-6.73 -3.32,-6.752 -3.42,-6.752"/>
      </g>
      <g transform="translate(658.50615,-704.3021)" id="g810">
        <path inkscape:connector-curvature="0" id="path812" style="fill:#545454;fill-opacity:1;fill-rule:nonzero;stroke:none" d="m 0,0 c -0.191,0 -0.381,0.072 -0.525,0.218 l -3.049,3.05 c -0.291,0.289 -0.291,0.759 0,1.049 0.291,0.289 0.76,0.289 1.051,0 L 0.525,1.268 C 0.814,0.977 0.814,0.507 0.525,0.218 0.379,0.072 0.189,0 0,0"/>
      </g>
    </g>
  </g>
</svg>
