<?xml version='1.0' encoding='UTF-8'?>
<!-- Created with Inkscape (http://www.inkscape.org/) and export_objects.py -->
<svg xmlns:cc="http://creativecommons.org/ns#" xmlns:dc="http://purl.org/dc/elements/1.1/" xmlns:inkscape="http://www.inkscape.org/namespaces/inkscape" xmlns:rdf="http://www.w3.org/1999/02/22-rdf-syntax-ns#" xmlns:sodipodi="http://sodipodi.sourceforge.net/DTD/sodipodi-0.dtd" xmlns:xlink="http://www.w3.org/1999/xlink" xmlns="http://www.w3.org/2000/svg" version="1.1" sodipodi:docname="step025.svg" viewBox="0 0 31.406373 31.582533" height="31.582533px" width="31.406373px" xml:space="preserve" id="svg2" inkscape:version="0.92.1 r15371">
  <sodipodi:namedview inkscape:current-layer="g10" inkscape:window-maximized="1" inkscape:window-y="-8" inkscape:window-x="-8" inkscape:cy="-703.13596" inkscape:cx="825.3699" inkscape:zoom="0.42647378" showgrid="false" id="namedview4" inkscape:window-height="1137" inkscape:window-width="1920" inkscape:pageshadow="2" inkscape:pageopacity="0" guidetolerance="10" gridtolerance="10" objecttolerance="10" borderopacity="1" bordercolor="#666666" pagecolor="#ffffff"/>
  <metadata id="metadata8">
    <rdf:RDF>
      <cc:Work rdf:about="">
        <dc:format>image/svg+xml</dc:format>
        <dc:type rdf:resource="http://purl.org/dc/dcmitype/StillImage"/>
        <dc:title/>
      </cc:Work>
    </rdf:RDF>
  </metadata>
  <g inkscape:groupmode="layer" inkscape:label="step" transform="matrix(1.333333,0.000000,0.000000,-1.333333,-778.855010,-923.365800)">
    <g id="g8524" inkscape:label="025">
      <g transform="translate(589.99055,-699.3422)" id="g910">
        <path inkscape:connector-curvature="0" id="path912" style="fill:#545454;fill-opacity:1;fill-rule:nonzero;stroke:none" d="M 0,0 13.953,-0.038 15.35,1.479 13.961,3.004 0.01,3.042 Z m 14.391,-2.039 h -0.002 l -15.395,0.042 c -0.265,0.001 -0.519,0.107 -0.707,0.295 -0.187,0.188 -0.291,0.443 -0.291,0.708 l 0.016,5.042 c 0.002,0.552 0.449,0.997 1,0.997 h 0.002 L 14.408,5.003 c 0.28,-0.001 0.547,-0.119 0.737,-0.327 l 2.3,-2.527 C 17.793,1.767 17.793,1.181 17.441,0.799 L 15.127,-1.717 C 14.938,-1.922 14.67,-2.039 14.391,-2.039"/>
      </g>
      <g transform="translate(587.88315,-707.3353)" id="g914">
        <path inkscape:connector-curvature="0" id="path916" style="fill:#545454;fill-opacity:1;fill-rule:nonzero;stroke:none" d="M 0,0 13.955,-0.039 13.963,3.003 0.008,3.042 -1.387,1.524 Z m 14.951,-2.041 h -0.002 l -15.394,0.042 c -0.282,0 -0.549,0.119 -0.739,0.326 l -2.298,2.528 c -0.348,0.383 -0.346,0.969 0.003,1.35 l 2.313,2.514 c 0.189,0.207 0.457,0.323 0.736,0.323 h 0.004 L 14.969,5.001 C 15.52,4.999 15.967,4.55 15.965,3.997 l -0.014,-5.042 c 0,-0.265 -0.105,-0.518 -0.295,-0.705 -0.187,-0.187 -0.439,-0.291 -0.705,-0.291"/>
      </g>
      <g transform="translate(595.21515,-716.2113)" id="g918">
        <path inkscape:connector-curvature="0" id="path920" style="fill:#545454;fill-opacity:1;fill-rule:nonzero;stroke:none" d="M 0,0 H -0.002 C -0.555,0.002 -1,0.45 -1,1.002 l 0.018,6.791 c 0.002,0.552 0.449,0.998 1,0.998 H 0.02 c 0.552,-0.002 1,-0.45 0.998,-1.002 L 1,0.998 C 1,0.445 0.551,0 0,0"/>
      </g>
      <g transform="translate(595.27175,-695.5834)" id="g922">
        <path inkscape:connector-curvature="0" id="path924" style="fill:#545454;fill-opacity:1;fill-rule:nonzero;stroke:none" d="M 0,0 H -0.002 C -0.553,0.001 -1,0.45 -1,1.003 l 0.002,1.059 c 0.002,0.55 0.449,0.997 1,0.997 h 0.002 c 0.553,-0.001 1,-0.45 0.998,-1.001 L 1,0.999 C 1,0.446 0.553,0 0,0"/>
      </g>
      <g transform="translate(595.24835,-703.7084)" id="g926">
        <path inkscape:connector-curvature="0" id="path928" style="fill:#545454;fill-opacity:1;fill-rule:nonzero;stroke:none" d="M 0,0 H -0.004 C -0.555,0.003 -1.002,0.452 -1,1.004 l 0.006,1.664 c 0.002,0.552 0.449,0.997 1,0.997 H 0.01 C 0.562,3.662 1.008,3.213 1.006,2.661 L 1,0.997 C 0.998,0.445 0.551,0 0,0"/>
      </g>
    </g>
  </g>
</svg>
