<?xml version='1.0' encoding='UTF-8'?>
<!-- Created with Inkscape (http://www.inkscape.org/) and export_objects.py -->
<svg xmlns:cc="http://creativecommons.org/ns#" xmlns:dc="http://purl.org/dc/elements/1.1/" xmlns:inkscape="http://www.inkscape.org/namespaces/inkscape" xmlns:rdf="http://www.w3.org/1999/02/22-rdf-syntax-ns#" xmlns:sodipodi="http://sodipodi.sourceforge.net/DTD/sodipodi-0.dtd" xmlns:xlink="http://www.w3.org/1999/xlink" xmlns="http://www.w3.org/2000/svg" version="1.1" sodipodi:docname="step018.svg" viewBox="0 0 31.147999 34.740821" height="34.740821px" width="31.147999px" xml:space="preserve" id="svg2" inkscape:version="0.92.1 r15371">
  <sodipodi:namedview inkscape:current-layer="g10" inkscape:window-maximized="1" inkscape:window-y="-8" inkscape:window-x="-8" inkscape:cy="-703.13596" inkscape:cx="825.3699" inkscape:zoom="0.42647378" showgrid="false" id="namedview4" inkscape:window-height="1137" inkscape:window-width="1920" inkscape:pageshadow="2" inkscape:pageopacity="0" guidetolerance="10" gridtolerance="10" objecttolerance="10" borderopacity="1" bordercolor="#666666" pagecolor="#ffffff"/>
  <metadata id="metadata8">
    <rdf:RDF>
      <cc:Work rdf:about="">
        <dc:format>image/svg+xml</dc:format>
        <dc:type rdf:resource="http://purl.org/dc/dcmitype/StillImage"/>
        <dc:title/>
      </cc:Work>
    </rdf:RDF>
  </metadata>
  <g inkscape:groupmode="layer" inkscape:label="step" transform="matrix(1.333333,0.000000,0.000000,-1.333333,-700.541920,-922.284500)">
    <g id="g8512" inkscape:label="018">
      <g transform="translate(534.61745,-711.974)" id="g634">
        <path inkscape:connector-curvature="0" id="path636" style="fill:#545454;fill-opacity:1;fill-rule:nonzero;stroke:none" d="M 0,0 5.053,-3.009 V 14.492 L 0,17.501 Z M 7.098,14.492 V -3.009 L 12.15,0 V 17.501 Z M -7.211,14.466 V -3.035 L -2.113,0 v 17.501 z m -1,-20.261 c -0.17,0 -0.34,0.044 -0.494,0.131 -0.313,0.178 -0.506,0.51 -0.506,0.869 v 19.829 c 0,0.353 0.186,0.679 0.488,0.86 l 7.098,4.226 c 0.174,0.105 0.371,0.15 0.568,0.139 0.188,0.01 0.395,-0.035 0.569,-0.139 l 6.562,-3.909 6.565,3.909 c 0.308,0.184 0.691,0.187 1.006,0.01 0.312,-0.178 0.505,-0.51 0.505,-0.869 V -0.568 c 0,-0.353 -0.185,-0.679 -0.488,-0.86 L 6.729,-5.557 C 6.686,-5.592 6.641,-5.624 6.592,-5.651 6.383,-5.768 6.146,-5.812 5.922,-5.775 5.799,-5.759 5.68,-5.72 5.57,-5.658 5.518,-5.629 5.471,-5.595 5.424,-5.559 l -6.481,3.861 -6.642,-3.956 c -0.156,-0.094 -0.334,-0.141 -0.512,-0.141"/>
      </g>
    </g>
  </g>
</svg>
