<?xml version='1.0' encoding='UTF-8'?>
<!-- Created with Inkscape (http://www.inkscape.org/) and export_objects.py -->
<svg xmlns:cc="http://creativecommons.org/ns#" xmlns:dc="http://purl.org/dc/elements/1.1/" xmlns:inkscape="http://www.inkscape.org/namespaces/inkscape" xmlns:rdf="http://www.w3.org/1999/02/22-rdf-syntax-ns#" xmlns:sodipodi="http://sodipodi.sourceforge.net/DTD/sodipodi-0.dtd" xmlns:xlink="http://www.w3.org/1999/xlink" xmlns="http://www.w3.org/2000/svg" version="1.1" id="svg2" xml:space="preserve" width="31.749333px" height="29.311866px" viewBox="0 0 31.749333 29.311866" sodipodi:docname="step131.svg" inkscape:version="0.92.1 r15371">
  <sodipodi:namedview pagecolor="#ffffff" bordercolor="#666666" borderopacity="1" objecttolerance="10" gridtolerance="10" guidetolerance="10" inkscape:pageopacity="0" inkscape:pageshadow="2" inkscape:window-width="1920" inkscape:window-height="1017" id="namedview4" showgrid="false" inkscape:zoom="2.7074568" inkscape:cx="251.64176" inkscape:cy="1027.077" inkscape:window-x="1912" inkscape:window-y="-8" inkscape:window-maximized="1" inkscape:current-layer="g10"/>
  <metadata id="metadata8">
    <rdf:RDF>
      <cc:Work rdf:about="">
        <dc:format>image/svg+xml</dc:format>
        <dc:type rdf:resource="http://purl.org/dc/dcmitype/StillImage"/>
        <dc:title/>
      </cc:Work>
    </rdf:RDF>
  </metadata>
  <g inkscape:groupmode="layer" inkscape:label="step" transform="matrix(1.333333,0.000000,0.000000,-1.333333,-102.450930,1057.512110)">
    <g id="g6539" inkscape:label="131">
      <g transform="translate(78.9082,773.2212)" id="g462">
        <path inkscape:connector-curvature="0" id="path464" style="fill:#545454;fill-opacity:1;fill-rule:nonzero;stroke:none" d="M 0,0 H 19.671 V 5.258 H 15.013 V 4.83 c 0,-1.142 -0.929,-2.071 -2.072,-2.071 H 6.729 c -1.14,0 -2.07,0.929 -2.07,2.071 V 5.258 H 0 Z M 20.707,-2.071 H -1.035 c -0.572,0 -1.035,0.464 -1.035,1.036 v 7.329 c 0,0.572 0.463,1.035 1.035,1.035 h 6.729 c 0.573,0 1.035,-0.463 1.035,-1.035 V 4.83 h 6.212 v 1.464 c 0,0.572 0.463,1.035 1.037,1.035 h 6.729 c 0.572,0 1.035,-0.463 1.035,-1.035 v -7.329 c 0,-0.572 -0.463,-1.036 -1.035,-1.036"/>
      </g>
      <g transform="translate(98.4561,778.6396)" id="g466">
        <path inkscape:connector-curvature="0" id="path468" style="fill:#545454;fill-opacity:1;fill-rule:nonzero;stroke:none" d="M 0,0 C -0.572,0 -1.035,0.464 -1.035,1.036 V 8.283 H -18.118 V 1.036 C -18.118,0.464 -18.581,0 -19.153,0 c -0.573,0 -1.035,0.464 -1.035,1.036 v 8.282 c 0,0.572 0.462,1.036 1.035,1.036 H 0 c 0.572,0 1.035,-0.464 1.035,-1.036 V 1.036 C 1.035,0.464 0.572,0 0,0"/>
      </g>
      <g transform="translate(97.249,790.0283)" id="g470">
        <path inkscape:connector-curvature="0" id="path472" style="fill:#545454;fill-opacity:1;fill-rule:nonzero;stroke:none" d="m 0,0 h -16.739 c -0.285,0 -0.518,0.231 -0.518,0.518 0,0.286 0.233,0.518 0.518,0.518 H 0 C 0.287,1.036 0.518,0.804 0.518,0.518 0.518,0.231 0.287,0 0,0"/>
      </g>
      <g transform="translate(96.2559,792.0991)" id="g474">
        <path inkscape:connector-curvature="0" id="path476" style="fill:#545454;fill-opacity:1;fill-rule:nonzero;stroke:none" d="m 0,0 h -14.753 c -0.285,0 -0.518,0.231 -0.518,0.518 0,0.286 0.233,0.517 0.518,0.517 L 0,1.035 C 0.287,1.035 0.518,0.804 0.518,0.518 0.518,0.231 0.287,0 0,0"/>
      </g>
    </g>
  </g>
</svg>
