<?xml version='1.0' encoding='UTF-8'?>
<!-- Created with Inkscape (http://www.inkscape.org/) and export_objects.py -->
<svg xmlns:cc="http://creativecommons.org/ns#" xmlns:dc="http://purl.org/dc/elements/1.1/" xmlns:inkscape="http://www.inkscape.org/namespaces/inkscape" xmlns:rdf="http://www.w3.org/1999/02/22-rdf-syntax-ns#" xmlns:sodipodi="http://sodipodi.sourceforge.net/DTD/sodipodi-0.dtd" xmlns:xlink="http://www.w3.org/1999/xlink" xmlns="http://www.w3.org/2000/svg" version="1.1" sodipodi:docname="step003.svg" viewBox="0 0 24.442666 30.037333" height="30.037333px" width="24.442666px" xml:space="preserve" id="svg2" inkscape:version="0.92.1 r15371">
  <sodipodi:namedview inkscape:current-layer="g10" inkscape:window-maximized="1" inkscape:window-y="-8" inkscape:window-x="-8" inkscape:cy="-324.59921" inkscape:cx="788.4647" inkscape:zoom="0.42647378" showgrid="false" id="namedview4" inkscape:window-height="1137" inkscape:window-width="1920" inkscape:pageshadow="2" inkscape:pageopacity="0" guidetolerance="10" gridtolerance="10" objecttolerance="10" borderopacity="1" bordercolor="#666666" pagecolor="#ffffff"/>
  <metadata id="metadata8">
    <rdf:RDF>
      <cc:Work rdf:about="">
        <dc:format>image/svg+xml</dc:format>
        <dc:type rdf:resource="http://purl.org/dc/dcmitype/StillImage"/>
        <dc:title/>
      </cc:Work>
    </rdf:RDF>
  </metadata>
  <g inkscape:groupmode="layer" inkscape:label="step" transform="matrix(1.333333,0.000000,0.000000,-1.333333,-108.161940,-283.625900)">
    <g id="g8103" inkscape:label="00003">
      <g transform="translate(92.453454,-234.7474)" id="g2236">
        <path inkscape:connector-curvature="0" id="path2238" style="fill:#545454;fill-opacity:1;fill-rule:nonzero;stroke:none" d="m 0,0 c -0.277,0 -0.5,0.224 -0.5,0.5 v 6 C -0.5,6.776 -0.277,7 0,7 H 6 C 6.275,7 6.5,6.776 6.5,6.5 6.5,6.224 6.275,6 6,6 H 0.5 V 0.5 C 0.5,0.224 0.275,0 0,0"/>
      </g>
      <g transform="translate(92.453454,-235.2474)" id="g2240">
        <path inkscape:connector-curvature="0" id="path2242" style="fill:#545454;fill-opacity:1;fill-rule:nonzero;stroke:none" d="m 0,0 h -10.332 c -0.553,0 -1,0.447 -1,1 v 6 c 0,0.553 0.447,1 1,1 0.553,0 1,-0.447 1,-1 V 2 h 8.918 L 5,7.414 v 13.114 h -15.332 c -0.553,0 -1,0.448 -1,1 0,0.553 0.447,1 1,1 H 6 c 0.553,0 1,-0.447 1,-1 V 7 C 7,6.734 6.895,6.48 6.707,6.293 l -6,-6 C 0.52,0.105 0.266,0 0,0"/>
      </g>
      <g transform="translate(84.784454,-217.9877)" id="g2244">
        <path inkscape:connector-curvature="0" id="path2246" style="fill:#545454;fill-opacity:1;fill-rule:nonzero;stroke:none" d="m 0,0 h -1.046 v -8.18 h -1.48 V 0 H -3.561 V 1.227 H 0 Z"/>
      </g>
      <path inkscape:connector-curvature="0" id="path2248" style="fill:#545454;fill-opacity:1;fill-rule:nonzero;stroke:none" d="m 86.781654,-226.1683 h -1.479 v 9.407 h 1.479 z"/>
      <g transform="translate(90.920254,-221.5365)" id="g2250">
        <path inkscape:connector-curvature="0" id="path2252" style="fill:#545454;fill-opacity:1;fill-rule:nonzero;stroke:none" d="M 0,0 H -1.842 V -4.631 H -3.32 V 4.776 H 0 V 3.585 H -1.842 V 1.203 H 0 Z"/>
      </g>
      <g transform="translate(94.732754,-221.5365)" id="g2254">
        <path inkscape:connector-curvature="0" id="path2256" style="fill:#545454;fill-opacity:1;fill-rule:nonzero;stroke:none" d="M 0,0 H -1.84 V -4.631 H -3.32 V 4.776 H 0 V 3.585 H -1.84 V 1.203 H 0 Z"/>
      </g>
    </g>
  </g>
</svg>
