<?xml version='1.0' encoding='UTF-8'?>
<!-- Created with Inkscape (http://www.inkscape.org/) and export_objects.py -->
<svg xmlns:cc="http://creativecommons.org/ns#" xmlns:dc="http://purl.org/dc/elements/1.1/" xmlns:inkscape="http://www.inkscape.org/namespaces/inkscape" xmlns:rdf="http://www.w3.org/1999/02/22-rdf-syntax-ns#" xmlns:sodipodi="http://sodipodi.sourceforge.net/DTD/sodipodi-0.dtd" xmlns:xlink="http://www.w3.org/1999/xlink" xmlns="http://www.w3.org/2000/svg" version="1.1" id="svg2" xml:space="preserve" width="32.707299px" height="24.698666px" viewBox="0 0 32.707299 24.698666" sodipodi:docname="step123.svg" inkscape:version="0.92.1 r15371">
  <sodipodi:namedview pagecolor="#ffffff" bordercolor="#666666" borderopacity="1" objecttolerance="10" gridtolerance="10" guidetolerance="10" inkscape:pageopacity="0" inkscape:pageshadow="2" inkscape:window-width="1920" inkscape:window-height="1017" id="namedview4" showgrid="false" showguides="true" inkscape:zoom="1.3537284" inkscape:cx="72.045563" inkscape:cy="992.81005" inkscape:window-x="1912" inkscape:window-y="-8" inkscape:window-maximized="1" inkscape:current-layer="g10"/>
  <metadata id="metadata8">
    <rdf:RDF>
      <cc:Work rdf:about="">
        <dc:format>image/svg+xml</dc:format>
        <dc:type rdf:resource="http://purl.org/dc/dcmitype/StillImage"/>
        <dc:title/>
      </cc:Work>
    </rdf:RDF>
  </metadata>
  <g inkscape:groupmode="layer" inkscape:label="step" transform="matrix(1.333333,0.000000,0.000000,-1.333333,114.627040,1099.286370)">
    <g id="g4983" transform="translate(-341.61051)" inkscape:label="123">
      <g id="g4977" transform="translate(273.8877,823.3838)">
        <path d="m 0,0 c -2.869,0 -5.202,-1.788 -5.202,-3.986 0,-1.509 1.152,-2.915 2.936,-3.582 0.144,-0.054 0.258,-0.165 0.314,-0.308 0.056,-0.143 0.05,-0.303 -0.019,-0.44 L -2.003,-8.38 c -0.032,-0.069 -0.066,-0.139 -0.106,-0.205 -0.096,-0.162 -0.204,-0.315 -0.322,-0.462 0.627,0.181 1.172,0.496 1.591,0.929 0.111,0.112 0.261,0.168 0.422,0.163 0.137,-0.009 0.276,-0.017 0.418,-0.017 2.868,0 5.202,1.788 5.202,3.986 C 5.202,-1.788 2.868,0 0,0 m -3.748,-10.308 c -0.151,0 -0.306,0.006 -0.461,0.017 -0.243,0.017 -0.445,0.196 -0.492,0.436 -0.046,0.239 0.074,0.481 0.293,0.588 0.478,0.236 0.871,0.551 1.171,0.941 -1.87,0.908 -3.046,2.557 -3.046,4.34 0,2.794 2.818,5.067 6.283,5.067 3.464,0 6.283,-2.273 6.283,-5.067 0,-2.794 -2.819,-5.067 -6.283,-5.067 -0.083,0 -0.164,0.002 -0.244,0.006 -0.889,-0.815 -2.123,-1.261 -3.504,-1.261" style="fill:#545454;fill-opacity:1;fill-rule:nonzero;stroke:none" id="path4975" inkscape:connector-curvature="0"/>
      </g>
      <g id="g4981" transform="translate(261.0859,816.6548)">
        <path d="M 0,0 C 0.034,-0.006 0.067,-0.014 0.102,-0.025 0.366,-0.113 0.556,-0.347 0.588,-0.623 0.632,-0.988 0.674,-1.351 0.713,-1.716 0.726,-1.762 0.829,-1.918 1.04,-2.052 1.219,-2.166 1.339,-2.351 1.366,-2.561 L 1.529,-3.725 C 1.558,-3.917 1.507,-4.111 1.389,-4.265 1.271,-4.418 1.096,-4.518 0.903,-4.541 c -1.598,-0.192 -3.127,-0.631 -4.541,-1.303 -0.21,-0.111 -0.391,-0.492 -0.369,-0.707 0.055,-0.592 0.115,-1.176 0.176,-1.761 0.022,-0.214 0.241,-0.451 0.395,-0.48 3.998,-0.642 8.169,-0.646 12.206,0.003 0.138,0.026 0.357,0.258 0.379,0.477 l 0.174,1.758 c 0.022,0.217 -0.161,0.599 -0.395,0.721 -1.389,0.662 -2.916,1.1 -4.516,1.292 -0.192,0.023 -0.366,0.123 -0.484,0.276 -0.117,0.153 -0.168,0.348 -0.142,0.539 l 0.169,1.172 c 0.03,0.206 0.149,0.388 0.324,0.5 0.207,0.134 0.307,0.286 0.322,0.335 l 0.128,1.097 c 0.034,0.277 0.223,0.509 0.489,0.597 C 5.25,-0.014 5.283,-0.006 5.317,0 L 5.399,0.798 C 5.36,0.815 5.321,0.837 5.285,0.863 5.064,1.014 4.946,1.275 4.978,1.541 L 4.987,1.612 C 5.022,1.906 5.058,2.197 5.09,2.491 L 5.103,2.637 C 5.155,3.196 5.176,3.825 4.732,4.221 4.27,4.674 3.502,4.931 2.658,4.931 1.815,4.931 1.051,4.674 0.611,4.244 0.144,3.823 0.163,3.193 0.216,2.635 L 0.338,1.536 C 0.369,1.27 0.248,1.009 0.026,0.859 -0.008,0.835 -0.045,0.815 -0.083,0.798 Z m 2.657,-10.714 c -2.112,0 -4.246,0.171 -6.34,0.506 -0.807,0.152 -1.492,0.919 -1.576,1.749 -0.062,0.588 -0.122,1.177 -0.178,1.769 -0.082,0.809 0.426,1.747 1.157,2.13 1.361,0.649 2.795,1.096 4.289,1.342 l -0.025,0.162 c -0.402,0.341 -0.663,0.778 -0.701,1.197 -0.013,0.138 -0.03,0.276 -0.046,0.417 -0.336,0.144 -0.58,0.46 -0.619,0.844 l -0.174,1.67 c -0.029,0.269 0.048,0.538 0.221,0.752 0.052,0.064 0.11,0.122 0.175,0.171 l -0.055,0.503 c -0.054,0.562 -0.18,1.88 0.846,2.794 0.686,0.675 1.799,1.076 3.027,1.076 1.23,0 2.343,-0.401 3.055,-1.098 C 6.712,4.379 6.587,3.063 6.533,2.501 L 6.521,2.363 C 6.507,2.236 6.492,2.114 6.479,1.996 6.542,1.947 6.6,1.891 6.649,1.828 6.822,1.614 6.901,1.345 6.871,1.069 L 6.699,-0.598 C 6.664,-0.981 6.418,-1.3 6.079,-1.444 L 6.027,-1.878 C 5.996,-2.275 5.738,-2.712 5.334,-3.056 L 5.312,-3.218 c 1.491,-0.246 2.918,-0.692 4.257,-1.329 0.753,-0.393 1.263,-1.33 1.184,-2.145 l -0.174,-1.766 c -0.088,-0.834 -0.774,-1.6 -1.564,-1.747 -2.11,-0.338 -4.244,-0.509 -6.358,-0.509" style="fill:#545454;fill-opacity:1;fill-rule:nonzero;stroke:none" id="path4979" inkscape:connector-curvature="0"/>
      </g>
    </g>
  </g>
</svg>
