<?xml version="1.0" encoding="UTF-8" standalone="no"?>
<!-- Created with Inkscape (http://www.inkscape.org/) and export_objects.py -->

<svg
   xmlns:dc="http://purl.org/dc/elements/1.1/"
   xmlns:cc="http://creativecommons.org/ns#"
   xmlns:rdf="http://www.w3.org/1999/02/22-rdf-syntax-ns#"
   xmlns:svg="http://www.w3.org/2000/svg"
   xmlns="http://www.w3.org/2000/svg"
   xmlns:sodipodi="http://sodipodi.sourceforge.net/DTD/sodipodi-0.dtd"
   xmlns:inkscape="http://www.inkscape.org/namespaces/inkscape"
   version="1.1"
   sodipodi:docname="twitter.svg"
   viewBox="0 0 30.000003 30"
   height="30"
   width="30.000004"
   xml:space="preserve"
   id="svg2"
   inkscape:version="0.92.0 r15299"><defs
     id="defs18" /><sodipodi:namedview
     inkscape:current-layer="g4542"
     inkscape:window-maximized="1"
     inkscape:window-y="138"
     inkscape:window-x="1912"
     inkscape:cy="20.848548"
     inkscape:cx="14.281932"
     inkscape:zoom="9.6500001"
     showgrid="false"
     id="namedview4"
     inkscape:window-height="837"
     inkscape:window-width="1600"
     inkscape:pageshadow="2"
     inkscape:pageopacity="0"
     guidetolerance="10"
     gridtolerance="10"
     objecttolerance="10"
     borderopacity="1"
     bordercolor="#666666"
     pagecolor="#ffffff"
     showguides="false"
     fit-margin-top="0"
     fit-margin-left="0"
     fit-margin-right="0"
     fit-margin-bottom="0" /><metadata
     id="metadata8"><rdf:RDF><cc:Work
         rdf:about=""><dc:format>image/svg+xml</dc:format><dc:type
           rdf:resource="http://purl.org/dc/dcmitype/StillImage" /><dc:title></dc:title></cc:Work></rdf:RDF></metadata><g
     inkscape:groupmode="layer"
     inkscape:label="step"
     transform="matrix(1.333333,0,0,-1.333333,-105.32039,-1140.4838)"
     id="g15"><g
       id="g4542"><path
         id="path2534"
         d="m 83.08776,-855.36304 c -2.26171,0 -4.09745,-1.83274 -4.09745,-4.09445 v -14.3096 c 0,-2.26171 1.83574,-4.09595 4.09745,-4.09595 h 14.3081 c 2.26274,0 4.09446,1.83424 4.09446,4.09595 v 14.3096 c 0,2.26171 -1.83172,4.09445 -4.09446,4.09445 z m 9.44575,-8.09592 c 0.55072,-0.0309 0.95077,-0.37895 1.23583,-0.78739 l -0.0435,0.14698 1.38582,0.45444 -0.80689,-1.09186 0.99586,0.19347 -0.99586,-1.36331 c 0.0578,-1.0595 0.17912,-3.48744 -2.00674,-5.21331 -2.37434,-1.87367 -7.01456,0.25197 -7.01456,0.25197 1.36214,0.0626 2.34488,0.28839 3.05509,0.60442 -0.0427,0.0103 -0.0872,0.0125 -0.12898,0.027 -0.91022,0.3133 -1.8553,1.00602 -1.98124,1.4473 l 1.19684,0.12598 c 0,0 -1.25949,0.26614 -1.70077,0.98387 -0.44129,0.71671 -0.44094,1.06636 -0.44094,1.06636 l 1.4488,-0.51293 c 0,0 -0.50461,0.35273 -0.94487,1.17284 -0.44129,0.81909 -0.25241,1.63793 -0.063,2.01573 0,0 1.00781,-1.19649 2.2047,-1.63778 0.74587,-0.27435 1.65786,-0.50647 2.35319,-0.61042 -0.0432,0.83664 -0.14294,1.77779 1.30183,2.50017 0.35438,0.177 0.66961,0.24219 0.94937,0.22647 z"
         style="fill:#666666;fill-opacity:1;fill-rule:nonzero;stroke:none;stroke-width:1.02386343"
         inkscape:connector-curvature="0" /></g></g></svg>