<?xml version='1.0' encoding='UTF-8'?>
<!-- Created with Inkscape (http://www.inkscape.org/) and export_objects.py -->
<svg xmlns:cc="http://creativecommons.org/ns#" xmlns:dc="http://purl.org/dc/elements/1.1/" xmlns:inkscape="http://www.inkscape.org/namespaces/inkscape" xmlns:rdf="http://www.w3.org/1999/02/22-rdf-syntax-ns#" xmlns:sodipodi="http://sodipodi.sourceforge.net/DTD/sodipodi-0.dtd" xmlns:xlink="http://www.w3.org/1999/xlink" xmlns="http://www.w3.org/2000/svg" version="1.1" sodipodi:docname="step013.svg" viewBox="0 0 22.755341 26.527703" height="26.527703px" width="22.755341px" xml:space="preserve" id="svg2" inkscape:version="0.92.1 r15371">
  <sodipodi:namedview inkscape:current-layer="g10" inkscape:window-maximized="1" inkscape:window-y="-8" inkscape:window-x="-8" inkscape:cy="-703.13596" inkscape:cx="825.3699" inkscape:zoom="0.42647378" showgrid="false" id="namedview4" inkscape:window-height="1137" inkscape:window-width="1920" inkscape:pageshadow="2" inkscape:pageopacity="0" guidetolerance="10" gridtolerance="10" objecttolerance="10" borderopacity="1" bordercolor="#666666" pagecolor="#ffffff"/>
  <metadata id="metadata8">
    <rdf:RDF>
      <cc:Work rdf:about="">
        <dc:format>image/svg+xml</dc:format>
        <dc:type rdf:resource="http://purl.org/dc/dcmitype/StillImage"/>
        <dc:title/>
      </cc:Work>
    </rdf:RDF>
  </metadata>
  <g inkscape:groupmode="layer" inkscape:label="step" transform="matrix(1.333333,0.000000,0.000000,-1.333333,-859.883510,-209.976700)">
    <g id="g8239" inkscape:label="013">
      <g transform="translate(652.48665,-177.3783)" id="g506">
        <path inkscape:connector-curvature="0" id="path508" style="fill:#545454;fill-opacity:1;fill-rule:nonzero;stroke:none" d="m 0,0 c -0.382,0 -0.759,0.177 -1.001,0.51 l -6.336,8.709 c -0.316,0.434 -0.316,1.021 0,1.455 l 6.336,8.711 c 0.399,0.554 1.173,0.676 1.73,0.274 0.553,-0.403 0.674,-1.177 0.272,-1.73 L -4.805,9.947 1.001,1.966 C 1.403,1.414 1.282,0.64 0.729,0.237 0.508,0.077 0.254,0 0,0"/>
      </g>
      <g transform="translate(660.74245,-177.3783)" id="g510">
        <path inkscape:connector-curvature="0" id="path512" style="fill:#545454;fill-opacity:1;fill-rule:nonzero;stroke:none" d="m 0,0 c -0.384,0 -0.762,0.177 -1.003,0.51 l -6.336,8.709 c -0.314,0.434 -0.314,1.021 0,1.455 l 6.336,8.711 c 0.401,0.554 1.175,0.676 1.729,0.274 0.553,-0.403 0.677,-1.177 0.273,-1.73 L -4.808,9.947 0.999,1.966 C 1.403,1.414 1.279,0.64 0.726,0.237 0.509,0.077 0.252,0 0,0"/>
      </g>
    </g>
  </g>
</svg>
