<?xml version='1.0' encoding='UTF-8'?>
<!-- Created with Inkscape (http://www.inkscape.org/) and export_objects.py -->
<svg xmlns:cc="http://creativecommons.org/ns#" xmlns:dc="http://purl.org/dc/elements/1.1/" xmlns:inkscape="http://www.inkscape.org/namespaces/inkscape" xmlns:rdf="http://www.w3.org/1999/02/22-rdf-syntax-ns#" xmlns:sodipodi="http://sodipodi.sourceforge.net/DTD/sodipodi-0.dtd" xmlns:xlink="http://www.w3.org/1999/xlink" xmlns="http://www.w3.org/2000/svg" version="1.1" sodipodi:docname="step023.svg" viewBox="0 0 32.839168 32.828357" height="32.828357px" width="32.839168px" xml:space="preserve" id="svg2" inkscape:version="0.92.1 r15371">
  <sodipodi:namedview inkscape:current-layer="g10" inkscape:window-maximized="1" inkscape:window-y="-8" inkscape:window-x="-8" inkscape:cy="-703.13596" inkscape:cx="825.3699" inkscape:zoom="0.42647378" showgrid="false" id="namedview4" inkscape:window-height="1137" inkscape:window-width="1920" inkscape:pageshadow="2" inkscape:pageopacity="0" guidetolerance="10" gridtolerance="10" objecttolerance="10" borderopacity="1" bordercolor="#666666" pagecolor="#ffffff"/>
  <metadata id="metadata8">
    <rdf:RDF>
      <cc:Work rdf:about="">
        <dc:format>image/svg+xml</dc:format>
        <dc:type rdf:resource="http://purl.org/dc/dcmitype/StillImage"/>
        <dc:title/>
      </cc:Work>
    </rdf:RDF>
  </metadata>
  <g inkscape:groupmode="layer" inkscape:label="step" transform="matrix(1.333333,0.000000,0.000000,-1.333333,-777.619650,-208.100400)">
    <g id="g8233" inkscape:label="023">
      <g transform="translate(594.27375,-166.7836)" id="g818">
        <path inkscape:connector-curvature="0" id="path820" style="fill:#545454;fill-opacity:1;fill-rule:nonzero;stroke:none" d="m 0,0 c 0.021,0 0.043,0 0.064,-0.002 2.799,-0.18 8.702,-1.325 11.502,-7.542 -0.031,2.294 -0.519,4.818 -2.021,6.97 C 7.643,2.154 4.389,3.829 -0.127,4.404 -0.627,4.468 -1,4.893 -1,5.396 V 7.653 L -8.439,1.813 -1,-4.026 V -1 c 0,0.276 0.113,0.541 0.316,0.729 C -0.498,-0.096 -0.254,0 0,0 m 11.941,-13.913 c -0.505,0 -0.929,0.414 -0.988,0.92 C 10.002,-4.799 4.709,-2.613 1,-2.104 V -6.082 C 1,-6.465 0.781,-6.814 0.437,-6.981 0.094,-7.148 -0.316,-7.105 -0.617,-6.869 l -10.059,7.896 c -0.242,0.189 -0.383,0.479 -0.383,0.786 0,0.308 0.141,0.598 0.383,0.787 l 10.059,7.896 c 0.301,0.236 0.711,0.278 1.054,0.112 C 0.781,10.441 1,10.092 1,9.709 V 6.262 C 5.652,5.507 9.076,3.594 11.186,0.57 c 2.363,-3.389 2.996,-8.169 1.781,-13.459 l -0.035,-0.149 c -0.045,-0.51 -0.465,-0.868 -0.979,-0.875 z"/>
      </g>
    </g>
  </g>
</svg>
