<?xml version='1.0' encoding='UTF-8'?>
<!-- Created with Inkscape (http://www.inkscape.org/) and export_objects.py -->
<svg xmlns:cc="http://creativecommons.org/ns#" xmlns:dc="http://purl.org/dc/elements/1.1/" xmlns:inkscape="http://www.inkscape.org/namespaces/inkscape" xmlns:rdf="http://www.w3.org/1999/02/22-rdf-syntax-ns#" xmlns:sodipodi="http://sodipodi.sourceforge.net/DTD/sodipodi-0.dtd" xmlns:xlink="http://www.w3.org/1999/xlink" xmlns="http://www.w3.org/2000/svg" version="1.1" sodipodi:docname="step075.svg" viewBox="0 0 31.389666 31.402666" height="31.402666px" width="31.389666px" xml:space="preserve" id="svg2" inkscape:version="0.92.1 r15371">
  <sodipodi:namedview inkscape:current-layer="g10" inkscape:window-maximized="1" inkscape:window-y="-8" inkscape:window-x="1912" inkscape:cy="-862.22917" inkscape:cx="2456.2254" inkscape:zoom="0.3015625" showgrid="false" id="namedview4" inkscape:window-height="1017" inkscape:window-width="1920" inkscape:pageshadow="2" inkscape:pageopacity="0" guidetolerance="10" gridtolerance="10" objecttolerance="10" borderopacity="1" bordercolor="#666666" pagecolor="#ffffff"/>
  <metadata id="metadata8">
    <rdf:RDF>
      <cc:Work rdf:about="">
        <dc:format>image/svg+xml</dc:format>
        <dc:type rdf:resource="http://purl.org/dc/dcmitype/StillImage"/>
        <dc:title/>
      </cc:Work>
    </rdf:RDF>
  </metadata>
  <g inkscape:groupmode="layer" inkscape:label="step" transform="matrix(1.333333,0.000000,0.000000,-1.333333,-1358.333000,-1083.768600)">
    <g id="g8970" inkscape:label="075">
      <g transform="translate(1030.5218,-814.8265)" id="g894">
        <path inkscape:connector-curvature="0" id="path896" style="fill:#545454;fill-opacity:1;fill-rule:nonzero;stroke:none" d="m 0,0 c -2.613,0 -5.068,-1.017 -6.914,-2.862 -3.811,-3.813 -3.813,-10.015 0,-13.825 1.846,-1.848 4.303,-2.865 6.914,-2.865 2.613,0 5.068,1.017 6.914,2.863 3.811,3.811 3.811,10.014 -0.002,13.828 C 5.066,-1.017 2.611,0 0,0 m 0,-21.552 c -3.146,0 -6.104,1.225 -8.328,3.449 -4.592,4.592 -4.592,12.063 0,16.655 C -6.104,0.775 -3.146,2 0,2 3.145,2 6.102,0.775 8.326,-1.448 12.918,-6.041 12.918,-13.513 8.328,-18.104 6.104,-20.327 3.146,-21.552 0,-21.552"/>
      </g>
      <g transform="translate(1035.3617,-828.0228)" id="g898">
        <path inkscape:connector-curvature="0" id="path900" style="fill:#545454;fill-opacity:1;fill-rule:nonzero;stroke:none" d="M 0,0 C -0.256,0 -0.512,0.098 -0.707,0.293 L -4.842,4.427 -8.975,0.293 c -0.39,-0.391 -1.023,-0.391 -1.414,0 -0.39,0.39 -0.39,1.023 0,1.414 l 4.84,4.841 c 0.375,0.375 1.039,0.375 1.414,0 L 0.707,1.707 C 1.098,1.316 1.098,0.683 0.707,0.293 0.512,0.098 0.256,0 0,0"/>
      </g>
    </g>
  </g>
</svg>
