<?xml version='1.0' encoding='UTF-8'?>
<!-- Created with Inkscape (http://www.inkscape.org/) and export_objects.py -->
<svg xmlns:cc="http://creativecommons.org/ns#" xmlns:dc="http://purl.org/dc/elements/1.1/" xmlns:inkscape="http://www.inkscape.org/namespaces/inkscape" xmlns:rdf="http://www.w3.org/1999/02/22-rdf-syntax-ns#" xmlns:sodipodi="http://sodipodi.sourceforge.net/DTD/sodipodi-0.dtd" xmlns:xlink="http://www.w3.org/1999/xlink" xmlns="http://www.w3.org/2000/svg" version="1.1" sodipodi:docname="step085.svg" viewBox="0 0 31.395999 31.403999" height="31.403999px" width="31.395999px" xml:space="preserve" id="svg2" inkscape:version="0.92.1 r15371">
  <sodipodi:namedview inkscape:current-layer="g10" inkscape:window-maximized="1" inkscape:window-y="-8" inkscape:window-x="1912" inkscape:cy="-862.22917" inkscape:cx="2456.2254" inkscape:zoom="0.3015625" showgrid="false" id="namedview4" inkscape:window-height="1017" inkscape:window-width="1920" inkscape:pageshadow="2" inkscape:pageopacity="0" guidetolerance="10" gridtolerance="10" objecttolerance="10" borderopacity="1" bordercolor="#666666" pagecolor="#ffffff"/>
  <metadata id="metadata8">
    <rdf:RDF>
      <cc:Work rdf:about="">
        <dc:format>image/svg+xml</dc:format>
        <dc:type rdf:resource="http://purl.org/dc/dcmitype/StillImage"/>
        <dc:title/>
      </cc:Work>
    </rdf:RDF>
  </metadata>
  <g inkscape:groupmode="layer" inkscape:label="step" transform="matrix(1.333333,0.000000,0.000000,-1.333333,-1981.803000,-884.814200)">
    <g id="g9178" inkscape:label="085">
      <g transform="translate(1498.1273,-665.6107)" id="g1200">
        <path inkscape:connector-curvature="0" id="path1202" style="fill:#545454;fill-opacity:1;fill-rule:nonzero;stroke:none" d="m 0,0 c -2.611,0 -5.066,-1.017 -6.912,-2.862 -1.846,-1.847 -2.863,-4.302 -2.863,-6.914 0,-2.613 1.015,-5.068 2.861,-6.914 1.846,-1.846 4.301,-2.863 6.912,-2.863 2.613,0 5.068,1.018 6.916,2.865 3.811,3.811 3.811,10.013 0,13.826 C 5.068,-1.017 2.613,0 0,0 m -0.002,-21.553 c -3.144,0 -6.102,1.225 -8.326,3.449 -2.223,2.224 -3.447,5.181 -3.447,8.328 0,3.146 1.224,6.104 3.449,8.328 C -6.102,0.775 -3.145,2 0,2 3.146,2 6.104,0.775 8.328,-1.448 c 4.592,-4.593 4.592,-12.064 0,-16.655 -2.224,-2.224 -5.183,-3.45 -8.33,-3.45"/>
      </g>
      <g transform="translate(1491.1703,-682.2572)" id="g1204">
        <path inkscape:connector-curvature="0" id="path1206" style="fill:#545454;fill-opacity:1;fill-rule:nonzero;stroke:none" d="m 0,0 0.047,-0.047 c 1.842,-1.843 4.297,-2.859 6.908,-2.859 2.613,0 5.068,1.017 6.916,2.864 C 13.885,-0.027 13.9,-0.014 13.914,0 12.391,0.688 10.723,1.149 8.982,1.357 8.717,1.39 8.473,1.528 8.309,1.741 8.145,1.955 8.074,2.226 8.111,2.492 l 0.2,1.371 C 8.354,4.148 8.516,4.4 8.758,4.556 8.949,4.678 9.053,4.82 9.07,4.866 L 9.213,6.11 C 9.26,6.496 9.525,6.82 9.895,6.941 9.898,6.943 9.904,6.944 9.908,6.946 L 9.982,7.655 C 9.965,7.666 9.945,7.677 9.928,7.689 9.621,7.9 9.457,8.264 9.502,8.634 l 0.146,1.273 c 0.061,0.641 0.081,1.3 -0.38,1.711 C 8.752,12.123 7.9,12.405 6.957,12.405 6.016,12.405 5.164,12.123 4.684,11.65 4.186,11.205 4.207,10.544 4.27,9.902 L 4.412,8.628 C 4.455,8.257 4.287,7.893 3.977,7.685 3.961,7.674 3.947,7.664 3.932,7.655 L 4.004,6.946 c 0,0 0.012,-0.003 0.017,-0.005 C 4.391,6.82 4.656,6.496 4.703,6.11 4.754,5.684 4.801,5.26 4.848,4.832 4.857,4.825 4.963,4.682 5.154,4.56 5.402,4.402 5.568,4.146 5.609,3.855 L 5.801,2.496 C 5.84,2.229 5.77,1.957 5.605,1.743 5.441,1.528 5.197,1.39 4.93,1.357 3.201,1.15 1.545,0.694 0,0 m 6.955,-4.906 v 0 c -3.144,0 -6.101,1.224 -8.326,3.448 -0.289,0.292 -0.559,0.591 -0.813,0.901 -0.259,0.32 -0.296,0.767 -0.093,1.125 0.271,0.481 0.64,0.852 1.066,1.075 C 0.34,2.38 1.967,2.896 3.658,3.191 3.197,3.605 2.906,4.118 2.857,4.63 2.844,4.761 2.83,4.893 2.814,5.026 2.416,5.231 2.133,5.627 2.082,6.102 L 1.879,8.05 C 1.832,8.502 2.014,8.929 2.33,9.212 L 2.279,9.711 c -0.066,0.682 -0.22,2.277 1.037,3.399 0.827,0.812 2.164,1.295 3.641,1.295 1.475,0 2.816,-0.483 3.676,-1.326 1.221,-1.087 1.07,-2.68 1.006,-3.359 L 11.584,9.21 C 11.9,8.927 12.082,8.502 12.033,8.05 L 11.83,6.103 C 11.785,5.628 11.5,5.229 11.098,5.024 L 11.049,4.608 c -0.039,-0.487 -0.328,-1 -0.791,-1.417 1.689,-0.295 3.308,-0.808 4.83,-1.532 0.465,-0.243 0.834,-0.616 1.103,-1.097 0.204,-0.357 0.164,-0.802 -0.095,-1.121 -0.252,-0.309 -0.522,-0.609 -0.811,-0.897 -2.224,-2.225 -5.183,-3.45 -8.33,-3.45"/>
      </g>
    </g>
  </g>
</svg>
