<?xml version='1.0' encoding='UTF-8'?>
<!-- Created with Inkscape (http://www.inkscape.org/) and export_objects.py -->
<svg xmlns:cc="http://creativecommons.org/ns#" xmlns:dc="http://purl.org/dc/elements/1.1/" xmlns:inkscape="http://www.inkscape.org/namespaces/inkscape" xmlns:rdf="http://www.w3.org/1999/02/22-rdf-syntax-ns#" xmlns:sodipodi="http://sodipodi.sourceforge.net/DTD/sodipodi-0.dtd" xmlns:xlink="http://www.w3.org/1999/xlink" xmlns="http://www.w3.org/2000/svg" version="1.1" id="svg2" xml:space="preserve" width="46.237784px" height="48.731999px" viewBox="0 0 46.237784 48.731999" sodipodi:docname="step137.svg" inkscape:version="0.92.1 r15371">
  <sodipodi:namedview pagecolor="#ffffff" bordercolor="#666666" borderopacity="1" objecttolerance="10" gridtolerance="10" guidetolerance="10" inkscape:pageopacity="0" inkscape:pageshadow="2" inkscape:window-width="1920" inkscape:window-height="1017" id="namedview4" showgrid="false" showguides="true" inkscape:zoom="0.6768642" inkscape:cx="788.52832" inkscape:cy="869.50119" inkscape:window-x="1912" inkscape:window-y="-8" inkscape:window-maximized="1" inkscape:current-layer="g10"/>
  <metadata id="metadata8">
    <rdf:RDF>
      <cc:Work rdf:about="">
        <dc:format>image/svg+xml</dc:format>
        <dc:type rdf:resource="http://purl.org/dc/dcmitype/StillImage"/>
        <dc:title/>
      </cc:Work>
    </rdf:RDF>
  </metadata>
  <g inkscape:groupmode="layer" inkscape:label="step" transform="matrix(1.333333,0.000000,0.000000,-1.333333,-145.000030,631.411450)">
    <path inkscape:connector-curvature="0" id="path100" style="fill:#666666;fill-opacity:1;fill-rule:nonzero;stroke:none" d="m 120.4033,459.9336 c 0.072,-0.012 0.145,-0.03 0.216,-0.054 0.567,-0.187 0.972,-0.687 1.042,-1.279 0.093,-0.781 0.183,-1.556 0.267,-2.338 0.027,-0.099 0.249,-0.433 0.7,-0.719 0.383,-0.243 0.638,-0.639 0.699,-1.089 l 0.347,-2.491 c 0.061,-0.409 -0.047,-0.827 -0.299,-1.155 -0.252,-0.329 -0.627,-0.542 -1.038,-0.592 -3.422,-0.409 -6.692,-1.348 -9.717,-2.788 -0.45,-0.235 -0.838,-1.052 -0.79,-1.512 0.117,-1.266 0.247,-2.515 0.376,-3.766 0.048,-0.459 0.515,-0.967 0.846,-1.029 8.555,-1.373 17.479,-1.38 26.115,0.006 0.297,0.056 0.765,0.553 0.813,1.023 l 0.372,3.76 c 0.045,0.462 -0.345,1.283 -0.846,1.544 -2.972,1.415 -6.241,2.353 -9.663,2.762 -0.411,0.05 -0.783,0.263 -1.036,0.592 -0.252,0.327 -0.359,0.743 -0.302,1.152 l 0.36,2.508 c 0.066,0.442 0.318,0.832 0.693,1.07 0.445,0.286 0.658,0.613 0.688,0.718 l 0.276,2.347 c 0.071,0.592 0.477,1.089 1.044,1.276 0.069,0.024 0.142,0.042 0.213,0.054 l 0.178,1.708 c -0.084,0.037 -0.168,0.084 -0.246,0.138 -0.472,0.323 -0.724,0.883 -0.658,1.452 l 0.021,0.152 c 0.075,0.628 0.15,1.251 0.22,1.879 l 0.026,0.315 c 0.114,1.194 0.156,2.541 -0.792,3.386 -0.991,0.97 -2.633,1.521 -4.437,1.521 -1.804,0 -3.44,-0.549 -4.379,-1.471 -1.002,-0.899 -0.96,-2.247 -0.847,-3.442 l 0.262,-2.351 c 0.065,-0.57 -0.193,-1.129 -0.666,-1.448 -0.076,-0.052 -0.154,-0.095 -0.235,-0.131 z m 5.686,-22.924 c -4.521,0 -9.086,0.365 -13.565,1.084 -1.729,0.324 -3.194,1.964 -3.374,3.741 -0.132,1.258 -0.262,2.519 -0.382,3.786 -0.174,1.73 0.913,3.737 2.477,4.557 2.912,1.388 5.979,2.345 9.177,2.871 l -0.052,0.348 c -0.862,0.728 -1.42,1.664 -1.501,2.559 -0.029,0.295 -0.066,0.592 -0.099,0.892 -0.718,0.308 -1.239,0.984 -1.324,1.808 l -0.372,3.571 c -0.063,0.577 0.102,1.151 0.472,1.61 0.111,0.137 0.237,0.26 0.375,0.366 l -0.118,1.076 c -0.114,1.203 -0.383,4.023 1.811,5.979 1.468,1.444 3.848,2.301 6.477,2.301 2.629,0 5.013,-0.857 6.535,-2.35 2.137,-1.905 1.87,-4.721 1.756,-5.923 l -0.027,-0.295 c -0.03,-0.272 -0.06,-0.534 -0.09,-0.787 0.135,-0.104 0.258,-0.224 0.367,-0.359 0.369,-0.458 0.537,-1.034 0.473,-1.622 l -0.369,-3.567 c -0.075,-0.822 -0.601,-1.503 -1.326,-1.811 l -0.111,-0.931 c -0.067,-0.849 -0.619,-1.784 -1.484,-2.517 l -0.048,-0.349 c 3.192,-0.525 6.247,-1.479 9.111,-2.843 1.612,-0.841 2.701,-2.846 2.533,-4.59 l -0.372,-3.778 c -0.19,-1.785 -1.657,-3.422 -3.347,-3.737 -4.515,-0.725 -9.08,-1.09 -13.603,-1.09" inkscape:label="137"/>
  </g>
</svg>
