<?xml version="1.0" encoding="UTF-8" standalone="no"?>
<!-- Created with Inkscape (http://www.inkscape.org/) and export_objects.py -->

<svg
   xmlns:dc="http://purl.org/dc/elements/1.1/"
   xmlns:cc="http://creativecommons.org/ns#"
   xmlns:rdf="http://www.w3.org/1999/02/22-rdf-syntax-ns#"
   xmlns:svg="http://www.w3.org/2000/svg"
   xmlns="http://www.w3.org/2000/svg"
   xmlns:sodipodi="http://sodipodi.sourceforge.net/DTD/sodipodi-0.dtd"
   xmlns:inkscape="http://www.inkscape.org/namespaces/inkscape"
   version="1.1"
   sodipodi:docname="user-4.svg"
   viewBox="0 0 31.338666 31.341333"
   height="31.341333px"
   width="31.338666px"
   xml:space="preserve"
   id="svg2"
   inkscape:version="0.92.1 r15371"><defs
     id="defs8" /><sodipodi:namedview
     inkscape:current-layer="g5"
     inkscape:window-maximized="1"
     inkscape:window-y="-8"
     inkscape:window-x="1912"
     inkscape:cy="26.819102"
     inkscape:cx="-5.3028253"
     inkscape:zoom="6.8235804"
     showgrid="false"
     id="namedview4"
     inkscape:window-height="1017"
     inkscape:window-width="1920"
     inkscape:pageshadow="2"
     inkscape:pageopacity="0"
     guidetolerance="10"
     gridtolerance="10"
     objecttolerance="10"
     borderopacity="1"
     bordercolor="#666666"
     pagecolor="#ffffff" /><metadata
     id="metadata8"><rdf:RDF><cc:Work
         rdf:about=""><dc:format>image/svg+xml</dc:format><dc:type
           rdf:resource="http://purl.org/dc/dcmitype/StillImage" /><dc:title /></cc:Work></rdf:RDF></metadata><g
     inkscape:groupmode="layer"
     inkscape:label="step"
     transform="matrix(1.333333,0.000000,0.000000,-1.333333,-1438.455600,-1163.885700)"
     id="g5"><g
       id="g4588"><path
         inkscape:label="137"
         d="m 1088.9026,-883.28364 c 0.022,-0.004 0.043,-0.009 0.065,-0.016 0.1688,-0.0557 0.2893,-0.20444 0.31,-0.38062 0.028,-0.23241 0.055,-0.46305 0.08,-0.69576 0.01,-0.0295 0.074,-0.12885 0.2083,-0.21397 0.114,-0.0723 0.1899,-0.19016 0.2081,-0.32407 l 0.1032,-0.7413 c 0.018,-0.12172 -0.014,-0.24611 -0.089,-0.34372 -0.075,-0.0979 -0.1865,-0.16129 -0.3088,-0.17617 -1.0184,-0.12171 -1.9915,-0.40115 -2.8917,-0.82968 -0.1339,-0.0699 -0.2494,-0.31307 -0.2351,-0.44996 0.035,-0.37675 0.073,-0.74844 0.1119,-1.12073 0.014,-0.13659 0.1532,-0.28777 0.2517,-0.30621 2.546,-0.4086 5.2017,-0.41068 7.7717,0.002 0.089,0.0167 0.2276,0.16457 0.2419,0.30443 l 0.1106,1.11895 c 0.014,0.13748 -0.1026,0.3818 -0.2517,0.45947 -0.8844,0.42109 -1.8573,0.70023 -2.8756,0.82194 -0.1223,0.0149 -0.2331,0.0783 -0.3083,0.17618 -0.075,0.0973 -0.1069,0.22111 -0.09,0.34282 l 0.1071,0.74636 c 0.02,0.13153 0.095,0.24759 0.2063,0.31842 0.1324,0.0851 0.1958,0.18242 0.2048,0.21367 l 0.082,0.69845 c 0.022,0.17617 0.1419,0.32408 0.3107,0.37972 0.021,0.007 0.042,0.0125 0.064,0.016 l 0.053,0.50828 c -0.025,0.011 -0.05,0.025 -0.073,0.0411 -0.1405,0.0961 -0.2155,0.26278 -0.1958,0.4321 l 0.01,0.0452 c 0.022,0.18688 0.045,0.37228 0.065,0.55917 l 0.01,0.0937 c 0.034,0.35532 0.047,0.75618 -0.2356,1.00764 -0.2949,0.28866 -0.7836,0.45264 -1.3204,0.45264 -0.5369,0 -1.0237,-0.16338 -1.3032,-0.43776 -0.2982,-0.26753 -0.2857,-0.66869 -0.252,-1.02431 l 0.078,-0.69963 c 0.02,-0.16963 -0.057,-0.33598 -0.1981,-0.43091 -0.022,-0.0155 -0.046,-0.0283 -0.07,-0.0389 z m 1.6921,-6.82197 c -1.3454,0 -2.7039,0.10862 -4.0368,0.3226 -0.5146,0.0964 -0.9505,0.58446 -1.004,1.11328 -0.039,0.37437 -0.078,0.74963 -0.1137,1.12667 -0.052,0.51484 0.2717,1.1121 0.7371,1.35613 0.8666,0.41305 1.7792,0.69785 2.731,0.85437 l -0.015,0.10357 c -0.2566,0.21665 -0.4226,0.49519 -0.4467,0.76154 -0.01,0.0878 -0.02,0.17617 -0.03,0.26544 -0.2136,0.0917 -0.3687,0.29283 -0.394,0.53804 l -0.1107,1.0627 c -0.019,0.17171 0.03,0.34253 0.1405,0.47913 0.033,0.0407 0.071,0.0774 0.1116,0.10891 l -0.035,0.32021 c -0.034,0.358 -0.114,1.19721 0.5388,1.77929 0.437,0.42972 1.1453,0.68476 1.9276,0.68476 0.7823,0 1.4918,-0.25504 1.9447,-0.69934 0.636,-0.56691 0.5565,-1.40492 0.5226,-1.76263 l -0.01,-0.0878 c -0.01,-0.0809 -0.018,-0.15891 -0.027,-0.23421 0.04,-0.031 0.077,-0.0667 0.1092,-0.10683 0.1098,-0.1363 0.1598,-0.30771 0.1408,-0.48269 l -0.1098,-1.06151 c -0.022,-0.24462 -0.1789,-0.44728 -0.3947,-0.53893 l -0.033,-0.27706 c -0.02,-0.25266 -0.1842,-0.5309 -0.4416,-0.74904 l -0.014,-0.10386 c 0.95,-0.15623 1.8591,-0.44013 2.7114,-0.84605 0.4797,-0.25027 0.8037,-0.84693 0.7538,-1.36593 l -0.1108,-1.1243 c -0.056,-0.53119 -0.493,-1.01836 -0.9959,-1.1121 -1.3437,-0.21575 -2.7022,-0.32438 -4.0482,-0.32438"
         style="fill:#545454;fill-opacity:1;fill-rule:nonzero;stroke:none;stroke-width:0.56250012;stroke-miterlimit:4;stroke-dasharray:none;stroke-opacity:1"
         id="path100"
         inkscape:connector-curvature="0" /><path
         inkscape:connector-curvature="0"
         id="path4528"
         d="m 1090.5853,-890.38721 c -1.3599,1.1e-4 -2.733,0.10992 -4.08,0.32617 v 0.002 0 c -0.6552,0.12274 -1.1652,0.69754 -1.2324,1.36133 -0.039,0.37441 -0.077,0.75016 -0.1133,1.1289 -0.065,0.65198 0.3023,1.3244 0.8868,1.63086 v 0.004 l 0.01,0.002 c 0.7901,0.37656 1.6311,0.60832 2.4903,0.77734 -0.1647,0.20553 -0.3548,0.40492 -0.3789,0.65625 -2e-4,0.001 10e-5,0.003 0,0.004 -0.01,0.0867 -0.021,0.17354 -0.031,0.26172 l 0.1699,-0.22656 c -0.3052,0.13104 -0.5287,0.42125 -0.5644,0.76758 l -0.1094,1.0625 c -0.026,0.24389 0.044,0.49192 0.2012,0.68554 0.011,0.0132 0.024,0.0227 0.035,0.0352 l -0.02,0.1875 v 0.002 c -0.034,0.35663 -0.1262,1.32906 0.627,2.00781 0.5057,0.49463 1.278,0.76368 2.1191,0.76368 0.8411,0 1.6154,-0.27057 2.1348,-0.77735 0.739,-0.66607 0.647,-1.63575 0.6132,-1.99219 v -0.002 l -0.01,-0.0918 v -0.002 c 0,-0.0324 -0.01,-0.0651 -0.012,-0.0977 0.011,-0.0118 0.023,-0.0207 0.033,-0.0332 0.1559,-0.19352 0.228,-0.44223 0.2012,-0.68945 v 0.002 l -0.1113,-1.05664 c -0.031,-0.34963 -0.2565,-0.64265 -0.5645,-0.77344 l 0.17,0.22657 -0.031,-0.26758 c -1e-4,-8.8e-4 0,-10e-4 0,-0.002 -0.02,-0.24656 -0.2094,-0.4458 -0.3731,-0.6504 0.8563,-0.16859 1.6939,-0.39954 2.4707,-0.76953 v -0.002 l 0.01,-0.002 c 0.5962,-0.31104 0.9653,-0.98769 0.9023,-1.64258 l -0.1093,-1.12695 v 0 c -0.07,-0.66508 -0.576,-1.23885 -1.2227,-1.35938 v 0 -0.002 c -1.3577,-0.21801 -2.7293,-0.32802 -4.0898,-0.32813 -7e-4,0 0,0 0,0 z m 0,0.5625 c 7e-4,0 0,0 0,0 1.3283,1.1e-4 2.6696,0.1096 3.9961,0.32227 0.3584,0.0684 0.7238,0.46692 0.7656,0.86328 l 0.1113,1.12305 c 0.036,0.38242 -0.2434,0.89606 -0.6054,1.08593 -5e-4,2.6e-4 5e-4,0.002 0,0.002 -0.8255,0.39203 -1.706,0.66689 -2.627,0.81836 l -0.2695,0.0449 0.066,0.48047 0.082,0.0703 c 0.2124,0.18002 0.332,0.4085 0.3438,0.55664 v 0.006 l 0.053,0.44531 0.1504,0.0625 c 0.1236,0.0525 0.2121,0.16509 0.2246,0.30469 v 0.002 l 0.1094,1.06446 v 0.002 c 0.011,0.10274 -0.016,0.19631 -0.08,0.27539 -0.017,0.0216 -0.039,0.0421 -0.062,0.0606 l -0.125,0.0976 0.018,0.15821 c 0.01,0.0721 0.017,0.14975 0.027,0.23437 l 0.01,0.0859 c 0.034,0.35906 0.093,1.05582 -0.4297,1.52148 l -0.01,0.004 v 0.004 c -0.3865,0.37914 -1.0268,0.61914 -1.748,0.61914 -0.7212,0 -1.3621,-0.24132 -1.7305,-0.60352 l -0.01,-0.004 v -0.006 c -0.5441,-0.48511 -0.4794,-1.18481 -0.4454,-1.54296 v 0.004 l 0.053,-0.47656 -0.125,-0.0957 c -0.024,-0.0188 -0.046,-0.0416 -0.064,-0.0645 -0.064,-0.0791 -0.091,-0.17258 -0.08,-0.27148 l 0.1113,-1.06445 c 0.015,-0.1441 0.1027,-0.25624 0.2246,-0.3086 l 0.1504,-0.0645 0.02,-0.16211 c 0.01,-0.0891 0.019,-0.17796 0.029,-0.26563 v -0.002 -0.004 c 0.015,-0.16844 0.1361,-0.39371 0.3476,-0.57227 l 0.082,-0.0684 0.07,-0.48242 -0.2715,-0.0449 c -0.9228,-0.15176 -1.8067,-0.42697 -2.6465,-0.82618 -5e-4,-2.5e-4 5e-4,-0.002 0,-0.002 -0.3451,-0.18198 -0.6259,-0.6996 -0.5879,-1.07617 v -0.002 c 0.035,-0.37534 0.074,-0.75068 0.1133,-1.125 0.04,-0.39292 0.4004,-0.79183 0.7734,-0.86328 1.3162,-0.21109 2.658,-0.32021 3.9863,-0.32032 z m 0,0.35547 c -1.3182,10e-6 -2.6338,0.10384 -3.9218,0.31055 v 0 0 c -0.1623,0.0304 -0.2409,0.11255 -0.3183,0.20312 -0.077,0.0906 -0.1446,0.19969 -0.1602,0.35157 -0.039,0.3727 -0.078,0.74459 -0.1132,1.12304 -0.016,0.16226 0.031,0.28322 0.092,0.4043 0.062,0.12164 0.1369,0.24075 0.293,0.32227 l 0.01,0.002 v 0.002 c 0.9284,0.44195 1.9307,0.73025 2.9785,0.85547 0.048,0.006 0.09,0.0308 0.1191,0.0684 0.028,0.0367 0.042,0.0843 0.035,0.13086 l -0.1035,0.74414 c -0.01,0.0523 -0.035,0.0965 -0.08,0.125 -0.092,0.0582 -0.1619,0.12097 -0.2129,0.17969 -0.051,0.0587 -0.079,0.085 -0.1113,0.18164 l -0.01,0.0293 v 0.0312 c -0.025,0.23095 -0.052,0.45962 -0.08,0.69141 -0.01,0.0688 -0.054,0.12499 -0.1191,0.14649 -0.01,0.002 -0.016,0.006 -0.027,0.008 l -0.211,0.0371 -0.018,0.21484 -0.062,0.70898 0.1836,0.0801 c 0.011,0.005 0.019,0.01 0.022,0.0117 v 0.002 0.002 c 0.054,0.0364 0.082,0.099 0.074,0.16406 v 0.002 l -0.078,0.70313 v 0.002 c -0.018,0.18445 -0.033,0.39527 0,0.61719 0.037,0.21978 0.1372,0.45567 0.3359,0.63672 0.3563,0.34771 0.9038,0.51562 1.4961,0.51562 0.5918,0 1.1439,-0.174 1.5117,-0.53125 0.1934,-0.17575 0.2881,-0.40695 0.3223,-0.62304 0.035,-0.21879 0.02,-0.42903 0,-0.61328 v -0.002 l -0.01,-0.0957 c -0.02,-0.19001 -0.045,-0.37678 -0.066,-0.5625 v -0.0137 l -0.01,-0.0332 c -0.01,-0.0658 0.019,-0.1277 0.072,-0.16406 v -0.002 0 c 0.01,-0.005 0.018,-0.0122 0.025,-0.0156 l 0.1875,-0.082 -0.098,-0.92578 -0.2129,-0.0352 c 0,-6.8e-4 -0.01,-7.1e-4 -0.02,-0.004 v -0.002 c -0.065,-0.0213 -0.1094,-0.0753 -0.1191,-0.14454 l -0.086,-0.7207 -0.01,-0.0234 c -0.032,-0.10978 -0.062,-0.13238 -0.1133,-0.1914 -0.051,-0.059 -0.1189,-0.12181 -0.209,-0.17969 v -0.002 c -0.041,-0.0263 -0.07,-0.0698 -0.078,-0.1211 l -0.1075,-0.74609 c -0.01,-0.0475 0.01,-0.0949 0.033,-0.13086 v 0 c 0.029,-0.0381 0.07,-0.0622 0.1172,-0.0684 1.0476,-0.12522 2.0497,-0.41289 2.9629,-0.84766 l 0.01,-0.002 v -0.002 c 0.1551,-0.0808 0.2418,-0.20218 0.3067,-0.32617 0.065,-0.12344 0.1117,-0.24752 0.096,-0.41016 v -0.002 l -0.1113,-1.11914 c -0.015,-0.15142 -0.083,-0.25995 -0.1582,-0.34961 -0.076,-0.0897 -0.1462,-0.17191 -0.3126,-0.20313 v 0 0 c -1.3001,-0.20875 -2.6213,-0.31251 -3.9395,-0.3125 z m 0,0.5625 c 1.2861,-10e-6 2.5744,0.10159 3.8418,0.30469 -0.077,-0.0145 -0.033,-0.0136 -0.014,0.01 0.019,0.0223 0.027,0.0518 0.027,0.0449 l 0.1113,1.11914 c 0,-0.0263 -0.01,0.0418 -0.033,0.0937 -0.027,0.0507 -0.07,0.0869 -0.066,0.0859 1e-4,-2e-5 0,0.002 0,0.002 -0.8532,0.40496 -1.7939,0.67519 -2.7793,0.79297 -0.1972,0.024 -0.3773,0.12601 -0.4981,0.2832 -0.1219,0.15813 -0.1716,0.35753 -0.1445,0.55273 v 0.002 l 0.1074,0.74804 c 0.032,0.21054 0.1516,0.39886 0.3321,0.51368 0.041,0.0266 0.069,0.0535 0.086,0.0723 l 0.074,0.63672 v 0.002 c 0.027,0.21344 0.2068,0.34441 0.3809,0.46289 l 0.035,0.34375 c -0.1518,0.15794 -0.2836,0.34686 -0.2578,0.56836 v 0.0137 l 0.01,0.0508 v 0.008 c 0.021,0.17843 0.042,0.35458 0.061,0.5293 l 0.01,0.0937 c 0.016,0.16958 0.025,0.33651 0,0.46875 -0.021,0.13334 -0.062,0.22385 -0.1465,0.29882 v 0.004 l -0.01,0.004 c -0.222,0.21725 -0.6436,0.37304 -1.1231,0.37304 -0.4798,0 -0.9046,-0.15831 -1.1074,-0.35742 v -0.004 -0.004 c -0.096,-0.0858 -0.1396,-0.18196 -0.1621,-0.31641 -0.022,-0.13333 -0.014,-0.29907 0,-0.46875 v -0.004 l 0.078,-0.69532 v 0.002 c 0.026,-0.22114 -0.1078,-0.40589 -0.2578,-0.5625 l 0.029,-0.34571 c 0.1752,-0.1188 0.3555,-0.25129 0.3808,-0.46679 0.025,-0.2109 0.049,-0.42104 0.072,-0.63282 0.017,-0.0195 0.046,-0.046 0.088,-0.0723 0.183,-0.1161 0.3066,-0.30795 0.3359,-0.52344 l 0.1035,-0.73828 c 0.029,-0.19687 -0.023,-0.39814 -0.1445,-0.55664 -0.1212,-0.1582 -0.301,-0.25923 -0.498,-0.2832 -0.9855,-0.11778 -1.9256,-0.38819 -2.795,-0.80078 4e-4,2e-4 -3e-4,-0.002 0,-0.002 0.019,0.01 -0.027,-0.0235 -0.053,-0.0742 -0.026,-0.0516 -0.03,-0.12024 -0.033,-0.0937 v -0.002 -0.002 c 0.035,-0.37505 0.072,-0.74532 0.1113,-1.11719 v -0.002 c 0,0.0153 0.01,-0.0192 0.029,-0.043 0.02,-0.0238 0.058,-0.0256 -0.01,-0.0137 1.2561,-0.20128 2.5394,-0.30273 3.8261,-0.30274 z"
         style="color:#000000;font-style:normal;font-variant:normal;font-weight:normal;font-stretch:normal;font-size:medium;line-height:normal;font-family:sans-serif;font-variant-ligatures:normal;font-variant-position:normal;font-variant-caps:normal;font-variant-numeric:normal;font-variant-alternates:normal;font-feature-settings:normal;text-indent:0;text-align:start;text-decoration:none;text-decoration-line:none;text-decoration-style:solid;text-decoration-color:#000000;letter-spacing:normal;word-spacing:normal;text-transform:none;writing-mode:lr-tb;direction:ltr;text-orientation:mixed;dominant-baseline:auto;baseline-shift:baseline;text-anchor:start;white-space:normal;shape-padding:0;clip-rule:nonzero;display:inline;overflow:visible;visibility:visible;opacity:1;isolation:auto;mix-blend-mode:normal;color-interpolation:sRGB;color-interpolation-filters:linearRGB;solid-color:#000000;solid-opacity:1;vector-effect:none;fill:#545454;fill-opacity:1;fill-rule:nonzero;stroke:none;stroke-width:0.56250012;stroke-linecap:butt;stroke-linejoin:miter;stroke-miterlimit:4;stroke-dasharray:none;stroke-dashoffset:0;stroke-opacity:1;color-rendering:auto;image-rendering:auto;shape-rendering:auto;text-rendering:auto;enable-background:accumulate" /><path
         inkscape:connector-curvature="0"
         id="path1596"
         style="fill:#545454;fill-opacity:1;fill-rule:nonzero;stroke:none"
         d="m 1080.677,-894.5845 h 19.834 v 19.834 h -19.834 z m 20.834,-2 h -21.834 c -0.553,0 -1,0.447 -1,1 v 21.834 c 0,0.553 0.447,1 1,1 h 21.834 c 0.553,0 1,-0.447 1,-1 v -21.834 c 0,-0.553 -0.447,-1 -1,-1" /></g></g></svg>