<?xml version='1.0' encoding='UTF-8'?>
<!-- Created with Inkscape (http://www.inkscape.org/) and export_objects.py -->
<svg xmlns:cc="http://creativecommons.org/ns#" xmlns:dc="http://purl.org/dc/elements/1.1/" xmlns:inkscape="http://www.inkscape.org/namespaces/inkscape" xmlns:rdf="http://www.w3.org/1999/02/22-rdf-syntax-ns#" xmlns:sodipodi="http://sodipodi.sourceforge.net/DTD/sodipodi-0.dtd" xmlns:xlink="http://www.w3.org/1999/xlink" xmlns="http://www.w3.org/2000/svg" version="1.1" sodipodi:docname="step077.svg" viewBox="0 0 30.038666 25.500799" height="25.500799px" width="30.038666px" xml:space="preserve" id="svg2" inkscape:version="0.92.1 r15371">
  <sodipodi:namedview inkscape:current-layer="g10" inkscape:window-maximized="1" inkscape:window-y="-8" inkscape:window-x="1912" inkscape:cy="-862.22917" inkscape:cx="2456.2254" inkscape:zoom="0.3015625" showgrid="false" id="namedview4" inkscape:window-height="1017" inkscape:window-width="1920" inkscape:pageshadow="2" inkscape:pageopacity="0" guidetolerance="10" gridtolerance="10" objecttolerance="10" borderopacity="1" bordercolor="#666666" pagecolor="#ffffff"/>
  <metadata id="metadata8">
    <rdf:RDF>
      <cc:Work rdf:about="">
        <dc:format>image/svg+xml</dc:format>
        <dc:type rdf:resource="http://purl.org/dc/dcmitype/StillImage"/>
        <dc:title/>
      </cc:Work>
    </rdf:RDF>
  </metadata>
  <g inkscape:groupmode="layer" inkscape:label="step" transform="matrix(1.333333,0.000000,0.000000,-1.333333,-1902.227600,-650.812900)">
    <g id="g9250" inkscape:label="077">
      <path inkscape:connector-curvature="0" id="path930" style="fill:#545454;fill-opacity:1;fill-rule:nonzero;stroke:none" d="m 1428.6707,-505.2353 h 18.529 v 14.332 h -18.529 z m 19.529,-2 h -20.529 c -0.553,0 -1,0.447 -1,1 v 16.332 c 0,0.552 0.447,1 1,1 h 20.529 c 0.553,0 1,-0.448 1,-1 v -16.332 c 0,-0.553 -0.447,-1 -1,-1"/>
      <g transform="translate(1433.8832,-494.8851)" id="g932">
        <path inkscape:connector-curvature="0" id="path934" style="fill:#545454;fill-opacity:1;fill-rule:nonzero;stroke:none" d="m 0,0 c -0.34,0 -0.627,-0.4 -0.627,-0.873 0,-0.472 0.287,-0.871 0.627,-0.871 0.332,0 0.621,0.407 0.621,0.871 C 0.621,-0.408 0.332,0 0,0 m 0,-3.744 c -1.447,0 -2.627,1.288 -2.627,2.871 C -2.627,0.711 -1.447,2 0,2 1.445,2 2.621,0.711 2.621,-0.873 2.621,-2.456 1.445,-3.744 0,-3.744"/>
      </g>
      <g transform="translate(1431.6878,-502.1713)" id="g936">
        <path inkscape:connector-curvature="0" id="path938" style="fill:#545454;fill-opacity:1;fill-rule:nonzero;stroke:none" d="M 0,0 H 4.387 L 4.459,1.082 C 4.457,1.187 4.305,1.455 4.133,1.519 2.895,1.961 1.498,1.964 0.244,1.516 0.084,1.456 -0.07,1.185 -0.074,1.079 Z m 5.32,-2 h -6.254 c -0.525,0 -0.961,0.407 -0.998,0.931 L -2.07,0.95 c -0.067,1.007 0.648,2.081 1.631,2.446 1.71,0.61 3.566,0.605 5.253,0.002 C 5.809,3.033 6.527,1.957 6.455,0.947 L 6.318,-1.069 C 6.281,-1.593 5.846,-2 5.32,-2"/>
      </g>
      <g transform="translate(1441.9105,-488.1097)" id="g940">
        <path inkscape:connector-curvature="0" id="path942" style="fill:#545454;fill-opacity:1;fill-rule:nonzero;stroke:none" d="m 0,0 h -7.5 c -0.967,0 -1.75,-0.783 -1.75,-1.75 0,-0.967 0.783,-1.75 1.75,-1.75 H 0 c 0.967,0 1.75,0.783 1.75,1.75 C 1.75,-0.783 0.967,0 0,0"/>
      </g>
      <g transform="translate(1444.2445,-497.1937)" id="g944">
        <path inkscape:connector-curvature="0" id="path946" style="fill:#545454;fill-opacity:1;fill-rule:nonzero;stroke:none" d="m 0,0 h -4.166 c -0.553,0 -1,0.448 -1,1 0,0.552 0.447,1 1,1 H 0 C 0.553,2 1,1.552 1,1 1,0.448 0.553,0 0,0"/>
      </g>
      <g transform="translate(1444.2445,-500.3597)" id="g948">
        <path inkscape:connector-curvature="0" id="path950" style="fill:#545454;fill-opacity:1;fill-rule:nonzero;stroke:none" d="m 0,0 h -4.166 c -0.553,0 -1,0.448 -1,1 0,0.552 0.447,1 1,1 H 0 C 0.553,2 1,1.552 1,1 1,0.448 0.553,0 0,0"/>
      </g>
    </g>
  </g>
</svg>
