<?xml version='1.0' encoding='UTF-8'?>
<!-- Created with Inkscape (http://www.inkscape.org/) and export_objects.py -->
<svg xmlns:cc="http://creativecommons.org/ns#" xmlns:dc="http://purl.org/dc/elements/1.1/" xmlns:inkscape="http://www.inkscape.org/namespaces/inkscape" xmlns:rdf="http://www.w3.org/1999/02/22-rdf-syntax-ns#" xmlns:sodipodi="http://sodipodi.sourceforge.net/DTD/sodipodi-0.dtd" xmlns:xlink="http://www.w3.org/1999/xlink" xmlns="http://www.w3.org/2000/svg" version="1.1" id="svg2" xml:space="preserve" width="31.691999px" height="31.693333px" viewBox="0 0 31.691999 31.693333" sodipodi:docname="step129.svg" inkscape:version="0.92.1 r15371">
  <sodipodi:namedview pagecolor="#ffffff" bordercolor="#666666" borderopacity="1" objecttolerance="10" gridtolerance="10" guidetolerance="10" inkscape:pageopacity="0" inkscape:pageshadow="2" inkscape:window-width="1920" inkscape:window-height="1017" id="namedview4" showgrid="false" inkscape:zoom="2.7074568" inkscape:cx="251.64176" inkscape:cy="1027.077" inkscape:window-x="1912" inkscape:window-y="-8" inkscape:window-maximized="1" inkscape:current-layer="g10"/>
  <metadata id="metadata8">
    <rdf:RDF>
      <cc:Work rdf:about="">
        <dc:format>image/svg+xml</dc:format>
        <dc:type rdf:resource="http://purl.org/dc/dcmitype/StillImage"/>
        <dc:title/>
      </cc:Work>
    </rdf:RDF>
  </metadata>
  <g inkscape:groupmode="layer" inkscape:label="step" transform="matrix(1.333333,0.000000,0.000000,-1.333333,-102.130660,1164.593300)">
    <g id="g6518" inkscape:label="129">
      <path inkscape:connector-curvature="0" id="path414" style="fill:#545454;fill-opacity:1;fill-rule:nonzero;stroke:none" d="m 78.598,851.675 h 19.77 v 19.771 h -19.77 z m 20.769,-2 H 77.598 c -0.553,0 -1,0.448 -1,1 v 21.77 c 0,0.553 0.447,1 1,1 h 21.769 c 0.553,0 1,-0.447 1,-1 v -21.77 c 0,-0.552 -0.447,-1 -1,-1"/>
      <g transform="translate(99.0117,866.1167)" id="g416">
        <path inkscape:connector-curvature="0" id="path418" style="fill:#545454;fill-opacity:1;fill-rule:nonzero;stroke:none" d="m 0,0 h -21.059 c -0.275,0 -0.5,0.224 -0.5,0.5 0,0.276 0.225,0.5 0.5,0.5 H 0 C 0.275,1 0.5,0.776 0.5,0.5 0.5,0.224 0.275,0 0,0"/>
      </g>
      <g transform="translate(81.1406,870.5098)" id="g420">
        <path inkscape:connector-curvature="0" id="path422" style="fill:#545454;fill-opacity:1;fill-rule:nonzero;stroke:none" d="m 0,0 c -0.695,0 -1.26,-0.564 -1.26,-1.26 0,-0.696 0.565,-1.26 1.26,-1.26 0.695,0 1.26,0.564 1.26,1.26 C 1.26,-0.564 0.695,0 0,0"/>
      </g>
      <g transform="translate(84.5527,870.5098)" id="g424">
        <path inkscape:connector-curvature="0" id="path426" style="fill:#545454;fill-opacity:1;fill-rule:nonzero;stroke:none" d="m 0,0 c -0.695,0 -1.26,-0.564 -1.26,-1.26 0,-0.696 0.565,-1.26 1.26,-1.26 0.697,0 1.262,0.564 1.262,1.26 C 1.262,-0.564 0.697,0 0,0"/>
      </g>
      <g transform="translate(87.9668,870.5098)" id="g428">
        <path inkscape:connector-curvature="0" id="path430" style="fill:#545454;fill-opacity:1;fill-rule:nonzero;stroke:none" d="m 0,0 c -0.697,0 -1.26,-0.564 -1.26,-1.26 0,-0.696 0.563,-1.26 1.26,-1.26 0.695,0 1.26,0.564 1.26,1.26 C 1.26,-0.564 0.695,0 0,0"/>
      </g>
      <g transform="translate(99.0117,862.3667)" id="g432">
        <path inkscape:connector-curvature="0" id="path434" style="fill:#545454;fill-opacity:1;fill-rule:nonzero;stroke:none" d="m 0,0 h -21.059 c -0.275,0 -0.5,0.224 -0.5,0.5 0,0.276 0.225,0.5 0.5,0.5 H 0 C 0.275,1 0.5,0.776 0.5,0.5 0.5,0.224 0.275,0 0,0"/>
      </g>
      <g transform="translate(94.4004,850.1484)" id="g436">
        <path inkscape:connector-curvature="0" id="path438" style="fill:#545454;fill-opacity:1;fill-rule:nonzero;stroke:none" d="m 0,0 c -0.207,0 -0.375,0.168 -0.375,0.375 v 12.176 c 0,0.207 0.168,0.375 0.375,0.375 0.207,0 0.375,-0.168 0.375,-0.375 V 0.375 C 0.375,0.168 0.207,0 0,0"/>
      </g>
      <g transform="translate(82.5664,850.1484)" id="g440">
        <path inkscape:connector-curvature="0" id="path442" style="fill:#545454;fill-opacity:1;fill-rule:nonzero;stroke:none" d="m 0,0 c -0.207,0 -0.375,0.168 -0.375,0.375 v 12.176 c 0,0.207 0.168,0.375 0.375,0.375 0.207,0 0.375,-0.168 0.375,-0.375 V 0.375 C 0.375,0.168 0.207,0 0,0"/>
      </g>
    </g>
  </g>
</svg>
