<?xml version='1.0' encoding='UTF-8'?>
<!-- Created with Inkscape (http://www.inkscape.org/) and export_objects.py -->
<svg xmlns:cc="http://creativecommons.org/ns#" xmlns:dc="http://purl.org/dc/elements/1.1/" xmlns:inkscape="http://www.inkscape.org/namespaces/inkscape" xmlns:rdf="http://www.w3.org/1999/02/22-rdf-syntax-ns#" xmlns:sodipodi="http://sodipodi.sourceforge.net/DTD/sodipodi-0.dtd" xmlns:xlink="http://www.w3.org/1999/xlink" xmlns="http://www.w3.org/2000/svg" version="1.1" id="svg2" xml:space="preserve" width="31.721333px" height="31.971999px" viewBox="0 0 31.721333 31.971999" sodipodi:docname="step130.svg" inkscape:version="0.92.1 r15371">
  <sodipodi:namedview pagecolor="#ffffff" bordercolor="#666666" borderopacity="1" objecttolerance="10" gridtolerance="10" guidetolerance="10" inkscape:pageopacity="0" inkscape:pageshadow="2" inkscape:window-width="1920" inkscape:window-height="1017" id="namedview4" showgrid="false" inkscape:zoom="2.7074568" inkscape:cx="251.64176" inkscape:cy="1027.077" inkscape:window-x="1912" inkscape:window-y="-8" inkscape:window-maximized="1" inkscape:current-layer="g10"/>
  <metadata id="metadata8">
    <rdf:RDF>
      <cc:Work rdf:about="">
        <dc:format>image/svg+xml</dc:format>
        <dc:type rdf:resource="http://purl.org/dc/dcmitype/StillImage"/>
        <dc:title/>
      </cc:Work>
    </rdf:RDF>
  </metadata>
  <g inkscape:groupmode="layer" inkscape:label="step" transform="matrix(1.333333,0.000000,0.000000,-1.333333,-102.244000,1113.154640)">
    <g id="g6529" inkscape:label="130">
      <path inkscape:connector-curvature="0" id="path444" style="fill:#545454;fill-opacity:1;fill-rule:nonzero;stroke:none" d="m 78.683,829.677 h 3.188 v 3.189 h -3.188 z m 4.187,-2 h -5.187 c -0.553,0 -1,0.448 -1,1 v 5.189 c 0,0.552 0.447,1 1,1 h 5.187 c 0.553,0 1,-0.448 1,-1 v -5.189 c 0,-0.552 -0.447,-1 -1,-1"/>
      <path inkscape:connector-curvature="0" id="path446" style="fill:#545454;fill-opacity:1;fill-rule:nonzero;stroke:none" d="m 86.983,829.677 h 3.189 v 3.189 h -3.189 z m 4.19,-2 h -5.19 c -0.552,0 -1,0.448 -1,1 v 5.189 c 0,0.552 0.448,1 1,1 h 5.19 c 0.553,0 1,-0.448 1,-1 v -5.189 c 0,-0.552 -0.447,-1 -1,-1"/>
      <path inkscape:connector-curvature="0" id="path448" style="fill:#545454;fill-opacity:1;fill-rule:nonzero;stroke:none" d="m 95.286,829.677 h 3.188 v 3.189 h -3.188 z m 4.188,-2 h -5.188 c -0.553,0 -1,0.448 -1,1 v 5.189 c 0,0.552 0.447,1 1,1 h 5.188 c 0.552,0 1,-0.448 1,-1 v -5.189 c 0,-0.552 -0.448,-1 -1,-1"/>
      <path inkscape:connector-curvature="0" id="path450" style="fill:#545454;fill-opacity:1;fill-rule:nonzero;stroke:none" d="m 78.683,821.283 h 3.188 v 3.188 h -3.188 z m 4.187,-2 h -5.187 c -0.553,0 -1,0.446 -1,1 v 5.187 c 0,0.552 0.447,1 1,1 h 5.187 c 0.553,0 1,-0.448 1,-1 v -5.187 c 0,-0.554 -0.447,-1 -1,-1"/>
      <path inkscape:connector-curvature="0" id="path452" style="fill:#545454;fill-opacity:1;fill-rule:nonzero;stroke:none" d="m 86.983,821.283 h 3.189 v 3.188 h -3.189 z m 4.19,-2 h -5.19 c -0.552,0 -1,0.446 -1,1 v 5.187 c 0,0.552 0.448,1 1,1 h 5.19 c 0.553,0 1,-0.448 1,-1 v -5.187 c 0,-0.554 -0.447,-1 -1,-1"/>
      <path inkscape:connector-curvature="0" id="path454" style="fill:#545454;fill-opacity:1;fill-rule:nonzero;stroke:none" d="m 95.286,821.283 h 3.188 v 3.188 h -3.188 z m 4.188,-2 h -5.188 c -0.553,0 -1,0.446 -1,1 v 5.187 c 0,0.552 0.447,1 1,1 h 5.188 c 0.552,0 1,-0.448 1,-1 v -5.187 c 0,-0.554 -0.448,-1 -1,-1"/>
      <path inkscape:connector-curvature="0" id="path456" style="fill:#545454;fill-opacity:1;fill-rule:nonzero;stroke:none" d="m 78.683,812.887 h 3.188 v 3.188 h -3.188 z m 4.187,-2 h -5.187 c -0.553,0 -1,0.447 -1,1 v 5.188 c 0,0.553 0.447,1 1,1 h 5.187 c 0.553,0 1,-0.447 1,-1 v -5.188 c 0,-0.553 -0.447,-1 -1,-1"/>
      <path inkscape:connector-curvature="0" id="path458" style="fill:#545454;fill-opacity:1;fill-rule:nonzero;stroke:none" d="m 86.983,812.887 h 3.189 v 3.188 h -3.189 z m 4.19,-2 h -5.19 c -0.552,0 -1,0.447 -1,1 v 5.188 c 0,0.553 0.448,1 1,1 h 5.19 c 0.553,0 1,-0.447 1,-1 v -5.188 c 0,-0.553 -0.447,-1 -1,-1"/>
      <path inkscape:connector-curvature="0" id="path460" style="fill:#545454;fill-opacity:1;fill-rule:nonzero;stroke:none" d="m 95.286,812.887 h 3.188 v 3.188 h -3.188 z m 4.188,-2 h -5.188 c -0.553,0 -1,0.447 -1,1 v 5.188 c 0,0.553 0.447,1 1,1 h 5.188 c 0.552,0 1,-0.447 1,-1 v -5.188 c 0,-0.553 -0.448,-1 -1,-1"/>
    </g>
  </g>
</svg>
