<?xml version='1.0' encoding='UTF-8'?>
<!-- Created with Inkscape (http://www.inkscape.org/) and export_objects.py -->
<svg xmlns:cc="http://creativecommons.org/ns#" xmlns:dc="http://purl.org/dc/elements/1.1/" xmlns:inkscape="http://www.inkscape.org/namespaces/inkscape" xmlns:rdf="http://www.w3.org/1999/02/22-rdf-syntax-ns#" xmlns:sodipodi="http://sodipodi.sourceforge.net/DTD/sodipodi-0.dtd" xmlns:xlink="http://www.w3.org/1999/xlink" xmlns="http://www.w3.org/2000/svg" version="1.1" sodipodi:docname="step039.svg" viewBox="0 0 32.937548 32.892029" height="32.892029px" width="32.937548px" xml:space="preserve" id="svg2" inkscape:version="0.92.1 r15371">
  <sodipodi:namedview inkscape:current-layer="g10" inkscape:window-maximized="1" inkscape:window-y="-8" inkscape:window-x="-8" inkscape:cy="-703.13596" inkscape:cx="825.3699" inkscape:zoom="0.42647378" showgrid="false" id="namedview4" inkscape:window-height="1137" inkscape:window-width="1920" inkscape:pageshadow="2" inkscape:pageopacity="0" guidetolerance="10" gridtolerance="10" objecttolerance="10" borderopacity="1" bordercolor="#666666" pagecolor="#ffffff"/>
  <metadata id="metadata8">
    <rdf:RDF>
      <cc:Work rdf:about="">
        <dc:format>image/svg+xml</dc:format>
        <dc:type rdf:resource="http://purl.org/dc/dcmitype/StillImage"/>
        <dc:title/>
      </cc:Work>
    </rdf:RDF>
  </metadata>
  <g inkscape:groupmode="layer" inkscape:label="step" transform="matrix(1.333333,0.000000,0.000000,-1.333333,-854.852150,-443.210000)">
    <g id="g8353" inkscape:label="039">
      <g transform="translate(657.83425,-348.4193)" id="g1662">
        <path inkscape:connector-curvature="0" id="path1664" style="fill:#545454;fill-opacity:1;fill-rule:nonzero;stroke:none" d="m 0,0 -1.893,0.648 c 0.237,0.693 0.452,1.393 0.633,2.081 0.789,2.942 1.125,5.797 0.946,8.045 -0.165,2.04 -0.739,3.088 -1.235,3.221 -0.596,0.148 -2.078,-0.762 -3.738,-3.949 l -1.774,0.924 c 1.909,3.668 4.11,5.466 6.03,4.957 C 0.045,15.639 1.391,14.539 1.68,10.934 1.877,8.464 1.52,5.367 0.674,2.214 0.479,1.481 0.252,0.736 0,0"/>
      </g>
      <g transform="translate(657.33815,-344.1312)" id="g1666">
        <path inkscape:connector-curvature="0" id="path1668" style="fill:#545454;fill-opacity:1;fill-rule:nonzero;stroke:none" d="m 0,0 c -0.469,0.539 -0.969,1.074 -1.486,1.591 -2.151,2.151 -4.455,3.87 -6.493,4.838 -1.849,0.879 -3.042,0.907 -3.408,0.542 -0.433,-0.435 -0.379,-2.181 1.553,-5.212 l -1.687,-1.074 c -2.221,3.486 -2.688,6.293 -1.28,7.7 0.787,0.79 2.41,1.404 5.68,-0.15 2.238,-1.063 4.742,-2.922 7.049,-5.23 0.549,-0.548 1.08,-1.117 1.58,-1.691 z"/>
      </g>
      <g transform="translate(647.60965,-350.7592)" id="g1670">
        <path inkscape:connector-curvature="0" id="path1672" style="fill:#545454;fill-opacity:1;fill-rule:nonzero;stroke:none" d="m 0,0 c -3.604,0 -5.91,0.989 -6.385,2.766 -0.135,0.501 -0.177,1.307 0.391,2.291 1.324,2.295 5.498,4.666 10.633,6.04 0.744,0.2 1.504,0.377 2.254,0.523 L 7.275,9.657 C 6.57,9.52 5.857,9.354 5.156,9.165 -0.102,7.758 -3.412,5.531 -4.262,4.058 -4.387,3.842 -4.521,3.532 -4.453,3.283 -4.295,2.688 -2.77,1.868 0.836,2.019 L 0.922,0.021 C 0.605,0.007 0.299,0 0,0"/>
      </g>
      <g transform="translate(650.83425,-357.0765)" id="g1674">
        <path inkscape:connector-curvature="0" id="path1676" style="fill:#545454;fill-opacity:1;fill-rule:nonzero;stroke:none" d="m 0,0 c -0.223,0 -0.443,0.029 -0.66,0.087 -1.076,0.288 -2.422,1.388 -2.709,4.993 -0.197,2.47 0.16,5.566 1.006,8.72 0.205,0.765 0.431,1.51 0.674,2.214 l 1.89,-0.651 c -0.226,-0.661 -0.439,-1.361 -0.633,-2.082 -0.789,-2.937 -1.123,-5.794 -0.943,-8.042 0.162,-2.04 0.736,-3.088 1.232,-3.22 0.614,-0.158 2.08,0.76 3.739,3.949 L 5.369,5.044 C 3.676,1.79 1.754,0 0,0"/>
      </g>
      <g transform="translate(660.25815,-354.5433)" id="g1678">
        <path inkscape:connector-curvature="0" id="path1680" style="fill:#545454;fill-opacity:1;fill-rule:nonzero;stroke:none" d="m 0,0 c -2.65,-0.001 -6.789,2.429 -10.547,6.188 -0.549,0.548 -1.08,1.118 -1.58,1.691 l 1.508,1.314 C -10.148,8.654 -9.648,8.119 -9.133,7.603 -5.285,3.753 -1.701,1.999 0,2 0.25,2 0.584,2.038 0.768,2.222 1.203,2.656 1.146,4.402 -0.785,7.433 L 0.902,8.507 C 3.123,5.021 3.59,2.216 2.182,0.808 1.814,0.439 1.137,0 0,0"/>
      </g>
      <g transform="translate(652.47485,-350.3431)" id="g1682">
        <path inkscape:connector-curvature="0" id="path1684" style="fill:#545454;fill-opacity:1;fill-rule:nonzero;stroke:none" d="m 0,0 -0.383,1.963 c 0.692,0.135 1.406,0.301 2.121,0.492 2.938,0.786 5.58,1.925 7.438,3.204 1.685,1.162 2.304,2.183 2.172,2.679 -0.16,0.594 -1.698,1.421 -5.287,1.263 l -0.088,1.998 c 4.138,0.178 6.791,-0.821 7.306,-2.743 C 13.568,7.779 13.287,6.064 10.311,4.013 8.27,2.606 5.408,1.367 2.256,0.523 1.496,0.32 0.738,0.144 0,0"/>
      </g>
      <g transform="translate(653.48855,-343.4818)" id="g1686">
        <path inkscape:connector-curvature="0" id="path1688" style="fill:#545454;fill-opacity:1;fill-rule:nonzero;stroke:none" d="m 0,0 c -0.695,0 -1.26,-0.564 -1.26,-1.26 0,-0.695 0.565,-1.26 1.26,-1.26 0.695,0 1.262,0.565 1.262,1.26 C 1.262,-0.564 0.695,0 0,0"/>
      </g>
    </g>
  </g>
</svg>
