<?xml version='1.0' encoding='UTF-8'?>
<!-- Created with Inkscape (http://www.inkscape.org/) and export_objects.py -->
<svg xmlns:cc="http://creativecommons.org/ns#" xmlns:dc="http://purl.org/dc/elements/1.1/" xmlns:inkscape="http://www.inkscape.org/namespaces/inkscape" xmlns:rdf="http://www.w3.org/1999/02/22-rdf-syntax-ns#" xmlns:sodipodi="http://sodipodi.sourceforge.net/DTD/sodipodi-0.dtd" xmlns:xlink="http://www.w3.org/1999/xlink" xmlns="http://www.w3.org/2000/svg" version="1.1" sodipodi:docname="step041.svg" viewBox="0 0 24.249999 31.361999" height="31.361999px" width="24.249999px" xml:space="preserve" id="svg2" inkscape:version="0.92.1 r15371">
  <sodipodi:namedview inkscape:current-layer="g10" inkscape:window-maximized="1" inkscape:window-y="-8" inkscape:window-x="-8" inkscape:cy="-703.13596" inkscape:cx="825.3699" inkscape:zoom="0.42647378" showgrid="false" id="namedview4" inkscape:window-height="1137" inkscape:window-width="1920" inkscape:pageshadow="2" inkscape:pageopacity="0" guidetolerance="10" gridtolerance="10" objecttolerance="10" borderopacity="1" bordercolor="#666666" pagecolor="#ffffff"/>
  <metadata id="metadata8">
    <rdf:RDF>
      <cc:Work rdf:about="">
        <dc:format>image/svg+xml</dc:format>
        <dc:type rdf:resource="http://purl.org/dc/dcmitype/StillImage"/>
        <dc:title/>
      </cc:Work>
    </rdf:RDF>
  </metadata>
  <g inkscape:groupmode="layer" inkscape:label="step" transform="matrix(1.333333,0.000000,0.000000,-1.333333,-784.570710,-444.307700)">
    <g id="g8337" inkscape:label="041">
      <g transform="translate(590.42805,-341.2523)" id="g1734">
        <path inkscape:connector-curvature="0" id="path1736" style="fill:#545454;fill-opacity:1;fill-rule:nonzero;stroke:none" d="m 0,0 h -1 c -0.553,0 -1,0.447 -1,1 0,0.553 0.447,1 1,1 H 0 C 0.553,2 1,1.553 1,1 1,0.447 0.553,0 0,0"/>
      </g>
      <g transform="translate(605.61555,-341.2523)" id="g1738">
        <path inkscape:connector-curvature="0" id="path1740" style="fill:#545454;fill-opacity:1;fill-rule:nonzero;stroke:none" d="m 0,0 h -1 c -0.553,0 -1,0.447 -1,1 0,0.553 0.447,1 1,1 H 0 C 0.553,2 1,1.553 1,1 1,0.447 0.553,0 0,0"/>
      </g>
      <g transform="translate(598.01005,-336.3558)" id="g1742">
        <path inkscape:connector-curvature="0" id="path1744" style="fill:#545454;fill-opacity:1;fill-rule:nonzero;stroke:none" d="m 0,0 c -0.553,0 -1,-0.448 -1,-1 0,-0.552 0.447,-1 1,-1 0.551,0 1,0.448 1,1 0,0.552 -0.449,1 -1,1 m 0,-3 c -1.104,0 -2,0.897 -2,2 0,1.103 0.896,2 2,2 C 1.102,1 2,0.103 2,-1 2,-2.103 1.102,-3 0,-3"/>
      </g>
      <g transform="translate(593.07255,-334.2308)" id="g1746">
        <path inkscape:connector-curvature="0" id="path1748" style="fill:#545454;fill-opacity:1;fill-rule:nonzero;stroke:none" d="m 0,0 c -0.311,0 -0.562,-0.252 -0.562,-0.562 0,-0.311 0.251,-0.563 0.562,-0.563 0.311,0 0.562,0.252 0.562,0.563 C 0.562,-0.252 0.311,0 0,0 m 0,-2.125 c -0.861,0 -1.562,0.701 -1.562,1.563 C -1.562,0.299 -0.861,1 0,1 0.861,1 1.562,0.299 1.562,-0.562 1.562,-1.424 0.861,-2.125 0,-2.125"/>
      </g>
      <g transform="translate(595.11355,-339.4594)" id="g1750">
        <path inkscape:connector-curvature="0" id="path1752" style="fill:#545454;fill-opacity:1;fill-rule:nonzero;stroke:none" d="m 0,0 c -0.414,0 -0.75,-0.336 -0.75,-0.75 0,-0.414 0.336,-0.75 0.75,-0.75 0.414,0 0.75,0.336 0.75,0.75 C 0.75,-0.336 0.414,0 0,0"/>
      </g>
      <g transform="translate(603.49055,-356.7523)" id="g1754">
        <path inkscape:connector-curvature="0" id="path1756" style="fill:#545454;fill-opacity:1;fill-rule:nonzero;stroke:none" d="m 0,0 h -12 c -1.104,0 -2,0.897 -2,2 v 14.5 c 0,0.553 0.447,1 1,1 0.553,0 1,-0.447 1,-1 V 2 H 0 v 14.5 c 0,0.553 0.447,1 1,1 0.553,0 1,-0.447 1,-1 V 2 C 2,0.897 1.102,0 0,0"/>
      </g>
      <g transform="translate(601.61355,-342.8344)" id="g1758">
        <path inkscape:connector-curvature="0" id="path1760" style="fill:#545454;fill-opacity:1;fill-rule:nonzero;stroke:none" d="m 0,0 h -3.25 c -0.275,0 -0.5,0.224 -0.5,0.5 0,0.276 0.225,0.5 0.5,0.5 H 0 C 0.277,1 0.5,0.776 0.5,0.5 0.5,0.224 0.277,0 0,0"/>
      </g>
      <g transform="translate(601.61355,-345.3344)" id="g1762">
        <path inkscape:connector-curvature="0" id="path1764" style="fill:#545454;fill-opacity:1;fill-rule:nonzero;stroke:none" d="m 0,0 h -3.25 c -0.275,0 -0.5,0.224 -0.5,0.5 0,0.276 0.225,0.5 0.5,0.5 H 0 C 0.277,1 0.5,0.776 0.5,0.5 0.5,0.224 0.277,0 0,0"/>
      </g>
      <g transform="translate(601.61355,-347.8344)" id="g1766">
        <path inkscape:connector-curvature="0" id="path1768" style="fill:#545454;fill-opacity:1;fill-rule:nonzero;stroke:none" d="m 0,0 h -3.25 c -0.275,0 -0.5,0.224 -0.5,0.5 0,0.276 0.225,0.5 0.5,0.5 H 0 C 0.277,1 0.5,0.776 0.5,0.5 0.5,0.224 0.277,0 0,0"/>
      </g>
      <g transform="translate(601.61355,-350.3344)" id="g1770">
        <path inkscape:connector-curvature="0" id="path1772" style="fill:#545454;fill-opacity:1;fill-rule:nonzero;stroke:none" d="m 0,0 h -3.25 c -0.275,0 -0.5,0.224 -0.5,0.5 0,0.276 0.225,0.5 0.5,0.5 H 0 C 0.277,1 0.5,0.776 0.5,0.5 0.5,0.224 0.277,0 0,0"/>
      </g>
      <g transform="translate(601.61355,-352.8344)" id="g1774">
        <path inkscape:connector-curvature="0" id="path1776" style="fill:#545454;fill-opacity:1;fill-rule:nonzero;stroke:none" d="m 0,0 h -3.25 c -0.275,0 -0.5,0.224 -0.5,0.5 0,0.276 0.225,0.5 0.5,0.5 H 0 C 0.277,1 0.5,0.776 0.5,0.5 0.5,0.224 0.277,0 0,0"/>
      </g>
    </g>
  </g>
</svg>
