<?xml version='1.0' encoding='UTF-8'?>
<!-- Created with Inkscape (http://www.inkscape.org/) and export_objects.py -->
<svg xmlns:cc="http://creativecommons.org/ns#" xmlns:dc="http://purl.org/dc/elements/1.1/" xmlns:inkscape="http://www.inkscape.org/namespaces/inkscape" xmlns:rdf="http://www.w3.org/1999/02/22-rdf-syntax-ns#" xmlns:sodipodi="http://sodipodi.sourceforge.net/DTD/sodipodi-0.dtd" xmlns:xlink="http://www.w3.org/1999/xlink" xmlns="http://www.w3.org/2000/svg" version="1.1" sodipodi:docname="step006.svg" viewBox="0 0 24.442666 30.037333" height="30.037333px" width="24.442666px" xml:space="preserve" id="svg2" inkscape:version="0.92.1 r15371">
  <sodipodi:namedview inkscape:current-layer="g10" inkscape:window-maximized="1" inkscape:window-y="-8" inkscape:window-x="-8" inkscape:cy="-324.59921" inkscape:cx="788.4647" inkscape:zoom="0.42647378" showgrid="false" id="namedview4" inkscape:window-height="1137" inkscape:window-width="1920" inkscape:pageshadow="2" inkscape:pageopacity="0" guidetolerance="10" gridtolerance="10" objecttolerance="10" borderopacity="1" bordercolor="#666666" pagecolor="#ffffff"/>
  <metadata id="metadata8">
    <rdf:RDF>
      <cc:Work rdf:about="">
        <dc:format>image/svg+xml</dc:format>
        <dc:type rdf:resource="http://purl.org/dc/dcmitype/StillImage"/>
        <dc:title/>
      </cc:Work>
    </rdf:RDF>
  </metadata>
  <g inkscape:groupmode="layer" inkscape:label="step" transform="matrix(1.333333,0.000000,0.000000,-1.333333,-108.161940,-600.959200)">
    <g id="g8155" inkscape:label="00006">
      <g transform="translate(92.453454,-472.7474)" id="g2304">
        <path inkscape:connector-curvature="0" id="path2306" style="fill:#545454;fill-opacity:1;fill-rule:nonzero;stroke:none" d="m 0,0 c -0.277,0 -0.5,0.224 -0.5,0.5 v 6 C -0.5,6.776 -0.277,7 0,7 H 6 C 6.275,7 6.5,6.776 6.5,6.5 6.5,6.224 6.275,6 6,6 H 0.5 V 0.5 C 0.5,0.224 0.275,0 0,0"/>
      </g>
      <g transform="translate(92.453454,-473.2474)" id="g2308">
        <path inkscape:connector-curvature="0" id="path2310" style="fill:#545454;fill-opacity:1;fill-rule:nonzero;stroke:none" d="m 0,0 h -10.332 c -0.553,0 -1,0.447 -1,1 v 6 c 0,0.553 0.447,1 1,1 0.553,0 1,-0.447 1,-1 V 2 h 8.918 L 5,7.414 v 13.114 h -15.332 c -0.553,0 -1,0.448 -1,1 0,0.553 0.447,1 1,1 H 6 c 0.553,0 1,-0.447 1,-1 V 7 C 7,6.734 6.895,6.48 6.707,6.293 l -6,-6 C 0.52,0.105 0.266,0 0,0"/>
      </g>
      <g transform="translate(84.904554,-456.0238)" id="g2312">
        <path inkscape:connector-curvature="0" id="path2314" style="fill:#545454;fill-opacity:1;fill-rule:nonzero;stroke:none" d="m 0,0 -2.08,-6.917 h 2.008 v -1.227 h -3.489 v 1.299 l 2.094,6.917 H -3.393 V 1.263 H 0 Z"/>
      </g>
      <path inkscape:connector-curvature="0" id="path2316" style="fill:#545454;fill-opacity:1;fill-rule:nonzero;stroke:none" d="m 87.033654,-464.1683 h -1.479 v 9.407 h 1.479 z"/>
      <g transform="translate(90.210254,-457.5155)" id="g2318">
        <path inkscape:connector-curvature="0" id="path2320" style="fill:#545454;fill-opacity:1;fill-rule:nonzero;stroke:none" d="m 0,0 v 0.782 c 0,0.313 -0.048,0.53 -0.145,0.65 -0.096,0.12 -0.272,0.18 -0.529,0.18 H -0.806 V -0.95 h 0.132 c 0.257,0 0.433,0.072 0.529,0.216 C -0.048,-0.589 0,-0.345 0,0 M 1.479,-0.325 C 1.479,-0.95 1.341,-1.403 1.064,-1.684 0.788,-1.965 0.337,-2.105 -0.289,-2.105 h -0.517 v -4.547 h -1.48 v 9.407 h 2.057 c 0.61,0 1.046,-0.12 1.312,-0.361 C 1.347,2.153 1.479,1.749 1.479,1.179 Z"/>
      </g>
    </g>
  </g>
</svg>
