<?xml version='1.0' encoding='UTF-8'?>
<!-- Created with Inkscape (http://www.inkscape.org/) and export_objects.py -->
<svg xmlns:cc="http://creativecommons.org/ns#" xmlns:dc="http://purl.org/dc/elements/1.1/" xmlns:inkscape="http://www.inkscape.org/namespaces/inkscape" xmlns:rdf="http://www.w3.org/1999/02/22-rdf-syntax-ns#" xmlns:sodipodi="http://sodipodi.sourceforge.net/DTD/sodipodi-0.dtd" xmlns:xlink="http://www.w3.org/1999/xlink" xmlns="http://www.w3.org/2000/svg" version="1.1" sodipodi:docname="step062.svg" viewBox="0 0 30.461533 30.976533" height="30.976533px" width="30.461533px" xml:space="preserve" id="svg2" inkscape:version="0.92.1 r15371">
  <sodipodi:namedview inkscape:current-layer="g10" inkscape:window-maximized="1" inkscape:window-y="-8" inkscape:window-x="1912" inkscape:cy="-862.22917" inkscape:cx="2456.2254" inkscape:zoom="0.3015625" showgrid="false" id="namedview4" inkscape:window-height="1017" inkscape:window-width="1920" inkscape:pageshadow="2" inkscape:pageopacity="0" guidetolerance="10" gridtolerance="10" objecttolerance="10" borderopacity="1" bordercolor="#666666" pagecolor="#ffffff"/>
  <metadata id="metadata8">
    <rdf:RDF>
      <cc:Work rdf:about="">
        <dc:format>image/svg+xml</dc:format>
        <dc:type rdf:resource="http://purl.org/dc/dcmitype/StillImage"/>
        <dc:title/>
      </cc:Work>
    </rdf:RDF>
  </metadata>
  <g inkscape:groupmode="layer" inkscape:label="step" transform="matrix(1.333333,0.000000,0.000000,-1.333333,-1358.807400,-203.939300)">
    <g id="g8730" inkscape:label="062">
      <g transform="translate(1029.0746,-154.9545)" id="g678">
        <path inkscape:connector-curvature="0" id="path680" style="fill:#545454;fill-opacity:1;fill-rule:nonzero;stroke:none" d="m 0,0 c -4.393,-0.001 -7.967,-3.577 -7.969,-7.972 0.002,-4.391 3.574,-7.965 7.967,-7.965 4.395,0 7.971,3.574 7.971,7.967 C 7.967,-3.575 4.393,0 0,0 m -0.002,-17.937 c -5.494,0 -9.965,4.471 -9.967,9.965 C -9.967,-2.474 -5.496,1.999 0,2 c 5.494,0 9.967,-4.472 9.969,-9.969 0,-5.496 -4.473,-9.968 -9.971,-9.968"/>
      </g>
      <g transform="translate(1040.9515,-176.1869)" id="g682">
        <path inkscape:connector-curvature="0" id="path684" style="fill:#545454;fill-opacity:1;fill-rule:nonzero;stroke:none" d="M 0,0 C -0.256,0 -0.512,0.098 -0.707,0.293 L -6.275,5.86 c -0.391,0.39 -0.391,1.024 0,1.414 0.39,0.391 1.023,0.391 1.414,0 L 0.707,1.707 C 1.098,1.317 1.098,0.684 0.707,0.293 0.512,0.098 0.256,0 0,0"/>
      </g>
      <g transform="translate(1029.0765,-167.7455)" id="g686">
        <path inkscape:connector-curvature="0" id="path688" style="fill:#545454;fill-opacity:1;fill-rule:nonzero;stroke:none" d="m 0,0 c -0.553,0 -1,0.448 -1,1 v 7.875 c 0,0.552 0.447,1 1,1 0.553,0 1,-0.448 1,-1 V 1 C 1,0.448 0.553,0 0,0"/>
      </g>
      <g transform="translate(1033.014,-163.808)" id="g690">
        <path inkscape:connector-curvature="0" id="path692" style="fill:#545454;fill-opacity:1;fill-rule:nonzero;stroke:none" d="m 0,0 h -7.875 c -0.553,0 -1,0.448 -1,1 0,0.552 0.447,1 1,1 H 0 C 0.553,2 1,1.552 1,1 1,0.448 0.553,0 0,0"/>
      </g>
    </g>
  </g>
</svg>
