<?xml version="1.0" encoding="UTF-8" standalone="no"?>
<!DOCTYPE svg PUBLIC "-//W3C//DTD SVG 1.1//EN"
 "http://www.w3.org/Graphics/SVG/1.1/DTD/svg11.dtd">
<!-- Generated by graphviz version 2.38.0 (20140413.2041)
 -->
<!-- Title: workflow Pages: 1 -->
<svg width="1484pt" height="298pt"
 viewBox="0.00 0.00 1484.00 298.00" xmlns="http://www.w3.org/2000/svg" xmlns:xlink="http://www.w3.org/1999/xlink">
<g id="graph0" class="graph" transform="scale(1 1) rotate(0) translate(4 294)">
<title>workflow</title>
<polygon fill="white" stroke="none" points="-4,4 -4,-294 1480,-294 1480,4 -4,4"/>
<!-- place_imported -->
<g id="node1" class="node"><title>place_imported</title>
<ellipse fill="lightblue" stroke="#333333" cx="36" cy="-68" rx="36" ry="36"/>
<text text-anchor="middle" x="36" y="-65.8" font-family="Arial" font-size="9.00">imported</text>
</g>
<!-- transition_attach_metryczka -->
<g id="node9" class="node"><title>transition_attach_metryczka</title>
<polygon fill="none" stroke="#333333" points="180,-104 108,-104 108,-32 180,-32 180,-104"/>
<text text-anchor="middle" x="144" y="-65.8" font-family="Arial" font-size="9.00">attach_metryczka</text>
</g>
<!-- place_imported&#45;&gt;transition_attach_metryczka -->
<g id="edge1" class="edge"><title>place_imported&#45;&gt;transition_attach_metryczka</title>
<path fill="none" stroke="#333333" d="M72.0021,-68C81.7591,-68 92.4394,-68 102.485,-68"/>
<polygon fill="#333333" stroke="#333333" points="102.672,-69.7501 107.672,-68 102.672,-66.2501 102.672,-69.7501"/>
</g>
<!-- place_ready_to_scan -->
<g id="node2" class="node"><title>place_ready_to_scan</title>
<ellipse fill="none" stroke="#333333" cx="252" cy="-68" rx="36" ry="36"/>
<text text-anchor="middle" x="252" y="-65.8" font-family="Arial" font-size="9.00">ready_to_scan</text>
</g>
<!-- transition_scan -->
<g id="node10" class="node"><title>transition_scan</title>
<polygon fill="none" stroke="#333333" points="396,-104 324,-104 324,-32 396,-32 396,-104"/>
<text text-anchor="middle" x="360" y="-65.8" font-family="Arial" font-size="9.00">scan</text>
</g>
<!-- place_ready_to_scan&#45;&gt;transition_scan -->
<g id="edge3" class="edge"><title>place_ready_to_scan&#45;&gt;transition_scan</title>
<path fill="none" stroke="#333333" d="M288.002,-68C297.759,-68 308.439,-68 318.485,-68"/>
<polygon fill="#333333" stroke="#333333" points="318.672,-69.7501 323.672,-68 318.672,-66.2501 318.672,-69.7501"/>
</g>
<!-- place_scanned -->
<g id="node3" class="node"><title>place_scanned</title>
<ellipse fill="none" stroke="#333333" cx="468" cy="-68" rx="36" ry="36"/>
<text text-anchor="middle" x="468" y="-65.8" font-family="Arial" font-size="9.00">scanned</text>
</g>
<!-- transition_verify -->
<g id="node11" class="node"><title>transition_verify</title>
<polygon fill="none" stroke="#333333" points="612,-194 540,-194 540,-122 612,-122 612,-194"/>
<text text-anchor="middle" x="576" y="-155.8" font-family="Arial" font-size="9.00">verify</text>
</g>
<!-- place_scanned&#45;&gt;transition_verify -->
<g id="edge5" class="edge"><title>place_scanned&#45;&gt;transition_verify</title>
<path fill="none" stroke="#333333" d="M496.023,-90.9437C508.029,-101.138 522.4,-113.339 535.571,-124.522"/>
<polygon fill="#333333" stroke="#333333" points="534.672,-126.055 539.616,-127.957 536.937,-123.387 534.672,-126.055"/>
</g>
<!-- transition_reject -->
<g id="node12" class="node"><title>transition_reject</title>
<polygon fill="none" stroke="#333333" points="612,-104 540,-104 540,-32 612,-32 612,-104"/>
<text text-anchor="middle" x="576" y="-65.8" font-family="Arial" font-size="9.00">reject</text>
</g>
<!-- place_scanned&#45;&gt;transition_reject -->
<g id="edge7" class="edge"><title>place_scanned&#45;&gt;transition_reject</title>
<path fill="none" stroke="#333333" d="M504.002,-68C513.759,-68 524.439,-68 534.485,-68"/>
<polygon fill="#333333" stroke="#333333" points="534.672,-69.7501 539.672,-68 534.672,-66.2501 534.672,-69.7501"/>
</g>
<!-- place_require_rescan -->
<g id="node4" class="node"><title>place_require_rescan</title>
<ellipse fill="none" stroke="#333333" cx="684" cy="-68" rx="36" ry="36"/>
<text text-anchor="middle" x="684" y="-65.8" font-family="Arial" font-size="9.00">require_rescan</text>
</g>
<!-- transition_rescan -->
<g id="node13" class="node"><title>transition_rescan</title>
<polygon fill="none" stroke="#333333" points="828,-72 756,-72 756,-0 828,-0 828,-72"/>
<text text-anchor="middle" x="792" y="-33.8" font-family="Arial" font-size="9.00">rescan</text>
</g>
<!-- place_require_rescan&#45;&gt;transition_rescan -->
<g id="edge9" class="edge"><title>place_require_rescan&#45;&gt;transition_rescan</title>
<path fill="none" stroke="#333333" d="M718.831,-57.787C729.024,-54.7098 740.31,-51.3026 750.871,-48.1144"/>
<polygon fill="#333333" stroke="#333333" points="751.385,-49.7874 755.666,-46.667 750.373,-46.4368 751.385,-49.7874"/>
</g>
<!-- place_verified -->
<g id="node5" class="node"><title>place_verified</title>
<ellipse fill="none" stroke="#333333" cx="684" cy="-158" rx="36" ry="36"/>
<text text-anchor="middle" x="684" y="-155.8" font-family="Arial" font-size="9.00">verified</text>
</g>
<!-- transition_ocr -->
<g id="node14" class="node"><title>transition_ocr</title>
<polygon fill="none" stroke="#333333" points="828,-194 756,-194 756,-122 828,-122 828,-194"/>
<text text-anchor="middle" x="792" y="-155.8" font-family="Arial" font-size="9.00">ocr</text>
</g>
<!-- place_verified&#45;&gt;transition_ocr -->
<g id="edge11" class="edge"><title>place_verified&#45;&gt;transition_ocr</title>
<path fill="none" stroke="#333333" d="M720.002,-158C729.759,-158 740.439,-158 750.485,-158"/>
<polygon fill="#333333" stroke="#333333" points="750.672,-159.75 755.672,-158 750.672,-156.25 750.672,-159.75"/>
</g>
<!-- place_recognized -->
<g id="node6" class="node"><title>place_recognized</title>
<ellipse fill="none" stroke="#333333" cx="900" cy="-158" rx="36" ry="36"/>
<text text-anchor="middle" x="900" y="-155.8" font-family="Arial" font-size="9.00">recognized</text>
</g>
<!-- transition_approve -->
<g id="node15" class="node"><title>transition_approve</title>
<polygon fill="none" stroke="#333333" points="1044,-226 972,-226 972,-154 1044,-154 1044,-226"/>
<text text-anchor="middle" x="1008" y="-187.8" font-family="Arial" font-size="9.00">approve</text>
</g>
<!-- place_recognized&#45;&gt;transition_approve -->
<g id="edge13" class="edge"><title>place_recognized&#45;&gt;transition_approve</title>
<path fill="none" stroke="#333333" d="M934.831,-168.213C945.024,-171.29 956.31,-174.697 966.871,-177.886"/>
<polygon fill="#333333" stroke="#333333" points="966.373,-179.563 971.666,-179.333 967.385,-176.213 966.373,-179.563"/>
</g>
<!-- place_approved -->
<g id="node7" class="node"><title>place_approved</title>
<ellipse fill="none" stroke="#333333" cx="1116" cy="-190" rx="36" ry="36"/>
<text text-anchor="middle" x="1116" y="-187.8" font-family="Arial" font-size="9.00">approved</text>
</g>
<!-- transition_publish -->
<g id="node16" class="node"><title>transition_publish</title>
<polygon fill="none" stroke="#333333" points="1260,-290 1188,-290 1188,-218 1260,-218 1260,-290"/>
<text text-anchor="middle" x="1224" y="-251.8" font-family="Arial" font-size="9.00">publish</text>
</g>
<!-- place_approved&#45;&gt;transition_publish -->
<g id="edge15" class="edge"><title>place_approved&#45;&gt;transition_publish</title>
<path fill="none" stroke="#333333" d="M1147.09,-208.169C1158.43,-215.015 1171.5,-222.906 1183.57,-230.191"/>
<polygon fill="#333333" stroke="#333333" points="1182.78,-231.758 1187.96,-232.844 1184.59,-228.762 1182.78,-231.758"/>
</g>
<!-- transition_disapprove -->
<g id="node18" class="node"><title>transition_disapprove</title>
<polygon fill="none" stroke="#333333" points="1260,-162 1188,-162 1188,-90 1260,-90 1260,-162"/>
<text text-anchor="middle" x="1224" y="-123.8" font-family="Arial" font-size="9.00">disapprove</text>
</g>
<!-- place_approved&#45;&gt;transition_disapprove -->
<g id="edge19" class="edge"><title>place_approved&#45;&gt;transition_disapprove</title>
<path fill="none" stroke="#333333" d="M1147.09,-171.831C1158.43,-164.985 1171.5,-157.094 1183.57,-149.809"/>
<polygon fill="#333333" stroke="#333333" points="1184.59,-151.238 1187.96,-147.156 1182.78,-148.242 1184.59,-151.238"/>
</g>
<!-- place_published -->
<g id="node8" class="node"><title>place_published</title>
<ellipse fill="none" stroke="#333333" cx="1332" cy="-254" rx="36" ry="36"/>
<text text-anchor="middle" x="1332" y="-251.8" font-family="Arial" font-size="9.00">published</text>
</g>
<!-- transition_unpublish -->
<g id="node17" class="node"><title>transition_unpublish</title>
<polygon fill="none" stroke="#333333" points="1476,-258 1404,-258 1404,-186 1476,-186 1476,-258"/>
<text text-anchor="middle" x="1440" y="-219.8" font-family="Arial" font-size="9.00">unpublish</text>
</g>
<!-- place_published&#45;&gt;transition_unpublish -->
<g id="edge17" class="edge"><title>place_published&#45;&gt;transition_unpublish</title>
<path fill="none" stroke="#333333" d="M1366.83,-243.787C1377.02,-240.71 1388.31,-237.303 1398.87,-234.114"/>
<polygon fill="#333333" stroke="#333333" points="1399.38,-235.787 1403.67,-232.667 1398.37,-232.437 1399.38,-235.787"/>
</g>
<!-- transition_attach_metryczka&#45;&gt;place_ready_to_scan -->
<g id="edge2" class="edge"><title>transition_attach_metryczka&#45;&gt;place_ready_to_scan</title>
<path fill="none" stroke="#333333" d="M180.002,-68C189.759,-68 200.439,-68 210.485,-68"/>
<polygon fill="#333333" stroke="#333333" points="210.672,-69.7501 215.672,-68 210.672,-66.2501 210.672,-69.7501"/>
</g>
<!-- transition_scan&#45;&gt;place_scanned -->
<g id="edge4" class="edge"><title>transition_scan&#45;&gt;place_scanned</title>
<path fill="none" stroke="#333333" d="M396.002,-68C405.759,-68 416.439,-68 426.485,-68"/>
<polygon fill="#333333" stroke="#333333" points="426.672,-69.7501 431.672,-68 426.672,-66.2501 426.672,-69.7501"/>
</g>
<!-- transition_verify&#45;&gt;place_verified -->
<g id="edge6" class="edge"><title>transition_verify&#45;&gt;place_verified</title>
<path fill="none" stroke="#333333" d="M612.002,-158C621.759,-158 632.439,-158 642.485,-158"/>
<polygon fill="#333333" stroke="#333333" points="642.672,-159.75 647.672,-158 642.672,-156.25 642.672,-159.75"/>
</g>
<!-- transition_reject&#45;&gt;place_require_rescan -->
<g id="edge8" class="edge"><title>transition_reject&#45;&gt;place_require_rescan</title>
<path fill="none" stroke="#333333" d="M612.002,-68C621.759,-68 632.439,-68 642.485,-68"/>
<polygon fill="#333333" stroke="#333333" points="642.672,-69.7501 647.672,-68 642.672,-66.2501 642.672,-69.7501"/>
</g>
<!-- transition_rescan&#45;&gt;place_scanned -->
<g id="edge10" class="edge"><title>transition_rescan&#45;&gt;place_scanned</title>
<path fill="none" stroke="#333333" d="M755.653,-26.9933C706.285,-16.011 614.383,-1.4133 540,-23 526.02,-27.0573 512.155,-34.7849 500.437,-42.7065"/>
<polygon fill="#333333" stroke="#333333" points="499.335,-41.3414 496.221,-45.6274 501.328,-44.2184 499.335,-41.3414"/>
</g>
<!-- transition_ocr&#45;&gt;place_recognized -->
<g id="edge12" class="edge"><title>transition_ocr&#45;&gt;place_recognized</title>
<path fill="none" stroke="#333333" d="M828.002,-158C837.759,-158 848.439,-158 858.485,-158"/>
<polygon fill="#333333" stroke="#333333" points="858.672,-159.75 863.672,-158 858.672,-156.25 858.672,-159.75"/>
</g>
<!-- transition_approve&#45;&gt;place_approved -->
<g id="edge14" class="edge"><title>transition_approve&#45;&gt;place_approved</title>
<path fill="none" stroke="#333333" d="M1044,-190C1053.76,-190 1064.44,-190 1074.49,-190"/>
<polygon fill="#333333" stroke="#333333" points="1074.67,-191.75 1079.67,-190 1074.67,-188.25 1074.67,-191.75"/>
</g>
<!-- transition_publish&#45;&gt;place_published -->
<g id="edge16" class="edge"><title>transition_publish&#45;&gt;place_published</title>
<path fill="none" stroke="#333333" d="M1260,-254C1269.76,-254 1280.44,-254 1290.49,-254"/>
<polygon fill="#333333" stroke="#333333" points="1290.67,-255.75 1295.67,-254 1290.67,-252.25 1290.67,-255.75"/>
</g>
<!-- transition_unpublish&#45;&gt;place_approved -->
<g id="edge18" class="edge"><title>transition_unpublish&#45;&gt;place_approved</title>
<path fill="none" stroke="#333333" d="M1403.72,-214.782C1392.36,-212.661 1379.68,-210.507 1368,-209 1293.98,-199.449 1207.02,-194.186 1157.32,-191.74"/>
<polygon fill="#333333" stroke="#333333" points="1157.12,-189.978 1152.04,-191.483 1156.95,-193.474 1157.12,-189.978"/>
</g>
<!-- transition_disapprove&#45;&gt;place_recognized -->
<g id="edge20" class="edge"><title>transition_disapprove&#45;&gt;place_recognized</title>
<path fill="none" stroke="#333333" d="M1187.96,-127.483C1139.34,-129.808 1048.71,-135.101 972,-145 961.747,-146.323 950.728,-148.143 940.503,-150.003"/>
<polygon fill="#333333" stroke="#333333" points="940.152,-148.288 935.553,-150.917 940.788,-151.73 940.152,-148.288"/>
</g>
</g>
</svg>
